# Split Birch_2_leaves mesh for Ursina textured rendering
o Birch_2_leaves
v 0.148410 8.083158 -0.243008
v -0.319538 8.004243 -0.205560
v -0.592034 7.913107 0.173969
v -0.032832 8.147948 0.362152
v 0.305629 7.965159 0.888628
v -0.162317 7.886240 0.926079
v -0.211517 7.451201 1.283725
v 0.579844 7.584660 1.220396
v -0.477395 7.650762 -0.630029
v -0.938224 7.496637 0.011806
v 0.578134 8.056294 0.509101
v 1.040683 7.738784 0.578560
v 0.531656 8.108397 0.038223
v -0.545557 7.861000 0.644847
v 0.313978 7.784220 -0.693360
v -0.859633 7.408519 0.808127
v 0.962090 7.826904 -0.217765
v 3.362006 8.173694 -1.249690
v 2.967397 8.219873 -1.275411
v 2.694749 8.300993 -0.996853
v 3.179887 8.412102 -0.811416
v 2.677081 8.368355 -0.604852
v 2.332310 8.011921 -1.089753
v 2.302434 8.125834 -0.426834
v 3.630163 8.250514 -0.580697
v 3.357518 8.331636 -0.302134
v 3.453137 8.063740 0.085104
v 3.914225 7.926551 -0.385980
v 3.647828 8.183151 -0.972695
v 2.962903 8.377815 -0.327855
v 2.713450 8.941600 -0.173377
v 3.188161 8.731110 0.205357
v 3.357697 8.813992 -0.237936
v 3.129689 8.872835 -0.658264
v 2.314091 8.678249 0.255866
v 2.764423 8.672449 0.427009
v 2.086078 8.737093 -0.164460
v 2.255618 8.819974 -0.607755
v 2.679354 8.878634 -0.829407
v 2.668919 8.576581 -1.326128
v 1.952323 8.477378 -0.951285
v 3.529374 8.327091 0.423799
v 3.816089 8.467258 -0.325876
v 1.665608 8.337210 -0.201610
v 2.051209 8.237700 0.509209
v 2.812782 8.227892 0.798636
v 3.430494 8.566771 -1.036699
v 2.529113 8.144264 -0.801736
v 3.042558 8.149372 -0.321208
v 3.236297 7.999051 -0.787867
v 2.994879 7.830834 -1.225270
v 2.085797 8.110024 -0.256887
v 2.575020 8.202137 -0.083451
v 1.844380 7.941807 -0.694290
v 2.038112 7.791489 -1.160944
v 2.505659 7.738718 -1.398701
v 2.506927 7.187780 -1.716848
v 1.716261 7.277018 -1.314771
v 3.414886 7.882249 0.105342
v 3.742527 7.628037 -0.683837
v 1.388620 7.531228 -0.525590
v 1.796890 7.815707 0.214116
v 2.624224 7.971483 0.507419
v 3.334261 7.343559 -1.423546
v 2.830564 7.847481 -0.983515
v 3.340817 7.653078 -0.971774
v 3.136856 7.472394 -1.313801
v 2.730961 7.430645 -1.414790
v 2.896845 7.958549 -0.441826
v 3.257518 7.856398 -0.606052
v 2.490950 7.916802 -0.542818
v 2.286992 7.736116 -0.884847
v 2.370291 7.532799 -1.250567
v 2.026242 7.077283 -1.349193
v 1.885370 7.421120 -0.730709
v 3.667529 7.280694 -0.877716
v 3.322606 6.975130 -1.456131
v 2.230298 7.726682 -0.152300
v 2.916712 7.797284 0.018496
v 3.526658 7.624534 -0.259230
v 2.636194 6.904528 -1.626927
v 2.616524 8.407497 -0.337562
v 2.194010 8.219305 -0.514868
v 2.184085 8.222838 -0.143701
v 2.455003 8.261276 0.107301
v 2.811495 8.296046 -0.779074
v 2.443401 8.248131 -0.788461
v 3.082416 8.334485 -0.528074
v 3.072487 8.338017 -0.156904
v 2.823102 8.309193 0.116689
v 2.991916 8.040667 0.433244
v 3.413663 8.089417 -0.029433
v 1.928043 7.888652 -0.634806
v 1.911258 7.894629 -0.007108
v 3.430453 8.083439 -0.657135
v 2.972291 8.018434 -1.081613
v 2.349790 7.937401 -1.097483
v 2.369423 7.959633 0.417370
v 3.944095 7.812638 -1.048895
v 3.460737 7.796634 -1.517345
v 2.793395 7.874730 -1.560837
v 2.785794 8.141836 0.041613
v 2.109296 7.505778 -0.109553
v 2.286699 7.208325 0.502502
v 2.709321 7.236658 0.188669
v 2.750526 7.319618 -0.330292
v 1.448103 7.328434 0.051492
v 1.761919 7.243070 0.466385
v 1.489314 7.411393 -0.467469
v 1.911932 7.439728 -0.781301
v 2.436717 7.404976 -0.745183
v 2.647463 7.052335 -1.230960
v 1.759995 7.111098 -1.292037
v 2.393760 6.719769 0.879038
v 3.108468 6.767682 0.348309
v 1.045291 7.063183 -0.761308
v 0.975595 6.922889 0.116326
v 1.506296 6.778527 0.817962
v 3.178164 6.907979 -0.529323
v 2.482137 7.262936 -0.227946
v 2.920744 6.988703 -0.052708
v 2.943769 7.012973 -0.488723
v 2.658046 7.096253 -0.785570
v 2.241916 7.118456 0.253278
v 2.641071 7.029121 0.266946
v 1.956194 7.201739 -0.043570
v 1.979221 7.226007 -0.479585
v 2.258900 7.185590 -0.799239
v 2.054547 6.889910 -1.253558
v 1.581581 6.958260 -0.712984
v 3.173819 6.556950 0.008925
v 3.212767 6.597988 -0.728439
v 1.542645 6.917220 0.024376
v 2.025828 6.776376 0.526386
v 2.700851 6.625300 0.549503
v 2.729577 6.738832 -1.230445
v -0.075147 5.968885 0.026092
v -0.374377 5.509306 0.355891
v -0.036464 5.711866 0.629561
v 0.337340 5.989782 0.514902
v -0.295469 5.674984 -0.497924
v -0.496774 5.482880 -0.107177
v 0.078335 5.952901 -0.612592
v 0.416247 6.155459 -0.338917
v 0.538647 6.181888 0.124153
v 1.112457 6.116585 0.164513
v 0.905464 6.071891 -0.618601
v -0.431589 4.979158 0.556411
v 0.139869 5.321714 1.019231
v 0.334007 5.729334 -1.081425
v -0.298142 5.259341 -0.887507
v -0.638578 4.934468 -0.226699
v 0.772019 5.791708 0.825323
v 1.054808 5.718790 -0.808780
v 0.656116 5.775759 -0.235999
v 1.159240 5.858250 -0.111267
v 1.601539 5.750357 -0.372468
v 0.522390 5.357173 -1.084524
v 0.374250 5.572242 -0.629228
v 0.964689 5.249280 -1.345726
v 1.467803 5.331768 -1.221002
v 1.749672 5.535285 -0.827764
v 2.241057 5.151523 -0.715898
v 1.764385 4.807353 -1.380899
v 0.391703 5.558192 0.284848
v 1.242550 5.697695 0.495789
v 0.913541 4.667849 -1.591835
v 0.165553 4.850311 -1.150115
v -0.084967 5.214022 -0.380145
v 1.990538 5.515235 0.054069
v 1.375938 5.951831 0.363099
v 0.863871 5.809380 0.726105
v 1.268330 5.686882 0.958898
v 1.720145 5.628139 0.800156
v 0.967991 5.949562 -0.134745
v 0.721201 5.920685 0.278831
v 1.419807 5.890821 -0.293488
v 1.824269 5.768321 -0.060689
v 1.966940 5.657016 0.386575
v 2.325787 5.199515 0.355480
v 2.084517 5.387751 -0.400902
v 0.460351 5.457181 0.929659
v 1.144348 5.250018 1.323344
v 1.400515 5.594911 -0.794595
v 0.636431 5.694248 -0.526145
v 0.219080 5.645415 0.173282
v 1.908437 5.150683 1.054901
v 1.247607 6.093433 0.354305
v 0.663993 5.900965 0.545677
v 0.985156 5.822959 0.897180
v 1.467404 5.810512 0.889008
v 1.018157 6.045101 -0.245104
v 0.658365 5.993603 0.072203
v 1.500405 6.032655 -0.253279
v 1.821571 5.954653 0.098232
v 1.827203 5.862015 0.571705
v 2.220270 5.444206 0.671596
v 2.210758 5.600870 -0.129115
v 0.253129 5.510077 0.627576
v 0.796261 5.378160 1.222017
v 1.667624 5.732784 -0.723548
v 0.852068 5.753830 -0.709747
v 0.243614 5.666736 -0.173127
v 1.611814 5.357112 1.208211
v 0.675311 5.191373 0.046164
v 0.395224 5.056095 0.471949
v 0.774766 5.104392 0.571206
v 1.101238 5.121353 0.349026
v 0.278548 4.987198 -0.234778
v 0.176329 5.006805 0.146538
v 0.605020 5.004160 -0.456959
v 0.984554 5.052457 -0.357707
v 1.203452 5.101743 -0.032291
v 1.591169 4.826346 -0.069457
v 1.220989 4.742995 -0.619767
v 0.224345 4.749147 0.783272
v 0.866198 4.830822 0.951133
v 0.579137 4.661317 -0.787624
v 0.027029 4.632635 -0.411890
v -0.145834 4.665792 0.232968
v 1.418306 4.859507 0.575400
v 0.528931 8.152311 1.017297
v 0.945198 8.076271 0.921197
v 1.173878 8.155875 0.561112
v 0.682667 8.462048 0.553057
v 0.345185 8.574126 0.076806
v 0.761450 8.498083 -0.019297
v 0.757551 8.309926 -0.499028
v 0.053590 8.438522 -0.336511
v 1.068291 7.596585 1.091475
v 1.455021 7.731206 0.482520
v 0.116498 8.494522 0.436891
v -0.333148 8.303902 0.272446
v 0.176047 8.322607 0.830834
v 1.114329 8.327788 0.167166
v 0.364319 7.725181 1.253996
v 1.354322 8.021935 -0.183695
v -0.232449 8.013171 0.938665
v 0.256008 8.792260 -0.460808
v -0.068674 8.673443 -0.571159
v -0.371500 8.599734 -0.385208
v -0.072384 8.865564 -0.112690
v -0.490179 8.605543 -0.042283
v -0.518033 8.229220 -0.549551
v -0.718728 8.239043 0.030377
v 0.304067 8.891446 0.190650
v 0.001241 8.817741 0.376606
v 0.112321 8.597896 0.738772
v 0.624447 8.722544 0.424300
v 0.422743 8.885634 -0.152274
v -0.323444 8.698920 0.266253
v 0.301066 8.722227 0.784952
v 0.577991 8.334048 1.125375
v 0.859624 8.504462 0.834651
v 0.790752 8.728691 0.463355
v -0.192660 8.452357 0.948232
v 0.144282 8.303455 1.187355
v -0.261535 8.676586 0.576936
v 0.020100 8.847000 0.286212
v 0.453810 8.877592 0.224232
v 0.556225 8.779924 -0.286547
v -0.177236 8.728189 -0.181731
v 0.766227 7.860714 1.237407
v 1.242515 8.148911 0.745751
v -0.653524 8.439991 0.309924
v -0.537041 8.060794 0.937830
v 0.032772 7.808981 1.342221
v 1.126039 8.528111 0.117844
v -0.474697 8.385183 -0.250445
v -0.166887 8.545100 0.288656
v 0.139497 8.550912 -0.081499
v 0.105240 8.363773 -0.522776
v -0.915843 8.120869 0.132281
v -0.603251 8.374219 0.395000
v -0.950101 7.933732 -0.308997
v -0.643723 7.939542 -0.679148
v -0.207351 8.110421 -0.785490
v 0.085466 7.698097 -1.069342
v -0.652482 7.409120 -0.889503
v 0.153888 8.433190 0.747185
v 0.672027 8.443021 0.121207
v -1.170620 7.399288 -0.263523
v -1.112686 7.715765 0.482736
v -0.584055 8.144213 0.927026
v 0.614096 8.126547 -0.625052
v -0.078285 8.285358 -0.345577
v 0.401879 8.332088 -0.222619
v 0.383622 8.139791 -0.571316
v 0.101429 7.953143 -0.751177
v -0.178418 8.344509 0.148586
v 0.180056 8.424474 0.083184
v -0.460612 8.157862 -0.031278
v -0.478866 7.965567 -0.379976
v -0.257042 7.873182 -0.685778
v -0.318634 7.375743 -0.851968
v -0.693767 7.531978 -0.334816
v 0.795688 8.151815 -0.068705
v 0.764818 7.826616 -0.658399
v -0.662890 7.857178 0.254875
v -0.185671 8.172820 0.559051
v 0.420554 8.308052 0.448451
v 0.287599 7.510975 -0.962574
v -0.606438 8.584456 0.180709
v -0.825754 8.280500 -0.071086
v -0.907668 8.239896 0.254810
v -0.759648 8.353524 0.537202
v -0.320202 8.619604 -0.166739
v -0.588010 8.433446 -0.257246
v -0.172179 8.733234 0.115653
v -0.254095 8.692628 0.441551
v -0.491836 8.539686 0.627711
v -0.309073 8.356338 0.943692
v 0.092978 8.614988 0.628876
v -0.873768 7.918020 -0.238070
v -1.012297 7.849354 0.313069
v 0.231512 8.683654 0.077735
v -0.018812 8.491491 -0.399830
v -0.471716 8.176669 -0.552886
v -0.761970 8.041518 0.790634
v 0.825137 8.712717 -0.155625
v 0.543175 8.554805 -0.677409
v -0.005909 8.353865 -0.864024
v -0.436764 8.396955 0.552158
v 2.436233 7.671024 -0.361506
v 2.097957 7.739631 -0.315745
v 1.895129 7.712922 -0.033999
v 2.341989 7.701888 0.092271
v 1.920979 7.617666 0.299907
v 1.543625 7.541968 -0.168904
v 1.587343 7.380878 0.395769
v 2.734044 7.461457 0.157335
v 2.531221 7.434748 0.439087
v 2.619338 7.071540 0.631142
v 2.962347 7.116707 0.154664
v 2.708193 7.556712 -0.176569
v 2.192940 7.503354 0.484847
v 2.196670 7.801557 0.069798
v 2.682486 7.593369 0.384266
v 2.793546 7.641820 -0.060551
v 2.529354 7.689954 -0.435291
v 1.857431 7.592674 0.538343
v 2.304781 7.571057 0.647684
v 1.593238 7.640810 0.163604
v 1.704293 7.689260 -0.281208
v 2.082004 7.711569 -0.544629
v 1.997650 7.399888 -0.997731
v 1.358903 7.362159 -0.552258
v 3.013137 7.199994 0.573158
v 3.200959 7.281930 -0.179085
v 1.171083 7.280220 0.199986
v 1.617869 7.198820 0.833720
v 2.374395 7.162261 1.018629
v 2.754176 7.363333 -0.812821
v 2.918625 7.277797 -0.410004
v 2.458706 7.471112 -0.722774
v 1.886631 7.587134 -0.645382
v 2.047262 7.187562 0.708535
v -0.002504 5.687780 -0.185790
v 0.603819 5.837297 -0.046023
v 0.536707 5.857809 -0.520560
v 0.186196 5.682598 -0.797249
v -0.019281 5.406965 0.388991
v 0.387242 5.657310 0.342321
v -0.369797 5.231750 0.112307
v -0.436905 5.252265 -0.362232
v -0.220327 5.432250 -0.750580
v -0.237045 5.033006 -1.169477
v -0.603308 4.728623 -0.512731
v 1.156698 5.717990 0.022025
v 1.043205 5.752681 -0.780488
v -0.489817 4.693929 0.289785
v 0.102950 4.990239 0.757691
v 0.790434 5.413610 0.678765
v 0.450442 5.456377 -1.248403
v 3.134459 8.347184 0.190927
v 3.216193 8.451755 -0.130968
v 3.020924 8.484705 -0.417356
v 2.747387 8.452224 -0.043361
v 2.690586 8.437243 -0.516652
v 3.250119 8.328083 -0.723818
v 2.691479 8.247818 -0.891737
v 2.525432 8.189713 0.269005
v 2.330157 8.222664 -0.017380
v 2.081945 7.884936 -0.047408
v 2.412178 7.829211 0.436914
v 2.855768 8.237173 0.368298
v 2.411892 8.327233 -0.339280
v 2.829249 8.560161 -0.158273
v 2.345802 8.357398 0.163309
v 2.727151 8.330302 0.420959
v 3.173022 8.346731 0.304886
v 2.487665 8.453092 -0.658380
v 2.228612 8.407671 -0.279734
v 2.933538 8.469522 -0.774454
v 3.314883 8.442429 -0.516811
v 3.432073 8.392151 -0.073761
v 3.850414 8.026534 -0.044116
v 3.652231 8.111556 -0.793357
v 2.013382 7.967762 0.356794
v 2.658291 7.921940 0.792516
v 3.007321 8.157375 -1.229079
v 2.253292 8.129593 -1.032782
v 1.815200 8.052779 -0.392443
v 3.412319 7.949724 0.596224
v 2.970814 7.909476 0.604827
v 3.442131 8.095514 0.304875
v 3.580351 8.272356 -0.239498
v 2.220166 8.061778 -0.591783
vt 0.103565 0.238015
vt 0.102426 0.293373
vt 0.086846 0.242644
vt -0.116020 0.561506
vt 0.086119 0.287991
vt 0.119242 0.243674
vt -0.155896 0.554305
vt -0.136002 0.557370
vt -0.196786 0.554871
vt -0.217321 0.559637
vt 0.076201 0.256651
vt -0.237140 0.565421
vt 0.118796 0.288035
vt 0.076123 0.274059
vt -0.176035 0.553547
vt -0.277266 0.568970
vt -0.257078 0.568686
vt 0.099196 0.360479
vt 0.301405 0.915631
vt 0.082401 0.372456
vt 0.135870 0.372731
vt 0.083073 0.411679
vt 0.128820 0.274118
vt 0.099268 0.422982
vt 0.076123 0.392332
vt 0.301404 0.741748
vt 0.118935 0.422982
vt 0.128820 0.257231
vt 0.304439 0.915684
vt 0.119513 0.360628
vt -0.184998 0.246324
vt -0.171436 0.245323
vt 0.307472 0.394008
vt -0.187474 0.322200
vt -0.174319 0.319982
vt 0.302921 0.567865
vt 0.304439 0.741774
vt 0.304437 0.393982
vt 0.305955 0.567892
vt -0.223597 0.336333
vt -0.248834 0.245678
vt -0.248013 0.334584
vt -0.224031 0.248181
vt -0.211369 0.248113
vt -0.259852 0.329309
vt -0.211578 0.332512
vt -0.261796 0.243537
vt -0.272147 0.324046
vt -0.235873 0.337007
vt -0.199804 0.327065
vt -0.148366 0.325999
vt -0.144221 0.244860
vt -0.161076 0.321488
vt -0.157843 0.244869
vt -0.236424 0.247219
vt -0.198364 0.247359
vt -0.223169 0.466345
vt -0.254536 0.459763
vt -0.171685 0.452128
vt -0.244519 0.464979
vt -0.275262 0.242705
vt -0.182505 0.450433
vt -0.212994 0.462265
vt -0.203344 0.456805
vt -0.155806 0.121892
vt -0.195429 0.121451
vt -0.264684 0.454595
vt -0.234732 0.113097
vt -0.247986 0.112365
vt -0.161432 0.456695
vt -0.233925 0.467294
vt -0.208586 0.118350
vt -0.193289 0.452267
vt -0.221676 0.115360
vt -0.261676 0.113013
vt -0.168974 0.123693
vt -0.275262 0.115939
vt -0.142606 0.118432
vt 0.108409 0.120519
vt -0.182255 0.123551
vt 0.099602 0.126740
vt 0.549027 0.939154
vt 0.099979 0.092559
vt 0.079620 0.099001
vt 0.112085 0.110335
vt 0.109077 0.099473
vt 0.079592 0.120229
vt 0.088632 0.126740
vt 0.088670 0.092508
vt 0.076123 0.109595
vt 0.567647 0.982455
vt 0.721708 0.847709
vt 0.704738 0.920717
vt 0.721558 0.967909
vt 0.704013 0.933604
vt 0.597317 0.242613
vt 0.549587 0.923292
vt 0.762926 0.381347
vt 0.141895 0.392223
vt 0.757387 0.597317
vt 0.135279 0.411437
vt 0.500000 0.500000
vt 0.381347 0.237074
vt 0.999900 0.689010
vt 0.000100 0.725594
vt 0.000100 0.310990
vt 0.242613 0.402683
vt 0.402683 0.757387
vt 0.237074 0.618653
vt 0.999900 0.274406
vt 0.310990 0.999900
vt 0.725594 0.999900
vt 0.597317 0.242613
vt 0.762926 0.381347
vt 0.274406 0.000100
vt 0.618652 0.762926
vt 0.757387 0.597317
vt 0.689010 0.000100
vt 0.500000 0.500000
vt 0.402683 0.757387
vt 0.000100 0.725594
vt 0.242613 0.402683
vt 0.381347 0.237074
vt 0.000100 0.310990
vt 0.999900 0.689010
vt 0.618652 0.762926
vt 0.237074 0.618653
vt 0.725594 0.999900
vt 0.618652 0.762926
vt 0.597317 0.242613
vt 0.762926 0.381347
vt 0.402683 0.757387
vt 0.500000 0.500000
vt 0.381347 0.237074
vt 0.757387 0.597317
vt 0.242613 0.402683
vt 0.310990 0.999900
vt 0.274406 0.000100
vt 0.999900 0.689010
vt 0.999900 0.274406
vt 0.689010 0.000100
vt 0.000100 0.725594
vt 0.237074 0.618653
vt 0.725594 0.999900
vt 0.000100 0.310990
vt 0.618652 0.762926
vt 0.597317 0.242613
vt 0.762926 0.381347
vt 0.402683 0.757387
vt 0.500000 0.500000
vt 0.381347 0.237074
vt 0.757387 0.597317
vt 0.242613 0.402683
vt 0.310990 0.999900
vt 0.274406 0.000100
vt 0.999900 0.689010
vt 0.999900 0.274406
vt 0.689010 0.000100
vt 0.000100 0.725594
vt 0.237074 0.618653
vt 0.725594 0.999900
vt 0.000100 0.310990
vt 0.618652 0.762926
vt 0.597317 0.242613
vt 0.762926 0.381347
vt 0.402683 0.757387
vt 0.500000 0.500000
vt 0.381347 0.237074
vt 0.757387 0.597317
vt 0.242613 0.402683
vt 0.310990 0.999900
vt 0.274406 0.000100
vt 0.999900 0.689010
vt 0.999900 0.274406
vt 0.689010 0.000100
vt 0.000100 0.725594
vt 0.237074 0.618653
vt 0.725594 0.999900
vt 0.000100 0.310990
vt 0.618652 0.762926
vt 0.597317 0.242613
vt 0.762926 0.381347
vt 0.402683 0.757387
vt 0.500000 0.500000
vt 0.381347 0.237074
vt 0.757387 0.597317
vt 0.242613 0.402683
vt 0.310990 0.999900
vt 0.274406 0.000100
vt 0.999900 0.689010
vt 0.999900 0.274406
vt 0.689010 0.000100
vt 0.000100 0.725594
vt 0.237074 0.618653
vt 0.725594 0.999900
vt 0.000100 0.310990
vt 0.999900 0.274406
vt 0.500000 0.500000
vt 0.757387 0.597317
vt 0.310990 0.999900
vt 0.274406 0.000100
vt 0.618652 0.762926
vt 0.689010 0.000100
vt 0.402683 0.757387
vt 0.725594 0.999900
vt 0.000100 0.725594
vt 0.242613 0.402683
vt 0.999900 0.689010
vt 0.000100 0.310990
vt 0.762926 0.381347
vt 0.597317 0.242613
vt 0.237074 0.618653
vt 0.381347 0.237074
vt 0.999900 0.274406
vt 0.500000 0.500000
vt 0.757387 0.597317
vt 0.310990 0.999900
vt 0.274406 0.000100
vt 0.618652 0.762926
vt 0.689010 0.000100
vt 0.402683 0.757387
vt 0.689010 0.000100
vt 0.618652 0.762926
vt 0.999900 0.274406
vt 0.725594 0.999900
vt 0.757387 0.597317
vt 0.274406 0.000100
vt 0.597317 0.242613
vt 0.000100 0.725594
vt 0.000100 0.310990
vt 0.381347 0.237074
vt 0.310990 0.999900
vt 0.242613 0.402683
vt 0.402683 0.757387
vt 0.500000 0.500000
vt 0.762926 0.381347
vt 0.237074 0.618653
vt 0.999900 0.689010
vt 0.725594 0.999900
vt 0.500000 0.500000
vt 0.274406 0.000100
vt 0.000100 0.310990
vt 0.999900 0.274406
vt 0.597317 0.242613
vt 0.381347 0.237074
vt 0.689010 0.000100
vt 0.310990 0.999900
vt 0.242613 0.402683
vt 0.762926 0.381347
vt 0.757387 0.597317
vt 0.999900 0.689010
vt 0.000100 0.310990
vt 0.242613 0.402683
vt 0.762926 0.381347
vt 0.000100 0.725594
vt 0.237074 0.618653
vt 0.402683 0.757387
vt 0.618652 0.762926
vt 0.381347 0.237074
vt 0.597317 0.242613
vt 0.274406 0.000100
vt 0.999900 0.274406
vt 0.310990 0.999900
vt 0.689010 0.000100
vt 0.999900 0.689010
vt 0.500000 0.500000
vt 0.725594 0.999900
vt 0.757387 0.597317
vt 0.000100 0.310990
vt 0.242613 0.402683
vt 0.762926 0.381347
vt 0.000100 0.725594
vt 0.237074 0.618653
vt 0.402683 0.757387
vt 0.618652 0.762926
vt 0.381347 0.237074
vt 0.597317 0.242613
vt 0.274406 0.000100
vt 0.999900 0.274406
vt 0.310990 0.999900
vt 0.689010 0.000100
vt 0.999900 0.689010
vt 0.500000 0.500000
vt 0.725594 0.999900
vt 0.757387 0.597317
vt 0.000100 0.310990
vt 0.242613 0.402683
vt 0.762926 0.381347
vt 0.000100 0.725594
vt 0.237074 0.618653
vt 0.402683 0.757387
vt 0.618652 0.762926
vt 0.381347 0.237074
vt 0.597317 0.242613
vt 0.274406 0.000100
vt 0.999900 0.274406
vt 0.310990 0.999900
vt 0.689010 0.000100
vt 0.999900 0.689010
vt 0.500000 0.500000
vt 0.725594 0.999900
vt 0.757387 0.597317
vt 0.000100 0.310990
vt 0.242613 0.402683
vt 0.762926 0.381347
vt 0.000100 0.725594
vt 0.237074 0.618653
vt 0.402683 0.757387
vt 0.618652 0.762926
vt 0.381347 0.237074
vt 0.597317 0.242613
vt 0.274406 0.000100
vt 0.999900 0.274406
vt 0.310990 0.999900
vt 0.689010 0.000100
vt 0.999900 0.689010
vt 0.597317 0.242613
vt 0.725594 0.999900
vt 0.762926 0.381347
vt 0.000100 0.725594
vt 0.757387 0.597317
vt 0.237074 0.618653
vt 0.500000 0.500000
vt 0.381347 0.237074
vt 0.597317 0.242613
vt 0.618652 0.762926
vt 0.242613 0.402683
vt 0.725594 0.999900
vt 0.237074 0.618653
vt 0.310990 0.999900
vt 0.689010 0.000100
vt 0.274406 0.000100
vt 0.000100 0.725594
vt 0.402683 0.757387
vt 0.762926 0.381347
vt 0.000100 0.310990
vt 0.000100 0.310990
vt 0.242613 0.402683
vt 0.999900 0.689010
vt 0.000100 0.725594
vt 0.237074 0.618653
vt 0.500000 0.500000
vt 0.757387 0.597317
vt 0.725594 0.999900
vt 0.618652 0.762926
vt 0.500000 0.500000
vt 0.618652 0.762926
vt 0.402683 0.757387
vt 0.757387 0.597317
vt 0.381347 0.237074
vt 0.597317 0.242613
vt 0.402683 0.757387
vt 0.762926 0.381347
vt 0.999900 0.689010
vt 0.381347 0.237074
vt 0.999900 0.274406
vt 0.242613 0.402683
vt 0.310990 0.999900
vt 0.274406 0.000100
vt 0.999900 0.689010
vt 0.999900 0.274406
vt 0.689010 0.000100
vt 0.000100 0.725594
vt 0.237074 0.618653
vt 0.725594 0.999900
vt 0.000100 0.310990
vt 0.618652 0.762926
vt 0.597317 0.242613
vt 0.762926 0.381347
vt 0.402683 0.757387
vt 0.500000 0.500000
vt 0.381347 0.237074
vt 0.757387 0.597317
vt 0.242613 0.402683
vt 0.310990 0.999900
vt 0.597317 0.242613
vt 0.500000 0.500000
vt 0.689010 0.000100
vt 0.618652 0.762926
vt 0.237074 0.618653
vt 0.000100 0.310990
vt 0.757387 0.597317
vt 0.402683 0.757387
vt 0.999900 0.689010
vt 0.000100 0.725594
vt 0.762926 0.381347
vt 0.999900 0.274406
vt 0.689010 0.000100
vt 0.999900 0.689010
vt 0.000100 0.725594
vt 0.274406 0.000100
vt 0.725594 0.999900
vt 0.242613 0.402683
vt 0.381347 0.237074
vt 0.000100 0.310990
vt 0.237074 0.618653
vt 0.500000 0.500000
vt 0.618652 0.762926
vt 0.402683 0.757387
vt 0.757387 0.597317
vt 0.999900 0.274406
vt 0.597317 0.242613
vt 0.310990 0.999900
vt 0.762926 0.381347
vt 0.274406 0.000100
vt 0.381347 0.237074
vt 0.725594 0.999900
vt 0.242613 0.402683
vn -0.155400 0.980100 0.123800
vn -0.441000 0.763500 -0.471800
vn 0.119700 0.826800 0.549700
vn -0.386800 0.858400 -0.336800
vn 0.205400 0.723100 0.659500
vn -0.600000 0.799600 -0.024800
vn -0.336100 0.936100 -0.103300
vn -0.153500 0.007000 -0.988100
vn -0.565000 -0.418400 -0.711200
vn 0.628400 0.775100 -0.065500
vn -0.259000 0.778300 0.571900
vn 0.585000 0.629900 0.510900
vn -0.748800 0.656900 -0.088400
vn -0.284300 0.627800 0.724600
vn 0.281000 0.885100 -0.371100
vn -0.150600 -0.001400 -0.988600
vn -0.012500 0.934600 -0.355600
vn -0.081400 0.787300 -0.611100
vn -0.505100 0.856700 0.104100
vn -0.334300 0.879200 -0.339400
vn 0.439100 0.871200 -0.219700
vn -0.362600 0.931200 0.038400
vn 0.328400 0.913200 0.241100
vn 0.302800 0.942800 -0.139300
vn 0.125100 0.978700 -0.162500
vn -0.510700 0.765900 -0.390700
vn -0.569900 0.742400 0.352200
vn 0.516000 0.811600 0.273900
vn 0.553000 0.831300 0.055300
vn 0.298600 0.758500 -0.579300
vn 0.275900 0.937000 -0.214100
vn -0.050000 0.985000 0.165000
vn 0.577700 0.751800 -0.317900
vn 0.465900 0.877600 0.112500
vn 0.321800 0.825900 0.462900
vn 0.336000 0.811400 0.478300
vn 0.296500 0.895600 0.331600
vn -0.079900 0.952100 0.295200
vn 0.698200 0.700600 0.147100
vn -0.552000 0.816100 0.171300
vn -0.077100 0.929400 -0.361000
vn -0.081400 0.852300 -0.516600
vn -0.409200 0.895600 -0.174500
vn -0.363400 0.784500 0.502500
vn -0.535400 0.785400 -0.310500
vn -0.009000 0.764300 0.644800
vn 0.460500 0.690500 0.557800
vn 0.272400 0.723500 -0.634200
vn -0.060900 0.942400 -0.328800
vn 0.005500 0.641700 0.766900
vn 0.456800 0.831200 -0.317000
vn 0.306600 0.951700 0.013400
vn -0.687500 0.707800 0.162700
vn 0.611600 0.786300 0.087600
vn 0.398000 0.841900 -0.364500
vn -0.473000 0.634000 0.611800
vn -0.561500 0.789300 -0.248500
vn -0.077700 0.640700 -0.763800
vn -0.078500 0.498400 -0.863400
vn -0.413000 0.695300 -0.588200
vn -0.378800 0.923600 0.059500
vn -0.535800 0.531400 -0.656200
vn -0.027000 0.979800 0.198400
vn 0.444600 0.880700 0.163500
vn -0.022600 0.551100 -0.834100
vn 0.034300 0.881500 -0.470900
vn -0.013800 0.931100 0.364600
vn 0.369600 0.544100 -0.753300
vn 0.553800 0.697000 -0.455500
vn -0.695900 0.688000 -0.205700
vn 0.603600 0.741400 -0.293100
vn 0.398100 0.569800 -0.719000
vn -0.489200 0.842300 0.226200
vn -0.319200 0.947700 -0.008400
vn -0.382600 0.633100 -0.672900
vn -0.473600 0.512800 -0.716100
vn -0.474900 0.809400 -0.345400
vn 0.091500 0.992800 0.077200
vn -0.657000 0.696700 -0.288100
vn 0.483300 0.871300 -0.084900
vn 0.731100 0.534200 -0.424400
vn -0.293800 0.848800 0.439500
vn -0.128700 0.991600 -0.012900
vn 0.607900 0.791900 0.057700
vn -0.577200 0.794500 0.188500
vn -0.559300 0.806100 -0.193300
vn -0.434600 0.889200 0.142900
vn 0.421300 0.391500 -0.818100
vn -0.056100 0.382000 -0.922400
vn 0.102800 0.940100 0.324900
vn 0.355800 0.910500 -0.210700
vn 0.086500 0.884200 0.459000
vn 0.154000 0.792500 0.590100
vn 0.334200 0.926900 0.170800
vn 0.068800 0.884200 -0.462000
vn 0.512200 0.825100 0.238400
vn -0.307900 0.820800 -0.481100
vn -0.705100 0.660600 -0.257700
vn -0.674700 0.615400 0.407500
vn -0.693000 0.678000 0.245000
vn 0.051500 0.840700 -0.539100
vn 0.497700 0.826000 -0.264500
vn 0.181500 0.778200 0.601300
vn -0.146200 0.673200 -0.724900
vn 0.694900 0.627800 -0.350600
vn 0.054100 0.985300 0.161800
vn -0.164100 0.865100 0.473900
vn -0.349300 0.711500 -0.609700
vn 0.150500 0.767000 -0.623800
vn 0.351600 0.601300 -0.717400
vn -0.343400 0.718800 0.604500
vn -0.419300 0.864200 0.278200
vn -0.399700 0.911100 -0.100900
vn -0.087000 0.943900 -0.318500
vn -0.200300 0.787900 0.582300
vn 0.492800 0.783200 0.379100
vn 0.293300 0.906400 -0.304100
vn 0.513800 0.857900 0.004600
vn 0.356000 0.822900 -0.442900
vn 0.658100 0.704900 0.264600
vn -0.274000 0.671700 0.688300
vn -0.528500 0.828800 -0.183600
vn 0.214400 0.973700 0.077400
vn 0.676100 0.733900 -0.065100
vn 0.223400 0.625300 0.747700
vn -0.142400 0.851100 -0.505300
vn -0.595100 0.742500 0.307500
vn 0.610600 0.665700 0.429000
vn -0.036900 0.828400 0.558900
vn -0.334600 0.903000 0.269400
vn -0.276700 0.953500 -0.119200
vn 0.388900 0.715100 0.580900
vn 0.672200 0.731100 -0.116300
vn -0.011700 0.919100 -0.394000
vn 0.383800 0.846400 -0.369100
vn -0.056700 0.848200 -0.526600
vn -0.811500 0.456300 0.365200
vn 0.424000 0.560500 0.711400
vn -0.508100 0.809000 0.295500
vn -0.572400 0.813200 0.104900
vn 0.414900 0.740700 -0.528400
vn 0.803200 0.513800 0.301500
vn -0.452500 0.864100 -0.220400
vn -0.155200 0.674400 0.721900
vn 0.761600 0.613800 -0.208000
vn -0.749300 0.586700 -0.307000
vn -0.446000 0.796000 -0.409100
vn -0.189000 0.965000 -0.181800
vn -0.908400 0.418200 -0.002800
vn -0.538300 0.602300 0.589500
vn -0.075900 0.980100 0.183200
vn -0.251100 0.834600 0.490400
vn 0.097100 0.975300 0.198200
vn -0.326100 0.944900 -0.027600
vn -0.965300 0.258100 -0.039100
vn -0.375200 0.740400 -0.557700
vn -0.039000 0.898600 -0.437100
vn -0.089500 0.778100 0.621800
vn -0.852900 0.262700 0.451200
vn -0.004800 0.955800 -0.294000
vn -0.768200 0.440400 -0.464600
vn -0.493000 0.493100 0.716800
vn -0.422300 0.643800 -0.638200
vn -0.105000 0.548800 -0.829300
vn 0.258000 0.625500 -0.736400
vn -0.538800 0.786100 -0.302900
vn 0.038000 0.996300 0.077700
vn 0.471800 0.759000 -0.448800
vn 0.354200 0.926700 -0.125800
vn 0.615300 0.664100 -0.424600
vn -0.210900 0.859700 0.465300
vn -0.674400 0.698800 -0.238400
vn -0.120800 0.395900 -0.910300
vn 0.188800 0.965400 0.180000
vn 0.499800 0.865900 0.021500
vn -0.427000 0.890800 0.155300
vn 0.368700 0.455600 -0.810300
vn -0.558100 0.480500 -0.676500
vn 0.061700 0.967000 0.247300
vn -0.129400 0.969400 -0.208600
vn 0.222800 0.911500 -0.345700
vn 0.540800 0.827500 -0.150600
vn -0.335600 0.935400 0.111700
vn 0.101700 0.748500 0.655300
vn 0.660200 0.724600 0.197800
vn 0.459300 0.717800 0.523200
vn 0.778500 0.597700 0.191500
vn -0.428100 0.836300 0.342600
vn -0.492200 0.866600 0.081600
vn 0.220400 0.836200 -0.502200
vn 0.028600 0.981100 0.191600
vn 0.542500 0.551900 0.633400
vn -0.370700 0.745100 0.554400
vn 0.653500 0.701400 -0.284600
vn -0.259600 0.894600 -0.363600
vn 0.065900 0.628100 0.775300
vn -0.150900 0.949100 -0.276400
vn 0.230500 0.927300 -0.295100
vn 0.478000 0.878300 -0.007700
vn -0.442600 0.896000 -0.034900
vn -0.181400 0.759700 0.624500
vn 0.491700 0.790900 0.364400
vn 0.200800 0.765500 0.611300
vn 0.617800 0.676900 0.400100
vn -0.373700 0.868000 0.327100
vn -0.574500 0.811100 -0.109500
vn 0.284500 0.851000 -0.441500
vn -0.105400 0.991300 -0.079200
vn 0.260900 0.609900 0.748300
vn -0.595800 0.706400 0.382100
vn 0.638600 0.763600 -0.095000
vn -0.218200 0.860100 -0.461200
vn -0.241100 0.637100 0.732100
vn -0.485100 0.802100 -0.348100
vn -0.173400 0.803300 -0.569700
vn 0.189400 0.864500 -0.465600
vn -0.591700 0.805900 0.019100
vn -0.007800 0.901100 0.433500
vn 0.410400 0.898600 -0.155400
vn 0.300900 0.930300 0.209700
vn 0.559500 0.810900 -0.171400
vn 0.246800 0.901300 0.356000
vn 0.527500 0.401200 0.748900
vn -0.054400 0.996100 -0.069200
vn 0.478800 0.553600 0.681300
vn -0.153100 0.965900 -0.208900
vn 0.675800 0.640200 0.365200
vn 0.304600 0.740300 -0.599300
vn -0.719400 0.692700 0.051300
vn 0.456500 0.830000 0.320600
vn 0.025700 0.814200 0.580100
vn 0.316900 0.938100 -0.140000
vn -0.185600 0.689400 -0.700200
vn 0.811800 0.474500 0.340400
vn 0.322800 0.880200 -0.347900
vn -0.462600 0.745000 0.480600
vn -0.614400 0.655300 -0.439300
vn 0.114500 0.637100 0.762200
vn -0.298900 0.735600 -0.607900
vn -0.850000 0.526600 -0.017500
vn -0.617600 0.673800 -0.405700
vn -0.344900 0.680600 0.646400
vn -0.746800 0.663400 -0.045900
vn -0.244400 0.935000 0.257000
vn -0.204700 0.772600 0.601000
vn -0.304500 0.944800 -0.121400
vn -0.707000 0.501000 -0.499100
vn 0.629200 0.777200 0.011200
vn -0.442000 0.876000 0.193100
vn 0.085400 0.977400 0.193600
vn 0.035400 0.874100 -0.484400
vn 0.434300 0.867700 0.241700
vn 0.013200 0.857000 0.515100
vn 0.223300 0.961100 -0.162800
vn 0.503600 0.661200 0.556000
vn 0.251400 0.528400 0.811000
vn -0.183500 0.814300 0.550600
vn -0.224600 0.888900 0.399200
vn -0.567600 0.777000 0.272200
vn 0.250800 0.914600 0.317300
vn -0.480900 0.812400 0.329700
vn 0.147200 0.988900 0.020000
vn 0.183400 0.971700 -0.149000
vn -0.228400 0.969500 0.089300
vn -0.411300 0.630100 0.658600
vn -0.316900 0.942500 -0.105700
vn -0.124600 0.484700 0.865700
vn 0.336700 0.341600 0.877500
vn 0.040600 0.837900 -0.544300
vn -0.412700 0.849600 -0.328300
vn -0.163500 0.328200 0.930300
vn 0.082400 0.978100 -0.190900
vn -0.173300 0.980400 0.093400
vn -0.618300 0.746400 0.246300
vn 0.638200 0.553500 0.535100
vn 0.585900 0.803900 0.101900
vn -0.566200 0.480200 0.669900
vn -0.792100 0.482800 -0.373500
vn -0.196000 0.624600 -0.755900
vn -0.110300 0.509300 -0.853500
vn -0.548000 0.504500 -0.667200
vn -0.761900 0.647000 -0.029500
vn -0.564500 0.312300 -0.764100
vn -0.513700 0.836300 0.191500
vn -0.053900 0.960700 0.272200
vn -0.092300 0.577500 -0.811200
vn -0.272300 0.854100 -0.443200
vn -0.515800 0.779500 0.355600
vn 0.232000 0.735100 -0.637000
vn 0.257200 0.917800 -0.302400
vn -0.871000 0.328300 -0.365500
vn 0.245000 0.960400 -0.132500
vn 0.237500 0.766600 -0.596600
vn -0.855900 0.506500 0.104800
vn -0.706800 0.702800 -0.080600
vn -0.475200 0.472400 -0.742300
vn -0.489400 0.330200 -0.807100
vn -0.705700 0.550300 -0.446200
vn -0.391400 0.914400 0.103000
vn -0.823700 0.362900 -0.435800
vn 0.037100 0.998500 0.040800
vn 0.477900 0.847800 -0.229900
vn -0.735900 0.573800 0.359300
vn -0.561600 0.826500 -0.038200
vn 0.150300 0.966300 0.209000
vn -0.901900 0.429500 0.046400
vn -0.809700 0.492300 -0.319400
vn -0.812200 0.582100 0.037600
vn 0.360300 0.629900 -0.688100
vn -0.025100 0.422600 -0.906000
vn -0.410800 0.843700 0.345600
vn -0.063800 0.991600 -0.112100
vn -0.428100 0.771100 0.471300
vn -0.356000 0.704100 0.614400
vn -0.171900 0.952200 0.252600
vn -0.245600 0.870700 -0.426100
vn 0.013700 0.932500 0.361000
vn -0.537600 0.650100 -0.537000
vn -0.855300 0.306000 -0.418300
vn 0.719300 0.686500 -0.106400
vn -0.960700 0.268100 0.072200
vn 0.047100 0.470200 0.881300
vn 0.108800 0.985500 -0.130100
vn -0.046600 0.978300 -0.202100
vn -0.385800 0.757100 0.527200
vn -0.258400 0.959100 0.115700
vn -0.638900 0.641600 0.424500
vn -0.242600 0.843200 0.479800
vn -0.086700 0.821400 -0.563700
vn -0.754800 0.417000 0.506400
vn 0.224900 0.941500 0.251200
vn -0.451400 0.891100 0.046800
vn 0.388100 0.906400 -0.166600
vn -0.495900 0.549600 -0.672400
vn 0.651500 0.686300 0.323200
vn 0.328500 0.913600 -0.239500
vn 0.293000 0.907900 -0.299800
vn 0.020300 0.993400 0.113300
vn 0.629300 0.775700 -0.047900
vn 0.519500 0.854500 0.003600
vn 0.418400 0.828800 0.371600
vn 0.476800 0.498500 0.724000
vn 0.433300 0.640600 0.634000
vn 0.064600 0.731800 0.678500
vn 0.788400 0.519500 0.329500
vn -0.484600 0.853600 0.191100
vn -0.075700 0.912800 -0.401300
vn -0.103500 0.828400 -0.550500
vn -0.382900 0.907300 -0.173600
vn -0.257500 0.828200 0.497800
vn -0.530600 0.797700 -0.286500
vn 0.110600 0.795300 0.596100
vn 0.561100 0.690700 0.456200
vn -0.278300 0.618600 -0.734700
vn 0.656100 0.753900 -0.033700
vn 0.182600 0.774000 -0.606300
vn -0.625300 0.752800 0.205600
vn -0.037800 0.974800 0.219900
vn -0.135700 0.929500 -0.343000
vn 0.727000 0.670900 -0.146300
vn -0.512100 0.851900 0.109300
vn -0.011300 0.581400 0.813500
vn 0.134300 0.678300 0.722400
vn -0.359700 0.689900 0.628200
vn 0.348300 0.829200 -0.437200
vn 0.390200 0.798500 -0.458500
vn -0.528400 0.636000 0.562400
vn -0.804700 0.480800 0.348300
vn -0.857200 0.514200 -0.029000
vn -0.196000 0.822900 0.533300
vn -0.075900 0.984100 -0.160500
vn -0.684500 0.642000 -0.345400
vn -0.366600 0.853000 -0.371500
vn -0.700100 0.530700 -0.477800
vn 0.308700 0.938500 0.154600
vn -0.277300 0.857400 -0.433600
vn 0.083800 0.984900 -0.151200
vn -0.273500 0.786100 -0.554300
vn -0.273500 0.922400 -0.272600
vn -0.941800 0.324500 -0.087700
vn 0.076700 0.967300 -0.241800
vn -0.211700 0.944000 0.252900
vn 0.207500 0.925200 -0.317600
vn -0.853400 0.324900 0.407500
vn 0.174500 0.952000 0.251400
vn -0.453700 0.665000 0.593300
vn 0.206900 0.835800 0.508600
vn 0.274800 0.824500 0.494600
vn -0.006800 0.993400 0.114500
vn -0.090500 0.700800 0.707600
vn -0.092200 0.795800 0.598500
vn -0.402900 0.833300 0.378600
vn -0.786800 0.554000 0.272100
vn -0.672700 0.684800 0.280400
vn -0.576800 0.814100 -0.066500
vn -0.524700 0.489300 0.696600
vn 0.080500 0.912300 -0.401500
vn 0.497500 0.847600 0.184600
vn 0.637300 0.745100 0.196800
vn 0.391000 0.902900 -0.178500
vn -0.286700 0.911700 -0.294500
vn 0.535700 0.791700 -0.293700
vn -0.509200 0.860600 0.012300
vn -0.545900 0.696800 0.465300
vn -0.076700 0.761600 0.643500
vn -0.115300 0.679100 0.725000
vn -0.493900 0.490400 0.718000
vn 0.105000 0.827700 -0.551300
f 1/1/1 2/2/2 3/3/3
f 1/1/1 3/3/3 4/4/4
f 5/5/5 6/6/6 7/7/7
f 5/5/5 7/7/7 8/8/8
f 3/3/3 2/2/2 9/9/9
f 3/3/3 9/9/9 10/10/10
f 11/11/11 5/5/5 8/8/8
f 11/11/11 8/8/8 12/12/12
f 13/13/13 1/1/1 4/4/4
f 13/13/13 4/4/4 11/11/11
f 4/4/4 3/3/3 14/14/14
f 4/4/4 14/14/14 6/6/6
f 2/2/2 1/1/1 15/15/15
f 2/2/2 15/15/15 9/9/9
f 6/6/6 14/14/14 16/16/16
f 6/6/6 16/16/16 7/7/7
f 14/14/14 3/3/3 10/10/10
f 14/14/14 10/10/10 16/16/16
f 13/13/13 11/11/11 12/12/12
f 13/13/13 12/12/12 17/17/17
f 1/1/1 13/13/13 17/17/17
f 1/1/1 17/17/17 15/15/15
f 11/11/11 4/4/4 6/6/6
f 11/11/11 6/6/6 5/5/5
f 18/18/18 19/19/19 20/20/20
f 18/18/18 20/20/20 21/21/21
f 22/22/22 20/20/20 23/23/23
f 22/22/22 23/23/23 24/24/24
f 25/25/25 26/26/26 27/27/27
f 25/25/25 27/27/27 28/28/28
f 29/29/29 18/18/18 21/21/21
f 29/29/29 21/21/21 25/25/25
f 25/25/25 21/21/21 30/30/30
f 25/25/25 30/30/30 26/26/26
f 21/21/21 20/20/20 22/22/22
f 21/21/21 22/22/22 30/30/30
f 31/31/31 32/32/32 33/33/33
f 31/31/31 33/33/33 34/34/34
f 35/35/35 36/36/36 32/32/32
f 35/35/35 32/32/32 31/31/31
f 37/37/37 35/35/35 31/31/31
f 37/37/37 31/31/31 38/38/38
f 38/38/38 31/31/31 34/34/34
f 38/38/38 34/34/34 39/39/39
f 38/38/38 39/39/39 40/40/40
f 38/38/38 40/40/40 41/41/41
f 33/33/33 32/32/32 42/42/42
f 33/33/33 42/42/42 43/43/43
f 37/37/37 38/38/38 41/41/41
f 37/37/37 41/41/41 44/44/44
f 35/35/35 37/37/37 44/44/44
f 35/35/35 44/44/44 45/45/45
f 32/32/32 36/36/36 46/46/46
f 32/32/32 46/46/46 42/42/42
f 39/39/39 34/34/34 47/47/47
f 39/39/39 47/47/47 40/40/40
f 36/36/36 35/35/35 45/45/45
f 36/36/36 45/45/45 46/46/46
f 34/34/34 33/33/33 43/43/43
f 34/34/34 43/43/43 47/47/47
f 48/48/48 49/49/49 50/50/50
f 48/48/48 50/50/50 51/51/51
f 52/52/52 53/53/53 49/49/49
f 52/52/52 49/49/49 48/48/48
f 54/54/54 52/52/52 48/48/48
f 54/54/54 48/48/48 55/55/55
f 55/55/55 48/48/48 51/51/51
f 55/55/55 51/51/51 56/56/56
f 55/55/55 56/56/56 57/57/57
f 55/55/55 57/57/57 58/58/58
f 50/50/50 49/49/49 59/59/59
f 50/50/50 59/59/59 60/60/60
f 54/54/54 55/55/55 58/58/58
f 54/54/54 58/58/58 61/61/61
f 52/52/52 54/54/54 61/61/61
f 52/52/52 61/61/61 62/62/62
f 49/49/49 53/53/53 63/63/63
f 49/49/49 63/63/63 59/59/59
f 56/56/56 51/51/51 64/64/64
f 56/56/56 64/64/64 57/57/57
f 53/53/53 52/52/52 62/62/62
f 53/53/53 62/62/62 63/63/63
f 51/51/51 50/50/50 60/60/60
f 51/51/51 60/60/60 64/64/64
f 65/65/65 66/66/66 67/67/67
f 65/65/65 67/67/67 68/68/68
f 69/69/69 70/70/70 66/66/66
f 69/69/69 66/66/66 65/65/65
f 71/71/71 69/69/69 65/65/65
f 71/71/71 65/65/65 72/72/72
f 72/72/72 65/65/65 68/68/68
f 72/72/72 68/68/68 73/73/73
f 72/72/72 73/73/73 74/74/74
f 72/72/72 74/74/74 75/75/75
f 67/67/67 66/66/66 76/76/76
f 67/67/67 76/76/76 77/77/77
f 71/71/71 72/72/72 75/75/75
f 71/71/71 75/75/75 78/78/78
f 69/69/69 71/71/71 78/78/78
f 69/69/69 78/78/78 79/79/79
f 66/66/66 70/70/70 80/80/80
f 66/66/66 80/80/80 76/76/76
f 73/73/73 68/68/68 81/81/81
f 73/73/73 81/81/81 74/74/74
f 70/70/70 69/69/69 79/79/79
f 70/70/70 79/79/79 80/80/80
f 68/68/68 67/67/67 77/77/77
f 68/68/68 77/77/77 81/81/81
f 82/82/82 83/83/83 84/84/84
f 82/82/82 84/84/84 85/85/85
f 86/86/86 87/87/87 83/83/83
f 86/86/86 83/83/83 82/82/82
f 88/88/88 86/86/86 82/82/82
f 88/88/88 82/82/82 89/89/89
f 89/89/89 82/82/82 85/85/85
f 89/89/89 85/85/85 90/90/90
f 89/89/89 90/90/90 91/91/91
f 89/89/89 91/91/91 92/92/92
f 84/84/84 83/83/83 93/93/93
f 84/84/84 93/93/93 94/94/94
f 88/88/88 89/89/89 92/92/92
f 88/88/88 92/92/92 95/95/95
f 86/86/86 88/88/88 95/95/95
f 86/86/86 95/95/95 96/96/96
f 83/83/83 87/87/87 97/97/97
f 83/83/83 97/97/97 93/93/93
f 90/90/90 85/85/85 98/98/98
f 90/90/90 98/98/98 91/91/91
f 87/87/87 86/86/86 96/96/96
f 87/87/87 96/96/96 97/97/97
f 85/85/85 84/84/84 94/94/94
f 85/85/85 94/94/94 98/98/98
f 29/29/29 25/25/25 28/28/28
f 29/29/29 28/28/28 99/99/99
f 18/18/18 29/29/29 99/99/99
f 18/18/18 99/99/99 100/100/100
f 20/20/20 19/19/19 101/101/101
f 20/20/20 101/101/101 23/23/23
f 26/26/26 30/30/30 102/102/102
f 26/26/26 102/102/102 27/27/27
f 19/19/19 18/18/18 100/100/100
f 19/19/19 100/100/100 101/101/101
f 30/30/30 22/22/22 24/24/24
f 30/30/30 24/24/24 102/102/102
f 103/103/103 104/104/104 105/105/105
f 103/103/103 105/105/105 106/106/106
f 107/107/107 108/108/108 104/104/104
f 107/107/107 104/104/104 103/103/103
f 109/109/109 107/107/107 103/103/103
f 109/109/109 103/103/103 110/110/110
f 110/110/110 103/103/103 106/106/106
f 110/110/110 106/106/106 111/111/111
f 110/110/110 111/111/111 112/112/112
f 110/110/110 112/112/112 113/113/113
f 105/105/105 104/104/104 114/114/114
f 105/105/105 114/114/114 115/115/115
f 109/109/109 110/110/110 113/113/113
f 109/109/109 113/113/113 116/116/116
f 107/107/107 109/109/109 116/116/116
f 107/107/107 116/116/116 117/117/117
f 104/104/104 108/108/108 118/118/118
f 104/104/104 118/118/118 114/114/114
f 111/111/111 106/106/106 119/119/119
f 111/111/111 119/119/119 112/112/112
f 108/108/108 107/107/107 117/117/117
f 108/108/108 117/117/117 118/118/118
f 106/106/106 105/105/105 115/115/115
f 106/106/106 115/115/115 119/119/119
f 120/120/120 121/121/121 122/122/122
f 120/120/120 122/122/122 123/123/123
f 124/124/124 125/125/125 121/121/121
f 124/124/124 121/121/121 120/120/120
f 126/126/126 124/124/124 120/120/120
f 126/126/126 120/120/120 127/127/127
f 127/127/127 120/120/120 123/123/123
f 127/127/127 123/123/123 128/128/128
f 127/127/127 128/128/128 129/129/129
f 127/127/127 129/129/129 130/130/130
f 122/122/122 121/121/121 131/131/131
f 122/122/122 131/131/131 132/132/132
f 126/126/126 127/127/127 130/130/130
f 126/126/126 130/130/130 133/133/133
f 124/124/124 126/126/126 133/133/133
f 124/124/124 133/133/133 134/134/134
f 121/121/121 125/125/125 135/135/135
f 121/121/121 135/135/135 131/131/131
f 128/128/128 123/123/123 136/136/136
f 128/128/128 136/136/136 129/129/129
f 125/125/125 124/124/124 134/134/134
f 125/125/125 134/134/134 135/135/135
f 123/123/123 122/122/122 132/132/132
f 123/123/123 132/132/132 136/136/136
f 137/137/137 138/138/138 139/139/139
f 137/137/137 139/139/139 140/140/140
f 141/141/141 142/142/142 138/138/138
f 141/141/141 138/138/138 137/137/137
f 143/143/143 141/141/141 137/137/137
f 143/143/143 137/137/137 144/144/144
f 144/144/144 137/137/137 140/140/140
f 144/144/144 140/140/140 145/145/145
f 144/144/144 145/145/145 146/146/146
f 144/144/144 146/146/146 147/147/147
f 139/139/139 138/138/138 148/148/148
f 139/139/139 148/148/148 149/149/149
f 143/143/143 144/144/144 147/147/147
f 143/143/143 147/147/147 150/150/150
f 141/141/141 143/143/143 150/150/150
f 141/141/141 150/150/150 151/151/151
f 138/138/138 142/142/142 152/152/152
f 138/138/138 152/152/152 148/148/148
f 145/145/145 140/140/140 153/153/153
f 145/145/145 153/153/153 146/146/146
f 142/142/142 141/141/141 151/151/151
f 142/142/142 151/151/151 152/152/152
f 140/140/140 139/139/139 149/149/149
f 140/140/140 149/149/149 153/153/153
f 154/154/154 155/155/155 156/156/156
f 154/154/154 156/156/156 157/157/157
f 158/158/158 159/159/159 155/155/155
f 158/158/158 155/155/155 154/154/154
f 160/160/160 158/158/158 154/154/154
f 160/160/160 154/154/154 161/161/161
f 161/161/161 154/154/154 157/157/157
f 161/161/161 157/157/157 162/162/162
f 161/161/161 162/162/162 163/163/163
f 161/161/161 163/163/163 164/164/164
f 156/156/156 155/155/155 165/165/165
f 156/156/156 165/165/165 166/166/166
f 160/160/160 161/161/161 164/164/164
f 160/160/160 164/164/164 167/167/167
f 158/158/158 160/160/160 167/167/167
f 158/158/158 167/167/167 168/168/168
f 155/155/155 159/159/159 169/169/169
f 155/155/155 169/169/169 165/165/165
f 162/162/162 157/157/157 170/170/170
f 162/162/162 170/170/170 163/163/163
f 159/159/159 158/158/158 168/168/168
f 159/159/159 168/168/168 169/169/169
f 157/157/157 156/156/156 166/166/166
f 157/157/157 166/166/166 170/170/170
f 171/171/171 172/172/172 173/173/173
f 171/171/171 173/173/173 174/174/174
f 175/175/175 176/176/176 172/172/172
f 175/175/175 172/172/172 171/171/171
f 177/177/177 175/175/175 171/171/171
f 177/177/177 171/171/171 178/178/178
f 178/178/178 171/171/171 174/174/174
f 178/178/178 174/174/174 179/179/179
f 178/178/178 179/179/179 180/180/180
f 178/178/178 180/180/180 181/181/181
f 173/173/173 172/172/172 182/182/182
f 173/173/173 182/182/182 183/183/183
f 177/177/177 178/178/178 181/181/181
f 177/177/177 181/181/181 184/184/184
f 175/175/175 177/177/177 184/184/184
f 175/175/175 184/184/184 185/185/185
f 172/172/172 176/176/176 186/186/186
f 172/172/172 186/186/186 182/182/182
f 179/179/179 174/174/174 187/187/187
f 179/179/179 187/187/187 180/180/180
f 176/176/176 175/175/175 185/185/185
f 176/176/176 185/185/185 186/186/186
f 174/174/174 173/173/173 183/183/183
f 174/174/174 183/183/183 187/187/187
f 188/188/188 189/189/189 190/190/190
f 188/188/188 190/190/190 191/191/191
f 192/192/192 193/193/193 189/189/189
f 192/192/192 189/189/189 188/188/188
f 194/194/194 192/192/192 188/188/188
f 194/194/194 188/188/188 195/195/195
f 195/195/195 188/188/188 191/191/191
f 195/195/195 191/191/191 196/196/196
f 195/195/195 196/196/196 197/197/197
f 195/195/195 197/197/197 198/198/198
f 190/190/190 189/189/189 199/199/199
f 190/190/190 199/199/199 200/200/200
f 194/194/194 195/195/195 198/198/198
f 194/194/194 198/198/198 201/201/201
f 192/192/192 194/194/194 201/201/201
f 192/192/192 201/201/201 202/202/202
f 189/189/189 193/193/193 203/203/203
f 189/189/189 203/203/203 199/199/199
f 196/196/196 191/191/191 204/204/204
f 196/196/196 204/204/204 197/197/197
f 193/193/193 192/192/192 202/202/202
f 193/193/193 202/202/202 203/203/203
f 191/191/191 190/190/190 200/200/200
f 191/191/191 200/200/200 204/204/204
f 205/205/205 206/206/206 207/207/207
f 205/205/205 207/207/207 208/208/208
f 209/209/209 210/210/210 206/206/206
f 209/209/209 206/206/206 205/205/205
f 211/211/211 209/209/209 205/205/205
f 211/211/211 205/205/205 212/212/212
f 212/212/212 205/205/205 208/208/208
f 212/212/212 208/208/208 213/213/213
f 212/212/212 213/213/213 214/214/214
f 212/212/212 214/214/214 215/215/215
f 207/207/207 206/206/206 216/216/216
f 207/207/207 216/216/216 217/217/217
f 211/211/211 212/212/212 215/215/215
f 211/211/211 215/215/215 218/218/218
f 209/209/209 211/211/211 218/218/218
f 209/209/209 218/218/218 219/219/219
f 206/206/206 210/210/210 220/220/220
f 206/206/206 220/220/220 216/216/216
f 213/213/213 208/208/208 221/221/221
f 213/213/213 221/221/221 214/214/214
f 210/210/210 209/209/209 219/219/219
f 210/210/210 219/219/219 220/220/220
f 208/208/208 207/207/207 217/217/217
f 208/208/208 217/217/217 221/221/221
f 222/222/222 223/223/223 224/224/224
f 222/222/222 224/224/224 225/225/225
f 226/226/226 227/227/227 228/228/228
f 226/226/226 228/228/228 229/229/229
f 224/224/224 223/223/223 230/230/230
f 224/224/224 230/230/230 231/231/231
f 232/232/232 226/226/226 229/229/229
f 232/232/232 229/229/229 233/233/233
f 234/234/234 222/222/222 225/225/225
f 234/234/234 225/225/225 232/232/232
f 225/225/225 224/224/224 235/235/235
f 225/225/225 235/235/235 227/227/227
f 223/223/223 222/222/222 236/236/236
f 223/223/223 236/236/236 230/230/230
f 227/227/227 235/235/235 237/237/237
f 227/227/227 237/237/237 228/228/228
f 235/235/235 224/224/224 231/231/231
f 235/235/235 231/231/231 237/237/237
f 234/234/234 232/232/232 233/233/233
f 234/234/234 233/233/233 238/238/238
f 222/222/222 234/234/234 238/238/238
f 222/222/222 238/238/238 236/236/236
f 232/232/232 225/225/225 227/227/227
f 232/232/232 227/227/227 226/226/226
f 239/239/239 240/240/240 241/241/241
f 239/239/239 241/241/241 242/242/242
f 243/243/243 241/241/241 244/244/244
f 243/243/243 244/244/244 245/245/245
f 246/246/246 247/247/247 248/248/248
f 246/246/246 248/248/248 249/249/249
f 250/250/250 239/239/239 242/242/242
f 250/250/250 242/242/242 246/246/246
f 246/246/246 242/242/242 251/251/251
f 246/246/246 251/251/251 247/247/247
f 242/242/242 241/241/241 243/243/243
f 242/242/242 243/243/243 251/251/251
f 252/252/252 253/253/253 254/254/254
f 252/252/252 254/254/254 255/255/255
f 256/256/256 257/257/257 253/253/253
f 256/256/256 253/253/253 252/252/252
f 258/258/258 256/256/256 252/252/252
f 258/258/258 252/252/252 259/259/259
f 259/259/259 252/252/252 255/255/255
f 259/259/259 255/255/255 260/260/260
f 259/259/259 260/260/260 261/261/261
f 259/259/259 261/261/261 262/262/262
f 254/254/254 253/253/253 263/263/263
f 254/254/254 263/263/263 264/264/264
f 258/258/258 259/259/259 262/262/262
f 258/258/258 262/262/262 265/265/265
f 256/256/256 258/258/258 265/265/265
f 256/256/256 265/265/265 266/266/266
f 253/253/253 257/257/257 267/267/267
f 253/253/253 267/267/267 263/263/263
f 260/260/260 255/255/255 268/268/268
f 260/260/260 268/268/268 261/261/261
f 257/257/257 256/256/256 266/266/266
f 257/257/257 266/266/266 267/267/267
f 255/255/255 254/254/254 264/264/264
f 255/255/255 264/264/264 268/268/268
f 269/269/269 270/270/270 271/271/271
f 269/269/269 271/271/271 272/272/272
f 273/273/273 274/274/274 270/270/270
f 273/273/273 270/270/270 269/269/269
f 275/275/275 273/273/273 269/269/269
f 275/275/275 269/269/269 276/276/276
f 276/276/276 269/269/269 272/272/272
f 276/276/276 272/272/272 277/277/277
f 276/276/276 277/277/277 278/278/278
f 276/276/276 278/278/278 279/279/279
f 271/271/271 270/270/270 280/280/280
f 271/271/271 280/280/280 281/281/281
f 275/275/275 276/276/276 279/279/279
f 275/275/275 279/279/279 282/282/282
f 273/273/273 275/275/275 282/282/282
f 273/273/273 282/282/282 283/283/283
f 270/270/270 274/274/274 284/284/284
f 270/270/270 284/284/284 280/280/280
f 277/277/277 272/272/272 285/285/285
f 277/277/277 285/285/285 278/278/278
f 274/274/274 273/273/273 283/283/283
f 274/274/274 283/283/283 284/284/284
f 272/272/272 271/271/271 281/281/281
f 272/272/272 281/281/281 285/285/285
f 286/286/286 287/287/287 288/288/288
f 286/286/286 288/288/288 289/289/289
f 290/290/290 291/291/291 287/287/287
f 290/290/290 287/287/287 286/286/286
f 292/292/292 290/290/290 286/286/286
f 292/292/292 286/286/286 293/293/293
f 293/293/293 286/286/286 289/289/289
f 293/293/293 289/289/289 294/294/294
f 293/293/293 294/294/294 295/295/295
f 293/293/293 295/295/295 296/296/296
f 288/288/288 287/287/287 297/297/297
f 288/288/288 297/297/297 298/298/298
f 292/292/292 293/293/293 296/296/296
f 292/292/292 296/296/296 299/299/299
f 290/290/290 292/292/292 299/299/299
f 290/290/290 299/299/299 300/300/300
f 287/287/287 291/291/291 301/301/301
f 287/287/287 301/301/301 297/297/297
f 294/294/294 289/289/289 302/302/302
f 294/294/294 302/302/302 295/295/295
f 291/291/291 290/290/290 300/300/300
f 291/291/291 300/300/300 301/301/301
f 289/289/289 288/288/288 298/298/298
f 289/289/289 298/298/298 302/302/302
f 303/303/303 304/304/304 305/305/305
f 303/303/303 305/305/305 306/306/306
f 307/307/307 308/308/308 304/304/304
f 307/307/307 304/304/304 303/303/303
f 309/309/309 307/307/307 303/303/303
f 309/309/309 303/303/303 310/310/310
f 310/310/310 303/303/303 306/306/306
f 310/310/310 306/306/306 311/311/311
f 310/310/310 311/311/311 312/312/312
f 310/310/310 312/312/312 313/313/313
f 305/305/305 304/304/304 314/314/314
f 305/305/305 314/314/314 315/315/315
f 309/309/309 310/310/310 313/313/313
f 309/309/309 313/313/313 316/316/316
f 307/307/307 309/309/309 316/316/316
f 307/307/307 316/316/316 317/317/317
f 304/304/304 308/308/308 318/318/318
f 304/304/304 318/318/318 314/314/314
f 311/311/311 306/306/306 319/319/319
f 311/311/311 319/319/319 312/312/312
f 308/308/308 307/307/307 317/317/317
f 308/308/308 317/317/317 318/318/318
f 306/306/306 305/305/305 315/315/315
f 306/306/306 315/315/315 319/319/319
f 250/250/250 246/246/246 249/249/249
f 250/250/250 249/249/249 320/320/320
f 239/239/239 250/250/250 320/320/320
f 239/239/239 320/320/320 321/321/321
f 241/241/241 240/240/240 322/322/322
f 241/241/241 322/322/322 244/244/244
f 247/247/247 251/251/251 323/323/323
f 247/247/247 323/323/323 248/248/248
f 240/240/240 239/239/239 321/321/321
f 240/240/240 321/321/321 322/322/322
f 251/251/251 243/243/243 245/245/245
f 251/251/251 245/245/245 323/323/323
f 324/324/324 325/325/325 326/326/326
f 324/324/324 326/326/326 327/327/327
f 328/328/328 326/326/326 329/329/329
f 328/328/328 329/329/329 330/330/330
f 331/331/331 332/332/332 333/333/333
f 331/331/331 333/333/333 334/334/334
f 335/335/335 324/324/324 327/327/327
f 335/335/335 327/327/327 331/331/331
f 331/331/331 327/327/327 336/336/336
f 331/331/331 336/336/336 332/332/332
f 327/327/327 326/326/326 328/328/328
f 327/327/327 328/328/328 336/336/336
f 337/337/337 338/338/338 339/339/339
f 337/337/337 339/339/339 340/340/340
f 341/341/341 342/342/342 338/338/338
f 341/341/341 338/338/338 337/337/337
f 343/343/343 341/341/341 337/337/337
f 343/343/343 337/337/337 344/344/344
f 344/344/344 337/337/337 340/340/340
f 344/344/344 340/340/340 345/345/345
f 344/344/344 345/345/345 346/346/346
f 344/344/344 346/346/346 347/347/347
f 339/339/339 338/338/338 348/348/348
f 339/339/339 348/348/348 349/349/349
f 343/343/343 344/344/344 347/347/347
f 343/343/343 347/347/347 350/350/350
f 341/341/341 343/343/343 350/350/350
f 341/341/341 350/350/350 351/351/351
f 338/338/338 342/342/342 352/352/352
f 338/338/338 352/352/352 348/348/348
f 345/345/345 340/340/340 353/353/353
f 345/345/345 353/353/353 346/346/346
f 342/342/342 341/341/341 351/351/351
f 342/342/342 351/351/351 352/352/352
f 340/340/340 339/339/339 349/349/349
f 340/340/340 349/349/349 353/353/353
f 335/335/335 331/331/331 334/334/334
f 335/335/335 334/334/334 354/354/354
f 324/324/324 335/335/335 354/354/354
f 324/324/324 354/354/354 355/355/355
f 326/326/326 325/325/325 356/356/356
f 326/326/326 356/356/356 329/329/329
f 332/332/332 336/336/336 357/357/357
f 332/332/332 357/357/357 333/333/333
f 325/325/325 324/324/324 355/355/355
f 325/325/325 355/355/355 356/356/356
f 336/336/336 328/328/328 330/330/330
f 336/336/336 330/330/330 357/357/357
f 358/358/358 359/359/359 360/360/360
f 358/358/358 360/360/360 361/361/361
f 362/362/362 363/363/363 359/359/359
f 362/362/362 359/359/359 358/358/358
f 364/364/364 362/362/362 358/358/358
f 364/364/364 358/358/358 365/365/365
f 365/365/365 358/358/358 361/361/361
f 365/365/365 361/361/361 366/366/366
f 365/365/365 366/366/366 367/367/367
f 365/365/365 367/367/367 368/368/368
f 360/360/360 359/359/359 369/369/369
f 360/360/360 369/369/369 370/370/370
f 364/364/364 365/365/365 368/368/368
f 364/364/364 368/368/368 371/371/371
f 362/362/362 364/364/364 371/371/371
f 362/362/362 371/371/371 372/372/372
f 359/359/359 363/363/363 373/373/373
f 359/359/359 373/373/373 369/369/369
f 366/366/366 361/361/361 374/374/374
f 366/366/366 374/374/374 367/367/367
f 363/363/363 362/362/362 372/372/372
f 363/363/363 372/372/372 373/373/373
f 361/361/361 360/360/360 370/370/370
f 361/361/361 370/370/370 374/374/374
f 375/375/375 376/376/376 377/377/377
f 375/375/375 377/377/377 378/378/378
f 379/379/379 377/377/377 380/380/380
f 379/379/379 380/380/380 381/381/381
f 382/382/382 383/383/383 384/384/384
f 382/382/382 384/384/384 385/385/385
f 386/386/386 375/375/375 378/378/378
f 386/386/386 378/378/378 382/382/382
f 382/382/382 378/378/378 387/387/387
f 382/382/382 387/387/387 383/383/383
f 378/378/378 377/377/377 379/379/379
f 378/378/378 379/379/379 387/387/387
f 388/388/388 389/389/389 390/390/390
f 388/388/388 390/390/390 391/391/391
f 392/392/392 393/393/393 389/389/389
f 392/392/392 389/389/389 388/388/388
f 394/394/394 392/392/392 388/388/388
f 394/394/394 388/388/388 395/395/395
f 395/395/395 388/388/388 391/391/391
f 395/395/395 391/391/391 396/396/396
f 395/395/395 396/396/396 397/397/397
f 395/395/395 397/397/397 398/398/398
f 390/390/390 389/389/389 399/399/399
f 390/390/390 399/399/399 400/400/400
f 394/394/394 395/395/395 398/398/398
f 394/394/394 398/398/398 401/401/401
f 392/392/392 394/394/394 401/401/401
f 392/392/392 401/401/401 402/402/402
f 389/389/389 393/393/393 403/403/403
f 389/389/389 403/403/403 399/399/399
f 396/396/396 391/391/391 404/404/404
f 396/396/396 404/404/404 397/397/397
f 393/393/393 392/392/392 402/402/402
f 393/393/393 402/402/402 403/403/403
f 391/391/391 390/390/390 400/400/400
f 391/391/391 400/400/400 404/404/404
f 386/386/386 382/382/382 385/385/385
f 386/386/386 385/385/385 405/405/405
f 375/375/375 386/386/386 405/405/405
f 375/375/375 405/405/405 406/406/406
f 377/377/377 376/376/376 407/407/407
f 377/377/377 407/407/407 380/380/380
f 383/383/383 387/387/387 408/408/408
f 383/383/383 408/408/408 384/384/384
f 376/376/376 375/375/375 406/406/406
f 376/376/376 406/406/406 407/407/407
f 387/387/387 379/379/379 381/381/381
f 387/387/387 381/381/381 408/408/408
