# Blender v2.79 (sub 0) OBJ File: 'Birch_2.blend'
# www.blender.org
mtllib Birch_2.mtl
o Birch_2_Cylinder.034
v -0.046997 0.000398 0.043790
v 0.081160 0.005499 0.133326
v -0.099791 -0.001689 -0.112155
v -0.045057 0.000513 -0.266142
v 0.083877 0.005668 -0.352632
v 0.236266 0.011747 -0.351736
v 0.363392 0.016807 -0.262776
v 0.414716 0.018836 -0.111740
v 0.364159 0.016800 0.041264
v 0.235081 0.011640 0.132970
v 0.314684 4.163036 -0.382619
v 0.403144 4.211861 -0.316476
v 0.279406 4.134099 -0.494579
v 0.317275 4.150538 -0.608463
v 0.410038 4.198621 -0.673851
v 0.520663 4.251727 -0.672393
v 0.613341 4.290965 -0.602872
v 0.647692 4.301099 -0.487695
v 0.606820 4.287727 -0.377186
v 0.512749 4.258058 -0.314223
v 0.324190 5.368384 -0.328430
v 0.393074 5.344141 -0.274038
v 0.298408 5.382664 -0.415273
v 0.328630 5.387722 -0.502953
v 0.405660 5.380433 -0.557088
v 0.498492 5.358433 -0.554686
v 0.568683 5.327331 -0.497770
v 0.590632 5.298134 -0.408502
v 0.555138 5.291286 -0.320138
v 0.479381 5.314289 -0.270231
v 0.056523 8.625281 0.401975
v 0.084136 8.622108 0.424205
v 0.043360 8.644842 0.375816
v 0.049301 8.672894 0.355869
v 0.072130 8.698962 0.349578
v 0.103329 8.712730 0.359763
v 0.130158 8.708549 0.382189
v 0.142404 8.689062 0.407477
v 0.136686 8.662059 0.426679
v 0.114909 8.636564 0.433383
v 0.238585 7.686801 0.131329
v 0.295233 7.682305 0.174946
v 0.218533 7.694487 0.062787
v 0.243300 7.703935 -0.003677
v 0.302999 7.711483 -0.042320
v 0.374185 7.712689 -0.038994
v 0.430445 7.706348 0.003626
v 0.451913 7.694786 0.071238
v 0.427025 7.685163 0.139249
v 0.366344 7.681609 0.178117
v 0.397695 7.149647 -0.187167
v -0.629389 7.890167 -0.042962
v -0.609613 7.890525 -0.003294
v 0.412255 7.164946 -0.139125
v 0.420048 7.148494 -0.089989
v -0.616103 7.883817 0.039970
v 0.419910 7.105639 -0.058468
v -0.646359 7.870907 0.070578
v 0.408095 7.053209 -0.057321
v -0.690023 7.859648 0.075920
v 0.388498 7.013734 -0.086795
v -0.728776 7.855785 0.053816
v -0.088551 7.279788 -0.150660
v 0.365854 7.016809 -0.181042
v -0.353523 7.490893 -0.115238
v 0.373294 7.000529 -0.133580
v -0.710687 7.872858 -0.057154
v 0.369439 7.057373 -0.212736
v 0.369439 7.057373 -0.212736
v 0.381644 7.108272 -0.215435
v 0.349596 0.516587 -0.255721
v 0.408475 0.563031 -0.124409
v -0.048200 0.550478 -0.233028
v 0.070597 0.510696 -0.318811
v 0.107860 0.686843 0.096726
v -0.022619 0.663123 0.029755
v 0.370209 0.622904 0.008265
v 0.219290 0.497940 -0.327922
v -0.087222 0.608850 -0.096252
v 0.255143 0.671604 0.089212
v 0.589663 1.879382 -0.676790
v 0.195589 1.852394 -0.652896
v 0.337093 1.944550 -0.312913
v 0.642233 1.903939 -0.541131
v 0.315812 1.849005 -0.741801
v 0.211829 1.915597 -0.382563
v 0.598678 1.931098 -0.404383
v 0.463329 1.859381 -0.751464
v 0.153155 1.876403 -0.512188
v 0.482250 1.949920 -0.320628
v 0.291377 7.029239 -0.174406
v 0.315589 7.016709 -0.095137
v 0.381540 7.007876 -0.044855
v 0.464638 7.003109 -0.041084
v 0.319200 7.044892 -0.252338
v 0.389467 7.057314 -0.298553
v 0.474825 7.058160 -0.294874
v 0.541990 7.045077 -0.244198
v 0.566864 7.022760 -0.165052
v 0.536648 7.005506 -0.086144
v 0.593255 7.792304 -0.222827
v 0.562920 7.799680 -0.239208
v 0.609989 7.791527 -0.191108
v 0.606447 7.799029 -0.155637
v 0.583481 7.812202 -0.130402
v 0.549803 7.825238 -0.125264
v 0.518359 7.832944 -0.141949
v 0.500449 7.831160 -0.174251
v 0.504763 7.822474 -0.210337
v 0.529753 7.811335 -0.235024
v 0.694352 8.021933 -0.247402
v 0.666762 8.034916 -0.264693
v 0.705164 8.006771 -0.216986
v 0.694508 7.996161 -0.184033
v 0.666007 7.994567 -0.161504
v 0.630635 8.002030 -0.158558
v 0.601978 8.015401 -0.176203
v 0.590489 8.028561 -0.208551
v 0.602171 8.038469 -0.242401
v 0.632249 8.041653 -0.263085
v 0.829134 8.364037 -0.230846
v 0.806262 8.376556 -0.245229
v 0.837179 8.347675 -0.206649
v 0.826769 8.334364 -0.180935
v 0.801511 8.329573 -0.163809
v 0.771170 8.334729 -0.162341
v 0.747400 8.347593 -0.177032
v 0.738939 8.362507 -0.203136
v 0.750282 8.375366 -0.229633
v 0.776736 8.381290 -0.244926
v 0.438892 7.480290 -0.104637
v 0.406712 7.484499 -0.118413
v 0.460310 7.488698 -0.077121
v 0.462651 7.508010 -0.046321
v 0.444465 7.530991 -0.024437
v 0.412573 7.548063 -0.019753
v 0.379265 7.552581 -0.033778
v 0.356486 7.541687 -0.060792
v 0.354763 7.520991 -0.091854
v 0.375117 7.499910 -0.114203
v 0.507614 4.478892 -0.333488
v 0.432845 4.535613 -0.362441
v 0.566473 4.402219 -0.358837
v 0.588248 4.336033 -0.432619
v 0.563442 4.307150 -0.527124
v 0.500315 4.325842 -0.604528
v 0.423059 4.384072 -0.635107
v 0.357879 4.458164 -0.605559
v 0.336188 4.523590 -0.527558
v 0.368713 4.554043 -0.435069
v 1.151944 5.137074 -0.528571
v 1.056053 5.184799 -0.563837
v 1.250194 5.088258 -0.562142
v 1.314973 5.060242 -0.654849
v 1.319772 5.065139 -0.771631
v 1.261422 5.099178 -0.866758
v 1.162633 5.148401 -0.904019
v 1.057897 5.190823 -0.869116
v 0.992649 5.216232 -0.772258
v 0.995775 5.216156 -0.654428
v 1.444010 5.923130 -0.276262
v 1.356203 5.951125 -0.315870
v 1.544566 5.916814 -0.292537
v 1.620390 5.938560 -0.359770
v 1.640699 5.980910 -0.452628
v 1.597025 6.025510 -0.535543
v 1.506688 6.054691 -0.577090
v 1.402438 6.054024 -0.562953
v 1.326356 6.028756 -0.493121
v 1.311026 5.991698 -0.396242
v 1.911106 6.902456 -0.052230
v 1.823421 6.928955 -0.093116
v 2.012211 6.900257 -0.065974
v 2.088944 6.927264 -0.130208
v 2.110149 6.973943 -0.220760
v 2.067092 7.020271 -0.303049
v 1.976889 7.047954 -0.345893
v 1.872395 7.043129 -0.334658
v 1.795465 7.012501 -0.267973
v 1.778942 6.971112 -0.173063
v 2.577088 7.947874 0.040918
v 2.505521 7.970612 0.028801
v 2.639371 7.915242 0.008591
v 2.668960 7.886975 -0.058514
v 2.653235 7.874689 -0.134854
v 2.597657 7.881906 -0.190104
v 2.523775 7.905251 -0.203187
v 2.457945 7.933571 -0.168139
v 2.428900 7.960651 -0.097979
v 2.449601 7.976595 -0.022888
v 2.778552 8.716311 0.123258
v 2.718925 8.738950 0.112903
v 2.827744 8.680950 0.097731
v 2.848025 8.647546 0.043595
v 2.830584 8.629620 -0.018594
v 2.781597 8.633217 -0.063946
v 2.720008 8.656412 -0.075104
v 2.667660 8.688716 -0.046658
v 2.647898 8.721437 0.010166
v 2.669729 8.741940 0.070702
v 2.517106 7.335908 -0.699068
v 2.464986 7.327635 -0.736259
v 2.545707 7.375028 -0.654722
v 2.539711 7.432507 -0.621393
v 2.500589 7.486186 -0.612818
v 2.442972 7.514329 -0.631534
v 2.388947 7.506219 -0.669797
v 2.357539 7.463341 -0.711751
v 2.364639 7.403461 -0.744098
v 2.407958 7.352712 -0.754213
v 2.764250 7.570901 -1.010237
v 2.718677 7.567904 -1.055348
v 2.778247 7.591417 -0.949832
v 2.754519 7.624236 -0.897301
v 2.701449 7.656899 -0.873819
v 2.639341 7.675472 -0.888272
v 2.591958 7.672639 -0.934580
v 2.576279 7.647160 -0.994897
v 2.601711 7.612117 -1.047376
v 2.657983 7.583652 -1.070303
v 3.101323 7.994873 -1.411417
v 3.064027 7.994492 -1.451200
v 3.110270 8.005968 -1.357795
v 3.086582 8.025685 -1.310626
v 3.038756 8.046651 -1.288872
v 2.985187 8.059618 -1.300936
v 2.946375 8.059386 -1.341767
v 2.936365 8.044004 -1.395937
v 2.961654 8.022531 -1.443264
v 3.011873 8.005249 -1.463963
v 2.146599 7.133176 -0.174818
v 2.090147 7.124773 -0.205003
v 2.186396 7.177268 -0.146767
v 2.194503 7.242145 -0.133518
v 2.166878 7.302700 -0.140985
v 2.113623 7.334943 -0.165198
v 2.055228 7.326756 -0.196367
v 2.012261 7.280481 -0.220816
v 2.004906 7.213447 -0.232410
v 2.036997 7.154281 -0.227534
v 2.545707 7.375028 -0.654722
v 2.778247 7.591417 -0.949832
v 3.110270 8.005968 -1.357795
v 2.186396 7.177268 -0.146767
v 1.927780 6.212163 -0.705409
v 1.952216 6.210480 -0.670344
v 1.898897 6.236077 -0.727487
v 1.877442 6.274704 -0.728239
v 1.872268 6.313217 -0.706819
v 1.884853 6.336118 -0.671106
v 1.909995 6.334687 -0.634800
v 1.937248 6.308548 -0.610582
v 1.958030 6.268262 -0.610369
v 1.964264 6.231328 -0.634778
v 2.136997 6.343662 -0.885611
v 2.166746 6.344845 -0.855247
v 2.097239 6.356676 -0.896657
v 2.062756 6.380709 -0.883848
v 2.047449 6.406671 -0.851631
v 2.057095 6.423683 -0.812216
v 2.087638 6.425105 -0.780672
v 2.127277 6.408959 -0.768125
v 2.161706 6.383327 -0.781875
v 2.176698 6.359886 -0.816535
v 2.408098 6.591294 -1.139712
v 2.434368 6.593590 -1.115019
v 2.372722 6.598444 -1.146665
v 2.341646 6.613802 -1.132819
v 2.327364 6.631635 -1.103111
v 2.335387 6.644301 -1.068873
v 2.362347 6.646814 -1.043190
v 2.398039 6.636920 -1.035198
v 2.429204 6.620278 -1.049954
v 2.442830 6.604687 -1.081533
v 1.577521 6.113988 -0.447374
v 1.597305 6.112642 -0.409477
v 1.559511 6.140105 -0.477157
v 1.551465 6.182262 -0.487705
v 1.557018 6.224205 -0.474341
v 1.573297 6.249397 -0.441804
v 1.593730 6.248340 -0.402641
v 1.609325 6.221076 -0.370611
v 1.616255 6.177454 -0.360392
v 1.612440 6.136046 -0.376796
v -0.668100 7.883067 -0.063609
v -0.710687 7.872858 -0.057154
v -0.747177 7.856851 0.014944
v -0.740588 7.863410 -0.026877
v -0.370792 7.464648 0.014897
v -0.326414 7.475937 0.041013
v -0.277863 7.497478 0.035030
v -0.245311 7.519060 -0.000642
v -0.239242 7.529241 -0.051376
v -0.262320 7.526114 -0.098069
v -0.306026 7.511043 -0.122560
v -0.353523 7.490893 -0.115238
v -0.392542 7.463420 -0.030823
v -0.386322 7.473414 -0.079862
v -0.086427 7.238997 -0.022362
v -0.053333 7.269822 0.005307
v -0.022798 7.313913 0.001614
v -0.006853 7.351865 -0.032082
v -0.008228 7.367382 -0.082112
v -0.027729 7.356075 -0.129504
v -0.058238 7.322232 -0.155817
v -0.088551 7.279788 -0.150660
v -0.105737 7.229937 -0.068616
v -0.106839 7.245246 -0.116959
v -0.211517 7.451201 1.283725
v 0.313978 7.784220 -0.693360
v -0.938224 7.496637 0.011806
v 1.040683 7.738784 0.578560
v -0.859633 7.408519 0.808127
v 0.579844 7.584660 1.220396
v -0.477395 7.650762 -0.630029
v 0.962090 7.826904 -0.217765
v -0.032832 8.147948 0.362152
v -0.162317 7.886240 0.926079
v 0.148410 8.083158 -0.243008
v -0.592034 7.913107 0.173969
v 0.578134 8.056294 0.509101
v -0.545557 7.861000 0.644847
v 0.305629 7.965159 0.888628
v -0.319538 8.004243 -0.205560
v 0.531656 8.108397 0.038223
v 2.332310 8.011921 -1.089753
v 3.914225 7.926551 -0.385980
v 2.302434 8.125834 -0.426834
v 3.453137 8.063740 0.085104
v 2.793395 7.874730 -1.560837
v 3.944095 7.812638 -1.048895
v 3.179887 8.412102 -0.811416
v 2.962903 8.377815 -0.327855
v 3.362006 8.173694 -1.249690
v 2.694749 8.300993 -0.996853
v 3.630163 8.250514 -0.580697
v 2.677081 8.368355 -0.604852
v 3.357518 8.331636 -0.302134
v 2.967397 8.219873 -1.275411
v 3.647828 8.183151 -0.972695
v 2.086078 8.737093 -0.164460
v 2.764423 8.672449 0.427009
v 2.679354 8.878634 -0.829407
v 3.357697 8.813992 -0.237936
v 2.255618 8.819974 -0.607755
v 3.188161 8.731110 0.205357
v 2.314091 8.678249 0.255866
v 3.129689 8.872835 -0.658264
v 2.713450 8.941600 -0.173377
v 1.665608 8.337210 -0.201610
v 2.812782 8.227892 0.798636
v 2.668919 8.576581 -1.326128
v 3.816089 8.467258 -0.325876
v 1.952323 8.477378 -0.951285
v 3.529374 8.327091 0.423799
v 2.051209 8.237700 0.509209
v 3.430494 8.566771 -1.036699
v 1.844380 7.941807 -0.694290
v 2.575020 8.202137 -0.083451
v 2.505659 7.738718 -1.398701
v 3.236297 7.999051 -0.787867
v 2.038112 7.791489 -1.160944
v 3.042558 8.149372 -0.321208
v 2.085797 8.110024 -0.256887
v 2.994879 7.830834 -1.225270
v 2.529113 8.144264 -0.801736
v 1.388620 7.531228 -0.525590
v 2.624224 7.971483 0.507419
v 2.506927 7.187780 -1.716848
v 3.742527 7.628037 -0.683837
v 1.716261 7.277018 -1.314771
v 3.414886 7.882249 0.105342
v 1.796890 7.815707 0.214116
v 3.334261 7.343559 -1.423546
v 2.490950 7.916802 -0.542818
v 3.257518 7.856398 -0.606052
v 2.370291 7.532799 -1.250567
v 3.136856 7.472394 -1.313801
v 2.286992 7.736116 -0.884847
v 3.340817 7.653078 -0.971774
v 2.896845 7.958549 -0.441826
v 2.730961 7.430645 -1.414790
v 2.830564 7.847481 -0.983515
v 2.230298 7.726682 -0.152300
v 3.526658 7.624534 -0.259230
v 2.026242 7.077283 -1.349193
v 3.322606 6.975130 -1.456131
v 1.885370 7.421120 -0.730709
v 3.667529 7.280694 -0.877716
v 2.916712 7.797284 0.018496
v 2.636194 6.904528 -1.626927
v 3.082416 8.334485 -0.528074
v 2.443401 8.248131 -0.788461
v 2.823102 8.309193 0.116689
v 2.184085 8.222838 -0.143701
v 3.072487 8.338017 -0.156904
v 2.194010 8.219305 -0.514868
v 2.811495 8.296046 -0.779074
v 2.455003 8.261276 0.107301
v 2.616524 8.407497 -0.337562
v 3.430453 8.083439 -0.657135
v 2.349790 7.937401 -1.097483
v 2.991916 8.040667 0.433244
v 1.911258 7.894629 -0.007108
v 3.413663 8.089417 -0.029433
v 1.928043 7.888652 -0.634806
v 2.972291 8.018434 -1.081613
v 2.369423 7.959633 0.417370
v 3.460737 7.796634 -1.517345
v 2.785794 8.141836 0.041613
v 1.489314 7.411393 -0.467469
v 1.761919 7.243070 0.466385
v 2.436717 7.404976 -0.745183
v 2.709321 7.236658 0.188669
v 1.911932 7.439728 -0.781301
v 2.286699 7.208325 0.502502
v 1.448103 7.328434 0.051492
v 2.750526 7.319618 -0.330292
v 2.109296 7.505778 -0.109553
v 1.045291 7.063183 -0.761308
v 1.506296 6.778527 0.817962
v 2.647463 7.052335 -1.230960
v 3.108468 6.767682 0.348309
v 1.759995 7.111098 -1.292037
v 2.393760 6.719769 0.879038
v 0.975595 6.922889 0.116326
v 3.178164 6.907979 -0.529323
v 1.956194 7.201739 -0.043570
v 2.641071 7.029121 0.266946
v 2.258900 7.185590 -0.799239
v 2.943769 7.012973 -0.488723
v 1.979221 7.226007 -0.479585
v 2.920744 6.988703 -0.052708
v 2.241916 7.118456 0.253278
v 2.658046 7.096253 -0.785570
v 2.482137 7.262936 -0.227946
v 1.542645 6.917220 0.024376
v 2.700851 6.625300 0.549503
v 2.054547 6.889910 -1.253558
v 3.212767 6.597988 -0.728439
v 1.581581 6.958260 -0.712984
v 3.173819 6.556950 0.008925
v 2.025828 6.776376 0.526386
v 2.729577 6.738832 -1.230445
v 0.078335 5.952901 -0.612592
v -0.496774 5.482880 -0.107177
v 0.538647 6.181888 0.124153
v -0.036464 5.711866 0.629561
v 0.416247 6.155459 -0.338917
v -0.374377 5.509306 0.355891
v -0.295469 5.674984 -0.497924
v 0.337340 5.989782 0.514902
v -0.075147 5.968885 0.026092
v 0.334007 5.729334 -1.081425
v -0.638578 4.934468 -0.226699
v 1.112457 6.116585 0.164513
v 0.139869 5.321714 1.019231
v 0.905464 6.071891 -0.618601
v -0.431589 4.979158 0.556411
v -0.298142 5.259341 -0.887507
v 0.772019 5.791708 0.825323
v 0.964689 5.249280 -1.345726
v 0.374250 5.572242 -0.629228
v 1.749672 5.535285 -0.827764
v 1.159240 5.858250 -0.111267
v 1.467803 5.331768 -1.221002
v 0.656116 5.775759 -0.235999
v 0.522390 5.357173 -1.084524
v 1.601539 5.750357 -0.372468
v 1.054808 5.718790 -0.808780
v 0.913541 4.667849 -1.591835
v -0.084967 5.214022 -0.380145
v 2.241057 5.151523 -0.715898
v 1.242550 5.697695 0.495789
v 1.764385 4.807353 -1.380899
v 0.391703 5.558192 0.284848
v 0.165553 4.850311 -1.150115
v 1.990538 5.515235 0.054069
v 1.419807 5.890821 -0.293488
v 0.721201 5.920685 0.278831
v 1.966940 5.657016 0.386575
v 1.268330 5.686882 0.958898
v 1.824269 5.768321 -0.060689
v 0.863871 5.809380 0.726105
v 0.967991 5.949562 -0.134745
v 1.720145 5.628139 0.800156
v 1.375938 5.951831 0.363099
v 1.400515 5.594911 -0.794595
v 0.219080 5.645415 0.173282
v 2.325787 5.199515 0.355480
v 1.144348 5.250018 1.323344
v 2.084517 5.387751 -0.400902
v 0.460351 5.457181 0.929659
v 0.636431 5.694248 -0.526145
v 1.908437 5.150683 1.054901
v 1.500405 6.032655 -0.253279
v 0.658365 5.993603 0.072203
v 1.827203 5.862015 0.571705
v 0.985156 5.822959 0.897180
v 1.821571 5.954653 0.098232
v 0.663993 5.900965 0.545677
v 1.018157 6.045101 -0.245104
v 1.467404 5.810512 0.889008
v 1.247607 6.093433 0.354305
v 1.667624 5.732784 -0.723548
v 0.243614 5.666736 -0.173127
v 2.220270 5.444206 0.671596
v 0.796261 5.378160 1.222017
v 2.210758 5.600870 -0.129115
v 0.253129 5.510077 0.627576
v 0.852068 5.753830 -0.709747
v 1.611814 5.357112 1.208211
v 0.605020 5.004160 -0.456959
v 0.176329 5.006805 0.146538
v 1.203452 5.101743 -0.032291
v 0.774766 5.104392 0.571206
v 0.984554 5.052457 -0.357707
v 0.395224 5.056095 0.471949
v 0.278548 4.987198 -0.234778
v 1.101238 5.121353 0.349026
v 0.675311 5.191373 0.046164
v 0.579137 4.661317 -0.787624
v -0.145834 4.665792 0.232968
v 1.591169 4.826346 -0.069457
v 0.866198 4.830822 0.951133
v 1.220989 4.742995 -0.619767
v 0.224345 4.749147 0.783272
v 0.027029 4.632635 -0.411890
v 1.418306 4.859507 0.575400
v 0.757551 8.309926 -0.499028
v 0.364319 7.725181 1.253996
v 1.455021 7.731206 0.482520
v -0.333148 8.303902 0.272446
v 1.354322 8.021935 -0.183695
v 0.053590 8.438522 -0.336511
v 1.068291 7.596585 1.091475
v -0.232449 8.013171 0.938665
v 0.682667 8.462048 0.553057
v 0.761450 8.498083 -0.019297
v 0.528931 8.152311 1.017297
v 1.173878 8.155875 0.561112
v 0.116498 8.494522 0.436891
v 1.114329 8.327788 0.167166
v 0.345185 8.574126 0.076806
v 0.945198 8.076271 0.921197
v 0.176047 8.322607 0.830834
v -0.518033 8.229220 -0.549551
v 0.624447 8.722544 0.424300
v -0.718728 8.239043 0.030377
v 0.112321 8.597896 0.738772
v -0.005909 8.353865 -0.864024
v 0.825137 8.712717 -0.155625
v -0.072384 8.865564 -0.112690
v -0.323444 8.698920 0.266253
v 0.256008 8.792260 -0.460808
v -0.371500 8.599734 -0.385208
v 0.304067 8.891446 0.190650
v -0.490179 8.605543 -0.042283
v 0.001241 8.817741 0.376606
v -0.068674 8.673443 -0.571159
v 0.422743 8.885634 -0.152274
v -0.261535 8.676586 0.576936
v 0.144282 8.303455 1.187355
v 0.453810 8.877592 0.224232
v 0.859624 8.504462 0.834651
v 0.020100 8.847000 0.286212
v 0.577991 8.334048 1.125375
v -0.192660 8.452357 0.948232
v 0.790752 8.728691 0.463355
v 0.301066 8.722227 0.784952
v -0.653524 8.439991 0.309924
v 0.032772 7.808981 1.342221
v 0.556225 8.779924 -0.286547
v 1.242515 8.148911 0.745751
v -0.177236 8.728189 -0.181731
v 0.766227 7.860714 1.237407
v -0.537041 8.060794 0.937830
v 1.126039 8.528111 0.117844
v -0.950101 7.933732 -0.308997
v -0.603251 8.374219 0.395000
v -0.207351 8.110421 -0.785490
v 0.139497 8.550912 -0.081499
v -0.643723 7.939542 -0.679148
v -0.166887 8.545100 0.288656
v -0.915843 8.120869 0.132281
v 0.105240 8.363773 -0.522776
v -0.474697 8.385183 -0.250445
v -1.170620 7.399288 -0.263523
v -0.584055 8.144213 0.927026
v 0.085466 7.698097 -1.069342
v 0.672027 8.443021 0.121207
v -0.652482 7.409120 -0.889503
v 0.153888 8.433190 0.747185
v -1.112686 7.715765 0.482736
v 0.614096 8.126547 -0.625052
v -0.460612 8.157862 -0.031278
v 0.180056 8.424474 0.083184
v -0.257042 7.873182 -0.685778
v 0.383622 8.139791 -0.571316
v -0.478866 7.965567 -0.379976
v 0.401879 8.332088 -0.222619
v -0.178418 8.344509 0.148586
v 0.101429 7.953143 -0.751177
v -0.078285 8.285358 -0.345577
v -0.662890 7.857178 0.254875
v 0.420554 8.308052 0.448451
v -0.318634 7.375743 -0.851968
v 0.764818 7.826616 -0.658399
v -0.693767 7.531978 -0.334816
v 0.795688 8.151815 -0.068705
v -0.185671 8.172820 0.559051
v 0.287599 7.510975 -0.962574
v -0.172179 8.733234 0.115653
v -0.588010 8.433446 -0.257246
v -0.491836 8.539686 0.627711
v -0.907668 8.239896 0.254810
v -0.254095 8.692628 0.441551
v -0.825754 8.280500 -0.071086
v -0.320202 8.619604 -0.166739
v -0.759648 8.353524 0.537202
v -0.606438 8.584456 0.180709
v 0.231512 8.683654 0.077735
v -0.471716 8.176669 -0.552886
v -0.309073 8.356338 0.943692
v -1.012297 7.849354 0.313069
v 0.092978 8.614988 0.628876
v -0.873768 7.918020 -0.238070
v -0.018812 8.491491 -0.399830
v -0.761970 8.041518 0.790634
v 0.543175 8.554805 -0.677409
v -0.436764 8.396955 0.552158
v 1.543625 7.541968 -0.168904
v 2.962347 7.116707 0.154664
v 1.587343 7.380878 0.395769
v 2.619338 7.071540 0.631142
v 1.886631 7.587134 -0.645382
v 2.918625 7.277797 -0.410004
v 2.341989 7.701888 0.092271
v 2.192940 7.503354 0.484847
v 2.436233 7.671024 -0.361506
v 1.895129 7.712922 -0.033999
v 2.734044 7.461457 0.157335
v 1.920979 7.617666 0.299907
v 2.531221 7.434748 0.439087
v 2.097957 7.739631 -0.315745
v 2.708193 7.556712 -0.176569
v 1.593238 7.640810 0.163604
v 2.304781 7.571057 0.647684
v 2.082004 7.711569 -0.544629
v 2.793546 7.641820 -0.060551
v 1.704293 7.689260 -0.281208
v 2.682486 7.593369 0.384266
v 1.857431 7.592674 0.538343
v 2.529354 7.689954 -0.435291
v 2.196670 7.801557 0.069798
v 1.171083 7.280220 0.199986
v 2.374395 7.162261 1.018629
v 1.997650 7.399888 -0.997731
v 3.200959 7.281930 -0.179085
v 1.358903 7.362159 -0.552258
v 3.013137 7.199994 0.573158
v 1.617869 7.198820 0.833720
v 2.754176 7.363333 -0.812821
v 2.458706 7.471112 -0.722774
v 2.047262 7.187562 0.708535
v -0.369797 5.231750 0.112307
v 0.387242 5.657310 0.342321
v -0.220327 5.432250 -0.750580
v 0.536707 5.857809 -0.520560
v -0.436905 5.252265 -0.362232
v 0.603819 5.837297 -0.046023
v -0.019281 5.406965 0.388991
v 0.186196 5.682598 -0.797249
v -0.002504 5.687780 -0.185790
v -0.489817 4.693929 0.289785
v 0.790434 5.413610 0.678765
v -0.237045 5.033006 -1.169477
v 1.043205 5.752681 -0.780488
v -0.603308 4.728623 -0.512731
v 1.156698 5.717990 0.022025
v 0.102950 4.990239 0.757691
v 0.450442 5.456377 -1.248403
v 3.250119 8.328083 -0.723818
v 2.412178 7.829211 0.436914
v 2.691479 8.247818 -0.891737
v 2.081945 7.884936 -0.047408
v 3.580351 8.272356 -0.239498
v 2.970814 7.909476 0.604827
v 2.747387 8.452224 -0.043361
v 2.411892 8.327233 -0.339280
v 3.134459 8.347184 0.190927
v 3.020924 8.484705 -0.417356
v 2.525432 8.189713 0.269005
v 2.690586 8.437243 -0.516652
v 2.330157 8.222664 -0.017380
v 3.216193 8.451755 -0.130968
v 2.855768 8.237173 0.368298
v 2.933538 8.469522 -0.774454
v 2.228612 8.407671 -0.279734
v 3.432073 8.392151 -0.073761
v 2.727151 8.330302 0.420959
v 3.314883 8.442429 -0.516811
v 2.345802 8.357398 0.163309
v 2.487665 8.453092 -0.658380
v 3.173022 8.346731 0.304886
v 2.829249 8.560161 -0.158273
v 3.007321 8.157375 -1.229079
v 1.815200 8.052779 -0.392443
v 3.850414 8.026534 -0.044116
v 2.658291 7.921940 0.792516
v 3.652231 8.111556 -0.793357
v 2.013382 7.967762 0.356794
v 2.253292 8.129593 -1.032782
v 3.412319 7.949724 0.596224
v 3.442131 8.095514 0.304875
v 2.220166 8.061778 -0.591783
vt -0.043906 -0.617714
vt 0.021554 -0.625762
vt 0.127411 0.501775
vt 0.070009 0.514759
vt 0.170606 1.022520
vt 0.182753 0.476439
vt 0.219489 1.031477
vt 0.151005 -0.635264
vt 0.216819 -0.646620
vt 0.290020 0.421102
vt 0.235471 0.446602
vt 0.353907 -0.628713
vt 0.423790 -0.603014
vt 0.455140 0.459610
vt 0.403442 0.429830
vt 0.561118 -0.587483
vt 0.627517 -0.589272
vt 0.615579 0.502719
vt 0.560130 0.498223
vt 0.086290 -0.626861
vt 0.284388 -0.648243
vt 0.347625 0.412363
vt 0.493525 -0.589531
vt 0.506565 0.485008
vt 0.464870 0.848334
vt 0.307684 0.848581
vt 0.305321 0.863918
vt 0.463651 0.863156
vt 0.317440 1.041624
vt 0.365683 1.042137
vt 0.457974 1.026371
vt 0.501753 1.009457
vt 0.120983 1.015957
vt 0.440761 0.314590
vt 0.428676 0.310227
vt 0.415786 0.313796
vt 0.407580 0.324594
vt 0.407520 0.338014
vt 0.415225 0.348755
vt 0.427797 0.352904
vt 0.440417 0.348788
vt 0.448145 0.338060
vt 0.448145 0.325041
vt 0.547204 0.993348
vt 0.596194 0.991123
vt 0.268462 1.038036
vt 0.206209 2.336380
vt 0.245669 2.327037
vt 0.353462 2.961890
vt 0.333843 2.957952
vt 0.460079 0.941251
vt 0.316407 0.941922
vt 0.316626 0.957486
vt 0.461996 0.957374
vt 0.582364 0.564517
vt 0.584704 0.564538
vt 0.585873 0.430486
vt 0.583533 0.430466
vt 0.412618 1.037840
vt 0.581195 0.698569
vt 0.583535 0.698589
vt 0.581196 0.832620
vt 0.583535 0.832661
vt 0.464838 0.833175
vt 0.310873 0.833176
vt 0.458804 0.925170
vt 0.313890 0.926551
vt 0.461742 0.877918
vt 0.304737 0.879444
vt 0.305757 0.895441
vt 0.459118 0.893258
vt 0.441371 1.944349
vt 0.488133 1.942346
vt 0.487191 2.349727
vt 0.446932 2.349917
vt 0.566228 2.335444
vt 0.607147 2.329467
vt 0.516534 2.949828
vt 0.501257 2.937799
vt 0.285909 2.323506
vt 0.326480 2.325570
vt 0.393184 2.953019
vt 0.373969 2.960482
vt 0.366814 2.333274
vt 0.409952 2.941838
vt 0.526602 2.344070
vt 0.484717 2.927056
vt 0.406786 2.343389
vt 0.426441 2.930524
vt 0.465372 2.921075
vt 0.694818 -1.463163
vt 0.678219 -1.458012
vt 0.661983 -1.463678
vt 0.652405 -1.477354
vt 0.652405 -1.493773
vt 0.661983 -1.507449
vt 0.678219 -1.513114
vt 0.694818 -1.507964
vt 0.704980 -1.494091
vt 0.704980 -1.477035
vt 0.534463 1.935554
vt 0.581121 1.927550
vt 0.212281 1.938545
vt 0.257838 1.939459
vt 0.349240 1.939798
vt 0.394937 1.941524
vt 0.166126 1.941034
vt 0.303578 1.939650
vt 0.628555 1.925545
vt 0.445010 2.922399
vt 0.552894 0.954609
vt 0.559906 0.968886
vt 0.714002 0.957322
vt 0.707452 0.946054
vt 0.567505 0.879748
vt 0.560606 0.893572
vt 0.715710 0.896593
vt 0.722584 0.885143
vt 0.570907 0.850595
vt 0.566933 0.835879
vt 0.463930 0.973345
vt 0.314518 0.972983
vt 0.311195 0.988397
vt 0.465509 0.988997
vt 0.571051 0.865361
vt 0.726090 0.872808
vt 0.725761 0.860041
vt 0.309432 0.911273
vt 0.458045 0.909116
vt 0.553732 0.907880
vt 0.708892 0.908212
vt 0.441817 -1.509565
vt 0.510657 -1.501434
vt 0.493443 -1.219743
vt 0.432724 -1.223465
vt 0.222936 -1.506483
vt 0.295862 -1.511918
vt 0.312275 -1.247016
vt 0.247977 -1.261415
vt 0.024111 -1.484697
vt 0.090472 -1.491440
vt 0.108966 -1.266248
vt 0.038668 -1.256081
vt 0.580686 -1.490396
vt 0.556117 -1.225852
vt 0.370981 -1.513114
vt 0.373274 -1.233138
vt 0.155855 -1.499306
vt 0.179648 -1.269906
vt 0.652041 -1.479157
vt 0.621598 -1.237054
vt -0.043909 -1.480289
vt -0.028165 -1.240098
vt 0.385383 0.556028
vt 0.395887 0.557439
vt 0.393192 0.616737
vt 0.383157 0.614059
vt 0.314929 0.558329
vt 0.324806 0.558436
vt 0.325250 0.627283
vt 0.315774 0.624532
vt 0.344074 0.556584
vt 0.354089 0.554985
vt 0.353315 0.621112
vt 0.344231 0.625437
vt 0.374902 0.555046
vt 0.372810 0.614264
vt 0.304737 0.557667
vt 0.306429 0.620485
vt 0.334450 0.557733
vt 0.334834 0.627565
vt 0.364436 0.554415
vt 0.362717 0.616802
vt 0.406292 0.558872
vt 0.402455 0.621457
vt 0.328631 0.728734
vt 0.320579 0.725824
vt 0.352888 0.722772
vt 0.345234 0.727100
vt 0.377463 0.715648
vt 0.368952 0.715934
vt 0.312896 0.721823
vt 0.337042 0.729187
vt 0.360648 0.718474
vt 0.393023 0.722572
vt 0.385640 0.718089
vt 0.304737 0.459422
vt 0.315011 0.457259
vt 0.335397 0.453661
vt 0.345692 0.453338
vt 0.366781 0.456627
vt 0.376889 0.459692
vt 0.397393 0.461780
vt 0.407691 0.460546
vt 0.325226 0.455178
vt 0.356299 0.454098
vt 0.387069 0.461488
vt 0.407520 0.291540
vt 0.412338 0.284636
vt 0.420586 0.281673
vt 0.429059 0.284350
vt 0.434165 0.291509
vt 0.434102 0.300170
vt 0.428942 0.307144
vt 0.420633 0.309712
vt 0.412442 0.306892
vt 0.407520 0.299924
vt 0.609846 -0.411513
vt 0.561900 -0.000724
vt 0.599593 0.001890
vt 0.666205 -0.392857
vt 0.215885 -0.372275
vt 0.278598 0.003351
vt 0.321493 -0.005904
vt 0.266965 -0.382463
vt 0.371842 -0.415436
vt 0.408301 -0.017963
vt 0.449510 -0.015626
vt 0.428485 -0.426976
vt 0.549487 -0.424828
vt 0.524837 -0.004774
vt 0.162189 -0.367702
vt 0.238159 0.012013
vt 0.317785 -0.397054
vt 0.365249 -0.013192
vt 0.488491 -0.429359
vt 0.487625 -0.009472
vt 0.638431 0.003795
vt 0.720366 -0.372268
vt 0.307647 0.323826
vt 0.341611 0.315529
vt 0.413406 0.317186
vt 0.449668 0.328449
vt 0.524125 0.348015
vt 0.562535 0.346956
vt 0.273395 0.336132
vt 0.376711 0.313444
vt 0.486196 0.341457
vt 0.599578 0.338874
vt 0.635036 0.327945
vt 0.426792 0.712828
vt 0.460543 0.730306
vt 0.529373 0.756492
vt 0.566175 0.754099
vt 0.287544 0.732233
vt 0.319897 0.714724
vt 0.390582 0.704093
vt 0.493586 0.747907
vt 0.601354 0.741711
vt 0.634890 0.725160
vt 0.354486 0.704457
vt 0.519506 1.141235
vt 0.547691 1.148539
vt 0.337928 1.181833
vt 0.363787 1.189103
vt 0.415513 1.181435
vt 0.439133 1.167255
vt 0.490640 1.142952
vt 0.572765 1.162701
vt 0.595685 1.178744
vt 0.390153 1.188830
vt 0.463333 1.152295
vt 0.365019 1.451528
vt 0.386856 1.458116
vt 0.430892 1.451364
vt 0.450781 1.438665
vt 0.492311 1.418315
vt 0.514545 1.416522
vt 0.555611 1.433057
vt 0.574145 1.445902
vt 0.409335 1.458116
vt 0.470838 1.426118
vt 0.536068 1.422060
vt -0.256207 0.755048
vt -0.277121 0.757534
vt -0.273535 0.875442
vt -0.253487 0.870425
vt -0.116018 0.761220
vt -0.135681 0.761262
vt -0.138614 0.898807
vt -0.119525 0.893651
vt -0.174056 0.757205
vt -0.193954 0.753801
vt -0.194361 0.885446
vt -0.176430 0.894394
vt -0.235348 0.753394
vt -0.232912 0.871152
vt -0.297838 0.760043
vt -0.318140 0.762092
vt -0.309654 0.894578
vt -0.292054 0.884537
vt -0.154907 0.759681
vt -0.157768 0.898994
vt -0.214523 0.752409
vt -0.212921 0.876529
vt -0.150867 1.099674
vt -0.134871 1.094416
vt -0.198279 1.086636
vt -0.183428 1.095552
vt -0.246288 1.071463
vt -0.229572 1.072404
vt -0.290787 1.094222
vt -0.277053 1.084421
vt -0.167428 1.100100
vt -0.213352 1.077793
vt -0.262438 1.075924
vt -0.297369 0.566235
vt -0.317363 0.561925
vt -0.155896 0.554305
vt -0.176035 0.553547
vt -0.217321 0.559637
vt -0.237140 0.565421
vt -0.277266 0.568970
vt -0.136002 0.557370
vt -0.196786 0.554871
vt -0.257078 0.568686
vt -0.116020 0.561506
vt 0.119242 0.243674
vt 0.103565 0.238015
vt 0.086846 0.242644
vt 0.076201 0.256651
vt 0.076123 0.274059
vt 0.086119 0.287991
vt 0.102426 0.293373
vt 0.118796 0.288035
vt 0.128820 0.274118
vt 0.128820 0.257231
vt 0.099268 0.422982
vt 0.118935 0.422982
vt 0.135279 0.411437
vt 0.141895 0.392223
vt 0.135870 0.372731
vt 0.119513 0.360628
vt 0.099196 0.360479
vt 0.082401 0.372456
vt 0.076123 0.392332
vt 0.083073 0.411679
vt 0.301404 0.741748
vt 0.301405 0.915631
vt 0.304439 0.915684
vt 0.304439 0.741774
vt 0.302921 0.567865
vt 0.305955 0.567892
vt 0.307472 0.394008
vt 0.304437 0.393982
vt -0.171436 0.245323
vt -0.174319 0.319982
vt -0.187474 0.322200
vt -0.184998 0.246324
vt -0.211369 0.248113
vt -0.211578 0.332512
vt -0.223597 0.336333
vt -0.224031 0.248181
vt -0.248834 0.245678
vt -0.248013 0.334584
vt -0.259852 0.329309
vt -0.261796 0.243537
vt -0.157843 0.244869
vt -0.161076 0.321488
vt -0.198364 0.247359
vt -0.199804 0.327065
vt -0.236424 0.247219
vt -0.235873 0.337007
vt -0.144221 0.244860
vt -0.148366 0.325999
vt -0.272147 0.324046
vt -0.275262 0.242705
vt -0.212994 0.462265
vt -0.223169 0.466345
vt -0.244519 0.464979
vt -0.254536 0.459763
vt -0.171685 0.452128
vt -0.182505 0.450433
vt -0.203344 0.456805
vt -0.233925 0.467294
vt -0.161432 0.456695
vt -0.193289 0.452267
vt -0.264684 0.454595
vt -0.208586 0.118350
vt -0.195429 0.121451
vt -0.247986 0.112365
vt -0.234732 0.113097
vt -0.155806 0.121892
vt -0.142606 0.118432
vt -0.182255 0.123551
vt -0.221676 0.115360
vt -0.275262 0.115939
vt -0.261676 0.113013
vt -0.168974 0.123693
vt 0.108409 0.120519
vt 0.099602 0.126740
vt 0.088632 0.126740
vt 0.079592 0.120229
vt 0.076123 0.109595
vt 0.079620 0.099001
vt 0.088670 0.092508
vt 0.099979 0.092559
vt 0.109077 0.099473
vt 0.112085 0.110335
vt 0.549027 0.939154
vt 0.704013 0.933604
vt 0.549587 0.923292
vt 0.567647 0.982455
vt 0.721558 0.967909
vt 0.721708 0.847709
vt 0.704738 0.920717
vt 0.597317 0.242613
vt 0.762926 0.381347
vt 0.757387 0.597317
vt 0.500000 0.500000
vt 0.237074 0.618653
vt 0.402683 0.757387
vt 0.310990 0.999900
vt 0.000100 0.725594
vt 0.999900 0.274406
vt 0.999900 0.689010
vt 0.242613 0.402683
vt 0.000100 0.310990
vt 0.381347 0.237074
vt 0.618652 0.762926
vt 0.689010 0.000100
vt 0.725594 0.999900
vt 0.274406 0.000100
vt 0.597317 0.242613
vt 0.762926 0.381347
vt 0.757387 0.597317
vt 0.500000 0.500000
vt 0.618652 0.762926
vt 0.999900 0.689010
vt 0.725594 0.999900
vt 0.242613 0.402683
vt 0.237074 0.618653
vt 0.000100 0.725594
vt 0.000100 0.310990
vt 0.381347 0.237074
vt 0.402683 0.757387
vt 0.500000 0.500000
vt 0.757387 0.597317
vt 0.618652 0.762926
vt 0.402683 0.757387
vt 0.597317 0.242613
vt 0.762926 0.381347
vt 0.381347 0.237074
vt 0.242613 0.402683
vt 0.237074 0.618653
vt 0.000100 0.725594
vt 0.000100 0.310990
vt 0.999900 0.689010
vt 0.725594 0.999900
vt 0.274406 0.000100
vt 0.689010 0.000100
vt 0.999900 0.274406
vt 0.310990 0.999900
vt 0.500000 0.500000
vt 0.757387 0.597317
vt 0.618652 0.762926
vt 0.402683 0.757387
vt 0.597317 0.242613
vt 0.762926 0.381347
vt 0.381347 0.237074
vt 0.242613 0.402683
vt 0.237074 0.618653
vt 0.000100 0.725594
vt 0.000100 0.310990
vt 0.999900 0.689010
vt 0.725594 0.999900
vt 0.274406 0.000100
vt 0.689010 0.000100
vt 0.999900 0.274406
vt 0.310990 0.999900
vt 0.500000 0.500000
vt 0.757387 0.597317
vt 0.618652 0.762926
vt 0.402683 0.757387
vt 0.597317 0.242613
vt 0.762926 0.381347
vt 0.381347 0.237074
vt 0.242613 0.402683
vt 0.237074 0.618653
vt 0.000100 0.725594
vt 0.000100 0.310990
vt 0.999900 0.689010
vt 0.725594 0.999900
vt 0.274406 0.000100
vt 0.689010 0.000100
vt 0.999900 0.274406
vt 0.310990 0.999900
vt 0.500000 0.500000
vt 0.757387 0.597317
vt 0.618652 0.762926
vt 0.402683 0.757387
vt 0.597317 0.242613
vt 0.762926 0.381347
vt 0.381347 0.237074
vt 0.242613 0.402683
vt 0.237074 0.618653
vt 0.000100 0.725594
vt 0.000100 0.310990
vt 0.999900 0.689010
vt 0.725594 0.999900
vt 0.274406 0.000100
vt 0.689010 0.000100
vt 0.999900 0.274406
vt 0.310990 0.999900
vt 0.274406 0.000100
vt 0.689010 0.000100
vt 0.999900 0.274406
vt 0.310990 0.999900
vt 0.500000 0.500000
vt 0.757387 0.597317
vt 0.618652 0.762926
vt 0.402683 0.757387
vt 0.597317 0.242613
vt 0.762926 0.381347
vt 0.381347 0.237074
vt 0.242613 0.402683
vt 0.237074 0.618653
vt 0.000100 0.725594
vt 0.000100 0.310990
vt 0.999900 0.689010
vt 0.725594 0.999900
vt 0.274406 0.000100
vt 0.689010 0.000100
vt 0.999900 0.274406
vt 0.310990 0.999900
vt 0.500000 0.500000
vt 0.757387 0.597317
vt 0.618652 0.762926
vt 0.402683 0.757387
vt 0.597317 0.242613
vt 0.762926 0.381347
vt 0.381347 0.237074
vt 0.242613 0.402683
vt 0.237074 0.618653
vt 0.000100 0.725594
vt 0.000100 0.310990
vt 0.999900 0.689010
vt 0.725594 0.999900
vt 0.274406 0.000100
vt 0.689010 0.000100
vt 0.999900 0.274406
vt 0.310990 0.999900
vt 0.500000 0.500000
vt 0.757387 0.597317
vt 0.618652 0.762926
vt 0.402683 0.757387
vt 0.597317 0.242613
vt 0.762926 0.381347
vt 0.381347 0.237074
vt 0.242613 0.402683
vt 0.237074 0.618653
vt 0.000100 0.725594
vt 0.000100 0.310990
vt 0.999900 0.689010
vt 0.725594 0.999900
vt 0.274406 0.000100
vt 0.689010 0.000100
vt 0.999900 0.274406
vt 0.310990 0.999900
vt 0.500000 0.500000
vt 0.757387 0.597317
vt 0.618652 0.762926
vt 0.402683 0.757387
vt 0.597317 0.242613
vt 0.762926 0.381347
vt 0.381347 0.237074
vt 0.242613 0.402683
vt 0.237074 0.618653
vt 0.000100 0.725594
vt 0.000100 0.310990
vt 0.999900 0.689010
vt 0.725594 0.999900
vt 0.274406 0.000100
vt 0.689010 0.000100
vt 0.999900 0.274406
vt 0.310990 0.999900
vt 0.500000 0.500000
vt 0.757387 0.597317
vt 0.618652 0.762926
vt 0.402683 0.757387
vt 0.597317 0.242613
vt 0.762926 0.381347
vt 0.381347 0.237074
vt 0.242613 0.402683
vt 0.237074 0.618653
vt 0.000100 0.725594
vt 0.000100 0.310990
vt 0.999900 0.689010
vt 0.725594 0.999900
vt 0.274406 0.000100
vt 0.689010 0.000100
vt 0.999900 0.274406
vt 0.310990 0.999900
vt 0.500000 0.500000
vt 0.757387 0.597317
vt 0.618652 0.762926
vt 0.402683 0.757387
vt 0.597317 0.242613
vt 0.762926 0.381347
vt 0.381347 0.237074
vt 0.242613 0.402683
vt 0.237074 0.618653
vt 0.000100 0.725594
vt 0.000100 0.310990
vt 0.999900 0.689010
vt 0.725594 0.999900
vt 0.274406 0.000100
vt 0.689010 0.000100
vt 0.999900 0.274406
vt 0.310990 0.999900
vt 0.500000 0.500000
vt 0.757387 0.597317
vt 0.618652 0.762926
vt 0.402683 0.757387
vt 0.597317 0.242613
vt 0.762926 0.381347
vt 0.381347 0.237074
vt 0.242613 0.402683
vt 0.237074 0.618653
vt 0.000100 0.725594
vt 0.000100 0.310990
vt 0.999900 0.689010
vt 0.725594 0.999900
vt 0.274406 0.000100
vt 0.689010 0.000100
vt 0.999900 0.274406
vt 0.310990 0.999900
vt 0.597317 0.242613
vt 0.762926 0.381347
vt 0.757387 0.597317
vt 0.500000 0.500000
vt 0.237074 0.618653
vt 0.402683 0.757387
vt 0.310990 0.999900
vt 0.000100 0.725594
vt 0.999900 0.274406
vt 0.999900 0.689010
vt 0.242613 0.402683
vt 0.000100 0.310990
vt 0.381347 0.237074
vt 0.618652 0.762926
vt 0.689010 0.000100
vt 0.725594 0.999900
vt 0.274406 0.000100
vt 0.597317 0.242613
vt 0.762926 0.381347
vt 0.757387 0.597317
vt 0.500000 0.500000
vt 0.618652 0.762926
vt 0.999900 0.689010
vt 0.725594 0.999900
vt 0.242613 0.402683
vt 0.237074 0.618653
vt 0.000100 0.725594
vt 0.000100 0.310990
vt 0.381347 0.237074
vt 0.402683 0.757387
vt 0.500000 0.500000
vt 0.757387 0.597317
vt 0.618652 0.762926
vt 0.402683 0.757387
vt 0.597317 0.242613
vt 0.762926 0.381347
vt 0.381347 0.237074
vt 0.242613 0.402683
vt 0.237074 0.618653
vt 0.000100 0.725594
vt 0.000100 0.310990
vt 0.999900 0.689010
vt 0.725594 0.999900
vt 0.274406 0.000100
vt 0.689010 0.000100
vt 0.999900 0.274406
vt 0.310990 0.999900
vt 0.500000 0.500000
vt 0.757387 0.597317
vt 0.618652 0.762926
vt 0.402683 0.757387
vt 0.597317 0.242613
vt 0.762926 0.381347
vt 0.381347 0.237074
vt 0.242613 0.402683
vt 0.237074 0.618653
vt 0.000100 0.725594
vt 0.000100 0.310990
vt 0.999900 0.689010
vt 0.725594 0.999900
vt 0.274406 0.000100
vt 0.689010 0.000100
vt 0.999900 0.274406
vt 0.310990 0.999900
vt 0.500000 0.500000
vt 0.757387 0.597317
vt 0.618652 0.762926
vt 0.402683 0.757387
vt 0.597317 0.242613
vt 0.762926 0.381347
vt 0.381347 0.237074
vt 0.242613 0.402683
vt 0.237074 0.618653
vt 0.000100 0.725594
vt 0.000100 0.310990
vt 0.999900 0.689010
vt 0.725594 0.999900
vt 0.274406 0.000100
vt 0.689010 0.000100
vt 0.999900 0.274406
vt 0.310990 0.999900
vt 0.500000 0.500000
vt 0.757387 0.597317
vt 0.618652 0.762926
vt 0.402683 0.757387
vt 0.597317 0.242613
vt 0.762926 0.381347
vt 0.381347 0.237074
vt 0.242613 0.402683
vt 0.237074 0.618653
vt 0.000100 0.725594
vt 0.000100 0.310990
vt 0.999900 0.689010
vt 0.725594 0.999900
vt 0.274406 0.000100
vt 0.689010 0.000100
vt 0.999900 0.274406
vt 0.310990 0.999900
vt 0.274406 0.000100
vt 0.689010 0.000100
vt 0.999900 0.274406
vt 0.310990 0.999900
vt 0.597317 0.242613
vt 0.762926 0.381347
vt 0.757387 0.597317
vt 0.500000 0.500000
vt 0.618652 0.762926
vt 0.999900 0.689010
vt 0.725594 0.999900
vt 0.242613 0.402683
vt 0.237074 0.618653
vt 0.000100 0.725594
vt 0.000100 0.310990
vt 0.381347 0.237074
vt 0.402683 0.757387
vt 0.500000 0.500000
vt 0.757387 0.597317
vt 0.618652 0.762926
vt 0.402683 0.757387
vt 0.597317 0.242613
vt 0.762926 0.381347
vt 0.381347 0.237074
vt 0.242613 0.402683
vt 0.237074 0.618653
vt 0.000100 0.725594
vt 0.000100 0.310990
vt 0.999900 0.689010
vt 0.725594 0.999900
vt 0.274406 0.000100
vt 0.689010 0.000100
vt 0.999900 0.274406
vt 0.310990 0.999900
vt 0.274406 0.000100
vt 0.689010 0.000100
vt 0.999900 0.274406
vt 0.310990 0.999900
vt 0.500000 0.500000
vt 0.757387 0.597317
vt 0.618652 0.762926
vt 0.402683 0.757387
vt 0.597317 0.242613
vt 0.762926 0.381347
vt 0.381347 0.237074
vt 0.242613 0.402683
vt 0.237074 0.618653
vt 0.000100 0.725594
vt 0.000100 0.310990
vt 0.999900 0.689010
vt 0.725594 0.999900
vt 0.274406 0.000100
vt 0.689010 0.000100
vt 0.999900 0.274406
vt 0.310990 0.999900
vt 0.597317 0.242613
vt 0.762926 0.381347
vt 0.757387 0.597317
vt 0.500000 0.500000
vt 0.618652 0.762926
vt 0.999900 0.689010
vt 0.725594 0.999900
vt 0.242613 0.402683
vt 0.237074 0.618653
vt 0.000100 0.725594
vt 0.000100 0.310990
vt 0.381347 0.237074
vt 0.402683 0.757387
vt 0.500000 0.500000
vt 0.757387 0.597317
vt 0.618652 0.762926
vt 0.402683 0.757387
vt 0.597317 0.242613
vt 0.762926 0.381347
vt 0.381347 0.237074
vt 0.242613 0.402683
vt 0.237074 0.618653
vt 0.000100 0.725594
vt 0.000100 0.310990
vt 0.999900 0.689010
vt 0.725594 0.999900
vt 0.274406 0.000100
vt 0.689010 0.000100
vt 0.999900 0.274406
vt 0.310990 0.999900
vt 0.274406 0.000100
vt 0.689010 0.000100
vt 0.999900 0.274406
vt 0.310990 0.999900
vn 0.9954 -0.0897 -0.0350
vn 0.7691 -0.1487 -0.6215
vn 0.8094 0.0543 -0.5847
vn 0.9994 0.0264 0.0216
vn 0.8314 0.0901 -0.5484
vn 0.2950 0.0664 -0.9532
vn 0.3398 0.1254 -0.9321
vn -0.3209 -0.1008 -0.9417
vn -0.7962 0.0002 -0.6051
vn -0.8043 0.0541 -0.5918
vn -0.3154 0.0638 -0.9468
vn -0.7737 0.1904 0.6042
vn -0.2488 0.1728 0.9530
vn -0.3020 -0.0153 0.9532
vn -0.7987 0.0095 0.6016
vn 0.8269 0.0087 0.5623
vn 0.7933 -0.0032 0.6088
vn 0.2584 -0.1528 -0.9539
vn -0.9921 0.1246 -0.0114
vn -0.9993 0.0380 0.0043
vn 0.3509 0.1041 0.9306
vn 0.2960 -0.0204 0.9550
vn -0.5138 -0.6969 -0.5003
vn -0.4315 -0.7570 -0.4906
vn -0.4227 -0.9034 0.0721
vn -0.5300 -0.8462 0.0552
vn -0.7956 0.0740 -0.6013
vn -0.9996 0.0081 -0.0257
vn -0.3540 -0.0863 0.9312
vn 0.2587 -0.0789 0.9627
vn 0.9983 0.0307 0.0493
vn -0.2208 0.9674 0.1241
vn 0.2974 0.8643 0.4057
vn 0.3405 0.9402 0.0104
vn 0.7782 -0.0319 0.6272
vn -0.2849 0.1197 -0.9510
vn 0.9759 0.2043 0.0768
vn 0.7989 0.3636 -0.4791
vn 0.7550 0.4170 -0.5060
vn 0.9542 0.2992 -0.0065
vn 0.4983 0.8644 -0.0676
vn 0.4270 0.9027 -0.0528
vn 0.2605 0.7184 -0.6450
vn 0.3307 0.6936 -0.6399
vn 0.0000 0.0000 1.0000
vn -0.8297 -0.0528 0.5556
vn -0.4279 -0.5178 -0.7408
vn -0.3672 -0.5477 -0.7518
vn 0.4802 0.7024 0.5254
vn 0.4171 0.7161 0.5598
vn -0.3646 -0.7133 0.5986
vn -0.2711 -0.7451 0.6094
vn -0.0231 -0.3213 0.9467
vn -0.0547 -0.3023 0.9517
vn -0.8287 -0.1764 0.5312
vn -0.3511 -0.2339 0.9067
vn -0.3393 -0.3206 0.8844
vn -0.8013 -0.2893 0.5236
vn 0.7688 -0.0242 0.6391
vn 0.8160 0.0734 0.5734
vn 0.3447 0.4069 -0.8460
vn -0.2513 0.3175 -0.9144
vn -0.1625 0.3315 -0.9293
vn 0.3587 0.4277 -0.8297
vn -0.7801 0.1100 -0.6160
vn -0.6986 0.1229 -0.7049
vn 0.2467 -0.2253 0.9425
vn 0.2924 -0.1752 0.9401
vn -0.9904 -0.1302 -0.0469
vn -0.9807 -0.1334 -0.1431
vn -0.4453 0.0749 0.8922
vn -0.7647 0.0860 0.6387
vn -0.4708 0.5753 0.6689
vn 0.2607 -0.1937 0.9458
vn 0.7868 -0.0722 0.6130
vn 0.8236 0.2088 -0.5273
vn 0.3539 0.2685 -0.8959
vn -0.7775 0.1174 -0.6179
vn -0.9978 -0.0407 -0.0521
vn 0.9961 0.0794 0.0394
vn -0.2559 0.2353 -0.9376
vn 0.4501 0.6337 -0.6292
vn 0.0707 0.2331 -0.9699
vn 0.0145 0.1711 -0.9851
vn 0.4737 0.5774 -0.6650
vn -0.5113 -0.6207 0.5944
vn -0.1198 -0.2640 0.9571
vn -0.2330 -0.3028 0.9241
vn -0.6000 -0.6014 0.5275
vn -0.6384 -0.5971 -0.4856
vn -0.5196 -0.4587 -0.7209
vn 0.0188 0.2417 -0.9702
vn -0.0174 0.2354 -0.9717
vn -0.1430 -0.0182 -0.9896
vn -0.1442 -0.0173 -0.9894
vn -0.6876 -0.7239 0.0565
vn -0.7393 -0.6722 0.0391
vn -0.6924 -0.5693 -0.4432
vn 0.2396 0.2360 0.9418
vn 0.2736 0.2563 0.9271
vn 0.3148 0.2367 0.9192
vn 0.2810 0.1883 0.9411
vn -0.2677 0.0576 0.9618
vn 0.3031 0.0508 0.9516
vn 0.3150 0.1470 0.9376
vn -0.2515 0.2086 0.9451
vn -0.7973 0.0341 -0.6027
vn -0.9992 0.0251 0.0312
vn -0.9925 0.1040 0.0643
vn -0.8328 0.0015 -0.5535
vn 0.7655 0.0312 -0.6426
vn 0.2582 0.0524 -0.9647
vn 0.2410 -0.1310 -0.9616
vn 0.7765 -0.1404 -0.6142
vn 0.8022 0.0265 0.5965
vn 0.7955 0.0328 0.6051
vn -0.7644 0.0409 0.6435
vn -0.7476 0.1917 0.6358
vn -0.3078 0.0525 -0.9500
vn -0.3567 -0.0791 -0.9309
vn 0.9994 0.0147 -0.0328
vn 0.9967 -0.0809 0.0080
vn -0.0741 0.3022 0.9504
vn 0.4711 0.0144 0.8820
vn 0.3919 -0.0883 0.9157
vn -0.1558 0.1691 0.9732
vn 0.8795 -0.4487 -0.1584
vn 0.5863 -0.4342 -0.6839
vn 0.6525 -0.2891 -0.7005
vn 0.9081 -0.3863 -0.1615
vn -0.4216 -0.0284 -0.9063
vn -0.8199 0.2502 -0.5148
vn -0.7855 0.3153 -0.5325
vn -0.3291 0.1152 -0.9372
vn -0.5895 0.4679 0.6585
vn -0.6417 0.3528 0.6810
vn 0.8453 -0.2815 0.4541
vn 0.8171 -0.3159 0.4823
vn 0.1036 -0.2777 -0.9551
vn 0.2013 -0.1047 -0.9739
vn -0.8872 0.4508 0.0981
vn -0.9046 0.4108 0.1138
vn 0.6485 -0.2206 -0.7285
vn 0.9053 -0.3419 -0.2522
vn -0.7050 0.3353 -0.6249
vn -0.2242 0.1471 -0.9634
vn -0.0479 0.4774 0.8774
vn -0.3708 0.6274 0.6847
vn 0.8499 -0.3354 0.4063
vn 0.2501 -0.0480 -0.9670
vn -0.9127 0.4054 0.0515
vn 0.4019 -0.1570 0.9021
vn 0.8643 -0.2668 0.4264
vn 0.8573 -0.4870 -0.1670
vn 0.0258 -0.3691 -0.9290
vn -0.4834 -0.0971 -0.8700
vn -0.8851 0.4619 0.0574
vn -0.5841 0.5277 0.6167
vn 0.5150 0.0680 0.8545
vn 0.5272 -0.5171 -0.6743
vn -0.8347 0.2173 -0.5059
vn -0.0445 0.3749 0.9260
vn 0.1486 0.8563 0.4946
vn 0.6200 -0.7205 -0.3106
vn 0.8118 -0.4868 -0.3224
vn 0.8058 -0.5257 0.2727
vn 0.7188 -0.6306 0.2928
vn 0.1138 0.1794 0.9772
vn 0.0093 -0.0609 0.9981
vn -0.5037 0.2910 0.8134
vn -0.3262 0.5505 0.7684
vn -0.7411 0.5884 -0.3233
vn -0.7787 0.5191 -0.3523
vn -0.4529 0.3095 -0.8361
vn -0.5426 0.2308 -0.8076
vn 0.2988 -0.5586 -0.7738
vn 0.5243 -0.2837 -0.8029
vn 0.5246 -0.2829 0.8030
vn 0.5085 -0.3706 0.7773
vn -0.6488 0.7068 0.2820
vn -0.8080 0.5163 0.2839
vn -0.1353 -0.2102 -0.9683
vn 0.0466 0.0147 -0.9988
vn -0.1575 -0.1978 0.9675
vn -0.6380 0.0618 0.7675
vn -0.8438 0.4570 -0.2814
vn -0.4388 0.4284 -0.7899
vn 0.6542 -0.0551 -0.7543
vn 0.9145 -0.3009 -0.2706
vn 0.4099 -0.3937 0.8228
vn -0.8991 0.3075 0.3116
vn 0.1526 0.2187 -0.9638
vn 0.8334 -0.4360 0.3397
vn -0.8194 0.5172 -0.2470
vn -0.4539 0.4310 -0.7799
vn 0.5746 -0.1699 -0.8006
vn 0.8520 -0.4084 -0.3276
vn 0.4403 -0.3614 0.8219
vn -0.1046 -0.1047 0.9890
vn -0.8432 0.4076 0.3506
vn 0.0931 0.1526 -0.9839
vn 0.8208 -0.4843 0.3029
vn -0.5752 0.1766 0.7987
vn 0.5175 -0.1107 -0.8485
vn 0.8534 -0.3032 -0.4240
vn 0.5856 -0.3002 0.7529
vn 0.0571 -0.1118 0.9921
vn -0.8234 0.3171 0.4707
vn -0.8765 0.4457 -0.1819
vn 0.0174 0.1446 -0.9893
vn 0.9048 -0.3793 0.1935
vn -0.4551 0.1096 0.8837
vn -0.5283 0.3754 -0.7616
vn 0.5513 -0.2281 0.8025
vn 0.0420 -0.1177 0.9922
vn -0.7984 0.1588 0.5808
vn -0.9604 0.2785 -0.0028
vn 0.1175 0.5545 -0.8239
vn 0.4971 0.4341 -0.7513
vn 0.9310 -0.2538 0.2623
vn -0.4262 0.0184 0.9045
vn -0.6896 0.2981 -0.6600
vn 0.8956 -0.1463 -0.4202
vn -0.0521 0.9074 0.4171
vn 0.4454 0.6177 0.6481
vn 0.3509 0.5799 0.7352
vn -0.1533 0.8412 0.5185
vn 0.7037 -0.6967 0.1393
vn 0.5318 -0.8435 -0.0757
vn 0.6193 -0.7634 -0.1835
vn 0.7579 -0.6501 0.0545
vn -0.3980 -0.6492 -0.6482
vn -0.7599 -0.1408 -0.6346
vn -0.7156 -0.1128 -0.6894
vn -0.2843 -0.5828 -0.7613
vn -0.5292 0.8479 0.0337
vn -0.5986 0.7912 0.1255
vn 0.7818 0.0730 0.6193
vn 0.8357 -0.2077 0.5084
vn 0.8427 -0.1930 0.5026
vn 0.7480 0.0729 0.6596
vn 0.0850 -0.8968 -0.4343
vn 0.2079 -0.8021 -0.5598
vn -0.8119 0.4498 -0.3722
vn -0.8354 0.4358 -0.3348
vn 0.6264 -0.7375 -0.2525
vn 0.7874 -0.6163 0.0124
vn -0.6308 -0.1738 -0.7563
vn -0.1751 -0.5892 -0.7888
vn 0.0020 0.9697 0.2442
vn -0.2898 0.9564 -0.0361
vn 0.8460 -0.1853 0.5000
vn 0.7795 0.0012 0.6264
vn 0.2645 -0.7629 -0.5899
vn -0.8427 0.3872 -0.3742
vn 0.3508 0.5227 0.7770
vn 0.8035 0.0610 0.5922
vn 0.8349 -0.2083 0.5095
vn -0.0063 -0.9328 -0.3604
vn -0.4703 -0.6637 -0.5817
vn -0.8070 0.4273 -0.4076
vn -0.5138 0.8571 -0.0373
vn 0.4976 0.6300 0.5962
vn 0.4606 -0.8874 -0.0167
vn -0.7797 -0.1552 -0.6067
vn -0.0112 0.9361 0.3517
vn 0.6684 -0.7181 0.1939
vn 0.2627 0.9278 -0.2648
vn 0.3788 0.8475 -0.3719
vn -0.4021 0.9136 -0.0597
vn -0.5050 0.8618 0.0483
vn -0.7244 0.5452 -0.4219
vn -0.6364 0.5699 -0.5198
vn -0.3343 -0.5802 -0.7427
vn -0.2900 -0.5483 -0.7844
vn 0.1728 -0.8352 -0.5220
vn 0.0634 -0.9025 -0.4260
vn 0.6361 -0.6069 0.4765
vn 0.7506 -0.5565 0.3563
vn 0.6851 -0.0369 0.7275
vn 0.6298 -0.0585 0.7745
vn -0.0213 0.9058 0.4231
vn -0.1143 0.8594 0.4984
vn -0.6155 -0.0117 -0.7881
vn -0.6560 -0.0071 -0.7548
vn 0.4196 -0.9073 0.0258
vn 0.5470 -0.8302 -0.1070
vn 0.3770 0.5383 0.7537
vn 0.3394 0.5278 0.7786
vn -0.1965 -0.5867 -0.7856
vn 0.2422 -0.8115 -0.5317
vn 0.7783 -0.5765 0.2488
vn 0.7513 -0.1087 0.6510
vn 0.0511 0.9836 0.1728
vn -0.2280 0.9662 -0.1199
vn -0.6238 -0.0826 -0.7772
vn 0.5780 -0.7986 -0.1677
vn 0.3779 0.4798 0.7919
vn -0.7671 0.4891 -0.4151
vn -0.3540 -0.6066 -0.7119
vn -0.5885 -0.0267 -0.8080
vn 0.5691 -0.6115 0.5497
vn 0.3448 -0.9309 0.1203
vn 0.0498 0.9120 0.4071
vn 0.4121 0.5147 0.7518
vn -0.5841 0.5750 -0.5729
vn 0.0034 -0.9366 -0.3504
vn 0.6015 -0.0700 0.7958
vn -0.3361 0.9361 -0.1033
vn 0.2810 0.8851 -0.3711
vn 0.6284 0.7751 -0.0655
vn 0.5850 0.6299 0.5109
vn -0.1506 -0.0014 -0.9886
vn -0.1535 0.0070 -0.9881
vn -0.5650 -0.4184 -0.7112
vn -0.0125 0.9346 -0.3556
vn -0.3868 0.8584 -0.3368
vn -0.6000 0.7996 -0.0248
vn -0.1554 0.9801 0.1238
vn 0.1197 0.8268 0.5497
vn -0.2590 0.7783 0.5719
vn -0.2843 0.6278 0.7246
vn 0.2054 0.7231 0.6595
vn -0.4410 0.7635 -0.4718
vn -0.7488 0.6569 -0.0884
vn 0.3284 0.9132 0.2411
vn 0.5160 0.8116 0.2739
vn 0.3028 0.9428 -0.1393
vn -0.5699 0.7424 0.3522
vn 0.0515 0.8407 -0.5391
vn -0.6747 0.6154 0.4075
vn 0.4391 0.8712 -0.2197
vn 0.2986 0.7585 -0.5793
vn -0.0814 0.7873 -0.6111
vn -0.3343 0.8792 -0.3394
vn 0.1251 0.9787 -0.1625
vn -0.3626 0.9312 0.0384
vn -0.5107 0.7659 -0.3907
vn -0.5051 0.8567 0.1041
vn 0.5530 0.8313 0.0553
vn 0.2965 0.8956 0.3316
vn 0.3360 0.8114 0.4783
vn 0.6982 0.7006 0.1471
vn 0.5777 0.7518 -0.3179
vn -0.0799 0.9521 0.2952
vn -0.0500 0.9850 0.1650
vn 0.3218 0.8259 0.4629
vn 0.4659 0.8776 0.1125
vn 0.2759 0.9370 -0.2141
vn -0.3634 0.7845 0.5025
vn -0.0090 0.7643 0.6448
vn -0.5520 0.8161 0.1713
vn -0.4092 0.8956 -0.1745
vn -0.0771 0.9294 -0.3610
vn -0.0814 0.8523 -0.5166
vn -0.5354 0.7854 -0.3105
vn 0.4605 0.6905 0.5578
vn 0.6116 0.7863 0.0876
vn -0.6875 0.7078 0.1627
vn -0.4730 0.6340 0.6118
vn 0.0055 0.6417 0.7669
vn 0.3980 0.8419 -0.3645
vn -0.0609 0.9424 -0.3288
vn 0.3066 0.9517 0.0134
vn 0.4568 0.8312 -0.3170
vn 0.2724 0.7235 -0.6342
vn -0.3788 0.9236 0.0595
vn -0.0270 0.9798 0.1984
vn -0.5615 0.7893 -0.2485
vn -0.4130 0.6953 -0.5882
vn -0.0777 0.6407 -0.7638
vn -0.0785 0.4984 -0.8634
vn -0.5358 0.5314 -0.6562
vn 0.4446 0.8807 0.1635
vn 0.6036 0.7414 -0.2931
vn -0.6959 0.6880 -0.2057
vn -0.4892 0.8423 0.2262
vn -0.0138 0.9311 0.3646
vn 0.3981 0.5698 -0.7190
vn 0.0343 0.8815 -0.4709
vn 0.5538 0.6970 -0.4555
vn 0.3696 0.5441 -0.7533
vn -0.0226 0.5511 -0.8341
vn 0.0915 0.9928 0.0772
vn 0.4833 0.8713 -0.0849
vn -0.3192 0.9477 -0.0084
vn -0.4749 0.8094 -0.3454
vn -0.3826 0.6331 -0.6729
vn -0.4736 0.5128 -0.7161
vn -0.6570 0.6967 -0.2881
vn 0.7311 0.5342 -0.4244
vn 0.4213 0.3915 -0.8181
vn -0.4346 0.8892 0.1429
vn 0.1028 0.9401 0.3249
vn 0.6079 0.7919 0.0577
vn -0.0561 0.3820 -0.9224
vn -0.1287 0.9916 -0.0129
vn -0.5593 0.8061 -0.1933
vn -0.5772 0.7945 0.1885
vn -0.2938 0.8488 0.4395
vn 0.0688 0.8842 -0.4620
vn -0.3079 0.8208 -0.4811
vn 0.3558 0.9105 -0.2107
vn 0.3342 0.9269 0.1708
vn 0.0865 0.8842 0.4590
vn 0.1540 0.7925 0.5901
vn 0.5122 0.8251 0.2384
vn -0.7051 0.6606 -0.2577
vn -0.6930 0.6780 0.2450
vn 0.4977 0.8260 -0.2645
vn 0.1505 0.7670 -0.6238
vn -0.3493 0.7115 -0.6097
vn -0.3434 0.7188 0.6045
vn 0.6949 0.6278 -0.3506
vn 0.3516 0.6013 -0.7174
vn -0.1462 0.6732 -0.7249
vn -0.1641 0.8651 0.4739
vn 0.0541 0.9853 0.1618
vn 0.1815 0.7782 0.6013
vn 0.4928 0.7832 0.3791
vn 0.5138 0.8579 0.0046
vn -0.4193 0.8642 0.2782
vn -0.2003 0.7879 0.5823
vn -0.3997 0.9111 -0.1009
vn -0.0870 0.9439 -0.3185
vn 0.2933 0.9064 -0.3041
vn 0.3560 0.8229 -0.4429
vn -0.1424 0.8511 -0.5053
vn 0.2234 0.6253 0.7477
vn 0.6106 0.6657 0.4290
vn -0.5285 0.8288 -0.1836
vn -0.5951 0.7425 0.3075
vn -0.2740 0.6717 0.6883
vn 0.6761 0.7339 -0.0651
vn 0.2144 0.9737 0.0774
vn 0.6581 0.7049 0.2646
vn 0.6722 0.7311 -0.1163
vn 0.3838 0.8464 -0.3691
vn -0.0369 0.8284 0.5589
vn 0.3889 0.7151 0.5809
vn -0.3346 0.9030 0.2694
vn -0.2767 0.9535 -0.1192
vn -0.0117 0.9191 -0.3940
vn -0.0567 0.8482 -0.5266
vn -0.4525 0.8641 -0.2204
vn 0.8032 0.5138 0.3015
vn 0.7616 0.6138 -0.2080
vn -0.5081 0.8090 0.2955
vn -0.1552 0.6744 0.7219
vn 0.4240 0.5605 0.7114
vn 0.4149 0.7407 -0.5284
vn -0.5724 0.8132 0.1049
vn -0.8115 0.4563 0.3652
vn -0.5383 0.6023 0.5895
vn -0.2511 0.8346 0.4904
vn -0.7493 0.5867 -0.3070
vn -0.9084 0.4182 -0.0028
vn -0.4460 0.7960 -0.4091
vn -0.1890 0.9650 -0.1818
vn -0.0759 0.9801 0.1832
vn 0.0971 0.9753 0.1982
vn -0.0048 0.9558 -0.2940
vn -0.8529 0.2627 0.4512
vn -0.4930 0.4931 0.7168
vn -0.3752 0.7404 -0.5577
vn -0.7682 0.4404 -0.4646
vn -0.9653 0.2581 -0.0391
vn -0.0895 0.7781 0.6218
vn -0.0390 0.8986 -0.4371
vn -0.3261 0.9449 -0.0276
vn 0.0380 0.9963 0.0777
vn 0.3542 0.9267 -0.1258
vn -0.4223 0.6438 -0.6382
vn -0.5388 0.7861 -0.3029
vn -0.1050 0.5488 -0.8293
vn 0.2580 0.6255 -0.7364
vn 0.4718 0.7590 -0.4488
vn 0.6153 0.6641 -0.4246
vn 0.3687 0.4556 -0.8103
vn -0.4270 0.8908 0.1553
vn 0.0617 0.9670 0.2473
vn -0.1208 0.3959 -0.9103
vn -0.5581 0.4805 -0.6765
vn -0.6744 0.6988 -0.2384
vn 0.4998 0.8659 0.0215
vn 0.1888 0.9654 0.1800
vn -0.2109 0.8597 0.4653
vn 0.1017 0.7485 0.6553
vn 0.4593 0.7178 0.5232
vn -0.1294 0.9694 -0.2086
vn -0.3356 0.9354 0.1117
vn 0.2228 0.9115 -0.3457
vn 0.5408 0.8275 -0.1506
vn 0.6602 0.7246 0.1978
vn 0.7785 0.5977 0.1915
vn 0.6535 0.7014 -0.2846
vn -0.3707 0.7451 0.5544
vn 0.0659 0.6281 0.7753
vn 0.2204 0.8362 -0.5022
vn -0.2596 0.8946 -0.3636
vn -0.4922 0.8666 0.0816
vn 0.5425 0.5519 0.6334
vn 0.0286 0.9811 0.1916
vn -0.4281 0.8363 0.3426
vn -0.1814 0.7597 0.6245
vn 0.2008 0.7655 0.6113
vn -0.1509 0.9491 -0.2764
vn -0.4426 0.8960 -0.0349
vn 0.2305 0.9273 -0.2951
vn 0.4780 0.8783 -0.0077
vn 0.4917 0.7909 0.3644
vn 0.6178 0.6769 0.4001
vn 0.6386 0.7636 -0.0950
vn -0.5958 0.7064 0.3821
vn -0.2411 0.6371 0.7321
vn 0.2845 0.8510 -0.4415
vn -0.2182 0.8601 -0.4612
vn -0.5745 0.8111 -0.1095
vn 0.2609 0.6099 0.7483
vn -0.1054 0.9913 -0.0792
vn -0.3737 0.8680 0.3271
vn -0.0078 0.9011 0.4335
vn 0.3009 0.9303 0.2097
vn -0.4851 0.8021 -0.3481
vn -0.5917 0.8059 0.0191
vn -0.1734 0.8033 -0.5697
vn 0.1894 0.8645 -0.4656
vn 0.4104 0.8986 -0.1554
vn 0.5595 0.8109 -0.1714
vn 0.3046 0.7403 -0.5993
vn -0.4626 0.7450 0.4806
vn 0.0257 0.8142 0.5801
vn -0.1856 0.6894 -0.7002
vn -0.6144 0.6553 -0.4393
vn -0.7194 0.6927 0.0513
vn 0.4565 0.8300 0.3206
vn 0.1145 0.6371 0.7622
vn 0.4788 0.5536 0.6813
vn 0.6758 0.6402 0.3652
vn 0.2468 0.9013 0.3560
vn -0.0544 0.9961 -0.0692
vn 0.3169 0.9381 -0.1400
vn 0.3228 0.8802 -0.3479
vn -0.1531 0.9659 -0.2089
vn 0.5275 0.4012 0.7489
vn 0.8118 0.4745 0.3404
vn -0.2444 0.9350 0.2570
vn -0.4420 0.8760 0.1931
vn -0.2047 0.7726 0.6010
vn 0.6292 0.7772 0.0112
vn 0.0471 0.4702 0.8813
vn 0.7193 0.6865 -0.1064
vn -0.3449 0.6806 0.6464
vn 0.0354 0.8741 -0.4844
vn -0.2989 0.7356 -0.6079
vn -0.6176 0.6738 -0.4057
vn -0.3045 0.9448 -0.1214
vn -0.7468 0.6634 -0.0459
vn -0.7070 0.5010 -0.4991
vn -0.8500 0.5266 -0.0175
vn 0.0854 0.9774 0.1936
vn -0.2246 0.8889 0.3992
vn -0.1835 0.8143 0.5506
vn 0.2508 0.9146 0.3173
vn 0.2233 0.9611 -0.1628
vn -0.5676 0.7770 0.2722
vn 0.0132 0.8570 0.5151
vn 0.2514 0.5284 0.8110
vn 0.5036 0.6612 0.5560
vn 0.4343 0.8677 0.2417
vn -0.4113 0.6301 0.6586
vn -0.1246 0.4847 0.8657
vn -0.4809 0.8124 0.3297
vn -0.2284 0.9695 0.0893
vn 0.1472 0.9889 0.0200
vn 0.1834 0.9717 -0.1490
vn -0.3169 0.9425 -0.1057
vn 0.3367 0.3416 0.8775
vn 0.6382 0.5535 0.5351
vn -0.6183 0.7464 0.2463
vn -0.5662 0.4802 0.6699
vn -0.1635 0.3282 0.9303
vn 0.5859 0.8039 0.1019
vn -0.4127 0.8496 -0.3283
vn -0.1733 0.9804 0.0934
vn 0.0824 0.9781 -0.1909
vn 0.0406 0.8379 -0.5443
vn -0.7619 0.6470 -0.0295
vn -0.5137 0.8363 0.1915
vn -0.7921 0.4828 -0.3735
vn -0.5480 0.5045 -0.6672
vn -0.1960 0.6246 -0.7559
vn -0.1103 0.5093 -0.8535
vn -0.5645 0.3123 -0.7641
vn -0.0539 0.9607 0.2722
vn 0.2450 0.9604 -0.1325
vn -0.8710 0.3283 -0.3655
vn -0.8559 0.5065 0.1048
vn -0.5158 0.7795 0.3556
vn 0.2375 0.7666 -0.5966
vn -0.2723 0.8541 -0.4432
vn 0.2572 0.9178 -0.3024
vn 0.2320 0.7351 -0.6370
vn -0.0923 0.5775 -0.8112
vn -0.3914 0.9144 0.1030
vn 0.0371 0.9985 0.0408
vn -0.7068 0.7028 -0.0806
vn -0.7057 0.5503 -0.4462
vn -0.4752 0.4724 -0.7423
vn -0.4894 0.3302 -0.8071
vn -0.8237 0.3629 -0.4358
vn 0.4779 0.8478 -0.2299
vn 0.3603 0.6299 -0.6881
vn -0.8122 0.5821 0.0376
vn -0.4108 0.8437 0.3456
vn 0.1503 0.9663 0.2090
vn -0.0251 0.4226 -0.9060
vn -0.5616 0.8265 -0.0382
vn -0.8097 0.4923 -0.3194
vn -0.9019 0.4295 0.0464
vn -0.7359 0.5738 0.3593
vn -0.2456 0.8707 -0.4261
vn -0.5376 0.6501 -0.5370
vn -0.0638 0.9916 -0.1121
vn -0.1719 0.9522 0.2526
vn -0.4281 0.7711 0.4713
vn -0.3560 0.7041 0.6144
vn 0.0137 0.9325 0.3610
vn -0.8553 0.3060 -0.4183
vn -0.9607 0.2681 0.0722
vn 0.1088 0.9855 -0.1301
vn -0.0867 0.8214 -0.5637
vn -0.4959 0.5496 -0.6724
vn -0.7548 0.4170 0.5064
vn 0.3881 0.9064 -0.1666
vn 0.1826 0.7740 -0.6063
vn -0.2783 0.6186 -0.7347
vn -0.6389 0.6416 0.4245
vn 0.3285 0.9136 -0.2395
vn -0.0466 0.9783 -0.2021
vn -0.2584 0.9591 0.1157
vn 0.2249 0.9415 0.2512
vn -0.2426 0.8432 0.4798
vn -0.4514 0.8911 0.0468
vn -0.3858 0.7571 0.5272
vn 0.6515 0.6863 0.3232
vn 0.4333 0.6406 0.6340
vn 0.4768 0.4985 0.7240
vn 0.7884 0.5195 0.3295
vn 0.6293 0.7757 -0.0479
vn 0.0646 0.7318 0.6785
vn 0.0203 0.9934 0.1133
vn 0.4184 0.8288 0.3716
vn 0.5195 0.8545 0.0036
vn 0.2930 0.9079 -0.2998
vn -0.2575 0.8282 0.4978
vn 0.1106 0.7953 0.5961
vn -0.4846 0.8536 0.1911
vn -0.3829 0.9073 -0.1736
vn -0.0757 0.9128 -0.4013
vn -0.1035 0.8284 -0.5505
vn -0.5306 0.7977 -0.2865
vn 0.5611 0.6907 0.4562
vn 0.6561 0.7539 -0.0337
vn -0.6253 0.7528 0.2056
vn -0.3597 0.6899 0.6282
vn 0.1343 0.6783 0.7224
vn 0.3902 0.7985 -0.4585
vn 0.7270 0.6709 -0.1463
vn 0.3483 0.8292 -0.4372
vn -0.1357 0.9295 -0.3430
vn -0.0113 0.5814 0.8135
vn -0.5121 0.8519 0.1093
vn -0.0378 0.9748 0.2199
vn -0.0759 0.9841 -0.1605
vn -0.3666 0.8530 -0.3715
vn -0.5284 0.6360 0.5624
vn -0.1960 0.8229 0.5333
vn -0.8047 0.4808 0.3483
vn -0.8572 0.5142 -0.0290
vn -0.6845 0.6420 -0.3454
vn -0.7001 0.5307 -0.4778
vn -0.9418 0.3245 -0.0877
vn 0.1745 0.9520 0.2514
vn 0.0767 0.9673 -0.2418
vn -0.8534 0.3249 0.4075
vn -0.4939 0.4904 0.7180
vn -0.0767 0.7616 0.6435
vn -0.2735 0.7861 -0.5543
vn 0.2069 0.8358 0.5086
vn 0.3087 0.9385 0.1546
vn 0.0838 0.9849 -0.1512
vn -0.2117 0.9440 0.2529
vn -0.2735 0.9224 -0.2726
vn 0.2075 0.9252 -0.3176
vn -0.2773 0.8574 -0.4336
vn -0.4537 0.6650 0.5933
vn -0.6727 0.6848 0.2804
vn -0.7868 0.5540 0.2721
vn -0.5247 0.4893 0.6966
vn -0.0905 0.7008 0.7076
vn -0.5768 0.8141 -0.0665
vn -0.0068 0.9934 0.1145
vn -0.4029 0.8333 0.3786
vn -0.0922 0.7958 0.5985
vn 0.2748 0.8245 0.4946
vn -0.2867 0.9117 -0.2945
vn -0.5092 0.8606 0.0123
vn 0.0805 0.9123 -0.4015
vn 0.3910 0.9029 -0.1785
vn 0.4975 0.8476 0.1846
vn 0.6373 0.7451 0.1968
vn 0.5357 0.7917 -0.2937
vn -0.5459 0.6968 0.4653
vn -0.1153 0.6791 0.7250
vn 0.1050 0.8277 -0.5513
vn -0.3875 0.8036 -0.4517
vn -0.6476 0.7617 -0.0231
vn 0.3774 0.6849 0.6233
vn -0.0438 0.5746 0.8173
vn 0.3753 0.7220 0.5813
vn 0.4657 0.8779 0.1115
vn -0.6925 0.6925 -0.2023
usemtl Birch_Bark
s 1
f 84 81 17
f 84 17 18
f 27 17 16
f 27 16 26
f 85 82 14
f 85 14 15
f 86 83 12
f 86 12 11
f 87 84 18
f 87 18 19
f 88 85 15
f 88 15 16
f 89 86 11
f 89 11 13
f 90 87 19
f 90 19 20
f 81 88 16
f 81 16 17
f 82 89 13
f 82 13 14
f 83 90 20
f 83 20 12
f 308 64 66
f 308 66 307
f 24 14 13
f 24 13 23
f 22 12 20
f 22 20 30
f 28 18 17
f 28 17 27
f 287 62 60
f 287 60 58
f 287 58 56
f 287 56 53
f 287 53 52
f 287 52 285
f 287 285 286
f 287 286 288
f 29 19 18
f 29 18 28
f 26 16 15
f 26 15 25
f 25 15 14
f 25 14 24
f 30 20 19
f 30 19 29
f 48 47 37
f 48 37 38
f 303 54 51
f 303 51 304
f 296 65 67
f 296 67 286
f 23 13 11
f 23 11 21
f 306 63 65
f 306 65 296
f 306 68 69
f 306 69 63
f 306 68 64
f 306 64 308
f 11 12 22
f 11 22 21
f 302 55 54
f 302 54 303
f 299 61 59
f 299 59 300
f 92 93 42
f 92 42 41
f 49 48 38
f 49 38 39
f 46 45 35
f 46 35 36
f 45 44 34
f 45 34 35
f 50 49 39
f 50 39 40
f 47 46 36
f 47 36 37
f 44 43 33
f 44 33 34
f 42 50 40
f 42 40 32
f 31 32 40
f 31 40 39
f 31 39 38
f 31 38 37
f 31 37 36
f 31 36 35
f 31 35 34
f 31 34 33
f 94 100 49
f 94 49 50
f 98 97 46
f 98 46 47
f 95 91 43
f 95 43 44
f 93 94 50
f 93 50 42
f 99 98 47
f 99 47 48
f 96 95 44
f 96 44 45
f 91 92 41
f 91 41 43
f 100 99 48
f 100 48 49
f 97 96 45
f 97 45 46
f 43 41 31
f 43 31 33
f 294 295 285
f 294 285 52
f 289 290 60
f 289 60 62
f 306 308 298
f 306 298 296
f 305 70 68
f 305 68 306
f 298 297 287
f 298 287 288
f 300 59 57
f 300 57 301
f 307 66 61
f 307 61 299
f 290 291 58
f 290 58 60
f 304 51 70
f 304 70 305
f 301 57 55
f 301 55 302
f 304 305 295
f 304 295 294
f 2 10 80
f 2 80 75
f 4 3 79
f 4 79 73
f 7 6 78
f 7 78 71
f 10 9 77
f 10 77 80
f 3 1 76
f 3 76 79
f 6 5 74
f 6 74 78
f 9 8 72
f 9 72 77
f 1 2 75
f 1 75 76
f 5 4 73
f 5 73 74
f 8 7 71
f 8 71 72
f 75 80 90
f 75 90 83
f 73 79 89
f 73 89 82
f 71 78 88
f 71 88 81
f 80 77 87
f 80 87 90
f 79 76 86
f 79 86 89
f 78 74 85
f 78 85 88
f 77 72 84
f 77 84 87
f 76 75 83
f 76 83 86
f 74 73 82
f 74 82 85
f 72 71 81
f 72 81 84
f 42 32 31
f 42 31 41
f 26 25 96
f 26 96 97
f 29 28 99
f 29 99 100
f 23 21 92
f 23 92 91
f 25 24 95
f 25 95 96
f 28 27 98
f 28 98 99
f 22 30 94
f 22 94 93
f 24 23 91
f 24 91 95
f 27 26 97
f 27 97 98
f 30 29 100
f 30 100 94
f 21 22 93
f 21 93 92
f 106 105 115
f 106 115 116
f 103 101 111
f 103 111 113
f 110 109 119
f 110 119 120
f 107 106 116
f 107 116 117
f 104 103 113
f 104 113 114
f 102 110 120
f 102 120 112
f 108 107 117
f 108 117 118
f 105 104 114
f 105 114 115
f 101 102 112
f 101 112 111
f 109 108 118
f 109 118 119
f 113 111 121
f 113 121 123
f 120 119 129
f 120 129 130
f 117 116 126
f 117 126 127
f 114 113 123
f 114 123 124
f 112 120 130
f 112 130 122
f 118 117 127
f 118 127 128
f 115 114 124
f 115 124 125
f 111 112 122
f 111 122 121
f 119 118 128
f 119 128 129
f 116 115 125
f 116 125 126
f 104 134 133
f 104 133 103
f 102 132 140
f 102 140 110
f 108 138 137
f 108 137 107
f 105 135 134
f 105 134 104
f 101 131 132
f 101 132 102
f 109 139 138
f 109 138 108
f 106 136 135
f 106 135 105
f 103 133 131
f 103 131 101
f 110 140 139
f 110 139 109
f 107 137 136
f 107 136 106
f 122 130 129
f 122 129 128
f 122 128 127
f 122 127 126
f 122 126 125
f 122 125 124
f 122 124 123
f 122 123 121
f 145 155 154
f 145 154 144
f 141 151 152
f 141 152 142
f 149 159 158
f 149 158 148
f 146 156 155
f 146 155 145
f 143 153 151
f 143 151 141
f 150 160 159
f 150 159 149
f 147 157 156
f 147 156 146
f 144 154 153
f 144 153 143
f 142 152 160
f 142 160 150
f 148 158 157
f 148 157 147
f 151 161 162
f 151 162 152
f 159 169 168
f 159 168 158
f 156 166 165
f 156 165 155
f 153 163 161
f 153 161 151
f 160 170 169
f 160 169 159
f 157 167 166
f 157 166 156
f 154 164 163
f 154 163 153
f 152 162 170
f 152 170 160
f 158 168 167
f 158 167 157
f 155 165 164
f 155 164 154
f 169 179 178
f 169 178 168
f 166 176 175
f 166 175 165
f 163 173 171
f 163 171 161
f 170 180 179
f 170 179 169
f 167 177 176
f 167 176 166
f 164 174 173
f 164 173 163
f 162 172 180
f 162 180 170
f 168 178 177
f 168 177 167
f 165 175 174
f 165 174 164
f 161 171 172
f 161 172 162
f 176 186 185
f 176 185 175
f 173 183 181
f 173 181 171
f 180 190 189
f 180 189 179
f 177 187 186
f 177 186 176
f 174 184 183
f 174 183 173
f 172 182 190
f 172 190 180
f 178 188 187
f 178 187 177
f 175 185 184
f 175 184 174
f 171 181 182
f 171 182 172
f 179 189 188
f 179 188 178
f 183 193 191
f 183 191 181
f 190 200 199
f 190 199 189
f 187 197 196
f 187 196 186
f 184 194 193
f 184 193 183
f 182 192 200
f 182 200 190
f 188 198 197
f 188 197 187
f 185 195 194
f 185 194 184
f 181 191 192
f 181 192 182
f 189 199 198
f 189 198 188
f 186 196 195
f 186 195 185
f 206 205 215
f 206 215 216
f 203 201 211
f 203 211 213
f 210 209 219
f 210 219 220
f 207 206 216
f 207 216 217
f 204 203 213
f 204 213 214
f 202 210 220
f 202 220 212
f 208 207 217
f 208 217 218
f 205 204 214
f 205 214 215
f 201 202 212
f 201 212 211
f 209 208 218
f 209 218 219
f 213 211 221
f 213 221 223
f 220 219 229
f 220 229 230
f 217 216 226
f 217 226 227
f 214 213 223
f 214 223 224
f 212 220 230
f 212 230 222
f 218 217 227
f 218 227 228
f 215 214 224
f 215 224 225
f 211 212 222
f 211 222 221
f 219 218 228
f 219 228 229
f 216 215 225
f 216 225 226
f 204 234 233
f 204 233 203
f 202 232 240
f 202 240 210
f 208 238 237
f 208 237 207
f 205 235 234
f 205 234 204
f 201 231 232
f 201 232 202
f 209 239 238
f 209 238 208
f 206 236 235
f 206 235 205
f 203 233 231
f 203 231 201
f 210 240 239
f 210 239 209
f 207 237 236
f 207 236 206
f 222 230 229
f 222 229 228
f 222 228 227
f 222 227 226
f 222 226 225
f 222 225 224
f 222 224 223
f 222 223 221
f 192 191 193
f 192 193 194
f 192 194 195
f 192 195 196
f 192 196 197
f 192 197 198
f 192 198 199
f 192 199 200
f 203 233 244
f 203 244 241
f 213 242 243
f 213 243 223
f 203 241 242
f 203 242 213
f 250 260 259
f 250 259 249
f 247 257 255
f 247 255 245
f 254 264 263
f 254 263 253
f 251 261 260
f 251 260 250
f 248 258 257
f 248 257 247
f 246 256 264
f 246 264 254
f 252 262 261
f 252 261 251
f 249 259 258
f 249 258 248
f 245 255 256
f 245 256 246
f 253 263 262
f 253 262 252
f 257 267 265
f 257 265 255
f 264 274 273
f 264 273 263
f 261 271 270
f 261 270 260
f 258 268 267
f 258 267 257
f 256 266 274
f 256 274 264
f 262 272 271
f 262 271 261
f 259 269 268
f 259 268 258
f 255 265 266
f 255 266 256
f 263 273 272
f 263 272 262
f 260 270 269
f 260 269 259
f 248 247 277
f 248 277 278
f 246 254 284
f 246 284 276
f 252 251 281
f 252 281 282
f 249 248 278
f 249 278 279
f 245 246 276
f 245 276 275
f 253 252 282
f 253 282 283
f 250 249 279
f 250 279 280
f 247 245 275
f 247 275 277
f 254 253 283
f 254 283 284
f 251 250 280
f 251 280 281
f 266 265 267
f 266 267 268
f 266 268 269
f 266 269 270
f 266 270 271
f 266 271 272
f 266 272 273
f 266 273 274
f 293 294 52
f 293 52 53
f 300 301 291
f 300 291 290
f 302 303 293
f 302 293 292
f 295 296 286
f 295 286 285
f 308 307 297
f 308 297 298
f 296 298 288
f 296 288 286
f 305 306 296
f 305 296 295
f 297 289 62
f 297 62 287
f 299 300 290
f 299 290 289
f 292 293 53
f 292 53 56
f 303 304 294
f 303 294 293
f 291 292 56
f 291 56 58
f 307 299 289
f 307 289 297
f 301 302 292
f 301 292 291
usemtl Birch_Leaves
f 319 324 320
f 319 320 317
f 323 318 309
f 323 309 314
f 320 324 315
f 320 315 311
f 321 323 314
f 321 314 312
f 325 319 317
f 325 317 321
f 317 320 322
f 317 322 318
f 324 319 310
f 324 310 315
f 318 322 313
f 318 313 309
f 322 320 311
f 322 311 313
f 325 321 312
f 325 312 316
f 319 325 316
f 319 316 310
f 321 317 318
f 321 318 323
f 334 339 335
f 334 335 332
f 337 335 326
f 337 326 328
f 336 338 329
f 336 329 327
f 340 334 332
f 340 332 336
f 336 332 333
f 336 333 338
f 332 335 337
f 332 337 333
f 349 346 344
f 349 344 348
f 347 342 346
f 347 346 349
f 341 347 349
f 341 349 345
f 345 349 348
f 345 348 343
f 345 343 352
f 345 352 354
f 344 346 355
f 344 355 353
f 341 345 354
f 341 354 350
f 347 341 350
f 347 350 356
f 346 342 351
f 346 351 355
f 343 348 357
f 343 357 352
f 342 347 356
f 342 356 351
f 348 344 353
f 348 353 357
f 366 363 361
f 366 361 365
f 364 359 363
f 364 363 366
f 358 364 366
f 358 366 362
f 362 366 365
f 362 365 360
f 362 360 369
f 362 369 371
f 361 363 372
f 361 372 370
f 358 362 371
f 358 371 367
f 364 358 367
f 364 367 373
f 363 359 368
f 363 368 372
f 360 365 374
f 360 374 369
f 359 364 373
f 359 373 368
f 365 361 370
f 365 370 374
f 383 380 378
f 383 378 382
f 381 376 380
f 381 380 383
f 375 381 383
f 375 383 379
f 379 383 382
f 379 382 377
f 379 377 386
f 379 386 388
f 378 380 389
f 378 389 387
f 375 379 388
f 375 388 384
f 381 375 384
f 381 384 390
f 380 376 385
f 380 385 389
f 377 382 391
f 377 391 386
f 376 381 390
f 376 390 385
f 382 378 387
f 382 387 391
f 400 397 395
f 400 395 399
f 398 393 397
f 398 397 400
f 392 398 400
f 392 400 396
f 396 400 399
f 396 399 394
f 396 394 403
f 396 403 405
f 395 397 406
f 395 406 404
f 392 396 405
f 392 405 401
f 398 392 401
f 398 401 407
f 397 393 402
f 397 402 406
f 394 399 408
f 394 408 403
f 393 398 407
f 393 407 402
f 399 395 404
f 399 404 408
f 340 336 327
f 340 327 331
f 334 340 331
f 334 331 409
f 335 339 330
f 335 330 326
f 338 333 410
f 338 410 329
f 339 334 409
f 339 409 330
f 333 337 328
f 333 328 410
f 419 416 414
f 419 414 418
f 417 412 416
f 417 416 419
f 411 417 419
f 411 419 415
f 415 419 418
f 415 418 413
f 415 413 422
f 415 422 424
f 414 416 425
f 414 425 423
f 411 415 424
f 411 424 420
f 417 411 420
f 417 420 426
f 416 412 421
f 416 421 425
f 413 418 427
f 413 427 422
f 412 417 426
f 412 426 421
f 418 414 423
f 418 423 427
f 436 433 431
f 436 431 435
f 434 429 433
f 434 433 436
f 428 434 436
f 428 436 432
f 432 436 435
f 432 435 430
f 432 430 439
f 432 439 441
f 431 433 442
f 431 442 440
f 428 432 441
f 428 441 437
f 434 428 437
f 434 437 443
f 433 429 438
f 433 438 442
f 430 435 444
f 430 444 439
f 429 434 443
f 429 443 438
f 435 431 440
f 435 440 444
f 453 450 448
f 453 448 452
f 451 446 450
f 451 450 453
f 445 451 453
f 445 453 449
f 449 453 452
f 449 452 447
f 449 447 456
f 449 456 458
f 448 450 459
f 448 459 457
f 445 449 458
f 445 458 454
f 451 445 454
f 451 454 460
f 450 446 455
f 450 455 459
f 447 452 461
f 447 461 456
f 446 451 460
f 446 460 455
f 452 448 457
f 452 457 461
f 470 467 465
f 470 465 469
f 468 463 467
f 468 467 470
f 462 468 470
f 462 470 466
f 466 470 469
f 466 469 464
f 466 464 473
f 466 473 475
f 465 467 476
f 465 476 474
f 462 466 475
f 462 475 471
f 468 462 471
f 468 471 477
f 467 463 472
f 467 472 476
f 464 469 478
f 464 478 473
f 463 468 477
f 463 477 472
f 469 465 474
f 469 474 478
f 487 484 482
f 487 482 486
f 485 480 484
f 485 484 487
f 479 485 487
f 479 487 483
f 483 487 486
f 483 486 481
f 483 481 490
f 483 490 492
f 482 484 493
f 482 493 491
f 479 483 492
f 479 492 488
f 485 479 488
f 485 488 494
f 484 480 489
f 484 489 493
f 481 486 495
f 481 495 490
f 480 485 494
f 480 494 489
f 486 482 491
f 486 491 495
f 504 501 499
f 504 499 503
f 502 497 501
f 502 501 504
f 496 502 504
f 496 504 500
f 500 504 503
f 500 503 498
f 500 498 507
f 500 507 509
f 499 501 510
f 499 510 508
f 496 500 509
f 496 509 505
f 502 496 505
f 502 505 511
f 501 497 506
f 501 506 510
f 498 503 512
f 498 512 507
f 497 502 511
f 497 511 506
f 503 499 508
f 503 508 512
f 521 518 516
f 521 516 520
f 519 514 518
f 519 518 521
f 513 519 521
f 513 521 517
f 517 521 520
f 517 520 515
f 517 515 524
f 517 524 526
f 516 518 527
f 516 527 525
f 513 517 526
f 513 526 522
f 519 513 522
f 519 522 528
f 518 514 523
f 518 523 527
f 515 520 529
f 515 529 524
f 514 519 528
f 514 528 523
f 520 516 525
f 520 525 529
f 540 545 541
f 540 541 538
f 544 539 530
f 544 530 535
f 541 545 536
f 541 536 532
f 542 544 535
f 542 535 533
f 546 540 538
f 546 538 542
f 538 541 543
f 538 543 539
f 545 540 531
f 545 531 536
f 539 543 534
f 539 534 530
f 543 541 532
f 543 532 534
f 546 542 533
f 546 533 537
f 540 546 537
f 540 537 531
f 542 538 539
f 542 539 544
f 555 560 556
f 555 556 553
f 558 556 547
f 558 547 549
f 557 559 550
f 557 550 548
f 561 555 553
f 561 553 557
f 557 553 554
f 557 554 559
f 553 556 558
f 553 558 554
f 570 567 565
f 570 565 569
f 568 563 567
f 568 567 570
f 562 568 570
f 562 570 566
f 566 570 569
f 566 569 564
f 566 564 573
f 566 573 575
f 565 567 576
f 565 576 574
f 562 566 575
f 562 575 571
f 568 562 571
f 568 571 577
f 567 563 572
f 567 572 576
f 564 569 578
f 564 578 573
f 563 568 577
f 563 577 572
f 569 565 574
f 569 574 578
f 587 584 582
f 587 582 586
f 585 580 584
f 585 584 587
f 579 585 587
f 579 587 583
f 583 587 586
f 583 586 581
f 583 581 590
f 583 590 592
f 582 584 593
f 582 593 591
f 579 583 592
f 579 592 588
f 585 579 588
f 585 588 594
f 584 580 589
f 584 589 593
f 581 586 595
f 581 595 590
f 580 585 594
f 580 594 589
f 586 582 591
f 586 591 595
f 604 601 599
f 604 599 603
f 602 597 601
f 602 601 604
f 596 602 604
f 596 604 600
f 600 604 603
f 600 603 598
f 600 598 607
f 600 607 609
f 599 601 610
f 599 610 608
f 596 600 609
f 596 609 605
f 602 596 605
f 602 605 611
f 601 597 606
f 601 606 610
f 598 603 612
f 598 612 607
f 597 602 611
f 597 611 606
f 603 599 608
f 603 608 612
f 621 618 616
f 621 616 620
f 619 614 618
f 619 618 621
f 613 619 621
f 613 621 617
f 617 621 620
f 617 620 615
f 617 615 624
f 617 624 626
f 616 618 627
f 616 627 625
f 613 617 626
f 613 626 622
f 619 613 622
f 619 622 628
f 618 614 623
f 618 623 627
f 615 620 629
f 615 629 624
f 614 619 628
f 614 628 623
f 620 616 625
f 620 625 629
f 561 557 548
f 561 548 552
f 555 561 552
f 555 552 630
f 556 560 551
f 556 551 547
f 559 554 631
f 559 631 550
f 560 555 630
f 560 630 551
f 554 558 549
f 554 549 631
f 640 645 641
f 640 641 638
f 643 641 632
f 643 632 634
f 642 644 635
f 642 635 633
f 646 640 638
f 646 638 642
f 642 638 639
f 642 639 644
f 638 641 643
f 638 643 639
f 655 652 650
f 655 650 654
f 653 648 652
f 653 652 655
f 647 653 655
f 647 655 651
f 651 655 654
f 651 654 649
f 651 649 658
f 651 658 660
f 650 652 661
f 650 661 659
f 647 651 660
f 647 660 656
f 653 647 656
f 653 656 662
f 652 648 657
f 652 657 661
f 649 654 663
f 649 663 658
f 648 653 662
f 648 662 657
f 654 650 659
f 654 659 663
f 646 642 633
f 646 633 637
f 640 646 637
f 640 637 664
f 641 645 636
f 641 636 632
f 644 639 665
f 644 665 635
f 645 640 664
f 645 664 636
f 639 643 634
f 639 634 665
f 674 671 669
f 674 669 673
f 672 667 671
f 672 671 674
f 666 672 674
f 666 674 670
f 670 674 673
f 670 673 668
f 670 668 677
f 670 677 679
f 669 671 680
f 669 680 678
f 666 670 679
f 666 679 675
f 672 666 675
f 672 675 681
f 671 667 676
f 671 676 680
f 668 673 682
f 668 682 677
f 667 672 681
f 667 681 676
f 673 669 678
f 673 678 682
f 691 696 692
f 691 692 689
f 694 692 683
f 694 683 685
f 693 695 686
f 693 686 684
f 697 691 689
f 697 689 693
f 693 689 690
f 693 690 695
f 689 692 694
f 689 694 690
f 706 703 701
f 706 701 705
f 704 699 703
f 704 703 706
f 698 704 706
f 698 706 702
f 702 706 705
f 702 705 700
f 702 700 709
f 702 709 711
f 701 703 712
f 701 712 710
f 698 702 711
f 698 711 707
f 704 698 707
f 704 707 713
f 703 699 708
f 703 708 712
f 700 705 714
f 700 714 709
f 699 704 713
f 699 713 708
f 705 701 710
f 705 710 714
f 697 693 684
f 697 684 688
f 691 697 688
f 691 688 715
f 692 696 687
f 692 687 683
f 695 690 716
f 695 716 686
f 696 691 715
f 696 715 687
f 690 694 685
f 690 685 716
