# Blender v2.79 (sub 0) OBJ File: 'Pine_2.blend'
# www.blender.org
mtllib Pine_2.mtl
o Pine_2_Cylinder.024
v 0.048881 0.000806 0.143743
v 0.084478 -0.000605 0.013136
v -0.062229 0.002764 0.233261
v -0.202702 0.003984 0.235092
v -0.309868 0.004050 0.156588
v -0.353060 0.003620 0.032958
v -0.317687 0.002806 -0.096568
v -0.210177 0.001419 -0.183359
v -0.071677 -0.000099 -0.188314
v 0.039819 -0.000910 -0.111345
v -0.174212 3.052703 0.056387
v -0.157669 3.084313 -0.037469
v -0.244513 3.023952 0.122242
v -0.345008 3.019744 0.128013
v -0.429770 3.036980 0.073009
v -0.469724 3.062013 -0.017493
v -0.450391 3.085537 -0.114544
v -0.374475 3.099586 -0.178590
v -0.276129 3.106421 -0.181351
v -0.195653 3.104015 -0.126667
v -0.641895 6.058522 0.027875
v -0.618237 6.050275 -0.043581
v -0.701971 6.054585 0.074684
v -0.778531 6.044830 0.077636
v -0.842202 6.032242 0.033420
v -0.865680 6.017792 -0.041009
v -0.839516 6.004448 -0.114850
v -0.774271 5.996571 -0.160786
v -0.695316 6.004818 -0.160035
v -0.637512 6.029480 -0.114108
v -0.733571 7.913949 -0.066000
v -0.724028 7.912522 -0.093982
v -0.754738 7.924681 -0.048890
v -0.779107 7.940384 -0.048921
v -0.797586 7.955199 -0.066081
v -0.802759 7.963258 -0.094081
v -0.792563 7.961226 -0.121460
v -0.771800 7.950484 -0.137597
v -0.748340 7.935367 -0.137568
v -0.730020 7.920928 -0.121381
v -0.705666 7.090407 -0.062792
v -0.688126 7.088534 -0.119697
v -0.752326 7.082458 -0.026351
v -0.810280 7.069000 -0.025078
v -0.857000 7.055300 -0.059240
v -0.874454 7.045330 -0.115006
v -0.856993 7.041846 -0.171186
v -0.810264 7.046332 -0.208181
v -0.751099 7.060061 -0.209836
v -0.705115 7.077069 -0.175238
v -0.554836 5.254723 0.083228
v -0.425073 4.777063 0.089107
v -0.404085 4.775591 0.010828
v -0.529408 5.255822 0.004260
v -0.617547 5.232454 0.135126
v -0.488740 4.769053 0.140027
v -0.696479 5.199244 0.138557
v -0.568583 4.758656 0.141605
v -0.760935 5.168250 0.090656
v -0.632979 4.749931 0.096754
v -0.784713 5.149981 0.010144
v -0.660568 4.741697 0.023381
v -0.758911 5.150819 -0.071571
v -0.641537 4.737654 -0.053800
v -0.691521 5.167362 -0.123808
v -0.580278 4.737372 -0.106321
v -0.609984 5.199925 -0.124928
v -0.498803 4.749504 -0.110717
v -0.549574 5.236613 -0.074341
v -0.431567 4.766273 -0.064941
v -0.352571 0.423442 -0.050805
v -0.269002 0.479490 -0.132031
v -0.221475 0.438954 0.264653
v -0.321083 0.400541 0.190744
v -0.015778 0.596746 0.055556
v -0.029103 0.564171 0.177635
v -0.157221 0.543234 -0.134646
v -0.370580 0.394600 0.073000
v -0.106062 0.501846 0.261365
v -0.063365 0.588820 -0.061694
v -0.491126 1.867210 -0.156446
v -0.377417 1.819044 0.110401
v -0.169723 1.877816 -0.071157
v -0.408195 1.881410 -0.226740
v -0.469718 1.829680 0.049418
v -0.188813 1.851769 0.032571
v -0.300129 1.890877 -0.230305
v -0.512763 1.847952 -0.050276
v -0.267118 1.826053 0.104895
v -0.211198 1.892135 -0.169937
v -0.750144 6.496573 0.033313
v -0.695397 6.502784 -0.009390
v -0.674285 6.497697 -0.075261
v -0.692932 6.481257 -0.139942
v -0.819105 6.484536 0.035457
v -0.875665 6.470960 -0.004740
v -0.896643 6.458465 -0.071474
v -0.874332 6.449990 -0.138138
v -0.816988 6.448493 -0.180706
v -0.746192 6.459931 -0.181221
v -0.529198 3.952617 -2.960331
v -2.399264 3.970543 -2.337210
v 0.357387 5.315142 -0.338765
v -1.512679 5.333067 0.284355
v -1.480801 4.134528 -2.703473
v -0.594215 5.497053 -0.081908
v 0.048949 4.995715 -1.255241
v -0.245158 4.526706 -2.124404
v -2.115224 4.544631 -1.501284
v -1.821117 5.013640 -0.632121
v -1.196761 4.708617 -1.867546
v -0.902654 5.177626 -0.998383
v -2.432040 3.545081 1.989347
v -0.637891 3.807204 2.762692
v -1.600773 5.177464 -0.492473
v 0.193377 5.439587 0.280872
v -1.584946 3.840628 2.436221
v -0.753678 5.473011 -0.045599
v -1.916803 4.761490 0.381704
v -2.189605 4.203255 1.203814
v -0.395455 4.465378 1.977159
v -0.122653 5.023614 1.155050
v -1.342510 4.498804 1.650688
v -1.069708 5.057039 0.828578
v 1.871799 4.018858 -1.474320
v 0.394388 4.172857 -2.770192
v 0.070310 5.220666 0.722361
v -1.407101 5.374666 -0.573511
v 1.174654 4.271204 -2.148802
v -0.626835 5.473012 0.047880
v 0.703187 4.956679 -0.030548
v 1.300119 4.541037 -0.760498
v -0.177292 4.695036 -2.056370
v -0.774224 5.110678 -1.326420
v 0.602974 4.793382 -1.434980
v 0.006042 5.209024 -0.705029
v 1.445461 3.818844 1.815749
v 2.236712 4.148049 0.040561
v -1.184370 5.137377 0.888078
v -0.393118 5.466581 -0.887110
v 1.880037 4.154479 0.977234
v -0.749793 5.473012 0.049563
v -0.277413 4.831121 1.235540
v 0.595857 4.376941 1.540554
v 1.387109 4.706146 -0.234633
v 0.513839 5.160326 -0.539647
v 1.030433 4.712575 0.702039
v 0.157164 5.166756 0.397025
v -3.145946 3.654460 -1.185983
v -3.273733 3.724837 0.779840
v -0.525946 5.278694 -1.073818
v -0.653734 5.349070 0.892005
v -3.282984 3.856121 -0.213786
v -0.662985 5.480355 -0.101621
v -1.456268 4.866985 -1.119554
v -2.323328 4.311296 -1.156024
v -2.451115 4.381672 0.809800
v -1.584056 4.937361 0.846269
v -2.460367 4.512956 -0.183826
v -1.593307 5.068646 -0.147357
v -0.265132 6.975309 -1.193501
v -1.094425 7.137055 -1.343450
v -0.333719 7.740069 -0.006412
v -1.163012 7.901816 -0.156360
v -0.657924 7.147660 -1.292845
v -0.726511 7.912419 -0.105756
v -0.293830 7.556420 -0.421095
v -0.272842 7.293655 -0.814701
v -1.102135 7.455402 -0.964650
v -1.123123 7.718168 -0.571044
v -0.665634 7.466005 -0.914045
v -0.686622 7.728771 -0.520439
v -2.088484 7.025689 0.386329
v -1.485538 7.071125 1.091153
v -1.055506 7.807049 -0.473504
v -0.452560 7.852485 0.231320
v -1.802822 7.149096 0.753253
v -0.769845 7.930454 -0.106580
v -1.412151 7.625043 -0.175586
v -1.755120 7.355954 0.109780
v -1.152175 7.401390 0.814604
v -0.809205 7.670479 0.529238
v -1.469459 7.479362 0.476704
v -1.126490 7.748449 0.191338
v 0.425944 6.846951 -0.131593
v 0.155519 6.988027 -1.005581
v -0.675825 7.763211 0.331326
v -0.946250 7.904286 -0.542662
v 0.331924 7.014196 -0.569499
v -0.769845 7.930454 -0.106580
v -0.276475 7.533137 0.176309
v 0.087248 7.219422 0.022081
v -0.183177 7.360497 -0.851906
v -0.546900 7.674212 -0.697679
v -0.006771 7.386667 -0.415825
v -0.370494 7.700381 -0.261597
v -0.453834 6.889132 1.116649
v 0.296958 6.947378 0.568788
v -1.167987 7.803812 0.138373
v -0.417194 7.862058 -0.409488
v -0.055692 7.015775 0.871695
v -0.769845 7.930454 -0.106580
v -0.912214 7.574898 0.487042
v -0.676114 7.261641 0.810648
v 0.074678 7.319887 0.262787
v -0.161422 7.633145 -0.060819
v -0.277972 7.388284 0.565695
v -0.514072 7.701541 0.242089
v -1.746016 7.028010 -1.081802
v -2.179600 7.149245 -0.274400
v -0.504975 7.766426 -0.508919
v -0.938560 7.887661 0.298483
v -1.973648 7.189586 -0.697308
v -0.732608 7.928001 -0.124425
v -0.927101 7.598947 -0.714845
v -1.339851 7.344149 -0.904158
v -1.773436 7.465383 -0.096756
v -1.360686 7.720181 0.092558
v -1.567484 7.505724 -0.519664
v -1.154734 7.760521 -0.330351
v -1.234042 6.046429 -2.036591
v -2.371560 6.132558 -1.297687
v -0.141349 7.233891 -0.484102
v -1.278868 7.320019 0.254802
v -1.817629 6.237620 -1.706123
v -0.724936 7.425081 -0.153634
v -0.517133 6.953477 -1.031971
v -0.880092 6.544952 -1.546124
v -2.017611 6.631081 -0.807220
v -1.654651 7.039607 -0.293067
v -1.463679 6.736143 -1.215656
v -1.100720 7.144669 -0.701503
v -1.779987 5.869082 1.542437
v -0.456129 6.048751 1.826242
v -1.482625 7.203096 -0.290573
v -0.158768 7.382765 -0.006769
v -1.138116 6.102814 1.726968
v -0.840753 7.436828 -0.106042
v -1.597373 6.870538 0.353644
v -1.694773 6.413526 0.960991
v -0.370916 6.593194 1.244795
v -0.273515 7.050207 0.637448
v -1.052901 6.647257 1.145522
v -0.955501 7.104270 0.538175
v 0.704481 6.074978 -1.412237
v -0.469474 6.229904 -2.084068
v -0.159841 7.204299 0.285667
v -1.333797 7.359225 -0.386163
v 0.147701 6.301250 -1.777230
v -0.716622 7.430572 -0.079326
v 0.151794 6.943799 -0.302956
v 0.437311 6.554595 -0.866430
v -0.736644 6.709521 -1.538260
v -1.022162 7.098726 -0.974787
v -0.119469 6.780869 -1.231423
v -0.404987 7.170073 -0.667949
v 0.775040 5.962135 0.989797
v 1.152695 6.188294 -0.307177
v -1.061243 7.162049 0.575853
v -0.683588 7.388207 -0.721120
v 1.001431 6.221742 0.366320
v -0.834852 7.421655 -0.047623
v -0.419882 6.876240 0.733321
v 0.188990 6.463701 0.869157
v 0.566645 6.689860 -0.427817
v -0.042227 7.102399 -0.563653
v 0.415381 6.723308 0.245680
v -0.193491 7.135847 0.109844
v -2.733236 5.921701 -0.363524
v -2.445328 6.017001 0.961842
v -0.920216 7.232204 -0.828792
v -0.632309 7.327503 0.496575
v -2.634073 6.114579 0.300784
v -0.821054 7.425081 -0.164484
v -1.559454 6.908519 -0.672436
v -2.159952 6.459229 -0.517487
v -1.872045 6.554528 0.807880
v -1.271547 7.003819 0.652930
v -2.060791 6.652106 0.146821
v -1.460293 7.101396 -0.008128
v 1.519857 5.054015 -0.223348
v 0.847150 5.071837 -1.643080
v -0.469150 6.408703 0.730024
v -1.141857 6.426526 -0.689708
v 1.225192 5.234880 -0.951581
v -0.763814 6.589568 0.001792
v 0.226333 6.091113 0.397924
v 0.885760 5.624802 0.081708
v 0.213053 5.642624 -1.338024
v -0.446374 6.108935 -1.021809
v 0.591095 5.805667 -0.646524
v -0.068331 6.271978 -0.330309
v -2.543724 4.665424 -1.406469
v -3.096515 4.926040 0.049262
v -0.538405 6.288419 -0.831698
v -1.091196 6.549035 0.624033
v -2.869809 4.959272 -0.716287
v -0.864490 6.582267 -0.141516
v -1.245559 5.874838 -1.052648
v -1.909737 5.319813 -1.241006
v -2.462528 5.580429 0.214724
v -1.798350 6.135454 0.403083
v -2.235822 5.613662 -0.550824
v -1.571644 6.168687 -0.362466
v 0.439010 5.116432 1.920325
v 1.429703 5.269546 0.707131
v -1.361302 6.311328 0.547102
v -0.370611 6.464442 -0.666093
v 0.956668 5.367327 1.346087
v -0.843645 6.562223 -0.027137
v -0.743815 6.048860 1.030054
v -0.145624 5.635608 1.485020
v 0.845068 5.788722 0.271825
v 0.246877 6.201974 -0.183140
v 0.372033 5.886502 0.910781
v -0.226158 6.299755 0.455815
v -2.256687 4.937613 1.620491
v -0.836322 5.264924 2.238630
v -1.535831 6.248562 -0.481974
v -0.115466 6.575874 0.136166
v -1.585346 5.271318 1.960948
v -0.864490 6.582267 -0.141516
v -1.806379 5.944068 0.243303
v -2.043332 5.492500 0.941432
v -0.622968 5.819811 1.559572
v -0.386014 6.271379 0.861442
v -1.371992 5.826205 1.281890
v -1.135038 6.277773 0.583761
v -0.195667 4.774175 -2.209095
v -1.756379 4.844146 -2.037605
v 0.078533 6.389067 -0.137057
v -1.482179 6.459038 0.034433
v -0.977726 4.974676 -2.182246
v -0.703526 6.589568 -0.110208
v -0.014194 5.979726 -0.873623
v -0.105448 5.427233 -1.559251
v -1.666160 5.497204 -1.387761
v -1.574906 6.049697 -0.702133
v -0.887507 5.627733 -1.532401
v -0.796253 6.180227 -0.846774
v 1.809000 2.732130 -2.112987
v -0.064356 2.751063 -3.021283
v 0.545571 4.171237 0.522825
v -1.327786 4.190170 -0.385471
v 0.900145 2.924266 -2.620711
v -0.363285 4.363373 0.015101
v 0.988391 3.833856 -0.397521
v 1.407148 3.338486 -1.271530
v -0.466208 3.357419 -2.179826
v -0.884965 3.852789 -1.305817
v 0.498292 3.530622 -1.779254
v 0.079536 4.025992 -0.905246
v -3.322153 2.269469 0.038631
v -2.653117 2.546325 1.990698
v -0.791207 3.993603 -1.073335
v -0.122171 4.270459 0.878732
v -3.070196 2.581629 1.018321
v -0.539251 4.305762 -0.093645
v -1.699181 3.554249 -0.699831
v -2.535749 2.964637 -0.329489
v -1.866713 3.241493 1.622578
v -1.030145 3.831105 1.252236
v -2.283792 3.276797 0.650201
v -1.447225 3.866409 0.279859
v 2.530501 2.757683 0.720109
v 2.309336 2.920337 -1.343736
v -0.440766 4.027040 1.138555
v -0.661930 4.189694 -0.925290
v 2.471204 3.024212 -0.302713
v -0.500062 4.293569 0.115733
v 0.589614 3.748215 1.006163
v 1.575637 3.309211 0.865901
v 1.354472 3.471866 -1.197944
v 0.368449 3.910870 -1.057682
v 1.516341 3.575740 -0.156922
v 0.530317 4.014744 -0.016659
v -0.362989 2.535029 2.925797
v 1.574119 2.882737 2.246432
v -1.557227 3.927671 0.233377
v 0.379880 4.275379 -0.445989
v 0.596111 2.889529 2.651614
v -0.598128 4.282171 -0.040806
v -1.166514 3.604202 1.181883
v -0.767623 3.124494 2.073738
v 1.169485 3.472202 1.394373
v 0.770594 3.951910 0.502517
v 0.191477 3.478994 1.799556
v -0.207414 3.958702 0.907700
v -1.440456 2.384997 -2.785310
v -3.029961 2.459329 -1.442635
v 0.393273 4.100523 -0.709450
v -1.196232 4.174855 0.633224
v -2.280632 2.597992 -2.177480
v -0.446903 4.313518 -0.101621
v -0.253360 3.665673 -1.450884
v -0.860707 3.078750 -2.137390
v -2.450212 3.153082 -0.794715
v -1.842865 3.740005 -0.108209
v -1.700883 3.291745 -1.529560
v -1.093536 3.878669 -0.843055
v -0.155148 1.005454 -3.248990
v -2.259810 1.156951 -2.603194
v 0.844393 2.636431 -0.374074
v -1.260269 2.787928 0.271722
v -1.215705 1.271965 -2.997650
v -0.216164 2.902943 -0.122734
v 0.504804 2.241400 -1.388132
v 0.172329 1.681379 -2.340299
v -1.932333 1.832875 -1.694504
v -1.599858 2.392896 -0.742336
v -0.888228 1.947890 -2.088959
v -0.555753 2.507911 -1.136792
v -2.370682 0.953164 2.346373
v -0.343796 1.196689 3.184249
v -1.379141 2.590007 -0.527980
v 0.647744 2.833531 0.309896
v -1.404057 1.264691 2.823414
v -0.412517 2.901534 -0.050939
v -1.746132 2.192242 0.475407
v -2.072630 1.630352 1.428541
v -0.045744 1.873876 2.266417
v 0.280754 2.435767 1.313283
v -1.106006 1.941879 1.905582
v -0.779507 2.503769 0.952448
v 2.500453 1.063644 -1.489446
v 0.892015 1.229419 -2.991129
v 0.486652 2.626459 0.840044
v -1.121787 2.792235 -0.661637
v 1.752255 1.338719 -2.279074
v -0.261547 2.901534 0.050416
v 1.201566 2.255258 0.033328
v 1.868028 1.717835 -0.739842
v 0.259589 1.883611 -2.241524
v -0.406873 2.421033 -1.468354
v 1.119829 1.992910 -1.529470
v 0.453367 2.530333 -0.756300
v 1.985814 1.048876 2.156519
v 2.882803 1.271533 0.152663
v -0.891467 2.598245 1.040715
v 0.005522 2.820902 -0.963141
v 2.486558 1.352166 1.199309
v -0.390723 2.901534 0.083505
v 0.108335 2.231349 1.447490
v 1.062947 1.698428 1.815589
v 1.959937 1.921085 -0.188267
v 1.005324 2.454006 -0.556366
v 1.563691 2.001718 0.858380
v 0.609079 2.534639 0.490281
v -3.168086 0.936921 -1.219603
v -3.282010 1.132419 0.975483
v -0.150611 2.615942 -1.212532
v -0.264537 2.811440 0.982555
v -3.298099 1.223922 -0.142706
v -0.280624 2.902942 -0.135635
v -1.213351 2.203719 -1.230976
v -2.212910 1.627813 -1.231561
v -2.326835 1.823310 0.963526
v -1.327276 2.399216 0.964112
v -2.342923 1.914813 -0.154664
v -1.343364 2.490719 -0.154078
v 1.880221 -0.343477 -2.666193
v -0.298920 -0.131691 -3.512053
v 0.850781 1.370200 0.414967
v -1.328360 1.581986 -0.430892
v 0.834639 -0.034616 -3.151630
v -0.194801 1.679061 -0.070470
v 1.228201 0.957111 -0.660787
v 1.567574 0.368477 -1.682479
v -0.611567 0.580263 -2.528338
v -0.950941 1.168897 -1.506646
v 0.521992 0.677338 -2.167915
v 0.182619 1.265972 -1.146223
v -3.680732 -0.343476 0.476340
v -2.583245 -0.131690 2.540234
v -0.888632 1.370200 -1.184223
v 0.208855 1.581986 0.879670
v -3.206125 -0.034616 1.526882
v -0.414025 1.679061 -0.133682
v -1.877094 0.957111 -0.616215
v -2.801435 0.368477 -0.064288
v -1.703948 0.580263 1.999606
v -0.779607 1.168897 1.447679
v -2.326828 0.677338 0.986254
v -1.402487 1.265972 0.434328
v 2.931853 -0.343477 0.543488
v 2.554133 -0.131691 -1.763342
v -0.245286 1.370201 1.221043
v -0.623007 1.581986 -1.085787
v 2.819178 -0.034615 -0.603767
v -0.357962 1.679061 0.073788
v 0.873118 0.957111 0.999990
v 1.925630 0.368477 0.773610
v 1.547909 0.580263 -1.533219
v 0.495397 1.168897 -1.306839
v 1.812954 0.677338 -0.373645
v 0.760442 1.265972 -0.147265
v 0.029874 -0.380554 3.272670
v 2.143580 -0.168768 2.274481
v -1.496160 1.333123 0.404828
v 0.617546 1.544909 -0.593361
v 1.101779 -0.071693 2.848512
v -0.424255 1.641984 -0.019330
v -0.975754 0.920034 1.419161
v -0.468368 0.331400 2.368681
v 1.645338 0.543186 1.370491
v 1.137951 1.131821 0.420971
v 0.603537 0.640261 1.944522
v 0.096150 1.228895 0.995003
v -1.940247 -0.343477 -2.989864
v -3.514472 -0.131691 -1.261873
v 0.563027 1.370200 -0.919376
v -1.011198 1.581986 0.808614
v -2.769818 -0.034616 -2.189425
v -0.266544 1.679061 -0.118937
v -0.304478 0.957111 -1.659057
v -1.135260 0.368477 -2.343768
v -2.709485 0.580263 -0.615777
v -1.878703 1.168897 0.068934
v -1.964831 0.677338 -1.543329
v -1.134048 1.265972 -0.858618
vt 0.161764 0.724387
vt 0.202446 0.719763
vt 0.205259 1.190303
vt 0.167432 1.193892
vt 0.212577 1.976987
vt 0.242600 1.982826
vt 0.219848 2.237607
vt 0.190623 2.233589
vt 0.283560 0.704211
vt 0.325742 0.697985
vt 0.319552 1.166479
vt 0.281201 1.173267
vt 0.412012 0.714508
vt 0.452948 0.731679
vt 0.428965 1.182395
vt 0.393448 1.175349
vt 0.534659 0.745943
vt 0.575579 0.746833
vt 0.537419 1.195726
vt 0.500562 1.192932
vt 0.242837 0.712456
vt 0.243332 1.182434
vt 0.369578 0.699278
vt 0.357379 1.167773
vt 0.493837 0.742230
vt 0.464695 1.188806
vt 0.350168 1.825112
vt 0.319871 1.824383
vt 0.301502 2.000067
vt 0.331799 2.009936
vt 0.309518 2.238586
vt 0.279306 2.238457
vt 0.396322 2.011962
vt 0.429536 2.004749
vt 0.402052 2.239954
vt 0.371207 2.237750
vt 0.181966 1.973297
vt 0.161820 2.228626
vt 0.363607 2.014525
vt 0.340307 2.238664
vt 0.150190 1.973177
vt 0.133283 2.220902
vt 0.272209 1.990366
vt 0.249482 2.238644
vt 0.462954 1.999770
vt 0.431238 2.249798
vt 0.122921 2.624679
vt 0.146336 2.622140
vt 0.161134 2.990989
vt 0.150246 2.987349
vt 0.473042 1.830725
vt 0.441792 1.826927
vt 0.260377 1.824099
vt 0.230526 1.820093
vt 0.410548 1.826014
vt 0.200485 1.813564
vt 0.290118 1.824527
vt 0.380283 1.825320
vt 0.171033 1.806416
vt 0.288191 2.417928
vt 0.315188 2.420866
vt 0.283361 2.653436
vt 0.260140 2.650419
vt 0.329955 2.651370
vt 0.353840 2.651085
vt 0.254742 2.996430
vt 0.246964 2.988436
vt 0.169599 2.623035
vt 0.192663 2.627234
vt 0.184418 2.988815
vt 0.172921 2.991666
vt 0.215220 2.634710
vt 0.194792 2.983679
vt 0.306516 2.653252
vt 0.238371 2.981065
vt 0.237466 2.643572
vt 0.205011 2.978453
vt 0.227824 2.976168
vt 0.659443 0.028990
vt 0.648685 0.032325
vt 0.638162 0.028665
vt 0.631954 0.019822
vt 0.631954 0.009202
vt 0.638161 0.000353
vt 0.648684 -0.003316
vt 0.659442 0.000011
vt 0.666029 0.008982
vt 0.666029 0.020014
vt 0.342378 2.420201
vt 0.370039 2.418282
vt 0.155429 2.393504
vt 0.182442 2.397024
vt 0.235735 2.406368
vt 0.261814 2.412298
vt 0.127856 2.392047
vt 0.209312 2.401302
vt 0.397799 2.420280
vt 0.216156 2.975321
vt 0.483197 -0.003316
vt 0.532241 -0.001449
vt 0.517951 0.224660
vt 0.470080 0.221633
vt 0.324921 0.015734
vt 0.378489 0.007964
vt 0.384060 0.190086
vt 0.339812 0.177295
vt 0.174706 0.025133
vt 0.225054 0.023827
vt 0.245521 0.171151
vt 0.199182 0.184447
vt 0.581547 0.006414
vt 0.565914 0.214270
vt 0.432505 0.000369
vt 0.425858 0.206741
vt 0.274442 0.020891
vt 0.293107 0.169638
vt 0.631700 0.018879
vt 0.612371 0.198460
vt 0.122926 0.025467
vt 0.155384 0.205800
vt 0.500000 0.328429
vt 0.177443 0.328429
vt 0.177443 -0.004850
vt 0.500000 -0.004850
vt 0.822557 0.328429
vt 0.822557 -0.004850
vt 0.822557 0.994989
vt 0.500000 0.994989
vt 0.500000 0.661709
vt 0.822557 0.661709
vt 0.177443 0.994989
vt 0.177443 0.661709
vt 0.500000 0.328429
vt 0.177443 0.328429
vt 0.177443 -0.004850
vt 0.500000 -0.004850
vt 0.822557 0.328429
vt 0.822557 -0.004850
vt 0.822557 0.994989
vt 0.500000 0.994989
vt 0.500000 0.661709
vt 0.822557 0.661709
vt 0.177443 0.994989
vt 0.177443 0.661709
vt 0.500000 0.328429
vt 0.177443 0.328429
vt 0.177443 -0.004850
vt 0.500000 -0.004850
vt 0.822557 0.328429
vt 0.822557 -0.004850
vt 0.822557 0.994989
vt 0.500000 0.994989
vt 0.500000 0.661709
vt 0.822557 0.661709
vt 0.177443 0.994989
vt 0.177443 0.661709
vt 0.500000 0.328429
vt 0.177443 0.328429
vt 0.177443 -0.004850
vt 0.500000 -0.004850
vt 0.822557 0.328429
vt 0.822557 -0.004850
vt 0.822557 0.994989
vt 0.500000 0.994989
vt 0.500000 0.661709
vt 0.822557 0.661709
vt 0.177443 0.994989
vt 0.177443 0.661709
vt 0.500000 0.328429
vt 0.177443 0.328429
vt 0.177443 -0.004850
vt 0.500000 -0.004850
vt 0.822557 0.328429
vt 0.822557 -0.004850
vt 0.822557 0.994989
vt 0.500000 0.994989
vt 0.500000 0.661709
vt 0.822557 0.661709
vt 0.177443 0.994989
vt 0.177443 0.661709
vt 0.500000 0.328429
vt 0.177443 0.328429
vt 0.177443 -0.004850
vt 0.500000 -0.004850
vt 0.822557 0.328429
vt 0.822557 -0.004850
vt 0.822557 0.994989
vt 0.500000 0.994989
vt 0.500000 0.661709
vt 0.822557 0.661709
vt 0.177443 0.994989
vt 0.177443 0.661709
vt 0.500000 0.328429
vt 0.177443 0.328429
vt 0.177443 -0.004850
vt 0.500000 -0.004850
vt 0.822557 0.328429
vt 0.822557 -0.004850
vt 0.822557 0.994989
vt 0.500000 0.994989
vt 0.500000 0.661709
vt 0.822557 0.661709
vt 0.177443 0.994989
vt 0.177443 0.661709
vt 0.500000 0.328429
vt 0.177443 0.328429
vt 0.177443 -0.004850
vt 0.500000 -0.004850
vt 0.822557 0.328429
vt 0.822557 -0.004850
vt 0.822557 0.994989
vt 0.500000 0.994989
vt 0.500000 0.661709
vt 0.822557 0.661709
vt 0.177443 0.994989
vt 0.177443 0.661709
vt 0.500000 0.328429
vt 0.177443 0.328429
vt 0.177443 -0.004850
vt 0.500000 -0.004850
vt 0.822557 0.328429
vt 0.822557 -0.004850
vt 0.822557 0.994989
vt 0.500000 0.994989
vt 0.500000 0.661709
vt 0.822557 0.661709
vt 0.177443 0.994989
vt 0.177443 0.661709
vt 0.500000 0.328429
vt 0.177443 0.328429
vt 0.177443 -0.004850
vt 0.500000 -0.004850
vt 0.822557 0.328429
vt 0.822557 -0.004850
vt 0.822557 0.994989
vt 0.500000 0.994989
vt 0.500000 0.661709
vt 0.822557 0.661709
vt 0.177443 0.994989
vt 0.177443 0.661709
vt 0.500000 0.328429
vt 0.177443 0.328429
vt 0.177443 -0.004850
vt 0.500000 -0.004850
vt 0.822557 0.328429
vt 0.822557 -0.004850
vt 0.822557 0.994989
vt 0.500000 0.994989
vt 0.500000 0.661709
vt 0.822557 0.661709
vt 0.177443 0.994989
vt 0.177443 0.661709
vt 0.500000 0.328429
vt 0.177443 0.328429
vt 0.177443 -0.004850
vt 0.500000 -0.004850
vt 0.822557 0.328429
vt 0.822557 -0.004850
vt 0.822557 0.994989
vt 0.500000 0.994989
vt 0.500000 0.661709
vt 0.822557 0.661709
vt 0.177443 0.994989
vt 0.177443 0.661709
vt 0.500000 0.328429
vt 0.177443 0.328429
vt 0.177443 -0.004850
vt 0.500000 -0.004850
vt 0.822557 0.328429
vt 0.822557 -0.004850
vt 0.822557 0.994989
vt 0.500000 0.994989
vt 0.500000 0.661709
vt 0.822557 0.661709
vt 0.177443 0.994989
vt 0.177443 0.661709
vt 0.500000 0.328429
vt 0.177443 0.328429
vt 0.177443 -0.004850
vt 0.500000 -0.004850
vt 0.822557 0.328429
vt 0.822557 -0.004850
vt 0.822557 0.994989
vt 0.500000 0.994989
vt 0.500000 0.661709
vt 0.822557 0.661709
vt 0.177443 0.994989
vt 0.177443 0.661709
vt 0.500000 0.328429
vt 0.177443 0.328429
vt 0.177443 -0.004850
vt 0.500000 -0.004850
vt 0.822557 0.328429
vt 0.822557 -0.004850
vt 0.822557 0.994989
vt 0.500000 0.994989
vt 0.500000 0.661709
vt 0.822557 0.661709
vt 0.177443 0.994989
vt 0.177443 0.661709
vt 0.500000 0.328429
vt 0.177443 0.328429
vt 0.177443 -0.004850
vt 0.500000 -0.004850
vt 0.822557 0.328429
vt 0.822557 -0.004850
vt 0.822557 0.994989
vt 0.500000 0.994989
vt 0.500000 0.661709
vt 0.822557 0.661709
vt 0.177443 0.994989
vt 0.177443 0.661709
vt 0.500000 0.328429
vt 0.177443 0.328429
vt 0.177443 -0.004850
vt 0.500000 -0.004850
vt 0.822557 0.328429
vt 0.822557 -0.004850
vt 0.822557 0.994989
vt 0.500000 0.994989
vt 0.500000 0.661709
vt 0.822557 0.661709
vt 0.177443 0.994989
vt 0.177443 0.661709
vt 0.500000 0.328429
vt 0.177443 0.328429
vt 0.177443 -0.004850
vt 0.500000 -0.004850
vt 0.822557 0.328429
vt 0.822557 -0.004850
vt 0.822557 0.994989
vt 0.500000 0.994989
vt 0.500000 0.661709
vt 0.822557 0.661709
vt 0.177443 0.994989
vt 0.177443 0.661709
vt 0.500000 0.328429
vt 0.177443 0.328429
vt 0.177443 -0.004850
vt 0.500000 -0.004850
vt 0.822557 0.328429
vt 0.822557 -0.004850
vt 0.822557 0.994989
vt 0.500000 0.994989
vt 0.500000 0.661709
vt 0.822557 0.661709
vt 0.177443 0.994989
vt 0.177443 0.661709
vt 0.500000 0.328429
vt 0.177443 0.328429
vt 0.177443 -0.004850
vt 0.500000 -0.004850
vt 0.822557 0.328429
vt 0.822557 -0.004850
vt 0.822557 0.994989
vt 0.500000 0.994989
vt 0.500000 0.661709
vt 0.822557 0.661709
vt 0.177443 0.994989
vt 0.177443 0.661709
vt 0.500000 0.328429
vt 0.177443 0.328429
vt 0.177443 -0.004850
vt 0.500000 -0.004850
vt 0.822557 0.328429
vt 0.822557 -0.004850
vt 0.822557 0.994989
vt 0.500000 0.994989
vt 0.500000 0.661709
vt 0.822557 0.661709
vt 0.177443 0.994989
vt 0.177443 0.661709
vt 0.500000 0.328429
vt 0.177443 0.328429
vt 0.177443 -0.004850
vt 0.500000 -0.004850
vt 0.822557 0.328429
vt 0.822557 -0.004850
vt 0.822557 0.994989
vt 0.500000 0.994989
vt 0.500000 0.661709
vt 0.822557 0.661709
vt 0.177443 0.994989
vt 0.177443 0.661709
vt 0.500000 0.328429
vt 0.177443 0.328429
vt 0.177443 -0.004850
vt 0.500000 -0.004850
vt 0.822557 0.328429
vt 0.822557 -0.004850
vt 0.822557 0.994989
vt 0.500000 0.994989
vt 0.500000 0.661709
vt 0.822557 0.661709
vt 0.177443 0.994989
vt 0.177443 0.661709
vt 0.500000 0.328429
vt 0.177443 0.328429
vt 0.177443 -0.004850
vt 0.500000 -0.004850
vt 0.822557 0.328429
vt 0.822557 -0.004850
vt 0.822557 0.994989
vt 0.500000 0.994989
vt 0.500000 0.661709
vt 0.822557 0.661709
vt 0.177443 0.994989
vt 0.177443 0.661709
vt 0.500000 0.328429
vt 0.177443 0.328429
vt 0.177443 -0.004850
vt 0.500000 -0.004850
vt 0.822557 0.328429
vt 0.822557 -0.004850
vt 0.822557 0.994989
vt 0.500000 0.994989
vt 0.500000 0.661709
vt 0.822557 0.661709
vt 0.177443 0.994989
vt 0.177443 0.661709
vt 0.500000 0.328429
vt 0.177443 0.328429
vt 0.177443 -0.004850
vt 0.500000 -0.004850
vt 0.822557 0.328429
vt 0.822557 -0.004850
vt 0.822557 0.994989
vt 0.500000 0.994989
vt 0.500000 0.661709
vt 0.822557 0.661709
vt 0.177443 0.994989
vt 0.177443 0.661709
vt 0.500000 0.328429
vt 0.177443 0.328429
vt 0.177443 -0.004850
vt 0.500000 -0.004850
vt 0.822557 0.328429
vt 0.822557 -0.004850
vt 0.822557 0.994989
vt 0.500000 0.994989
vt 0.500000 0.661709
vt 0.822557 0.661709
vt 0.177443 0.994989
vt 0.177443 0.661709
vt 0.500000 0.328429
vt 0.177443 0.328429
vt 0.177443 -0.004850
vt 0.500000 -0.004850
vt 0.822557 0.328429
vt 0.822557 -0.004850
vt 0.822557 0.994989
vt 0.500000 0.994989
vt 0.500000 0.661709
vt 0.822557 0.661709
vt 0.177443 0.994989
vt 0.177443 0.661709
vt 0.500000 0.328429
vt 0.177443 0.328429
vt 0.177443 -0.004850
vt 0.500000 -0.004850
vt 0.822557 0.328429
vt 0.822557 -0.004850
vt 0.822557 0.994989
vt 0.500000 0.994989
vt 0.500000 0.661709
vt 0.822557 0.661709
vt 0.177443 0.994989
vt 0.177443 0.661709
vt 0.500000 0.328429
vt 0.177443 0.328429
vt 0.177443 -0.004850
vt 0.500000 -0.004850
vt 0.822557 0.328429
vt 0.822557 -0.004850
vt 0.822557 0.994989
vt 0.500000 0.994989
vt 0.500000 0.661709
vt 0.822557 0.661709
vt 0.177443 0.994989
vt 0.177443 0.661709
vt 0.500000 0.328429
vt 0.177443 0.328429
vt 0.177443 -0.004850
vt 0.500000 -0.004850
vt 0.822557 0.328429
vt 0.822557 -0.004850
vt 0.822557 0.994989
vt 0.500000 0.994989
vt 0.500000 0.661709
vt 0.822557 0.661709
vt 0.177443 0.994989
vt 0.177443 0.661709
vt 0.500000 0.328429
vt 0.177443 0.328429
vt 0.177443 -0.004850
vt 0.500000 -0.004850
vt 0.822557 0.328429
vt 0.822557 -0.004850
vt 0.822557 0.994989
vt 0.500000 0.994989
vt 0.500000 0.661709
vt 0.822557 0.661709
vt 0.177443 0.994989
vt 0.177443 0.661709
vt 0.500000 0.328429
vt 0.177443 0.328429
vt 0.177443 -0.004850
vt 0.500000 -0.004850
vt 0.822557 0.328429
vt 0.822557 -0.004850
vt 0.822557 0.994989
vt 0.500000 0.994989
vt 0.500000 0.661709
vt 0.822557 0.661709
vt 0.177443 0.994989
vt 0.177443 0.661709
vt 0.500000 0.328429
vt 0.177443 0.328429
vt 0.177443 -0.004850
vt 0.500000 -0.004850
vt 0.822557 0.328429
vt 0.822557 -0.004850
vt 0.822557 0.994989
vt 0.500000 0.994989
vt 0.500000 0.661709
vt 0.822557 0.661709
vt 0.177443 0.994989
vt 0.177443 0.661709
vt 0.500000 0.328429
vt 0.177443 0.328429
vt 0.177443 -0.004850
vt 0.500000 -0.004850
vt 0.822557 0.328429
vt 0.822557 -0.004850
vt 0.822557 0.994989
vt 0.500000 0.994989
vt 0.500000 0.661709
vt 0.822557 0.661709
vt 0.177443 0.994989
vt 0.177443 0.661709
vn -0.3620 -0.0239 -0.9319
vn -0.8615 -0.0352 -0.5065
vn -0.8539 -0.0196 -0.5201
vn -0.3491 0.0207 -0.9369
vn -0.9806 -0.1944 0.0265
vn -0.7913 -0.1315 0.5971
vn -0.8066 -0.0233 0.5907
vn -0.9967 -0.0815 -0.0011
vn -0.7806 -0.0068 0.6249
vn -0.2975 0.0328 0.9542
vn -0.2511 -0.0216 0.9677
vn -0.7632 -0.0408 0.6448
vn 0.8761 0.0700 0.4770
vn 0.9916 0.0466 -0.1210
vn 0.9937 0.0720 -0.0859
vn 0.8689 0.0439 0.4931
vn 0.2780 -0.0008 -0.9606
vn 0.2865 0.0567 -0.9564
vn -0.9948 -0.0302 0.0968
vn -0.9946 -0.0418 0.0954
vn 0.3634 0.0712 0.9289
vn 0.3939 0.0068 0.9191
vn 0.7703 0.0231 -0.6373
vn 0.7804 0.0767 -0.6206
vn 0.8262 0.1691 0.5374
vn 0.3556 0.0733 0.9317
vn 0.3120 0.1015 0.9447
vn 0.8004 0.1728 0.5740
vn 0.8111 0.1367 0.5687
vn 0.3283 0.1130 0.9378
vn 0.8038 0.1226 -0.5822
vn 0.2967 0.0192 -0.9548
vn 0.3309 -0.0069 -0.9436
vn 0.8245 0.0659 -0.5621
vn -0.8130 -0.1809 -0.5535
vn -0.8058 -0.0999 -0.5837
vn 0.9838 0.1793 -0.0015
vn 0.9929 0.1185 0.0073
vn -0.3328 -0.1003 -0.9377
vn -0.3059 -0.0720 -0.9494
vn -0.3016 -0.0167 0.9533
vn -0.2953 0.0520 0.9540
vn -0.3268 0.0204 -0.9449
vn -0.8114 0.0370 -0.5834
vn -0.8391 0.0876 -0.5370
vn -0.4256 0.0884 -0.9006
vn -0.3407 -0.0606 -0.9382
vn 0.2882 0.0622 -0.9555
vn -0.7597 -0.1605 0.6301
vn -0.9767 -0.2036 0.0677
vn 0.7825 0.1589 -0.6020
vn -0.8290 -0.1669 -0.5338
vn -0.2586 -0.0536 0.9645
vn 0.9792 0.1984 -0.0417
vn 0.8116 0.1054 0.5746
vn 0.9974 0.0725 0.0044
vn 0.9994 0.0342 0.0031
vn 0.8249 0.0464 0.5634
vn 0.3147 0.0174 -0.9490
vn 0.2076 0.0795 -0.9750
vn -0.9980 0.0570 -0.0290
vn -0.8299 0.0712 0.5533
vn -0.8770 0.0622 0.4764
vn -0.9957 0.0786 -0.0496
vn -0.3211 0.0721 0.9443
vn -0.4299 0.0412 0.9020
vn 0.8235 0.0244 -0.5668
vn 0.7889 0.0615 -0.6115
vn 0.3315 0.0608 0.9415
vn 0.2456 0.0269 0.9690
vn 0.9014 0.4276 0.0687
vn 0.7808 0.4248 0.4582
vn 0.5363 0.8325 0.1391
vn 0.8202 0.0257 -0.5715
vn 0.3138 -0.0232 -0.9492
vn -0.8147 -0.0522 -0.5775
vn -0.9998 -0.0180 -0.0054
vn -0.3125 0.0839 0.9462
vn 0.3150 0.1115 0.9425
vn -0.3239 -0.0555 -0.9445
vn -0.8155 0.0339 0.5778
vn 0.9815 0.1679 -0.0918
vn 0.7749 0.1840 -0.6048
vn 0.7863 0.1057 -0.6087
vn 0.9872 0.1387 -0.0792
vn -0.2840 -0.0750 0.9559
vn 0.3989 -0.0103 0.9169
vn 0.3596 0.0693 0.9305
vn -0.2821 -0.0084 0.9593
vn -0.8481 -0.0128 -0.5296
vn -0.9967 -0.0558 0.0588
vn -0.9918 -0.0692 0.1071
vn -0.8695 -0.0622 -0.4900
vn 0.2920 0.1411 -0.9459
vn 0.2896 0.0483 -0.9559
vn 0.8761 0.0935 0.4729
vn 0.8520 0.1331 0.5063
vn -0.7946 -0.0784 0.6021
vn -0.7736 -0.0514 0.6316
vn -0.3470 0.0607 -0.9359
vn -0.3728 -0.0184 -0.9277
vn -0.1137 0.9229 -0.3678
vn -0.2841 0.9088 -0.3056
vn -0.2619 0.9353 -0.2379
vn -0.0910 0.9495 -0.3003
vn 0.0597 0.9055 -0.4202
vn 0.0830 0.9320 -0.3528
vn 0.0044 0.8236 -0.5671
vn -0.1651 0.8383 -0.5196
vn -0.1505 0.8661 -0.4766
vn 0.0201 0.8495 -0.5273
vn -0.3294 0.8268 -0.4559
vn -0.3176 0.8527 -0.4147
vn -0.2972 0.8694 0.3948
vn -0.1277 0.8784 0.4604
vn -0.1044 0.9122 0.3963
vn -0.2744 0.9030 0.3305
vn -0.4576 0.8303 0.3183
vn -0.4352 0.8638 0.2537
vn -0.4991 0.7338 0.4608
vn -0.3444 0.7692 0.5382
vn -0.3316 0.8014 0.4978
vn -0.4889 0.7635 0.4219
vn -0.1789 0.7806 0.5989
vn -0.1650 0.8109 0.5615
vn 0.2747 0.9402 -0.2015
vn 0.1352 0.9383 -0.3183
vn 0.0882 0.9608 -0.2628
vn 0.2282 0.9627 -0.1457
vn 0.4068 0.9100 -0.0800
vn 0.3606 0.9324 -0.0238
vn 0.5049 0.8377 -0.2084
vn 0.3789 0.8649 -0.3292
vn 0.3495 0.8900 -0.2927
vn 0.4787 0.8608 -0.1727
vn 0.2412 0.8651 -0.4397
vn 0.2119 0.8887 -0.4067
vn 0.2809 0.9134 0.2946
vn 0.3502 0.9280 0.1270
vn 0.2832 0.9537 0.1013
vn 0.2138 0.9390 0.2694
vn 0.2047 0.8675 0.4533
vn 0.1373 0.8930 0.4286
vn 0.3562 0.7891 0.5005
vn 0.4336 0.8314 0.3475
vn 0.3901 0.8584 0.3331
vn 0.3144 0.8138 0.4887
vn 0.4975 0.8478 0.1836
vn 0.4573 0.8733 0.1681
vn -0.4698 0.8806 -0.0621
vn -0.4750 0.8718 0.1196
vn -0.4067 0.9052 0.1234
vn -0.4016 0.9139 -0.0588
vn -0.4515 0.8589 -0.2418
vn -0.3831 0.8922 -0.2391
vn -0.5999 0.7624 -0.2427
vn -0.6210 0.7808 -0.0683
vn -0.5785 0.8129 -0.0667
vn -0.5597 0.7922 -0.2432
vn -0.6227 0.7749 0.1082
vn -0.5828 0.8049 0.1118
vn 0.2485 0.8578 -0.4500
vn 0.0346 0.8755 -0.4819
vn 0.0245 0.9149 -0.4028
vn 0.2418 0.8956 -0.3734
vn 0.4514 0.7946 -0.4061
vn 0.4478 0.8327 -0.3257
vn 0.4467 0.6894 -0.5703
vn 0.2569 0.7424 -0.6187
vn 0.2553 0.7796 -0.5719
vn 0.4497 0.7207 -0.5276
vn 0.0558 0.7649 -0.6417
vn 0.0502 0.7981 -0.6005
vn -0.3604 0.8976 0.2539
vn -0.2234 0.8827 0.4135
vn -0.1632 0.9167 0.3647
vn -0.3022 0.9306 0.2068
vn -0.4892 0.8676 0.0890
vn -0.4321 0.9012 0.0333
vn -0.5979 0.7750 0.2048
vn -0.4875 0.7948 0.3615
vn -0.4500 0.8282 0.3342
vn -0.5707 0.8024 0.1744
vn -0.3522 0.7838 0.5115
vn -0.3178 0.8140 0.4863
vn 0.5644 0.8243 -0.0435
vn 0.4930 0.8335 -0.2495
vn 0.4203 0.8796 -0.2228
vn 0.4945 0.8691 -0.0160
vn 0.6167 0.7704 0.1618
vn 0.5452 0.8154 0.1944
vn 0.7546 0.6505 0.0864
vn 0.7131 0.6928 -0.1075
vn 0.6721 0.7348 -0.0909
vn 0.7200 0.6856 0.1073
vn 0.6403 0.7066 -0.3014
vn 0.6022 0.7445 -0.2883
vn 0.2796 0.8394 0.4662
vn 0.4497 0.8272 0.3368
vn 0.4053 0.8718 0.2750
vn 0.2364 0.8827 0.4061
vn 0.1008 0.8074 0.5813
vn 0.0504 0.8514 0.5220
vn 0.2059 0.6916 0.6923
vn 0.3747 0.7117 0.5942
vn 0.3516 0.7524 0.5570
vn 0.1784 0.7253 0.6649
vn 0.5368 0.7032 0.4662
vn 0.5147 0.7405 0.4320
vn -0.3086 0.9025 -0.3004
vn -0.4066 0.9068 -0.1115
vn -0.3363 0.9388 -0.0742
vn -0.2400 0.9333 -0.2671
vn -0.2058 0.8527 -0.4802
vn -0.1315 0.8837 -0.4492
vn -0.3609 0.7641 -0.5347
vn -0.4639 0.8045 -0.3709
vn -0.4207 0.8366 -0.3509
vn -0.3201 0.7908 -0.5218
vn -0.5499 0.8133 -0.1902
vn -0.5126 0.8417 -0.1694
vn -0.2076 0.8825 -0.4220
vn -0.3859 0.8728 -0.2989
vn -0.3429 0.9106 -0.2308
vn -0.1636 0.9192 -0.3583
vn -0.0247 0.8458 -0.5330
vn 0.0240 0.8831 -0.4685
vn -0.1304 0.7408 -0.6589
vn -0.3060 0.7692 -0.5610
vn -0.2786 0.8058 -0.5225
vn -0.1021 0.7723 -0.6270
vn -0.4694 0.7658 -0.4396
vn -0.4484 0.7979 -0.4028
vn -0.2170 0.8441 0.4903
vn -0.0103 0.8469 0.5317
vn 0.0036 0.8883 0.4592
vn -0.2036 0.8843 0.4202
vn -0.4160 0.7980 0.4362
vn -0.4089 0.8386 0.3601
vn -0.4207 0.6922 0.5865
vn -0.2400 0.7259 0.6445
vn -0.2309 0.7638 0.6027
vn -0.4208 0.7229 0.5481
vn -0.0409 0.7323 0.6797
vn -0.0326 0.7666 0.6412
vn 0.3081 0.8897 -0.3369
vn 0.1166 0.8897 -0.4414
vn 0.0766 0.9261 -0.3693
vn 0.2707 0.9251 -0.2661
vn 0.4893 0.8429 -0.2238
vn 0.4542 0.8785 -0.1483
vn 0.5516 0.7416 -0.3817
vn 0.3871 0.7783 -0.4944
vn 0.3641 0.8147 -0.4513
vn 0.5368 0.7721 -0.3402
vn 0.2022 0.7826 -0.5887
vn 0.1794 0.8153 -0.5505
vn 0.4170 0.8682 0.2689
vn 0.4746 0.8779 0.0630
vn 0.3977 0.9165 0.0438
vn 0.3422 0.9057 0.2502
vn 0.3484 0.8137 0.4653
vn 0.2683 0.8509 0.4517
vn 0.5104 0.7122 0.4819
vn 0.5825 0.7538 0.3042
vn 0.5376 0.7912 0.2915
vn 0.4686 0.7421 0.4792
vn 0.6342 0.7661 0.1044
vn 0.5923 0.8003 0.0933
vn -0.5150 0.8557 0.0511
vn -0.4644 0.8473 0.2577
vn -0.3904 0.8881 0.2426
vn -0.4448 0.8950 0.0340
vn -0.5518 0.8194 -0.1555
vn -0.4789 0.8596 -0.1781
vn -0.6949 0.7117 -0.1029
vn -0.6680 0.7385 0.0911
vn -0.6257 0.7759 0.0807
vn -0.6585 0.7433 -0.1175
vn -0.6141 0.7363 0.2840
vn -0.5754 0.7693 0.2778
vn 0.4188 0.8885 -0.1875
vn 0.3211 0.8674 -0.3801
vn 0.2467 0.9044 -0.3481
vn 0.3486 0.9245 -0.1540
vn 0.5053 0.8629 0.0098
vn 0.4338 0.8997 0.0479
vn 0.6474 0.7586 -0.0736
vn 0.5732 0.7766 -0.2616
vn 0.5302 0.8128 -0.2412
vn 0.6111 0.7899 -0.0511
vn 0.4749 0.7625 -0.4394
vn 0.4347 0.7941 -0.4249
vn -0.4752 0.8180 -0.3241
vn -0.5464 0.8280 -0.1259
vn -0.4778 0.8723 -0.1036
vn -0.4090 0.8609 -0.3026
vn -0.3915 0.7653 -0.5108
vn -0.3184 0.8086 -0.4947
vn -0.5368 0.6546 -0.5323
vn -0.6214 0.6940 -0.3637
vn -0.5824 0.7336 -0.3504
vn -0.4996 0.6865 -0.5283
vn -0.6854 0.7075 -0.1722
vn -0.6494 0.7434 -0.1600
vn 0.2543 0.9125 0.3204
vn 0.3899 0.9087 0.1496
vn 0.3246 0.9409 0.0963
vn 0.1899 0.9439 0.2701
vn 0.1134 0.8689 0.4819
vn 0.0440 0.9003 0.4330
vn 0.2612 0.7758 0.5744
vn 0.3992 0.8099 0.4298
vn 0.3596 0.8439 0.3982
vn 0.2220 0.8041 0.5515
vn 0.5234 0.8103 0.2635
vn 0.4887 0.8407 0.2331
vn -0.3446 0.8760 0.3374
vn -0.1485 0.8947 0.4212
vn -0.1203 0.9306 0.3458
vn -0.3171 0.9109 0.2641
vn -0.5286 0.8124 0.2462
vn -0.5054 0.8466 0.1669
vn -0.5640 0.7174 0.4090
vn -0.3987 0.7675 0.5019
vn -0.3811 0.8034 0.4575
vn -0.5565 0.7455 0.3667
vn -0.2079 0.7884 0.5789
vn -0.1922 0.8211 0.5374
vn -0.0243 0.8322 -0.5540
vn -0.2346 0.8187 -0.5241
vn -0.2284 0.8629 -0.4508
vn -0.0157 0.8748 -0.4842
vn 0.1860 0.8017 -0.5681
vn 0.1998 0.8456 -0.4951
vn 0.1516 0.6866 -0.7110
vn -0.0449 0.7078 -0.7050
vn -0.0400 0.7471 -0.6635
vn 0.1615 0.7202 -0.6747
vn -0.2421 0.7010 -0.6708
vn -0.2409 0.7356 -0.6331
vn 0.1755 0.9229 -0.3427
vn 0.0101 0.9088 -0.4172
vn -0.0213 0.9353 -0.3531
vn 0.1446 0.9495 -0.2785
vn 0.3362 0.9055 -0.2591
vn 0.3057 0.9320 -0.1946
vn 0.3992 0.8236 -0.4029
vn 0.2447 0.8383 -0.4872
vn 0.2251 0.8661 -0.4463
vn 0.3826 0.8495 -0.3634
vn 0.0826 0.8268 -0.5564
vn 0.0623 0.8527 -0.5187
vn -0.4921 0.8694 0.0453
vn -0.4268 0.8784 0.2149
vn -0.3636 0.9122 0.1891
vn -0.4291 0.9030 0.0190
vn -0.5432 0.8303 -0.1248
vn -0.4804 0.8638 -0.1517
vn -0.6767 0.7338 -0.0598
vn -0.6300 0.7692 0.1068
vn -0.5915 0.8014 0.0891
vn -0.6410 0.7635 -0.0784
vn -0.5636 0.7806 0.2701
vn -0.5266 0.8109 0.2553
vn 0.3386 0.9402 0.0378
vn 0.3150 0.9383 -0.1426
vn 0.2428 0.9608 -0.1336
vn 0.2666 0.9627 0.0473
vn 0.3535 0.9100 0.2166
vn 0.2814 0.9324 0.2267
vn 0.5126 0.8377 0.1886
vn 0.5018 0.8649 0.0144
vn 0.4554 0.8900 0.0213
vn 0.4691 0.8608 0.1971
vn 0.4752 0.8651 -0.1602
vn 0.4313 0.8887 -0.1557
vn -0.0214 0.9134 0.4065
vn 0.1480 0.9280 0.3418
vn 0.1208 0.9537 0.2755
vn -0.0491 0.9390 0.3405
vn -0.1891 0.8675 0.4600
vn -0.2174 0.8930 0.3941
vn -0.1194 0.7891 0.6026
vn 0.0450 0.8314 0.5538
vn 0.0256 0.8584 0.5123
vn -0.1395 0.8138 0.5641
vn 0.2080 0.8478 0.4878
vn 0.1916 0.8733 0.4479
vn -0.2811 0.8806 -0.3815
vn -0.4156 0.8718 -0.2592
vn -0.3709 0.9052 -0.2074
vn -0.2361 0.9139 -0.3301
vn -0.1389 0.8589 -0.4930
vn -0.0934 0.8922 -0.4418
vn -0.2412 0.7624 -0.6005
vn -0.3814 0.7808 -0.4948
vn -0.3532 0.8129 -0.4631
vn -0.2129 0.7922 -0.5719
vn -0.5098 0.7749 -0.3736
vn -0.4847 0.8049 -0.3424
vn -0.0629 0.9065 -0.4175
vn -0.2350 0.9034 -0.3587
vn -0.2130 0.9324 -0.2919
vn -0.0403 0.9355 -0.3509
vn 0.1106 0.8785 -0.4648
vn 0.1337 0.9075 -0.3983
vn 0.0547 0.7916 -0.6086
vn -0.1149 0.8164 -0.5659
vn -0.0999 0.8458 -0.5241
vn 0.0707 0.8188 -0.5697
vn -0.2809 0.8158 -0.5056
vn -0.2688 0.8432 -0.4656
vn -0.2534 0.9014 0.3510
vn -0.0832 0.9059 0.4151
vn -0.0589 0.9352 0.3492
vn -0.2296 0.9306 0.2849
vn -0.4161 0.8660 0.2775
vn -0.3927 0.8951 0.2112
vn -0.4609 0.7790 0.4251
vn -0.3040 0.8111 0.4997
vn -0.2901 0.8405 0.4576
vn -0.4496 0.8062 0.3846
vn -0.1377 0.8179 0.5587
vn -0.1227 0.8454 0.5198
vn 0.3216 0.9150 -0.2434
vn 0.1850 0.9130 -0.3636
vn 0.1377 0.9405 -0.3107
vn 0.2747 0.9425 -0.1902
vn 0.4492 0.8858 -0.1170
vn 0.4026 0.9132 -0.0634
vn 0.5470 0.8024 -0.2388
vn 0.4254 0.8285 -0.3642
vn 0.3962 0.8569 -0.3298
vn 0.5210 0.8286 -0.2050
vn 0.2905 0.8288 -0.4782
vn 0.2615 0.8553 -0.4472
vn 0.3221 0.9142 0.2458
vn 0.3916 0.9168 0.0776
vn 0.3258 0.9441 0.0506
vn 0.2562 0.9414 0.2193
vn 0.2443 0.8803 0.4067
vn 0.1781 0.9074 0.3807
vn 0.3923 0.7977 0.4580
vn 0.4711 0.8284 0.3029
vn 0.4288 0.8565 0.2871
vn 0.3516 0.8237 0.4449
vn 0.5353 0.8332 0.1385
vn 0.4963 0.8596 0.1217
vn -0.4281 0.8980 -0.1022
vn -0.4315 0.8986 0.0797
vn -0.3617 0.9288 0.0812
vn -0.3582 0.9281 -0.1013
vn -0.4128 0.8665 -0.2808
vn -0.3429 0.8966 -0.2803
vn -0.5657 0.7773 -0.2754
vn -0.5839 0.8054 -0.1020
vn -0.5399 0.8355 -0.1024
vn -0.5241 0.8050 -0.2778
vn -0.5838 0.8084 0.0746
vn -0.5425 0.8366 0.0763
vn 0.2259 0.9072 -0.3548
vn 0.0543 0.9080 -0.4154
vn 0.0307 0.9367 -0.3489
vn 0.2028 0.9358 -0.2882
vn 0.3908 0.8753 -0.2848
vn 0.3682 0.9039 -0.2179
vn 0.4344 0.7896 -0.4334
vn 0.2754 0.8182 -0.5046
vn 0.2617 0.8473 -0.4622
vn 0.4235 0.8164 -0.3926
vn 0.1078 0.8213 -0.5602
vn 0.0930 0.8485 -0.5209
vn -0.4028 0.9072 0.1211
vn -0.3124 0.9080 0.2790
vn -0.2512 0.9367 0.2441
vn -0.3418 0.9358 0.0857
vn -0.4819 0.8753 -0.0396
vn -0.4211 0.9039 -0.0755
vn -0.6120 0.7896 0.0444
vn -0.5382 0.8182 0.2022
vn -0.5001 0.8473 0.1790
vn -0.5771 0.8164 0.0207
vn -0.4475 0.8213 0.3538
vn -0.4106 0.8485 0.3337
vn 0.4203 0.9072 0.0145
vn 0.3854 0.9080 -0.1641
vn 0.3162 0.9367 -0.1507
vn 0.3513 0.9358 0.0284
vn 0.4437 0.8753 0.1921
vn 0.3747 0.9039 0.2065
vn 0.5939 0.7896 0.1542
vn 0.5746 0.8182 -0.0190
vn 0.5311 0.8473 -0.0092
vn 0.5533 0.8164 0.1655
vn 0.5373 0.8213 -0.1916
vn 0.4960 0.8485 -0.1844
vn 0.1018 0.9072 0.4081
vn 0.2639 0.9080 0.3254
vn 0.2319 0.9367 0.2625
vn 0.0694 0.9358 0.3455
vn -0.0625 0.8753 0.4795
vn -0.0954 0.9039 0.4171
vn 0.0152 0.7896 0.6135
vn 0.1764 0.8182 0.5472
vn 0.1550 0.8473 0.5080
vn -0.0068 0.8164 0.5774
vn 0.3321 0.8213 0.4638
vn 0.3138 0.8485 0.4260
vn -0.2496 0.9072 -0.3386
vn -0.3679 0.9080 -0.2003
vn -0.3144 0.9367 -0.1544
vn -0.1958 0.9358 -0.2930
vn -0.1248 0.8753 -0.4671
vn -0.0706 0.9039 -0.4220
vn -0.2477 0.7896 -0.5614
vn -0.3715 0.8182 -0.4387
vn -0.3368 0.8473 -0.4107
vn -0.2137 0.8164 -0.5365
vn -0.4837 0.8213 -0.3024
vn -0.4524 0.8485 -0.2744
usemtl Bark
s 1
f 84 81 17
f 84 17 18
f 61 59 25
f 61 25 26
f 85 82 14
f 85 14 15
f 86 83 12
f 86 12 11
f 87 84 18
f 87 18 19
f 88 85 15
f 88 15 16
f 89 86 11
f 89 11 13
f 90 87 19
f 90 19 20
f 81 88 16
f 81 16 17
f 82 89 13
f 82 13 14
f 83 90 20
f 83 20 12
f 13 11 52
f 13 52 56
f 55 51 21
f 55 21 23
f 69 67 29
f 69 29 30
f 63 61 26
f 63 26 27
f 54 69 30
f 54 30 22
f 65 63 27
f 65 27 28
f 59 57 24
f 59 24 25
f 57 55 23
f 57 23 24
f 67 65 28
f 67 28 29
f 48 47 37
f 48 37 38
f 19 18 66
f 19 66 68
f 16 15 60
f 16 60 62
f 51 54 22
f 51 22 21
f 20 19 68
f 20 68 70
f 17 16 62
f 17 62 64
f 14 13 56
f 14 56 58
f 12 20 70
f 12 70 53
f 18 17 64
f 18 64 66
f 15 14 58
f 15 58 60
f 92 93 42
f 92 42 41
f 49 48 38
f 49 38 39
f 46 45 35
f 46 35 36
f 45 44 34
f 45 34 35
f 50 49 39
f 50 39 40
f 47 46 36
f 47 36 37
f 44 43 33
f 44 33 34
f 42 50 40
f 42 40 32
f 31 32 40
f 31 40 39
f 31 39 38
f 31 38 37
f 31 37 36
f 31 36 35
f 31 35 34
f 31 34 33
f 94 100 49
f 94 49 50
f 98 97 46
f 98 46 47
f 95 91 43
f 95 43 44
f 93 94 50
f 93 50 42
f 99 98 47
f 99 47 48
f 96 95 44
f 96 44 45
f 91 92 41
f 91 41 43
f 100 99 48
f 100 48 49
f 97 96 45
f 97 45 46
f 43 41 31
f 43 31 33
f 52 53 54
f 52 54 51
f 56 52 51
f 56 51 55
f 58 56 55
f 58 55 57
f 60 58 57
f 60 57 59
f 62 60 59
f 62 59 61
f 64 62 61
f 64 61 63
f 66 64 63
f 66 63 65
f 68 66 65
f 68 65 67
f 70 68 67
f 70 67 69
f 53 70 69
f 53 69 54
f 11 12 53
f 11 53 52
f 2 10 80
f 2 80 75
f 4 3 79
f 4 79 73
f 7 6 78
f 7 78 71
f 10 9 77
f 10 77 80
f 3 1 76
f 3 76 79
f 6 5 74
f 6 74 78
f 9 8 72
f 9 72 77
f 1 2 75
f 1 75 76
f 5 4 73
f 5 73 74
f 8 7 71
f 8 71 72
f 75 80 90
f 75 90 83
f 73 79 89
f 73 89 82
f 71 78 88
f 71 88 81
f 80 77 87
f 80 87 90
f 79 76 86
f 79 86 89
f 78 74 85
f 78 85 88
f 77 72 84
f 77 84 87
f 76 75 83
f 76 83 86
f 74 73 82
f 74 82 85
f 72 71 81
f 72 81 84
f 42 32 31
f 42 31 41
f 26 25 96
f 26 96 97
f 29 28 99
f 29 99 100
f 23 21 92
f 23 92 91
f 25 24 95
f 25 95 96
f 28 27 98
f 28 98 99
f 22 30 94
f 22 94 93
f 24 23 91
f 24 91 95
f 27 26 97
f 27 97 98
f 30 29 100
f 30 100 94
f 21 22 93
f 21 93 92
usemtl Pine_Leaves
f 112 110 104
f 112 104 106
f 107 112 106
f 107 106 103
f 101 105 111
f 101 111 108
f 108 111 112
f 108 112 107
f 105 102 109
f 105 109 111
f 111 109 110
f 111 110 112
f 124 122 116
f 124 116 118
f 119 124 118
f 119 118 115
f 113 117 123
f 113 123 120
f 120 123 124
f 120 124 119
f 117 114 121
f 117 121 123
f 123 121 122
f 123 122 124
f 136 134 128
f 136 128 130
f 131 136 130
f 131 130 127
f 125 129 135
f 125 135 132
f 132 135 136
f 132 136 131
f 129 126 133
f 129 133 135
f 135 133 134
f 135 134 136
f 148 146 140
f 148 140 142
f 143 148 142
f 143 142 139
f 137 141 147
f 137 147 144
f 144 147 148
f 144 148 143
f 141 138 145
f 141 145 147
f 147 145 146
f 147 146 148
f 160 158 152
f 160 152 154
f 155 160 154
f 155 154 151
f 149 153 159
f 149 159 156
f 156 159 160
f 156 160 155
f 153 150 157
f 153 157 159
f 159 157 158
f 159 158 160
f 172 170 164
f 172 164 166
f 167 172 166
f 167 166 163
f 161 165 171
f 161 171 168
f 168 171 172
f 168 172 167
f 165 162 169
f 165 169 171
f 171 169 170
f 171 170 172
f 184 182 176
f 184 176 178
f 179 184 178
f 179 178 175
f 173 177 183
f 173 183 180
f 180 183 184
f 180 184 179
f 177 174 181
f 177 181 183
f 183 181 182
f 183 182 184
f 196 194 188
f 196 188 190
f 191 196 190
f 191 190 187
f 185 189 195
f 185 195 192
f 192 195 196
f 192 196 191
f 189 186 193
f 189 193 195
f 195 193 194
f 195 194 196
f 208 206 200
f 208 200 202
f 203 208 202
f 203 202 199
f 197 201 207
f 197 207 204
f 204 207 208
f 204 208 203
f 201 198 205
f 201 205 207
f 207 205 206
f 207 206 208
f 220 218 212
f 220 212 214
f 215 220 214
f 215 214 211
f 209 213 219
f 209 219 216
f 216 219 220
f 216 220 215
f 213 210 217
f 213 217 219
f 219 217 218
f 219 218 220
f 232 230 224
f 232 224 226
f 227 232 226
f 227 226 223
f 221 225 231
f 221 231 228
f 228 231 232
f 228 232 227
f 225 222 229
f 225 229 231
f 231 229 230
f 231 230 232
f 244 242 236
f 244 236 238
f 239 244 238
f 239 238 235
f 233 237 243
f 233 243 240
f 240 243 244
f 240 244 239
f 237 234 241
f 237 241 243
f 243 241 242
f 243 242 244
f 256 254 248
f 256 248 250
f 251 256 250
f 251 250 247
f 245 249 255
f 245 255 252
f 252 255 256
f 252 256 251
f 249 246 253
f 249 253 255
f 255 253 254
f 255 254 256
f 268 266 260
f 268 260 262
f 263 268 262
f 263 262 259
f 257 261 267
f 257 267 264
f 264 267 268
f 264 268 263
f 261 258 265
f 261 265 267
f 267 265 266
f 267 266 268
f 280 278 272
f 280 272 274
f 275 280 274
f 275 274 271
f 269 273 279
f 269 279 276
f 276 279 280
f 276 280 275
f 273 270 277
f 273 277 279
f 279 277 278
f 279 278 280
f 292 290 284
f 292 284 286
f 287 292 286
f 287 286 283
f 281 285 291
f 281 291 288
f 288 291 292
f 288 292 287
f 285 282 289
f 285 289 291
f 291 289 290
f 291 290 292
f 304 302 296
f 304 296 298
f 299 304 298
f 299 298 295
f 293 297 303
f 293 303 300
f 300 303 304
f 300 304 299
f 297 294 301
f 297 301 303
f 303 301 302
f 303 302 304
f 316 314 308
f 316 308 310
f 311 316 310
f 311 310 307
f 305 309 315
f 305 315 312
f 312 315 316
f 312 316 311
f 309 306 313
f 309 313 315
f 315 313 314
f 315 314 316
f 328 326 320
f 328 320 322
f 323 328 322
f 323 322 319
f 317 321 327
f 317 327 324
f 324 327 328
f 324 328 323
f 321 318 325
f 321 325 327
f 327 325 326
f 327 326 328
f 340 338 332
f 340 332 334
f 335 340 334
f 335 334 331
f 329 333 339
f 329 339 336
f 336 339 340
f 336 340 335
f 333 330 337
f 333 337 339
f 339 337 338
f 339 338 340
f 352 350 344
f 352 344 346
f 347 352 346
f 347 346 343
f 341 345 351
f 341 351 348
f 348 351 352
f 348 352 347
f 345 342 349
f 345 349 351
f 351 349 350
f 351 350 352
f 364 362 356
f 364 356 358
f 359 364 358
f 359 358 355
f 353 357 363
f 353 363 360
f 360 363 364
f 360 364 359
f 357 354 361
f 357 361 363
f 363 361 362
f 363 362 364
f 376 374 368
f 376 368 370
f 371 376 370
f 371 370 367
f 365 369 375
f 365 375 372
f 372 375 376
f 372 376 371
f 369 366 373
f 369 373 375
f 375 373 374
f 375 374 376
f 388 386 380
f 388 380 382
f 383 388 382
f 383 382 379
f 377 381 387
f 377 387 384
f 384 387 388
f 384 388 383
f 381 378 385
f 381 385 387
f 387 385 386
f 387 386 388
f 400 398 392
f 400 392 394
f 395 400 394
f 395 394 391
f 389 393 399
f 389 399 396
f 396 399 400
f 396 400 395
f 393 390 397
f 393 397 399
f 399 397 398
f 399 398 400
f 412 410 404
f 412 404 406
f 407 412 406
f 407 406 403
f 401 405 411
f 401 411 408
f 408 411 412
f 408 412 407
f 405 402 409
f 405 409 411
f 411 409 410
f 411 410 412
f 424 422 416
f 424 416 418
f 419 424 418
f 419 418 415
f 413 417 423
f 413 423 420
f 420 423 424
f 420 424 419
f 417 414 421
f 417 421 423
f 423 421 422
f 423 422 424
f 436 434 428
f 436 428 430
f 431 436 430
f 431 430 427
f 425 429 435
f 425 435 432
f 432 435 436
f 432 436 431
f 429 426 433
f 429 433 435
f 435 433 434
f 435 434 436
f 448 446 440
f 448 440 442
f 443 448 442
f 443 442 439
f 437 441 447
f 437 447 444
f 444 447 448
f 444 448 443
f 441 438 445
f 441 445 447
f 447 445 446
f 447 446 448
f 460 458 452
f 460 452 454
f 455 460 454
f 455 454 451
f 449 453 459
f 449 459 456
f 456 459 460
f 456 460 455
f 453 450 457
f 453 457 459
f 459 457 458
f 459 458 460
f 472 470 464
f 472 464 466
f 467 472 466
f 467 466 463
f 461 465 471
f 461 471 468
f 468 471 472
f 468 472 467
f 465 462 469
f 465 469 471
f 471 469 470
f 471 470 472
f 484 482 476
f 484 476 478
f 479 484 478
f 479 478 475
f 473 477 483
f 473 483 480
f 480 483 484
f 480 484 479
f 477 474 481
f 477 481 483
f 483 481 482
f 483 482 484
f 496 494 488
f 496 488 490
f 491 496 490
f 491 490 487
f 485 489 495
f 485 495 492
f 492 495 496
f 492 496 491
f 489 486 493
f 489 493 495
f 495 493 494
f 495 494 496
f 508 506 500
f 508 500 502
f 503 508 502
f 503 502 499
f 497 501 507
f 497 507 504
f 504 507 508
f 504 508 503
f 501 498 505
f 501 505 507
f 507 505 506
f 507 506 508
f 520 518 512
f 520 512 514
f 515 520 514
f 515 514 511
f 509 513 519
f 509 519 516
f 516 519 520
f 516 520 515
f 513 510 517
f 513 517 519
f 519 517 518
f 519 518 520
