# Blender v2.79 (sub 0) OBJ File: 'Pine_1.blend'
# www.blender.org
mtllib Pine_1.mtl
o Pine_1_Cylinder.025
v 0.048881 0.000806 0.143743
v 0.084478 -0.000605 0.013136
v -0.062229 0.002764 0.233261
v -0.202702 0.003984 0.235092
v -0.309868 0.004050 0.156588
v -0.353060 0.003620 0.032958
v -0.317687 0.002806 -0.096568
v -0.210177 0.001419 -0.183359
v -0.071677 -0.000099 -0.188314
v 0.039819 -0.000910 -0.111345
v -0.174212 3.052703 0.056387
v -0.157669 3.084313 -0.037469
v -0.244513 3.023952 0.122242
v -0.345008 3.019744 0.128013
v -0.429770 3.036980 0.073009
v -0.469724 3.062013 -0.017493
v -0.450391 3.085537 -0.114544
v -0.374475 3.099586 -0.178590
v -0.276129 3.106421 -0.181351
v -0.195653 3.104015 -0.126667
v -0.086620 7.528549 -0.066000
v -0.077165 7.526626 -0.093982
v -0.107199 7.540370 -0.048890
v -0.130716 7.557324 -0.048921
v -0.148396 7.573082 -0.066081
v -0.153142 7.581400 -0.094081
v -0.143065 7.578840 -0.121460
v -0.122891 7.567028 -0.137597
v -0.100252 7.550708 -0.137568
v -0.082710 7.535332 -0.121380
v -0.101717 6.704672 -0.062791
v -0.084299 6.701888 -0.119697
v -0.148728 6.699169 -0.026351
v -0.207305 6.688752 -0.025078
v -0.254676 6.677508 -0.059239
v -0.272627 6.668462 -0.115005
v -0.255371 6.664072 -0.171185
v -0.208471 6.666114 -0.208181
v -0.148671 6.676738 -0.209836
v -0.101863 6.691323 -0.175238
v -0.046859 4.863619 0.083228
v 0.057808 4.379840 0.089107
v 0.078691 4.377275 0.010828
v -0.021407 4.863390 0.004260
v -0.110646 4.844652 0.135126
v -0.006190 4.375162 0.140027
v -0.191203 4.815605 0.138557
v -0.086466 4.368944 0.141605
v -0.257188 4.788016 0.090656
v -0.151230 4.363591 0.096754
v -0.281887 4.771012 0.010144
v -0.179210 4.356808 0.023381
v -0.256076 4.770503 -0.071570
v -0.160417 4.351777 -0.053800
v -0.187915 4.783508 -0.123807
v -0.099255 4.348299 -0.106321
v -0.104790 4.811772 -0.124928
v -0.017258 4.356164 -0.110717
v -0.042548 4.845259 -0.074341
v 0.050760 4.369403 -0.064940
v -0.352571 0.423442 -0.050805
v -0.269002 0.479490 -0.132031
v -0.221475 0.438954 0.264653
v -0.321083 0.400541 0.190744
v -0.015778 0.596746 0.055556
v -0.029103 0.564171 0.177635
v -0.157221 0.543234 -0.134646
v -0.370580 0.394600 0.073000
v -0.106062 0.501846 0.261365
v -0.063365 0.588820 -0.061694
v -0.491126 1.867210 -0.156446
v -0.377417 1.819044 0.110401
v -0.169723 1.877816 -0.071157
v -0.408195 1.881410 -0.226740
v -0.469718 1.829680 0.049418
v -0.188813 1.851769 0.032571
v -0.300129 1.890877 -0.230305
v -0.512763 1.847952 -0.050276
v -0.267118 1.826053 0.104895
v -0.211198 1.892135 -0.169937
v -2.739909 3.612569 -1.045168
v -2.860006 3.854158 0.878910
v -0.049056 4.355471 -1.028058
v -0.169153 4.597059 0.896020
v -2.859568 3.908282 -0.107439
v -0.168715 4.651183 -0.090329
v -0.993429 4.001754 -1.045387
v -1.886246 3.496754 -1.041690
v -2.006343 3.738342 0.882388
v -1.113526 4.243343 0.878691
v -2.005905 3.792466 -0.103961
v -1.113089 4.297467 -0.107658
v 1.414842 3.852786 2.349949
v 2.565209 3.966985 0.788575
v -0.830947 4.465281 0.812703
v 0.319420 4.579481 -0.748671
v 2.026693 4.088697 1.607836
v -0.219095 4.701192 0.070590
v -0.048937 4.158421 1.369185
v 0.701359 3.696909 1.892306
v 1.851726 3.811109 0.330932
v 1.101430 4.272621 -0.192188
v 1.313210 3.932821 1.150193
v 0.562915 4.394332 0.627072
v -0.583732 3.741013 -2.812084
v -2.292768 3.942718 -1.910430
v 0.791388 4.428989 -0.485346
v -0.917648 4.630695 0.416308
v -1.450110 4.018439 -2.420480
v -0.074990 4.706415 -0.093742
v 0.319356 4.094841 -1.310108
v -0.142418 3.607975 -2.083650
v -1.851454 3.809681 -1.181996
v -1.389680 4.296546 -0.408455
v -1.008796 3.885401 -1.692045
v -0.547022 4.372266 -0.918504
v 2.300483 3.587873 -1.395722
v 0.809208 3.733571 -2.632544
v 0.689758 4.406270 0.732347
v -0.801518 4.551968 -0.504476
v 1.605711 3.834814 -2.057092
v -0.005015 4.653211 0.070977
v 1.266244 4.026745 -0.003100
v 1.798737 3.496650 -0.701391
v 0.307461 3.642348 -1.938214
v -0.225032 4.172443 -1.239922
v 1.103964 3.743592 -1.362761
v 0.571471 4.273686 -0.664470
v -1.909717 3.633485 2.062039
v -0.112397 3.831204 2.772961
v -1.031507 4.305969 -0.501046
v 0.765813 4.503688 0.209877
v -1.047271 3.909284 2.463562
v -0.169061 4.581768 -0.099523
v -1.353375 3.977300 0.396526
v -1.643921 3.495598 1.254260
v 0.153399 3.693318 1.965182
v 0.443945 4.175020 1.107448
v -0.781475 3.771398 1.655782
v -0.490928 4.253100 0.798049
v -1.622170 6.368796 -0.580488
v -1.623618 6.520487 0.512708
v -0.125321 6.940273 -0.675160
v -0.126769 7.091962 0.418036
v -1.663374 6.559086 -0.045519
v -0.166525 7.130562 -0.140191
v -0.647983 6.678010 -0.648253
v -1.135633 6.316766 -0.611288
v -1.137081 6.468455 0.481908
v -0.649430 6.829700 0.444944
v -1.176837 6.507056 -0.076319
v -0.689187 6.868302 -0.113284
v 0.686066 6.631853 1.307667
v 1.395158 6.750038 0.470684
v -0.541750 6.983504 0.346005
v 0.167342 7.101689 -0.490978
v 1.053815 6.810461 0.912174
v -0.174001 7.162112 -0.049488
v -0.111939 6.798805 0.693020
v 0.306453 6.510737 1.020144
v 1.015545 6.628922 0.183161
v 0.597153 6.916990 -0.143963
v 0.674202 6.689345 0.624651
v 0.255810 6.977413 0.297527
v -0.414977 6.520945 -1.638919
v -1.372395 6.601875 -1.095994
v 0.384782 7.008743 -0.346267
v -0.572636 7.089671 0.196658
v -0.907422 6.678504 -1.400964
v -0.107664 7.166300 -0.108312
v 0.113032 6.776348 -0.804683
v -0.146837 6.442680 -1.234120
v -1.104254 6.523609 -0.691194
v -0.844386 6.857277 -0.261758
v -0.639283 6.600239 -0.996164
v -0.379414 6.933907 -0.566728
v 1.276021 6.498354 -0.735048
v 0.511216 6.560317 -1.528663
v 0.205303 6.982173 0.357912
v -0.559502 7.044135 -0.435703
v 0.919214 6.646627 -1.153275
v -0.151503 7.130446 -0.060316
v 0.589718 6.751348 -0.018254
v 0.951996 6.419079 -0.375893
v 0.187191 6.481040 -1.169508
v -0.175087 6.813311 -0.811869
v 0.595189 6.567350 -0.794121
v 0.232912 6.899620 -0.436482
v -1.102231 6.395348 1.164535
v -0.071871 6.576806 1.517102
v -0.699450 6.874860 -0.312764
v 0.330910 7.056318 0.039803
v -0.612164 6.602345 1.367687
v -0.209383 7.081857 -0.109612
v -0.845495 6.644673 0.205095
v -0.969821 6.313926 0.699715
v 0.060539 6.495384 1.052281
v 0.184865 6.826130 0.557661
v -0.479754 6.520924 0.902866
v -0.355428 6.851671 0.408246
v -0.980784 7.066448 -0.410651
v -1.018098 7.142948 0.241841
v -0.083571 7.399200 -0.408691
v -0.120885 7.475698 0.243800
v -1.022529 7.173306 -0.091205
v -0.125316 7.506056 -0.089245
v -0.396980 7.245709 -0.413855
v -0.690420 7.032878 -0.413137
v -0.727733 7.109375 0.239355
v -0.434293 7.322206 0.238637
v -0.732164 7.139736 -0.093691
v -0.438724 7.352564 -0.094409
v 0.318257 7.186883 0.741881
v 0.758462 7.264009 0.259193
v -0.391833 7.415949 0.148698
v 0.048372 7.493075 -0.333990
v 0.546395 7.296309 0.516067
v -0.163695 7.525376 -0.077117
v -0.143797 7.298913 0.361724
v 0.097289 7.120584 0.561319
v 0.537493 7.197711 0.078631
v 0.296407 7.376039 -0.120964
v 0.325426 7.230012 0.335504
v 0.084340 7.408339 0.135909
v -0.224486 7.164639 -1.048329
v -0.813053 7.211802 -0.757966
v 0.208355 7.434065 -0.244608
v -0.380212 7.481227 0.045755
v -0.525135 7.258523 -0.922040
v -0.092295 7.527948 -0.118319
v 0.061603 7.303036 -0.529991
v -0.079642 7.111205 -0.799035
v -0.668209 7.158368 -0.508672
v -0.526964 7.350201 -0.239628
v -0.380292 7.205090 -0.672745
v -0.239046 7.396922 -0.403702
v 0.687880 7.130780 -0.481706
v 0.232683 7.182158 -0.954277
v 0.051509 7.410602 0.175624
v -0.403689 7.461982 -0.296947
v 0.476179 7.226523 -0.729216
v -0.160193 7.506345 -0.071886
v 0.279669 7.275879 -0.051444
v 0.494080 7.080568 -0.268803
v 0.038883 7.131948 -0.741374
v -0.175528 7.327259 -0.524015
v 0.282378 7.176311 -0.516313
v 0.067967 7.371622 -0.298954
v -0.760097 7.057834 0.606669
v -0.167982 7.155366 0.877140
v -0.434248 7.360165 -0.240440
v 0.157867 7.457696 0.030031
v -0.479937 7.175706 0.757959
v -0.154088 7.478036 -0.089150
v -0.551643 7.217201 0.055405
v -0.655289 7.014468 0.337366
v -0.063173 7.111999 0.607836
v 0.040472 7.314732 0.325876
v -0.375128 7.132340 0.488655
v -0.271483 7.335073 0.206695
v -2.153115 5.530313 0.500658
v -1.304311 5.709634 1.694953
v -0.587886 6.197548 -0.765495
v 0.260918 6.376869 0.428800
v -1.780646 5.750398 1.116410
v -0.215417 6.417633 -0.149743
v -1.139880 5.892815 -0.330029
v -1.646958 5.475280 0.089347
v -0.798154 5.654601 1.283642
v -0.291076 6.072137 0.864267
v -1.274489 5.695364 0.705099
v -0.767412 6.112899 0.285723
v 1.872847 5.866374 0.746503
v 1.958293 6.003501 -0.720645
v -0.210866 6.251589 0.705737
v -0.125421 6.388717 -0.761410
v 1.949511 6.071859 0.026769
v -0.134202 6.457074 -0.013996
v 0.526248 6.046356 0.731184
v 1.234007 5.722701 0.744661
v 1.319453 5.859829 -0.722486
v 0.611694 6.183484 -0.735963
v 1.310671 5.928186 0.024928
v 0.602912 6.251841 0.011451
v -1.615504 5.712774 -1.610650
v -2.260862 5.799101 -0.285962
v 0.251357 6.285123 -0.787890
v -0.394001 6.371449 0.536797
v -1.977439 5.889526 -0.975053
v -0.110579 6.461875 -0.152294
v -0.398232 6.014330 -1.088595
v -1.013867 5.627997 -1.366168
v -1.659225 5.714325 -0.041480
v -1.043590 6.100657 0.236092
v -1.375803 5.804750 -0.730570
v -0.760167 6.191082 -0.452999
v 0.919301 5.707314 -1.915773
v -0.528717 5.766450 -2.196326
v 0.594069 6.257172 0.106644
v -0.853949 6.316308 -0.173909
v 0.208099 5.871117 -2.099298
v -0.117132 6.420975 -0.076880
v 0.722717 5.994534 -0.601637
v 0.840288 5.615798 -1.272514
v -0.607731 5.674933 -1.553067
v -0.725301 6.053670 -0.882190
v 0.129086 5.779601 -1.456038
v 0.011516 6.158337 -0.785162
v -0.203625 5.578438 2.004165
v 1.191091 5.797617 1.573243
v -0.927529 6.122496 0.086288
v 0.467186 6.341675 -0.344635
v 0.489014 5.820893 1.837468
v -0.234891 6.364951 -0.080409
v -0.679694 5.860724 0.762487
v -0.427777 5.484039 1.396509
v 0.966938 5.703218 0.965587
v 0.715021 6.079904 0.331564
v 0.264861 5.726494 1.229813
v 0.012944 6.103180 0.595790
v -2.374900 4.595289 -0.920307
v -2.483831 4.801134 0.758080
v -0.063901 5.361215 -0.914452
v -0.172833 5.567060 0.763935
v -2.489093 4.847925 -0.102154
v -0.178094 5.613852 -0.096298
v -0.870892 5.011408 -0.926363
v -1.626226 4.532115 -0.920077
v -1.735157 4.737960 0.758310
v -0.979824 5.217253 0.752024
v -1.740419 4.784752 -0.101924
v -0.985085 5.264046 -0.108210
v 1.177599 4.981056 2.054429
v 2.233909 5.138466 0.739057
v -0.744188 5.423249 0.629582
v 0.312122 5.580659 -0.685790
v 1.728289 5.216935 1.432276
v -0.193498 5.659128 0.007428
v -0.071693 5.187660 1.143935
v 0.581311 4.816133 1.627556
v 1.637621 4.973544 0.312184
v 0.984617 5.345070 -0.171437
v 1.132000 5.052012 1.005403
v 0.478996 5.423539 0.521782
v -0.511529 4.804737 -2.467458
v -2.001992 4.903833 -1.667695
v 0.673816 5.461741 -0.447718
v -0.816646 5.560838 0.352045
v -1.275342 5.007634 -2.118842
v -0.089997 5.664639 -0.099101
v 0.271050 5.150897 -1.163926
v -0.115644 4.707422 -1.835796
v -1.606106 4.806519 -1.036032
v -1.219412 5.249993 -0.364163
v -0.879457 4.910318 -1.487179
v -0.492762 5.353794 -0.815309
v 2.042436 4.798470 -1.135444
v 0.817488 4.866353 -2.304253
v 0.474337 5.429658 0.616714
v -0.750611 5.497540 -0.552094
v 1.469149 4.986501 -1.753688
v -0.098950 5.617689 -0.001530
v 1.037755 5.128173 0.012225
v 1.567282 4.693418 -0.562997
v 0.342334 4.761300 -1.731806
v -0.187192 5.196056 -1.156584
v 0.993995 4.881449 -1.181241
v 0.464469 5.316204 -0.606020
v -1.613960 4.650531 1.834724
v -0.031146 4.902130 2.384832
v -0.978961 5.275062 -0.431138
v 0.603854 5.526660 0.118969
v -0.860083 4.928848 2.151662
v -0.225084 5.553379 -0.114201
v -1.209687 4.974571 0.362721
v -1.407953 4.542170 1.120355
v 0.174861 4.793768 1.670463
v 0.373127 5.226170 0.912829
v -0.654076 4.820487 1.437293
v -0.455810 5.252888 0.679658
v -1.648312 2.553430 -2.765185
v -3.139957 2.821806 -1.228508
v 0.609755 3.378706 -0.806373
v -0.881890 3.647083 0.730303
v -2.426866 2.881932 -2.060432
v -0.168799 3.707208 -0.101620
v -0.174546 2.985770 -1.503386
v -0.930539 2.424772 -2.145404
v -2.422185 2.693149 -0.608728
v -1.666192 3.254145 0.033290
v -1.709093 2.753274 -1.440652
v -0.953100 3.314271 -0.798634
v -0.686080 2.820283 3.084074
v 1.431348 2.947145 2.686476
v -1.346861 3.500692 0.133876
v 0.770567 3.627555 -0.263723
v 0.373218 3.082352 2.944395
v -0.287564 3.762763 -0.005804
v -1.132823 3.159807 1.178394
v -0.919289 2.647122 2.171781
v 1.198139 2.773984 1.774182
v 0.984606 3.286670 0.780796
v 0.140009 2.909191 2.032101
v -0.073525 3.421877 1.038714
v 1.434069 2.696116 -2.704044
v -0.666089 2.920187 -3.147945
v 0.955772 3.460377 0.260013
v -1.144385 3.684448 -0.183889
v 0.415928 3.004303 -2.985001
v -0.062368 3.768564 -0.020944
v 1.138476 3.089176 -0.779715
v 1.293556 2.548326 -1.768409
v -0.806602 2.772398 -2.212310
v -0.961682 3.313247 -1.223617
v 0.275415 2.856513 -2.049366
v 0.120335 3.397364 -1.060672
v 2.744853 2.525995 0.795626
v 2.649205 2.687849 -1.354504
v -0.208277 3.435138 1.059007
v -0.303926 3.596992 -1.091123
v 2.770341 2.800318 -0.269660
v -0.182789 3.709461 -0.006278
v 0.827108 3.013531 0.984299
v 1.799085 2.424657 0.901131
v 1.703437 2.586510 -1.249000
v 0.731459 3.175385 -1.165832
v 1.824573 2.698979 -0.164154
v 0.852595 3.287853 -0.080987
v -3.329480 2.454451 0.422284
v -2.342854 2.674094 2.329306
v -0.723537 3.201501 -1.083661
v 0.263090 3.421145 0.823361
v -2.900111 2.760832 1.387949
v -0.294168 3.507882 -0.117996
v -1.648116 2.836389 -0.566745
v -2.517390 2.301275 -0.060340
v -1.530764 2.520918 1.846681
v -0.661490 3.056032 1.340277
v -2.088022 2.607656 0.905325
v -1.218747 3.142771 0.398920
v -2.407425 2.038253 -3.480414
v -4.134016 2.392249 -1.439994
v 0.616264 2.585696 -1.121310
v -1.110327 2.939693 0.919110
v -3.290652 2.466542 -2.518173
v -0.266964 3.013986 -0.159069
v -0.448346 2.265569 -1.971713
v -1.495716 1.728103 -2.771980
v -3.222306 2.082099 -0.731560
v -2.174936 2.619566 0.068707
v -2.378944 2.156392 -1.809739
v -1.331573 2.693859 -1.009472
v 3.545733 1.117157 1.070055
v 3.550130 1.471153 -1.602848
v -0.286595 1.664601 1.216061
v -0.282199 2.018597 -1.456842
v 3.600543 1.545446 -0.234934
v -0.231788 2.092890 -0.088927
v 1.075485 1.344473 1.179780
v 2.392063 0.807007 1.116287
v 2.396460 1.161003 -1.556617
v 1.079881 1.698470 -1.493123
v 2.446871 1.235296 -0.188702
v 1.130293 1.772763 -0.125208
v 1.751473 4.326635 2.688117
v 2.958995 4.106924 0.811621
v -0.928836 4.853990 0.980216
v 0.278686 4.634278 -0.896280
v 2.407113 4.425415 1.756949
v -0.273196 4.952769 0.049048
v 0.002610 4.567863 1.616920
v 0.889185 4.101288 2.247498
v 2.096707 3.881577 0.371001
v 1.210132 4.348150 -0.259578
v 1.544825 4.200067 1.316330
v 0.658249 4.666641 0.685751
v 0.368420 1.490269 -3.106024
v -1.767692 1.693503 -2.873368
v 0.833264 2.326650 -0.156231
v -1.302848 2.529883 0.076425
v -0.690215 1.786657 -3.059323
v -0.225372 2.623038 -0.109528
v 0.685656 1.930243 -1.193742
v 0.529900 1.365381 -2.171035
v -1.606212 1.568614 -1.938379
v -1.450457 2.133476 -0.961087
v -0.528736 1.661769 -2.124333
v -0.372980 2.226631 -1.147040
v -2.785939 1.658646 1.871745
v -0.986552 1.838876 3.049626
v -1.243659 2.389455 -0.714865
v 0.555728 2.569685 0.463016
v -1.932744 1.946024 2.504021
v -0.390463 2.676833 -0.082589
v -1.801035 2.030352 0.187028
v -2.318195 1.500638 1.051441
v -0.518807 1.680869 2.229322
v -0.001647 2.210583 1.364910
v -1.464999 1.788016 1.683717
v -0.947839 2.317731 0.819304
v 2.678397 1.701602 -0.962140
v 1.413838 1.889696 -2.700942
v 0.311656 2.391649 0.914256
v -0.952903 2.579742 -0.824546
v 2.103412 1.993665 -1.853553
v -0.263330 2.683711 0.022843
v 1.156050 2.046852 0.265938
v 1.950893 1.530792 -0.363342
v 0.686334 1.718886 -2.102144
v -0.108508 2.234945 -1.472864
v 1.375907 1.822855 -1.254755
v 0.581065 2.338914 -0.625475
v 1.401702 1.490270 2.486025
v 2.683238 1.693503 0.761274
v -1.077635 2.326650 0.821619
v 0.203902 2.529883 -0.903133
v 2.087128 1.786657 1.677891
v -0.392208 2.623038 0.013484
v -0.216395 1.930244 1.418682
v 0.606220 1.365381 1.968832
v 1.887757 1.568614 0.244080
v 1.065141 2.133476 -0.306070
v 1.291646 1.661769 1.160697
v 0.469031 2.226631 0.610547
v -2.878756 1.413122 -1.714962
v -3.407775 1.616355 0.367643
v 0.047353 2.249502 -1.118932
v -0.481667 2.452735 0.963673
v -3.205200 1.709510 -0.706833
v -0.279093 2.545890 -0.110803
v -0.976272 1.853096 -1.343455
v -1.946329 1.288233 -1.539286
v -2.475348 1.491467 0.543319
v -1.505291 2.056329 0.739150
v -2.272774 1.584621 -0.531157
v -1.302717 2.149484 -0.335326
v 1.875066 0.498622 -2.673706
v -0.308096 0.710408 -3.509134
v 0.860375 1.370201 0.412342
v -1.322787 1.581987 -0.423085
v 0.827174 0.807483 -3.154137
v -0.187517 1.679062 -0.068088
v 1.232644 0.957112 -0.665205
v 1.567128 0.368477 -1.688508
v -0.616034 0.580263 -2.523936
v -0.950517 1.168898 -1.500632
v 0.519236 0.677338 -2.168938
v 0.184753 1.265973 -1.145635
v -3.698487 0.674084 0.466645
v -2.608521 0.861899 2.536836
v -0.866158 1.435649 -1.179829
v 0.223807 1.623465 0.890361
v -3.220608 0.973556 1.518422
v -0.388279 1.735122 -0.128053
v -1.872388 1.061433 -0.616094
v -2.820581 0.509426 -0.066787
v -1.730616 0.697242 2.003405
v -0.782423 1.249249 1.454097
v -2.342702 0.808899 0.984990
v -1.394510 1.360906 0.435682
v 3.006647 0.718848 0.589192
v 2.668952 0.914858 -1.725226
v -0.222115 1.437935 1.198256
v -0.559809 1.633945 -1.116163
v 2.904112 1.023202 -0.560217
v -0.324649 1.742289 0.048847
v 0.919132 1.078628 1.001307
v 2.003026 0.540850 0.797613
v 1.665330 0.736860 -1.516805
v 0.581437 1.274637 -1.313111
v 1.900490 0.845204 -0.351796
v 0.816597 1.382981 -0.148102
v -0.042955 0.492015 3.254549
v 2.093942 0.703802 2.307026
v -1.500195 1.363595 0.351147
v 0.636703 1.575381 -0.596376
v 1.038755 0.800876 2.856062
v -0.418485 1.672456 -0.047341
v -1.004116 0.950505 1.377595
v -0.519507 0.361871 2.338939
v 1.617391 0.573657 1.391417
v 1.132782 1.162291 0.430072
v 0.562203 0.670732 1.940452
v 0.077594 1.259366 0.979108
v -2.007892 0.418227 -2.972695
v -3.517764 0.630014 -1.188201
v 0.569543 1.289806 -0.995291
v -0.940329 1.501593 0.789203
v -2.807585 0.727088 -2.142406
v -0.230151 1.598668 -0.165002
v -0.324473 0.876717 -1.702699
v -1.179779 0.288083 -2.356519
v -2.689651 0.499869 -0.572025
v -1.834346 1.088504 0.081796
v -1.979473 0.596944 -1.526230
v -1.124167 1.185578 -0.872410
vt 0.161764 0.724387
vt 0.202446 0.719763
vt 0.205259 1.190303
vt 0.167432 1.193892
vt 0.283560 0.704211
vt 0.325742 0.697985
vt 0.319552 1.166479
vt 0.281201 1.173267
vt 0.412012 0.714508
vt 0.452948 0.731679
vt 0.428965 1.182395
vt 0.393448 1.175349
vt 0.534659 0.745943
vt 0.575579 0.746833
vt 0.537419 1.195726
vt 0.500562 1.192932
vt 0.242837 0.712456
vt 0.243332 1.182434
vt 0.369578 0.699278
vt 0.357379 1.167773
vt 0.493837 0.742230
vt 0.464695 1.188806
vt 0.350168 1.825112
vt 0.319871 1.824383
vt 0.169599 2.623035
vt 0.212577 1.976987
vt 0.242600 1.982826
vt 0.192663 2.627234
vt 0.122921 2.624679
vt 0.146336 2.622140
vt 0.161134 2.990989
vt 0.150246 2.987349
vt 0.473042 1.830725
vt 0.441792 1.826927
vt 0.260377 1.824099
vt 0.230526 1.820093
vt 0.410548 1.826014
vt 0.200485 1.813564
vt 0.290118 1.824527
vt 0.380283 1.825320
vt 0.171033 1.806416
vt 0.329955 2.651370
vt 0.353840 2.651085
vt 0.254742 2.996430
vt 0.246964 2.988436
vt 0.184418 2.988815
vt 0.172921 2.991666
vt 0.215220 2.634710
vt 0.194792 2.983679
vt 0.306516 2.653252
vt 0.238371 2.981065
vt 0.237466 2.643572
vt 0.205011 2.978453
vt 0.283361 2.653436
vt 0.227824 2.976168
vt 0.659443 0.028990
vt 0.648685 0.032325
vt 0.638162 0.028665
vt 0.631954 0.019822
vt 0.631954 0.009202
vt 0.638161 0.000353
vt 0.648684 -0.003316
vt 0.659442 0.000011
vt 0.666029 0.008982
vt 0.666029 0.020014
vt 0.363607 2.014525
vt 0.260140 2.650419
vt 0.331799 2.009936
vt 0.396322 2.011962
vt 0.429536 2.004749
vt 0.181966 1.973297
vt 0.272209 1.990366
vt 0.301502 2.000067
vt 0.150190 1.973177
vt 0.462954 1.999770
vt 0.216156 2.975321
vt 0.483197 -0.003316
vt 0.532241 -0.001449
vt 0.517951 0.224660
vt 0.470080 0.221633
vt 0.324921 0.015734
vt 0.378489 0.007964
vt 0.384060 0.190086
vt 0.339812 0.177295
vt 0.174706 0.025133
vt 0.225054 0.023827
vt 0.245521 0.171151
vt 0.199182 0.184447
vt 0.581547 0.006414
vt 0.565914 0.214270
vt 0.432505 0.000369
vt 0.425858 0.206741
vt 0.274442 0.020891
vt 0.293107 0.169638
vt 0.631700 0.018879
vt 0.612371 0.198460
vt 0.122926 0.025467
vt 0.155384 0.205800
vt 0.500000 0.328429
vt 0.177443 0.328429
vt 0.177443 -0.004850
vt 0.500000 -0.004850
vt 0.822557 0.328429
vt 0.822557 -0.004850
vt 0.822557 0.994989
vt 0.500000 0.994989
vt 0.500000 0.661709
vt 0.822557 0.661709
vt 0.177443 0.994989
vt 0.177443 0.661709
vt 0.500000 0.328429
vt 0.177443 0.328429
vt 0.177443 -0.004850
vt 0.500000 -0.004850
vt 0.822557 0.328429
vt 0.822557 -0.004850
vt 0.822557 0.994989
vt 0.500000 0.994989
vt 0.500000 0.661709
vt 0.822557 0.661709
vt 0.177443 0.994989
vt 0.177443 0.661709
vt 0.500000 0.328429
vt 0.177443 0.328429
vt 0.177443 -0.004850
vt 0.500000 -0.004850
vt 0.822557 0.328429
vt 0.822557 -0.004850
vt 0.822557 0.994989
vt 0.500000 0.994989
vt 0.500000 0.661709
vt 0.822557 0.661709
vt 0.177443 0.994989
vt 0.177443 0.661709
vt 0.500000 0.328429
vt 0.177443 0.328429
vt 0.177443 -0.004850
vt 0.500000 -0.004850
vt 0.822557 0.328429
vt 0.822557 -0.004850
vt 0.822557 0.994989
vt 0.500000 0.994989
vt 0.500000 0.661709
vt 0.822557 0.661709
vt 0.177443 0.994989
vt 0.177443 0.661709
vt 0.500000 0.328429
vt 0.177443 0.328429
vt 0.177443 -0.004850
vt 0.500000 -0.004850
vt 0.822557 0.328429
vt 0.822557 -0.004850
vt 0.822557 0.994989
vt 0.500000 0.994989
vt 0.500000 0.661709
vt 0.822557 0.661709
vt 0.177443 0.994989
vt 0.177443 0.661709
vt 0.500000 0.328429
vt 0.177443 0.328429
vt 0.177443 -0.004850
vt 0.500000 -0.004850
vt 0.822557 0.328429
vt 0.822557 -0.004850
vt 0.822557 0.994989
vt 0.500000 0.994989
vt 0.500000 0.661709
vt 0.822557 0.661709
vt 0.177443 0.994989
vt 0.177443 0.661709
vt 0.500000 0.328429
vt 0.177443 0.328429
vt 0.177443 -0.004850
vt 0.500000 -0.004850
vt 0.822557 0.328429
vt 0.822557 -0.004850
vt 0.822557 0.994989
vt 0.500000 0.994989
vt 0.500000 0.661709
vt 0.822557 0.661709
vt 0.177443 0.994989
vt 0.177443 0.661709
vt 0.500000 0.328429
vt 0.177443 0.328429
vt 0.177443 -0.004850
vt 0.500000 -0.004850
vt 0.822557 0.328429
vt 0.822557 -0.004850
vt 0.822557 0.994989
vt 0.500000 0.994989
vt 0.500000 0.661709
vt 0.822557 0.661709
vt 0.177443 0.994989
vt 0.177443 0.661709
vt 0.500000 0.328429
vt 0.177443 0.328429
vt 0.177443 -0.004850
vt 0.500000 -0.004850
vt 0.822557 0.328429
vt 0.822557 -0.004850
vt 0.822557 0.994989
vt 0.500000 0.994989
vt 0.500000 0.661709
vt 0.822557 0.661709
vt 0.177443 0.994989
vt 0.177443 0.661709
vt 0.500000 0.328429
vt 0.177443 0.328429
vt 0.177443 -0.004850
vt 0.500000 -0.004850
vt 0.822557 0.328429
vt 0.822557 -0.004850
vt 0.822557 0.994989
vt 0.500000 0.994989
vt 0.500000 0.661709
vt 0.822557 0.661709
vt 0.177443 0.994989
vt 0.177443 0.661709
vt 0.500000 0.328429
vt 0.177443 0.328429
vt 0.177443 -0.004850
vt 0.500000 -0.004850
vt 0.822557 0.328429
vt 0.822557 -0.004850
vt 0.822557 0.994989
vt 0.500000 0.994989
vt 0.500000 0.661709
vt 0.822557 0.661709
vt 0.177443 0.994989
vt 0.177443 0.661709
vt 0.500000 0.328429
vt 0.177443 0.328429
vt 0.177443 -0.004850
vt 0.500000 -0.004850
vt 0.822557 0.328429
vt 0.822557 -0.004850
vt 0.822557 0.994989
vt 0.500000 0.994989
vt 0.500000 0.661709
vt 0.822557 0.661709
vt 0.177443 0.994989
vt 0.177443 0.661709
vt 0.500000 0.328429
vt 0.177443 0.328429
vt 0.177443 -0.004850
vt 0.500000 -0.004850
vt 0.822557 0.328429
vt 0.822557 -0.004850
vt 0.822557 0.994989
vt 0.500000 0.994989
vt 0.500000 0.661709
vt 0.822557 0.661709
vt 0.177443 0.994989
vt 0.177443 0.661709
vt 0.500000 0.328429
vt 0.177443 0.328429
vt 0.177443 -0.004850
vt 0.500000 -0.004850
vt 0.822557 0.328429
vt 0.822557 -0.004850
vt 0.822557 0.994989
vt 0.500000 0.994989
vt 0.500000 0.661709
vt 0.822557 0.661709
vt 0.177443 0.994989
vt 0.177443 0.661709
vt 0.500000 0.328429
vt 0.177443 0.328429
vt 0.177443 -0.004850
vt 0.500000 -0.004850
vt 0.822557 0.328429
vt 0.822557 -0.004850
vt 0.822557 0.994989
vt 0.500000 0.994989
vt 0.500000 0.661709
vt 0.822557 0.661709
vt 0.177443 0.994989
vt 0.177443 0.661709
vt 0.500000 0.328429
vt 0.177443 0.328429
vt 0.177443 -0.004850
vt 0.500000 -0.004850
vt 0.822557 0.328429
vt 0.822557 -0.004850
vt 0.822557 0.994989
vt 0.500000 0.994989
vt 0.500000 0.661709
vt 0.822557 0.661709
vt 0.177443 0.994989
vt 0.177443 0.661709
vt 0.500000 0.328429
vt 0.177443 0.328429
vt 0.177443 -0.004850
vt 0.500000 -0.004850
vt 0.822557 0.328429
vt 0.822557 -0.004850
vt 0.822557 0.994989
vt 0.500000 0.994989
vt 0.500000 0.661709
vt 0.822557 0.661709
vt 0.177443 0.994989
vt 0.177443 0.661709
vt 0.500000 0.328429
vt 0.177443 0.328429
vt 0.177443 -0.004850
vt 0.500000 -0.004850
vt 0.822557 0.328429
vt 0.822557 -0.004850
vt 0.822557 0.994989
vt 0.500000 0.994989
vt 0.500000 0.661709
vt 0.822557 0.661709
vt 0.177443 0.994989
vt 0.177443 0.661709
vt 0.500000 0.328429
vt 0.177443 0.328429
vt 0.177443 -0.004850
vt 0.500000 -0.004850
vt 0.822557 0.328429
vt 0.822557 -0.004850
vt 0.822557 0.994989
vt 0.500000 0.994989
vt 0.500000 0.661709
vt 0.822557 0.661709
vt 0.177443 0.994989
vt 0.177443 0.661709
vt 0.500000 0.328429
vt 0.177443 0.328429
vt 0.177443 -0.004850
vt 0.500000 -0.004850
vt 0.822557 0.328429
vt 0.822557 -0.004850
vt 0.822557 0.994989
vt 0.500000 0.994989
vt 0.500000 0.661709
vt 0.822557 0.661709
vt 0.177443 0.994989
vt 0.177443 0.661709
vt 0.500000 0.328429
vt 0.177443 0.328429
vt 0.177443 -0.004850
vt 0.500000 -0.004850
vt 0.822557 0.328429
vt 0.822557 -0.004850
vt 0.822557 0.994989
vt 0.500000 0.994989
vt 0.500000 0.661709
vt 0.822557 0.661709
vt 0.177443 0.994989
vt 0.177443 0.661709
vt 0.500000 0.328429
vt 0.177443 0.328429
vt 0.177443 -0.004850
vt 0.500000 -0.004850
vt 0.822557 0.328429
vt 0.822557 -0.004850
vt 0.822557 0.994989
vt 0.500000 0.994989
vt 0.500000 0.661709
vt 0.822557 0.661709
vt 0.177443 0.994989
vt 0.177443 0.661709
vt 0.500000 0.328429
vt 0.177443 0.328429
vt 0.177443 -0.004850
vt 0.500000 -0.004850
vt 0.822557 0.328429
vt 0.822557 -0.004850
vt 0.822557 0.994989
vt 0.500000 0.994989
vt 0.500000 0.661709
vt 0.822557 0.661709
vt 0.177443 0.994989
vt 0.177443 0.661709
vt 0.500000 0.328429
vt 0.177443 0.328429
vt 0.177443 -0.004850
vt 0.500000 -0.004850
vt 0.822557 0.328429
vt 0.822557 -0.004850
vt 0.822557 0.994989
vt 0.500000 0.994989
vt 0.500000 0.661709
vt 0.822557 0.661709
vt 0.177443 0.994989
vt 0.177443 0.661709
vt 0.500000 0.328429
vt 0.177443 0.328429
vt 0.177443 -0.004850
vt 0.500000 -0.004850
vt 0.822557 0.328429
vt 0.822557 -0.004850
vt 0.822557 0.994989
vt 0.500000 0.994989
vt 0.500000 0.661709
vt 0.822557 0.661709
vt 0.177443 0.994989
vt 0.177443 0.661709
vt 0.500000 0.328429
vt 0.177443 0.328429
vt 0.177443 -0.004850
vt 0.500000 -0.004850
vt 0.822557 0.328429
vt 0.822557 -0.004850
vt 0.822557 0.994989
vt 0.500000 0.994989
vt 0.500000 0.661709
vt 0.822557 0.661709
vt 0.177443 0.994989
vt 0.177443 0.661709
vt 0.500000 0.328429
vt 0.177443 0.328429
vt 0.177443 -0.004850
vt 0.500000 -0.004850
vt 0.822557 0.328429
vt 0.822557 -0.004850
vt 0.822557 0.994989
vt 0.500000 0.994989
vt 0.500000 0.661709
vt 0.822557 0.661709
vt 0.177443 0.994989
vt 0.177443 0.661709
vt 0.500000 0.328429
vt 0.177443 0.328429
vt 0.177443 -0.004850
vt 0.500000 -0.004850
vt 0.822557 0.328429
vt 0.822557 -0.004850
vt 0.822557 0.994989
vt 0.500000 0.994989
vt 0.500000 0.661709
vt 0.822557 0.661709
vt 0.177443 0.994989
vt 0.177443 0.661709
vt 0.500000 0.328429
vt 0.177443 0.328429
vt 0.177443 -0.004850
vt 0.500000 -0.004850
vt 0.822557 0.328429
vt 0.822557 -0.004850
vt 0.822557 0.994989
vt 0.500000 0.994989
vt 0.500000 0.661709
vt 0.822557 0.661709
vt 0.177443 0.994989
vt 0.177443 0.661709
vt 0.500000 0.328429
vt 0.177443 0.328429
vt 0.177443 -0.004850
vt 0.500000 -0.004850
vt 0.822557 0.328429
vt 0.822557 -0.004850
vt 0.822557 0.994989
vt 0.500000 0.994989
vt 0.500000 0.661709
vt 0.822557 0.661709
vt 0.177443 0.994989
vt 0.177443 0.661709
vt 0.500000 0.328429
vt 0.177443 0.328429
vt 0.177443 -0.004850
vt 0.500000 -0.004850
vt 0.822557 0.328429
vt 0.822557 -0.004850
vt 0.822557 0.994989
vt 0.500000 0.994989
vt 0.500000 0.661709
vt 0.822557 0.661709
vt 0.177443 0.994989
vt 0.177443 0.661709
vt 0.500000 0.328429
vt 0.177443 0.328429
vt 0.177443 -0.004850
vt 0.500000 -0.004850
vt 0.822557 0.328429
vt 0.822557 -0.004850
vt 0.822557 0.994989
vt 0.500000 0.994989
vt 0.500000 0.661709
vt 0.822557 0.661709
vt 0.177443 0.994989
vt 0.177443 0.661709
vt 0.500000 0.328429
vt 0.177443 0.328429
vt 0.177443 -0.004850
vt 0.500000 -0.004850
vt 0.822557 0.328429
vt 0.822557 -0.004850
vt 0.822557 0.994989
vt 0.500000 0.994989
vt 0.500000 0.661709
vt 0.822557 0.661709
vt 0.177443 0.994989
vt 0.177443 0.661709
vt 0.500000 0.328429
vt 0.177443 0.328429
vt 0.177443 -0.004850
vt 0.500000 -0.004850
vt 0.822557 0.328429
vt 0.822557 -0.004850
vt 0.822557 0.994989
vt 0.500000 0.994989
vt 0.500000 0.661709
vt 0.822557 0.661709
vt 0.177443 0.994989
vt 0.177443 0.661709
vt 0.500000 0.328429
vt 0.177443 0.328429
vt 0.177443 -0.004850
vt 0.500000 -0.004850
vt 0.822557 0.328429
vt 0.822557 -0.004850
vt 0.822557 0.994989
vt 0.500000 0.994989
vt 0.500000 0.661709
vt 0.822557 0.661709
vt 0.177443 0.994989
vt 0.177443 0.661709
vt 0.500000 0.328429
vt 0.177443 0.328429
vt 0.177443 -0.004850
vt 0.500000 -0.004850
vt 0.822557 0.328429
vt 0.822557 -0.004850
vt 0.822557 0.994989
vt 0.500000 0.994989
vt 0.500000 0.661709
vt 0.822557 0.661709
vt 0.177443 0.994989
vt 0.177443 0.661709
vt 0.500000 0.328429
vt 0.177443 0.328429
vt 0.177443 -0.004850
vt 0.500000 -0.004850
vt 0.822557 0.328429
vt 0.822557 -0.004850
vt 0.822557 0.994989
vt 0.500000 0.994989
vt 0.500000 0.661709
vt 0.822557 0.661709
vt 0.177443 0.994989
vt 0.177443 0.661709
vt 0.500000 0.328429
vt 0.177443 0.328429
vt 0.177443 -0.004850
vt 0.500000 -0.004850
vt 0.822557 0.328429
vt 0.822557 -0.004850
vt 0.822557 0.994989
vt 0.500000 0.994989
vt 0.500000 0.661709
vt 0.822557 0.661709
vt 0.177443 0.994989
vt 0.177443 0.661709
vt 0.500000 0.328429
vt 0.177443 0.328429
vt 0.177443 -0.004850
vt 0.500000 -0.004850
vt 0.822557 0.328429
vt 0.822557 -0.004850
vt 0.822557 0.994989
vt 0.500000 0.994989
vt 0.500000 0.661709
vt 0.822557 0.661709
vt 0.177443 0.994989
vt 0.177443 0.661709
vt 0.500000 0.328429
vt 0.177443 0.328429
vt 0.177443 -0.004850
vt 0.500000 -0.004850
vt 0.822557 0.328429
vt 0.822557 -0.004850
vt 0.822557 0.994989
vt 0.500000 0.994989
vt 0.500000 0.661709
vt 0.822557 0.661709
vt 0.177443 0.994989
vt 0.177443 0.661709
vt 0.500000 0.328429
vt 0.177443 0.328429
vt 0.177443 -0.004850
vt 0.500000 -0.004850
vt 0.822557 0.328429
vt 0.822557 -0.004850
vt 0.822557 0.994989
vt 0.500000 0.994989
vt 0.500000 0.661709
vt 0.822557 0.661709
vt 0.177443 0.994989
vt 0.177443 0.661709
vt 0.500000 0.328429
vt 0.177443 0.328429
vt 0.177443 -0.004850
vt 0.500000 -0.004850
vt 0.822557 0.328429
vt 0.822557 -0.004850
vt 0.822557 0.994989
vt 0.500000 0.994989
vt 0.500000 0.661709
vt 0.822557 0.661709
vt 0.177443 0.994989
vt 0.177443 0.661709
vt 0.500000 0.328429
vt 0.177443 0.328429
vt 0.177443 -0.004850
vt 0.500000 -0.004850
vt 0.822557 0.328429
vt 0.822557 -0.004850
vt 0.822557 0.994989
vt 0.500000 0.994989
vt 0.500000 0.661709
vt 0.822557 0.661709
vt 0.177443 0.994989
vt 0.177443 0.661709
vn -0.3620 -0.0239 -0.9319
vn -0.8615 -0.0352 -0.5065
vn -0.8611 0.1337 -0.4905
vn -0.3803 0.0955 -0.9199
vn -0.7806 -0.0068 0.6249
vn -0.2975 0.0328 0.9542
vn -0.2775 0.0178 0.9606
vn -0.7673 0.0774 0.6366
vn 0.8761 0.0700 0.4770
vn 0.9916 0.0466 -0.1210
vn 0.9893 -0.0955 -0.1105
vn 0.8701 -0.0893 0.4847
vn 0.2780 -0.0008 -0.9606
vn 0.2579 0.0203 -0.9660
vn -0.9948 -0.0302 0.0968
vn -0.9867 0.1215 0.1079
vn 0.3634 0.0712 0.9289
vn 0.3729 -0.0428 0.9269
vn 0.7703 0.0231 -0.6373
vn 0.7663 -0.0561 -0.6400
vn 0.8592 0.0138 0.5114
vn 0.3928 0.0005 0.9196
vn -0.9975 0.0659 -0.0239
vn -0.9922 -0.1218 0.0275
vn -0.8037 -0.0702 0.5908
vn -0.8304 0.0763 0.5519
vn -0.3319 0.0268 -0.9429
vn -0.8151 0.0469 -0.5774
vn -0.8333 0.1312 -0.5370
vn -0.4204 0.1105 -0.9006
vn -0.3213 0.0167 -0.9468
vn 0.3194 0.0057 -0.9476
vn -0.7549 -0.0191 0.6556
vn -0.9960 -0.0109 0.0888
vn 0.8025 0.0104 -0.5966
vn -0.8419 0.0057 -0.5396
vn -0.2336 -0.0097 0.9723
vn 0.9981 0.0160 -0.0592
vn 0.3122 0.0144 -0.9499
vn 0.2115 0.0685 -0.9750
vn -0.8726 0.1078 0.4764
vn -0.9902 0.1305 -0.0496
vn -0.3259 0.0702 0.9428
vn -0.4271 0.0636 0.9020
vn 0.8239 0.0090 -0.5666
vn 0.7910 0.0203 -0.6115
vn 0.3275 0.0491 0.9436
vn 0.2467 0.0140 0.9690
vn 0.9999 0.0122 0.0053
vn 0.9224 0.3800 0.0687
vn 0.8019 0.3835 0.4582
vn 0.5790 0.8034 0.1391
vn 0.9934 0.1145 -0.0023
vn 0.8235 0.0263 0.5667
vn 0.8080 0.1234 0.5761
vn 0.8086 0.0678 -0.5844
vn 0.2904 -0.0012 -0.9569
vn -0.8286 -0.1218 -0.5463
vn -0.3138 0.0121 0.9494
vn 0.3090 0.0879 0.9470
vn -0.3488 -0.0767 -0.9340
vn 0.9815 0.1679 -0.0918
vn 0.7749 0.1840 -0.6048
vn 0.7863 0.1057 -0.6087
vn 0.9872 0.1387 -0.0792
vn -0.2840 -0.0750 0.9559
vn 0.3989 -0.0103 0.9169
vn 0.3596 0.0693 0.9305
vn -0.2821 -0.0084 0.9593
vn -0.8481 -0.0128 -0.5296
vn -0.9967 -0.0558 0.0588
vn -0.9918 -0.0692 0.1071
vn -0.8695 -0.0622 -0.4900
vn 0.2920 0.1411 -0.9459
vn 0.2896 0.0483 -0.9559
vn 0.8761 0.0935 0.4729
vn 0.8520 0.1331 0.5063
vn -0.7946 -0.0784 0.6021
vn -0.7736 -0.0514 0.6316
vn -0.3470 0.0607 -0.9359
vn -0.3728 -0.0184 -0.9277
vn -0.4170 0.8983 -0.1385
vn -0.4234 0.9046 0.0495
vn -0.3511 0.9349 0.0511
vn -0.3452 0.9284 -0.1375
vn -0.3994 0.8585 -0.3217
vn -0.3269 0.8885 -0.3219
vn 0.1301 0.9502 -0.2831
vn 0.1341 0.9851 -0.1076
vn -0.1813 0.9737 -0.1382
vn -0.1898 0.9292 -0.3172
vn 0.1340 0.9895 0.0544
vn -0.1865 0.9810 0.0537
vn 0.2724 0.9241 0.2680
vn 0.3804 0.9178 0.1137
vn 0.3206 0.9446 0.0704
vn 0.2126 0.9508 0.2255
vn 0.1577 0.8961 0.4149
vn 0.0966 0.9228 0.3730
vn -0.2653 0.9603 0.0865
vn -0.1730 0.9828 -0.0650
vn 0.0747 0.9883 0.1331
vn -0.0156 0.9565 0.2912
vn -0.0846 0.9760 -0.2006
vn 0.1840 0.9826 -0.0250
vn -0.1057 0.9090 -0.4031
vn -0.2700 0.9114 -0.3107
vn -0.2340 0.9403 -0.2470
vn -0.0694 0.9378 -0.3402
vn 0.0606 0.8728 -0.4843
vn 0.0982 0.9015 -0.4214
vn 0.3015 0.9534 -0.0085
vn 0.1534 0.9843 0.0869
vn 0.0158 0.9799 -0.1991
vn 0.1648 0.9393 -0.3009
vn 0.0149 0.9852 0.1709
vn -0.1512 0.9830 -0.1038
vn 0.3374 0.8915 -0.3023
vn 0.1890 0.8886 -0.4179
vn 0.1445 0.9209 -0.3620
vn 0.2938 0.9236 -0.2463
vn 0.4761 0.8610 -0.1787
vn 0.4331 0.8931 -0.1214
vn 0.1318 0.9660 0.2222
vn -0.0132 0.9926 0.1209
vn 0.1970 0.9735 -0.1157
vn 0.3478 0.9374 -0.0154
vn -0.1443 0.9892 0.0257
vn 0.0447 0.9715 -0.2327
vn -0.2335 0.9119 0.3376
vn -0.0568 0.9138 0.4022
vn -0.0317 0.9422 0.3336
vn -0.2093 0.9401 0.2692
vn -0.4032 0.8761 0.2644
vn -0.3799 0.9043 0.1949
vn -0.1986 0.9532 -0.2281
vn -0.0297 0.9836 -0.1777
vn -0.1574 0.9811 0.1125
vn -0.3314 0.9412 0.0654
vn 0.1243 0.9841 -0.1271
vn 0.0235 0.9839 0.1773
vn -0.5234 0.8441 -0.1161
vn -0.5184 0.8498 0.0957
vn -0.4427 0.8918 0.0932
vn -0.4502 0.8849 -0.1198
vn -0.5134 0.7953 -0.3224
vn -0.4367 0.8364 -0.3312
vn 0.0798 0.9411 -0.3286
vn 0.0976 0.9872 -0.1264
vn -0.2650 0.9543 -0.1384
vn -0.2768 0.8984 -0.3409
vn 0.1099 0.9921 0.0608
vn -0.2526 0.9639 0.0846
vn 0.2405 0.9127 0.3305
vn 0.3762 0.9115 0.1661
vn 0.3136 0.9428 0.1134
vn 0.1787 0.9430 0.2806
vn 0.1004 0.8684 0.4855
vn 0.0334 0.8988 0.4370
vn -0.3604 0.9290 0.0845
vn -0.2444 0.9660 -0.0842
vn 0.0221 0.9860 0.1653
vn -0.0968 0.9378 0.3335
vn -0.1309 0.9636 -0.2331
vn 0.1596 0.9871 -0.0117
vn -0.1806 0.8768 -0.4457
vn -0.3637 0.8687 -0.3362
vn -0.3249 0.9072 -0.2673
vn -0.1415 0.9143 -0.3796
vn 0.0069 0.8403 -0.5421
vn 0.0512 0.8782 -0.4755
vn 0.2988 0.9542 -0.0134
vn 0.1304 0.9860 0.1042
vn -0.0367 0.9745 -0.2212
vn 0.1352 0.9317 -0.3372
vn -0.0259 0.9782 0.2063
vn -0.2260 0.9689 -0.1011
vn 0.3715 0.8814 -0.2916
vn 0.2220 0.8695 -0.4412
vn 0.1650 0.9068 -0.3878
vn 0.3172 0.9177 -0.2390
vn 0.5108 0.8491 -0.1348
vn 0.4574 0.8860 -0.0762
vn 0.0730 0.9580 0.2773
vn -0.0831 0.9863 0.1427
vn 0.1896 0.9769 -0.0987
vn 0.3426 0.9386 0.0405
vn -0.2209 0.9752 0.0159
vn 0.0267 0.9675 -0.2515
vn -0.2883 0.8699 0.4001
vn -0.0869 0.8811 0.4649
vn -0.0645 0.9185 0.3901
vn -0.2678 0.9062 0.3273
vn -0.4793 0.8150 0.3257
vn -0.4624 0.8513 0.2480
vn -0.2895 0.9254 -0.2446
vn -0.0932 0.9759 -0.1975
vn -0.2244 0.9641 0.1422
vn -0.4190 0.9035 0.0901
vn 0.0874 0.9852 -0.1477
vn -0.0100 0.9790 0.2036
vn -0.5084 0.8517 -0.1272
vn -0.5154 0.8528 0.0846
vn -0.4393 0.8941 0.0873
vn -0.4347 0.8918 -0.1258
vn -0.4870 0.8072 -0.3336
vn -0.4096 0.8477 -0.3371
vn 0.1069 0.9470 -0.3028
vn 0.1135 0.9886 -0.0990
vn -0.2481 0.9597 -0.1323
vn -0.2488 0.9083 -0.3363
vn 0.1152 0.9894 0.0887
vn -0.2484 0.9643 0.0912
vn 0.2372 0.9030 0.3584
vn 0.3784 0.9040 0.1987
vn 0.3179 0.9370 0.1446
vn 0.1774 0.9350 0.3071
vn 0.0915 0.8567 0.5076
vn 0.0265 0.8888 0.4575
vn -0.3547 0.9304 0.0925
vn -0.2327 0.9699 -0.0713
vn 0.0253 0.9819 0.1875
vn -0.0998 0.9312 0.3505
vn -0.1142 0.9696 -0.2162
vn 0.1687 0.9855 0.0154
vn -0.1459 0.8879 -0.4362
vn -0.3353 0.8794 -0.3380
vn -0.3003 0.9160 -0.2661
vn -0.1106 0.9236 -0.3672
vn 0.0466 0.8516 -0.5222
vn 0.0872 0.8876 -0.4523
vn 0.3076 0.9512 0.0252
vn 0.1328 0.9821 0.1333
vn -0.0148 0.9794 -0.2016
vn 0.1632 0.9372 -0.3081
vn -0.0294 0.9737 0.2258
vn -0.2109 0.9731 -0.0930
vn 0.3797 0.8842 -0.2720
vn 0.2302 0.8769 -0.4219
vn 0.1735 0.9136 -0.3678
vn 0.3256 0.9199 -0.2186
vn 0.5185 0.8472 -0.1158
vn 0.4654 0.8833 -0.0564
vn 0.0813 0.9510 0.2983
vn -0.0744 0.9836 0.1642
vn 0.1984 0.9771 -0.0771
vn 0.3510 0.9344 0.0613
vn -0.2122 0.9765 0.0371
vn 0.0356 0.9725 -0.2302
vn -0.3185 0.8640 0.3900
vn -0.1242 0.8717 0.4740
vn -0.0944 0.9105 0.4025
vn -0.2908 0.9016 0.3203
vn -0.5019 0.8125 0.2964
vn -0.4774 0.8503 0.2215
vn -0.2574 0.9333 -0.2505
vn -0.0661 0.9808 -0.1837
vn -0.2294 0.9630 0.1415
vn -0.4186 0.9055 0.0697
vn 0.1089 0.9872 -0.1166
vn -0.0218 0.9745 0.2235
vn -0.4454 0.8760 0.1854
vn -0.3314 0.8820 0.3350
vn -0.2757 0.9160 0.2915
vn -0.3904 0.9097 0.1416
vn -0.5463 0.8370 0.0313
vn -0.4916 0.8707 -0.0138
vn -0.1164 0.9555 -0.2711
vn -0.0035 0.9906 -0.1369
vn -0.2660 0.9632 0.0388
vn -0.3843 0.9182 -0.0957
vn 0.0990 0.9950 -0.0114
vn -0.1487 0.9703 0.1908
vn 0.3377 0.9352 0.1068
vn 0.3447 0.9352 -0.0815
vn 0.2700 0.9591 -0.0846
vn 0.2634 0.9590 0.1045
vn 0.3223 0.9006 0.2915
vn 0.2474 0.9244 0.2903
vn -0.2133 0.9452 0.2471
vn -0.2191 0.9732 0.0706
vn 0.0961 0.9901 0.1028
vn 0.1075 0.9529 0.2835
vn -0.2182 0.9716 -0.0914
vn 0.1021 0.9907 -0.0894
vn -0.3601 0.9031 -0.2340
vn -0.4376 0.8970 -0.0623
vn -0.3722 0.9276 -0.0314
vn -0.2948 0.9336 -0.2039
vn -0.2729 0.8754 -0.3989
vn -0.2066 0.9059 -0.3696
vn 0.1995 0.9675 -0.1554
vn 0.1356 0.9907 0.0099
vn -0.1443 0.9797 -0.1393
vn -0.0831 0.9469 -0.3106
vn 0.0739 0.9844 0.1596
vn -0.2224 0.9743 0.0364
vn 0.1144 0.9091 -0.4005
vn -0.0710 0.8995 -0.4312
vn -0.0846 0.9291 -0.3599
vn 0.1016 0.9386 -0.3296
vn 0.2965 0.8849 -0.3592
vn 0.2848 0.9145 -0.2874
vn 0.1821 0.9701 0.1604
vn 0.0053 0.9899 0.1415
vn 0.0772 0.9829 -0.1672
vn 0.2590 0.9538 -0.1523
vn -0.1551 0.9805 0.1204
vn -0.1124 0.9739 -0.1973
vn -0.0056 0.8989 0.4382
vn 0.1723 0.9097 0.3778
vn 0.1476 0.9394 0.3095
vn -0.0307 0.9283 0.3706
vn -0.1821 0.8545 0.4864
vn -0.2086 0.8839 0.4186
vn -0.3352 0.9419 -0.0227
vn -0.1734 0.9809 -0.0884
vn -0.0904 0.9719 0.2174
vn -0.2537 0.9232 0.2887
vn -0.0220 0.9891 -0.1455
vn 0.0908 0.9838 0.1546
vn -0.4625 0.8760 -0.1371
vn -0.4685 0.8820 0.0508
vn -0.3978 0.9160 0.0523
vn -0.3923 0.9097 -0.1364
vn -0.4436 0.8370 -0.3204
vn -0.3727 0.8707 -0.3209
vn 0.0807 0.9555 -0.2838
vn 0.0836 0.9906 -0.1084
vn -0.2309 0.9632 -0.1378
vn -0.2378 0.9182 -0.3167
vn 0.0839 0.9950 0.0536
vn -0.2357 0.9703 0.0542
vn 0.2132 0.9352 0.2828
vn 0.3281 0.9352 0.1335
vn 0.2690 0.9591 0.0876
vn 0.1541 0.9590 0.2378
vn 0.0936 0.9006 0.4244
vn 0.0333 0.9244 0.3799
vn -0.3171 0.9452 0.0777
vn -0.2194 0.9732 -0.0695
vn 0.0187 0.9901 0.1394
vn -0.0768 0.9529 0.2933
vn -0.1248 0.9716 -0.2010
vn 0.1350 0.9907 -0.0137
vn -0.1552 0.9031 -0.4005
vn -0.3185 0.8970 -0.3066
vn -0.2835 0.9276 -0.2432
vn -0.1198 0.9336 -0.3378
vn 0.0120 0.8754 -0.4832
vn 0.0487 0.9059 -0.4206
vn 0.2527 0.9675 -0.0093
vn 0.1041 0.9907 0.0874
vn -0.0355 0.9797 -0.1973
vn 0.1144 0.9469 -0.3005
vn -0.0334 0.9844 0.1726
vn -0.2017 0.9743 -0.1006
vn 0.3126 0.9091 -0.2753
vn 0.1731 0.8995 -0.4012
vn 0.1232 0.9291 -0.3486
vn 0.2635 0.9386 -0.2225
vn 0.4435 0.8849 -0.1421
vn 0.3949 0.9145 -0.0880
vn 0.0666 0.9701 0.2333
vn -0.0720 0.9899 0.1219
vn 0.1553 0.9829 -0.0990
vn 0.3002 0.9538 0.0117
vn -0.1956 0.9805 0.0176
vn 0.0120 0.9739 -0.2267
vn -0.2641 0.8989 0.3497
vn -0.0850 0.9097 0.4064
vn -0.0645 0.9394 0.3368
vn -0.2444 0.9283 0.2803
vn -0.4349 0.8545 0.2840
vn -0.4161 0.8839 0.2136
vn -0.2566 0.9419 -0.2169
vn -0.0873 0.9809 -0.1740
vn -0.2017 0.9719 0.1216
vn -0.3754 0.9232 0.0822
vn 0.0685 0.9891 -0.1303
vn -0.0184 0.9838 0.1783
vn -0.2266 0.8983 -0.3765
vn -0.3537 0.9046 -0.2378
vn -0.3000 0.9349 -0.1895
vn -0.1727 0.9284 -0.3290
vn -0.0941 0.8585 -0.5041
vn -0.0389 0.8885 -0.4571
vn 0.2829 0.9502 -0.1304
vn 0.1719 0.9851 0.0055
vn -0.0478 0.9737 -0.2229
vn 0.0622 0.9292 -0.3644
vn 0.0664 0.9895 0.1285
vn -0.1766 0.9810 -0.0805
vn 0.0166 0.9241 0.3818
vn 0.2008 0.9178 0.3425
vn 0.1865 0.9446 0.2701
vn 0.0017 0.9508 0.3099
vn -0.1675 0.8961 0.4110
vn -0.1836 0.9228 0.3388
vn -0.2531 0.9603 -0.1176
vn -0.0822 0.9828 -0.1655
vn -0.0360 0.9883 0.1483
vn -0.2099 0.9565 0.2024
vn 0.0749 0.9760 -0.2044
vn 0.1517 0.9826 0.1071
vn 0.1765 0.9090 -0.3775
vn -0.0089 0.9114 -0.4115
vn -0.0220 0.9403 -0.3396
vn 0.1642 0.9378 -0.3060
vn 0.3563 0.8728 -0.3336
vn 0.3450 0.9015 -0.2612
vn 0.2372 0.9534 0.1862
vn 0.0624 0.9843 0.1648
vn 0.1395 0.9799 -0.1429
vn 0.3191 0.9393 -0.1260
vn -0.0978 0.9852 0.1409
vn -0.0498 0.9830 -0.1765
vn 0.4506 0.8915 0.0468
vn 0.4365 0.8886 -0.1409
vn 0.3652 0.9209 -0.1362
vn 0.3798 0.9236 0.0520
vn 0.4523 0.8610 0.2325
vn 0.3809 0.8931 0.2391
vn -0.0760 0.9660 0.2470
vn -0.0984 0.9926 0.0715
vn 0.2181 0.9735 0.0682
vn 0.2451 0.9374 0.2473
vn -0.1160 0.9892 -0.0896
vn 0.2024 0.9715 -0.1233
vn -0.3978 0.9119 0.1011
vn -0.3071 0.9138 0.2660
vn -0.2431 0.9422 0.2307
vn -0.3346 0.9401 0.0655
vn -0.4777 0.8761 -0.0656
vn -0.4145 0.9043 -0.1026
vn 0.0000 0.9532 -0.3024
vn 0.0943 0.9836 -0.1535
vn -0.1926 0.9811 -0.0186
vn -0.2929 0.9412 -0.1684
vn 0.1772 0.9841 -0.0142
vn -0.0987 0.9839 0.1491
vn -0.1525 0.9440 -0.2925
vn -0.2716 0.9511 -0.1469
vn -0.2128 0.9720 -0.0995
vn -0.0937 0.9648 -0.2459
vn -0.0310 0.9023 -0.4300
vn 0.0292 0.9229 -0.3840
vn 0.3708 0.9259 -0.0718
vn 0.2704 0.9600 0.0723
vn 0.0401 0.9888 -0.1437
vn 0.1382 0.9457 -0.2941
vn 0.1719 0.9644 0.2009
vn -0.0804 0.9967 0.0058
vn 0.3052 0.9440 0.1252
vn 0.3024 0.9511 -0.0628
vn 0.2268 0.9720 -0.0612
vn 0.2301 0.9648 0.1276
vn 0.3009 0.9023 0.3088
vn 0.2252 0.9229 0.3123
vn -0.2371 0.9259 0.2939
vn -0.2533 0.9600 0.1191
vn 0.0620 0.9888 0.1357
vn 0.0840 0.9457 0.3139
vn -0.2610 0.9644 -0.0428
vn 0.0577 0.9967 -0.0563
vn 0.3211 0.9422 0.0959
vn 0.4182 0.9063 -0.0612
vn 0.3567 0.9284 -0.1046
vn 0.2596 0.9642 0.0535
vn 0.2156 0.9434 0.2519
vn 0.1530 0.9656 0.2101
vn -0.2257 0.9726 -0.0557
vn -0.1430 0.9662 -0.2143
vn 0.1173 0.9925 -0.0352
vn 0.0366 0.9907 0.1308
vn -0.0641 0.9338 -0.3520
vn 0.2153 0.9566 -0.1966
vn 0.0381 0.9004 -0.4335
vn -0.1483 0.9010 -0.4077
vn -0.1386 0.9315 -0.3362
vn 0.0485 0.9307 -0.3625
vn 0.2228 0.8662 -0.4474
vn 0.2344 0.8965 -0.3759
vn 0.2720 0.9589 0.0811
vn 0.0989 0.9884 0.1149
vn 0.0757 0.9767 -0.2010
vn 0.2519 0.9375 -0.2399
vn -0.0608 0.9879 0.1425
vn -0.1145 0.9782 -0.1735
vn -0.2801 0.9157 0.2883
vn -0.1198 0.9141 0.3873
vn -0.0808 0.9422 0.3252
vn -0.2420 0.9436 0.2262
vn -0.4323 0.8832 0.1820
vn -0.3948 0.9110 0.1187
vn -0.1306 0.9571 -0.2588
vn 0.0252 0.9842 -0.1752
vn -0.1586 0.9838 0.0834
vn -0.3206 0.9472 0.0021
vn 0.1657 0.9816 -0.0946
vn 0.0055 0.9830 0.1835
vn 0.3565 0.9205 -0.1600
vn 0.2419 0.9196 -0.3096
vn 0.1830 0.9467 -0.2651
vn 0.2984 0.9475 -0.1152
vn 0.4613 0.8872 -0.0068
vn 0.4034 0.9142 0.0393
vn 0.0217 0.9541 0.2986
vn -0.0944 0.9817 0.1654
vn 0.1694 0.9855 -0.0109
vn 0.2923 0.9485 0.1222
vn -0.1970 0.9796 0.0401
vn 0.0516 0.9853 -0.1629
vn 0.2920 0.9004 0.3226
vn 0.3998 0.9010 0.1685
vn 0.3408 0.9315 0.1269
vn 0.2329 0.9307 0.2820
vn 0.1766 0.8662 0.4675
vn 0.1163 0.8965 0.4275
vn -0.2444 0.9589 0.1444
vn -0.1515 0.9884 -0.0056
vn 0.0960 0.9767 0.1922
vn 0.0047 0.9375 0.3479
vn -0.0631 0.9879 -0.1415
vn 0.2051 0.9782 0.0340
vn -0.3928 0.9004 -0.1873
vn -0.4338 0.9010 -0.0037
vn -0.3634 0.9315 0.0122
vn -0.3227 0.9307 -0.1722
vn -0.3412 0.8662 -0.3651
vn -0.2702 0.8965 -0.3511
vn 0.1711 0.9589 -0.2265
vn 0.1423 0.9884 -0.0524
vn -0.1619 0.9767 -0.1412
vn -0.1367 0.9375 -0.3199
vn 0.1122 0.9879 0.1068
vn -0.2026 0.9782 0.0466
vn 0.2242 0.9072 -0.3559
vn 0.0523 0.9080 -0.4156
vn 0.0291 0.9367 -0.3490
vn 0.2014 0.9358 -0.2892
vn 0.3894 0.8753 -0.2866
vn 0.3671 0.9039 -0.2197
vn 0.1971 0.9621 0.1887
vn 0.0343 0.9894 0.1414
vn 0.1530 0.9783 -0.1394
vn 0.3220 0.9418 -0.0969
vn -0.1142 0.9889 0.0949
vn -0.0212 0.9796 -0.1999
vn -0.3716 0.9216 0.1120
vn -0.2823 0.9204 0.2706
vn -0.2199 0.9466 0.2359
vn -0.3094 0.9478 0.0769
vn -0.4506 0.8914 -0.0490
vn -0.3886 0.9175 -0.0847
vn 0.0110 0.9604 -0.2784
vn 0.1025 0.9855 -0.1354
vn -0.1725 0.9850 -0.0035
vn -0.2723 0.9509 -0.1470
vn 0.1830 0.9831 -0.0022
vn -0.0820 0.9842 0.1572
vn 0.3764 0.9262 0.0235
vn 0.3453 0.9255 -0.1558
vn 0.2745 0.9508 -0.1438
vn 0.3058 0.9514 0.0360
vn 0.3975 0.8952 0.2016
vn 0.3268 0.9204 0.2146
vn -0.1151 0.9577 0.2638
vn -0.1539 0.9832 0.0986
vn 0.1494 0.9866 0.0662
vn 0.1959 0.9521 0.2346
vn -0.1852 0.9812 -0.0539
vn 0.1179 0.9863 -0.1155
vn 0.0921 0.9072 0.4104
vn 0.2560 0.9080 0.3315
vn 0.2256 0.9367 0.2679
vn 0.0611 0.9358 0.3471
vn -0.0739 0.8753 0.4779
vn -0.1053 0.9039 0.4147
vn -0.2728 0.9621 0.0052
vn -0.1241 0.9894 -0.0760
vn -0.0101 0.9783 0.2067
vn -0.1599 0.9418 0.2958
vn 0.0140 0.9889 -0.1479
vn 0.1561 0.9796 0.1268
vn -0.2618 0.9072 -0.3292
vn -0.3750 0.9080 -0.1867
vn -0.3198 0.9367 -0.1428
vn -0.2064 0.9358 -0.2857
vn -0.1419 0.8753 -0.4623
vn -0.0860 0.9039 -0.4191
vn 0.2432 0.9621 -0.1236
vn 0.1448 0.9894 0.0143
vn -0.0811 0.9783 -0.1904
vn 0.0149 0.9418 -0.3360
vn 0.0518 0.9889 0.1392
vn -0.1957 0.9796 -0.0460
usemtl Bark
s 1
f 74 71 17
f 74 17 18
f 75 72 14
f 75 14 15
f 76 73 12
f 76 12 11
f 77 74 18
f 77 18 19
f 78 75 15
f 78 15 16
f 79 76 11
f 79 11 13
f 80 77 19
f 80 19 20
f 71 78 16
f 71 16 17
f 72 79 13
f 72 13 14
f 73 80 20
f 73 20 12
f 13 11 42
f 13 42 46
f 36 51 49
f 36 49 35
f 38 37 27
f 38 27 28
f 19 18 56
f 19 56 58
f 16 15 50
f 16 50 52
f 20 19 58
f 20 58 60
f 17 16 52
f 17 52 54
f 14 13 46
f 14 46 48
f 12 20 60
f 12 60 43
f 18 17 54
f 18 54 56
f 15 14 48
f 15 48 50
f 39 38 28
f 39 28 29
f 36 35 25
f 36 25 26
f 35 34 24
f 35 24 25
f 40 39 29
f 40 29 30
f 37 36 26
f 37 26 27
f 34 33 23
f 34 23 24
f 32 40 30
f 32 30 22
f 21 22 30
f 21 30 29
f 21 29 28
f 21 28 27
f 21 27 26
f 21 26 25
f 21 25 24
f 21 24 23
f 44 32 31
f 44 31 41
f 40 59 57
f 40 57 39
f 37 53 51
f 37 51 36
f 34 47 45
f 34 45 33
f 59 40 32
f 59 32 44
f 38 55 53
f 38 53 37
f 35 49 47
f 35 47 34
f 41 31 33
f 41 33 45
f 39 57 55
f 39 55 38
f 33 31 21
f 33 21 23
f 42 43 44
f 42 44 41
f 46 42 41
f 46 41 45
f 48 46 45
f 48 45 47
f 50 48 47
f 50 47 49
f 52 50 49
f 52 49 51
f 54 52 51
f 54 51 53
f 56 54 53
f 56 53 55
f 58 56 55
f 58 55 57
f 60 58 57
f 60 57 59
f 43 60 59
f 43 59 44
f 11 12 43
f 11 43 42
f 2 10 70
f 2 70 65
f 4 3 69
f 4 69 63
f 7 6 68
f 7 68 61
f 10 9 67
f 10 67 70
f 3 1 66
f 3 66 69
f 6 5 64
f 6 64 68
f 9 8 62
f 9 62 67
f 1 2 65
f 1 65 66
f 5 4 63
f 5 63 64
f 8 7 61
f 8 61 62
f 65 70 80
f 65 80 73
f 63 69 79
f 63 79 72
f 61 68 78
f 61 78 71
f 70 67 77
f 70 77 80
f 69 66 76
f 69 76 79
f 68 64 75
f 68 75 78
f 67 62 74
f 67 74 77
f 66 65 73
f 66 73 76
f 64 63 72
f 64 72 75
f 62 61 71
f 62 71 74
f 32 22 21
f 32 21 31
usemtl Pine_Leaves
f 92 90 84
f 92 84 86
f 87 92 86
f 87 86 83
f 81 85 91
f 81 91 88
f 88 91 92
f 88 92 87
f 85 82 89
f 85 89 91
f 91 89 90
f 91 90 92
f 104 102 96
f 104 96 98
f 99 104 98
f 99 98 95
f 93 97 103
f 93 103 100
f 100 103 104
f 100 104 99
f 97 94 101
f 97 101 103
f 103 101 102
f 103 102 104
f 116 114 108
f 116 108 110
f 111 116 110
f 111 110 107
f 105 109 115
f 105 115 112
f 112 115 116
f 112 116 111
f 109 106 113
f 109 113 115
f 115 113 114
f 115 114 116
f 128 126 120
f 128 120 122
f 123 128 122
f 123 122 119
f 117 121 127
f 117 127 124
f 124 127 128
f 124 128 123
f 121 118 125
f 121 125 127
f 127 125 126
f 127 126 128
f 140 138 132
f 140 132 134
f 135 140 134
f 135 134 131
f 129 133 139
f 129 139 136
f 136 139 140
f 136 140 135
f 133 130 137
f 133 137 139
f 139 137 138
f 139 138 140
f 152 150 144
f 152 144 146
f 147 152 146
f 147 146 143
f 141 145 151
f 141 151 148
f 148 151 152
f 148 152 147
f 145 142 149
f 145 149 151
f 151 149 150
f 151 150 152
f 164 162 156
f 164 156 158
f 159 164 158
f 159 158 155
f 153 157 163
f 153 163 160
f 160 163 164
f 160 164 159
f 157 154 161
f 157 161 163
f 163 161 162
f 163 162 164
f 176 174 168
f 176 168 170
f 171 176 170
f 171 170 167
f 165 169 175
f 165 175 172
f 172 175 176
f 172 176 171
f 169 166 173
f 169 173 175
f 175 173 174
f 175 174 176
f 188 186 180
f 188 180 182
f 183 188 182
f 183 182 179
f 177 181 187
f 177 187 184
f 184 187 188
f 184 188 183
f 181 178 185
f 181 185 187
f 187 185 186
f 187 186 188
f 200 198 192
f 200 192 194
f 195 200 194
f 195 194 191
f 189 193 199
f 189 199 196
f 196 199 200
f 196 200 195
f 193 190 197
f 193 197 199
f 199 197 198
f 199 198 200
f 212 210 204
f 212 204 206
f 207 212 206
f 207 206 203
f 201 205 211
f 201 211 208
f 208 211 212
f 208 212 207
f 205 202 209
f 205 209 211
f 211 209 210
f 211 210 212
f 224 222 216
f 224 216 218
f 219 224 218
f 219 218 215
f 213 217 223
f 213 223 220
f 220 223 224
f 220 224 219
f 217 214 221
f 217 221 223
f 223 221 222
f 223 222 224
f 236 234 228
f 236 228 230
f 231 236 230
f 231 230 227
f 225 229 235
f 225 235 232
f 232 235 236
f 232 236 231
f 229 226 233
f 229 233 235
f 235 233 234
f 235 234 236
f 248 246 240
f 248 240 242
f 243 248 242
f 243 242 239
f 237 241 247
f 237 247 244
f 244 247 248
f 244 248 243
f 241 238 245
f 241 245 247
f 247 245 246
f 247 246 248
f 260 258 252
f 260 252 254
f 255 260 254
f 255 254 251
f 249 253 259
f 249 259 256
f 256 259 260
f 256 260 255
f 253 250 257
f 253 257 259
f 259 257 258
f 259 258 260
f 272 270 264
f 272 264 266
f 267 272 266
f 267 266 263
f 261 265 271
f 261 271 268
f 268 271 272
f 268 272 267
f 265 262 269
f 265 269 271
f 271 269 270
f 271 270 272
f 284 282 276
f 284 276 278
f 279 284 278
f 279 278 275
f 273 277 283
f 273 283 280
f 280 283 284
f 280 284 279
f 277 274 281
f 277 281 283
f 283 281 282
f 283 282 284
f 296 294 288
f 296 288 290
f 291 296 290
f 291 290 287
f 285 289 295
f 285 295 292
f 292 295 296
f 292 296 291
f 289 286 293
f 289 293 295
f 295 293 294
f 295 294 296
f 308 306 300
f 308 300 302
f 303 308 302
f 303 302 299
f 297 301 307
f 297 307 304
f 304 307 308
f 304 308 303
f 301 298 305
f 301 305 307
f 307 305 306
f 307 306 308
f 320 318 312
f 320 312 314
f 315 320 314
f 315 314 311
f 309 313 319
f 309 319 316
f 316 319 320
f 316 320 315
f 313 310 317
f 313 317 319
f 319 317 318
f 319 318 320
f 332 330 324
f 332 324 326
f 327 332 326
f 327 326 323
f 321 325 331
f 321 331 328
f 328 331 332
f 328 332 327
f 325 322 329
f 325 329 331
f 331 329 330
f 331 330 332
f 344 342 336
f 344 336 338
f 339 344 338
f 339 338 335
f 333 337 343
f 333 343 340
f 340 343 344
f 340 344 339
f 337 334 341
f 337 341 343
f 343 341 342
f 343 342 344
f 356 354 348
f 356 348 350
f 351 356 350
f 351 350 347
f 345 349 355
f 345 355 352
f 352 355 356
f 352 356 351
f 349 346 353
f 349 353 355
f 355 353 354
f 355 354 356
f 368 366 360
f 368 360 362
f 363 368 362
f 363 362 359
f 357 361 367
f 357 367 364
f 364 367 368
f 364 368 363
f 361 358 365
f 361 365 367
f 367 365 366
f 367 366 368
f 380 378 372
f 380 372 374
f 375 380 374
f 375 374 371
f 369 373 379
f 369 379 376
f 376 379 380
f 376 380 375
f 373 370 377
f 373 377 379
f 379 377 378
f 379 378 380
f 392 390 384
f 392 384 386
f 387 392 386
f 387 386 383
f 381 385 391
f 381 391 388
f 388 391 392
f 388 392 387
f 385 382 389
f 385 389 391
f 391 389 390
f 391 390 392
f 404 402 396
f 404 396 398
f 399 404 398
f 399 398 395
f 393 397 403
f 393 403 400
f 400 403 404
f 400 404 399
f 397 394 401
f 397 401 403
f 403 401 402
f 403 402 404
f 416 414 408
f 416 408 410
f 411 416 410
f 411 410 407
f 405 409 415
f 405 415 412
f 412 415 416
f 412 416 411
f 409 406 413
f 409 413 415
f 415 413 414
f 415 414 416
f 428 426 420
f 428 420 422
f 423 428 422
f 423 422 419
f 417 421 427
f 417 427 424
f 424 427 428
f 424 428 423
f 421 418 425
f 421 425 427
f 427 425 426
f 427 426 428
f 440 438 432
f 440 432 434
f 435 440 434
f 435 434 431
f 429 433 439
f 429 439 436
f 436 439 440
f 436 440 435
f 433 430 437
f 433 437 439
f 439 437 438
f 439 438 440
f 452 450 444
f 452 444 446
f 447 452 446
f 447 446 443
f 441 445 451
f 441 451 448
f 448 451 452
f 448 452 447
f 445 442 449
f 445 449 451
f 451 449 450
f 451 450 452
f 464 462 456
f 464 456 458
f 459 464 458
f 459 458 455
f 453 457 463
f 453 463 460
f 460 463 464
f 460 464 459
f 457 454 461
f 457 461 463
f 463 461 462
f 463 462 464
f 476 474 468
f 476 468 470
f 471 476 470
f 471 470 467
f 465 469 475
f 465 475 472
f 472 475 476
f 472 476 471
f 469 466 473
f 469 473 475
f 475 473 474
f 475 474 476
f 488 486 480
f 488 480 482
f 483 488 482
f 483 482 479
f 477 481 487
f 477 487 484
f 484 487 488
f 484 488 483
f 481 478 485
f 481 485 487
f 487 485 486
f 487 486 488
f 500 498 492
f 500 492 494
f 495 500 494
f 495 494 491
f 489 493 499
f 489 499 496
f 496 499 500
f 496 500 495
f 493 490 497
f 493 497 499
f 499 497 498
f 499 498 500
f 512 510 504
f 512 504 506
f 507 512 506
f 507 506 503
f 501 505 511
f 501 511 508
f 508 511 512
f 508 512 507
f 505 502 509
f 505 509 511
f 511 509 510
f 511 510 512
f 524 522 516
f 524 516 518
f 519 524 518
f 519 518 515
f 513 517 523
f 513 523 520
f 520 523 524
f 520 524 519
f 517 514 521
f 517 521 523
f 523 521 522
f 523 522 524
f 536 534 528
f 536 528 530
f 531 536 530
f 531 530 527
f 525 529 535
f 525 535 532
f 532 535 536
f 532 536 531
f 529 526 533
f 529 533 535
f 535 533 534
f 535 534 536
f 548 546 540
f 548 540 542
f 543 548 542
f 543 542 539
f 537 541 547
f 537 547 544
f 544 547 548
f 544 548 543
f 541 538 545
f 541 545 547
f 547 545 546
f 547 546 548
f 560 558 552
f 560 552 554
f 555 560 554
f 555 554 551
f 549 553 559
f 549 559 556
f 556 559 560
f 556 560 555
f 553 550 557
f 553 557 559
f 559 557 558
f 559 558 560
f 572 570 564
f 572 564 566
f 567 572 566
f 567 566 563
f 561 565 571
f 561 571 568
f 568 571 572
f 568 572 567
f 565 562 569
f 565 569 571
f 571 569 570
f 571 570 572
f 584 582 576
f 584 576 578
f 579 584 578
f 579 578 575
f 573 577 583
f 573 583 580
f 580 583 584
f 580 584 579
f 577 574 581
f 577 581 583
f 583 581 582
f 583 582 584
f 596 594 588
f 596 588 590
f 591 596 590
f 591 590 587
f 585 589 595
f 585 595 592
f 592 595 596
f 592 596 591
f 589 586 593
f 589 593 595
f 595 593 594
f 595 594 596
