# Split Pine_1_leaves mesh for Ursina textured rendering
o Pine_1_leaves
v -1.113089 4.297467 -0.107658
v -1.113526 4.243343 0.878691
v -0.169153 4.597059 0.896020
v -0.168715 4.651183 -0.090329
v -0.993429 4.001754 -1.045387
v -0.049056 4.355471 -1.028058
v -2.739909 3.612569 -1.045168
v -2.859568 3.908282 -0.107439
v -2.005905 3.792466 -0.103961
v -1.886246 3.496754 -1.041690
v -2.860006 3.854158 0.878910
v -2.006343 3.738342 0.882388
v 0.562915 4.394332 0.627072
v 1.101430 4.272621 -0.192188
v 0.319420 4.579481 -0.748671
v -0.219095 4.701192 0.070590
v -0.048937 4.158421 1.369185
v -0.830947 4.465281 0.812703
v 1.414842 3.852786 2.349949
v 2.026693 4.088697 1.607836
v 1.313210 3.932821 1.150193
v 0.701359 3.696909 1.892306
v 2.565209 3.966985 0.788575
v 1.851726 3.811109 0.330932
v -0.547022 4.372266 -0.918504
v -1.389680 4.296546 -0.408455
v -0.917648 4.630695 0.416308
v -0.074990 4.706415 -0.093742
v 0.319356 4.094841 -1.310108
v 0.791388 4.428989 -0.485346
v -0.583732 3.741013 -2.812084
v -1.450110 4.018439 -2.420480
v -1.008796 3.885401 -1.692045
v -0.142418 3.607975 -2.083650
v -2.292768 3.942718 -1.910430
v -1.851454 3.809681 -1.181996
v 0.571471 4.273686 -0.664470
v -0.225032 4.172443 -1.239922
v -0.801518 4.551968 -0.504476
v -0.005015 4.653211 0.070977
v 1.266244 4.026745 -0.003100
v 0.689758 4.406270 0.732347
v 2.300483 3.587873 -1.395722
v 1.605711 3.834814 -2.057092
v 1.103964 3.743592 -1.362761
v 1.798737 3.496650 -0.701391
v 0.809208 3.733571 -2.632544
v 0.307461 3.642348 -1.938214
v -0.490928 4.253100 0.798049
v 0.443945 4.175020 1.107448
v 0.765813 4.503688 0.209877
v -0.169061 4.581768 -0.099523
v -1.353375 3.977300 0.396526
v -1.031507 4.305969 -0.501046
v -1.909717 3.633485 2.062039
v -1.047271 3.909284 2.463562
v -0.781475 3.771398 1.655782
v -1.643921 3.495598 1.254260
v -0.112397 3.831204 2.772961
v 0.153399 3.693318 1.965182
v -0.689187 6.868302 -0.113284
v -0.649430 6.829700 0.444944
v -0.126769 7.091962 0.418036
v -0.166525 7.130562 -0.140191
v -0.647983 6.678010 -0.648253
v -0.125321 6.940273 -0.675160
v -1.622170 6.368796 -0.580488
v -1.663374 6.559086 -0.045519
v -1.176837 6.507056 -0.076319
v -1.135633 6.316766 -0.611288
v -1.623618 6.520487 0.512708
v -1.137081 6.468455 0.481908
v 0.255810 6.977413 0.297527
v 0.597153 6.916990 -0.143963
v 0.167342 7.101689 -0.490978
v -0.174001 7.162112 -0.049488
v -0.111939 6.798805 0.693020
v -0.541750 6.983504 0.346005
v 0.686066 6.631853 1.307667
v 1.053815 6.810461 0.912174
v 0.674202 6.689345 0.624651
v 0.306453 6.510737 1.020144
v 1.395158 6.750038 0.470684
v 1.015545 6.628922 0.183161
v -0.379414 6.933907 -0.566728
v -0.844386 6.857277 -0.261758
v -0.572636 7.089671 0.196658
v -0.107664 7.166300 -0.108312
v 0.113032 6.776348 -0.804683
v 0.384782 7.008743 -0.346267
v -0.414977 6.520945 -1.638919
v -0.907422 6.678504 -1.400964
v -0.639283 6.600239 -0.996164
v -0.146837 6.442680 -1.234120
v -1.372395 6.601875 -1.095994
v -1.104254 6.523609 -0.691194
v 0.232912 6.899620 -0.436482
v -0.175087 6.813311 -0.811869
v -0.559502 7.044135 -0.435703
v -0.151503 7.130446 -0.060316
v 0.589718 6.751348 -0.018254
v 0.205303 6.982173 0.357912
v 1.276021 6.498354 -0.735048
v 0.919214 6.646627 -1.153275
v 0.595189 6.567350 -0.794121
v 0.951996 6.419079 -0.375893
v 0.511216 6.560317 -1.528663
v 0.187191 6.481040 -1.169508
v -0.355428 6.851671 0.408246
v 0.184865 6.826130 0.557661
v 0.330910 7.056318 0.039803
v -0.209383 7.081857 -0.109612
v -0.845495 6.644673 0.205095
v -0.699450 6.874860 -0.312764
v -1.102231 6.395348 1.164535
v -0.612164 6.602345 1.367687
v -0.479754 6.520924 0.902866
v -0.969821 6.313926 0.699715
v -0.071871 6.576806 1.517102
v 0.060539 6.495384 1.052281
v -0.438724 7.352564 -0.094409
v -0.434293 7.322206 0.238637
v -0.120885 7.475698 0.243800
v -0.125316 7.506056 -0.089245
v -0.396980 7.245709 -0.413855
v -0.083571 7.399200 -0.408691
v -0.980784 7.066448 -0.410651
v -1.022529 7.173306 -0.091205
v -0.732164 7.139736 -0.093691
v -0.690420 7.032878 -0.413137
v -1.018098 7.142948 0.241841
v -0.727733 7.109375 0.239355
v 0.084340 7.408339 0.135909
v 0.296407 7.376039 -0.120964
v 0.048372 7.493075 -0.333990
v -0.163695 7.525376 -0.077117
v -0.143797 7.298913 0.361724
v -0.391833 7.415949 0.148698
v 0.318257 7.186883 0.741881
v 0.546395 7.296309 0.516067
v 0.325426 7.230012 0.335504
v 0.097289 7.120584 0.561319
v 0.758462 7.264009 0.259193
v 0.537493 7.197711 0.078631
v -0.239046 7.396922 -0.403702
v -0.526964 7.350201 -0.239628
v -0.380212 7.481227 0.045755
v -0.092295 7.527948 -0.118319
v 0.061603 7.303036 -0.529991
v 0.208355 7.434065 -0.244608
v -0.224486 7.164639 -1.048329
v -0.525135 7.258523 -0.922040
v -0.380292 7.205090 -0.672745
v -0.079642 7.111205 -0.799035
v -0.813053 7.211802 -0.757966
v -0.668209 7.158368 -0.508672
v 0.067967 7.371622 -0.298954
v -0.175528 7.327259 -0.524015
v -0.403689 7.461982 -0.296947
v -0.160193 7.506345 -0.071886
v 0.279669 7.275879 -0.051444
v 0.051509 7.410602 0.175624
v 0.687880 7.130780 -0.481706
v 0.476179 7.226523 -0.729216
v 0.282378 7.176311 -0.516313
v 0.494080 7.080568 -0.268803
v 0.232683 7.182158 -0.954277
v 0.038883 7.131948 -0.741374
v -0.271483 7.335073 0.206695
v 0.040472 7.314732 0.325876
v 0.157867 7.457696 0.030031
v -0.154088 7.478036 -0.089150
v -0.551643 7.217201 0.055405
v -0.434248 7.360165 -0.240440
v -0.760097 7.057834 0.606669
v -0.479937 7.175706 0.757959
v -0.375128 7.132340 0.488655
v -0.655289 7.014468 0.337366
v -0.167982 7.155366 0.877140
v -0.063173 7.111999 0.607836
v -0.767412 6.112899 0.285723
v -0.291076 6.072137 0.864267
v 0.260918 6.376869 0.428800
v -0.215417 6.417633 -0.149743
v -1.139880 5.892815 -0.330029
v -0.587886 6.197548 -0.765495
v -2.153115 5.530313 0.500658
v -1.780646 5.750398 1.116410
v -1.274489 5.695364 0.705099
v -1.646958 5.475280 0.089347
v -1.304311 5.709634 1.694953
v -0.798154 5.654601 1.283642
v 0.602912 6.251841 0.011451
v 0.611694 6.183484 -0.735963
v -0.125421 6.388717 -0.761410
v -0.134202 6.457074 -0.013996
v 0.526248 6.046356 0.731184
v -0.210866 6.251589 0.705737
v 1.872847 5.866374 0.746503
v 1.949511 6.071859 0.026769
v 1.310671 5.928186 0.024928
v 1.234007 5.722701 0.744661
v 1.958293 6.003501 -0.720645
v 1.319453 5.859829 -0.722486
v -0.760167 6.191082 -0.452999
v -1.043590 6.100657 0.236092
v -0.394001 6.371449 0.536797
v -0.110579 6.461875 -0.152294
v -0.398232 6.014330 -1.088595
v 0.251357 6.285123 -0.787890
v -1.615504 5.712774 -1.610650
v -1.977439 5.889526 -0.975053
v -1.375803 5.804750 -0.730570
v -1.013867 5.627997 -1.366168
v -2.260862 5.799101 -0.285962
v -1.659225 5.714325 -0.041480
v 0.011516 6.158337 -0.785162
v -0.725301 6.053670 -0.882190
v -0.853949 6.316308 -0.173909
v -0.117132 6.420975 -0.076880
v 0.722717 5.994534 -0.601637
v 0.594069 6.257172 0.106644
v 0.919301 5.707314 -1.915773
v 0.208099 5.871117 -2.099298
v 0.129086 5.779601 -1.456038
v 0.840288 5.615798 -1.272514
v -0.528717 5.766450 -2.196326
v -0.607731 5.674933 -1.553067
v 0.012944 6.103180 0.595790
v 0.715021 6.079904 0.331564
v 0.467186 6.341675 -0.344635
v -0.234891 6.364951 -0.080409
v -0.679694 5.860724 0.762487
v -0.927529 6.122496 0.086288
v -0.203625 5.578438 2.004165
v 0.489014 5.820893 1.837468
v 0.264861 5.726494 1.229813
v -0.427777 5.484039 1.396509
v 1.191091 5.797617 1.573243
v 0.966938 5.703218 0.965587
v -0.985085 5.264046 -0.108210
v -0.979824 5.217253 0.752024
v -0.172833 5.567060 0.763935
v -0.178094 5.613852 -0.096298
v -0.870892 5.011408 -0.926363
v -0.063901 5.361215 -0.914452
v -2.374900 4.595289 -0.920307
v -2.489093 4.847925 -0.102154
v -1.740419 4.784752 -0.101924
v -1.626226 4.532115 -0.920077
v -2.483831 4.801134 0.758080
v -1.735157 4.737960 0.758310
v 0.478996 5.423539 0.521782
v 0.984617 5.345070 -0.171437
v 0.312122 5.580659 -0.685790
v -0.193498 5.659128 0.007428
v -0.071693 5.187660 1.143935
v -0.744188 5.423249 0.629582
v 1.177599 4.981056 2.054429
v 1.728289 5.216935 1.432276
v 1.132000 5.052012 1.005403
v 0.581311 4.816133 1.627556
v 2.233909 5.138466 0.739057
v 1.637621 4.973544 0.312184
v -0.492762 5.353794 -0.815309
v -1.219412 5.249993 -0.364163
v -0.816646 5.560838 0.352045
v -0.089997 5.664639 -0.099101
v 0.271050 5.150897 -1.163926
v 0.673816 5.461741 -0.447718
v -0.511529 4.804737 -2.467458
v -1.275342 5.007634 -2.118842
v -0.879457 4.910318 -1.487179
v -0.115644 4.707422 -1.835796
v -2.001992 4.903833 -1.667695
v -1.606106 4.806519 -1.036032
v 0.464469 5.316204 -0.606020
v -0.187192 5.196056 -1.156584
v -0.750611 5.497540 -0.552094
v -0.098950 5.617689 -0.001530
v 1.037755 5.128173 0.012225
v 0.474337 5.429658 0.616714
v 2.042436 4.798470 -1.135444
v 1.469149 4.986501 -1.753688
v 0.993995 4.881449 -1.181241
v 1.567282 4.693418 -0.562997
v 0.817488 4.866353 -2.304253
v 0.342334 4.761300 -1.731806
v -0.455810 5.252888 0.679658
v 0.373127 5.226170 0.912829
v 0.603854 5.526660 0.118969
v -0.225084 5.553379 -0.114201
v -1.209687 4.974571 0.362721
v -0.978961 5.275062 -0.431138
v -1.613960 4.650531 1.834724
v -0.860083 4.928848 2.151662
v -0.654076 4.820487 1.437293
v -1.407953 4.542170 1.120355
v -0.031146 4.902130 2.384832
v 0.174861 4.793768 1.670463
v -0.953100 3.314271 -0.798634
v -1.666192 3.254145 0.033290
v -0.881890 3.647083 0.730303
v -0.168799 3.707208 -0.101620
v -0.174546 2.985770 -1.503386
v 0.609755 3.378706 -0.806373
v -1.648312 2.553430 -2.765185
v -2.426866 2.881932 -2.060432
v -1.709093 2.753274 -1.440652
v -0.930539 2.424772 -2.145404
v -3.139957 2.821806 -1.228508
v -2.422185 2.693149 -0.608728
v -0.073525 3.421877 1.038714
v 0.984606 3.286670 0.780796
v 0.770567 3.627555 -0.263723
v -0.287564 3.762763 -0.005804
v -1.132823 3.159807 1.178394
v -1.346861 3.500692 0.133876
v -0.686080 2.820283 3.084074
v 0.373218 3.082352 2.944395
v 0.140009 2.909191 2.032101
v -0.919289 2.647122 2.171781
v 1.431348 2.947145 2.686476
v 1.198139 2.773984 1.774182
v 0.120335 3.397364 -1.060672
v -0.961682 3.313247 -1.223617
v -1.144385 3.684448 -0.183889
v -0.062368 3.768564 -0.020944
v 1.138476 3.089176 -0.779715
v 0.955772 3.460377 0.260013
v 1.434069 2.696116 -2.704044
v 0.415928 3.004303 -2.985001
v 0.275415 2.856513 -2.049366
v 1.293556 2.548326 -1.768409
v -0.666089 2.920187 -3.147945
v -0.806602 2.772398 -2.212310
v 0.852595 3.287853 -0.080987
v 0.731459 3.175385 -1.165832
v -0.303926 3.596992 -1.091123
v -0.182789 3.709461 -0.006278
v 0.827108 3.013531 0.984299
v -0.208277 3.435138 1.059007
v 2.744853 2.525995 0.795626
v 2.770341 2.800318 -0.269660
v 1.824573 2.698979 -0.164154
v 1.799085 2.424657 0.901131
v 2.649205 2.687849 -1.354504
v 1.703437 2.586510 -1.249000
v -1.218747 3.142771 0.398920
v -0.661490 3.056032 1.340277
v 0.263090 3.421145 0.823361
v -0.294168 3.507882 -0.117996
v -1.648116 2.836389 -0.566745
v -0.723537 3.201501 -1.083661
v -3.329480 2.454451 0.422284
v -2.900111 2.760832 1.387949
v -2.088022 2.607656 0.905325
v -2.517390 2.301275 -0.060340
v -2.342854 2.674094 2.329306
v -1.530764 2.520918 1.846681
v -1.331573 2.693859 -1.009472
v -2.174936 2.619566 0.068707
v -1.110327 2.939693 0.919110
v -0.266964 3.013986 -0.159069
v -0.448346 2.265569 -1.971713
v 0.616264 2.585696 -1.121310
v -2.407425 2.038253 -3.480414
v -3.290652 2.466542 -2.518173
v -2.378944 2.156392 -1.809739
v -1.495716 1.728103 -2.771980
v -4.134016 2.392249 -1.439994
v -3.222306 2.082099 -0.731560
v 1.130293 1.772763 -0.125208
v 1.079881 1.698470 -1.493123
v -0.282199 2.018597 -1.456842
v -0.231788 2.092890 -0.088927
v 1.075485 1.344473 1.179780
v -0.286595 1.664601 1.216061
v 3.545733 1.117157 1.070055
v 3.600543 1.545446 -0.234934
v 2.446871 1.235296 -0.188702
v 2.392063 0.807007 1.116287
v 3.550130 1.471153 -1.602848
v 2.396460 1.161003 -1.556617
v 0.658249 4.666641 0.685751
v 1.210132 4.348150 -0.259578
v 0.278686 4.634278 -0.896280
v -0.273196 4.952769 0.049048
v 0.002610 4.567863 1.616920
v -0.928836 4.853990 0.980216
v 1.751473 4.326635 2.688117
v 2.407113 4.425415 1.756949
v 1.544825 4.200067 1.316330
v 0.889185 4.101288 2.247498
v 2.958995 4.106924 0.811621
v 2.096707 3.881577 0.371001
v -0.372980 2.226631 -1.147040
v -1.450457 2.133476 -0.961087
v -1.302848 2.529883 0.076425
v -0.225372 2.623038 -0.109528
v 0.685656 1.930243 -1.193742
v 0.833264 2.326650 -0.156231
v 0.368420 1.490269 -3.106024
v -0.690215 1.786657 -3.059323
v -0.528736 1.661769 -2.124333
v 0.529900 1.365381 -2.171035
v -1.767692 1.693503 -2.873368
v -1.606212 1.568614 -1.938379
v -0.947839 2.317731 0.819304
v -0.001647 2.210583 1.364910
v 0.555728 2.569685 0.463016
v -0.390463 2.676833 -0.082589
v -1.801035 2.030352 0.187028
v -1.243659 2.389455 -0.714865
v -2.785939 1.658646 1.871745
v -1.932744 1.946024 2.504021
v -1.464999 1.788016 1.683717
v -2.318195 1.500638 1.051441
v -0.986552 1.838876 3.049626
v -0.518807 1.680869 2.229322
v 0.581065 2.338914 -0.625475
v -0.108508 2.234945 -1.472864
v -0.952903 2.579742 -0.824546
v -0.263330 2.683711 0.022843
v 1.156050 2.046852 0.265938
v 0.311656 2.391649 0.914256
v 2.678397 1.701602 -0.962140
v 2.103412 1.993665 -1.853553
v 1.375907 1.822855 -1.254755
v 1.950893 1.530792 -0.363342
v 1.413838 1.889696 -2.700942
v 0.686334 1.718886 -2.102144
v 0.469031 2.226631 0.610547
v 1.065141 2.133476 -0.306070
v 0.203902 2.529883 -0.903133
v -0.392208 2.623038 0.013484
v -0.216395 1.930244 1.418682
v -1.077635 2.326650 0.821619
v 1.401702 1.490270 2.486025
v 2.087128 1.786657 1.677891
v 1.291646 1.661769 1.160697
v 0.606220 1.365381 1.968832
v 2.683238 1.693503 0.761274
v 1.887757 1.568614 0.244080
v -1.302717 2.149484 -0.335326
v -1.505291 2.056329 0.739150
v -0.481667 2.452735 0.963673
v -0.279093 2.545890 -0.110803
v -0.976272 1.853096 -1.343455
v 0.047353 2.249502 -1.118932
v -2.878756 1.413122 -1.714962
v -3.205200 1.709510 -0.706833
v -2.272774 1.584621 -0.531157
v -1.946329 1.288233 -1.539286
v -3.407775 1.616355 0.367643
v -2.475348 1.491467 0.543319
v 0.184753 1.265973 -1.145635
v -0.950517 1.168898 -1.500632
v -1.322787 1.581987 -0.423085
v -0.187517 1.679062 -0.068088
v 1.232644 0.957112 -0.665205
v 0.860375 1.370201 0.412342
v 1.875066 0.498622 -2.673706
v 0.827174 0.807483 -3.154137
v 0.519236 0.677338 -2.168938
v 1.567128 0.368477 -1.688508
v -0.308096 0.710408 -3.509134
v -0.616034 0.580263 -2.523936
v -1.394510 1.360906 0.435682
v -0.782423 1.249249 1.454097
v 0.223807 1.623465 0.890361
v -0.388279 1.735122 -0.128053
v -1.872388 1.061433 -0.616094
v -0.866158 1.435649 -1.179829
v -3.698487 0.674084 0.466645
v -3.220608 0.973556 1.518422
v -2.342702 0.808899 0.984990
v -2.820581 0.509426 -0.066787
v -2.608521 0.861899 2.536836
v -1.730616 0.697242 2.003405
v 0.816597 1.382981 -0.148102
v 0.581437 1.274637 -1.313111
v -0.559809 1.633945 -1.116163
v -0.324649 1.742289 0.048847
v 0.919132 1.078628 1.001307
v -0.222115 1.437935 1.198256
v 3.006647 0.718848 0.589192
v 2.904112 1.023202 -0.560217
v 1.900490 0.845204 -0.351796
v 2.003026 0.540850 0.797613
v 2.668952 0.914858 -1.725226
v 1.665330 0.736860 -1.516805
v 0.077594 1.259366 0.979108
v 1.132782 1.162291 0.430072
v 0.636703 1.575381 -0.596376
v -0.418485 1.672456 -0.047341
v -1.004116 0.950505 1.377595
v -1.500195 1.363595 0.351147
v -0.042955 0.492015 3.254549
v 1.038755 0.800876 2.856062
v 0.562203 0.670732 1.940452
v -0.519507 0.361871 2.338939
v 2.093942 0.703802 2.307026
v 1.617391 0.573657 1.391417
v -1.124167 1.185578 -0.872410
v -1.834346 1.088504 0.081796
v -0.940329 1.501593 0.789203
v -0.230151 1.598668 -0.165002
v -0.324473 0.876717 -1.702699
v 0.569543 1.289806 -0.995291
v -2.007892 0.418227 -2.972695
v -2.807585 0.727088 -2.142406
v -1.979473 0.596944 -1.526230
v -1.179779 0.288083 -2.356519
v -3.517764 0.630014 -1.188201
v -2.689651 0.499869 -0.572025
vt 0.425858 0.206741
vt 0.565914 0.214270
vt 0.339812 0.177295
vt 0.225054 0.023827
vt 0.245521 0.171151
vt 0.384060 0.190086
vt 0.324921 0.015734
vt 0.174706 0.025133
vt 0.432505 0.000369
vt 0.199182 0.184447
vt 0.378489 0.007964
vt 0.581547 0.006414
vt 0.822557 -0.004850
vt 0.500000 -0.004850
vt 0.612371 0.198460
vt 0.155384 0.205800
vt 0.500000 0.328429
vt 0.631700 0.018879
vt 0.274442 0.020891
vt 0.122926 0.025467
vt 0.822557 0.328429
vt 0.177443 0.328429
vt 0.293107 0.169638
vt 0.177443 -0.004850
vt 0.822557 -0.004850
vt 0.500000 -0.004850
vt 0.822557 0.661709
vt 0.177443 0.661709
vt 0.500000 0.328429
vt 0.500000 0.661709
vt 0.822557 0.994989
vt 0.177443 0.994989
vt 0.822557 0.328429
vt 0.177443 0.328429
vt 0.500000 0.994989
vt 0.177443 -0.004850
vt 0.822557 -0.004850
vt 0.500000 -0.004850
vt 0.822557 0.661709
vt 0.177443 0.661709
vt 0.500000 0.328429
vt 0.500000 0.661709
vt 0.822557 0.994989
vt 0.177443 0.994989
vt 0.822557 0.328429
vt 0.177443 0.328429
vt 0.500000 0.994989
vt 0.177443 -0.004850
vt 0.822557 -0.004850
vt 0.500000 -0.004850
vt 0.822557 0.661709
vt 0.177443 0.661709
vt 0.500000 0.328429
vt 0.500000 0.661709
vt 0.822557 0.994989
vt 0.177443 0.994989
vt 0.822557 0.328429
vt 0.177443 0.328429
vt 0.500000 0.994989
vt 0.177443 -0.004850
vt 0.822557 -0.004850
vt 0.500000 -0.004850
vt 0.822557 0.661709
vt 0.177443 0.661709
vt 0.500000 0.328429
vt 0.500000 0.661709
vt 0.822557 0.994989
vt 0.177443 0.994989
vt 0.822557 0.328429
vt 0.177443 0.328429
vt 0.500000 0.994989
vt 0.177443 -0.004850
vt 0.822557 -0.004850
vt 0.500000 -0.004850
vt 0.822557 0.661709
vt 0.177443 0.661709
vt 0.500000 0.328429
vt 0.500000 0.661709
vt 0.822557 0.994989
vt 0.177443 0.994989
vt 0.822557 0.328429
vt 0.177443 0.328429
vt 0.500000 0.994989
vt 0.177443 -0.004850
vt 0.822557 -0.004850
vt 0.500000 -0.004850
vt 0.822557 0.661709
vt 0.177443 0.661709
vt 0.500000 0.328429
vt 0.500000 0.661709
vt 0.822557 0.994989
vt 0.177443 0.994989
vt 0.822557 0.328429
vt 0.177443 0.328429
vt 0.500000 0.994989
vt 0.177443 -0.004850
vt 0.822557 -0.004850
vt 0.500000 -0.004850
vt 0.822557 0.661709
vt 0.177443 0.661709
vt 0.500000 0.328429
vt 0.500000 0.661709
vt 0.822557 0.994989
vt 0.177443 0.994989
vt 0.822557 0.328429
vt 0.177443 0.328429
vt 0.500000 0.994989
vt 0.177443 -0.004850
vt 0.822557 -0.004850
vt 0.500000 -0.004850
vt 0.822557 0.661709
vt 0.177443 0.661709
vt 0.500000 0.328429
vt 0.500000 0.661709
vt 0.822557 0.994989
vt 0.177443 0.994989
vt 0.822557 0.328429
vt 0.177443 0.328429
vt 0.500000 0.994989
vt 0.177443 -0.004850
vt 0.822557 -0.004850
vt 0.500000 -0.004850
vt 0.822557 0.661709
vt 0.177443 0.661709
vt 0.500000 0.328429
vt 0.500000 0.661709
vt 0.822557 0.994989
vt 0.177443 0.994989
vt 0.822557 0.328429
vt 0.177443 0.328429
vt 0.500000 0.994989
vt 0.177443 -0.004850
vt 0.822557 -0.004850
vt 0.500000 -0.004850
vt 0.822557 0.661709
vt 0.177443 0.661709
vt 0.500000 0.328429
vt 0.500000 0.661709
vt 0.822557 0.994989
vt 0.177443 0.994989
vt 0.822557 0.328429
vt 0.177443 0.328429
vt 0.500000 0.994989
vt 0.177443 -0.004850
vt 0.822557 -0.004850
vt 0.500000 -0.004850
vt 0.822557 0.661709
vt 0.177443 0.661709
vt 0.500000 0.328429
vt 0.500000 0.661709
vt 0.822557 0.994989
vt 0.177443 0.994989
vt 0.822557 0.328429
vt 0.177443 0.328429
vt 0.500000 0.994989
vt 0.177443 -0.004850
vt 0.822557 -0.004850
vt 0.500000 -0.004850
vt 0.822557 0.661709
vt 0.177443 0.661709
vt 0.500000 0.328429
vt 0.500000 0.661709
vt 0.822557 0.994989
vt 0.177443 0.994989
vt 0.822557 0.328429
vt 0.177443 0.328429
vt 0.500000 0.994989
vt 0.177443 -0.004850
vt 0.822557 -0.004850
vt 0.500000 -0.004850
vt 0.822557 0.661709
vt 0.177443 0.661709
vt 0.500000 0.328429
vt 0.500000 0.661709
vt 0.822557 0.994989
vt 0.177443 0.994989
vt 0.822557 0.328429
vt 0.177443 0.328429
vt 0.500000 0.994989
vt 0.177443 -0.004850
vt 0.822557 -0.004850
vt 0.500000 -0.004850
vt 0.822557 0.661709
vt 0.177443 0.661709
vt 0.500000 0.328429
vt 0.500000 0.661709
vt 0.822557 0.994989
vt 0.177443 0.994989
vt 0.822557 0.328429
vt 0.177443 0.328429
vt 0.500000 0.994989
vt 0.177443 -0.004850
vt 0.822557 -0.004850
vt 0.500000 -0.004850
vt 0.822557 0.661709
vt 0.177443 0.661709
vt 0.500000 0.328429
vt 0.500000 0.661709
vt 0.822557 0.994989
vt 0.177443 0.994989
vt 0.822557 0.328429
vt 0.177443 0.328429
vt 0.500000 0.994989
vt 0.177443 -0.004850
vt 0.822557 -0.004850
vt 0.500000 -0.004850
vt 0.822557 0.661709
vt 0.177443 0.661709
vt 0.500000 0.328429
vt 0.500000 0.661709
vt 0.822557 0.994989
vt 0.177443 0.994989
vt 0.822557 0.328429
vt 0.177443 0.328429
vt 0.500000 0.994989
vt 0.177443 -0.004850
vt 0.822557 -0.004850
vt 0.500000 -0.004850
vt 0.822557 0.661709
vt 0.177443 0.661709
vt 0.500000 0.328429
vt 0.500000 0.661709
vt 0.822557 0.994989
vt 0.177443 0.994989
vt 0.822557 0.328429
vt 0.177443 0.328429
vt 0.500000 0.994989
vt 0.177443 -0.004850
vt 0.822557 -0.004850
vt 0.500000 -0.004850
vt 0.822557 0.661709
vt 0.177443 0.661709
vt 0.500000 0.328429
vt 0.500000 0.661709
vt 0.822557 0.994989
vt 0.177443 0.994989
vt 0.822557 0.328429
vt 0.177443 0.328429
vt 0.500000 0.994989
vt 0.177443 -0.004850
vt 0.822557 -0.004850
vt 0.500000 -0.004850
vt 0.822557 0.661709
vt 0.177443 0.661709
vt 0.500000 0.328429
vt 0.500000 0.661709
vt 0.822557 0.994989
vt 0.177443 0.994989
vt 0.822557 0.328429
vt 0.177443 0.328429
vt 0.500000 0.994989
vt 0.177443 -0.004850
vt 0.822557 -0.004850
vt 0.500000 -0.004850
vt 0.822557 0.661709
vt 0.177443 0.661709
vt 0.500000 0.328429
vt 0.500000 0.661709
vt 0.822557 0.994989
vt 0.177443 0.994989
vt 0.822557 0.328429
vt 0.177443 0.328429
vt 0.500000 0.994989
vt 0.177443 -0.004850
vt 0.822557 -0.004850
vt 0.500000 -0.004850
vt 0.822557 0.661709
vt 0.177443 0.661709
vt 0.500000 0.328429
vt 0.500000 0.661709
vt 0.822557 0.994989
vt 0.177443 0.994989
vt 0.822557 0.328429
vt 0.177443 0.328429
vt 0.500000 0.994989
vt 0.177443 -0.004850
vt 0.822557 -0.004850
vt 0.500000 -0.004850
vt 0.822557 0.661709
vt 0.177443 0.661709
vt 0.500000 0.328429
vt 0.500000 0.661709
vt 0.822557 0.994989
vt 0.177443 0.994989
vt 0.822557 0.328429
vt 0.177443 0.328429
vt 0.500000 0.994989
vt 0.177443 -0.004850
vt 0.822557 -0.004850
vt 0.500000 -0.004850
vt 0.822557 0.661709
vt 0.177443 0.661709
vt 0.500000 0.328429
vt 0.500000 0.661709
vt 0.822557 0.994989
vt 0.177443 0.994989
vt 0.822557 0.328429
vt 0.177443 0.328429
vt 0.500000 0.994989
vt 0.177443 -0.004850
vt 0.822557 -0.004850
vt 0.500000 -0.004850
vt 0.822557 0.661709
vt 0.177443 0.661709
vt 0.500000 0.328429
vt 0.500000 0.661709
vt 0.822557 0.994989
vt 0.177443 0.994989
vt 0.822557 0.328429
vt 0.177443 0.328429
vt 0.500000 0.994989
vt 0.177443 -0.004850
vt 0.822557 -0.004850
vt 0.500000 -0.004850
vt 0.822557 0.661709
vt 0.177443 0.661709
vt 0.500000 0.328429
vt 0.500000 0.661709
vt 0.822557 0.994989
vt 0.177443 0.994989
vt 0.822557 0.328429
vt 0.177443 0.328429
vt 0.500000 0.994989
vt 0.177443 -0.004850
vt 0.822557 -0.004850
vt 0.500000 -0.004850
vt 0.822557 0.661709
vt 0.177443 0.661709
vt 0.500000 0.328429
vt 0.500000 0.661709
vt 0.822557 0.994989
vt 0.177443 0.994989
vt 0.822557 0.328429
vt 0.177443 0.328429
vt 0.500000 0.994989
vt 0.177443 -0.004850
vt 0.822557 -0.004850
vt 0.500000 -0.004850
vt 0.822557 0.661709
vt 0.177443 0.661709
vt 0.500000 0.328429
vt 0.500000 0.661709
vt 0.822557 0.994989
vt 0.177443 0.994989
vt 0.822557 0.328429
vt 0.177443 0.328429
vt 0.500000 0.994989
vt 0.177443 -0.004850
vt 0.822557 -0.004850
vt 0.500000 -0.004850
vt 0.822557 0.661709
vt 0.177443 0.661709
vt 0.500000 0.328429
vt 0.500000 0.661709
vt 0.822557 0.994989
vt 0.177443 0.994989
vt 0.822557 0.328429
vt 0.177443 0.328429
vt 0.500000 0.994989
vt 0.177443 -0.004850
vt 0.822557 -0.004850
vt 0.500000 -0.004850
vt 0.822557 0.661709
vt 0.177443 0.661709
vt 0.500000 0.328429
vt 0.500000 0.661709
vt 0.822557 0.994989
vt 0.177443 0.994989
vt 0.822557 0.328429
vt 0.177443 0.328429
vt 0.500000 0.994989
vt 0.177443 -0.004850
vt 0.822557 -0.004850
vt 0.500000 -0.004850
vt 0.822557 0.661709
vt 0.177443 0.661709
vt 0.500000 0.328429
vt 0.500000 0.661709
vt 0.822557 0.994989
vt 0.177443 0.994989
vt 0.822557 0.328429
vt 0.177443 0.328429
vt 0.500000 0.994989
vt 0.177443 -0.004850
vt 0.822557 -0.004850
vt 0.500000 -0.004850
vt 0.822557 0.661709
vt 0.177443 0.661709
vt 0.500000 0.328429
vt 0.500000 0.661709
vt 0.822557 0.994989
vt 0.177443 0.994989
vt 0.822557 0.328429
vt 0.177443 0.328429
vt 0.500000 0.994989
vt 0.177443 -0.004850
vt 0.822557 -0.004850
vt 0.500000 -0.004850
vt 0.822557 0.661709
vt 0.177443 0.661709
vt 0.500000 0.328429
vt 0.500000 0.661709
vt 0.822557 0.994989
vt 0.177443 0.994989
vt 0.822557 0.328429
vt 0.177443 0.328429
vt 0.500000 0.994989
vt 0.177443 -0.004850
vt 0.822557 -0.004850
vt 0.500000 -0.004850
vt 0.822557 0.661709
vt 0.177443 0.661709
vt 0.500000 0.328429
vt 0.500000 0.661709
vt 0.822557 0.994989
vt 0.177443 0.994989
vt 0.822557 0.328429
vt 0.177443 0.328429
vt 0.500000 0.994989
vt 0.177443 -0.004850
vt 0.822557 -0.004850
vt 0.500000 -0.004850
vt 0.822557 0.661709
vt 0.177443 0.661709
vt 0.500000 0.328429
vt 0.500000 0.661709
vt 0.822557 0.994989
vt 0.177443 0.994989
vt 0.822557 0.328429
vt 0.177443 0.328429
vt 0.500000 0.994989
vt 0.177443 -0.004850
vt 0.822557 -0.004850
vt 0.500000 -0.004850
vt 0.822557 0.661709
vt 0.177443 0.661709
vt 0.500000 0.328429
vt 0.500000 0.661709
vt 0.822557 0.994989
vt 0.177443 0.994989
vt 0.822557 0.328429
vt 0.177443 0.328429
vt 0.500000 0.994989
vt 0.177443 -0.004850
vt 0.822557 -0.004850
vt 0.500000 -0.004850
vt 0.822557 0.661709
vt 0.177443 0.661709
vt 0.500000 0.328429
vt 0.500000 0.661709
vt 0.822557 0.994989
vt 0.177443 0.994989
vt 0.822557 0.328429
vt 0.177443 0.328429
vt 0.500000 0.994989
vt 0.177443 -0.004850
vt 0.822557 -0.004850
vt 0.500000 -0.004850
vt 0.822557 0.661709
vt 0.177443 0.661709
vt 0.500000 0.328429
vt 0.500000 0.661709
vt 0.822557 0.994989
vt 0.177443 0.994989
vt 0.822557 0.328429
vt 0.177443 0.328429
vt 0.500000 0.994989
vt 0.177443 -0.004850
vt 0.822557 -0.004850
vt 0.500000 -0.004850
vt 0.822557 0.661709
vt 0.177443 0.661709
vt 0.500000 0.328429
vt 0.500000 0.661709
vt 0.822557 0.994989
vt 0.177443 0.994989
vt 0.822557 0.328429
vt 0.177443 0.328429
vt 0.500000 0.994989
vt 0.177443 -0.004850
vt 0.822557 -0.004850
vt 0.500000 -0.004850
vt 0.822557 0.661709
vt 0.177443 0.661709
vt 0.500000 0.328429
vt 0.500000 0.661709
vt 0.822557 0.994989
vt 0.177443 0.994989
vt 0.822557 0.328429
vt 0.177443 0.328429
vt 0.500000 0.994989
vt 0.177443 -0.004850
vt 0.822557 -0.004850
vt 0.500000 -0.004850
vt 0.822557 0.661709
vt 0.177443 0.661709
vt 0.500000 0.328429
vt 0.500000 0.661709
vt 0.822557 0.994989
vt 0.177443 0.994989
vt 0.822557 0.328429
vt 0.177443 0.328429
vt 0.500000 0.994989
vt 0.177443 -0.004850
vt 0.822557 -0.004850
vt 0.500000 -0.004850
vt 0.822557 0.661709
vt 0.177443 0.661709
vt 0.500000 0.328429
vt 0.500000 0.661709
vt 0.822557 0.994989
vt 0.177443 0.994989
vt 0.822557 0.328429
vt 0.177443 0.328429
vt 0.500000 0.994989
vt 0.177443 -0.004850
vn 0.134000 0.989500 0.054400
vn -0.181300 0.973700 -0.138200
vn -0.351100 0.934900 0.051100
vn -0.399400 0.858500 -0.321700
vn -0.326900 0.888500 -0.321900
vn -0.423400 0.904600 0.049500
vn -0.372800 -0.018400 -0.927700
vn -0.345200 0.928400 -0.137500
vn -0.189800 0.929200 -0.317200
vn 0.130100 0.950200 -0.283100
vn -0.417000 0.898300 -0.138500
vn 0.134100 0.985100 -0.107600
vn -0.084600 0.976000 -0.200600
vn 0.074700 0.988300 0.133100
vn 0.320600 0.944600 0.070400
vn 0.157700 0.896100 0.414900
vn 0.096600 0.922800 0.373000
vn 0.380400 0.917800 0.113700
vn -0.186500 0.981000 0.053700
vn 0.212600 0.950800 0.225500
vn -0.015600 0.956500 0.291200
vn -0.265300 0.960300 0.086500
vn 0.272400 0.924100 0.268000
vn -0.173000 0.982800 -0.065000
vn 0.014900 0.985200 0.170900
vn 0.015800 0.979900 -0.199100
vn -0.234000 0.940300 -0.247000
vn 0.060600 0.872800 -0.484300
vn 0.098200 0.901500 -0.421400
vn -0.270000 0.911400 -0.310700
vn 0.184000 0.982600 -0.025000
vn -0.069400 0.937800 -0.340200
vn 0.164800 0.939300 -0.300900
vn 0.301500 0.953400 -0.008500
vn -0.105700 0.909000 -0.403100
vn 0.153400 0.984300 0.086900
vn -0.144300 0.989200 0.025700
vn 0.197000 0.973500 -0.115700
vn 0.144500 0.920900 -0.362000
vn 0.476100 0.861000 -0.178700
vn 0.433100 0.893100 -0.121400
vn 0.189000 0.888600 -0.417900
vn -0.151200 0.983000 -0.103800
vn 0.293800 0.923600 -0.246300
vn 0.347800 0.937400 -0.015400
vn 0.131800 0.966000 0.222200
vn 0.337400 0.891500 -0.302300
vn -0.013200 0.992600 0.120900
vn 0.124300 0.984100 -0.127100
vn -0.157400 0.981100 0.112500
vn -0.031700 0.942200 0.333600
vn -0.403200 0.876100 0.264400
vn -0.379900 0.904300 0.194900
vn -0.056800 0.913800 0.402200
vn 0.044700 0.971500 -0.232700
vn -0.209300 0.940100 0.269200
vn -0.331400 0.941200 0.065400
vn -0.198600 0.953200 -0.228100
vn -0.233500 0.911900 0.337600
vn -0.029700 0.983600 -0.177700
vn 0.109900 0.992100 0.060800
vn -0.265000 0.954300 -0.138400
vn -0.442700 0.891800 0.093200
vn -0.513400 0.795300 -0.322400
vn -0.436700 0.836400 -0.331200
vn -0.518400 0.849800 0.095700
vn 0.023500 0.983900 0.177300
vn -0.450200 0.884900 -0.119800
vn -0.276800 0.898400 -0.340900
vn 0.079800 0.941100 -0.328600
vn -0.523400 0.844100 -0.116100
vn 0.097600 0.987200 -0.126400
vn -0.130900 0.963600 -0.233100
vn 0.022100 0.986000 0.165300
vn 0.313600 0.942800 0.113400
vn 0.100400 0.868400 0.485500
vn 0.033400 0.898800 0.437000
vn 0.376200 0.911500 0.166100
vn -0.252600 0.963900 0.084600
vn 0.178700 0.943000 0.280600
vn -0.096800 0.937800 0.333500
vn -0.360400 0.929000 0.084500
vn 0.240500 0.912700 0.330500
vn -0.244400 0.966000 -0.084200
vn -0.025900 0.978200 0.206300
vn -0.036700 0.974500 -0.221200
vn -0.324900 0.907200 -0.267300
vn 0.006900 0.840300 -0.542100
vn 0.051200 0.878200 -0.475500
vn -0.363700 0.868700 -0.336200
vn 0.159600 0.987100 -0.011700
vn -0.141500 0.914300 -0.379600
vn 0.135200 0.931700 -0.337200
vn 0.298800 0.954200 -0.013400
vn -0.180600 0.876800 -0.445700
vn 0.130400 0.986000 0.104200
vn -0.220900 0.975200 0.015900
vn 0.189600 0.976900 -0.098700
vn 0.165000 0.906800 -0.387800
vn 0.510800 0.849100 -0.134800
vn 0.457400 0.886000 -0.076200
vn 0.222000 0.869500 -0.441200
vn -0.226000 0.968900 -0.101100
vn 0.317200 0.917700 -0.239000
vn 0.342600 0.938600 0.040500
vn 0.073000 0.958000 0.277300
vn 0.371500 0.881400 -0.291600
vn -0.083100 0.986300 0.142700
vn 0.087400 0.985200 -0.147700
vn -0.224400 0.964100 0.142200
vn -0.064500 0.918500 0.390100
vn -0.479300 0.815000 0.325700
vn -0.462400 0.851300 0.248000
vn -0.086900 0.881100 0.464900
vn 0.026700 0.967500 -0.251500
vn -0.267800 0.906200 0.327300
vn -0.419000 0.903500 0.090100
vn -0.289500 0.925400 -0.244600
vn -0.288300 0.869900 0.400100
vn -0.093200 0.975900 -0.197500
vn 0.115200 0.989400 0.088700
vn -0.248100 0.959700 -0.132300
vn -0.439300 0.894100 0.087300
vn -0.487000 0.807200 -0.333600
vn -0.409600 0.847700 -0.337100
vn -0.515400 0.852800 0.084600
vn -0.010000 0.979000 0.203600
vn -0.434700 0.891800 -0.125800
vn -0.248800 0.908300 -0.336300
vn 0.106900 0.947000 -0.302800
vn -0.508400 0.851700 -0.127200
vn 0.113500 0.988600 -0.099000
vn -0.114200 0.969600 -0.216200
vn 0.025300 0.981900 0.187500
vn 0.317900 0.937000 0.144600
vn 0.091500 0.856700 0.507600
vn 0.026500 0.888800 0.457500
vn 0.378400 0.904000 0.198700
vn -0.248400 0.964300 0.091200
vn 0.177400 0.935000 0.307100
vn -0.099800 0.931200 0.350500
vn -0.354700 0.930400 0.092500
vn 0.237200 0.903000 0.358400
vn -0.232700 0.969900 -0.071300
vn -0.029400 0.973700 0.225800
vn -0.014800 0.979400 -0.201600
vn -0.300300 0.916000 -0.266100
vn 0.046600 0.851600 -0.522200
vn 0.087200 0.887600 -0.452300
vn -0.335300 0.879400 -0.338000
vn 0.168700 0.985500 0.015400
vn -0.110600 0.923600 -0.367200
vn 0.163200 0.937200 -0.308100
vn 0.307600 0.951200 0.025200
vn -0.145900 0.887900 -0.436200
vn 0.132800 0.982100 0.133300
vn -0.212200 0.976500 0.037100
vn 0.198400 0.977100 -0.077100
vn 0.173500 0.913600 -0.367800
vn 0.518500 0.847200 -0.115800
vn 0.465400 0.883300 -0.056400
vn 0.230200 0.876900 -0.421900
vn -0.210900 0.973100 -0.093000
vn 0.325600 0.919900 -0.218600
vn 0.351000 0.934400 0.061300
vn 0.081300 0.951000 0.298300
vn 0.379700 0.884200 -0.272000
vn -0.074400 0.983600 0.164200
vn 0.108900 0.987200 -0.116600
vn -0.229400 0.963000 0.141500
vn -0.094400 0.910500 0.402500
vn -0.501900 0.812500 0.296400
vn -0.477400 0.850300 0.221500
vn -0.124200 0.871700 0.474000
vn 0.035600 0.972500 -0.230200
vn -0.290800 0.901600 0.320300
vn -0.418600 0.905500 0.069700
vn -0.257400 0.933300 -0.250500
vn -0.318500 0.864000 0.390000
vn -0.066100 0.980800 -0.183700
vn 0.099000 0.995000 -0.011400
vn -0.266000 0.963200 0.038800
vn -0.275700 0.916000 0.291500
vn -0.546300 0.837000 0.031300
vn -0.491600 0.870700 -0.013800
vn -0.331400 0.882000 0.335000
vn -0.021800 0.974500 0.223500
vn -0.390400 0.909700 0.141600
vn -0.384300 0.918200 -0.095700
vn -0.116400 0.955500 -0.271100
vn -0.445400 0.876000 0.185400
vn -0.003500 0.990600 -0.136900
vn -0.218200 0.971600 -0.091400
vn 0.096100 0.990100 0.102800
vn 0.270000 0.959100 -0.084600
vn 0.322300 0.900600 0.291500
vn 0.247400 0.924400 0.290300
vn 0.344700 0.935200 -0.081500
vn -0.148700 0.970300 0.190800
vn 0.263400 0.959000 0.104500
vn 0.107500 0.952900 0.283500
vn -0.213300 0.945200 0.247100
vn 0.337700 0.935200 0.106800
vn -0.219100 0.973200 0.070600
vn 0.073900 0.984400 0.159600
vn -0.144300 0.979700 -0.139300
vn -0.372200 0.927600 -0.031400
vn -0.272900 0.875400 -0.398900
vn -0.206600 0.905900 -0.369600
vn -0.437600 0.897000 -0.062300
vn 0.102100 0.990700 -0.089400
vn -0.294800 0.933600 -0.203900
vn -0.083100 0.946900 -0.310600
vn 0.199500 0.967500 -0.155400
vn -0.360100 0.903100 -0.234000
vn 0.135600 0.990700 0.009900
vn -0.155100 0.980500 0.120400
vn 0.077200 0.982900 -0.167200
vn -0.084600 0.929100 -0.359900
vn 0.296500 0.884900 -0.359200
vn 0.284800 0.914500 -0.287400
vn -0.071000 0.899500 -0.431200
vn -0.222400 0.974300 0.036400
vn 0.101600 0.938600 -0.329600
vn 0.259000 0.953800 -0.152300
vn 0.182100 0.970100 0.160400
vn 0.114400 0.909100 -0.400500
vn 0.005300 0.989900 0.141500
vn -0.022000 0.989100 -0.145500
vn -0.090400 0.971900 0.217400
vn 0.147600 0.939400 0.309500
vn -0.182100 0.854500 0.486400
vn -0.208600 0.883900 0.418600
vn 0.172300 0.909700 0.377800
vn -0.112400 0.973900 -0.197300
vn -0.030700 0.928300 0.370600
vn -0.253700 0.923200 0.288700
vn -0.335200 0.941900 -0.022700
vn -0.005600 0.898900 0.438200
vn -0.173400 0.980900 -0.088400
vn 0.083900 0.995000 0.053600
vn -0.230900 0.963200 -0.137800
vn -0.397800 0.916000 0.052300
vn -0.443600 0.837000 -0.320400
vn -0.372700 0.870700 -0.320900
vn -0.468500 0.882000 0.050800
vn 0.090800 0.983800 0.154600
vn -0.392300 0.909700 -0.136400
vn -0.237800 0.918200 -0.316700
vn 0.080700 0.955500 -0.283800
vn -0.462500 0.876000 -0.137100
vn 0.083600 0.990600 -0.108400
vn -0.124800 0.971600 -0.201000
vn 0.018700 0.990100 0.139400
vn 0.269000 0.959100 0.087600
vn 0.093600 0.900600 0.424400
vn 0.033300 0.924400 0.379900
vn 0.328100 0.935200 0.133500
vn -0.235700 0.970300 0.054200
vn 0.154100 0.959000 0.237800
vn -0.076800 0.952900 0.293300
vn -0.317100 0.945200 0.077700
vn 0.213200 0.935200 0.282800
vn -0.219400 0.973200 -0.069500
vn -0.033400 0.984400 0.172600
vn -0.035500 0.979700 -0.197300
vn -0.283500 0.927600 -0.243200
vn 0.012000 0.875400 -0.483200
vn 0.048700 0.905900 -0.420600
vn -0.318500 0.897000 -0.306600
vn 0.135000 0.990700 -0.013700
vn -0.119800 0.933600 -0.337800
vn 0.114400 0.946900 -0.300500
vn 0.252700 0.967500 -0.009300
vn -0.155200 0.903100 -0.400500
vn 0.104100 0.990700 0.087400
vn -0.195600 0.980500 0.017600
vn 0.155300 0.982900 -0.099000
vn 0.123200 0.929100 -0.348600
vn 0.443500 0.884900 -0.142100
vn 0.394900 0.914500 -0.088000
vn 0.173100 0.899500 -0.401200
vn -0.201700 0.974300 -0.100600
vn 0.263500 0.938600 -0.222500
vn 0.300200 0.953800 0.011700
vn 0.066600 0.970100 0.233300
vn 0.312600 0.909100 -0.275300
vn -0.072000 0.989900 0.121900
vn 0.068500 0.989100 -0.130300
vn -0.201700 0.971900 0.121600
vn -0.064500 0.939400 0.336800
vn -0.434900 0.854500 0.284000
vn -0.416100 0.883900 0.213600
vn -0.085000 0.909700 0.406400
vn 0.012000 0.973900 -0.226700
vn -0.244400 0.928300 0.280300
vn -0.375400 0.923200 0.082200
vn -0.256600 0.941900 -0.216900
vn -0.264100 0.898900 0.349700
vn -0.087300 0.980900 -0.174000
vn 0.066400 0.989500 0.128500
vn -0.047800 0.973700 -0.222900
vn -0.300000 0.934900 -0.189500
vn -0.094100 0.858500 -0.504100
vn -0.038900 0.888500 -0.457100
vn -0.353700 0.904600 -0.237800
vn -0.018400 0.983800 0.178300
vn -0.172700 0.928400 -0.329000
vn 0.062200 0.929200 -0.364400
vn 0.282900 0.950200 -0.130400
vn -0.226600 0.898300 -0.376500
vn 0.171900 0.985100 0.005500
vn 0.074900 0.976000 -0.204400
vn -0.036000 0.988300 0.148300
vn 0.186500 0.944600 0.270100
vn -0.167500 0.896100 0.411000
vn -0.183600 0.922800 0.338800
vn 0.200800 0.917800 0.342500
vn -0.176600 0.981000 -0.080500
vn 0.001700 0.950800 0.309900
vn -0.209900 0.956500 0.202400
vn -0.253100 0.960300 -0.117600
vn 0.016600 0.924100 0.381800
vn -0.082200 0.982800 -0.165500
vn -0.097800 0.985200 0.140900
vn 0.139500 0.979900 -0.142900
vn -0.022000 0.940300 -0.339600
vn 0.356300 0.872800 -0.333600
vn 0.345000 0.901500 -0.261200
vn -0.008900 0.911400 -0.411500
vn 0.151700 0.982600 0.107100
vn 0.164200 0.937800 -0.306000
vn 0.319100 0.939300 -0.126000
vn 0.237200 0.953400 0.186200
vn 0.176500 0.909000 -0.377500
vn 0.062400 0.984300 0.164800
vn -0.116000 0.989200 -0.089600
vn 0.218100 0.973500 0.068200
vn 0.365200 0.920900 -0.136200
vn 0.452300 0.861000 0.232500
vn 0.380900 0.893100 0.239100
vn 0.436500 0.888600 -0.140900
vn -0.049800 0.983000 -0.176500
vn 0.379800 0.923600 0.052000
vn 0.245100 0.937400 0.247300
vn -0.076000 0.966000 0.247000
vn 0.450600 0.891500 0.046800
vn -0.098400 0.992600 0.071500
vn 0.177200 0.984100 -0.014200
vn -0.192600 0.981100 -0.018600
vn -0.243100 0.942200 0.230700
vn -0.477700 0.876100 -0.065600
vn -0.414500 0.904300 -0.102600
vn -0.307100 0.913800 0.266000
vn 0.202400 0.971500 -0.123300
vn -0.334600 0.940100 0.065500
vn -0.292900 0.941200 -0.168400
vn 0.000000 0.953200 -0.302400
vn -0.397800 0.911900 0.101100
vn 0.094300 0.983600 -0.153500
vn 0.171900 0.964400 0.200900
vn 0.040100 0.988800 -0.143700
vn -0.212800 0.972000 -0.099500
vn -0.031000 0.902300 -0.430000
vn 0.029200 0.922900 -0.384000
vn -0.271600 0.951100 -0.146900
vn -0.098700 0.983900 0.149100
vn -0.093700 0.964800 -0.245900
vn 0.138200 0.945700 -0.294100
vn 0.370800 0.925900 -0.071800
vn -0.152500 0.944000 -0.292500
vn 0.270400 0.960000 0.072300
vn -0.261000 0.964400 -0.042800
vn 0.062000 0.988800 0.135700
vn 0.226800 0.972000 -0.061200
vn 0.300900 0.902300 0.308800
vn 0.225200 0.922900 0.312300
vn 0.302400 0.951100 -0.062800
vn -0.080400 0.996700 0.005800
vn 0.230100 0.964800 0.127600
vn 0.084000 0.945700 0.313900
vn -0.237100 0.925900 0.293900
vn 0.305200 0.944000 0.125200
vn -0.253300 0.960000 0.119100
vn -0.064100 0.933800 -0.352000
vn 0.117300 0.992500 -0.035200
vn 0.356700 0.928400 -0.104600
vn 0.215600 0.943400 0.251900
vn 0.153000 0.965600 0.210100
vn 0.418200 0.906300 -0.061200
vn 0.057700 0.996700 -0.056300
vn 0.259600 0.964200 0.053500
vn 0.036600 0.990700 0.130800
vn -0.225700 0.972600 -0.055700
vn 0.321100 0.942200 0.095900
vn -0.143000 0.966200 -0.214300
vn -0.060800 0.987900 0.142500
vn 0.075700 0.976700 -0.201000
vn -0.138600 0.931500 -0.336200
vn 0.222800 0.866200 -0.447400
vn 0.234400 0.896500 -0.375900
vn -0.148300 0.901000 -0.407700
vn 0.215300 0.956600 -0.196600
vn 0.048500 0.930700 -0.362500
vn 0.251900 0.937500 -0.239900
vn 0.272000 0.958900 0.081100
vn 0.038100 0.900400 -0.433500
vn 0.098900 0.988400 0.114900
vn 0.165700 0.981600 -0.094600
vn -0.158600 0.983800 0.083400
vn -0.080800 0.942200 0.325200
vn -0.432300 0.883200 0.182000
vn -0.394800 0.911000 0.118700
vn -0.119800 0.914100 0.387300
vn -0.114500 0.978200 -0.173500
vn -0.242000 0.943600 0.226200
vn -0.320600 0.947200 0.002100
vn -0.130600 0.957100 -0.258800
vn -0.280100 0.915700 0.288300
vn 0.025200 0.984200 -0.175200
vn -0.197000 0.979600 0.040100
vn 0.169400 0.985500 -0.010900
vn 0.183000 0.946700 -0.265100
vn 0.461300 0.887200 -0.006800
vn 0.403400 0.914200 0.039300
vn 0.241900 0.919600 -0.309600
vn 0.005500 0.983000 0.183500
vn 0.298400 0.947500 -0.115200
vn 0.292300 0.948500 0.122200
vn 0.021700 0.954100 0.298600
vn 0.356500 0.920500 -0.160000
vn -0.094400 0.981700 0.165400
vn -0.063100 0.987900 -0.141500
vn 0.096000 0.976700 0.192200
vn 0.340800 0.931500 0.126900
vn 0.176600 0.866200 0.467500
vn 0.116300 0.896500 0.427500
vn 0.399800 0.901000 0.168500
vn 0.051600 0.985300 -0.162900
vn 0.232900 0.930700 0.282000
vn 0.004700 0.937500 0.347900
vn -0.244400 0.958900 0.144400
vn 0.292000 0.900400 0.322600
vn -0.151500 0.988400 -0.005600
vn 0.112200 0.987900 0.106800
vn -0.161900 0.976700 -0.141200
vn -0.363400 0.931500 0.012200
vn -0.341200 0.866200 -0.365100
vn -0.270200 0.896500 -0.351100
vn -0.433800 0.901000 -0.003700
vn 0.205100 0.978200 0.034000
vn -0.322700 0.930700 -0.172200
vn -0.136700 0.937500 -0.319900
vn 0.171100 0.958900 -0.226500
vn -0.392800 0.900400 -0.187300
vn 0.142300 0.988400 -0.052400
vn -0.114200 0.988900 0.094900
vn 0.153000 0.978300 -0.139400
vn 0.029100 0.936700 -0.349000
vn 0.389400 0.875300 -0.286600
vn 0.367100 0.903900 -0.219700
vn 0.052300 0.908000 -0.415600
vn -0.202600 0.978200 0.046600
vn 0.201400 0.935800 -0.289200
vn 0.322000 0.941800 -0.096900
vn 0.197100 0.962100 0.188700
vn 0.224200 0.907200 -0.355900
vn 0.034300 0.989400 0.141400
vn 0.183000 0.983100 -0.002200
vn -0.172500 0.985000 -0.003500
vn -0.219900 0.946600 0.235900
vn -0.450600 0.891400 -0.049000
vn -0.388600 0.917500 -0.084700
vn -0.282300 0.920400 0.270600
vn -0.021200 0.979600 -0.199900
vn -0.309400 0.947800 0.076900
vn -0.272300 0.950900 -0.147000
vn 0.011000 0.960400 -0.278400
vn -0.371600 0.921600 0.112000
vn 0.102500 0.985500 -0.135400
vn -0.185200 0.981200 -0.053900
vn 0.149400 0.986600 0.066200
vn 0.274500 0.950800 -0.143800
vn 0.397500 0.895200 0.201600
vn 0.326800 0.920400 0.214600
vn 0.345300 0.925500 -0.155800
vn -0.082000 0.984200 0.157200
vn 0.305800 0.951400 0.036000
vn 0.195900 0.952100 0.234600
vn -0.115100 0.957700 0.263800
vn 0.376400 0.926200 0.023500
vn -0.153900 0.983200 0.098600
vn 0.014000 0.988900 -0.147900
vn -0.010100 0.978300 0.206700
vn 0.225600 0.936700 0.267900
vn -0.073900 0.875300 0.477900
vn -0.105300 0.903900 0.414700
vn 0.256000 0.908000 0.331500
vn 0.117900 0.986300 -0.115500
vn 0.061100 0.935800 0.347100
vn -0.159900 0.941800 0.295800
vn -0.272800 0.962100 0.005200
vn 0.092100 0.907200 0.410400
vn -0.124100 0.989400 -0.076000
vn 0.051800 0.988900 0.139200
vn -0.081100 0.978300 -0.190400
vn -0.319800 0.936700 -0.142800
vn -0.141900 0.875300 -0.462300
vn -0.086000 0.903900 -0.419100
vn -0.375000 0.908000 -0.186700
vn 0.156100 0.979600 0.126800
vn -0.206400 0.935800 -0.285700
vn 0.014900 0.941800 -0.336000
vn 0.243200 0.962100 -0.123600
vn -0.261800 0.907200 -0.329200
vn 0.144800 0.989400 0.014300
f 1/1/1 2/2/2 3/3/3
f 1/1/1 3/3/3 4/4/4
f 5/5/5 1/1/1 4/4/4
f 5/5/5 4/4/4 6/6/6
f 7/7/7 8/8/8 9/9/9
f 7/7/7 9/9/9 10/10/10
f 10/10/10 9/9/9 1/1/1
f 10/10/10 1/1/1 5/5/5
f 8/8/8 11/11/11 12/12/12
f 8/8/8 12/12/12 9/9/9
f 9/9/9 12/12/12 2/2/2
f 9/9/9 2/2/2 1/1/1
f 13/13/13 14/14/14 15/15/15
f 13/13/13 15/15/15 16/16/16
f 17/17/17 13/13/13 16/16/16
f 17/17/17 16/16/16 18/18/18
f 19/19/19 20/20/20 21/21/21
f 19/19/19 21/21/21 22/22/22
f 22/22/22 21/21/21 13/13/13
f 22/22/22 13/13/13 17/17/17
f 20/20/20 23/23/23 24/24/24
f 20/20/20 24/24/24 21/21/21
f 21/21/21 24/24/24 14/14/14
f 21/21/21 14/14/14 13/13/13
f 25/25/25 26/26/26 27/27/27
f 25/25/25 27/27/27 28/28/28
f 29/29/29 25/25/25 28/28/28
f 29/29/29 28/28/28 30/30/30
f 31/31/31 32/32/32 33/33/33
f 31/31/31 33/33/33 34/34/34
f 34/34/34 33/33/33 25/25/25
f 34/34/34 25/25/25 29/29/29
f 32/32/32 35/35/35 36/36/36
f 32/32/32 36/36/36 33/33/33
f 33/33/33 36/36/36 26/26/26
f 33/33/33 26/26/26 25/25/25
f 37/37/37 38/38/38 39/39/39
f 37/37/37 39/39/39 40/40/40
f 41/41/41 37/37/37 40/40/40
f 41/41/41 40/40/40 42/42/42
f 43/43/43 44/44/44 45/45/45
f 43/43/43 45/45/45 46/46/46
f 46/46/46 45/45/45 37/37/37
f 46/46/46 37/37/37 41/41/41
f 44/44/44 47/47/47 48/48/48
f 44/44/44 48/48/48 45/45/45
f 45/45/45 48/48/48 38/38/38
f 45/45/45 38/38/38 37/37/37
f 49/49/49 50/50/50 51/51/51
f 49/49/49 51/51/51 52/52/52
f 53/53/53 49/49/49 52/52/52
f 53/53/53 52/52/52 54/54/54
f 55/55/55 56/56/56 57/57/57
f 55/55/55 57/57/57 58/58/58
f 58/58/58 57/57/57 49/49/49
f 58/58/58 49/49/49 53/53/53
f 56/56/56 59/59/59 60/60/60
f 56/56/56 60/60/60 57/57/57
f 57/57/57 60/60/60 50/50/50
f 57/57/57 50/50/50 49/49/49
f 61/61/61 62/62/62 63/63/63
f 61/61/61 63/63/63 64/64/64
f 65/65/65 61/61/61 64/64/64
f 65/65/65 64/64/64 66/66/66
f 67/67/67 68/68/68 69/69/69
f 67/67/67 69/69/69 70/70/70
f 70/70/70 69/69/69 61/61/61
f 70/70/70 61/61/61 65/65/65
f 68/68/68 71/71/71 72/72/72
f 68/68/68 72/72/72 69/69/69
f 69/69/69 72/72/72 62/62/62
f 69/69/69 62/62/62 61/61/61
f 73/73/73 74/74/74 75/75/75
f 73/73/73 75/75/75 76/76/76
f 77/77/77 73/73/73 76/76/76
f 77/77/77 76/76/76 78/78/78
f 79/79/79 80/80/80 81/81/81
f 79/79/79 81/81/81 82/82/82
f 82/82/82 81/81/81 73/73/73
f 82/82/82 73/73/73 77/77/77
f 80/80/80 83/83/83 84/84/84
f 80/80/80 84/84/84 81/81/81
f 81/81/81 84/84/84 74/74/74
f 81/81/81 74/74/74 73/73/73
f 85/85/85 86/86/86 87/87/87
f 85/85/85 87/87/87 88/88/88
f 89/89/89 85/85/85 88/88/88
f 89/89/89 88/88/88 90/90/90
f 91/91/91 92/92/92 93/93/93
f 91/91/91 93/93/93 94/94/94
f 94/94/94 93/93/93 85/85/85
f 94/94/94 85/85/85 89/89/89
f 92/92/92 95/95/95 96/96/96
f 92/92/92 96/96/96 93/93/93
f 93/93/93 96/96/96 86/86/86
f 93/93/93 86/86/86 85/85/85
f 97/97/97 98/98/98 99/99/99
f 97/97/97 99/99/99 100/100/100
f 101/101/101 97/97/97 100/100/100
f 101/101/101 100/100/100 102/102/102
f 103/103/103 104/104/104 105/105/105
f 103/103/103 105/105/105 106/106/106
f 106/106/106 105/105/105 97/97/97
f 106/106/106 97/97/97 101/101/101
f 104/104/104 107/107/107 108/108/108
f 104/104/104 108/108/108 105/105/105
f 105/105/105 108/108/108 98/98/98
f 105/105/105 98/98/98 97/97/97
f 109/109/109 110/110/110 111/111/111
f 109/109/109 111/111/111 112/112/112
f 113/113/113 109/109/109 112/112/112
f 113/113/113 112/112/112 114/114/114
f 115/115/115 116/116/116 117/117/117
f 115/115/115 117/117/117 118/118/118
f 118/118/118 117/117/117 109/109/109
f 118/118/118 109/109/109 113/113/113
f 116/116/116 119/119/119 120/120/120
f 116/116/116 120/120/120 117/117/117
f 117/117/117 120/120/120 110/110/110
f 117/117/117 110/110/110 109/109/109
f 121/121/121 122/122/122 123/123/123
f 121/121/121 123/123/123 124/124/124
f 125/125/125 121/121/121 124/124/124
f 125/125/125 124/124/124 126/126/126
f 127/127/127 128/128/128 129/129/129
f 127/127/127 129/129/129 130/130/130
f 130/130/130 129/129/129 121/121/121
f 130/130/130 121/121/121 125/125/125
f 128/128/128 131/131/131 132/132/132
f 128/128/128 132/132/132 129/129/129
f 129/129/129 132/132/132 122/122/122
f 129/129/129 122/122/122 121/121/121
f 133/133/133 134/134/134 135/135/135
f 133/133/133 135/135/135 136/136/136
f 137/137/137 133/133/133 136/136/136
f 137/137/137 136/136/136 138/138/138
f 139/139/139 140/140/140 141/141/141
f 139/139/139 141/141/141 142/142/142
f 142/142/142 141/141/141 133/133/133
f 142/142/142 133/133/133 137/137/137
f 140/140/140 143/143/143 144/144/144
f 140/140/140 144/144/144 141/141/141
f 141/141/141 144/144/144 134/134/134
f 141/141/141 134/134/134 133/133/133
f 145/145/145 146/146/146 147/147/147
f 145/145/145 147/147/147 148/148/148
f 149/149/149 145/145/145 148/148/148
f 149/149/149 148/148/148 150/150/150
f 151/151/151 152/152/152 153/153/153
f 151/151/151 153/153/153 154/154/154
f 154/154/154 153/153/153 145/145/145
f 154/154/154 145/145/145 149/149/149
f 152/152/152 155/155/155 156/156/156
f 152/152/152 156/156/156 153/153/153
f 153/153/153 156/156/156 146/146/146
f 153/153/153 146/146/146 145/145/145
f 157/157/157 158/158/158 159/159/159
f 157/157/157 159/159/159 160/160/160
f 161/161/161 157/157/157 160/160/160
f 161/161/161 160/160/160 162/162/162
f 163/163/163 164/164/164 165/165/165
f 163/163/163 165/165/165 166/166/166
f 166/166/166 165/165/165 157/157/157
f 166/166/166 157/157/157 161/161/161
f 164/164/164 167/167/167 168/168/168
f 164/164/164 168/168/168 165/165/165
f 165/165/165 168/168/168 158/158/158
f 165/165/165 158/158/158 157/157/157
f 169/169/169 170/170/170 171/171/171
f 169/169/169 171/171/171 172/172/172
f 173/173/173 169/169/169 172/172/172
f 173/173/173 172/172/172 174/174/174
f 175/175/175 176/176/176 177/177/177
f 175/175/175 177/177/177 178/178/178
f 178/178/178 177/177/177 169/169/169
f 178/178/178 169/169/169 173/173/173
f 176/176/176 179/179/179 180/180/180
f 176/176/176 180/180/180 177/177/177
f 177/177/177 180/180/180 170/170/170
f 177/177/177 170/170/170 169/169/169
f 181/181/181 182/182/182 183/183/183
f 181/181/181 183/183/183 184/184/184
f 185/185/185 181/181/181 184/184/184
f 185/185/185 184/184/184 186/186/186
f 187/187/187 188/188/188 189/189/189
f 187/187/187 189/189/189 190/190/190
f 190/190/190 189/189/189 181/181/181
f 190/190/190 181/181/181 185/185/185
f 188/188/188 191/191/191 192/192/192
f 188/188/188 192/192/192 189/189/189
f 189/189/189 192/192/192 182/182/182
f 189/189/189 182/182/182 181/181/181
f 193/193/193 194/194/194 195/195/195
f 193/193/193 195/195/195 196/196/196
f 197/197/197 193/193/193 196/196/196
f 197/197/197 196/196/196 198/198/198
f 199/199/199 200/200/200 201/201/201
f 199/199/199 201/201/201 202/202/202
f 202/202/202 201/201/201 193/193/193
f 202/202/202 193/193/193 197/197/197
f 200/200/200 203/203/203 204/204/204
f 200/200/200 204/204/204 201/201/201
f 201/201/201 204/204/204 194/194/194
f 201/201/201 194/194/194 193/193/193
f 205/205/205 206/206/206 207/207/207
f 205/205/205 207/207/207 208/208/208
f 209/209/209 205/205/205 208/208/208
f 209/209/209 208/208/208 210/210/210
f 211/211/211 212/212/212 213/213/213
f 211/211/211 213/213/213 214/214/214
f 214/214/214 213/213/213 205/205/205
f 214/214/214 205/205/205 209/209/209
f 212/212/212 215/215/215 216/216/216
f 212/212/212 216/216/216 213/213/213
f 213/213/213 216/216/216 206/206/206
f 213/213/213 206/206/206 205/205/205
f 217/217/217 218/218/218 219/219/219
f 217/217/217 219/219/219 220/220/220
f 221/221/221 217/217/217 220/220/220
f 221/221/221 220/220/220 222/222/222
f 223/223/223 224/224/224 225/225/225
f 223/223/223 225/225/225 226/226/226
f 226/226/226 225/225/225 217/217/217
f 226/226/226 217/217/217 221/221/221
f 224/224/224 227/227/227 228/228/228
f 224/224/224 228/228/228 225/225/225
f 225/225/225 228/228/228 218/218/218
f 225/225/225 218/218/218 217/217/217
f 229/229/229 230/230/230 231/231/231
f 229/229/229 231/231/231 232/232/232
f 233/233/233 229/229/229 232/232/232
f 233/233/233 232/232/232 234/234/234
f 235/235/235 236/236/236 237/237/237
f 235/235/235 237/237/237 238/238/238
f 238/238/238 237/237/237 229/229/229
f 238/238/238 229/229/229 233/233/233
f 236/236/236 239/239/239 240/240/240
f 236/236/236 240/240/240 237/237/237
f 237/237/237 240/240/240 230/230/230
f 237/237/237 230/230/230 229/229/229
f 241/241/241 242/242/242 243/243/243
f 241/241/241 243/243/243 244/244/244
f 245/245/245 241/241/241 244/244/244
f 245/245/245 244/244/244 246/246/246
f 247/247/247 248/248/248 249/249/249
f 247/247/247 249/249/249 250/250/250
f 250/250/250 249/249/249 241/241/241
f 250/250/250 241/241/241 245/245/245
f 248/248/248 251/251/251 252/252/252
f 248/248/248 252/252/252 249/249/249
f 249/249/249 252/252/252 242/242/242
f 249/249/249 242/242/242 241/241/241
f 253/253/253 254/254/254 255/255/255
f 253/253/253 255/255/255 256/256/256
f 257/257/257 253/253/253 256/256/256
f 257/257/257 256/256/256 258/258/258
f 259/259/259 260/260/260 261/261/261
f 259/259/259 261/261/261 262/262/262
f 262/262/262 261/261/261 253/253/253
f 262/262/262 253/253/253 257/257/257
f 260/260/260 263/263/263 264/264/264
f 260/260/260 264/264/264 261/261/261
f 261/261/261 264/264/264 254/254/254
f 261/261/261 254/254/254 253/253/253
f 265/265/265 266/266/266 267/267/267
f 265/265/265 267/267/267 268/268/268
f 269/269/269 265/265/265 268/268/268
f 269/269/269 268/268/268 270/270/270
f 271/271/271 272/272/272 273/273/273
f 271/271/271 273/273/273 274/274/274
f 274/274/274 273/273/273 265/265/265
f 274/274/274 265/265/265 269/269/269
f 272/272/272 275/275/275 276/276/276
f 272/272/272 276/276/276 273/273/273
f 273/273/273 276/276/276 266/266/266
f 273/273/273 266/266/266 265/265/265
f 277/277/277 278/278/278 279/279/279
f 277/277/277 279/279/279 280/280/280
f 281/281/281 277/277/277 280/280/280
f 281/281/281 280/280/280 282/282/282
f 283/283/283 284/284/284 285/285/285
f 283/283/283 285/285/285 286/286/286
f 286/286/286 285/285/285 277/277/277
f 286/286/286 277/277/277 281/281/281
f 284/284/284 287/287/287 288/288/288
f 284/284/284 288/288/288 285/285/285
f 285/285/285 288/288/288 278/278/278
f 285/285/285 278/278/278 277/277/277
f 289/289/289 290/290/290 291/291/291
f 289/289/289 291/291/291 292/292/292
f 293/293/293 289/289/289 292/292/292
f 293/293/293 292/292/292 294/294/294
f 295/295/295 296/296/296 297/297/297
f 295/295/295 297/297/297 298/298/298
f 298/298/298 297/297/297 289/289/289
f 298/298/298 289/289/289 293/293/293
f 296/296/296 299/299/299 300/300/300
f 296/296/296 300/300/300 297/297/297
f 297/297/297 300/300/300 290/290/290
f 297/297/297 290/290/290 289/289/289
f 301/301/301 302/302/302 303/303/303
f 301/301/301 303/303/303 304/304/304
f 305/305/305 301/301/301 304/304/304
f 305/305/305 304/304/304 306/306/306
f 307/307/307 308/308/308 309/309/309
f 307/307/307 309/309/309 310/310/310
f 310/310/310 309/309/309 301/301/301
f 310/310/310 301/301/301 305/305/305
f 308/308/308 311/311/311 312/312/312
f 308/308/308 312/312/312 309/309/309
f 309/309/309 312/312/312 302/302/302
f 309/309/309 302/302/302 301/301/301
f 313/313/313 314/314/314 315/315/315
f 313/313/313 315/315/315 316/316/316
f 317/317/317 313/313/313 316/316/316
f 317/317/317 316/316/316 318/318/318
f 319/319/319 320/320/320 321/321/321
f 319/319/319 321/321/321 322/322/322
f 322/322/322 321/321/321 313/313/313
f 322/322/322 313/313/313 317/317/317
f 320/320/320 323/323/323 324/324/324
f 320/320/320 324/324/324 321/321/321
f 321/321/321 324/324/324 314/314/314
f 321/321/321 314/314/314 313/313/313
f 325/325/325 326/326/326 327/327/327
f 325/325/325 327/327/327 328/328/328
f 329/329/329 325/325/325 328/328/328
f 329/329/329 328/328/328 330/330/330
f 331/331/331 332/332/332 333/333/333
f 331/331/331 333/333/333 334/334/334
f 334/334/334 333/333/333 325/325/325
f 334/334/334 325/325/325 329/329/329
f 332/332/332 335/335/335 336/336/336
f 332/332/332 336/336/336 333/333/333
f 333/333/333 336/336/336 326/326/326
f 333/333/333 326/326/326 325/325/325
f 337/337/337 338/338/338 339/339/339
f 337/337/337 339/339/339 340/340/340
f 341/341/341 337/337/337 340/340/340
f 341/341/341 340/340/340 342/342/342
f 343/343/343 344/344/344 345/345/345
f 343/343/343 345/345/345 346/346/346
f 346/346/346 345/345/345 337/337/337
f 346/346/346 337/337/337 341/341/341
f 344/344/344 347/347/347 348/348/348
f 344/344/344 348/348/348 345/345/345
f 345/345/345 348/348/348 338/338/338
f 345/345/345 338/338/338 337/337/337
f 349/349/349 350/350/350 351/351/351
f 349/349/349 351/351/351 352/352/352
f 353/353/353 349/349/349 352/352/352
f 353/353/353 352/352/352 354/354/354
f 355/355/355 356/356/356 357/357/357
f 355/355/355 357/357/357 358/358/358
f 358/358/358 357/357/357 349/349/349
f 358/358/358 349/349/349 353/353/353
f 356/356/356 359/359/359 360/360/360
f 356/356/356 360/360/360 357/357/357
f 357/357/357 360/360/360 350/350/350
f 357/357/357 350/350/350 349/349/349
f 361/361/361 362/362/362 363/363/363
f 361/361/361 363/363/363 364/364/364
f 365/365/365 361/361/361 364/364/364
f 365/365/365 364/364/364 366/366/366
f 367/367/367 368/368/368 369/369/369
f 367/367/367 369/369/369 370/370/370
f 370/370/370 369/369/369 361/361/361
f 370/370/370 361/361/361 365/365/365
f 368/368/368 371/371/371 372/372/372
f 368/368/368 372/372/372 369/369/369
f 369/369/369 372/372/372 362/362/362
f 369/369/369 362/362/362 361/361/361
f 373/373/373 374/374/374 375/375/375
f 373/373/373 375/375/375 376/376/376
f 377/377/377 373/373/373 376/376/376
f 377/377/377 376/376/376 378/378/378
f 379/379/379 380/380/380 381/381/381
f 379/379/379 381/381/381 382/382/382
f 382/382/382 381/381/381 373/373/373
f 382/382/382 373/373/373 377/377/377
f 380/380/380 383/383/383 384/384/384
f 380/380/380 384/384/384 381/381/381
f 381/381/381 384/384/384 374/374/374
f 381/381/381 374/374/374 373/373/373
f 385/385/385 386/386/386 387/387/387
f 385/385/385 387/387/387 388/388/388
f 389/389/389 385/385/385 388/388/388
f 389/389/389 388/388/388 390/390/390
f 391/391/391 392/392/392 393/393/393
f 391/391/391 393/393/393 394/394/394
f 394/394/394 393/393/393 385/385/385
f 394/394/394 385/385/385 389/389/389
f 392/392/392 395/395/395 396/396/396
f 392/392/392 396/396/396 393/393/393
f 393/393/393 396/396/396 386/386/386
f 393/393/393 386/386/386 385/385/385
f 397/397/397 398/398/398 399/399/399
f 397/397/397 399/399/399 400/400/400
f 401/401/401 397/397/397 400/400/400
f 401/401/401 400/400/400 402/402/402
f 403/403/403 404/404/404 405/405/405
f 403/403/403 405/405/405 406/406/406
f 406/406/406 405/405/405 397/397/397
f 406/406/406 397/397/397 401/401/401
f 404/404/404 407/407/407 408/408/408
f 404/404/404 408/408/408 405/405/405
f 405/405/405 408/408/408 398/398/398
f 405/405/405 398/398/398 397/397/397
f 409/409/409 410/410/410 411/411/411
f 409/409/409 411/411/411 412/412/412
f 413/413/413 409/409/409 412/412/412
f 413/413/413 412/412/412 414/414/414
f 415/415/415 416/416/416 417/417/417
f 415/415/415 417/417/417 418/418/418
f 418/418/418 417/417/417 409/409/409
f 418/418/418 409/409/409 413/413/413
f 416/416/416 419/419/419 420/420/420
f 416/416/416 420/420/420 417/417/417
f 417/417/417 420/420/420 410/410/410
f 417/417/417 410/410/410 409/409/409
f 421/421/421 422/422/422 423/423/423
f 421/421/421 423/423/423 424/424/424
f 425/425/425 421/421/421 424/424/424
f 425/425/425 424/424/424 426/426/426
f 427/427/427 428/428/428 429/429/429
f 427/427/427 429/429/429 430/430/430
f 430/430/430 429/429/429 421/421/421
f 430/430/430 421/421/421 425/425/425
f 428/428/428 431/431/431 432/432/432
f 428/428/428 432/432/432 429/429/429
f 429/429/429 432/432/432 422/422/422
f 429/429/429 422/422/422 421/421/421
f 433/433/433 434/434/434 435/435/435
f 433/433/433 435/435/435 436/436/436
f 437/437/437 433/433/433 436/436/436
f 437/437/437 436/436/436 438/438/438
f 439/439/439 440/440/440 441/441/441
f 439/439/439 441/441/441 442/442/442
f 442/442/442 441/441/441 433/433/433
f 442/442/442 433/433/433 437/437/437
f 440/440/440 443/443/443 444/444/444
f 440/440/440 444/444/444 441/441/441
f 441/441/441 444/444/444 434/434/434
f 441/441/441 434/434/434 433/433/433
f 445/445/445 446/446/446 447/447/447
f 445/445/445 447/447/447 448/448/448
f 449/449/449 445/445/445 448/448/448
f 449/449/449 448/448/448 450/450/450
f 451/451/451 452/452/452 453/453/453
f 451/451/451 453/453/453 454/454/454
f 454/454/454 453/453/453 445/445/445
f 454/454/454 445/445/445 449/449/449
f 452/452/452 455/455/455 456/456/456
f 452/452/452 456/456/456 453/453/453
f 453/453/453 456/456/456 446/446/446
f 453/453/453 446/446/446 445/445/445
f 457/457/457 458/458/458 459/459/459
f 457/457/457 459/459/459 460/460/460
f 461/461/461 457/457/457 460/460/460
f 461/461/461 460/460/460 462/462/462
f 463/463/463 464/464/464 465/465/465
f 463/463/463 465/465/465 466/466/466
f 466/466/466 465/465/465 457/457/457
f 466/466/466 457/457/457 461/461/461
f 464/464/464 467/467/467 468/468/468
f 464/464/464 468/468/468 465/465/465
f 465/465/465 468/468/468 458/458/458
f 465/465/465 458/458/458 457/457/457
f 469/469/469 470/470/470 471/471/471
f 469/469/469 471/471/471 472/472/472
f 473/473/473 469/469/469 472/472/472
f 473/473/473 472/472/472 474/474/474
f 475/475/475 476/476/476 477/477/477
f 475/475/475 477/477/477 478/478/478
f 478/478/478 477/477/477 469/469/469
f 478/478/478 469/469/469 473/473/473
f 476/476/476 479/479/479 480/480/480
f 476/476/476 480/480/480 477/477/477
f 477/477/477 480/480/480 470/470/470
f 477/477/477 470/470/470 469/469/469
f 481/481/481 482/482/482 483/483/483
f 481/481/481 483/483/483 484/484/484
f 485/485/485 481/481/481 484/484/484
f 485/485/485 484/484/484 486/486/486
f 487/487/487 488/488/488 489/489/489
f 487/487/487 489/489/489 490/490/490
f 490/490/490 489/489/489 481/481/481
f 490/490/490 481/481/481 485/485/485
f 488/488/488 491/491/491 492/492/492
f 488/488/488 492/492/492 489/489/489
f 489/489/489 492/492/492 482/482/482
f 489/489/489 482/482/482 481/481/481
f 493/493/493 494/494/494 495/495/495
f 493/493/493 495/495/495 496/496/496
f 497/497/497 493/493/493 496/496/496
f 497/497/497 496/496/496 498/498/498
f 499/499/499 500/500/500 501/501/501
f 499/499/499 501/501/501 502/502/502
f 502/502/502 501/501/501 493/493/493
f 502/502/502 493/493/493 497/497/497
f 500/500/500 503/503/503 504/504/504
f 500/500/500 504/504/504 501/501/501
f 501/501/501 504/504/504 494/494/494
f 501/501/501 494/494/494 493/493/493
f 505/505/505 506/506/506 507/507/507
f 505/505/505 507/507/507 508/508/508
f 509/509/509 505/505/505 508/508/508
f 509/509/509 508/508/508 510/510/510
f 511/511/511 512/512/512 513/513/513
f 511/511/511 513/513/513 514/514/514
f 514/514/514 513/513/513 505/505/505
f 514/514/514 505/505/505 509/509/509
f 512/512/512 515/515/515 516/516/516
f 512/512/512 516/516/516 513/513/513
f 513/513/513 516/516/516 506/506/506
f 513/513/513 506/506/506 505/505/505
