# Split Tree_2_bark mesh for Ursina textured rendering
o Tree_2_bark
v -0.453807 1.282719 -0.292397
v -0.572163 1.235351 -0.190810
v -0.636556 2.183371 -0.150008
v -0.523553 2.191840 -0.238575
v -0.536243 1.184168 0.113238
v -0.401941 1.196488 0.206557
v -0.508721 2.077054 0.197262
v -0.623407 2.113042 0.116310
v -0.134605 1.301231 0.098237
v -0.111977 1.345434 -0.054069
v -0.224073 2.135983 -0.030204
v -0.256712 2.095686 0.102107
v -0.299235 1.328759 -0.293487
v -0.382184 2.185924 -0.238752
v -0.600639 1.198865 -0.034750
v -0.671882 2.153441 -0.013041
v -0.243319 1.240280 0.202786
v -0.364697 2.067760 0.193029
v -0.172979 1.355392 -0.200655
v -0.270726 2.169240 -0.157794
v -0.455902 3.087887 0.242056
v -0.569544 3.084763 0.242058
v -0.455563 3.062437 -0.110377
v -0.363488 3.074828 -0.041027
v -0.696004 3.073735 0.068389
v -0.663415 3.066940 -0.040398
v -0.330073 3.083406 0.066399
v -0.572232 3.059195 -0.110247
v -0.660351 3.080619 0.175415
v -0.607791 3.278624 0.198460
v -0.702489 3.253340 0.138766
v -0.527110 3.310095 0.181569
v -0.364202 3.088766 0.173848
v -0.458964 3.305524 0.125494
v -0.430076 3.266703 0.051271
v -0.482729 3.224936 -0.040697
v -0.699384 3.408462 0.088001
v -0.680620 3.372774 0.158775
v -0.203357 3.881131 0.385546
v -0.197621 3.930020 0.336018
v -0.566637 3.273053 0.182070
v -0.517239 3.244710 0.128017
v -0.123300 3.730844 0.327485
v -0.155654 3.758892 0.379423
v -0.517101 3.275769 -0.022060
v -0.567545 3.329876 -0.060177
v -0.111998 3.853862 0.193473
v -0.097268 3.786371 0.211289
v -0.679160 3.412664 0.009433
v -0.173081 3.942465 0.272040
v -0.629421 3.320887 0.194389
v -0.186982 3.815523 0.401819
v -0.497344 3.245755 0.051728
v -0.100410 3.740603 0.264636
v -0.628397 3.383733 -0.046828
v -0.139691 3.913942 0.218124
v 0.317262 3.769479 0.587621
v 0.296802 3.792336 0.639044
v 0.383367 3.889493 0.500937
v 0.368951 3.827692 0.500447
v 0.329475 3.950393 0.641848
v 0.359528 3.964518 0.589547
v 0.290271 3.843341 0.671713
v 0.344902 3.781895 0.535683
v 0.380825 3.941324 0.536305
v 0.302533 3.903966 0.673106
v 0.951726 4.012639 0.829056
v 0.934223 3.951686 0.826621
v 0.900098 4.071910 0.971502
v 0.931146 4.086068 0.919794
v 0.859535 3.915858 0.963744
v 0.855376 3.966119 0.997917
v 0.907684 3.906121 0.860337
v 0.951576 4.063444 0.865971
v 0.870663 4.025981 1.001209
v 0.879135 3.893557 0.911744
v 1.289325 4.199682 1.188914
v 1.300551 4.201012 1.143318
v 1.371656 4.129207 1.245816
v 1.333563 4.154570 1.252113
v 1.399417 4.127816 1.127561
v 1.412273 4.113089 1.170807
v 1.330801 4.185003 1.111244
v 1.301825 4.181573 1.230559
v 1.401101 4.113536 1.215010
v 1.368016 4.156067 1.104505
v 1.723019 4.400330 1.419934
v 1.688008 4.417545 1.424155
v 1.745622 4.393913 1.319451
v 1.758523 4.386207 1.356862
v 1.653871 4.444726 1.329391
v 1.680973 4.432566 1.302834
v 1.657931 4.434875 1.404576
v 1.749415 4.388451 1.394442
v 1.715669 4.412221 1.298506
v 1.644939 4.445574 1.368276
v 0.697511 4.260970 0.760788
v 0.543728 4.397243 0.653827
v 0.511463 4.399192 0.681572
v 0.667213 4.256220 0.790705
v 0.610264 4.197925 0.791753
v 0.435475 4.374879 0.667377
v 0.420989 4.358887 0.631472
v 0.605100 4.167758 0.762799
v 0.649938 4.154432 0.698925
v 0.462062 4.343665 0.566068
v 0.504298 4.349317 0.560043
v 0.685385 4.176179 0.686920
v 0.713416 4.244309 0.724740
v 0.554593 4.385092 0.614540
v 0.633951 4.231830 0.802709
v 0.470017 4.390313 0.686830
v 0.620279 4.151407 0.727914
v 0.431217 4.347032 0.593393
v 0.709800 4.211298 0.696750
v 0.540139 4.365743 0.578745
v 0.209047 4.691646 0.485994
v 0.195612 4.682494 0.454339
v 0.229519 4.669442 0.398200
v 0.265816 4.669569 0.393833
v 0.311376 4.689729 0.442928
v 0.302976 4.698444 0.476973
v 0.239578 4.699098 0.503839
v 0.203489 4.674016 0.421333
v 0.297569 4.677752 0.411124
v 0.275578 4.701971 0.500348
v 0.920756 4.007796 0.998597
v 0.932147 4.048944 1.001394
v 0.972217 3.961641 0.913133
v 0.945220 3.955164 0.944091
v 1.003056 4.070292 0.917336
v 1.010316 4.032973 0.896339
v 0.955637 4.079750 0.982833
v 0.925624 3.972429 0.976226
v 0.998632 3.990693 0.894922
v 0.982676 4.087844 0.950600
v -0.567356 3.383121 -0.021809
v -0.640012 3.347836 -0.052474
v -1.043304 3.701615 0.292132
v -1.008197 3.740386 0.325091
v -1.271016 4.426003 -1.722997
v -1.261473 4.421586 -1.768909
v -1.357095 4.829405 -1.982908
v -1.365293 4.827827 -1.943777
v -1.352030 4.420416 -1.685930
v -1.305733 4.425641 -1.691352
v -1.394987 4.825481 -1.917219
v -1.434565 4.823040 -1.913297
v -1.392588 4.410531 -1.708842
v -1.469318 4.819963 -1.933770
v -1.411166 4.402934 -1.752579
v -1.485149 4.820194 -1.971458
v -1.365603 4.403648 -1.828589
v -1.399981 4.401894 -1.798690
v -1.475367 4.824533 -2.010328
v -1.445897 4.827845 -2.035243
v -1.320754 4.408751 -1.833502
v -1.407558 4.830201 -2.038752
v -1.280821 4.415027 -1.811142
v -1.373533 4.830359 -2.019201
v -1.200553 3.831101 -1.281526
v -1.227168 3.878347 -1.250275
v -1.152548 3.814636 -1.313776
v -1.100902 3.833041 -1.337845
v -1.221397 3.940338 -1.237971
v -1.055638 3.940632 -1.332365
v -1.063277 3.880472 -1.344628
v -1.082011 3.990070 -1.305555
v -1.185061 3.990435 -1.248642
v -1.131626 4.009016 -1.273658
v -0.757901 3.752436 -0.405396
v -0.724074 3.703546 -0.442025
v -0.963253 3.726382 -0.972505
v -1.003443 3.772809 -0.963133
v -1.130034 3.711909 -0.881066
v -1.107133 3.763740 -0.908139
v -0.912487 3.608786 -0.363785
v -0.911088 3.676278 -0.340711
v -1.118676 3.650107 -0.872173
v -0.822970 3.553260 -0.442308
v -0.878505 3.563018 -0.405029
v -1.078480 3.604311 -0.886463
v -1.025540 3.591895 -0.912128
v -0.954170 3.665756 -0.964151
v -0.874187 3.736358 -0.344302
v -0.815435 3.764880 -0.368176
v -1.058547 3.786934 -0.938597
v -0.978702 3.614752 -0.941610
v -0.727711 3.637939 -0.464823
v -0.766220 3.581307 -0.465196
v -0.555162 3.200611 -0.082088
v -0.639589 3.190064 -0.074602
v -0.707008 3.197430 -0.022096
v -0.732635 3.218797 0.060711
v -0.569495 3.334882 0.194069
v -0.498629 3.325008 0.162865
v -0.417934 3.718693 -0.248616
v -0.464415 3.759245 -0.252744
v -0.469756 3.272026 0.028992
v -0.519835 3.246974 -0.021270
v -0.466104 3.579707 -0.309709
v -0.419871 3.608371 -0.285371
v -0.665494 3.238788 -0.004324
v -0.706154 3.264465 0.059294
v -0.591164 3.681438 -0.316775
v -0.572878 3.622048 -0.328076
v -0.645644 3.325203 0.181092
v -0.522869 3.766103 -0.271125
v -0.460851 3.300908 0.099330
v -0.401197 3.660820 -0.261356
v -0.593163 3.234944 -0.034975
v -0.523333 3.584319 -0.326592
v -0.697811 3.299461 0.129535
v -0.570882 3.736879 -0.296242
v -0.263589 3.606864 -0.715416
v -0.218223 3.630398 -0.701331
v -0.349859 3.705791 -0.773516
v -0.346353 3.651833 -0.758248
v -0.225581 3.768655 -0.736767
v -0.274133 3.777310 -0.760772
v -0.191611 3.677278 -0.699576
v -0.311596 3.614135 -0.737243
v -0.321134 3.753355 -0.775474
v -0.194137 3.730337 -0.712948
v -0.098894 3.805193 -1.299454
v -0.096971 3.752028 -1.281382
v 0.026691 3.866591 -1.264727
v -0.021395 3.875262 -1.289646
v 0.030026 3.730217 -1.222118
v 0.057869 3.776409 -1.222515
v -0.063426 3.714571 -1.258099
v -0.068888 3.851819 -1.303573
v 0.056884 3.828749 -1.238637
v -0.015827 3.707184 -1.235433
v 0.198101 3.983752 -1.678446
v 0.157177 3.982259 -1.685712
v 0.247178 3.920620 -1.751588
v 0.253614 3.944989 -1.719379
v 0.141365 3.912531 -1.769041
v 0.179525 3.901026 -1.782341
v 0.127978 3.965263 -1.709858
v 0.235040 3.969199 -1.691199
v 0.219127 3.904021 -1.775113
v 0.121383 3.937756 -1.741121
v 0.367145 4.152874 -2.082973
v 0.371985 4.169814 -2.053029
v 0.277552 4.141420 -2.096720
v 0.310209 4.135834 -2.110000
v 0.288960 4.190794 -2.018413
v 0.264611 4.177599 -2.040265
v 0.355546 4.185502 -2.026037
v 0.343760 4.140008 -2.104275
v 0.259853 4.157903 -2.069796
v 0.323724 4.193789 -2.012863
v -0.122824 4.169209 -1.238455
v -0.220237 4.293161 -1.107283
v -0.194367 4.299535 -1.080589
v -0.094606 4.169700 -1.213112
v -0.086209 4.123109 -1.158657
v -0.201157 4.283171 -1.011066
v -0.230772 4.267580 -0.995087
v -0.109034 4.094844 -1.150211
v -0.166426 4.074759 -1.185082
v -0.289172 4.246015 -1.026415
v -0.297020 4.247158 -1.063682
v -0.180486 4.090135 -1.217244
v -0.154017 4.150594 -1.249172
v -0.254391 4.278669 -1.113720
v -0.080443 4.151829 -1.182675
v -0.186975 4.295437 -1.043732
v -0.139193 4.076647 -1.160379
v -0.263855 4.253488 -1.001054
v -0.175844 4.119778 -1.241931
v -0.283643 4.260134 -1.097523
v -0.374889 4.565898 -0.825307
v -0.401359 4.556552 -0.811007
v -0.451420 4.538162 -0.836711
v -0.457074 4.535050 -0.868428
v -0.417720 4.552814 -0.912820
v -0.388029 4.563698 -0.907999
v -0.361287 4.571351 -0.853750
v -0.430129 4.545996 -0.815444
v -0.444078 4.541003 -0.897971
v -0.366374 4.570740 -0.885462
v 0.095665 3.946843 -1.429371
v 0.094279 3.982293 -1.442649
v 0.021560 3.895766 -1.466388
v 0.050669 3.894557 -1.443881
v 0.015061 3.989074 -1.501937
v -0.000806 3.954132 -1.504341
v 0.074317 4.006089 -1.464596
v 0.078551 3.913703 -1.429738
v 0.001900 3.917814 -1.490799
v 0.043954 4.008620 -1.487190
v 0.272761 0.001777 -0.125156
v 0.217411 0.007752 -0.284239
v -0.054656 0.697899 -0.227408
v 0.004314 0.707237 -0.076822
v -0.097872 0.012605 0.155542
v 0.083104 0.002427 0.154769
v -0.118954 0.592483 0.187417
v -0.269892 0.516709 0.190228
v -0.240877 0.027385 -0.270819
v -0.288003 0.026816 -0.105407
v -0.458765 0.463914 -0.057366
v -0.432851 0.498659 -0.216419
v 0.076277 0.015347 -0.384442
v -0.175383 0.643155 -0.322599
v 0.226300 -0.001380 0.041035
v -0.015853 0.667824 0.079928
v -0.234478 0.021712 0.053311
v -0.397345 0.470825 0.094057
v -0.101468 0.022981 -0.380565
v -0.321998 0.566271 -0.320618
v -0.720496 3.222619 0.012782
v -0.698292 3.178688 0.079960
v -1.041451 3.558833 0.362698
v -1.064056 3.589957 0.317181
v -0.564657 3.198955 0.170270
v -0.504444 3.262507 0.159021
v -0.944623 3.655937 0.447753
v -0.966299 3.596807 0.442954
v -0.508159 3.377047 0.040510
v -0.972071 3.744555 0.374884
v -0.698491 3.286231 -0.038688
v -1.064583 3.643892 0.289486
v -0.640826 3.169588 0.140037
v -1.005430 3.560858 0.410446
v -0.484707 3.332046 0.109985
v -0.948500 3.712781 0.422053
v -1.445276 3.577166 0.569911
v -1.473297 3.602743 0.532884
v -1.409982 3.670814 0.672814
v -1.403961 3.617633 0.655714
v -1.487841 3.739205 0.572775
v -1.463015 3.745286 0.621304
v -1.493459 3.650527 0.518080
v -1.419599 3.581966 0.616296
v -1.434047 3.719210 0.659775
v -1.499145 3.702916 0.533030
v -1.923904 3.758303 0.951571
v -1.914940 3.705969 0.933197
v -2.004022 3.825196 0.852306
v -1.980113 3.831273 0.901294
v -1.981971 3.690754 0.809134
v -2.004405 3.737810 0.795294
v -1.928249 3.670588 0.892680
v -1.950287 3.805722 0.939460
v -2.012968 3.789428 0.811503
v -1.953099 3.665691 0.845857
v -2.470183 3.958483 1.132435
v -2.441590 3.955331 1.162473
v -2.553385 3.894275 1.158866
v -2.539321 3.920069 1.130414
v -2.478679 3.881952 1.235244
v -2.517324 3.871238 1.222706
v -2.432523 3.936442 1.198327
v -2.507534 3.944705 1.120027
v -2.544870 3.875844 1.193560
v -2.445910 3.907545 1.225953
v -2.845778 4.117510 1.365800
v -2.831808 4.135745 1.339735
v -2.781931 4.102519 1.429407
v -2.816113 4.097530 1.420419
v -2.744370 4.155228 1.362245
v -2.737825 4.140388 1.393571
v -2.802480 4.151897 1.328601
v -2.839680 4.103053 1.396130
v -2.751627 4.119420 1.419116
v -2.769022 4.159606 1.337316
v -1.746346 3.991624 0.822422
v -1.590338 4.115577 0.773874
v -1.595502 4.121951 0.737062
v -1.754204 3.992116 0.785316
v -1.728890 3.945525 0.736377
v -1.549039 4.105587 0.684901
v -1.515697 4.089996 0.689448
v -1.705473 3.917260 0.743008
v -1.679664 3.897175 0.805005
v -1.486985 4.068430 0.749178
v -1.502611 4.069573 0.783909
v -1.687263 3.912550 0.839274
v -1.727465 3.973010 0.849465
v -1.566541 4.101085 0.799205
v -1.747705 3.974245 0.752381
v -1.579749 4.117852 0.702931
v -1.687103 3.899063 0.768998
v -1.492488 4.075903 0.713769
v -1.705564 3.942194 0.856481
v -1.533364 4.082550 0.803362
v -1.299204 4.388314 0.637241
v -1.269392 4.378968 0.641291
v -1.244102 4.360578 0.691562
v -1.258229 4.357465 0.720516
v -1.316185 4.375230 0.733181
v -1.337329 4.386114 0.711787
v -1.326957 4.393766 0.652201
v -1.248766 4.368411 0.661833
v -1.286141 4.363419 0.736722
v -1.341539 4.393156 0.680817
v -2.035378 3.769258 0.847868
v -2.042084 3.804708 0.859411
v -1.997331 3.718182 0.921450
v -2.007580 3.716973 0.886111
v -2.013034 3.811489 0.953999
v -2.001634 3.776548 0.965292
v -2.038893 3.828504 0.888907
v -2.021768 3.736118 0.858251
v -1.995837 3.740229 0.952758
v -2.027683 3.831036 0.925055
vt 1.125308 1.045249
vt 1.159763 1.126751
vt 0.589440 0.838672
vt 0.542716 0.846090
vt 1.118168 1.131175
vt 1.143386 1.125630
vt 0.405322 0.836182
vt 0.572835 0.534650
vt 1.106705 1.133318
vt 1.153932 1.044559
vt 0.267875 0.811956
vt 0.314982 0.819826
vt 1.111853 1.044855
vt 0.201835 0.529687
vt 1.085779 1.041770
vt 0.626554 0.531921
vt 1.085251 1.131062
vt 0.413838 0.552885
vt 1.074594 1.126952
vt 0.219048 0.811210
vt 1.183573 0.470452
vt 0.999021 0.588030
vt 0.996478 0.503223
vt 1.011281 0.553340
vt 0.977511 0.471945
vt 0.973545 0.453693
vt 1.190133 0.593977
vt 1.005329 0.518817
vt 1.007331 0.571236
vt 0.517659 2.120493
vt 0.401395 2.301858
vt 0.532950 2.110995
vt 1.186743 0.612229
vt 0.539583 2.286752
vt 0.526596 2.294981
vt 0.486590 2.134338
vt 0.394655 1.129365
vt 0.221725 1.145693
vt 0.202086 1.227962
vt 0.265638 1.205471
vt 0.361160 0.556270
vt 0.360465 0.828852
vt 0.552136 1.153834
vt 0.185069 1.159575
vt 0.323626 1.123438
vt 0.473550 1.153425
vt 0.325708 1.191705
vt 0.369509 1.194847
vt 0.358021 1.124430
vt 0.290751 1.127182
vt 0.256549 1.134437
vt 0.236625 1.208020
vt 0.433394 1.141079
vt 0.642190 0.286260
vt 0.514059 1.155887
vt 0.295302 1.200038
vt 0.911558 0.260464
vt 0.645712 0.256859
vt 0.639584 0.124747
vt 0.638225 0.096378
vt 0.647543 0.177165
vt 0.902500 0.181914
vt 0.913029 0.284180
vt 0.907406 0.100668
vt 0.905442 0.209818
vt 0.649453 0.202635
vt 0.638225 0.345872
vt 0.911475 0.331247
vt 0.908587 0.235934
vt 0.644015 0.151412
vt 0.901914 0.125897
vt 0.912826 0.307600
vt 0.640552 0.066695
vt 0.901410 0.153625
vt 0.648555 0.228996
vt 0.639205 0.316996
vt 1.102075 0.147281
vt 1.118660 0.268046
vt 0.914520 0.077511
vt 1.101111 0.207367
vt 1.098136 0.167784
vt 1.117178 0.311401
vt 1.119990 0.289782
vt 1.110371 0.127465
vt 1.097745 0.187733
vt 1.106882 0.227142
vt 1.113499 0.247114
vt 1.333980 0.132705
vt 1.316663 0.170551
vt 1.345477 0.306931
vt 1.349094 0.286225
vt 1.319893 0.210073
vt 1.322915 0.150791
vt 1.119470 0.108192
vt 1.328299 0.228568
vt 1.346498 0.265724
vt 1.583266 0.211173
vt 1.731428 0.224415
vt 1.736424 0.212208
vt 1.561356 0.268674
vt 1.345228 0.114777
vt 1.564140 0.139133
vt 1.570388 0.238459
vt 1.338453 0.246584
vt 1.563712 0.284317
vt 1.718859 0.273512
vt 1.716966 0.260456
vt 1.581603 0.182295
vt 1.577941 0.225052
vt 1.728581 0.174474
vt 1.563935 0.252918
vt 1.567894 0.154559
vt 1.315504 0.190562
vt 1.584445 0.196639
vt 1.574930 0.168594
vt 1.734866 0.186516
vt 1.718853 0.149662
vt 1.724782 0.235902
vt 1.277846 1.050344
vt 1.307575 1.048766
vt 1.318048 1.132271
vt 1.322993 1.047854
vt 1.722352 0.162370
vt 1.737620 0.199267
vt 1.303136 1.134396
vt 1.719273 0.247743
vt 1.263615 1.050218
vt 1.235827 1.047060
vt 1.178368 1.129865
vt 1.262050 1.149320
vt 1.221362 1.044506
vt 1.191174 1.044168
vt 1.234673 1.146599
vt 1.275685 1.145374
vt 1.193381 1.130225
vt 1.221569 1.140293
vt 1.028094 1.041019
vt 1.033246 1.124230
vt 1.086673 1.203431
vt 1.082494 1.203524
vt 1.211100 1.281812
vt 1.292493 1.281591
vt 1.207989 1.133975
vt 1.206376 1.043453
vt 1.280888 1.286455
vt 1.245656 1.297395
vt 1.248230 1.149705
vt 1.249715 1.048953
vt 1.186516 1.277663
vt 1.289100 1.139554
vt 1.198958 1.278097
vt 1.292494 1.049705
vt 1.281997 0.903138
vt 1.222453 1.288080
vt 1.175829 1.045378
vt 1.257956 1.296685
vt 1.297016 0.906763
vt 1.233664 1.294384
vt 1.304836 1.279817
vt 1.269702 1.292372
vt 1.237025 0.896199
vt 1.252160 0.897045
vt 1.175829 0.906900
vt 0.734395 1.100693
vt 1.190883 0.904542
vt 1.221382 0.896959
vt 1.327509 0.909608
vt 1.267060 0.899663
vt 1.205866 0.900338
vt 1.312072 0.909283
vt 0.457129 2.297098
vt 0.443213 2.292181
vt 0.766004 1.091163
vt 0.766062 1.078379
vt 0.734723 1.068114
vt 0.746745 1.064194
vt 1.363536 0.437976
vt 1.359902 0.416503
vt 0.727362 1.078335
vt 0.401615 2.115588
vt 1.592803 0.407241
vt 0.727362 1.090736
vt 0.745908 1.104850
vt 0.758187 1.101449
vt 0.419958 2.116868
vt 0.437164 2.122726
vt 0.758722 1.068147
vt 1.592131 0.376805
vt 0.383927 2.119958
vt 0.428683 2.290979
vt 0.513700 2.303273
vt 0.502729 2.129561
vt 0.414542 2.294515
vt 0.368105 2.128796
vt 0.470766 2.303353
vt 0.453287 2.129940
vt 0.338827 1.871745
vt 0.362047 1.874802
vt 0.499667 2.307682
vt 0.469771 2.134551
vt 0.423982 1.850654
vt 0.405108 1.862298
vt 0.443505 1.840050
vt 0.464450 1.832412
vt 0.361494 1.469626
vt 0.387437 1.692688
vt 0.486824 1.829607
vt 0.315736 1.863779
vt 0.485012 2.307682
vt 0.384683 1.871490
vt 0.532716 1.841489
vt 0.363002 1.703052
vt 0.510154 1.832304
vt 0.336248 1.472187
vt 0.310553 1.699940
vt 0.287827 1.687472
vt 0.471104 1.456336
vt 0.469211 1.657589
vt 0.511922 1.672177
vt 0.491285 1.661364
vt 0.499631 1.455778
vt 0.447833 1.659409
vt 0.441960 1.458495
vt 0.525762 1.460501
vt 0.262056 1.474897
vt 0.407146 1.201402
vt 0.427511 1.666761
vt 0.386271 1.466102
vt 0.408067 1.678834
vt 0.311563 1.473759
vt 0.447715 1.207733
vt 0.413158 1.462357
vt 0.336305 1.705785
vt 0.286806 1.474922
vt 1.577424 0.692833
vt 1.362925 0.696453
vt 0.487527 1.211709
vt 0.553910 1.205419
vt 1.553742 0.765484
vt 1.374912 0.768981
vt 1.359379 0.675365
vt 1.586468 0.664647
vt 0.523655 1.208608
vt 1.556274 0.742365
vt 1.372208 0.742591
vt 1.579540 0.838393
vt 1.367909 0.718438
vt 1.557887 0.789041
vt 1.588728 0.636698
vt 1.357633 0.653977
vt 1.368846 0.842503
vt 1.568690 0.813468
vt 1.565592 0.718363
vt 1.373931 0.820055
vt 1.198240 0.770844
vt 1.182350 0.719476
vt 1.180968 0.841907
vt 1.363172 0.863272
vt 1.588728 0.895469
vt 1.198509 0.788394
vt 1.174952 0.682641
vt 1.375508 0.795278
vt 1.177025 0.701470
vt 0.975917 0.689961
vt 0.978709 0.708215
vt 1.195623 0.806533
vt 1.194629 0.753730
vt 0.992761 0.824119
vt 1.359389 0.884147
vt 1.176390 0.859702
vt 1.586886 0.866099
vt 1.188866 0.736635
vt 1.188840 0.824194
vt 1.002013 0.808056
vt 1.007023 0.790638
vt 1.003286 0.756198
vt 0.773252 0.763290
vt 0.790621 0.712562
vt 1.007574 0.773125
vt 0.986205 0.724774
vt 0.978368 0.857428
vt 0.995509 0.740261
vt 0.788869 0.726343
vt 0.983422 0.839881
vt 0.775557 0.788465
vt 0.792306 0.839515
vt 0.643020 0.755532
vt 0.781804 0.800241
vt 0.772647 0.776015
vt 0.788389 0.812293
vt 0.792192 0.825629
vt 0.777492 0.751028
vt 0.638941 0.766394
vt 0.783680 0.739123
vt 0.519663 0.540307
vt 0.307886 0.551912
vt 1.168961 1.044192
vt 0.648572 0.745268
vt 0.450422 0.843440
vt 0.496283 0.848237
vt 0.654845 0.723503
vt 0.656454 0.832218
vt 0.171765 0.823990
vt 0.146928 0.527002
vt 0.653122 0.734726
vt 0.646820 0.799350
vt 0.255150 0.541061
vt 0.652616 0.809813
vt 0.466632 0.546580
vt 0.638225 0.777802
vt 0.092349 0.533371
vt 0.656036 0.820885
vt 0.127556 0.844180
vt 0.640979 0.788938
vt 1.072044 1.039453
vt 1.043049 1.039575
vt 1.096049 1.205174
vt 1.063224 1.123305
vt 1.095835 1.133153
vt 1.098829 1.043552
vt 1.100485 1.210801
vt 1.089872 1.202201
vt 1.139331 1.045016
vt 1.070719 1.222677
vt 1.050420 1.122166
vt 1.092786 1.202882
vt 1.057692 1.038638
vt 1.076678 1.207189
vt 1.130150 1.127926
vt 1.087957 1.311909
vt 1.131032 0.903246
vt 1.103995 1.226712
vt 1.160119 0.909549
vt 1.116594 0.899733
vt 1.102171 0.897060
vt 1.042711 0.904228
vt 1.145546 0.906921
vt 1.072316 0.896906
vt 1.057255 0.900160
vt 1.087495 0.896199
vt 0.189154 0.094817
vt 0.191625 0.304751
vt 0.362766 0.324596
vt 0.305531 0.325957
vt 1.175098 0.910060
vt 0.301572 0.066695
vt 0.134810 0.294897
vt 0.134103 0.117776
vt 0.356683 0.070491
vt 1.028094 0.906515
vt 0.411327 0.085705
vt 0.419267 0.315309
vt 0.520808 0.127235
vt 0.583662 0.290396
vt 0.633173 0.131216
vt 0.637494 0.290248
vt 0.245685 0.075207
vt 0.529826 0.295158
vt 0.577764 0.135867
vt 0.248472 0.317834
vt 0.465398 0.107759
vt 0.079567 0.133182
vt 0.638225 1.093378
vt 0.638327 1.079492
vt 0.673220 1.104399
vt 0.659996 1.109149
vt 0.079454 0.291304
vt 0.474932 0.303882
vt 0.646411 1.104857
vt 0.680946 1.093329
vt 0.770998 1.095176
vt 1.600845 0.489245
vt 1.595971 0.463215
vt 0.780798 1.102016
vt 0.673055 1.068716
vt 0.802589 1.095030
vt 0.802947 1.071608
vt 0.646599 1.068311
vt 0.793049 1.064284
vt 1.617352 0.573566
vt 1.614360 0.544002
vt 0.780755 1.064194
vt 0.766793 1.083469
vt 1.375759 0.508650
vt 0.680946 1.079887
vt 0.792699 1.102016
vt 0.659922 1.064194
vt 0.806593 1.083403
vt 0.770592 1.071441
vt 1.371534 0.483971
vt 1.590503 0.346602
vt 1.379354 0.580760
vt 1.611905 0.635967
vt 1.615813 0.604543
vt 1.607137 0.515553
vt 1.367592 0.460329
vt 1.356916 0.395326
vt 1.380964 0.557645
vt 1.378955 0.533435
vt 1.593626 0.436059
vt 1.202710 0.521321
vt 1.198008 0.504288
vt 1.204115 0.538997
vt 1.375794 0.602262
vt 1.177165 0.452638
vt 1.174007 0.433862
vt 1.196792 0.575726
vt 1.372927 0.623322
vt 1.191172 0.487402
vt 1.202418 0.557474
vn -0.828800 -0.510000 -0.230400
vn -0.828400 0.010600 -0.560100
vn 0.359100 0.054000 0.931700
vn 0.343500 0.024800 0.938800
vn 0.042600 0.852300 -0.521300
vn 0.564100 0.812200 -0.148700
vn 0.301600 0.125500 -0.945100
vn -0.987700 -0.134500 0.080100
vn -0.353500 0.935200 0.018500
vn 0.433600 -0.595800 0.676100
vn 0.840200 0.089100 0.534900
vn 0.990900 0.127100 -0.043900
vn 0.931800 0.358900 -0.054200
vn 0.779400 0.145400 -0.609400
vn 0.759800 0.343600 -0.552000
vn -0.997600 -0.051900 0.044800
vn 0.754100 0.248200 -0.608000
vn 0.286400 0.090400 -0.953800
vn 0.960600 0.268100 -0.073800
vn 0.792900 0.141600 -0.592600
vn 0.302200 -0.039400 0.952400
vn -0.737500 0.660300 -0.141800
vn 0.000500 0.542600 0.840000
vn 0.339100 0.010600 0.940700
vn -0.518200 0.435100 -0.736300
vn 0.531000 -0.829800 0.172000
vn 0.603100 -0.597500 -0.528500
vn 0.348800 -0.857500 -0.378300
vn -0.283000 -0.111200 -0.952700
vn 0.917000 0.319400 -0.239000
vn 0.865400 0.419300 -0.274500
vn 0.608200 0.790800 0.068900
vn -0.555000 0.372600 -0.743800
vn -0.915700 0.194000 0.352000
vn -0.518600 0.738500 0.430900
vn -0.917400 -0.317500 0.240100
vn -0.989100 -0.133700 0.061600
vn 0.748600 0.307600 -0.587400
vn 0.694100 0.597100 0.402100
vn 0.883200 0.452100 -0.124700
vn 0.342300 0.163700 0.925200
vn -0.272800 0.057000 0.960400
vn 0.242400 0.597500 0.764300
vn -0.774500 0.127300 0.619700
vn -0.772300 -0.055700 0.632800
vn -0.299600 0.112800 -0.947400
vn -0.667000 0.329600 0.668100
vn -0.576800 0.414800 0.703800
vn -0.820600 -0.069300 -0.567300
vn 0.733300 0.193600 -0.651800
vn 0.301800 0.252600 -0.919300
vn 0.807800 0.246200 0.535700
vn -0.297600 0.389600 0.871600
vn -0.519100 0.811600 0.267900
vn 0.952900 0.298000 -0.055400
vn -0.746300 0.651400 0.136600
vn 0.614500 -0.670700 0.415400
vn 0.206700 -0.512700 0.833300
vn 0.605500 -0.305700 -0.734800
vn -0.544700 0.726000 -0.419700
vn 0.702100 -0.277300 -0.655900
vn 0.340800 0.156100 -0.927100
vn 0.333400 -0.890000 0.310900
vn -0.281200 0.922200 -0.265500
vn 0.380300 0.241800 -0.892700
vn -0.072000 -0.637900 0.766800
vn -0.230200 -0.767600 0.598200
vn 0.484400 0.208600 -0.849600
vn -0.142500 0.544300 -0.826700
vn 0.055300 0.706400 -0.705700
vn -0.296400 -0.129300 0.946300
vn 0.799800 -0.583700 -0.139600
vn 0.512700 -0.432400 -0.741700
vn 0.062800 -0.987200 0.146300
vn 0.595800 -0.752300 -0.281200
vn -0.416300 -0.129300 0.900000
vn 0.251200 0.761700 -0.597300
vn -0.493600 0.385900 0.779400
vn -0.337200 0.856600 0.390500
vn -0.449600 -0.251700 0.857000
vn -0.413000 0.854800 0.314400
vn -0.150700 0.971600 -0.182400
vn 0.469400 0.229300 -0.852700
vn 0.341200 -0.872600 -0.349400
vn -0.057600 0.990500 -0.125200
vn 0.561600 -0.434400 -0.704200
vn -0.119800 -0.762600 0.635600
vn 0.430000 -0.858600 -0.279100
vn 0.021000 -0.683200 0.729900
vn -0.345800 -0.237200 0.907800
vn 0.179600 -0.962300 0.204200
vn -0.528600 0.816100 0.233600
vn 0.173100 0.768400 -0.616100
vn -0.399800 -0.260500 0.878800
vn -0.274000 0.918500 -0.285100
vn -0.525400 0.394300 0.754000
vn 0.430900 0.185800 -0.883000
vn -0.629500 0.742700 0.228200
vn 0.418700 0.114800 -0.900800
vn 0.346000 -0.873400 0.342900
vn 0.075000 0.707100 -0.703200
vn -0.581500 0.298900 0.756600
vn -0.024700 0.979400 -0.200300
vn 0.617900 -0.433200 -0.656200
vn 0.632900 -0.773100 -0.042600
vn 0.107700 0.739800 0.664100
vn 0.217100 0.674500 0.705600
vn 0.675700 -0.462200 -0.574300
vn 0.107200 -0.632300 0.767300
vn 0.496000 0.846800 0.192300
vn -0.581200 0.373100 0.723200
vn 0.417100 -0.805200 0.421600
vn 0.569700 -0.807000 -0.155300
vn 0.234800 0.845100 -0.480400
vn -0.262800 -0.253100 0.931000
vn 0.609800 0.752700 0.248200
vn -0.819100 -0.521100 0.239700
vn -0.657000 -0.195500 0.728100
vn 0.782300 0.553200 -0.286300
vn 0.696900 0.628100 -0.346200
vn 0.240800 -0.352000 -0.904500
vn -0.285900 -0.655800 -0.698700
vn -0.717700 -0.623800 0.309600
vn -0.698500 -0.148400 0.700000
vn 0.295800 -0.392100 -0.871100
vn -0.156300 -0.754000 -0.638000
vn -0.528600 -0.826200 -0.194700
vn -0.663800 -0.698600 -0.267000
vn 0.121200 -0.383000 -0.915800
vn -0.293200 0.324500 0.899300
vn -0.758300 -0.182300 0.625900
vn -0.850300 -0.495500 0.177600
vn 0.629500 0.152900 -0.761800
vn -0.340400 0.335100 0.878500
vn -0.391800 -0.626600 -0.673700
vn 0.662800 0.132600 -0.736900
vn -0.775200 -0.246800 -0.581500
vn -0.293800 -0.123800 0.947800
vn -0.761000 -0.247800 0.599500
vn -0.266700 -0.005500 -0.963800
vn 0.439100 0.886200 0.147900
vn -0.082900 0.958300 -0.273300
vn -0.633600 -0.232700 0.737800
vn 0.220800 0.621200 0.751900
vn -0.642800 -0.687600 0.337500
vn 0.321400 -0.411800 -0.852700
vn 0.636600 0.083700 -0.766600
vn -0.714300 -0.643500 -0.275200
vn 0.043100 0.767700 0.639300
vn -0.355400 0.266600 0.895900
vn 0.602300 0.132700 -0.787100
vn 0.386900 0.920600 0.053200
vn -0.258900 0.506800 -0.822200
vn 0.653200 0.640700 -0.403500
vn 0.494600 0.807900 -0.320300
vn -0.068500 -0.790300 -0.608800
vn -0.309200 0.545900 -0.778700
vn -0.427700 -0.889000 -0.163800
vn 0.223600 0.806300 -0.547600
vn -0.374700 0.330400 0.866300
vn 0.031700 0.898000 -0.438900
vn 0.772000 0.521300 0.363800
vn -0.213700 0.782000 0.585500
vn -0.782900 0.217400 0.582900
vn 0.969200 0.178200 -0.169700
vn 0.307400 0.643400 0.701100
vn 0.185500 0.824900 0.533900
vn -0.258500 0.545800 0.797000
vn 0.969100 0.112800 -0.219500
vn 0.825900 0.407200 0.389800
vn -0.833800 0.279500 0.476000
vn 0.955800 0.247300 -0.158700
vn -0.304000 -0.463900 -0.832100
vn -0.729100 -0.405800 -0.551100
vn -0.981500 -0.188700 -0.031200
vn -0.315700 -0.571000 -0.757800
vn -0.681400 -0.668900 -0.297300
vn -0.953600 -0.293300 0.068700
vn -0.974300 -0.209800 0.081800
vn 0.722200 0.635000 0.274100
vn 0.669000 -0.207200 -0.713800
vn -0.809800 0.159000 0.564800
vn 0.182800 -0.400100 -0.898000
vn 0.210700 -0.490600 -0.845500
vn -0.230200 -0.803100 -0.549600
vn 0.305400 -0.684000 -0.662400
vn -0.756100 -0.486200 -0.438200
vn 0.721100 -0.232400 -0.652600
vn 0.789700 -0.287400 -0.542000
vn -0.292200 0.692800 0.659300
vn -0.894900 -0.406500 0.184000
vn -0.831000 0.269200 0.486700
vn 0.274000 0.782200 0.559500
vn 0.549700 0.833900 0.048500
vn 0.845300 -0.303000 -0.440000
vn -0.053900 -0.962500 -0.265900
vn -0.806600 -0.448400 -0.385100
vn -0.961100 -0.230200 0.152700
vn -0.078900 -0.915200 -0.395200
vn -0.619900 -0.778900 -0.095500
vn 0.291000 -0.131000 -0.947700
vn 0.493500 -0.672200 -0.551800
vn 0.459500 -0.778400 -0.427700
vn 0.076900 0.944100 0.320500
vn 0.700400 0.512600 0.496700
vn 0.225100 0.858900 0.460000
vn -0.467800 0.726700 0.503000
vn 0.078300 0.713000 0.696800
vn -0.556300 -0.829900 -0.042700
vn -0.355200 -0.410500 -0.839900
vn 0.846200 -0.161000 -0.507900
vn 0.884300 -0.382700 -0.267400
vn 0.042700 0.940100 0.338200
vn 0.626500 0.497600 0.599900
vn 0.354300 -0.871000 -0.340300
vn 0.460800 -0.623800 -0.631300
vn -0.437700 0.700000 0.564300
vn -0.320900 0.909500 0.264300
vn -0.977000 0.107700 -0.184200
vn -0.939200 0.160700 -0.303300
vn 0.823500 -0.567300 0.007200
vn 0.972700 0.061300 0.224000
vn -0.755200 -0.385400 -0.530200
vn -0.714900 -0.342700 -0.609500
vn -0.889400 0.138200 -0.435700
vn -0.747200 -0.496700 -0.441600
vn -0.760200 0.649400 -0.018300
vn 0.198000 -0.979800 -0.026900
vn 0.944000 -0.023800 0.329100
vn -0.260500 -0.793300 -0.550200
vn 0.361800 0.892100 0.270600
vn 0.654500 -0.721900 0.224900
vn -0.830500 0.493400 0.258400
vn -0.129100 -0.620600 -0.773400
vn 0.786100 0.451400 0.422300
vn -0.900100 0.157200 -0.406400
vn -0.177600 0.983900 0.020100
vn -0.320200 -0.906100 -0.276600
vn -0.225400 0.966800 0.120500
vn 0.686700 -0.718400 0.110700
vn -0.717300 -0.503800 -0.481300
vn -0.654600 0.715000 -0.245500
vn 0.897000 -0.182500 0.402500
vn 0.296400 0.891100 0.343700
vn 0.919700 -0.188900 0.344200
vn -0.671900 0.724500 -0.153900
vn 0.943000 -0.169700 0.286300
vn -0.675400 -0.502000 -0.540300
vn 0.221800 0.857200 0.464800
vn -0.321700 0.913400 0.249500
vn 0.767800 0.462700 0.443100
vn -0.257500 -0.895600 -0.362800
vn 0.764200 -0.643600 -0.041800
vn 0.247700 -0.957900 -0.145000
vn 0.793600 -0.594600 -0.129000
vn 0.087200 0.811900 -0.577300
vn 0.225400 0.784300 0.578000
vn -0.925000 0.111100 -0.363300
vn 0.741800 0.444400 0.502200
vn 0.439200 -0.801000 -0.406800
vn -0.541800 0.805200 -0.240800
vn -0.149800 -0.844100 -0.514900
vn -0.253800 0.967200 -0.007000
vn 0.778400 -0.073000 0.623500
vn 0.587600 0.780800 -0.212200
vn -0.038900 -0.804700 -0.592400
vn 0.958900 -0.189300 0.211500
vn 0.144800 0.713000 -0.686000
vn 0.366800 -0.871200 -0.326500
vn -0.930900 0.045200 -0.362500
vn -0.750800 0.658600 -0.050300
vn 0.774100 0.367700 0.515400
vn -0.589100 -0.525500 -0.613800
vn 0.628700 0.709700 -0.318100
vn 0.404200 -0.528000 0.746900
vn 0.748600 -0.024900 0.662600
vn 0.862400 0.437700 0.254100
vn -0.378300 0.454200 -0.806600
vn -0.847400 -0.489700 -0.205300
vn -0.881100 -0.447800 -0.152000
vn -0.557700 -0.788300 0.260000
vn 0.331200 -0.422900 0.843500
vn -0.439800 0.531000 -0.724300
vn -0.619600 -0.684300 0.384400
vn -0.165400 -0.656000 0.736400
vn -0.806500 0.030400 -0.590400
vn -0.419000 0.729900 -0.540000
vn -0.089600 -0.788700 0.608200
vn 0.268800 -0.400000 0.876200
vn -0.591400 -0.643600 0.485700
vn -0.781800 0.009300 -0.623400
vn 0.881400 0.424800 0.206700
vn -0.882900 -0.468700 -0.029700
vn 0.681300 -0.059500 0.729600
vn -0.851900 -0.088900 -0.516100
vn 0.983600 0.162800 -0.077400
vn -0.495500 0.542600 -0.678200
vn 0.679300 0.660300 -0.320200
vn -0.332300 0.075100 -0.940200
vn -0.837200 0.005700 -0.546900
vn -0.058800 -0.857500 0.511100
vn -0.175700 -0.597500 0.782400
vn -0.303200 -0.043900 0.951900
vn -0.291400 -0.053000 0.955100
vn -0.530300 -0.829800 0.174000
vn -0.051700 0.883200 -0.466200
vn 0.852500 0.137400 0.504300
vn 0.852600 0.435100 0.289400
vn -0.357000 0.000100 -0.934100
vn 0.790100 -0.111200 0.602800
vn -0.778500 -0.121900 0.615700
vn -0.805500 -0.039400 -0.591300
vn -0.797900 -0.072000 0.598500
vn 0.886700 0.372600 0.273700
vn -0.220800 -0.142900 0.964800
vn 0.418300 0.094200 0.903400
vn 0.834000 0.206300 0.511700
vn 0.834300 0.276600 0.477000
vn 0.336900 0.221700 -0.915100
vn -0.835700 -0.206200 -0.509000
vn -0.012300 0.856900 -0.515300
vn -0.811300 -0.463200 -0.356600
vn -0.931100 -0.363300 0.031100
vn -0.371000 -0.037200 -0.927900
vn 0.343500 0.057200 0.937400
vn -0.729800 -0.317800 0.605300
vn 0.260100 0.142500 -0.955000
vn -0.663700 -0.728300 0.170800
vn -0.957000 -0.281100 0.071500
vn 0.471800 0.879000 0.068300
vn -0.613700 -0.567500 -0.548900
vn -0.435600 -0.900000 -0.014500
vn 0.354300 0.933200 0.059300
vn -0.662300 0.011000 -0.749200
vn 0.528100 0.123200 0.840200
vn 0.286300 -0.438200 0.852100
vn 0.185300 -0.421200 0.887900
vn -0.557100 -0.005600 -0.830400
vn 0.592200 0.803300 -0.063400
vn 0.573800 0.045200 0.817800
vn 0.336500 -0.538300 0.772700
vn -0.126500 0.913600 -0.386500
vn -0.179400 -0.972900 -0.145800
vn -0.395900 -0.690200 -0.605700
vn -0.287700 -0.712400 0.640100
vn 0.727700 0.516100 0.451800
vn 0.159000 0.977400 0.139300
vn 0.457100 0.091200 0.884700
vn 0.543300 0.641600 0.541500
vn -0.080400 -0.843100 0.531800
vn 0.482900 0.110500 0.868700
vn 0.288300 -0.545700 0.786800
vn -0.483100 -0.136500 -0.864800
vn 0.383700 0.682500 0.622100
vn -0.486100 -0.691200 -0.534700
vn -0.530900 -0.145800 -0.834800
vn -0.025000 0.912200 -0.409000
vn -0.379500 0.493600 -0.782500
vn 0.089400 -0.926300 0.365900
vn 0.260900 0.961700 0.084600
vn -0.011600 -0.917100 0.398600
vn -0.346200 0.504000 -0.791300
vn 0.219500 -0.544700 0.809400
vn -0.188800 -0.868300 0.458800
vn 0.413900 0.909700 0.033900
vn -0.639400 -0.619500 -0.455400
vn -0.287400 -0.954500 -0.080000
vn 0.454000 0.694200 0.558600
vn -0.584300 -0.127900 -0.801400
vn 0.106000 0.879100 -0.464800
vn -0.646400 -0.148500 -0.748400
vn -0.521300 0.713000 0.468800
vn -0.410700 0.811900 0.415000
vn -0.717500 -0.572000 -0.397500
vn -0.491300 -0.871000 -0.001500
vn 0.533600 -0.000300 0.845700
vn -0.314800 0.413200 -0.854500
vn 0.578500 0.630400 0.517600
vn 0.296200 0.776600 0.556000
vn -0.214100 -0.024900 -0.976500
vn -0.261300 -0.073000 -0.962500
vn 0.204100 0.957100 0.205500
vn 0.106900 -0.568300 0.815800
vn -0.695300 0.709700 -0.113600
vn 0.528600 0.066300 0.846300
vn 0.165500 0.813100 -0.558100
vn -0.290700 0.485800 -0.824300
vn -0.598400 -0.800800 0.025400
vn -0.324100 -0.827800 0.458000
vn -0.599800 0.780800 -0.175000
vn 0.603800 -0.788300 0.118700
vn 0.229600 -0.422900 -0.876600
vn -0.590100 0.424800 -0.686500
vn -0.546900 0.437700 -0.713600
vn -0.071600 0.531000 0.844300
vn 0.563500 -0.489700 0.665300
vn 0.727100 -0.684300 0.054700
vn 0.113700 -0.528000 -0.841600
vn -0.169800 0.454200 0.874600
vn 0.622200 -0.447800 0.642100
vn 0.303600 0.030400 0.952300
vn 0.264100 0.009300 0.964400
vn -0.233000 0.883200 0.407100
vn 0.567700 -0.656000 -0.497400
vn 0.764100 -0.643600 -0.043800
vn 0.695700 -0.468700 0.544400
vn -0.120300 -0.059500 -0.991000
vn 0.430800 -0.788700 -0.438500
vn 0.020200 0.729900 0.683200
vn 0.299300 -0.400000 -0.866300
f 1/1/1 2/2/2 3/3/3
f 1/1/1 3/3/3 4/4/4
f 5/5/5 6/6/6 7/7/7
f 5/5/5 7/7/7 8/8/8
f 9/9/9 10/10/10 11/11/11
f 9/9/9 11/11/11 12/12/12
f 13/13/13 1/1/1 4/4/4
f 13/13/13 4/4/4 14/14/14
f 15/15/15 5/5/5 8/8/8
f 15/15/15 8/8/8 16/16/16
f 17/17/17 9/9/9 12/12/12
f 17/17/17 12/12/12 18/18/18
f 19/19/19 13/13/13 14/14/14
f 19/19/19 14/14/14 20/20/20
f 2/2/2 15/15/15 16/16/16
f 2/2/2 16/16/16 3/3/3
f 6/6/6 17/17/17 18/18/18
f 6/6/6 18/18/18 7/7/7
f 10/10/10 19/19/19 20/20/20
f 10/10/10 20/20/20 11/11/11
f 21/21/21 22/22/22 7/7/7
f 21/21/21 7/7/7 18/18/18
f 23/23/23 24/24/24 20/20/20
f 23/23/23 20/20/20 14/14/14
f 25/25/25 26/26/26 3/3/3
f 25/25/25 3/3/3 16/16/16
f 24/24/24 27/27/27 11/11/11
f 24/24/24 11/11/11 20/20/20
f 26/26/26 28/28/28 4/4/4
f 26/26/26 4/4/4 3/3/3
f 22/22/22 29/29/29 8/8/8
f 22/22/22 8/8/8 7/7/7
f 28/28/28 23/23/23 14/14/14
f 28/28/28 14/14/14 4/4/4
f 29/29/29 25/25/25 16/16/16
f 29/29/29 16/16/16 8/8/8
f 29/29/29 22/22/22 30/30/30
f 29/29/29 30/30/30 31/31/31
f 22/22/22 21/21/21 32/32/32
f 22/22/22 32/32/32 30/30/30
f 21/21/21 33/33/33 34/34/34
f 21/21/21 34/34/34 32/32/32
f 33/33/33 27/27/27 35/35/35
f 33/33/33 35/35/35 34/34/34
f 27/27/27 24/24/24 36/36/36
f 27/27/27 36/36/36 35/35/35
f 33/33/33 21/21/21 18/18/18
f 33/33/33 18/18/18 12/12/12
f 37/37/37 38/38/38 39/39/39
f 37/37/37 39/39/39 40/40/40
f 41/41/41 42/42/42 43/43/43
f 41/41/41 43/43/43 44/44/44
f 45/45/45 46/46/46 47/47/47
f 45/45/45 47/47/47 48/48/48
f 49/49/49 37/37/37 40/40/40
f 49/49/49 40/40/40 50/50/50
f 51/51/51 41/41/41 44/44/44
f 51/51/51 44/44/44 52/52/52
f 53/53/53 45/45/45 48/48/48
f 53/53/53 48/48/48 54/54/54
f 55/55/55 49/49/49 50/50/50
f 55/55/55 50/50/50 56/56/56
f 38/38/38 51/51/51 52/52/52
f 38/38/38 52/52/52 39/39/39
f 42/42/42 53/53/53 54/54/54
f 42/42/42 54/54/54 43/43/43
f 46/46/46 55/55/55 56/56/56
f 46/46/46 56/56/56 47/47/47
f 44/44/44 43/43/43 57/57/57
f 44/44/44 57/57/57 58/58/58
f 48/48/48 47/47/47 59/59/59
f 48/48/48 59/59/59 60/60/60
f 50/50/50 40/40/40 61/61/61
f 50/50/50 61/61/61 62/62/62
f 52/52/52 44/44/44 58/58/58
f 52/52/52 58/58/58 63/63/63
f 54/54/54 48/48/48 60/60/60
f 54/54/54 60/60/60 64/64/64
f 56/56/56 50/50/50 62/62/62
f 56/56/56 62/62/62 65/65/65
f 39/39/39 52/52/52 63/63/63
f 39/39/39 63/63/63 66/66/66
f 43/43/43 54/54/54 64/64/64
f 43/43/43 64/64/64 57/57/57
f 47/47/47 56/56/56 65/65/65
f 47/47/47 65/65/65 59/59/59
f 40/40/40 39/39/39 66/66/66
f 40/40/40 66/66/66 61/61/61
f 60/60/60 59/59/59 67/67/67
f 60/60/60 67/67/67 68/68/68
f 62/62/62 61/61/61 69/69/69
f 62/62/62 69/69/69 70/70/70
f 63/63/63 58/58/58 71/71/71
f 63/63/63 71/71/71 72/72/72
f 64/64/64 60/60/60 68/68/68
f 64/64/64 68/68/68 73/73/73
f 65/65/65 62/62/62 70/70/70
f 65/65/65 70/70/70 74/74/74
f 66/66/66 63/63/63 72/72/72
f 66/66/66 72/72/72 75/75/75
f 57/57/57 64/64/64 73/73/73
f 57/57/57 73/73/73 76/76/76
f 59/59/59 65/65/65 74/74/74
f 59/59/59 74/74/74 67/67/67
f 61/61/61 66/66/66 75/75/75
f 61/61/61 75/75/75 69/69/69
f 58/58/58 57/57/57 76/76/76
f 58/58/58 76/76/76 71/71/71
f 70/70/70 69/69/69 77/77/77
f 70/70/70 77/77/77 78/78/78
f 72/72/72 71/71/71 79/79/79
f 72/72/72 79/79/79 80/80/80
f 73/73/73 68/68/68 81/81/81
f 73/73/73 81/81/81 82/82/82
f 74/74/74 70/70/70 78/78/78
f 74/74/74 78/78/78 83/83/83
f 75/75/75 72/72/72 80/80/80
f 75/75/75 80/80/80 84/84/84
f 76/76/76 73/73/73 82/82/82
f 76/76/76 82/82/82 85/85/85
f 67/67/67 74/74/74 83/83/83
f 67/67/67 83/83/83 86/86/86
f 69/69/69 75/75/75 84/84/84
f 69/69/69 84/84/84 77/77/77
f 71/71/71 76/76/76 85/85/85
f 71/71/71 85/85/85 79/79/79
f 68/68/68 67/67/67 86/86/86
f 68/68/68 86/86/86 81/81/81
f 80/80/80 79/79/79 87/87/87
f 80/80/80 87/87/87 88/88/88
f 82/82/82 81/81/81 89/89/89
f 82/82/82 89/89/89 90/90/90
f 83/83/83 78/78/78 91/91/91
f 83/83/83 91/91/91 92/92/92
f 84/84/84 80/80/80 88/88/88
f 84/84/84 88/88/88 93/93/93
f 85/85/85 82/82/82 90/90/90
f 85/85/85 90/90/90 94/94/94
f 86/86/86 83/83/83 92/92/92
f 86/86/86 92/92/92 95/95/95
f 77/77/77 84/84/84 93/93/93
f 77/77/77 93/93/93 96/96/96
f 79/79/79 85/85/85 94/94/94
f 79/79/79 94/94/94 87/87/87
f 81/81/81 86/86/86 95/95/95
f 81/81/81 95/95/95 89/89/89
f 78/78/78 77/77/77 96/96/96
f 78/78/78 96/96/96 91/91/91
f 97/97/97 98/98/98 99/99/99
f 97/97/97 99/99/99 100/100/100
f 101/101/101 102/102/102 103/103/103
f 101/101/101 103/103/103 104/104/104
f 105/105/105 106/106/106 107/107/107
f 105/105/105 107/107/107 108/108/108
f 109/109/109 110/110/110 98/98/98
f 109/109/109 98/98/98 97/97/97
f 111/111/111 112/112/112 102/102/102
f 111/111/111 102/102/102 101/101/101
f 113/113/113 114/114/114 106/106/106
f 113/113/113 106/106/106 105/105/105
f 115/115/115 116/116/116 110/110/110
f 115/115/115 110/110/110 109/109/109
f 100/100/100 99/99/99 112/112/112
f 100/100/100 112/112/112 111/111/111
f 104/104/104 103/103/103 114/114/114
f 104/104/104 114/114/114 113/113/113
f 108/108/108 107/107/107 116/116/116
f 108/108/108 116/116/116 115/115/115
f 102/102/102 117/117/117 118/118/118
f 102/102/102 118/118/118 103/103/103
f 106/106/106 119/119/119 120/120/120
f 106/106/106 120/120/120 107/107/107
f 110/110/110 121/121/121 122/122/122
f 110/110/110 122/122/122 98/98/98
f 112/112/112 123/123/123 117/117/117
f 112/112/112 117/117/117 102/102/102
f 114/114/114 124/124/124 119/119/119
f 114/114/114 119/119/119 106/106/106
f 116/116/116 125/125/125 121/121/121
f 116/116/116 121/121/121 110/110/110
f 99/99/99 126/126/126 123/123/123
f 99/99/99 123/123/123 112/112/112
f 103/103/103 118/118/118 124/124/124
f 103/103/103 124/124/124 114/114/114
f 107/107/107 120/120/120 125/125/125
f 107/107/107 125/125/125 116/116/116
f 98/98/98 122/122/122 126/126/126
f 98/98/98 126/126/126 99/99/99
f 111/111/111 101/101/101 127/127/127
f 111/111/111 127/127/127 128/128/128
f 113/113/113 105/105/105 129/129/129
f 113/113/113 129/129/129 130/130/130
f 115/115/115 109/109/109 131/131/131
f 115/115/115 131/131/131 132/132/132
f 100/100/100 111/111/111 128/128/128
f 100/100/100 128/128/128 133/133/133
f 104/104/104 113/113/113 130/130/130
f 104/104/104 130/130/130 134/134/134
f 108/108/108 115/115/115 132/132/132
f 108/108/108 132/132/132 135/135/135
f 97/97/97 100/100/100 133/133/133
f 97/97/97 133/133/133 136/136/136
f 101/101/101 104/104/104 134/134/134
f 101/101/101 134/134/134 127/127/127
f 105/105/105 108/108/108 135/135/135
f 105/105/105 135/135/135 129/129/129
f 109/109/109 97/97/97 136/136/136
f 109/109/109 136/136/136 131/131/131
f 124/124/124 118/118/118 117/117/117
f 124/124/124 117/117/117 123/123/123
f 124/124/124 123/123/123 126/126/126
f 124/124/124 126/126/126 122/122/122
f 124/124/124 122/122/122 121/121/121
f 124/124/124 121/121/121 125/125/125
f 124/124/124 125/125/125 120/120/120
f 124/124/124 120/120/120 119/119/119
f 137/137/137 138/138/138 139/139/139
f 137/137/137 139/139/139 140/140/140
f 141/141/141 142/142/142 143/143/143
f 141/141/141 143/143/143 144/144/144
f 145/145/145 146/146/146 147/147/147
f 145/145/145 147/147/147 148/148/148
f 149/149/149 145/145/145 148/148/148
f 149/149/149 148/148/148 150/150/150
f 151/151/151 149/149/149 150/150/150
f 151/151/151 150/150/150 152/152/152
f 146/146/146 141/141/141 144/144/144
f 146/146/146 144/144/144 147/147/147
f 153/153/153 154/154/154 155/155/155
f 153/153/153 155/155/155 156/156/156
f 157/157/157 153/153/153 156/156/156
f 157/157/157 156/156/156 158/158/158
f 142/142/142 159/159/159 160/160/160
f 142/142/142 160/160/160 143/143/143
f 159/159/159 157/157/157 158/158/158
f 159/159/159 158/158/158 160/160/160
f 161/161/161 162/162/162 151/151/151
f 161/161/161 151/151/151 154/154/154
f 163/163/163 161/161/161 154/154/154
f 163/163/163 154/154/154 153/153/153
f 164/164/164 163/163/163 153/153/153
f 164/164/164 153/153/153 157/157/157
f 162/162/162 165/165/165 149/149/149
f 162/162/162 149/149/149 151/151/151
f 166/166/166 167/167/167 159/159/159
f 166/166/166 159/159/159 142/142/142
f 168/168/168 166/166/166 142/142/142
f 168/168/168 142/142/142 141/141/141
f 154/154/154 151/151/151 152/152/152
f 154/154/154 152/152/152 155/155/155
f 169/169/169 170/170/170 146/146/146
f 169/169/169 146/146/146 145/145/145
f 165/165/165 169/169/169 145/145/145
f 165/165/165 145/145/145 149/149/149
f 171/171/171 172/172/172 173/173/173
f 171/171/171 173/173/173 174/174/174
f 175/175/175 176/176/176 169/169/169
f 175/175/175 169/169/169 165/165/165
f 177/177/177 178/178/178 175/175/175
f 177/177/177 175/175/175 179/179/179
f 180/180/180 181/181/181 182/182/182
f 180/180/180 182/182/182 183/183/183
f 182/182/182 179/179/179 162/162/162
f 182/182/182 162/162/162 161/161/161
f 173/173/173 184/184/184 167/167/167
f 173/173/173 167/167/167 166/166/166
f 185/185/185 186/186/186 187/187/187
f 185/185/185 187/187/187 176/176/176
f 187/187/187 174/174/174 168/168/168
f 187/187/187 168/168/168 170/170/170
f 188/188/188 183/183/183 163/163/163
f 188/188/188 163/163/163 164/164/164
f 189/189/189 190/190/190 188/188/188
f 189/189/189 188/188/188 184/184/184
f 31/31/31 30/30/30 185/185/185
f 31/31/31 185/185/185 178/178/178
f 191/191/191 192/192/192 180/180/180
f 191/191/191 180/180/180 190/190/190
f 36/36/36 191/191/191 190/190/190
f 36/36/36 190/190/190 189/189/189
f 35/35/35 36/36/36 189/189/189
f 35/35/35 189/189/189 172/172/172
f 192/192/192 193/193/193 181/181/181
f 192/192/192 181/181/181 180/180/180
f 32/32/32 34/34/34 171/171/171
f 32/32/32 171/171/171 186/186/186
f 30/30/30 32/32/32 186/186/186
f 30/30/30 186/186/186 185/185/185
f 190/190/190 180/180/180 183/183/183
f 190/190/190 183/183/183 188/188/188
f 194/194/194 31/31/31 178/178/178
f 194/194/194 178/178/178 177/177/177
f 193/193/193 194/194/194 177/177/177
f 193/193/193 177/177/177 181/181/181
f 176/176/176 187/187/187 170/170/170
f 176/176/176 170/170/170 169/169/169
f 183/183/183 182/182/182 161/161/161
f 183/183/183 161/161/161 163/163/163
f 172/172/172 189/189/189 184/184/184
f 172/172/172 184/184/184 173/173/173
f 184/184/184 188/188/188 164/164/164
f 184/184/184 164/164/164 167/167/167
f 170/170/170 168/168/168 141/141/141
f 170/170/170 141/141/141 146/146/146
f 181/181/181 177/177/177 179/179/179
f 181/181/181 179/179/179 182/182/182
f 179/179/179 175/175/175 165/165/165
f 179/179/179 165/165/165 162/162/162
f 174/174/174 173/173/173 166/166/166
f 174/174/174 166/166/166 168/168/168
f 186/186/186 171/171/171 174/174/174
f 186/186/186 174/174/174 187/187/187
f 178/178/178 185/185/185 176/176/176
f 178/178/178 176/176/176 175/175/175
f 34/34/34 35/35/35 172/172/172
f 34/34/34 172/172/172 171/171/171
f 195/195/195 196/196/196 197/197/197
f 195/195/195 197/197/197 198/198/198
f 199/199/199 200/200/200 201/201/201
f 199/199/199 201/201/201 202/202/202
f 203/203/203 204/204/204 205/205/205
f 203/203/203 205/205/205 206/206/206
f 207/207/207 195/195/195 198/198/198
f 207/207/207 198/198/198 208/208/208
f 209/209/209 199/199/199 202/202/202
f 209/209/209 202/202/202 210/210/210
f 211/211/211 203/203/203 206/206/206
f 211/211/211 206/206/206 212/212/212
f 213/213/213 207/207/207 208/208/208
f 213/213/213 208/208/208 214/214/214
f 196/196/196 209/209/209 210/210/210
f 196/196/196 210/210/210 197/197/197
f 200/200/200 211/211/211 212/212/212
f 200/200/200 212/212/212 201/201/201
f 204/204/204 213/213/213 214/214/214
f 204/204/204 214/214/214 205/205/205
f 202/202/202 201/201/201 215/215/215
f 202/202/202 215/215/215 216/216/216
f 206/206/206 205/205/205 217/217/217
f 206/206/206 217/217/217 218/218/218
f 208/208/208 198/198/198 219/219/219
f 208/208/208 219/219/219 220/220/220
f 210/210/210 202/202/202 216/216/216
f 210/210/210 216/216/216 221/221/221
f 212/212/212 206/206/206 218/218/218
f 212/212/212 218/218/218 222/222/222
f 214/214/214 208/208/208 220/220/220
f 214/214/214 220/220/220 223/223/223
f 197/197/197 210/210/210 221/221/221
f 197/197/197 221/221/221 224/224/224
f 201/201/201 212/212/212 222/222/222
f 201/201/201 222/222/222 215/215/215
f 205/205/205 214/214/214 223/223/223
f 205/205/205 223/223/223 217/217/217
f 198/198/198 197/197/197 224/224/224
f 198/198/198 224/224/224 219/219/219
f 218/218/218 217/217/217 225/225/225
f 218/218/218 225/225/225 226/226/226
f 220/220/220 219/219/219 227/227/227
f 220/220/220 227/227/227 228/228/228
f 221/221/221 216/216/216 229/229/229
f 221/221/221 229/229/229 230/230/230
f 222/222/222 218/218/218 226/226/226
f 222/222/222 226/226/226 231/231/231
f 223/223/223 220/220/220 228/228/228
f 223/223/223 228/228/228 232/232/232
f 224/224/224 221/221/221 230/230/230
f 224/224/224 230/230/230 233/233/233
f 215/215/215 222/222/222 231/231/231
f 215/215/215 231/231/231 234/234/234
f 217/217/217 223/223/223 232/232/232
f 217/217/217 232/232/232 225/225/225
f 219/219/219 224/224/224 233/233/233
f 219/219/219 233/233/233 227/227/227
f 216/216/216 215/215/215 234/234/234
f 216/216/216 234/234/234 229/229/229
f 228/228/228 227/227/227 235/235/235
f 228/228/228 235/235/235 236/236/236
f 230/230/230 229/229/229 237/237/237
f 230/230/230 237/237/237 238/238/238
f 231/231/231 226/226/226 239/239/239
f 231/231/231 239/239/239 240/240/240
f 232/232/232 228/228/228 236/236/236
f 232/232/232 236/236/236 241/241/241
f 233/233/233 230/230/230 238/238/238
f 233/233/233 238/238/238 242/242/242
f 234/234/234 231/231/231 240/240/240
f 234/234/234 240/240/240 243/243/243
f 225/225/225 232/232/232 241/241/241
f 225/225/225 241/241/241 244/244/244
f 227/227/227 233/233/233 242/242/242
f 227/227/227 242/242/242 235/235/235
f 229/229/229 234/234/234 243/243/243
f 229/229/229 243/243/243 237/237/237
f 226/226/226 225/225/225 244/244/244
f 226/226/226 244/244/244 239/239/239
f 238/238/238 237/237/237 245/245/245
f 238/238/238 245/245/245 246/246/246
f 240/240/240 239/239/239 247/247/247
f 240/240/240 247/247/247 248/248/248
f 241/241/241 236/236/236 249/249/249
f 241/241/241 249/249/249 250/250/250
f 242/242/242 238/238/238 246/246/246
f 242/242/242 246/246/246 251/251/251
f 243/243/243 240/240/240 248/248/248
f 243/243/243 248/248/248 252/252/252
f 244/244/244 241/241/241 250/250/250
f 244/244/244 250/250/250 253/253/253
f 235/235/235 242/242/242 251/251/251
f 235/235/235 251/251/251 254/254/254
f 237/237/237 243/243/243 252/252/252
f 237/237/237 252/252/252 245/245/245
f 239/239/239 244/244/244 253/253/253
f 239/239/239 253/253/253 247/247/247
f 236/236/236 235/235/235 254/254/254
f 236/236/236 254/254/254 249/249/249
f 255/255/255 256/256/256 257/257/257
f 255/255/255 257/257/257 258/258/258
f 259/259/259 260/260/260 261/261/261
f 259/259/259 261/261/261 262/262/262
f 263/263/263 264/264/264 265/265/265
f 263/263/263 265/265/265 266/266/266
f 267/267/267 268/268/268 256/256/256
f 267/267/267 256/256/256 255/255/255
f 269/269/269 270/270/270 260/260/260
f 269/269/269 260/260/260 259/259/259
f 271/271/271 272/272/272 264/264/264
f 271/271/271 264/264/264 263/263/263
f 273/273/273 274/274/274 268/268/268
f 273/273/273 268/268/268 267/267/267
f 258/258/258 257/257/257 270/270/270
f 258/258/258 270/270/270 269/269/269
f 262/262/262 261/261/261 272/272/272
f 262/262/262 272/272/272 271/271/271
f 266/266/266 265/265/265 274/274/274
f 266/266/266 274/274/274 273/273/273
f 260/260/260 275/275/275 276/276/276
f 260/260/260 276/276/276 261/261/261
f 264/264/264 277/277/277 278/278/278
f 264/264/264 278/278/278 265/265/265
f 268/268/268 279/279/279 280/280/280
f 268/268/268 280/280/280 256/256/256
f 270/270/270 281/281/281 275/275/275
f 270/270/270 275/275/275 260/260/260
f 272/272/272 282/282/282 277/277/277
f 272/272/272 277/277/277 264/264/264
f 274/274/274 283/283/283 279/279/279
f 274/274/274 279/279/279 268/268/268
f 257/257/257 284/284/284 281/281/281
f 257/257/257 281/281/281 270/270/270
f 261/261/261 276/276/276 282/282/282
f 261/261/261 282/282/282 272/272/272
f 265/265/265 278/278/278 283/283/283
f 265/265/265 283/283/283 274/274/274
f 256/256/256 280/280/280 284/284/284
f 256/256/256 284/284/284 257/257/257
f 269/269/269 259/259/259 285/285/285
f 269/269/269 285/285/285 286/286/286
f 271/271/271 263/263/263 287/287/287
f 271/271/271 287/287/287 288/288/288
f 273/273/273 267/267/267 289/289/289
f 273/273/273 289/289/289 290/290/290
f 258/258/258 269/269/269 286/286/286
f 258/258/258 286/286/286 291/291/291
f 262/262/262 271/271/271 288/288/288
f 262/262/262 288/288/288 292/292/292
f 266/266/266 273/273/273 290/290/290
f 266/266/266 290/290/290 293/293/293
f 255/255/255 258/258/258 291/291/291
f 255/255/255 291/291/291 294/294/294
f 259/259/259 262/262/262 292/292/292
f 259/259/259 292/292/292 285/285/285
f 263/263/263 266/266/266 293/293/293
f 263/263/263 293/293/293 287/287/287
f 267/267/267 255/255/255 294/294/294
f 267/267/267 294/294/294 289/289/289
f 282/282/282 276/276/276 275/275/275
f 282/282/282 275/275/275 281/281/281
f 282/282/282 281/281/281 284/284/284
f 282/282/282 284/284/284 280/280/280
f 282/282/282 280/280/280 279/279/279
f 282/282/282 279/279/279 283/283/283
f 282/282/282 283/283/283 278/278/278
f 282/282/282 278/278/278 277/277/277
f 295/295/295 296/296/296 297/297/297
f 295/295/295 297/297/297 298/298/298
f 299/299/299 300/300/300 301/301/301
f 299/299/299 301/301/301 302/302/302
f 303/303/303 304/304/304 305/305/305
f 303/303/303 305/305/305 306/306/306
f 296/296/296 307/307/307 308/308/308
f 296/296/296 308/308/308 297/297/297
f 300/300/300 309/309/309 310/310/310
f 300/300/300 310/310/310 301/301/301
f 304/304/304 311/311/311 312/312/312
f 304/304/304 312/312/312 305/305/305
f 307/307/307 313/313/313 314/314/314
f 307/307/307 314/314/314 308/308/308
f 309/309/309 295/295/295 298/298/298
f 309/309/309 298/298/298 310/310/310
f 311/311/311 299/299/299 302/302/302
f 311/311/311 302/302/302 312/312/312
f 313/313/313 303/303/303 306/306/306
f 313/313/313 306/306/306 314/314/314
f 298/298/298 297/297/297 19/19/19
f 298/298/298 19/19/19 10/10/10
f 302/302/302 301/301/301 17/17/17
f 302/302/302 17/17/17 6/6/6
f 306/306/306 305/305/305 15/15/15
f 306/306/306 15/15/15 2/2/2
f 297/297/297 308/308/308 13/13/13
f 297/297/297 13/13/13 19/19/19
f 301/301/301 310/310/310 9/9/9
f 301/301/301 9/9/9 17/17/17
f 305/305/305 312/312/312 5/5/5
f 305/305/305 5/5/5 15/15/15
f 308/308/308 314/314/314 1/1/1
f 308/308/308 1/1/1 13/13/13
f 310/310/310 298/298/298 10/10/10
f 310/310/310 10/10/10 9/9/9
f 312/312/312 302/302/302 6/6/6
f 312/312/312 6/6/6 5/5/5
f 314/314/314 306/306/306 2/2/2
f 314/314/314 2/2/2 1/1/1
f 94/94/94 90/90/90 89/89/89
f 94/94/94 89/89/89 95/95/95
f 94/94/94 95/95/95 92/92/92
f 94/94/94 92/92/92 91/91/91
f 94/94/94 91/91/91 96/96/96
f 94/94/94 96/96/96 93/93/93
f 94/94/94 93/93/93 88/88/88
f 94/94/94 88/88/88 87/87/87
f 167/167/167 164/164/164 157/157/157
f 167/167/167 157/157/157 159/159/159
f 252/252/252 248/248/248 247/247/247
f 252/252/252 247/247/247 253/253/253
f 252/252/252 253/253/253 250/250/250
f 252/252/252 250/250/250 249/249/249
f 252/252/252 249/249/249 254/254/254
f 252/252/252 254/254/254 251/251/251
f 252/252/252 251/251/251 246/246/246
f 252/252/252 246/246/246 245/245/245
f 315/315/315 316/316/316 317/317/317
f 315/315/315 317/317/317 318/318/318
f 319/319/319 320/320/320 321/321/321
f 319/319/319 321/321/321 322/322/322
f 323/323/323 137/137/137 140/140/140
f 323/323/323 140/140/140 324/324/324
f 325/325/325 315/315/315 318/318/318
f 325/325/325 318/318/318 326/326/326
f 327/327/327 319/319/319 322/322/322
f 327/327/327 322/322/322 328/328/328
f 329/329/329 323/323/323 324/324/324
f 329/329/329 324/324/324 330/330/330
f 138/138/138 325/325/325 326/326/326
f 138/138/138 326/326/326 139/139/139
f 316/316/316 327/327/327 328/328/328
f 316/316/316 328/328/328 317/317/317
f 320/320/320 329/329/329 330/330/330
f 320/320/320 330/330/330 321/321/321
f 318/318/318 317/317/317 331/331/331
f 318/318/318 331/331/331 332/332/332
f 322/322/322 321/321/321 333/333/333
f 322/322/322 333/333/333 334/334/334
f 324/324/324 140/140/140 335/335/335
f 324/324/324 335/335/335 336/336/336
f 326/326/326 318/318/318 332/332/332
f 326/326/326 332/332/332 337/337/337
f 328/328/328 322/322/322 334/334/334
f 328/328/328 334/334/334 338/338/338
f 330/330/330 324/324/324 336/336/336
f 330/330/330 336/336/336 339/339/339
f 139/139/139 326/326/326 337/337/337
f 139/139/139 337/337/337 340/340/340
f 317/317/317 328/328/328 338/338/338
f 317/317/317 338/338/338 331/331/331
f 321/321/321 330/330/330 339/339/339
f 321/321/321 339/339/339 333/333/333
f 140/140/140 139/139/139 340/340/340
f 140/140/140 340/340/340 335/335/335
f 334/334/334 333/333/333 341/341/341
f 334/334/334 341/341/341 342/342/342
f 336/336/336 335/335/335 343/343/343
f 336/336/336 343/343/343 344/344/344
f 337/337/337 332/332/332 345/345/345
f 337/337/337 345/345/345 346/346/346
f 338/338/338 334/334/334 342/342/342
f 338/338/338 342/342/342 347/347/347
f 339/339/339 336/336/336 344/344/344
f 339/339/339 344/344/344 348/348/348
f 340/340/340 337/337/337 346/346/346
f 340/340/340 346/346/346 349/349/349
f 331/331/331 338/338/338 347/347/347
f 331/331/331 347/347/347 350/350/350
f 333/333/333 339/339/339 348/348/348
f 333/333/333 348/348/348 341/341/341
f 335/335/335 340/340/340 349/349/349
f 335/335/335 349/349/349 343/343/343
f 332/332/332 331/331/331 350/350/350
f 332/332/332 350/350/350 345/345/345
f 344/344/344 343/343/343 351/351/351
f 344/344/344 351/351/351 352/352/352
f 346/346/346 345/345/345 353/353/353
f 346/346/346 353/353/353 354/354/354
f 347/347/347 342/342/342 355/355/355
f 347/347/347 355/355/355 356/356/356
f 348/348/348 344/344/344 352/352/352
f 348/348/348 352/352/352 357/357/357
f 349/349/349 346/346/346 354/354/354
f 349/349/349 354/354/354 358/358/358
f 350/350/350 347/347/347 356/356/356
f 350/350/350 356/356/356 359/359/359
f 341/341/341 348/348/348 357/357/357
f 341/341/341 357/357/357 360/360/360
f 343/343/343 349/349/349 358/358/358
f 343/343/343 358/358/358 351/351/351
f 345/345/345 350/350/350 359/359/359
f 345/345/345 359/359/359 353/353/353
f 342/342/342 341/341/341 360/360/360
f 342/342/342 360/360/360 355/355/355
f 354/354/354 353/353/353 361/361/361
f 354/354/354 361/361/361 362/362/362
f 356/356/356 355/355/355 363/363/363
f 356/356/356 363/363/363 364/364/364
f 357/357/357 352/352/352 365/365/365
f 357/357/357 365/365/365 366/366/366
f 358/358/358 354/354/354 362/362/362
f 358/358/358 362/362/362 367/367/367
f 359/359/359 356/356/356 364/364/364
f 359/359/359 364/364/364 368/368/368
f 360/360/360 357/357/357 366/366/366
f 360/360/360 366/366/366 369/369/369
f 351/351/351 358/358/358 367/367/367
f 351/351/351 367/367/367 370/370/370
f 353/353/353 359/359/359 368/368/368
f 353/353/353 368/368/368 361/361/361
f 355/355/355 360/360/360 369/369/369
f 355/355/355 369/369/369 363/363/363
f 352/352/352 351/351/351 370/370/370
f 352/352/352 370/370/370 365/365/365
f 371/371/371 372/372/372 373/373/373
f 371/371/371 373/373/373 374/374/374
f 375/375/375 376/376/376 377/377/377
f 375/375/375 377/377/377 378/378/378
f 379/379/379 380/380/380 381/381/381
f 379/379/379 381/381/381 382/382/382
f 383/383/383 384/384/384 372/372/372
f 383/383/383 372/372/372 371/371/371
f 385/385/385 386/386/386 376/376/376
f 385/385/385 376/376/376 375/375/375
f 387/387/387 388/388/388 380/380/380
f 387/387/387 380/380/380 379/379/379
f 389/389/389 390/390/390 384/384/384
f 389/389/389 384/384/384 383/383/383
f 374/374/374 373/373/373 386/386/386
f 374/374/374 386/386/386 385/385/385
f 378/378/378 377/377/377 388/388/388
f 378/378/378 388/388/388 387/387/387
f 382/382/382 381/381/381 390/390/390
f 382/382/382 390/390/390 389/389/389
f 376/376/376 391/391/391 392/392/392
f 376/376/376 392/392/392 377/377/377
f 380/380/380 393/393/393 394/394/394
f 380/380/380 394/394/394 381/381/381
f 384/384/384 395/395/395 396/396/396
f 384/384/384 396/396/396 372/372/372
f 386/386/386 397/397/397 391/391/391
f 386/386/386 391/391/391 376/376/376
f 388/388/388 398/398/398 393/393/393
f 388/388/388 393/393/393 380/380/380
f 390/390/390 399/399/399 395/395/395
f 390/390/390 395/395/395 384/384/384
f 373/373/373 400/400/400 397/397/397
f 373/373/373 397/397/397 386/386/386
f 377/377/377 392/392/392 398/398/398
f 377/377/377 398/398/398 388/388/388
f 381/381/381 394/394/394 399/399/399
f 381/381/381 399/399/399 390/390/390
f 372/372/372 396/396/396 400/400/400
f 372/372/372 400/400/400 373/373/373
f 385/385/385 375/375/375 401/401/401
f 385/385/385 401/401/401 402/402/402
f 387/387/387 379/379/379 403/403/403
f 387/387/387 403/403/403 404/404/404
f 389/389/389 383/383/383 405/405/405
f 389/389/389 405/405/405 406/406/406
f 374/374/374 385/385/385 402/402/402
f 374/374/374 402/402/402 407/407/407
f 378/378/378 387/387/387 404/404/404
f 378/378/378 404/404/404 408/408/408
f 382/382/382 389/389/389 406/406/406
f 382/382/382 406/406/406 409/409/409
f 371/371/371 374/374/374 407/407/407
f 371/371/371 407/407/407 410/410/410
f 375/375/375 378/378/378 408/408/408
f 375/375/375 408/408/408 401/401/401
f 379/379/379 382/382/382 409/409/409
f 379/379/379 409/409/409 403/403/403
f 383/383/383 371/371/371 410/410/410
f 383/383/383 410/410/410 405/405/405
f 398/398/398 392/392/392 391/391/391
f 398/398/398 391/391/391 397/397/397
f 398/398/398 397/397/397 400/400/400
f 398/398/398 400/400/400 396/396/396
f 398/398/398 396/396/396 395/395/395
f 398/398/398 395/395/395 399/399/399
f 398/398/398 399/399/399 394/394/394
f 398/398/398 394/394/394 393/393/393
f 156/156/156 155/155/155 152/152/152
f 156/156/156 152/152/152 150/150/150
f 156/156/156 150/150/150 148/148/148
f 156/156/156 148/148/148 147/147/147
f 156/156/156 147/147/147 144/144/144
f 156/156/156 144/144/144 143/143/143
f 156/156/156 143/143/143 160/160/160
f 156/156/156 160/160/160 158/158/158
f 368/368/368 364/364/364 363/363/363
f 368/368/368 363/363/363 369/369/369
f 368/368/368 369/369/369 366/366/366
f 368/368/368 366/366/366 365/365/365
f 368/368/368 365/365/365 370/370/370
f 368/368/368 370/370/370 367/367/367
f 368/368/368 367/367/367 362/362/362
f 368/368/368 362/362/362 361/361/361
f 29/29/29 31/31/31 194/194/194
f 29/29/29 194/194/194 25/25/25
f 193/193/193 26/26/26 25/25/25
f 193/193/193 25/25/25 194/194/194
f 192/192/192 28/28/28 26/26/26
f 192/192/192 26/26/26 193/193/193
f 191/191/191 23/23/23 28/28/28
f 191/191/191 28/28/28 192/192/192
f 24/24/24 23/23/23 191/191/191
f 24/24/24 191/191/191 36/36/36
f 11/11/11 27/27/27 33/33/33
f 11/11/11 33/33/33 12/12/12
