# Split Tree_5_bark mesh for Ursina textured rendering
o Tree_5_bark
v -0.104365 0.011173 -0.413864
v -0.260477 0.011173 -0.299608
v -0.474169 1.613542 -0.146061
v -0.372429 1.650792 -0.222130
v -0.510604 3.514930 0.064255
v -0.488119 3.536868 0.151781
v -0.636092 3.990940 0.083784
v -0.650461 3.971371 0.021256
v -0.260334 0.011173 0.070228
v -0.104777 0.011173 0.186673
v -0.346536 1.496653 0.178690
v -0.458540 1.519331 0.100972
v 0.244491 0.011173 0.070228
v 0.303860 0.011173 -0.115005
v -0.087189 1.638720 -0.022366
v -0.117241 1.579827 0.100972
v 0.088523 0.011173 -0.413864
v -0.243291 1.673683 -0.222130
v -0.319702 0.011173 -0.115005
v -0.507003 1.564306 -0.022366
v 0.088935 0.011173 0.186673
v -0.214627 1.520034 0.178690
v 0.244635 0.011173 -0.299608
v -0.134946 1.673671 -0.146061
v -0.117924 2.999224 0.173871
v -0.207390 3.007336 0.238523
v -0.334461 3.604885 0.205852
v -0.262880 3.628525 0.151781
v -0.474133 4.056846 0.083784
v -0.525748 4.040475 0.122867
v -0.252423 3.605653 -0.023675
v -0.316251 3.562399 -0.078924
v -0.502733 3.986777 -0.081779
v -0.460542 4.026457 -0.041375
v -0.479635 3.513194 -0.023675
v -0.624602 3.959696 -0.041375
v -0.231466 3.628520 0.064255
v -0.450183 4.052871 0.021256
v -0.403740 3.526796 -0.078924
v -0.566693 3.960749 -0.081779
v -0.420371 3.569926 0.205852
v -0.587711 4.015261 0.122867
v -1.020775 5.032135 -0.042578
v -1.031489 5.026084 -0.004989
v -1.061698 5.143695 0.021300
v -1.054491 5.151530 -0.006229
v -0.321452 2.969007 -0.103235
v -0.208521 2.963592 -0.103234
v -0.408225 3.013145 0.173871
v -0.443761 3.004189 0.069227
v -0.117366 2.976362 -0.036714
v -0.410968 2.990440 -0.036714
v -0.318394 3.012658 0.238523
v -0.083407 2.986909 0.069227
v -0.913863 5.073951 -0.004989
v -0.925758 5.070801 -0.042578
v -0.984987 5.179812 -0.006229
v -0.974358 5.179237 0.021300
v -0.814619 4.861036 -0.029019
v -0.830155 4.861383 0.015484
v -0.991629 5.044450 -0.065765
v -1.033771 5.162798 -0.022504
v -1.019069 5.028138 0.032718
v -0.988762 5.038004 0.055563
v -1.028627 5.148958 0.066317
v -1.051670 5.142700 0.049278
v -0.952771 5.052649 0.055563
v -1.001706 5.159913 0.066317
v -0.955221 5.059266 -0.065765
v -1.007689 5.173412 -0.022504
v -0.924188 5.066749 0.032718
v -0.980841 5.171522 0.049278
v -0.856666 4.828542 -0.102179
v -0.824424 4.848646 -0.073483
v -0.953868 4.804370 -0.029019
v -0.938199 4.802348 -0.073483
v -0.866088 4.849924 0.043221
v -0.909264 4.832353 0.043221
v -0.901080 4.810469 -0.102179
v -0.942989 4.815467 0.015484
v 2.057292 5.414495 0.372264
v 2.074956 5.409931 0.344796
v 2.209983 5.752998 0.349035
v 2.195050 5.758251 0.371112
v 1.989737 5.461454 0.347571
v 2.004349 5.447780 0.373406
v 2.145270 5.772174 0.371206
v 2.129256 5.774937 0.349156
v 2.128430 5.772322 0.321762
v 2.157201 6.027285 0.338477
v 2.155962 6.023624 0.318248
v 2.076153 5.415131 0.312555
v 2.209368 5.751199 0.321710
v 2.029728 5.429269 0.383432
v 2.170254 5.765599 0.379607
v 1.261375 4.350711 0.248453
v 1.268667 4.324244 0.294661
v 1.502304 4.652329 0.303809
v 1.504181 4.658207 0.253636
v 2.060719 5.427984 0.286821
v 2.193052 5.753176 0.299624
v 1.311726 4.334612 0.160851
v 1.277180 4.354121 0.197294
v 1.530594 4.646924 0.212186
v 1.572443 4.624491 0.195229
v 1.297045 4.284859 0.318701
v 1.525901 4.631910 0.343750
v 1.333514 4.244536 0.310050
v 1.564854 4.601424 0.358308
v 1.368662 4.224690 0.272974
v 1.607472 4.578578 0.341039
v 1.388422 4.233262 0.222311
v 1.636581 4.572581 0.298903
v 1.380819 4.260917 0.176355
v 1.638278 4.579439 0.248713
v 1.351725 4.299695 0.153145
v 1.613899 4.599393 0.209179
v 0.523752 3.712025 0.200583
v 0.560170 3.690214 0.256853
v 1.775456 4.889517 0.240570
v 1.737703 4.912887 0.227631
v 2.034294 5.444283 0.277476
v 1.990696 5.465521 0.315194
v 1.761835 4.855306 0.361141
v 1.791286 4.855655 0.322099
v 1.722142 4.876584 0.377225
v 1.796203 4.868792 0.276595
v 1.671914 4.935417 0.326957
v 1.689474 4.910233 0.363354
v 1.699250 4.933500 0.243213
v 1.674947 4.943394 0.281295
v 2.007499 5.458644 0.288333
v 2.143178 5.765785 0.299916
v 2.167690 5.758523 0.291519
v 2.166730 6.017963 0.301980
v 2.204200 6.009330 0.301721
v 2.216685 6.009659 0.318098
v 2.206530 6.018835 0.353903
v 2.188766 6.024097 0.359989
v 2.185066 6.012529 0.295698
v 2.217345 6.013364 0.338189
v 2.170009 6.027390 0.354406
v 0.610415 3.648791 0.279871
v 0.654409 3.602224 0.085115
v 0.600366 3.640491 0.060964
v 0.686563 3.577693 0.141102
v 0.544819 3.678936 0.077753
v 0.515208 3.706584 0.131715
v 0.656309 3.604427 0.260595
v 0.685297 3.577360 0.207767
v -0.391080 3.041284 0.152427
v -0.330694 2.995589 0.208611
v -0.134436 2.926927 0.071361
v -0.148800 2.956519 -0.017009
v -0.293387 3.047253 -0.076723
v -0.368653 3.073586 -0.024087
v -0.405517 3.070986 0.063772
v -0.209371 3.002363 -0.073400
v -0.246905 2.951068 0.210926
v -0.171960 2.924848 0.158514
v 1.231680 3.956023 0.615391
v 1.453066 3.970900 0.836627
v 1.488458 3.977472 0.809419
v 1.264823 3.960497 0.579435
v 1.295520 3.892019 0.524142
v 1.538489 3.916384 0.776600
v 1.536536 3.872600 0.786465
v 1.282957 3.844749 0.526879
v 1.220352 3.807604 0.585709
v 1.473591 3.832961 0.831824
v 1.433410 3.851538 0.849064
v 1.191498 3.832514 0.618202
v 1.202059 3.924365 0.638725
v 1.424890 3.939193 0.855075
v 1.254154 3.812577 0.550258
v 1.512519 3.841215 0.808243
v 1.184454 3.877474 0.638616
v 1.414423 3.892954 0.858128
v 1.520095 3.956506 0.785381
v 1.288603 3.936168 0.544189
v 2.105830 4.194804 1.534181
v 2.252609 4.433673 1.678320
v 2.257101 4.444214 1.662104
v 2.113831 4.210514 1.514252
v 2.172817 4.149690 1.525180
v 2.300900 4.399051 1.670218
v 2.287463 4.397732 1.684777
v 2.153478 4.145670 1.543008
v 1.930022 3.978519 1.218150
v 1.914193 3.956813 1.234999
v 2.111926 4.173357 1.548298
v 2.258179 4.418919 1.689407
v 2.132873 4.214067 1.495814
v 2.270325 4.445937 1.647192
v 2.286858 4.438224 1.639670
v 2.155535 4.204326 1.486463
v 2.300359 4.424303 1.642171
v 2.173584 4.185716 1.489807
v 2.130184 4.154532 1.551681
v 2.271259 4.405432 1.691830
v 2.305844 4.409312 1.653772
v 2.180455 4.165004 1.504630
v 1.889898 3.951720 1.254787
v 1.865663 3.965390 1.270657
v 1.856123 4.025393 1.270911
v 1.872856 4.046982 1.254734
v 1.918730 4.037110 1.217123
v 1.931546 4.009154 1.211004
v 1.852479 3.994148 1.276951
v 1.896527 4.051582 1.234141
v 1.749459 4.168138 1.239408
v 1.804637 4.338088 1.366485
v 1.807743 4.342979 1.355752
v 1.754306 4.175259 1.225518
v 1.797096 4.164021 1.253744
v 1.839444 4.327540 1.372338
v 1.829863 4.325801 1.379683
v 1.784024 4.159060 1.262208
v 1.754610 4.161413 1.253229
v 1.808764 4.332271 1.375938
v 1.767469 4.179795 1.216801
v 1.817184 4.344859 1.348113
v 1.829075 4.343004 1.346669
v 1.783671 4.180168 1.216815
v 1.838847 4.338245 1.351782
v 1.796762 4.176730 1.225451
v 1.767855 4.157935 1.261965
v 1.818231 4.327661 1.380891
v 1.842892 4.332338 1.361563
v 1.801986 4.170730 1.239569
v 1.779660 3.952817 1.098962
v 1.772848 3.939766 1.111719
v 1.774737 3.967670 1.087585
v 1.760039 3.979005 1.082434
v 1.741248 3.982438 1.085500
v 1.725445 3.976324 1.095107
v 1.718284 3.962950 1.107360
v 1.722493 3.946962 1.118027
v 1.737612 3.935302 1.123326
v 1.757016 3.933081 1.120933
v 0.874885 3.956556 0.175173
v 0.841742 3.952083 0.211129
v 0.893019 3.840809 0.122617
v 0.905581 3.888078 0.119880
v 0.864215 3.808637 0.145996
v 0.898665 3.932227 0.139927
v 0.812121 3.920424 0.234463
v 0.794515 3.873534 0.234354
v 0.830414 3.803664 0.181447
v 0.801559 3.828574 0.213940
v -2.432055 5.282652 0.938623
v -2.426198 5.273063 0.969624
v -2.533426 5.595667 1.112360
v -2.537619 5.605029 1.087206
v -2.366544 5.334548 0.918777
v -2.394618 5.322048 0.907661
v -2.501472 5.624820 1.056004
v -2.474775 5.627129 1.061680
v -2.455468 5.621713 1.080544
v -2.492007 5.871611 1.128806
v -2.477261 5.865981 1.142035
v -2.405195 5.274593 0.994613
v -2.514332 5.591039 1.131447
v -2.419726 5.301774 0.914434
v -2.525376 5.616199 1.065612
v -1.748082 4.316248 0.323244
v -1.784471 4.294196 0.290405
v -1.966976 4.590572 0.493289
v -1.934266 4.590771 0.531830
v -2.376575 5.286392 1.004972
v -2.487377 5.592603 1.136821
v -1.725002 4.284864 0.417852
v -1.724855 4.312214 0.371439
v -1.925181 4.571989 0.577741
v -1.943900 4.542954 0.614468
v -1.820986 4.254462 0.285676
v -2.011127 4.571839 0.476897
v -1.841138 4.209319 0.309898
v -2.049064 4.538588 0.487559
v -1.841287 4.181495 0.357117
v -2.068126 4.509019 0.524960
v -1.821375 4.182126 0.408438
v -2.060632 4.495054 0.574027
v -1.784949 4.205415 0.441078
v -2.027795 4.496237 0.612618
v -1.748467 4.244726 0.444626
v -1.983341 4.514651 0.628117
v -1.081922 3.725424 0.021627
v -1.123497 3.704603 -0.031348
v -2.127631 4.784701 0.760449
v -2.091561 4.810958 0.748271
v -2.351130 5.304682 0.996649
v -2.345256 5.334974 0.943522
v -2.199246 4.765513 0.658485
v -2.194212 4.758099 0.706563
v -2.181493 4.793052 0.623652
v -2.167023 4.765590 0.744930
v -2.111432 4.851819 0.635857
v -2.148674 4.828735 0.617214
v -2.074362 4.837636 0.714525
v -2.082675 4.854430 0.672244
v -2.339146 5.323271 0.973134
v -2.451276 5.611131 1.105201
v -2.463379 5.600090 1.126547
v -2.473970 5.857344 1.160125
v -2.501081 5.844249 1.184046
v -2.521380 5.844813 1.180610
v -2.538485 5.858937 1.149348
v -2.529713 5.866939 1.133878
v -2.483023 5.849084 1.176093
v -2.535607 5.850542 1.167099
v -2.512234 5.871866 1.125875
v -1.175534 3.663354 -0.050343
v -1.200316 3.612233 0.146650
v -1.144374 3.650329 0.166335
v -1.237607 3.588716 0.093485
v -1.090886 3.689509 0.145140
v -1.066748 3.718533 0.089211
v -1.219147 3.618268 -0.027737
v -1.242777 3.589853 0.027017
v -0.171564 3.066896 -0.035965
v -0.236876 3.022033 -0.087081
v -0.418654 2.949047 0.066861
v -0.395970 2.976793 0.154079
v -0.246721 3.067178 0.201607
v -0.177008 3.095169 0.142570
v -0.148780 3.094746 0.051531
v -0.330456 3.021801 0.205387
v -0.320288 2.977006 -0.082313
v -0.389705 2.949134 -0.023526
v -1.830422 3.970865 -0.245144
v -2.057316 3.984084 -0.460838
v -2.092068 3.990425 -0.432764
v -1.862695 3.975129 -0.208381
v -1.891536 3.906468 -0.152320
v -2.140845 3.929009 -0.398695
v -2.138831 3.885233 -0.408589
v -1.878717 3.859286 -0.155350
v -1.817329 3.822546 -0.215699
v -2.076753 3.846009 -0.455478
v -2.037142 3.864856 -0.473714
v -1.789462 3.847638 -0.248905
v -1.801168 3.939403 -0.269194
v -2.029384 3.952565 -0.479966
v -1.850278 3.827302 -0.179423
v -2.115143 3.854005 -0.430944
v -1.783239 3.892635 -0.269504
v -2.018673 3.906398 -0.483261
v -2.122953 3.969253 -0.407943
v -1.885426 3.950653 -0.172548
v -2.728690 4.203072 -1.142099
v -2.880652 4.440837 -1.282646
v -2.884815 4.451355 -1.266328
v -2.736304 4.218736 -1.121984
v -2.795118 4.157497 -1.131426
v -2.928485 4.405884 -1.273339
v -2.915404 4.404651 -1.288225
v -2.776198 4.153603 -1.149725
v -2.543610 3.988183 -0.830438
v -2.528052 3.966579 -0.847666
v -2.734984 4.181575 -1.156053
v -2.886392 4.426039 -1.293587
v -2.754908 4.222167 -1.103082
v -2.897677 4.452994 -1.251093
v -2.913964 4.445169 -1.243161
v -2.777263 4.212273 -1.093168
v -2.927425 4.431154 -1.245322
v -2.795259 4.193536 -1.096057
v -2.753189 4.162622 -1.158976
v -2.899434 4.412460 -1.295681
v -2.933092 4.416120 -1.256779
v -2.802350 4.172769 -1.110699
v -2.504220 3.961645 -0.868048
v -2.480481 3.975474 -0.884518
v -2.471368 4.035542 -0.885031
v -2.487845 4.057022 -0.868451
v -2.532704 4.046852 -0.829712
v -2.545170 4.018811 -0.823268
v -2.467657 4.004320 -0.891148
v -2.511031 4.061469 -0.847280
v -2.364954 4.179042 -0.856229
v -2.424443 4.348536 -0.981962
v -2.427317 4.353411 -0.971158
v -2.369506 4.186137 -0.842226
v -2.412902 4.174586 -0.869380
v -2.459310 4.337743 -0.986948
v -2.449903 4.336067 -0.994528
v -2.400008 4.169712 -0.878163
v -2.370399 4.172274 -0.869916
v -2.428763 4.342686 -0.991308
v -2.382481 4.190586 -0.833187
v -2.436579 4.355229 -0.963288
v -2.448417 4.353292 -0.961549
v -2.398679 4.190845 -0.832800
v -2.458278 4.348464 -0.966416
v -2.411956 4.187312 -0.841108
v -2.383831 4.168699 -0.878320
v -2.438317 4.338006 -0.996023
v -2.462523 4.342523 -0.976093
v -2.417485 4.181269 -0.855090
v -2.390169 3.963591 -0.715001
v -2.383584 3.950582 -0.727918
v -2.385070 3.978484 -0.703755
v -2.370328 3.989923 -0.698973
v -2.351643 3.993485 -0.702505
v -2.336040 3.987476 -0.712498
v -2.329092 3.974146 -0.724919
v -2.333452 3.958123 -0.735473
v -2.348616 3.946356 -0.740391
v -2.367939 3.944001 -0.737518
v -1.462852 3.974116 0.186105
v -1.430578 3.969853 0.149342
v -1.478873 3.858274 0.239136
v -1.491692 3.905455 0.242165
v -1.450433 3.826290 0.215063
v -1.485582 3.949641 0.221938
v -1.401325 3.938389 0.125292
v -1.383395 3.891623 0.124982
v -1.417486 3.821533 0.178787
v -1.389619 3.846626 0.145581
v 0.265169 4.832898 -0.258460
v 0.317977 5.181295 -0.367248
v 0.300850 5.182299 -0.382907
v 0.243830 4.837257 -0.280698
v 0.324061 4.795078 -0.322793
v 0.360423 5.150981 -0.414164
v 0.365385 5.156369 -0.392121
v 0.329978 4.798822 -0.292464
v -0.467131 3.954040 -0.053308
v 0.042283 4.394687 -0.222437
v 0.060367 4.381186 -0.192995
v -0.443726 3.932714 -0.011072
v 0.293394 4.821811 -0.252671
v 0.339297 5.174764 -0.363867
v 0.237536 4.832626 -0.310990
v 0.295231 5.177048 -0.405010
v 0.303344 5.167761 -0.424525
v 0.248921 4.821302 -0.337346
v 0.321707 5.158106 -0.434159
v 0.273469 4.808396 -0.350225
v 0.318227 4.808757 -0.265701
v 0.357087 5.165411 -0.373201
v 0.343541 5.151650 -0.430358
v 0.302255 4.798602 -0.344948
v -0.441700 3.932455 0.043001
v 0.065711 4.384230 -0.156371
v 0.056286 4.403158 -0.125433
v -0.462159 3.954215 0.089868
v -0.516448 4.041973 0.085995
v 0.013872 4.460182 -0.126553
v -0.003079 4.474144 -0.156501
v -0.534977 4.066412 0.041414
v -0.529381 4.032341 -0.052576
v -0.001297 4.449229 -0.222270
v 0.018374 4.420408 -0.233584
v -0.501149 3.990978 -0.068814
v -0.491301 3.996913 0.106630
v 0.036050 4.432805 -0.113794
v -0.540924 4.062156 -0.010864
v -0.009128 4.470011 -0.192868
v -0.161032 4.561125 -0.063047
v -0.131676 4.815565 -0.076946
v -0.141644 4.814219 -0.087067
v -0.173950 4.560301 -0.077120
v -0.119647 4.574393 -0.102051
v -0.100518 4.815032 -0.106712
v -0.098949 4.816211 -0.092580
v -0.117168 4.572507 -0.083186
v -0.142707 4.564052 -0.059141
v -0.118044 4.816485 -0.074662
v -0.176320 4.561630 -0.096144
v -0.143618 4.812970 -0.101252
v -0.136852 4.812356 -0.113698
v -0.167288 4.564853 -0.112499
v -0.124175 4.812607 -0.119754
v -0.150675 4.569165 -0.120126
v -0.125900 4.568414 -0.066859
v -0.105762 4.816728 -0.080529
v -0.110266 4.813629 -0.117183
v -0.132517 4.572997 -0.116255
v -0.124382 4.269138 -0.134420
v -0.109832 4.263129 -0.117943
v -0.145627 4.275700 -0.138635
v -0.165223 4.280974 -0.128837
v -0.175591 4.282922 -0.108813
v -0.173029 4.280141 -0.086341
v -0.158888 4.273441 -0.069743
v -0.137921 4.265205 -0.065007
v -0.117766 4.259781 -0.075087
v -0.107252 4.259541 -0.095563
vt 0.449980 1.654020
vt 0.476260 1.663072
vt 0.467286 0.033063
vt 0.436749 0.718842
vt 0.238975 2.170019
vt 0.243940 2.115462
vt 0.392350 0.022054
vt 0.383359 0.715688
vt 0.493108 1.462134
vt 0.488589 0.716783
vt 0.317572 0.022054
vt 0.328609 0.697053
vt 0.541130 0.051657
vt 0.615115 0.072980
vt 0.116412 0.657901
vt 0.167572 0.642331
vt 0.031128 0.087674
vt 0.690692 0.092091
vt 0.528276 1.474280
vt 0.274168 0.667907
vt 0.540223 0.712599
vt 0.244482 0.032218
vt 0.102855 0.069778
vt 0.766615 0.105730
vt 0.306352 2.165922
vt 0.341987 2.111425
vt 0.276850 2.015894
vt 0.310135 2.110231
vt 0.647774 0.697262
vt 0.173190 0.049654
vt 0.278532 2.165749
vt 0.372760 2.178422
vt 0.246714 1.454665
vt 0.280800 1.454467
vt 0.265138 2.166584
vt 0.285685 1.223904
vt 0.296442 2.013039
vt 0.593296 0.704849
vt 0.320030 2.166651
vt 0.245777 1.229654
vt 0.333406 2.168171
vt 0.220511 0.643989
vt 0.573523 1.272924
vt 0.448744 1.225320
vt 0.339224 1.633100
vt 0.456707 1.453674
vt 0.389792 2.126361
vt 0.277400 2.112708
vt 0.252046 2.167975
vt 0.260763 2.114019
vt 1.800376 1.283756
vt 0.326090 2.110031
vt 0.226783 2.117266
vt 0.292367 2.165501
vt 0.212147 1.453794
vt 0.161864 1.241744
vt 0.310537 1.638486
vt 0.254151 1.642402
vt 0.176009 1.452669
vt 0.397133 1.630654
vt 0.365262 1.216958
vt 0.424021 1.642221
vt 0.359912 2.174130
vt 0.357534 2.115611
vt 0.384252 1.446114
vt 0.368609 1.627802
vt 0.226331 1.643398
vt 0.349140 1.450825
vt 0.204490 1.236419
vt 0.314917 1.453037
vt 0.420243 1.446199
vt 0.282251 1.641528
vt 0.325078 1.219213
vt 0.293944 2.111339
vt 0.406756 1.216342
vt 0.531449 1.261585
vt 0.198573 1.644778
vt 0.373363 2.120768
vt 0.489710 1.244959
vt 0.346664 2.170681
vt 1.250381 1.534310
vt 1.228945 1.532557
vt 1.243348 1.630353
vt 1.239816 1.533809
vt 1.309063 1.400015
vt 1.280523 1.533638
vt 1.270534 1.533390
vt 1.194654 1.032869
vt 1.158529 0.881564
vt 1.275038 1.029197
vt 1.307001 0.868458
vt 1.236102 1.629438
vt 1.296506 1.397828
vt 1.233451 1.400318
vt 1.245835 1.397734
vt 1.271284 1.394994
vt 0.410727 2.028694
vt 0.216704 2.018309
vt 1.283968 1.396099
vt 1.290450 1.534788
vt 1.258425 1.395454
vt 0.373334 2.015828
vt 0.236864 2.018639
vt 0.354546 2.011159
vt 0.256945 2.017818
vt 1.789184 1.287273
vt 1.778178 1.283474
vt 1.771675 1.274228
vt 1.771675 1.263120
vt 1.778178 1.253874
vt 1.789184 1.250076
vt 1.800376 1.253592
vt 1.807193 1.262942
vt 1.807193 1.274407
vt 0.335203 2.009155
vt 0.315776 2.010347
vt 0.391825 2.022086
vt 1.220985 1.161303
vt 1.329053 1.163769
vt 1.137088 0.882989
vt 1.135304 1.040584
vt 1.260518 1.534062
vt 1.300549 1.535220
vt 1.314654 1.033201
vt 1.348512 0.874590
vt 1.327679 0.871245
vt 1.334371 1.033684
vt 1.231358 0.483832
vt 1.294973 1.031808
vt 1.204303 0.474295
vt 1.150170 1.169883
vt 1.222201 0.868236
vt 1.214762 1.031090
vt 1.201149 0.873293
vt 1.286386 0.864858
vt 1.265197 0.862738
vt 1.234859 1.030181
vt 1.154901 1.037609
vt 1.174664 1.034807
vt 1.255076 1.028627
vt 1.243582 0.864784
vt 1.179964 0.877960
vt 1.168046 1.168116
vt 1.274986 1.151388
vt 1.293352 1.156005
vt 1.221058 1.402418
vt 1.256583 1.151381
vt 1.311259 1.160662
vt 1.196258 1.403994
vt 1.183924 1.404330
vt 1.280232 1.627512
vt 1.238506 1.156406
vt 1.208663 1.403554
vt 1.218321 1.532158
vt 1.229035 1.628273
vt 1.287740 1.628176
vt 1.264974 1.628899
vt 1.208118 1.532610
vt 1.185826 1.166321
vt 1.203517 1.164514
vt 0.402812 -0.421484
vt 1.250599 1.630560
vt 1.272437 1.627902
vt 0.272329 -0.429279
vt 0.262710 -0.294760
vt 1.198115 1.534150
vt 1.257783 1.629934
vt 0.256609 -0.352837
vt 0.915715 -0.300803
vt 1.336828 0.495151
vt 1.391121 0.486958
vt 0.789462 -0.296664
vt 0.402254 -0.403541
vt 1.258022 0.490307
vt 0.398457 -0.350876
vt 1.221825 1.627604
vt 0.267767 -0.410103
vt 1.363883 0.491999
vt 1.214344 1.627994
vt 0.387283 -0.297572
vt 0.401064 -0.368356
vt 1.250371 0.032324
vt 1.214263 0.022054
vt 0.262691 -0.391178
vt 1.284445 0.049162
vt 1.176790 0.465559
vt 1.108025 0.050120
vt 0.268477 -0.275813
vt 1.176965 0.022054
vt 1.429812 0.072862
vt 0.256932 -0.333471
vt 1.354927 0.077880
vt 0.400139 -0.244558
vt 1.123371 0.475345
vt 1.310314 0.494753
vt 0.270946 -0.256391
vt 1.284202 0.493083
vt 1.318544 0.066336
vt 0.388103 -0.315775
vt 1.392639 0.079965
vt 1.149781 0.466700
vt 1.140881 0.032543
vt 0.391771 -0.279521
vt 0.258306 -0.313886
vt 0.258799 -0.372106
vt 0.401789 -0.385996
vt 0.396569 -0.262012
vt 1.076055 0.069063
vt 0.393622 -0.333471
vt 0.270519 -0.236722
vt 0.625479 -0.329276
vt 0.629750 -0.353764
vt 0.789334 -0.326205
vt 0.913320 -0.340078
vt 0.792975 -0.365741
vt 0.790838 -0.286380
vt 0.914076 -0.308295
vt 0.626899 -0.304259
vt 0.630351 -0.292170
vt 0.627214 -0.341612
vt 0.917566 -0.284986
vt 0.911845 -0.323730
vt 0.912052 -0.331972
vt 0.788538 -0.316382
vt 0.790470 -0.336040
vt 0.915253 -0.347776
vt 0.635357 -0.377700
vt 0.788530 -0.306579
vt 0.917013 -0.293110
vt 0.793655 -0.376292
vt 0.918984 -0.363104
vt 0.917289 -0.355241
vt 0.792273 -0.355748
vt 0.912630 -0.315829
vt 0.792082 -0.275638
vt 0.791494 -0.345918
vt 0.625052 -0.316759
vt 0.633457 -0.280044
vt 0.632606 -0.365703
vt 0.637271 -0.389942
vt 1.817861 0.976322
vt 1.786052 0.972462
vt 1.798756 0.973217
vt 1.814023 1.059329
vt 1.811335 0.975889
vt 1.818793 1.058928
vt 1.795178 1.058409
vt 1.800056 1.058647
vt 0.635295 -0.267653
vt 1.792448 0.972410
vt 1.816139 0.871118
vt 1.837832 0.877125
vt 1.845342 0.878264
vt 1.830622 0.875059
vt 0.038620 -0.394489
vt 1.771675 1.463418
vt 1.774363 1.459597
vt 0.035502 -0.375033
vt 0.042897 -0.413661
vt 1.791769 1.368157
vt 1.784147 1.370787
vt 1.779296 0.879248
vt 1.771675 0.880498
vt 1.778911 1.458028
vt 1.823467 0.872852
vt 1.774363 1.471829
vt 1.778911 1.473399
vt 1.783535 1.471945
vt 1.771675 1.468008
vt 1.786553 0.876632
vt 1.793597 0.873418
vt 1.824408 0.975555
vt 1.786352 1.463344
vt 1.786352 1.468082
vt 1.783535 1.459480
vt 1.804763 1.059038
vt 1.843215 0.971487
vt 1.837833 1.057225
vt 1.833004 1.057098
vt 1.836887 0.972427
vt 1.828273 1.057502
vt 1.830702 0.973987
vt 1.805021 0.974602
vt 1.809362 1.059329
vt 1.790315 1.058605
vt 1.779684 0.973449
vt 1.823564 1.058218
vt 1.554098 1.368319
vt 1.585472 1.523998
vt 1.790983 1.399990
vt 1.795569 1.406279
vt 1.800962 0.871053
vt 0.033903 -0.355306
vt 1.771676 1.353937
vt 1.776397 1.347462
vt 1.771675 1.361877
vt 1.784148 1.345027
vt 1.790982 1.420282
vt 1.776396 1.368352
vt 1.795569 1.413992
vt 1.783454 1.422647
vt 0.045247 -0.236722
vt 0.046386 -0.256384
vt 1.808615 0.870396
vt 1.796273 1.361754
vt 1.791769 1.347658
vt 0.035784 -0.315299
vt 0.039767 -0.295581
vt 0.044802 -0.276057
vt 1.796273 1.354061
vt 0.034512 -0.335471
vt 0.046814 -0.432865
vt 1.776050 1.420092
vt 1.783454 1.397624
vt 1.597270 1.365356
vt 1.776050 1.400179
vt 1.611508 1.367626
vt 1.597012 1.525069
vt 1.771675 1.413872
vt 1.771675 1.406399
vt 1.582707 1.364959
vt 1.568306 1.366475
vt 1.537410 1.519605
vt 1.545793 1.635306
vt 1.625534 1.370562
vt 1.608415 1.527162
vt 1.573827 1.523975
vt 1.537367 1.633574
vt 1.562074 1.523443
vt 1.549886 1.521989
vt 1.589272 1.634859
vt 1.620074 1.528436
vt 1.639546 1.373991
vt 1.598005 1.636207
vt 1.513287 1.517762
vt 1.567460 0.961553
vt 1.568583 0.801988
vt 1.525796 1.369717
vt 1.501554 1.518602
vt 1.503509 0.961913
vt 1.524608 0.961229
vt 1.520789 1.630124
vt 1.571296 1.635334
vt 1.526503 0.800581
vt 1.525145 1.518182
vt 1.589247 0.800130
vt 1.562779 1.636009
vt 1.547718 0.801888
vt 1.545944 0.961369
vt 1.529179 1.631566
vt 1.641583 1.101986
vt 1.673265 0.801305
vt 1.631564 0.964627
vt 1.539908 1.369580
vt 1.482337 0.962688
vt 1.588904 0.962459
vt 1.672639 0.971337
vt 1.523130 1.104007
vt 1.693371 0.972925
vt 1.505119 0.798443
vt 1.660790 1.108389
vt 1.652229 0.968701
vt 1.511747 1.369226
vt 1.652517 0.797436
vt 1.610488 0.962543
vt 1.483655 1.104262
vt 1.631496 0.796289
vt 1.562384 0.445798
vt 1.562038 1.101884
vt 1.693802 0.805439
vt 1.610250 0.798432
vt 1.714567 0.809687
vt 1.542649 1.103756
vt 1.581618 1.098109
vt 1.601787 1.094173
vt 1.621920 1.095536
vt 1.503440 1.104210
vt 1.587893 0.447486
vt 1.680036 1.113038
vt 1.497788 1.368393
vt 1.430719 0.070650
vt 1.683155 0.465757
vt 1.735465 0.462505
vt 1.630440 0.045848
vt 1.596748 0.030680
vt 1.580117 1.634728
vt 1.635768 0.457359
vt 0.551097 -0.086541
vt 0.556316 -0.210525
vt 1.511336 0.447384
vt 1.525435 0.023203
vt 1.708780 0.466279
vt 1.612269 0.452375
vt 1.460106 0.052033
vt 1.554292 1.636207
vt 1.699467 0.072648
vt 0.682368 -0.235815
vt 1.536260 0.442651
vt 1.511995 1.629897
vt 1.658995 0.462861
vt 1.486924 0.457010
vt 1.561500 0.022054
vt 1.734995 0.074615
vt 1.490841 0.034429
vt 1.770768 0.067652
vt 1.664084 0.061728
vt 0.681941 -0.216146
vt 0.552747 -0.227979
vt 0.690196 -0.081360
vt 0.551823 -0.104181
vt 0.684409 -0.196725
vt 0.694581 -0.158651
vt 0.690176 -0.177777
vt 0.696278 -0.119700
vt 0.554429 -0.121660
vt 0.561115 -0.193016
vt 0.564784 -0.156762
vt 0.559265 -0.139065
vt 0.694088 -0.100432
vt 0.695955 -0.139066
vt 0.319426 -0.192492
vt 0.038812 -0.164241
vt 0.164356 -0.165956
vt 0.327831 -0.155776
vt 0.164348 -0.156154
vt 0.041043 -0.148805
vt 0.035599 -0.117296
vt 1.792449 1.162250
vt 0.565603 -0.174965
vt 0.037634 -0.124760
vt 0.160613 -0.116789
vt 0.680559 -0.043257
vt 0.320278 -0.106834
vt 0.159231 -0.096245
vt 0.161392 -0.126618
vt 0.325669 -0.130925
vt 0.323134 -0.118773
vt 0.160805 -0.196897
vt 0.163552 -0.146331
vt 0.040257 -0.156706
vt 0.315612 -0.082595
vt 0.033903 -0.109432
vt 0.040836 -0.140564
vt 0.159911 -0.106795
vt 0.162416 -0.136496
vt 1.800060 1.248486
vt 0.317589 -0.204883
vt 0.162048 -0.186155
vt 0.037173 -0.171732
vt 0.317527 -0.094837
vt 0.322532 -0.180366
vt 0.163424 -0.175871
vt 0.550632 -0.068995
vt 0.039568 -0.132458
vt 0.035322 -0.187549
vt 0.550074 -0.051053
vt 0.035874 -0.179425
vt 0.325984 -0.168276
vt 0.685120 -0.062434
vt 0.327404 -0.143260
vt 1.781730 1.442443
vt 1.798758 1.163057
vt 1.811337 1.165728
vt 1.773128 1.445260
vt 1.830703 1.163826
vt 1.786054 1.162303
vt 1.837836 1.247065
vt 1.773245 1.454433
vt 1.787046 1.449885
vt 1.804766 1.248878
vt 1.823567 1.248057
vt 1.814026 1.249169
vt 1.818796 1.248768
vt 1.790319 1.248445
vt 1.817863 1.166161
vt 1.805022 1.164442
vt 1.781656 1.457120
vt 1.843216 1.161327
vt 1.795182 1.248249
vt 1.833007 1.246938
vt 1.836889 1.162266
vt 1.828277 1.247342
vt 1.809365 1.249169
vt 1.779685 1.163290
vt 1.824410 1.165394
vt 1.776992 1.442443
vt 1.785593 1.445261
vt 1.785477 1.454433
vt 1.777066 1.457120
vt 1.771675 1.449885
vn -0.947900 -0.318500 -0.007000
vn -0.790500 -0.209300 0.575500
vn 0.325000 0.172000 -0.929900
vn 0.279500 0.122000 -0.952400
vn 0.753900 0.306400 0.581100
vn 0.193200 0.326700 -0.925200
vn 0.818100 0.087900 0.568300
vn 0.328700 0.041600 0.943500
vn -0.977500 -0.210800 0.004300
vn -0.336900 0.079100 -0.938200
vn 0.972200 0.234200 -0.003500
vn 0.993400 0.113900 -0.015600
vn -0.280900 0.065700 -0.957500
vn -0.794500 -0.047900 -0.605300
vn -0.807100 -0.065400 0.586700
vn -0.324200 -0.041900 0.945100
vn -0.797100 -0.116700 0.592500
vn -0.992800 -0.119300 -0.005500
vn -0.794300 -0.134000 0.592600
vn 0.809500 0.076100 0.582200
vn -0.827500 0.017600 -0.561200
vn 0.810900 0.175900 0.558100
vn -0.282100 -0.041300 0.958500
vn -0.998900 -0.040300 0.023700
vn -0.399000 0.186100 -0.897900
vn -0.745100 -0.298400 0.596400
vn -0.254800 -0.183400 0.949500
vn -0.366400 0.099000 -0.925200
vn 0.343800 0.073300 0.936200
vn 0.793200 0.233700 -0.562300
vn -0.300000 -0.100600 0.948600
vn -0.768300 -0.251100 -0.588700
vn 0.712000 0.402300 0.575500
vn 0.238300 0.238500 0.941400
vn -0.371800 0.913700 0.164000
vn 0.275200 0.198700 0.940600
vn -0.266000 -0.173600 0.948200
vn 0.298800 0.020100 0.954100
vn 0.725400 0.356700 -0.588700
vn 0.749400 0.323000 0.577900
vn 0.311700 0.061400 0.948200
vn 0.788300 0.130700 -0.601200
vn -0.288700 -0.012900 0.957300
vn 0.808700 0.109700 -0.577900
vn -0.759700 -0.286900 -0.583600
vn 0.938600 0.345000 0.004600
vn -0.942700 -0.333400 -0.015400
vn 0.285000 0.137500 0.948600
vn 0.155700 0.411800 -0.897900
vn 0.741700 0.306700 0.596400
vn -0.310200 -0.063200 -0.948600
vn 0.266200 0.171400 -0.948600
vn 0.310400 0.046600 0.949500
vn -0.753700 -0.307100 0.581100
vn -0.957500 -0.288300 -0.006400
vn 0.907600 0.419600 -0.015400
vn -0.288300 -0.123900 -0.949500
vn 0.317900 0.109200 -0.941800
vn -0.804900 -0.132500 -0.578400
vn -0.337200 0.004300 0.941400
vn 0.886800 0.462200 -0.006400
vn 0.900900 0.434000 -0.007000
vn -0.791000 -0.051100 0.609700
vn -0.303200 0.051700 -0.951500
vn 0.744100 0.325200 -0.583600
vn -0.786400 -0.180600 -0.590700
vn -0.967400 -0.252600 0.017900
vn 0.292800 0.112600 -0.949500
vn 0.639600 0.532500 -0.554400
vn -0.286900 -0.053800 -0.956400
vn -0.313900 0.024000 0.949200
vn 0.778300 0.263800 -0.569700
vn 0.868900 0.494700 0.017900
vn 0.746800 0.337300 0.573100
vn -0.817300 -0.006000 -0.576200
vn 0.994000 0.109200 -0.008800
vn -0.829700 -0.065500 -0.554400
vn 0.320700 0.088000 -0.943100
vn 0.668700 0.467200 -0.578400
vn -0.998400 -0.047500 0.029800
vn -0.521400 0.445400 -0.727800
vn -0.198100 0.082300 0.976700
vn -0.434500 0.205100 0.877000
vn -0.040300 0.156500 -0.986900
vn 0.459500 -0.183900 -0.869000
vn 0.549100 -0.204400 -0.810300
vn 0.588900 -0.113900 -0.800100
vn 0.254300 -0.080600 -0.963800
vn -0.452800 0.503600 0.735800
vn -0.815400 0.470800 0.336900
vn -0.510500 0.263700 0.818400
vn 0.258200 -0.338100 0.905000
vn 0.072400 -0.147100 0.986500
vn -0.201900 0.328800 -0.922600
vn -0.582500 0.627400 -0.516800
vn -0.765300 0.477600 0.431500
vn -0.572700 0.470900 0.671100
vn -0.725200 0.681500 0.098500
vn -0.800500 0.569700 -0.186000
vn 0.613400 -0.619900 0.489200
vn 0.552700 -0.433800 0.711600
vn 0.868700 -0.377700 -0.320600
vn 0.022200 -0.010000 0.999700
vn 0.051000 0.033300 0.998100
vn 0.930700 -0.191900 -0.311500
vn -0.770200 -0.280000 0.573100
vn 0.557400 -0.267000 0.786100
vn 0.872200 -0.402000 0.278500
vn 0.939700 -0.188000 0.285800
vn 0.610900 -0.103900 0.784900
vn -0.839700 0.431100 0.330400
vn -0.512500 0.257400 0.819200
vn -0.530100 0.168400 0.831100
vn -0.907000 0.250800 0.338300
vn -0.919400 0.252200 -0.301900
vn -0.928800 0.118200 0.351300
vn -0.963500 0.102600 -0.247300
vn 0.284600 -0.407000 0.867900
vn -0.529900 0.752700 -0.390700
vn -0.629800 0.065300 -0.774000
vn 0.573100 -0.018400 -0.819300
vn 0.749600 -0.654500 -0.098400
vn -0.609900 0.761400 0.219800
vn -0.516000 0.312300 -0.797600
vn -0.550500 0.165700 -0.818200
vn -0.814000 0.512200 -0.273900
vn 0.029100 0.023500 -0.999300
vn 0.577500 0.028300 0.815900
vn -0.496000 0.368100 -0.786500
vn 0.950300 -0.031100 -0.309700
vn -0.004600 0.075300 0.997100
vn 0.611300 -0.448800 -0.651800
vn 0.786300 -0.447800 -0.425700
vn 0.822500 -0.541100 0.175200
vn 0.843900 -0.418600 -0.335400
vn 0.844600 -0.462700 0.269300
vn 0.527300 -0.324300 0.785300
vn 0.018600 0.060000 -0.998000
vn 0.020200 0.091400 -0.995600
vn -0.000300 -0.041500 0.999100
vn -0.844000 0.453200 -0.286800
vn 0.533000 -0.209900 -0.819700
vn -0.036400 0.018800 -0.999200
vn 0.495600 -0.477600 -0.725500
vn 0.170400 -0.040500 -0.984500
vn -0.112600 0.061800 0.991700
vn 0.651300 -0.730500 -0.205400
vn -0.225400 0.441900 -0.868300
vn 0.947800 -0.013200 0.318500
vn -0.569800 0.108600 0.814600
vn 0.170800 -0.006700 -0.985300
vn 0.576100 -0.710400 0.404300
vn 0.622700 -0.770900 -0.134100
vn 0.497400 -0.505000 -0.705400
vn -0.500800 0.789600 -0.354600
vn -0.575100 0.796200 0.187700
vn 0.171900 -0.315200 0.933300
vn -0.227700 0.507600 -0.831000
vn -0.472300 0.585300 0.659100
vn -0.207200 0.188500 0.960000
vn -0.717100 0.460500 0.523100
vn 0.715100 0.092500 -0.692900
vn 0.126700 0.978200 -0.164400
vn -0.350200 -0.671400 0.653100
vn 0.861400 -0.392400 -0.322600
vn -0.353500 0.903600 0.242000
vn 0.502700 -0.702000 0.504500
vn -0.187800 -0.396300 0.898700
vn -0.666000 -0.133300 0.733900
vn -0.110900 -0.980200 0.163800
vn 0.631300 -0.511200 -0.583200
vn 0.725900 0.101900 -0.680300
vn -0.483500 0.867700 0.115000
vn 0.717300 0.110900 -0.687900
vn 0.908900 -0.275800 -0.312700
vn -0.303900 0.915500 0.263600
vn 0.418100 0.649500 -0.635200
vn 0.676500 -0.489600 -0.550100
vn 0.073900 0.978300 -0.193700
vn 0.095900 -0.934700 0.342400
vn -0.666900 -0.031000 0.744500
vn 0.392800 -0.896300 -0.206000
vn 0.315500 -0.913300 -0.257500
vn 0.507800 -0.858500 -0.070800
vn -0.760100 0.609200 -0.226300
vn -0.441300 -0.690500 0.573100
vn 0.487500 0.676600 -0.551900
vn 0.716500 0.079600 -0.693000
vn -0.826800 0.377700 0.416900
vn -0.882300 0.355700 0.308300
vn -0.367300 0.651500 -0.663800
vn -0.700400 -0.088100 0.708300
vn 0.284100 -0.761800 0.582200
vn -0.636300 0.494100 0.592400
vn -0.614300 0.518600 0.594700
vn 0.792100 -0.554900 0.254300
vn -0.504900 -0.675400 0.537400
vn -0.683800 0.723700 -0.093500
vn 0.291500 0.536900 -0.791700
vn -0.676900 -0.115700 0.726900
vn -0.026100 -0.976600 0.213600
vn 0.521100 0.667000 -0.532500
vn -0.216500 -0.546700 0.808800
vn 0.658000 0.124700 -0.742600
vn -0.252900 0.787100 -0.562600
vn -0.642200 -0.113400 0.758100
vn 0.366500 -0.596300 0.714200
vn 0.691000 -0.704400 0.162000
vn 0.164300 0.474500 -0.864800
vn 0.752500 -0.473400 -0.457900
vn 0.993800 -0.110500 0.012700
vn 0.774900 -0.489600 0.399800
vn 0.795400 -0.434500 0.422600
vn 0.989700 -0.120300 -0.077500
vn 0.312200 0.537300 -0.783500
vn -0.982000 0.165900 0.089800
vn -0.801200 -0.194400 0.566000
vn -0.990900 0.081300 0.107500
vn 0.837400 0.236200 -0.492900
vn 0.307700 -0.603100 0.736000
vn -0.278000 -0.495300 0.823000
vn -0.792600 0.461600 -0.398400
vn -0.793400 0.510700 -0.331100
vn 0.792500 0.258200 -0.552500
vn -0.967500 0.191100 0.165300
vn 0.280600 0.531500 -0.799200
vn -0.315400 0.554800 -0.769800
vn 0.309700 -0.566900 0.763400
vn -0.050400 0.942900 -0.329300
vn -0.771000 -0.192300 0.607200
vn -0.320600 0.600200 -0.732800
vn -0.307700 0.647500 -0.697200
vn 0.813800 0.210900 -0.541600
vn -0.299000 -0.477500 0.826200
vn 0.979000 -0.188200 -0.078600
vn 0.189000 0.872400 0.450900
vn 0.780000 -0.392700 0.487200
vn 0.326700 0.498000 -0.803300
vn -0.817300 0.394700 -0.419800
vn -0.756300 -0.265000 0.598200
vn 0.718500 0.051500 -0.693600
vn 0.610900 -0.534500 -0.584000
vn -0.713800 -0.122200 0.689700
vn 0.555200 0.631200 -0.541700
vn -0.621700 0.509700 0.594700
vn 0.288600 -0.918800 -0.269400
vn -0.283700 0.921700 0.264600
vn 0.167800 0.970800 -0.171300
vn -0.244700 -0.488300 0.837700
vn 0.321100 -0.528800 0.785700
vn 0.115900 -0.269600 0.956000
vn 0.772700 0.616800 0.149700
vn 0.870300 0.424800 0.249200
vn 0.694200 0.245500 0.676600
vn -0.152900 -0.571600 0.806200
vn 0.102100 0.582700 -0.806200
vn 0.258600 0.610400 -0.748700
vn -0.712600 -0.615000 0.337500
vn 0.328500 -0.217400 0.919100
vn -0.794200 -0.530300 0.296700
vn -0.679700 0.066200 -0.730500
vn 0.699200 0.053600 0.712900
vn -0.373500 0.220200 -0.901100
vn 0.703500 0.639400 -0.310300
vn 0.153400 -0.355200 0.922100
vn -0.717800 0.133600 -0.683300
vn -0.697100 0.094500 -0.710700
vn -0.465900 -0.335700 0.818700
vn 0.537000 0.734600 -0.414700
vn -0.282700 0.349100 -0.893400
vn -0.713900 -0.230400 -0.661200
vn 0.874500 0.328200 -0.357200
vn 0.872000 0.191700 -0.450400
vn -0.411300 -0.512500 0.753800
vn 0.438500 0.267000 -0.858100
vn -0.137100 -0.980400 0.141800
vn -0.519500 -0.687200 0.507800
vn 0.220400 0.957700 -0.185100
vn 0.543900 0.627600 0.557100
vn -0.939200 -0.246900 -0.238600
vn -0.821700 -0.472800 0.318400
vn -0.879400 -0.268900 0.392800
vn -0.980100 -0.092600 -0.175500
vn 0.382600 0.562700 -0.732800
vn -0.187100 0.404000 -0.895400
vn -0.180900 0.319600 -0.930100
vn 0.429300 0.393900 -0.812700
vn -0.577700 -0.764800 0.285200
vn 0.084700 -0.135800 0.987100
vn 0.916000 0.285400 0.282000
vn 0.957600 0.142700 0.250200
vn -0.722600 -0.048300 -0.689600
vn -0.278300 -0.583000 0.763300
vn -0.188100 0.409900 -0.892500
vn 0.892900 0.339100 0.296300
vn 0.359700 0.599700 -0.714800
vn 0.774100 0.574900 -0.264900
vn 0.987200 0.058000 0.148800
vn -0.382500 -0.551500 0.741300
vn 0.659100 -0.087400 0.747000
vn 0.139000 -0.175500 0.974600
vn -0.882300 -0.418900 -0.214700
vn -0.579400 -0.710200 0.399900
vn -0.793800 -0.586200 -0.162100
vn -0.915700 -0.299900 -0.267400
vn 0.665300 -0.050000 0.744900
vn 0.662000 -0.019000 0.749300
vn 0.239500 0.563500 -0.790700
vn 0.519800 0.784700 -0.337800
vn 0.805800 0.518900 -0.285200
vn 0.171600 -0.359600 0.917200
vn 0.258600 -0.330300 0.907800
vn -0.484100 -0.179200 0.856400
vn -0.910500 -0.093900 0.402800
vn -0.139600 0.263600 -0.954500
vn 0.706900 -0.084100 0.702300
vn -0.146300 0.145200 -0.978500
vn -0.295600 -0.566600 0.769100
vn -0.978900 0.045200 -0.199100
vn -0.677100 0.181700 -0.713100
vn 0.305100 0.490300 0.816400
vn 0.441700 0.398600 0.803700
vn -0.661000 -0.682200 -0.312500
vn 0.402100 0.604200 -0.687900
vn -0.602500 -0.778500 0.175600
vn -0.423500 -0.525200 0.738100
vn 0.528800 0.785300 0.322000
vn 0.111200 0.212900 -0.970700
vn 0.608100 0.749600 0.261400
vn -0.494300 -0.336900 -0.801400
vn -0.850300 -0.398200 0.344000
vn 0.341100 0.905900 -0.251000
vn 0.290900 0.917500 -0.271300
vn -0.899000 -0.282000 0.335200
vn 0.200200 -0.545600 -0.813700
vn -0.260700 -0.294000 -0.919600
vn 0.549400 0.804800 -0.224500
vn -0.640300 0.120500 0.758700
vn 0.474500 0.871000 -0.127200
vn -0.700800 0.106300 0.705400
vn -0.698300 0.087900 0.710400
vn 0.700800 0.465200 -0.540900
vn -0.097800 -0.935500 -0.339600
vn -0.075900 0.977800 0.195100
vn -0.699700 0.075000 0.710500
vn -0.073900 -0.031000 0.996800
vn 0.338600 -0.669300 -0.661400
vn -0.129400 0.977400 0.167100
vn -0.546000 -0.693500 -0.469900
vn 0.168300 -0.395500 -0.902900
vn -0.737600 -0.478300 0.476600
vn 0.595800 0.522600 -0.609900
vn 0.496200 -0.672200 -0.549500
vn -0.379900 -0.599200 -0.704700
vn -0.512400 0.663600 0.545000
vn -0.613100 -0.515300 0.598900
vn -0.381300 -0.898900 0.216000
vn -0.146100 0.473800 0.868400
vn 0.659500 -0.111300 -0.743400
vn -0.478400 0.673500 0.563500
vn 0.624000 -0.109300 -0.773700
vn 0.618000 0.498200 -0.608100
vn -0.689900 -0.709300 -0.144600
vn 0.431800 -0.687700 -0.583600
vn 0.027600 -0.976500 -0.213800
vn 0.761200 0.614600 0.207200
vn 0.113600 -0.979500 -0.166200
vn 0.813500 0.383200 -0.437400
vn 0.261300 0.789100 0.555900
vn -0.302600 -0.915400 0.265600
vn -0.659200 -0.494000 0.566900
vn 0.683200 -0.083600 -0.725400
vn -0.275500 0.535300 0.798500
vn 0.379100 0.654400 0.654300
vn -0.499900 -0.862000 0.083700
vn -0.293100 -0.764100 -0.574700
vn 0.680800 0.728500 0.076300
vn 0.871900 0.361600 -0.330100
vn 0.648500 -0.026800 -0.760700
vn -0.794300 -0.560500 -0.234400
vn -0.975400 -0.194900 0.102900
vn 0.797800 0.516400 0.311200
vn 0.961800 0.197800 -0.189300
vn 0.281700 -0.475800 -0.833200
vn 0.757000 -0.187200 -0.626000
vn -0.709500 0.097300 0.698000
vn -0.781200 -0.495100 -0.380300
vn -0.310100 0.496200 0.810900
vn -0.206100 0.870800 -0.446400
vn 0.799000 0.467300 0.378400
vn -0.801500 0.205600 0.561500
vn 0.978300 0.172700 -0.114100
vn 0.052000 0.943400 0.327600
vn -0.296400 0.535500 0.790800
vn 0.648600 -0.129100 -0.750100
vn 0.334400 0.602800 0.724400
vn -0.789100 -0.398400 -0.467600
vn -0.802600 -0.440300 -0.402600
vn -0.406700 0.646900 0.645100
vn -0.321600 -0.605600 -0.727900
vn -0.324600 -0.569400 -0.755300
vn 0.788300 -0.189100 -0.585600
vn 0.320400 0.650000 0.689100
vn -0.264400 0.530000 0.805700
vn -0.780400 0.253000 0.571900
vn 0.260900 -0.493800 -0.829500
vn -0.986600 -0.127200 0.102000
vn -0.993000 -0.117400 0.012000
vn -0.826600 0.230600 0.513400
vn 0.330500 0.557400 0.761600
vn -0.170200 0.969700 0.175100
vn -0.336700 -0.531400 -0.777300
vn -0.275400 -0.920600 0.276800
vn -0.592500 -0.538500 0.599200
vn -0.701500 0.046900 0.711100
vn 0.270600 0.923500 -0.271900
vn 0.227300 -0.487100 -0.843300
vn 0.743100 -0.260000 -0.616600
vn 0.824700 0.400600 0.399300
vn 0.987300 0.088100 -0.132000
vn 0.779300 -0.583400 0.228800
vn 0.300300 -0.524700 -0.796600
vn 0.238200 -0.575600 -0.782200
vn 0.404400 -0.369000 -0.836800
vn -0.771100 -0.038600 -0.635600
vn 0.822700 -0.397600 -0.406300
vn 0.272600 0.211200 0.938700
vn -0.493800 0.804300 0.330500
vn -0.546000 0.627600 0.555000
vn -0.930600 0.319800 -0.178200
vn -0.984800 0.135800 -0.108100
vn 0.603200 0.513700 -0.610100
vn 0.567300 -0.284300 0.772900
vn 0.653400 -0.677300 -0.338200
vn 0.741700 0.118200 0.660200
vn 0.946000 -0.283700 0.157000
vn 0.990200 -0.063100 0.124800
vn -0.173300 -0.193700 -0.965600
vn 0.856900 -0.208600 -0.471400
vn -0.691300 0.071400 -0.719000
vn -0.231000 0.553900 0.799900
vn 0.577300 -0.765000 -0.285600
vn -0.781800 0.451100 0.430400
vn 0.207400 0.269000 0.940500
vn -0.850500 0.273600 0.449100
vn -0.524100 0.347700 -0.777500
vn -0.615800 0.712000 0.337400
vn -0.405100 0.327500 0.853600
vn -0.561900 0.623500 -0.543700
vn 0.637800 -0.266000 0.722900
vn 0.697200 -0.646600 0.309600
vn -0.050600 0.898500 0.436100
vn 0.140300 -0.979500 -0.144800
vn 0.745000 -0.059200 0.664400
vn -0.260100 -0.191200 -0.946400
vn 0.697300 -0.117600 -0.707100
vn -0.314300 0.412000 0.855300
vn -0.146200 0.589100 0.794700
vn 0.511500 -0.683900 -0.520200
vn 0.372700 -0.259300 -0.891000
vn -0.133200 0.041200 -0.990200
vn -0.752400 0.604000 -0.262800
vn -0.642600 0.714900 -0.275600
vn -0.699000 0.061300 -0.712500
vn 0.980100 -0.066100 0.187000
vn -0.171700 -0.166900 -0.970900
vn -0.887400 0.130800 0.442000
vn 0.552400 0.064100 -0.831100
vn 0.697700 -0.018100 0.716200
vn -0.504900 0.038300 0.862300
vn -0.976800 0.123700 -0.175000
vn 0.254700 0.178200 0.950500
vn 0.257200 0.170100 0.951300
vn 0.146800 0.046000 0.988100
vn -0.186900 -0.146400 -0.971400
vn 0.981000 -0.021000 0.193000
vn 0.493000 0.007400 -0.870000
vn -0.458700 0.101600 0.882700
vn -0.580500 0.267400 -0.769100
vn -0.907700 0.054300 0.416100
vn 0.911500 -0.018500 -0.410900
vn 0.914800 -0.079500 -0.395900
vn 0.104600 0.017800 0.994400
vn -0.982700 0.063400 -0.173900
vn -0.675700 0.079200 -0.732900
vn -0.090300 0.010900 -0.995900
vn 0.680200 -0.004600 0.733000
vn 0.523000 -0.051400 -0.850800
vn -0.056900 0.995300 -0.078000
vn 0.926700 0.048400 -0.372700
f 1/1/1 2/2/2 3/3/3
f 1/1/1 3/3/3 4/4/4
f 5/5/5 6/6/6 7/7/7
f 5/5/5 7/7/7 8/8/8
f 9/9/9 10/10/10 11/11/11
f 9/9/9 11/11/11 12/12/12
f 13/13/13 14/14/14 15/15/15
f 13/13/13 15/15/15 16/16/16
f 17/17/17 1/1/1 4/4/4
f 17/17/17 4/4/4 18/18/18
f 19/19/19 9/9/9 12/12/12
f 19/19/19 12/12/12 20/20/20
f 21/21/21 13/13/13 16/16/16
f 21/21/21 16/16/16 22/22/22
f 23/23/23 17/17/17 18/18/18
f 23/23/23 18/18/18 24/24/24
f 2/2/2 19/19/19 20/20/20
f 2/2/2 20/20/20 3/3/3
f 10/10/10 21/21/21 22/22/22
f 10/10/10 22/22/22 11/11/11
f 14/14/14 23/23/23 24/24/24
f 14/14/14 24/24/24 15/15/15
f 22/22/22 16/16/16 25/25/25
f 22/22/22 25/25/25 26/26/26
f 27/27/27 28/28/28 29/29/29
f 27/27/27 29/29/29 30/30/30
f 31/31/31 32/32/32 33/33/33
f 31/31/31 33/33/33 34/34/34
f 35/35/35 5/5/5 8/8/8
f 35/35/35 8/8/8 36/36/36
f 37/37/37 31/31/31 34/34/34
f 37/37/37 34/34/34 38/38/38
f 39/39/39 35/35/35 36/36/36
f 39/39/39 36/36/36 40/40/40
f 6/6/6 41/41/41 42/42/42
f 6/6/6 42/42/42 7/7/7
f 41/41/41 27/27/27 30/30/30
f 41/41/41 30/30/30 42/42/42
f 32/32/32 39/39/39 40/40/40
f 32/32/32 40/40/40 33/33/33
f 43/43/43 44/44/44 45/45/45
f 43/43/43 45/45/45 46/46/46
f 18/18/18 4/4/4 47/47/47
f 18/18/18 47/47/47 48/48/48
f 20/20/20 12/12/12 49/49/49
f 20/20/20 49/49/49 50/50/50
f 28/28/28 37/37/37 38/38/38
f 28/28/28 38/38/38 29/29/29
f 24/24/24 18/18/18 48/48/48
f 24/24/24 48/48/48 51/51/51
f 3/3/3 20/20/20 50/50/50
f 3/3/3 50/50/50 52/52/52
f 11/11/11 22/22/22 26/26/26
f 11/11/11 26/26/26 53/53/53
f 15/15/15 24/24/24 51/51/51
f 15/15/15 51/51/51 54/54/54
f 4/4/4 3/3/3 52/52/52
f 4/4/4 52/52/52 47/47/47
f 12/12/12 11/11/11 53/53/53
f 12/12/12 53/53/53 49/49/49
f 55/55/55 56/56/56 57/57/57
f 55/55/55 57/57/57 58/58/58
f 29/29/29 38/38/38 59/59/59
f 29/29/29 59/59/59 60/60/60
f 61/61/61 43/43/43 46/46/46
f 61/61/61 46/46/46 62/62/62
f 63/63/63 64/64/64 65/65/65
f 63/63/63 65/65/65 66/66/66
f 64/64/64 67/67/67 68/68/68
f 64/64/64 68/68/68 65/65/65
f 69/69/69 61/61/61 62/62/62
f 69/69/69 62/62/62 70/70/70
f 44/44/44 63/63/63 66/66/66
f 44/44/44 66/66/66 45/45/45
f 67/67/67 71/71/71 72/72/72
f 67/67/67 72/72/72 68/68/68
f 56/56/56 69/69/69 70/70/70
f 56/56/56 70/70/70 57/57/57
f 72/72/72 58/58/58 57/57/57
f 72/72/72 57/57/57 70/70/70
f 72/72/72 70/70/70 62/62/62
f 72/72/72 62/62/62 46/46/46
f 72/72/72 46/46/46 45/45/45
f 72/72/72 45/45/45 66/66/66
f 72/72/72 66/66/66 65/65/65
f 72/72/72 65/65/65 68/68/68
f 34/34/34 33/33/33 73/73/73
f 34/34/34 73/73/73 74/74/74
f 36/36/36 8/8/8 75/75/75
f 36/36/36 75/75/75 76/76/76
f 42/42/42 30/30/30 77/77/77
f 42/42/42 77/77/77 78/78/78
f 38/38/38 34/34/34 74/74/74
f 38/38/38 74/74/74 59/59/59
f 40/40/40 36/36/36 76/76/76
f 40/40/40 76/76/76 79/79/79
f 7/7/7 42/42/42 78/78/78
f 7/7/7 78/78/78 80/80/80
f 30/30/30 29/29/29 60/60/60
f 30/30/30 60/60/60 77/77/77
f 33/33/33 40/40/40 79/79/79
f 33/33/33 79/79/79 73/73/73
f 8/8/8 7/7/7 80/80/80
f 8/8/8 80/80/80 75/75/75
f 60/60/60 59/59/59 55/55/55
f 60/60/60 55/55/55 71/71/71
f 77/77/77 60/60/60 71/71/71
f 77/77/77 71/71/71 67/67/67
f 78/78/78 77/77/77 67/67/67
f 78/78/78 67/67/67 64/64/64
f 80/80/80 78/78/78 64/64/64
f 80/80/80 64/64/64 63/63/63
f 75/75/75 80/80/80 63/63/63
f 75/75/75 63/63/63 44/44/44
f 76/76/76 75/75/75 44/44/44
f 76/76/76 44/44/44 43/43/43
f 79/79/79 76/76/76 43/43/43
f 79/79/79 43/43/43 61/61/61
f 73/73/73 79/79/79 61/61/61
f 73/73/73 61/61/61 69/69/69
f 74/74/74 73/73/73 69/69/69
f 74/74/74 69/69/69 56/56/56
f 59/59/59 74/74/74 56/56/56
f 59/59/59 56/56/56 55/55/55
f 71/71/71 55/55/55 58/58/58
f 71/71/71 58/58/58 72/72/72
f 25/25/25 54/54/54 37/37/37
f 25/25/25 37/37/37 28/28/28
f 26/26/26 25/25/25 28/28/28
f 26/26/26 28/28/28 27/27/27
f 53/53/53 26/26/26 27/27/27
f 53/53/53 27/27/27 41/41/41
f 49/49/49 53/53/53 41/41/41
f 49/49/49 41/41/41 6/6/6
f 50/50/50 49/49/49 6/6/6
f 50/50/50 6/6/6 5/5/5
f 52/52/52 50/50/50 5/5/5
f 52/52/52 5/5/5 35/35/35
f 47/47/47 52/52/52 35/35/35
f 47/47/47 35/35/35 39/39/39
f 48/48/48 47/47/47 39/39/39
f 48/48/48 39/39/39 32/32/32
f 51/51/51 48/48/48 32/32/32
f 51/51/51 32/32/32 31/31/31
f 54/54/54 51/51/51 31/31/31
f 54/54/54 31/31/31 37/37/37
f 16/16/16 15/15/15 54/54/54
f 16/16/16 54/54/54 25/25/25
f 81/81/81 82/82/82 83/83/83
f 81/81/81 83/83/83 84/84/84
f 85/85/85 86/86/86 87/87/87
f 85/85/85 87/87/87 88/88/88
f 89/89/89 88/88/88 90/90/90
f 89/89/89 90/90/90 91/91/91
f 82/82/82 92/92/92 93/93/93
f 82/82/82 93/93/93 83/83/83
f 86/86/86 94/94/94 95/95/95
f 86/86/86 95/95/95 87/87/87
f 96/96/96 97/97/97 98/98/98
f 96/96/96 98/98/98 99/99/99
f 92/92/92 100/100/100 101/101/101
f 92/92/92 101/101/101 93/93/93
f 94/94/94 81/81/81 84/84/84
f 94/94/94 84/84/84 95/95/95
f 102/102/102 103/103/103 104/104/104
f 102/102/102 104/104/104 105/105/105
f 97/97/97 106/106/106 107/107/107
f 97/97/97 107/107/107 98/98/98
f 106/106/106 108/108/108 109/109/109
f 106/106/106 109/109/109 107/107/107
f 108/108/108 110/110/110 111/111/111
f 108/108/108 111/111/111 109/109/109
f 110/110/110 112/112/112 113/113/113
f 110/110/110 113/113/113 111/111/111
f 112/112/112 114/114/114 115/115/115
f 112/112/112 115/115/115 113/113/113
f 114/114/114 116/116/116 117/117/117
f 114/114/114 117/117/117 115/115/115
f 116/116/116 102/102/102 105/105/105
f 116/116/116 105/105/105 117/117/117
f 118/118/118 119/119/119 97/97/97
f 118/118/118 97/97/97 96/96/96
f 120/120/120 121/121/121 122/122/122
f 120/120/120 122/122/122 100/100/100
f 123/123/123 85/85/85 88/88/88
f 123/123/123 88/88/88 89/89/89
f 124/124/124 125/125/125 82/82/82
f 124/124/124 82/82/82 81/81/81
f 126/126/126 124/124/124 81/81/81
f 126/126/126 81/81/81 94/94/94
f 127/127/127 120/120/120 100/100/100
f 127/127/127 100/100/100 92/92/92
f 128/128/128 129/129/129 86/86/86
f 128/128/128 86/86/86 85/85/85
f 130/130/130 131/131/131 123/123/123
f 130/130/130 123/123/123 132/132/132
f 132/132/132 123/123/123 89/89/89
f 132/132/132 89/89/89 133/133/133
f 121/121/121 130/130/130 132/132/132
f 121/121/121 132/132/132 122/122/122
f 122/122/122 132/132/132 133/133/133
f 122/122/122 133/133/133 134/134/134
f 129/129/129 126/126/126 94/94/94
f 129/129/129 94/94/94 86/86/86
f 125/125/125 127/127/127 92/92/92
f 125/125/125 92/92/92 82/82/82
f 133/133/133 89/89/89 91/91/91
f 133/133/133 91/91/91 135/135/135
f 93/93/93 101/101/101 136/136/136
f 93/93/93 136/136/136 137/137/137
f 95/95/95 84/84/84 138/138/138
f 95/95/95 138/138/138 139/139/139
f 134/134/134 133/133/133 135/135/135
f 134/134/134 135/135/135 140/140/140
f 101/101/101 134/134/134 140/140/140
f 101/101/101 140/140/140 136/136/136
f 84/84/84 83/83/83 141/141/141
f 84/84/84 141/141/141 138/138/138
f 131/131/131 128/128/128 85/85/85
f 131/131/131 85/85/85 123/123/123
f 87/87/87 95/95/95 139/139/139
f 87/87/87 139/139/139 142/142/142
f 100/100/100 122/122/122 134/134/134
f 100/100/100 134/134/134 101/101/101
f 99/99/99 98/98/98 128/128/128
f 99/99/99 128/128/128 131/131/131
f 119/119/119 143/143/143 106/106/106
f 119/119/119 106/106/106 97/97/97
f 144/144/144 145/145/145 116/116/116
f 144/144/144 116/116/116 114/114/114
f 146/146/146 144/144/144 114/114/114
f 146/146/146 114/114/114 112/112/112
f 147/147/147 148/148/148 103/103/103
f 147/147/147 103/103/103 102/102/102
f 149/149/149 150/150/150 110/110/110
f 149/149/149 110/110/110 108/108/108
f 143/143/143 149/149/149 108/108/108
f 143/143/143 108/108/108 106/106/106
f 150/150/150 146/146/146 112/112/112
f 150/150/150 112/112/112 110/110/110
f 83/83/83 93/93/93 137/137/137
f 83/83/83 137/137/137 141/141/141
f 145/145/145 147/147/147 102/102/102
f 145/145/145 102/102/102 116/116/116
f 105/105/105 104/104/104 130/130/130
f 105/105/105 130/130/130 121/121/121
f 109/109/109 111/111/111 124/124/124
f 109/109/109 124/124/124 126/126/126
f 111/111/111 113/113/113 125/125/125
f 111/111/111 125/125/125 124/124/124
f 98/98/98 107/107/107 129/129/129
f 98/98/98 129/129/129 128/128/128
f 113/113/113 115/115/115 127/127/127
f 113/113/113 127/127/127 125/125/125
f 107/107/107 109/109/109 126/126/126
f 107/107/107 126/126/126 129/129/129
f 104/104/104 99/99/99 131/131/131
f 104/104/104 131/131/131 130/130/130
f 148/148/148 118/118/118 96/96/96
f 148/148/148 96/96/96 103/103/103
f 151/151/151 152/152/152 143/143/143
f 151/151/151 143/143/143 119/119/119
f 117/117/117 105/105/105 121/121/121
f 117/117/117 121/121/121 120/120/120
f 88/88/88 87/87/87 142/142/142
f 88/88/88 142/142/142 90/90/90
f 153/153/153 154/154/154 144/144/144
f 153/153/153 144/144/144 146/146/146
f 155/155/155 156/156/156 148/148/148
f 155/155/155 148/148/148 147/147/147
f 156/156/156 157/157/157 118/118/118
f 156/156/156 118/118/118 148/148/148
f 154/154/154 158/158/158 145/145/145
f 154/154/154 145/145/145 144/144/144
f 159/159/159 160/160/160 150/150/150
f 159/159/159 150/150/150 149/149/149
f 157/157/157 151/151/151 119/119/119
f 157/157/157 119/119/119 118/118/118
f 158/158/158 155/155/155 147/147/147
f 158/158/158 147/147/147 145/145/145
f 115/115/115 117/117/117 120/120/120
f 115/115/115 120/120/120 127/127/127
f 160/160/160 153/153/153 146/146/146
f 160/160/160 146/146/146 150/150/150
f 152/152/152 159/159/159 149/149/149
f 152/152/152 149/149/149 143/143/143
f 103/103/103 96/96/96 99/99/99
f 103/103/103 99/99/99 104/104/104
f 161/161/161 162/162/162 163/163/163
f 161/161/161 163/163/163 164/164/164
f 165/165/165 166/166/166 167/167/167
f 165/165/165 167/167/167 168/168/168
f 169/169/169 170/170/170 171/171/171
f 169/169/169 171/171/171 172/172/172
f 173/173/173 174/174/174 162/162/162
f 173/173/173 162/162/162 161/161/161
f 175/175/175 176/176/176 170/170/170
f 175/175/175 170/170/170 169/169/169
f 177/177/177 178/178/178 174/174/174
f 177/177/177 174/174/174 173/173/173
f 164/164/164 163/163/163 179/179/179
f 164/164/164 179/179/179 180/180/180
f 180/180/180 179/179/179 166/166/166
f 180/180/180 166/166/166 165/165/165
f 172/172/172 171/171/171 178/178/178
f 172/172/172 178/178/178 177/177/177
f 181/181/181 182/182/182 183/183/183
f 181/181/181 183/183/183 184/184/184
f 168/168/168 167/167/167 176/176/176
f 168/168/168 176/176/176 175/175/175
f 185/185/185 186/186/186 187/187/187
f 185/185/185 187/187/187 188/188/188
f 167/167/167 189/189/189 190/190/190
f 167/167/167 190/190/190 176/176/176
f 191/191/191 192/192/192 182/182/182
f 191/191/191 182/182/182 181/181/181
f 193/193/193 194/194/194 195/195/195
f 193/193/193 195/195/195 196/196/196
f 196/196/196 195/195/195 197/197/197
f 196/196/196 197/197/197 198/198/198
f 199/199/199 200/200/200 192/192/192
f 199/199/199 192/192/192 191/191/191
f 184/184/184 183/183/183 194/194/194
f 184/184/184 194/194/194 193/193/193
f 198/198/198 197/197/197 201/201/201
f 198/198/198 201/201/201 202/202/202
f 188/188/188 187/187/187 200/200/200
f 188/188/188 200/200/200 199/199/199
f 170/170/170 203/203/203 204/204/204
f 170/170/170 204/204/204 171/171/171
f 174/174/174 205/205/205 206/206/206
f 174/174/174 206/206/206 162/162/162
f 179/179/179 207/207/207 208/208/208
f 179/179/179 208/208/208 166/166/166
f 176/176/176 190/190/190 203/203/203
f 176/176/176 203/203/203 170/170/170
f 178/178/178 209/209/209 205/205/205
f 178/178/178 205/205/205 174/174/174
f 163/163/163 210/210/210 207/207/207
f 163/163/163 207/207/207 179/179/179
f 166/166/166 208/208/208 189/189/189
f 166/166/166 189/189/189 167/167/167
f 171/171/171 204/204/204 209/209/209
f 171/171/171 209/209/209 178/178/178
f 162/162/162 206/206/206 210/210/210
f 162/162/162 210/210/210 163/163/163
f 189/189/189 202/202/202 185/185/185
f 189/189/189 185/185/185 190/190/190
f 208/208/208 198/198/198 202/202/202
f 208/208/208 202/202/202 189/189/189
f 207/207/207 196/196/196 198/198/198
f 207/207/207 198/198/198 208/208/208
f 210/210/210 193/193/193 196/196/196
f 210/210/210 196/196/196 207/207/207
f 206/206/206 184/184/184 193/193/193
f 206/206/206 193/193/193 210/210/210
f 205/205/205 181/181/181 184/184/184
f 205/205/205 184/184/184 206/206/206
f 209/209/209 191/191/191 181/181/181
f 209/209/209 181/181/181 205/205/205
f 204/204/204 199/199/199 191/191/191
f 204/204/204 191/191/191 209/209/209
f 203/203/203 188/188/188 199/199/199
f 203/203/203 199/199/199 204/204/204
f 190/190/190 185/185/185 188/188/188
f 190/190/190 188/188/188 203/203/203
f 202/202/202 201/201/201 186/186/186
f 202/202/202 186/186/186 185/185/185
f 211/211/211 212/212/212 213/213/213
f 211/211/211 213/213/213 214/214/214
f 215/215/215 216/216/216 217/217/217
f 215/215/215 217/217/217 218/218/218
f 219/219/219 220/220/220 212/212/212
f 219/219/219 212/212/212 211/211/211
f 221/221/221 222/222/222 223/223/223
f 221/221/221 223/223/223 224/224/224
f 224/224/224 223/223/223 225/225/225
f 224/224/224 225/225/225 226/226/226
f 227/227/227 228/228/228 220/220/220
f 227/227/227 220/220/220 219/219/219
f 214/214/214 213/213/213 222/222/222
f 214/214/214 222/222/222 221/221/221
f 226/226/226 225/225/225 229/229/229
f 226/226/226 229/229/229 230/230/230
f 218/218/218 217/217/217 228/228/228
f 218/218/218 228/228/228 227/227/227
f 229/229/229 225/225/225 223/223/223
f 229/229/229 223/223/223 222/222/222
f 229/229/229 222/222/222 213/213/213
f 229/229/229 213/213/213 212/212/212
f 229/229/229 212/212/212 220/220/220
f 229/229/229 220/220/220 228/228/228
f 229/229/229 228/228/228 217/217/217
f 229/229/229 217/217/217 216/216/216
f 231/231/231 230/230/230 215/215/215
f 231/231/231 215/215/215 232/232/232
f 233/233/233 226/226/226 230/230/230
f 233/233/233 230/230/230 231/231/231
f 234/234/234 224/224/224 226/226/226
f 234/234/234 226/226/226 233/233/233
f 235/235/235 221/221/221 224/224/224
f 235/235/235 224/224/224 234/234/234
f 236/236/236 214/214/214 221/221/221
f 236/236/236 221/221/221 235/235/235
f 237/237/237 211/211/211 214/214/214
f 237/237/237 214/214/214 236/236/236
f 238/238/238 219/219/219 211/211/211
f 238/238/238 211/211/211 237/237/237
f 239/239/239 227/227/227 219/219/219
f 239/239/239 219/219/219 238/238/238
f 240/240/240 218/218/218 227/227/227
f 240/240/240 227/227/227 239/239/239
f 232/232/232 215/215/215 218/218/218
f 232/232/232 218/218/218 240/240/240
f 230/230/230 229/229/229 216/216/216
f 230/230/230 216/216/216 215/215/215
f 161/161/161 164/164/164 241/241/241
f 161/161/161 241/241/241 242/242/242
f 165/165/165 168/168/168 243/243/243
f 165/165/165 243/243/243 244/244/244
f 168/168/168 175/175/175 245/245/245
f 168/168/168 245/245/245 243/243/243
f 164/164/164 180/180/180 246/246/246
f 164/164/164 246/246/246 241/241/241
f 177/177/177 173/173/173 247/247/247
f 177/177/177 247/247/247 248/248/248
f 175/175/175 169/169/169 249/249/249
f 175/175/175 249/249/249 245/245/245
f 180/180/180 165/165/165 244/244/244
f 180/180/180 244/244/244 246/246/246
f 173/173/173 161/161/161 242/242/242
f 173/173/173 242/242/242 247/247/247
f 169/169/169 172/172/172 250/250/250
f 169/169/169 250/250/250 249/249/249
f 172/172/172 177/177/177 248/248/248
f 172/172/172 248/248/248 250/250/250
f 142/142/142 139/139/139 138/138/138
f 142/142/142 138/138/138 141/141/141
f 142/142/142 141/141/141 137/137/137
f 142/142/142 137/137/137 136/136/136
f 142/142/142 136/136/136 140/140/140
f 142/142/142 140/140/140 135/135/135
f 142/142/142 135/135/135 91/91/91
f 142/142/142 91/91/91 90/90/90
f 201/201/201 197/197/197 195/195/195
f 201/201/201 195/195/195 194/194/194
f 201/201/201 194/194/194 183/183/183
f 201/201/201 183/183/183 182/182/182
f 201/201/201 182/182/182 192/192/192
f 201/201/201 192/192/192 200/200/200
f 201/201/201 200/200/200 187/187/187
f 201/201/201 187/187/187 186/186/186
f 251/251/251 252/252/252 253/253/253
f 251/251/251 253/253/253 254/254/254
f 255/255/255 256/256/256 257/257/257
f 255/255/255 257/257/257 258/258/258
f 259/259/259 258/258/258 260/260/260
f 259/259/259 260/260/260 261/261/261
f 252/252/252 262/262/262 263/263/263
f 252/252/252 263/263/263 253/253/253
f 256/256/256 264/264/264 265/265/265
f 256/256/256 265/265/265 257/257/257
f 266/266/266 267/267/267 268/268/268
f 266/266/266 268/268/268 269/269/269
f 262/262/262 270/270/270 271/271/271
f 262/262/262 271/271/271 263/263/263
f 264/264/264 251/251/251 254/254/254
f 264/264/264 254/254/254 265/265/265
f 272/272/272 273/273/273 274/274/274
f 272/272/272 274/274/274 275/275/275
f 267/267/267 276/276/276 277/277/277
f 267/267/267 277/277/277 268/268/268
f 276/276/276 278/278/278 279/279/279
f 276/276/276 279/279/279 277/277/277
f 278/278/278 280/280/280 281/281/281
f 278/278/278 281/281/281 279/279/279
f 280/280/280 282/282/282 283/283/283
f 280/280/280 283/283/283 281/281/281
f 282/282/282 284/284/284 285/285/285
f 282/282/282 285/285/285 283/283/283
f 284/284/284 286/286/286 287/287/287
f 284/284/284 287/287/287 285/285/285
f 286/286/286 272/272/272 275/275/275
f 286/286/286 275/275/275 287/287/287
f 288/288/288 289/289/289 267/267/267
f 288/288/288 267/267/267 266/266/266
f 290/290/290 291/291/291 292/292/292
f 290/290/290 292/292/292 270/270/270
f 293/293/293 255/255/255 258/258/258
f 293/293/293 258/258/258 259/259/259
f 294/294/294 295/295/295 252/252/252
f 294/294/294 252/252/252 251/251/251
f 296/296/296 294/294/294 251/251/251
f 296/296/296 251/251/251 264/264/264
f 297/297/297 290/290/290 270/270/270
f 297/297/297 270/270/270 262/262/262
f 298/298/298 299/299/299 256/256/256
f 298/298/298 256/256/256 255/255/255
f 300/300/300 301/301/301 293/293/293
f 300/300/300 293/293/293 302/302/302
f 302/302/302 293/293/293 259/259/259
f 302/302/302 259/259/259 303/303/303
f 291/291/291 300/300/300 302/302/302
f 291/291/291 302/302/302 292/292/292
f 292/292/292 302/302/302 303/303/303
f 292/292/292 303/303/303 304/304/304
f 299/299/299 296/296/296 264/264/264
f 299/299/299 264/264/264 256/256/256
f 295/295/295 297/297/297 262/262/262
f 295/295/295 262/262/262 252/252/252
f 303/303/303 259/259/259 261/261/261
f 303/303/303 261/261/261 305/305/305
f 263/263/263 271/271/271 306/306/306
f 263/263/263 306/306/306 307/307/307
f 265/265/265 254/254/254 308/308/308
f 265/265/265 308/308/308 309/309/309
f 304/304/304 303/303/303 305/305/305
f 304/304/304 305/305/305 310/310/310
f 271/271/271 304/304/304 310/310/310
f 271/271/271 310/310/310 306/306/306
f 254/254/254 253/253/253 311/311/311
f 254/254/254 311/311/311 308/308/308
f 301/301/301 298/298/298 255/255/255
f 301/301/301 255/255/255 293/293/293
f 257/257/257 265/265/265 309/309/309
f 257/257/257 309/309/309 312/312/312
f 270/270/270 292/292/292 304/304/304
f 270/270/270 304/304/304 271/271/271
f 269/269/269 268/268/268 298/298/298
f 269/269/269 298/298/298 301/301/301
f 289/289/289 313/313/313 276/276/276
f 289/289/289 276/276/276 267/267/267
f 314/314/314 315/315/315 286/286/286
f 314/314/314 286/286/286 284/284/284
f 316/316/316 314/314/314 284/284/284
f 316/316/316 284/284/284 282/282/282
f 317/317/317 318/318/318 273/273/273
f 317/317/317 273/273/273 272/272/272
f 319/319/319 320/320/320 280/280/280
f 319/319/319 280/280/280 278/278/278
f 313/313/313 319/319/319 278/278/278
f 313/313/313 278/278/278 276/276/276
f 320/320/320 316/316/316 282/282/282
f 320/320/320 282/282/282 280/280/280
f 253/253/253 263/263/263 307/307/307
f 253/253/253 307/307/307 311/311/311
f 315/315/315 317/317/317 272/272/272
f 315/315/315 272/272/272 286/286/286
f 275/275/275 274/274/274 300/300/300
f 275/275/275 300/300/300 291/291/291
f 279/279/279 281/281/281 294/294/294
f 279/279/279 294/294/294 296/296/296
f 281/281/281 283/283/283 295/295/295
f 281/281/281 295/295/295 294/294/294
f 268/268/268 277/277/277 299/299/299
f 268/268/268 299/299/299 298/298/298
f 283/283/283 285/285/285 297/297/297
f 283/283/283 297/297/297 295/295/295
f 277/277/277 279/279/279 296/296/296
f 277/277/277 296/296/296 299/299/299
f 274/274/274 269/269/269 301/301/301
f 274/274/274 301/301/301 300/300/300
f 318/318/318 288/288/288 266/266/266
f 318/318/318 266/266/266 273/273/273
f 321/321/321 322/322/322 313/313/313
f 321/321/321 313/313/313 289/289/289
f 287/287/287 275/275/275 291/291/291
f 287/287/287 291/291/291 290/290/290
f 258/258/258 257/257/257 312/312/312
f 258/258/258 312/312/312 260/260/260
f 323/323/323 324/324/324 314/314/314
f 323/323/323 314/314/314 316/316/316
f 325/325/325 326/326/326 318/318/318
f 325/325/325 318/318/318 317/317/317
f 326/326/326 327/327/327 288/288/288
f 326/326/326 288/288/288 318/318/318
f 324/324/324 328/328/328 315/315/315
f 324/324/324 315/315/315 314/314/314
f 329/329/329 330/330/330 320/320/320
f 329/329/329 320/320/320 319/319/319
f 327/327/327 321/321/321 289/289/289
f 327/327/327 289/289/289 288/288/288
f 328/328/328 325/325/325 317/317/317
f 328/328/328 317/317/317 315/315/315
f 285/285/285 287/287/287 290/290/290
f 285/285/285 290/290/290 297/297/297
f 330/330/330 323/323/323 316/316/316
f 330/330/330 316/316/316 320/320/320
f 322/322/322 329/329/329 319/319/319
f 322/322/322 319/319/319 313/313/313
f 273/273/273 266/266/266 269/269/269
f 273/273/273 269/269/269 274/274/274
f 331/331/331 332/332/332 333/333/333
f 331/331/331 333/333/333 334/334/334
f 335/335/335 336/336/336 337/337/337
f 335/335/335 337/337/337 338/338/338
f 339/339/339 340/340/340 341/341/341
f 339/339/339 341/341/341 342/342/342
f 343/343/343 344/344/344 332/332/332
f 343/343/343 332/332/332 331/331/331
f 345/345/345 346/346/346 340/340/340
f 345/345/345 340/340/340 339/339/339
f 347/347/347 348/348/348 344/344/344
f 347/347/347 344/344/344 343/343/343
f 334/334/334 333/333/333 349/349/349
f 334/334/334 349/349/349 350/350/350
f 350/350/350 349/349/349 336/336/336
f 350/350/350 336/336/336 335/335/335
f 342/342/342 341/341/341 348/348/348
f 342/342/342 348/348/348 347/347/347
f 351/351/351 352/352/352 353/353/353
f 351/351/351 353/353/353 354/354/354
f 338/338/338 337/337/337 346/346/346
f 338/338/338 346/346/346 345/345/345
f 355/355/355 356/356/356 357/357/357
f 355/355/355 357/357/357 358/358/358
f 337/337/337 359/359/359 360/360/360
f 337/337/337 360/360/360 346/346/346
f 361/361/361 362/362/362 352/352/352
f 361/361/361 352/352/352 351/351/351
f 363/363/363 364/364/364 365/365/365
f 363/363/363 365/365/365 366/366/366
f 366/366/366 365/365/365 367/367/367
f 366/366/366 367/367/367 368/368/368
f 369/369/369 370/370/370 362/362/362
f 369/369/369 362/362/362 361/361/361
f 354/354/354 353/353/353 364/364/364
f 354/354/354 364/364/364 363/363/363
f 368/368/368 367/367/367 371/371/371
f 368/368/368 371/371/371 372/372/372
f 358/358/358 357/357/357 370/370/370
f 358/358/358 370/370/370 369/369/369
f 340/340/340 373/373/373 374/374/374
f 340/340/340 374/374/374 341/341/341
f 344/344/344 375/375/375 376/376/376
f 344/344/344 376/376/376 332/332/332
f 349/349/349 377/377/377 378/378/378
f 349/349/349 378/378/378 336/336/336
f 346/346/346 360/360/360 373/373/373
f 346/346/346 373/373/373 340/340/340
f 348/348/348 379/379/379 375/375/375
f 348/348/348 375/375/375 344/344/344
f 333/333/333 380/380/380 377/377/377
f 333/333/333 377/377/377 349/349/349
f 336/336/336 378/378/378 359/359/359
f 336/336/336 359/359/359 337/337/337
f 341/341/341 374/374/374 379/379/379
f 341/341/341 379/379/379 348/348/348
f 332/332/332 376/376/376 380/380/380
f 332/332/332 380/380/380 333/333/333
f 359/359/359 372/372/372 355/355/355
f 359/359/359 355/355/355 360/360/360
f 378/378/378 368/368/368 372/372/372
f 378/378/378 372/372/372 359/359/359
f 377/377/377 366/366/366 368/368/368
f 377/377/377 368/368/368 378/378/378
f 380/380/380 363/363/363 366/366/366
f 380/380/380 366/366/366 377/377/377
f 376/376/376 354/354/354 363/363/363
f 376/376/376 363/363/363 380/380/380
f 375/375/375 351/351/351 354/354/354
f 375/375/375 354/354/354 376/376/376
f 379/379/379 361/361/361 351/351/351
f 379/379/379 351/351/351 375/375/375
f 374/374/374 369/369/369 361/361/361
f 374/374/374 361/361/361 379/379/379
f 373/373/373 358/358/358 369/369/369
f 373/373/373 369/369/369 374/374/374
f 360/360/360 355/355/355 358/358/358
f 360/360/360 358/358/358 373/373/373
f 372/372/372 371/371/371 356/356/356
f 372/372/372 356/356/356 355/355/355
f 381/381/381 382/382/382 383/383/383
f 381/381/381 383/383/383 384/384/384
f 385/385/385 386/386/386 387/387/387
f 385/385/385 387/387/387 388/388/388
f 389/389/389 390/390/390 382/382/382
f 389/389/389 382/382/382 381/381/381
f 391/391/391 392/392/392 393/393/393
f 391/391/391 393/393/393 394/394/394
f 394/394/394 393/393/393 395/395/395
f 394/394/394 395/395/395 396/396/396
f 397/397/397 398/398/398 390/390/390
f 397/397/397 390/390/390 389/389/389
f 384/384/384 383/383/383 392/392/392
f 384/384/384 392/392/392 391/391/391
f 396/396/396 395/395/395 399/399/399
f 396/396/396 399/399/399 400/400/400
f 388/388/388 387/387/387 398/398/398
f 388/388/388 398/398/398 397/397/397
f 399/399/399 395/395/395 393/393/393
f 399/399/399 393/393/393 392/392/392
f 399/399/399 392/392/392 383/383/383
f 399/399/399 383/383/383 382/382/382
f 399/399/399 382/382/382 390/390/390
f 399/399/399 390/390/390 398/398/398
f 399/399/399 398/398/398 387/387/387
f 399/399/399 387/387/387 386/386/386
f 401/401/401 400/400/400 385/385/385
f 401/401/401 385/385/385 402/402/402
f 403/403/403 396/396/396 400/400/400
f 403/403/403 400/400/400 401/401/401
f 404/404/404 394/394/394 396/396/396
f 404/404/404 396/396/396 403/403/403
f 405/405/405 391/391/391 394/394/394
f 405/405/405 394/394/394 404/404/404
f 406/406/406 384/384/384 391/391/391
f 406/406/406 391/391/391 405/405/405
f 407/407/407 381/381/381 384/384/384
f 407/407/407 384/384/384 406/406/406
f 408/408/408 389/389/389 381/381/381
f 408/408/408 381/381/381 407/407/407
f 409/409/409 397/397/397 389/389/389
f 409/409/409 389/389/389 408/408/408
f 410/410/410 388/388/388 397/397/397
f 410/410/410 397/397/397 409/409/409
f 402/402/402 385/385/385 388/388/388
f 402/402/402 388/388/388 410/410/410
f 400/400/400 399/399/399 386/386/386
f 400/400/400 386/386/386 385/385/385
f 331/331/331 334/334/334 411/411/411
f 331/331/331 411/411/411 412/412/412
f 335/335/335 338/338/338 413/413/413
f 335/335/335 413/413/413 414/414/414
f 338/338/338 345/345/345 415/415/415
f 338/338/338 415/415/415 413/413/413
f 334/334/334 350/350/350 416/416/416
f 334/334/334 416/416/416 411/411/411
f 347/347/347 343/343/343 417/417/417
f 347/347/347 417/417/417 418/418/418
f 345/345/345 339/339/339 419/419/419
f 345/345/345 419/419/419 415/415/415
f 350/350/350 335/335/335 414/414/414
f 350/350/350 414/414/414 416/416/416
f 343/343/343 331/331/331 412/412/412
f 343/343/343 412/412/412 417/417/417
f 339/339/339 342/342/342 420/420/420
f 339/339/339 420/420/420 419/419/419
f 342/342/342 347/347/347 418/418/418
f 342/342/342 418/418/418 420/420/420
f 312/312/312 309/309/309 308/308/308
f 312/312/312 308/308/308 311/311/311
f 312/312/312 311/311/311 307/307/307
f 312/312/312 307/307/307 306/306/306
f 312/312/312 306/306/306 310/310/310
f 312/312/312 310/310/310 305/305/305
f 312/312/312 305/305/305 261/261/261
f 312/312/312 261/261/261 260/260/260
f 371/371/371 367/367/367 365/365/365
f 371/371/371 365/365/365 364/364/364
f 371/371/371 364/364/364 353/353/353
f 371/371/371 353/353/353 352/352/352
f 371/371/371 352/352/352 362/362/362
f 371/371/371 362/362/362 370/370/370
f 371/371/371 370/370/370 357/357/357
f 371/371/371 357/357/357 356/356/356
f 421/421/421 422/422/422 423/423/423
f 421/421/421 423/423/423 424/424/424
f 425/425/425 426/426/426 427/427/427
f 425/425/425 427/427/427 428/428/428
f 429/429/429 430/430/430 431/431/431
f 429/429/429 431/431/431 432/432/432
f 433/433/433 434/434/434 422/422/422
f 433/433/433 422/422/422 421/421/421
f 435/435/435 436/436/436 437/437/437
f 435/435/435 437/437/437 438/438/438
f 438/438/438 437/437/437 439/439/439
f 438/438/438 439/439/439 440/440/440
f 441/441/441 442/442/442 434/434/434
f 441/441/441 434/434/434 433/433/433
f 424/424/424 423/423/423 436/436/436
f 424/424/424 436/436/436 435/435/435
f 440/440/440 439/439/439 443/443/443
f 440/440/440 443/443/443 444/444/444
f 428/428/428 427/427/427 442/442/442
f 428/428/428 442/442/442 441/441/441
f 445/445/445 446/446/446 447/447/447
f 445/445/445 447/447/447 448/448/448
f 449/449/449 450/450/450 451/451/451
f 449/449/449 451/451/451 452/452/452
f 453/453/453 454/454/454 455/455/455
f 453/453/453 455/455/455 456/456/456
f 432/432/432 431/431/431 446/446/446
f 432/432/432 446/446/446 445/445/445
f 457/457/457 458/458/458 450/450/450
f 457/457/457 450/450/450 449/449/449
f 459/459/459 460/460/460 454/454/454
f 459/459/459 454/454/454 453/453/453
f 456/456/456 455/455/455 430/430/430
f 456/456/456 430/430/430 429/429/429
f 448/448/448 447/447/447 458/458/458
f 448/448/448 458/458/458 457/457/457
f 452/452/452 451/451/451 460/460/460
f 452/452/452 460/460/460 459/459/459
f 430/430/430 444/444/444 425/425/425
f 430/430/430 425/425/425 431/431/431
f 455/455/455 440/440/440 444/444/444
f 455/455/455 444/444/444 430/430/430
f 454/454/454 438/438/438 440/440/440
f 454/454/454 440/440/440 455/455/455
f 460/460/460 435/435/435 438/438/438
f 460/460/460 438/438/438 454/454/454
f 451/451/451 424/424/424 435/435/435
f 451/451/451 435/435/435 460/460/460
f 450/450/450 421/421/421 424/424/424
f 450/450/450 424/424/424 451/451/451
f 458/458/458 433/433/433 421/421/421
f 458/458/458 421/421/421 450/450/450
f 447/447/447 441/441/441 433/433/433
f 447/447/447 433/433/433 458/458/458
f 446/446/446 428/428/428 441/441/441
f 446/446/446 441/441/441 447/447/447
f 431/431/431 425/425/425 428/428/428
f 431/431/431 428/428/428 446/446/446
f 444/444/444 443/443/443 426/426/426
f 444/444/444 426/426/426 425/425/425
f 461/461/461 462/462/462 463/463/463
f 461/461/461 463/463/463 464/464/464
f 465/465/465 466/466/466 467/467/467
f 465/465/465 467/467/467 468/468/468
f 469/469/469 470/470/470 462/462/462
f 469/469/469 462/462/462 461/461/461
f 471/471/471 472/472/472 473/473/473
f 471/471/471 473/473/473 474/474/474
f 474/474/474 473/473/473 475/475/475
f 474/474/474 475/475/475 476/476/476
f 477/477/477 478/478/478 470/470/470
f 477/477/477 470/470/470 469/469/469
f 464/464/464 463/463/463 472/472/472
f 464/464/464 472/472/472 471/471/471
f 476/476/476 475/475/475 479/479/479
f 476/476/476 479/479/479 480/480/480
f 468/468/468 467/467/467 478/478/478
f 468/468/468 478/478/478 477/477/477
f 479/479/479 475/475/475 473/473/473
f 479/479/479 473/473/473 472/472/472
f 479/479/479 472/472/472 463/463/463
f 479/479/479 463/463/463 462/462/462
f 479/479/479 462/462/462 470/470/470
f 479/479/479 470/470/470 478/478/478
f 479/479/479 478/478/478 467/467/467
f 479/479/479 467/467/467 466/466/466
f 481/481/481 480/480/480 465/465/465
f 481/481/481 465/465/465 482/482/482
f 483/483/483 476/476/476 480/480/480
f 483/483/483 480/480/480 481/481/481
f 484/484/484 474/474/474 476/476/476
f 484/484/484 476/476/476 483/483/483
f 485/485/485 471/471/471 474/474/474
f 485/485/485 474/474/474 484/484/484
f 486/486/486 464/464/464 471/471/471
f 486/486/486 471/471/471 485/485/485
f 487/487/487 461/461/461 464/464/464
f 487/487/487 464/464/464 486/486/486
f 488/488/488 469/469/469 461/461/461
f 488/488/488 461/461/461 487/487/487
f 489/489/489 477/477/477 469/469/469
f 489/489/489 469/469/469 488/488/488
f 490/490/490 468/468/468 477/477/477
f 490/490/490 477/477/477 489/489/489
f 482/482/482 465/465/465 468/468/468
f 482/482/482 468/468/468 490/490/490
f 480/480/480 479/479/479 466/466/466
f 480/480/480 466/466/466 465/465/465
f 443/443/443 439/439/439 437/437/437
f 443/443/443 437/437/437 436/436/436
f 443/443/443 436/436/436 423/423/423
f 443/443/443 423/423/423 422/422/422
f 443/443/443 422/422/422 434/434/434
f 443/443/443 434/434/434 442/442/442
f 443/443/443 442/442/442 427/427/427
f 443/443/443 427/427/427 426/426/426
