# Split Tree_3_leaves mesh for Ursina textured rendering
o Tree_3_leaves
v -1.641803 4.886904 0.860527
v -1.495945 4.366706 1.334535
v -1.039428 4.610855 1.185372
v -0.930600 4.933700 0.768005
v -2.260391 4.539728 0.744844
v -2.006736 4.324276 1.168525
v -2.151563 4.862572 0.327478
v -1.695046 5.106721 0.178319
v -1.184255 5.149151 0.344329
v -0.795925 5.096564 -0.174515
v -1.659742 5.024809 -0.455260
v -1.323038 3.773345 1.500059
v -0.551004 4.186232 1.247809
v -2.431775 4.611920 -0.203010
v -2.615819 4.065949 0.502812
v -2.186851 3.701588 1.219315
v -0.366960 4.732203 0.541990
v -1.666412 5.336904 -0.901965
v -1.634357 5.303850 -0.107375
v -1.090855 5.414844 -0.327056
v -0.871035 5.354795 -0.878458
v -2.346017 4.927790 -0.836721
v -2.163778 5.104234 -0.296694
v -2.126197 4.867744 -1.388127
v -1.582696 4.978740 -1.607804
v -1.053276 5.178354 -1.418482
v -0.539393 4.764221 -1.706375
v -1.434714 4.426646 -2.026541
v -1.522083 4.976450 0.510888
v -0.602949 5.164158 0.139384
v -2.353848 4.238940 -1.655035
v -2.725594 4.340487 -0.722534
v -2.417404 4.638875 0.190724
v -0.231201 5.062609 -0.793116
v -0.666465 5.634620 -0.099482
v -0.711257 5.389280 0.588337
v -0.217127 5.272151 0.381194
v -0.035385 5.266271 -0.136232
v -1.398081 5.633872 -0.093851
v -1.208371 5.539550 0.412021
v -1.216338 5.627988 -0.611274
v -0.722210 5.510860 -0.818420
v -0.225096 5.360591 -0.642102
v 0.001688 4.883868 -1.041348
v -0.838997 5.137995 -1.339527
v -0.820478 4.932387 1.039490
v 0.015162 4.734307 0.689180
v -1.674639 5.336075 -0.989213
v -1.981991 5.346024 -0.114184
v -1.661164 5.186512 0.741315
v 0.322513 4.724360 -0.185852
v -2.038393 5.306253 0.580181
v -2.365434 4.737635 0.894609
v -1.915756 4.869413 1.173463
v -1.487383 5.178195 1.037495
v -2.412280 5.126805 -0.017440
v -2.588537 4.832031 0.406089
v -1.983909 5.435587 -0.153409
v -1.534231 5.567365 0.125446
v -1.311127 5.472969 0.613965
v -0.670606 5.348814 0.528088
v -1.047904 5.508451 -0.298066
v -2.453578 4.105262 1.002695
v -1.693112 4.328118 1.474276
v -1.808370 5.285595 -0.769646
v -2.532802 4.763402 -0.539705
v -2.830877 4.264898 0.176543
v -0.968680 4.850312 1.244332
v -0.778444 5.298410 -0.831825
v -1.310369 5.369068 -0.243980
v -0.763976 5.299294 -0.014724
v -0.256533 5.106543 -0.262360
v -1.396012 5.098681 -1.292496
v -1.592845 5.293576 -0.764057
v -0.888569 4.905929 -1.540129
v -0.342175 4.836156 -1.310877
v -0.059699 4.911646 -0.790795
v 0.362588 4.339498 -0.677746
v -0.115117 4.211831 -1.557268
v -1.752463 5.113058 0.246992
v -0.828437 4.995061 0.634696
v -1.039142 4.329827 -1.944972
v -1.897297 4.655799 -1.526187
v -2.230169 4.985392 -0.632529
v 0.029715 4.669091 0.215912
v -0.569540 5.240376 0.583559
v -1.092117 5.030118 1.050462
v -0.612528 4.807330 1.195900
v -0.143340 4.748665 0.918030
v -1.114985 5.390965 0.119762
v -1.319315 5.274547 0.615228
v -0.645795 5.332300 -0.158108
v -0.166205 5.109512 -0.012671
v 0.060993 4.865083 0.422561
v 0.403948 4.340152 0.210614
v 0.019727 4.753516 -0.525424
v -1.546119 4.619249 1.272476
v -0.735067 4.242485 1.518429
v -0.791323 5.130280 -0.771378
v -1.584786 5.229490 -0.301463
v -1.930340 5.032611 0.536441
v 0.058396 4.143275 1.048514
v -0.533658 5.060476 -0.438097
v -0.514729 4.962091 0.171863
v -0.112496 4.753686 -0.027453
v -0.001516 4.625492 -0.471953
v -1.155092 5.138457 -0.367201
v -0.951623 5.126822 0.048741
v -1.044112 5.010264 -0.811699
v -0.641877 4.801857 -1.011018
v -0.204987 4.637129 -0.887896
v -0.047338 4.066627 -1.169937
v -0.786183 4.345205 -1.378153
v -0.571157 4.616185 0.622260
v 0.109074 4.263740 0.285186
v -1.466413 4.697650 -1.041080
v -1.654095 4.914442 -0.289375
v -1.310001 4.894765 0.414045
v 0.296757 4.046950 -0.466522
v -0.698286 5.408672 0.632449
v -1.337370 5.190782 0.914211
v -0.924328 4.993917 1.216592
v -0.388755 4.946978 1.108186
v -1.067972 5.520405 0.011048
v -1.418398 5.411036 0.418518
v -0.532402 5.473466 -0.097360
v -0.119359 5.276603 0.205020
v -0.038329 5.056346 0.700716
v 0.370958 4.540411 0.634500
v 0.233929 4.912895 -0.203788
v -1.825892 4.767757 0.995552
v -1.127383 4.434836 1.506915
v -0.464581 5.245815 -0.715150
v -1.370307 5.325198 -0.531824
v -1.962925 5.140242 0.157267
v -0.221658 4.355453 1.323589
v 0.651785 4.785113 0.809417
v 0.700858 4.275027 1.259019
v 1.167948 4.426528 1.117536
v 1.323610 4.709717 0.721659
v 0.016132 4.564563 0.699691
v 0.216871 4.320942 1.101556
v 0.171794 4.847752 0.303816
v 0.638884 4.999253 0.162336
v 1.122871 4.953338 0.319798
v 1.476615 4.839219 -0.172330
v 0.658129 4.916867 -0.438619
v 0.762933 3.692106 1.416019
v 1.552848 3.948311 1.176758
v -0.131787 4.660659 -0.199357
v -0.395031 4.181751 0.470121
v -0.055550 3.769750 1.149731
v 1.816092 4.427220 0.507282
v 0.704161 5.209360 -0.862323
v 0.728552 5.173132 -0.108647
v 1.254557 5.185753 -0.317016
v 1.449729 5.092884 -0.840026
v 0.001170 4.941200 -0.800438
v 0.200854 5.075416 -0.288218
v 0.196342 4.848334 -1.323452
v 0.722346 4.860956 -1.531818
v 1.250042 4.958671 -1.352244
v 1.660469 4.485985 -1.625314
v 0.768061 4.320735 -1.928993
v 0.778553 4.848669 0.477782
v 1.668098 4.870013 0.125406
v -0.121485 4.299392 -1.576616
v -0.451548 4.456443 -0.692131
v -0.113856 4.683419 0.174103
v 1.998163 4.712959 -0.759079
v 1.687573 5.319878 -0.101160
v 1.604675 5.098326 0.551243
v 2.046389 4.906235 0.354765
v 2.215080 4.870313 -0.136017
v 1.004402 5.441683 -0.095819
v 1.165725 5.321857 0.384005
v 1.173094 5.405759 -0.586600
v 1.614808 5.213668 -0.783080
v 2.053757 4.990138 -0.615840
v 2.185663 4.507090 -0.994529
v 1.443339 4.885112 -1.277354
v 1.426202 4.690053 0.979166
v 2.173198 4.365201 0.646893
v 0.696342 5.209963 -0.945078
v 0.411058 5.270715 -0.115105
v 0.683878 5.068073 0.696344
v 2.458481 4.304451 -0.183083
v 0.351741 5.243029 0.543507
v -0.048798 4.766920 0.841744
v 0.393091 4.814655 1.106241
v 0.844729 5.031210 0.977273
v -0.027372 5.138099 -0.023343
v -0.241286 4.892407 0.378378
v 0.424265 5.354654 -0.152310
v 0.866155 5.402389 0.112186
v 1.058641 5.276903 0.575551
v 1.635853 5.053740 0.494096
v 1.310330 5.265954 -0.289519
v -0.236976 4.191287 0.944265
v 0.510319 4.272014 1.391564
v 0.563034 5.185227 -0.736817
v -0.200742 4.819001 -0.518716
v -0.562497 4.403502 0.160652
v 1.274094 4.638242 1.173460
v 1.526733 5.024738 -0.795795
v 1.041951 5.179772 -0.238218
v 1.540389 5.023141 -0.020766
v 1.981870 4.758219 -0.255652
v 0.916721 4.941675 -1.232745
v 0.765589 5.156590 -0.731516
v 1.358202 4.676752 -1.467627
v 1.856638 4.520123 -1.250180
v 2.133002 4.543302 -0.756877
v 2.431453 3.938428 -0.649649
v 1.964086 3.899224 -1.483884
v 0.586341 5.014783 0.227474
v 1.429264 4.749899 0.595215
v 1.121159 4.164108 -1.851624
v 0.374556 4.612131 -1.454403
v 0.118971 4.975580 -0.606760
v 2.175867 4.301877 0.197994
v 1.712050 4.935578 0.546711
v 1.188960 4.826778 0.989572
v 1.599406 4.538478 1.127522
v 2.027623 4.405146 0.863960
v 1.228030 5.167500 0.106795
v 1.017772 5.093024 0.576749
v 1.656250 5.034167 -0.156767
v 2.066696 4.745866 -0.018819
v 2.237885 4.479621 0.394003
v 2.470176 3.932114 0.192969
v 2.180678 4.382370 -0.505171
v 0.696302 4.519206 1.200155
v 1.390424 4.031649 1.433443
v 1.486556 4.869926 -0.738460
v 0.762381 5.095409 -0.292741
v 0.406803 4.969460 0.502019
v 2.114599 3.806167 0.987724
v 1.715429 4.761613 -0.422340
v 1.716627 4.666590 0.156213
v 2.057260 4.404669 -0.032840
v 2.139408 4.266402 -0.454452
v 1.148306 4.938471 -0.355094
v 1.336319 4.893539 0.039431
v 1.230454 4.800205 -0.776705
v 1.571090 4.538283 -0.965760
v 1.951393 4.311337 -0.848978
v 2.003050 3.752311 -1.116497
v 1.359902 4.136109 -1.313992
v 1.606026 4.353095 0.583418
v 2.182084 3.910149 0.263701
v 0.783844 4.579055 -0.994275
v 0.644921 4.812881 -0.281275
v 0.962877 4.736895 0.385925
v 2.321007 3.676325 -0.449301
v 1.620031 5.114258 0.593083
v 0.986891 5.017842 0.860337
v 1.339549 4.764887 1.147149
v 1.831706 4.631386 1.044325
v 1.293598 5.280475 0.003678
v 0.948121 5.237043 0.390167
v 1.785754 5.146975 -0.099147
v 2.138412 4.894020 0.187663
v 2.177183 4.674818 0.657835
v 2.472908 4.124601 0.595029
v 2.407346 4.495303 -0.200096
v 0.459967 4.704701 0.937490
v 1.056359 4.276921 1.422522
v 1.810952 4.923081 -0.685127
v 0.978647 5.148851 -0.511241
v 0.394401 5.075402 0.142368
v 1.888663 4.051152 1.248636
v -0.247288 5.554600 -1.189621
v -0.229748 5.528547 -0.647633
v 0.148517 5.537623 -0.797476
v 0.288868 5.470839 -1.173587
v -0.752828 5.361759 -1.145118
v -0.609230 5.458277 -0.776767
v -0.612475 5.294976 -1.521231
v -0.234211 5.304053 -1.671072
v 0.145269 5.374322 -1.541936
v 0.440418 5.034401 -1.738308
v -0.201336 4.915566 -1.956692
v -0.193792 5.295218 -0.225916
v 0.445904 5.310566 -0.479319
v -0.841032 4.900218 -1.703288
v -1.078390 5.013157 -1.067231
v -0.835546 5.176382 -0.444300
v 0.683262 5.197625 -1.115375
v 0.459910 5.634076 -0.642249
v 0.400295 5.474752 -0.173089
v 0.717943 5.336615 -0.314381
v 0.839253 5.310782 -0.667315
v -0.031377 5.721669 -0.638408
v 0.084635 5.635499 -0.293353
v 0.089933 5.695835 -0.991341
v 0.407581 5.557698 -1.132635
v 0.723242 5.396951 -1.012369
v 0.818098 5.049578 -1.284694
v 0.284274 5.321424 -1.488081
v 0.271951 5.181152 0.134642
v 0.809135 4.947543 -0.104304
v -0.252912 5.555033 -1.249133
v -0.458067 5.598722 -0.652277
v -0.261875 5.452997 -0.068743
v 1.014289 4.903856 -0.701161
v 0.315890 5.389277 1.178347
v 0.249246 5.212571 1.615108
v 0.559987 5.096485 1.483965
v 0.687015 5.092750 1.150672
v -0.154668 5.459589 1.170661
v -0.052263 5.363328 1.498504
v -0.027639 5.455853 0.837369
v 0.283101 5.339767 0.706223
v 0.584610 5.189010 0.822829
v 0.692928 4.874496 0.549590
v 0.183033 5.129447 0.352394
v 0.125780 4.914342 1.889441
v 0.651283 4.718025 1.667658
v -0.342470 5.325763 0.574180
v -0.557292 5.332082 1.137819
v -0.384115 5.169292 1.692248
v 0.866105 4.711708 1.104017
v -0.543800 5.069725 1.443462
v -0.830664 4.742521 1.629131
v -0.532174 4.762539 1.819588
v -0.217170 4.907223 1.744681
v -0.794360 5.016621 1.045688
v -0.952029 4.842116 1.311131
v -0.479358 5.161305 0.970781
v -0.180866 5.181322 1.161238
v -0.059502 5.081728 1.479238
v 0.334430 4.922184 1.428796
v 0.129185 5.090612 0.891015
v -0.969709 4.348537 1.682286
v -0.464921 4.382390 2.004375
v -0.375602 5.056759 0.568926
v -0.908315 4.812077 0.695604
v -1.174953 4.516965 1.144506
v 0.067790 4.627073 1.877695
v 0.322574 4.961580 1.497744
v -0.117726 4.898679 1.666879
v 0.114936 4.713485 1.863870
v 0.452258 4.617127 1.799343
v 0.112378 5.093993 1.091899
v -0.132296 5.060364 1.349265
v 0.449696 4.997636 1.027371
v 0.682360 4.812442 1.224361
v 0.696930 4.650756 1.541976
v 0.892985 4.270868 1.491393
v 0.868345 4.544302 0.954263
v -0.484708 4.690138 1.702621
v -0.091245 4.376952 2.035758
v 0.474881 4.857487 0.621127
v -0.095575 5.020443 0.730249
v -0.509350 4.963572 1.165493
v 0.479209 4.213997 1.926635
v 1.424323 4.398527 -0.230995
v 1.237929 4.266403 0.411105
v 1.779785 4.209898 0.379832
v 2.108541 4.144545 -0.023640
v 0.769390 4.246955 -0.407227
v 0.805670 4.284391 0.100803
v 1.098145 4.181603 -0.810697
v 1.640004 4.125098 -0.841971
v 2.072258 4.107111 -0.531671
v 2.542869 3.589999 -0.715252
v 1.811866 3.620418 -1.240013
v 1.131904 3.859386 0.879109
v 2.048258 3.763827 0.826222
v 0.895513 3.715977 -1.187126
v 0.339545 3.826496 -0.504803
v 0.400898 3.889806 0.354349
v 2.604225 3.653310 0.143896
v 0.143587 4.626151 -0.120143
v 0.485106 4.469793 -0.688834
v -0.047846 4.455445 -0.805166
v -0.477171 4.421974 -0.505665
v 0.712958 4.427755 0.225437
v 0.817867 4.459650 -0.273351
v 0.283635 4.394285 0.524937
v -0.249322 4.379936 0.408604
v -0.582078 4.390080 -0.006876
v -1.123619 3.913543 0.040315
v -0.560881 3.896387 0.742950
v 0.681138 4.048350 -1.112967
v -0.220162 4.024083 -1.309701
v 0.340418 3.920654 0.939684
v 1.066460 3.977258 0.433188
v 1.243879 4.031195 -0.410332
v -0.946205 3.967482 -0.803203
v -1.501625 4.545008 0.167765
v -1.139037 4.399239 -0.390602
v -1.667667 4.359757 -0.520098
v -2.102540 4.309544 -0.231126
v -0.932888 4.375649 0.529463
v -0.816849 4.407843 0.033166
v -1.367760 4.325437 0.818435
v -1.896394 4.285955 0.688938
v -2.218576 4.277352 0.265173
v -2.739143 3.777232 0.303544
v -2.194285 3.791780 1.020190
v -0.913492 3.983361 -0.805459
v -1.807480 3.916590 -1.024456
v -1.300297 3.858551 1.239186
v -0.564871 3.943468 0.750496
v -0.368631 3.997910 -0.088813
v -2.542906 3.831675 -0.535763
v -0.194001 4.911633 1.419148
v -0.634360 4.713534 1.607826
v -0.334555 4.601296 1.828141
v 0.047996 4.604855 1.759858
v -0.452435 4.968134 0.973305
v -0.698575 4.865550 1.255990
v -0.069886 4.971694 0.905022
v 0.229921 4.859454 1.125336
v 0.294135 4.707439 1.477172
v 0.618707 4.371487 1.435430
v 0.510112 4.628566 0.840428
v -0.951504 4.381792 1.656385
v -0.444491 4.191981 2.028966
v 0.003100 4.818375 0.467847
v -0.643845 4.812356 0.583322
v -1.060099 4.638870 1.061384
v 0.202452 4.198003 1.913490
v 1.480479 3.987124 0.976860
v 2.060717 3.942549 1.040820
v 1.940030 3.770525 0.655538
v 1.546796 3.645667 0.505944
v 1.461491 4.046252 1.559010
v 1.877977 4.061915 1.421552
v 1.068258 3.921393 1.409415
v 0.947569 3.749368 1.024132
v 1.130311 3.630002 0.643402
v 0.925142 3.163396 0.499524
v 0.616101 3.365261 1.143393
v 2.498585 3.691956 1.171616
v 2.294485 3.401039 0.520053
v 0.820204 3.656178 1.794957
v 1.485211 3.867331 2.047945
v 2.189547 3.893820 1.815485
v 1.629476 3.189887 0.267067
v 2.028574 3.983205 2.103620
v 2.376271 3.636120 2.415800
v 2.579779 3.758545 2.049764
v 2.425922 3.934067 1.681106
v 1.590553 3.752861 2.410044
v 1.972119 3.626734 2.580003
v 1.436697 3.928383 2.041388
v 1.640205 4.050807 1.675349
v 2.044356 4.060194 1.511150
v 2.023598 3.895840 1.011301
v 1.340123 3.879966 1.288988
v 2.584913 3.178671 2.541188
v 2.929073 3.385709 1.922169
v 0.995965 3.672928 1.908007
v 1.256157 3.376097 2.531453
v 1.901439 3.162797 2.818874
v 2.668878 3.682541 1.298724
v 2.091336 3.965451 1.029313
v 2.332828 3.906540 1.559374
v 2.619808 3.783822 1.250855
v 2.562640 3.682678 0.827650
v 1.576180 3.953969 1.307224
v 1.902242 3.981163 1.599703
v 1.519011 3.852824 0.884021
v 1.805989 3.730107 0.575502
v 2.236577 3.655482 0.535171
v 2.302818 3.212185 0.253015
v 1.574635 3.338384 0.321214
v 2.465593 3.636757 1.985077
v 2.950911 3.429225 1.463330
v 1.089319 3.545916 0.842963
v 1.185995 3.716966 1.558659
v 1.737414 3.762957 2.053280
v 2.854235 3.258174 0.747634
v 1.932927 3.795863 1.425978
v 2.096751 3.605232 1.954726
v 2.432633 3.572189 1.674205
v 2.444335 3.583747 1.235650
v 1.384005 3.703292 1.607273
v 1.661334 3.659147 1.944528
v 1.395707 3.714849 1.168720
v 1.731587 3.681806 0.888198
v 2.167006 3.627891 0.898395
v 2.299580 3.274610 0.526737
v 1.563227 3.365789 0.509488
v 2.180772 3.236291 2.313134
v 2.748790 3.180411 1.838733
v 0.995211 3.421669 0.983890
v 0.975418 3.402123 1.725545
v 1.444421 3.327471 2.295888
v 2.768582 3.199956 1.097079
vt 1.989704 0.730351
vt 1.866370 0.750091
vt 1.878464 0.719151
vt 1.991473 0.711673
vt 1.988156 0.702642
vt 1.870660 0.687727
vt 1.801578 0.685118
vt 1.796772 0.751332
vt 1.801000 0.718009
vt 1.976848 0.766601
vt 1.992019 0.721130
vt 1.980037 0.747699
vt 1.983608 0.694042
vt 1.984857 0.738970
vt 1.979867 0.685119
vt 1.977181 0.757034
vt 1.978504 0.675628
vt 1.684137 0.739793
vt 1.686736 0.751723
vt 1.684203 0.716129
vt 1.686217 0.704673
vt 1.693613 0.670065
vt 1.691675 0.681642
vt 1.688888 0.693189
vt 1.689967 0.763243
vt 1.683553 0.727766
vt 1.526202 1.474333
vt 1.509012 1.479740
vt 1.501154 1.474082
vt 1.518547 1.479740
vt 1.693862 0.658197
vt 1.498139 1.464838
vt 1.691781 0.774818
vt 1.501178 1.455630
vt 0.609939 1.827005
vt 0.604297 1.871149
vt 1.529398 1.465480
vt 0.781169 1.883800
vt 0.780013 1.866509
vt 1.518874 1.450029
vt 1.509045 1.449986
vt 0.601216 1.895218
vt 1.526783 1.456040
vt 0.776905 1.829424
vt 0.600143 1.738809
vt 0.778291 1.751268
vt 0.601962 1.762245
vt 0.609266 1.806144
vt 0.774931 1.769566
vt 0.775256 1.809353
vt 0.600143 1.919255
vt 0.783137 1.734540
vt 0.601906 1.714282
vt 0.606464 1.785012
vt 0.787334 1.718107
vt 0.606277 1.689459
vt 0.607825 1.848485
vt 0.781708 1.900825
vt 0.774545 1.789169
vt 0.778422 1.848503
vt 0.923303 1.770441
vt 0.928957 1.869758
vt 0.929953 1.884927
vt 0.917356 1.784461
vt 0.914200 1.813136
vt 0.920632 1.841017
vt 0.916561 1.827046
vt 0.914512 1.798991
vt 1.076478 1.844198
vt 1.089009 1.870561
vt 1.081314 1.776672
vt 1.070710 1.831103
vt 1.090683 1.885369
vt 0.930081 1.756491
vt 0.934264 1.742276
vt 1.073357 1.789332
vt 0.925302 1.855090
vt 1.089337 1.764251
vt 1.067785 1.817320
vt 1.242662 1.861902
vt 1.083489 1.856975
vt 1.068776 1.803217
vt 1.240817 1.872960
vt 1.093959 1.750255
vt 1.256415 1.832599
vt 1.364819 1.834309
vt 1.247248 1.851760
vt 1.243441 1.770535
vt 1.245745 1.792609
vt 1.257302 1.822356
vt 1.250678 1.802534
vt 1.252611 1.842353
vt 1.243097 1.781736
vt 1.255346 1.812226
vt 1.363882 1.816066
vt 1.352742 1.789832
vt 1.356389 1.851043
vt 1.352761 1.780680
vt 1.361188 1.842940
vt 1.365753 1.825132
vt 1.359499 1.807487
vt 1.355153 1.798867
vt 1.788228 0.939260
vt 1.859512 0.970695
vt 1.800789 0.978649
vt 1.791145 0.948862
vt 1.858260 0.949720
vt 1.350648 1.868397
vt 1.352389 1.859401
vt 1.799133 0.968151
vt 1.860215 0.981490
vt 1.789885 0.919872
vt 1.862156 0.909729
vt 1.860468 0.992306
vt 1.794210 0.910539
vt 1.858281 0.939662
vt 1.799471 0.989247
vt 1.860402 0.919990
vt 1.858777 0.960061
vt 1.684173 0.937930
vt 1.801024 0.890461
vt 1.862858 0.899094
vt 1.687323 0.946161
vt 1.862326 0.888237
vt 1.859115 0.929827
vt 1.795369 0.958287
vt 1.798532 0.900861
vt 1.787822 0.929491
vt 1.695008 0.979572
vt 1.691595 0.953981
vt 1.683553 0.929271
vt 1.696486 0.970796
vt 1.685558 0.920787
vt 1.694195 0.904746
vt 1.689891 0.912816
vt 1.696685 0.896151
vt 1.964431 0.941850
vt 1.961007 0.888237
vt 1.966856 0.920710
vt 1.957718 0.973524
vt 1.963952 0.898783
vt 1.962000 0.952365
vt 1.695127 0.962111
vt 1.966265 0.931362
vt 1.959467 0.962934
vt 1.958901 0.994958
vt 1.541731 1.450863
vt 1.550488 1.450863
vt 1.534700 1.455829
vt 1.966324 0.909703
vt 1.557705 1.456061
vt 1.957530 0.984214
vt 1.560474 1.464550
vt 1.710106 1.108276
vt 1.683553 1.117139
vt 1.534166 1.472630
vt 1.699661 1.104976
vt 1.689493 1.108628
vt 1.550457 1.478191
vt 1.557682 1.473007
vt 1.531765 1.463959
vt 1.541430 1.478150
vt 1.709961 1.136374
vt 1.689621 1.136063
vt 1.683553 1.127474
vt 1.699718 1.139540
vt 1.716400 1.117101
vt 1.707641 0.996157
vt 1.716322 1.127778
vt 1.716792 1.002545
vt 1.706792 1.032676
vt 1.683553 1.013538
vt 1.696201 1.031392
vt 1.696527 0.996157
vt 1.687292 1.002681
vt 1.717171 1.024709
vt 1.720719 1.013477
vt 1.686957 1.024553
vt 1.707681 1.031476
vt 1.715986 1.060221
vt 1.695755 1.066668
vt 1.686837 1.060070
vt 1.706830 1.066749
vt 1.715620 1.038838
vt 1.683553 1.049444
vt 1.719408 1.049385
vt 1.687160 1.038969
vt 1.700845 1.067949
vt 1.683553 1.091208
vt 1.700904 1.103776
vt 1.690227 1.071231
vt 1.683634 1.080141
vt 1.717600 1.091169
vt 1.696070 1.032676
vt 1.690077 1.100356
vt 1.711443 1.099991
vt 1.531765 1.429090
vt 1.546558 1.417919
vt 1.556151 1.420950
vt 1.537220 1.421273
vt 1.711311 1.071553
vt 1.561932 1.429055
vt 1.717600 1.080456
vt 1.561860 1.438861
vt 1.718800 1.089310
vt 1.744414 1.097376
vt 1.531765 1.438582
vt 1.724791 1.097712
vt 1.734735 1.100853
vt 1.546611 1.449663
vt 1.556019 1.446756
vt 1.750069 1.089274
vt 1.537337 1.446470
vt 1.734681 1.067949
vt 1.750069 1.079435
vt 0.500000 0.500000
vt 1.744293 1.071259
vt 1.718874 1.079146
vt 0.757387 0.597317
vt 1.724929 1.070963
vt 0.618652 0.762926
vt 0.999900 0.689010
vt 0.237074 0.618653
vt 0.381347 0.237074
vt 0.000100 0.310990
vt 0.000100 0.725594
vt 0.597317 0.242613
vt 0.402683 0.757387
vt 0.242613 0.402683
vt 0.762926 0.381347
vt 0.689010 0.000100
vt 0.310990 0.999900
vt 0.500000 0.500000
vt 0.999900 0.274406
vt 0.725594 0.999900
vt 0.757387 0.597317
vt 0.274406 0.000100
vt 0.618652 0.762926
vt 0.999900 0.689010
vt 0.237074 0.618653
vt 0.381347 0.237074
vt 0.000100 0.310990
vt 0.000100 0.725594
vt 0.597317 0.242613
vt 0.402683 0.757387
vt 0.242613 0.402683
vt 0.762926 0.381347
vt 0.689010 0.000100
vt 0.310990 0.999900
vt 0.500000 0.500000
vt 0.999900 0.274406
vt 0.725594 0.999900
vt 0.757387 0.597317
vt 0.274406 0.000100
vt 0.618652 0.762926
vt 0.999900 0.689010
vt 0.237074 0.618653
vt 0.381347 0.237074
vt 0.000100 0.310990
vt 0.000100 0.725594
vt 0.597317 0.242613
vt 0.402683 0.757387
vt 0.242613 0.402683
vt 0.762926 0.381347
vt 0.689010 0.000100
vt 0.310990 0.999900
vt 0.500000 0.500000
vt 0.999900 0.274406
vt 0.725594 0.999900
vt 0.757387 0.597317
vt 0.274406 0.000100
vt 0.618652 0.762926
vt 0.999900 0.689010
vt 0.237074 0.618653
vt 0.381347 0.237074
vt 0.000100 0.310990
vt 0.000100 0.725594
vt 0.597317 0.242613
vt 0.402683 0.757387
vt 0.242613 0.402683
vt 0.762926 0.381347
vt 0.689010 0.000100
vt 0.310990 0.999900
vt 0.500000 0.500000
vt 0.999900 0.274406
vt 0.725594 0.999900
vt 0.757387 0.597317
vt 0.274406 0.000100
vt 0.618652 0.762926
vt 0.999900 0.689010
vt 0.237074 0.618653
vt 0.381347 0.237074
vt 0.000100 0.310990
vt 0.000100 0.725594
vt 0.597317 0.242613
vt 0.402683 0.757387
vt 0.242613 0.402683
vt 0.762926 0.381347
vt 0.689010 0.000100
vt 0.310990 0.999900
vt 0.500000 0.500000
vt 0.999900 0.274406
vt 0.725594 0.999900
vt 0.757387 0.597317
vt 0.274406 0.000100
vt 0.618652 0.762926
vt 0.999900 0.689010
vt 0.237074 0.618653
vt 0.381347 0.237074
vt 0.000100 0.310990
vt 0.000100 0.725594
vt 0.597317 0.242613
vt 0.402683 0.757387
vt 0.242613 0.402683
vt 0.762926 0.381347
vt 0.689010 0.000100
vt 0.310990 0.999900
vt 0.500000 0.500000
vt 0.999900 0.274406
vt 0.725594 0.999900
vt 0.757387 0.597317
vt 0.274406 0.000100
vt 0.618652 0.762926
vt 0.999900 0.689010
vt 0.237074 0.618653
vt 0.381347 0.237074
vt 0.000100 0.310990
vt 0.000100 0.725594
vt 0.597317 0.242613
vt 0.402683 0.757387
vt 0.242613 0.402683
vt 0.762926 0.381347
vt 0.689010 0.000100
vt 0.310990 0.999900
vt 0.500000 0.500000
vt 0.999900 0.274406
vt 0.725594 0.999900
vt 0.757387 0.597317
vt 0.274406 0.000100
vt 0.618652 0.762926
vt 0.999900 0.689010
vt 0.237074 0.618653
vt 0.381347 0.237074
vt 0.000100 0.310990
vt 0.000100 0.725594
vt 0.597317 0.242613
vt 0.402683 0.757387
vt 0.242613 0.402683
vt 0.762926 0.381347
vt 0.689010 0.000100
vt 0.310990 0.999900
vt 0.500000 0.500000
vt 0.999900 0.274406
vt 0.725594 0.999900
vt 0.757387 0.597317
vt 0.274406 0.000100
vt 0.618652 0.762926
vt 0.999900 0.689010
vt 0.237074 0.618653
vt 0.381347 0.237074
vt 0.000100 0.310990
vt 0.000100 0.725594
vt 0.597317 0.242613
vt 0.402683 0.757387
vt 0.242613 0.402683
vt 0.762926 0.381347
vt 0.689010 0.000100
vt 0.310990 0.999900
vt 0.500000 0.500000
vt 0.999900 0.274406
vt 0.725594 0.999900
vt 0.757387 0.597317
vt 0.274406 0.000100
vt 0.618652 0.762926
vt 0.999900 0.689010
vt 0.237074 0.618653
vt 0.381347 0.237074
vt 0.000100 0.310990
vt 0.000100 0.725594
vt 0.597317 0.242613
vt 0.402683 0.757387
vt 0.242613 0.402683
vt 0.762926 0.381347
vt 0.689010 0.000100
vt 0.310990 0.999900
vt 0.500000 0.500000
vt 0.999900 0.274406
vt 0.725594 0.999900
vt 0.757387 0.597317
vt 0.274406 0.000100
vt 0.618652 0.762926
vt 0.999900 0.689010
vt 0.237074 0.618653
vt 0.381347 0.237074
vt 0.000100 0.310990
vt 0.000100 0.725594
vt 0.597317 0.242613
vt 0.402683 0.757387
vt 0.242613 0.402683
vt 0.762926 0.381347
vt 0.689010 0.000100
vt 0.310990 0.999900
vt 0.500000 0.500000
vt 0.999900 0.274406
vt 0.725594 0.999900
vt 0.757387 0.597317
vt 0.274406 0.000100
vt 0.618652 0.762926
vt 0.999900 0.689010
vt 0.237074 0.618653
vt 0.381347 0.237074
vt 0.000100 0.310990
vt 0.000100 0.725594
vt 0.597317 0.242613
vt 0.402683 0.757387
vt 0.242613 0.402683
vt 0.762926 0.381347
vt 0.689010 0.000100
vt 0.310990 0.999900
vt 0.500000 0.500000
vt 0.999900 0.274406
vt 0.725594 0.999900
vt 0.757387 0.597317
vt 0.274406 0.000100
vt 0.618652 0.762926
vt 0.999900 0.689010
vt 0.237074 0.618653
vt 0.381347 0.237074
vt 0.000100 0.310990
vt 0.000100 0.725594
vt 0.597317 0.242613
vt 0.402683 0.757387
vt 0.242613 0.402683
vt 0.762926 0.381347
vt 0.689010 0.000100
vt 0.310990 0.999900
vt 0.500000 0.500000
vt 0.999900 0.274406
vt 0.725594 0.999900
vt 0.757387 0.597317
vt 0.274406 0.000100
vt 0.618652 0.762926
vt 0.999900 0.689010
vt 0.237074 0.618653
vt 0.381347 0.237074
vt 0.000100 0.310990
vt 0.000100 0.725594
vt 0.597317 0.242613
vt 0.402683 0.757387
vt 0.242613 0.402683
vt 0.762926 0.381347
vt 0.689010 0.000100
vt 0.310990 0.999900
vt 0.500000 0.500000
vt 0.999900 0.274406
vt 0.725594 0.999900
vt 0.757387 0.597317
vt 0.274406 0.000100
vt 0.618652 0.762926
vt 0.999900 0.689010
vt 0.237074 0.618653
vt 0.381347 0.237074
vt 0.000100 0.310990
vt 0.000100 0.725594
vt 0.597317 0.242613
vt 0.402683 0.757387
vt 0.242613 0.402683
vt 0.762926 0.381347
vt 0.689010 0.000100
vt 0.310990 0.999900
vt 0.500000 0.500000
vt 0.999900 0.274406
vt 0.725594 0.999900
vt 0.757387 0.597317
vt 0.274406 0.000100
vt 0.618652 0.762926
vt 0.999900 0.689010
vt 0.237074 0.618653
vt 0.381347 0.237074
vt 0.000100 0.310990
vt 0.000100 0.725594
vt 0.597317 0.242613
vt 0.402683 0.757387
vt 0.242613 0.402683
vt 0.762926 0.381347
vt 0.689010 0.000100
vt 0.310990 0.999900
vt 0.500000 0.500000
vt 0.999900 0.274406
vt 0.725594 0.999900
vt 0.757387 0.597317
vt 0.274406 0.000100
vt 0.618652 0.762926
vn 0.212100 0.914900 0.343600
vn 0.243000 -0.970000 -0.008500
vn 0.231100 0.929000 0.289000
vn 0.897000 0.419900 -0.138300
vn 0.689700 0.529100 0.494300
vn 0.864200 -0.087000 0.495500
vn -0.680300 -0.545800 -0.489200
vn -0.860000 0.006800 -0.510200
vn 0.683800 -0.666500 0.296900
vn 0.266100 0.943000 -0.199600
vn -0.331300 0.768000 -0.548100
vn -0.245700 0.796700 0.552200
vn 0.737400 0.457200 0.497200
vn 0.129800 0.989200 0.068300
vn -0.144900 0.436800 0.887800
vn 0.293400 0.954500 0.053300
vn 0.186800 0.594900 0.781800
vn -0.089000 0.243500 0.965800
vn 0.083200 0.980200 0.179800
vn -0.609200 0.775000 0.167700
vn -0.279100 0.950200 -0.138400
vn 0.189400 0.981000 0.042300
vn -0.680700 0.558100 0.474400
vn 0.251400 0.834300 0.490700
vn -0.284400 0.955600 0.077300
vn -0.505600 0.389700 0.769700
vn -0.819000 0.408700 0.402600
vn 0.451000 0.785000 0.424800
vn -0.277300 0.937000 -0.212600
vn -0.562000 0.227400 0.795300
vn 0.321700 0.489200 0.810700
vn -0.258600 0.921700 0.289100
vn -0.694300 0.719200 0.026900
vn 0.096200 0.982400 0.160200
vn -0.230000 0.842200 0.487700
vn 0.120500 0.829500 -0.545300
vn -0.573000 0.628700 -0.525700
vn -0.185400 0.561800 -0.806200
vn 0.247800 0.741200 -0.623900
vn -0.709100 0.683600 -0.172500
vn 0.224500 0.953900 -0.199000
vn -0.225900 0.715900 -0.660600
vn -0.597300 0.781600 0.179800
vn -0.843700 0.517800 -0.141300
vn 0.428300 0.886100 -0.177300
vn 0.261900 0.961700 0.081100
vn -0.668300 0.680000 0.301500
vn 0.216800 0.936300 0.276400
vn 0.232700 0.798500 0.555200
vn -0.637300 0.484900 -0.598900
vn 0.576500 0.701700 0.418600
vn 0.201400 0.663400 0.720600
vn 0.570900 0.763900 -0.300900
vn -0.126100 0.951900 -0.279200
vn 0.191100 0.777500 -0.599100
vn 0.639900 0.649000 -0.411500
vn -0.240300 0.966900 0.085400
vn 0.698100 0.713800 0.056300
vn 0.225100 0.882200 -0.413500
vn -0.120500 0.889700 0.440300
vn -0.443000 0.892900 0.080600
vn 0.835500 0.548000 0.040900
vn -0.464200 0.805800 0.367700
vn -0.242600 0.809600 0.534500
vn 0.647000 0.569700 0.506800
vn -0.693500 0.416800 0.587700
vn -0.249700 0.889000 -0.383800
vn -0.375000 0.492600 0.785300
vn -0.739900 0.212200 0.638400
vn 0.052700 0.919500 0.389600
vn -0.423200 0.893000 -0.153100
vn 0.044400 0.995200 -0.087400
vn 0.224500 0.900400 0.372700
vn -0.725900 0.686400 -0.044000
vn -0.085300 0.722000 0.686600
vn -0.117800 0.991500 0.054900
vn -0.850800 0.466200 0.242600
vn -0.784100 0.579500 -0.222300
vn 0.088600 0.628000 0.773200
vn 0.229100 0.937900 -0.260600
vn -0.928500 0.321900 0.185000
vn -0.321300 0.355600 0.877700
vn -0.106200 0.988200 0.110000
vn -0.382800 0.866700 -0.320000
vn 0.237200 0.933500 0.269000
vn -0.245800 0.932400 0.264800
vn 0.692500 0.682900 -0.232700
vn 0.156700 0.679200 -0.717000
vn 0.589100 0.472900 -0.655300
vn 0.806100 0.553700 -0.208600
vn -0.160400 0.817100 -0.553700
vn 0.560800 0.822100 0.098300
vn 0.506600 0.650900 -0.565400
vn -0.298500 0.929800 -0.215400
vn -0.319700 0.699300 -0.639400
vn 0.663000 0.706000 0.249000
vn 0.310700 0.888800 0.337000
vn -0.458600 0.868800 -0.186600
vn 0.225100 0.873500 0.431600
vn -0.047300 0.749300 0.660500
vn 0.122400 0.549000 -0.826800
vn 0.278800 0.579500 0.765800
vn -0.201600 0.628600 0.751100
vn 0.752400 0.620200 0.222000
vn 0.255400 0.948700 -0.186400
vn 0.667100 0.703100 -0.246300
vn 0.855000 0.490300 0.169100
vn -0.063000 0.997800 0.019600
vn 0.606000 0.555500 0.569300
vn 0.590300 0.804000 -0.071600
vn -0.218200 0.908100 0.357400
vn -0.223000 0.967100 -0.122000
vn 0.688500 0.364600 0.626900
vn 0.378200 0.911700 -0.160500
vn -0.383700 0.857800 0.342000
vn 0.250500 0.438500 0.863100
vn 0.390400 0.836000 0.385700
vn 0.220700 0.909600 -0.352000
vn 0.699300 0.678500 0.225000
vn 0.379200 0.710300 0.593000
vn 0.597800 0.604700 -0.526300
vn -0.094400 0.859300 -0.502700
vn 0.204000 0.573400 -0.793400
vn 0.651700 0.473200 -0.592800
vn -0.177400 0.978400 -0.106500
vn 0.772500 0.613600 -0.163300
vn 0.252400 0.725800 -0.639900
vn 0.002800 0.955300 0.295500
vn -0.418200 0.905200 -0.075800
vn 0.877200 0.450700 -0.165600
vn 0.156700 0.911800 0.379500
vn -0.128800 0.889400 0.438600
vn 0.780300 0.546700 0.303800
vn -0.282400 0.767200 0.575800
vn -0.240700 0.764200 -0.598300
vn -0.003000 0.615300 0.788300
vn -0.453900 0.642800 0.617000
vn 0.620000 0.659200 0.425500
vn 0.272600 0.952500 -0.135700
vn 0.688800 0.723400 -0.048300
vn 0.738100 0.532400 0.414500
vn -0.096900 0.994200 -0.046100
vn 0.370800 0.599400 0.709400
vn 0.556300 0.826300 0.087500
vn -0.350500 0.908600 0.227100
vn -0.201200 0.952100 -0.230300
vn 0.436000 0.414100 0.799000
vn -0.101200 0.827500 0.552200
vn -0.500400 0.850700 0.161200
vn -0.057000 0.476300 0.877400
vn -0.065500 0.455500 0.887800
vn 0.294700 0.906700 -0.301700
vn 0.288900 0.552500 0.781800
vn -0.044600 0.255400 0.965800
vn 0.254900 0.950100 0.179800
vn -0.462900 0.870400 0.167700
vn -0.107000 0.984600 -0.138400
vn 0.359600 0.932200 0.042300
vn -0.571500 0.669500 0.474400
vn 0.394700 0.776800 0.490700
vn -0.111300 0.990800 0.077300
vn -0.428800 0.472900 0.769700
vn -0.734000 0.546900 0.402600
vn 0.582500 0.693100 0.424800
vn -0.107500 0.971200 -0.212600
vn -0.513000 0.323100 0.795300
vn 0.403000 0.424800 0.810700
vn -0.091900 0.952900 0.289100
vn -0.556400 0.830500 0.026900
vn 0.268100 0.950000 0.160200
vn -0.077700 0.869500 0.487700
vn 0.265100 0.795200 -0.545300
vn -0.453000 0.720000 -0.525700
vn -0.083400 0.585700 -0.806200
vn 0.374700 0.685800 -0.623900
vn -0.577300 0.798100 -0.172500
vn 0.389400 0.899300 -0.199000
vn -0.096000 0.744500 -0.660600
vn -0.449900 0.874800 0.179800
vn -0.739100 0.658700 -0.141300
vn 0.578000 0.796600 -0.177300
vn 0.427600 0.900300 0.081100
vn -0.537800 0.787300 0.301500
vn 0.378600 0.883300 0.276400
vn 0.370000 0.744900 0.555200
vn -0.541700 0.589800 -0.598900
vn 0.691300 0.588900 0.418600
vn 0.315300 0.617500 0.720600
vn 0.696800 0.651100 -0.300900
vn 0.043900 0.959200 -0.279200
vn 0.325400 0.731500 -0.599100
vn 0.744400 0.525900 -0.411500
vn -0.065800 0.994200 0.085400
vn 0.813100 0.579400 0.056300
vn 0.377300 0.828600 -0.413500
vn 0.038400 0.897000 0.440300
vn -0.278400 0.957100 0.080600
vn 0.919100 0.391900 0.040900
vn -0.314600 0.875100 0.367700
vn -0.095800 0.839700 0.534500
vn 0.737400 0.446500 0.506800
vn -0.609000 0.532700 0.587700
vn -0.088800 0.919100 -0.383800
vn -0.282100 0.551000 0.785300
vn -0.690800 0.339500 0.638400
vn 0.214200 0.895700 0.389600
vn -0.258900 0.953700 -0.153100
vn 0.219400 0.971700 -0.087400
vn 0.379900 0.846600 0.372700
vn -0.593300 0.803800 -0.044000
vn 0.043500 0.725700 0.686600
vn 0.059100 0.996700 0.054900
vn -0.755100 0.609000 0.242600
vn -0.669500 0.708800 -0.222300
vn 0.198100 0.602400 0.773200
vn 0.391100 0.882700 -0.260600
vn -0.857100 0.480700 0.185000
vn -0.253400 0.406700 0.877700
vn 0.069900 0.991500 0.110000
vn -0.223800 0.920600 -0.320000
vn 0.398300 0.876900 0.269000
vn -0.077400 0.961200 0.264800
vn 0.802100 0.549900 -0.232700
vn 0.274100 0.640900 -0.717000
vn 0.663300 0.361400 -0.655300
vn 0.891200 0.402700 -0.208600
vn -0.013700 0.832600 -0.553700
vn 0.697200 0.710100 0.098300
vn 0.613600 0.551300 -0.565400
vn -0.129700 0.967900 -0.215400
vn -0.191200 0.744700 -0.639400
vn 0.777200 0.577900 0.249000
vn 0.462700 0.820000 0.337000
vn -0.298100 0.936100 -0.186600
vn 0.375800 0.820100 0.431600
vn 0.085700 0.745900 0.660500
vn 0.217400 0.518800 -0.826800
vn 0.376700 0.521200 0.765800
vn -0.087400 0.654300 0.751100
vn 0.850100 0.477600 0.222000
vn 0.418900 0.888700 -0.186400
vn 0.780700 0.574300 -0.246300
vn 0.928100 0.331700 0.169100
vn 0.114100 0.993300 0.019600
vn 0.694600 0.439800 0.569300
vn 0.723000 0.687200 -0.071600
vn -0.054500 0.932300 0.357400
vn -0.048800 0.991300 -0.122000
vn 0.742100 0.237300 0.626900
vn 0.533200 0.830600 -0.160500
vn -0.226300 0.912000 0.342000
vn 0.324000 0.387400 0.863100
vn 0.531900 0.753900 0.385700
vn 0.377800 0.856400 -0.352000
vn 0.808100 0.544400 0.225000
vn 0.498600 0.632200 0.593000
vn 0.695200 0.489600 -0.526300
vn 0.058800 0.862500 -0.502700
vn 0.302000 0.528400 -0.793400
vn 0.724900 0.350700 -0.592800
vn -0.001900 0.994300 -0.106500
vn 0.868700 0.467600 -0.163300
vn 0.376600 0.669800 -0.639900
vn 0.171400 0.939900 0.295500
vn -0.251800 0.964800 -0.075800
vn 0.943000 0.288800 -0.165600
vn 0.315200 0.869800 0.379500
vn 0.030200 0.898200 0.438600
vn 0.864500 0.400400 0.303800
vn -0.142500 0.805000 0.575800
vn -0.102000 0.794700 -0.598300
vn 0.105600 0.606200 0.788300
vn -0.333300 0.712900 0.617000
vn 0.726600 0.539400 0.425500
vn 0.436400 0.889500 -0.135700
vn 0.805700 0.590400 -0.048300
vn 0.820500 0.393700 0.414500
vn 0.080100 0.995700 -0.046100
vn 0.470800 0.524500 0.709400
vn 0.693500 0.715200 0.087500
vn -0.184600 0.956200 0.227100
vn -0.030000 0.972700 -0.230300
vn 0.502300 0.330600 0.799000
vn 0.398300 0.906200 0.141700
vn -0.342400 0.925600 0.161200
vn 0.028000 0.478900 0.877400
vn 0.330200 0.724600 0.604900
vn 0.450200 0.840400 -0.301800
vn 0.660100 0.584900 0.471300
vn 0.274000 0.587200 0.761700
vn 0.686800 0.684900 -0.243500
vn 0.024800 0.973400 -0.227800
vn 0.322800 0.770700 -0.549400
vn 0.741500 0.567000 -0.358700
vn -0.097500 0.986100 0.134400
vn 0.793700 0.597700 0.113200
vn 0.366000 0.859300 -0.357400
vn -0.001800 0.873400 0.487100
vn -0.308600 0.943500 0.120500
vn 0.905500 0.414400 0.091700
vn -0.306500 0.868700 0.389100
vn -0.137300 0.807500 0.573600
vn 0.707500 0.439300 0.553500
vn -0.613800 0.525500 0.589100
vn -0.103300 0.935200 -0.338700
vn -0.292200 0.530100 0.796000
vn -0.701000 0.332500 0.630900
vn 0.221800 0.877200 0.425900
vn -0.234800 0.963700 -0.127000
vn 0.241800 0.969200 -0.047900
vn 0.386900 0.825100 0.411700
vn -0.575200 0.817400 -0.032200
vn 0.039500 0.700900 0.712200
vn 0.078200 0.992800 0.090800
vn -0.748800 0.616600 0.243100
vn -0.648300 0.730200 -0.215600
vn 0.189100 0.571500 0.798500
vn 0.322500 0.849400 0.417600
vn -0.851800 0.492600 0.178400
vn -0.269100 0.382100 0.884100
vn -0.141700 0.788000 0.599200
vn -0.195800 0.935600 -0.293900
vn 0.096300 0.576700 0.811300
vn -0.335400 0.698600 0.632000
vn 0.725600 0.508900 0.463200
vn 0.458300 0.883900 -0.093200
vn 0.818700 0.574200 -0.006300
vn 0.816700 0.361600 0.449700
vn 0.101900 0.994700 -0.009600
vn 0.461800 0.489800 0.739500
vn 0.705400 0.696600 0.130700
vn -0.171000 0.951700 0.254900
vn -0.003500 0.980300 -0.197400
vn 0.486800 0.292400 0.823100
vn 0.087000 0.993000 -0.080200
vn -0.327500 0.926800 0.183800
vn 0.013700 0.448200 0.893800
vn -0.072700 0.895700 0.438600
vn 0.475600 0.840300 -0.260400
vn 0.306600 0.859200 0.409500
vn -0.115100 0.762300 0.636900
vn 0.510900 0.797200 -0.321600
vn -0.186300 0.805100 -0.563200
vn 0.272600 0.651300 -0.708100
vn 0.625100 0.695000 -0.355200
vn -0.439800 0.867700 -0.231700
vn 0.530800 0.843900 0.078100
vn 0.209800 0.802500 -0.558600
vn -0.418500 0.883900 0.208600
vn -0.637000 0.716900 -0.283300
vn 0.676800 0.725500 0.124700
vn -0.027600 0.997900 0.058900
vn -0.562900 0.770200 0.300000
vn 0.392700 0.757800 0.521100
vn 0.257800 0.880300 -0.398200
vn -0.248600 0.672100 -0.697500
vn -0.116900 0.873500 -0.472700
vn 0.341500 0.740900 -0.578300
vn -0.514800 0.839100 0.176000
vn 0.090000 0.797400 0.596600
vn -0.401600 0.681600 0.611600
vn -0.641400 0.746500 0.177000
vn 0.427500 0.835100 0.346200
vn -0.422600 0.880700 -0.214100
vn -0.289200 0.825100 0.485400
vn 0.526900 0.845800 -0.083400
vn 0.591100 0.670600 0.448200
vn -0.559500 0.773100 -0.299000
vn -0.073900 0.996100 0.048200
vn 0.681200 0.719900 -0.133200
vn -0.177400 0.777100 -0.603800
vn 0.228000 0.887500 -0.400400
vn 0.103300 0.662200 0.742100
vn -0.144000 0.863100 -0.484100
vn 0.322500 0.750400 -0.577000
vn -0.556300 0.816400 0.154600
vn 0.038800 0.805900 0.590700
vn -0.447300 0.668200 0.594600
vn -0.678700 0.718200 0.153400
vn 0.380500 0.856600 0.348400
vn -0.456200 0.858700 -0.233400
vn -0.338300 0.815400 0.469800
vn 0.490200 0.868000 -0.078700
vn 0.548700 0.700600 0.456200
vn -0.585900 0.744300 -0.320600
vn 0.060400 0.920300 0.386600
vn 0.651300 0.748800 -0.123200
vn -0.196800 0.762900 -0.615800
vn -0.367200 0.733300 0.572300
vn 0.054400 0.672800 0.737800
vn -0.079400 0.607400 0.790400
vn -0.526900 0.592800 0.609000
vn 0.544500 0.712700 0.442100
vn 0.183300 0.975000 -0.125700
vn 0.617400 0.786100 -0.029800
vn 0.674500 0.597800 0.433200
vn -0.190400 0.980700 -0.044400
vn 0.296000 0.627700 0.720000
vn 0.472800 0.875100 0.103400
vn -0.440600 0.869700 0.222600
vn -0.286000 0.929900 -0.231100
vn 0.376600 0.449000 0.810300
vn -0.154100 0.919300 -0.362200
vn -0.582800 0.798100 0.153100
vn -0.121800 0.463400 0.877800
vn 0.344300 0.886400 -0.309300
vn 0.213400 0.932500 -0.291400
vn 0.250600 0.724100 -0.642600
vn 0.537100 0.802000 -0.261600
vn -0.461000 0.600600 -0.653300
vn -0.515500 0.856600 0.019900
vn -0.768000 0.575500 -0.281100
vn -0.536100 0.455000 -0.711000
vn -0.171400 0.975700 0.136600
vn -0.098000 0.631000 -0.769600
vn -0.613600 0.720200 -0.323700
vn 0.196000 0.980100 0.030500
vn -0.165500 0.923500 0.346000
vn -0.065400 0.453900 -0.888700
vn 0.133200 0.915300 0.380200
vn 0.302400 0.939400 0.161700
vn 0.372000 0.612600 -0.697400
vn 0.435000 0.620400 0.652700
vn -0.605700 0.781800 0.148100
vn 0.619700 0.711800 0.330600
vn 0.533800 0.441200 0.721400
vn 0.146400 0.978500 -0.145500
vn -0.390600 0.862000 0.323200
vn -0.334200 0.930200 -0.151800
vn 0.141800 0.938600 -0.314500
vn -0.245100 0.721400 0.647700
vn 0.477900 0.878200 0.016800
vn -0.202100 0.979300 0.011800
vn 0.082600 0.595300 0.799200
vn -0.392700 0.578900 0.714600
vn 0.592300 0.792500 -0.145000
vn 0.142800 0.958100 -0.248300
vn 0.060300 0.449700 0.891200
vn 0.745700 0.598300 0.293000
vn 0.351500 0.913200 0.206400
vn -0.543700 0.789900 0.283600
vn 0.606400 0.793400 -0.052300
vn 0.415800 0.821200 0.390800
vn 0.269700 0.680600 -0.681200
vn -0.360900 0.854000 -0.374600
vn -0.201900 0.614400 -0.762800
vn 0.295800 0.544000 -0.785200
vn -0.299700 0.954000 -0.010600
vn 0.549200 0.720500 -0.423300
vn -0.101900 0.761300 -0.640300
vn -0.024100 0.966800 0.254300
vn -0.471300 0.876800 0.095100
vn 0.685300 0.558800 -0.467100
vn 0.122200 0.992100 0.029400
vn -0.079200 0.909300 0.408600
vn 0.725600 0.687900 0.017400
vn 0.263900 0.834000 0.484600
vn -0.509000 0.765300 -0.394000
vn 0.560600 0.790300 0.247400
vn 0.305600 0.698400 0.647200
vn 0.327200 0.839200 -0.434400
vn -0.350600 0.915600 -0.196800
vn -0.122500 0.788100 -0.603200
vn 0.376200 0.734900 -0.564300
vn -0.349500 0.918400 0.185600
vn 0.563000 0.815500 -0.134200
vn -0.050400 0.899900 -0.433200
vn -0.117200 0.866700 0.484900
vn -0.530100 0.813300 0.239900
vn 0.713100 0.673200 -0.195800
vn 0.000000 1.000000 0.000000
vn -0.190900 0.769900 0.608900
vn 0.674100 0.672400 0.305800
vn 0.000000 1.000000 0.000000
vn -0.488800 0.832400 -0.261200
vn 0.000000 1.000000 0.000000
vn 0.000000 1.000000 0.000000
vn 0.000000 1.000000 0.000000
vn 0.000000 1.000000 0.000000
vn 0.000000 1.000000 0.000000
vn 0.000000 1.000000 0.000000
vn 0.000000 1.000000 0.000000
vn 0.000000 1.000000 0.000000
vn 0.000000 1.000000 0.000000
vn 0.000000 1.000000 0.000000
vn 0.000000 1.000000 0.000000
vn 0.000000 1.000000 0.000000
vn 0.000000 1.000000 0.000000
vn 0.000000 1.000000 0.000000
vn 0.000000 1.000000 0.000000
vn 0.000000 1.000000 0.000000
vn 0.000000 1.000000 0.000000
vn 0.000000 1.000000 0.000000
f 1/1/1 2/2/2 3/3/3
f 1/1/1 3/3/3 4/4/4
f 5/5/5 6/6/6 2/2/2
f 5/5/5 2/2/2 1/1/1
f 7/7/7 5/5/5 1/1/1
f 7/7/7 1/1/1 8/8/8
f 8/8/8 1/1/1 4/4/4
f 8/8/8 4/4/4 9/9/9
f 8/8/8 9/9/9 10/10/10
f 8/8/8 10/10/10 11/11/11
f 3/3/3 2/2/2 12/12/12
f 3/3/3 12/12/12 13/13/13
f 7/7/7 8/8/8 11/11/11
f 7/7/7 11/11/11 14/14/14
f 5/5/5 7/7/7 14/14/14
f 5/5/5 14/14/14 15/15/15
f 2/2/2 6/6/6 16/16/16
f 2/2/2 16/16/16 12/12/12
f 9/9/9 4/4/4 17/17/17
f 9/9/9 17/17/17 10/10/10
f 6/6/6 5/5/5 15/15/15
f 6/6/6 15/15/15 16/16/16
f 4/4/4 3/3/3 13/13/13
f 4/4/4 13/13/13 17/17/17
f 18/18/18 19/19/19 20/20/20
f 18/18/18 20/20/20 21/21/21
f 22/22/22 23/23/23 19/19/19
f 22/22/22 19/19/19 18/18/18
f 24/24/24 22/22/22 18/18/18
f 24/24/24 18/18/18 25/25/25
f 25/25/25 18/18/18 21/21/21
f 25/25/25 21/21/21 26/26/26
f 25/25/25 26/26/26 27/27/27
f 25/25/25 27/27/27 28/28/28
f 20/20/20 19/19/19 29/29/29
f 20/20/20 29/29/29 30/30/30
f 24/24/24 25/25/25 28/28/28
f 24/24/24 28/28/28 31/31/31
f 22/22/22 24/24/24 31/31/31
f 22/22/22 31/31/31 32/32/32
f 19/19/19 23/23/23 33/33/33
f 19/19/19 33/33/33 29/29/29
f 26/26/26 21/21/21 34/34/34
f 26/26/26 34/34/34 27/27/27
f 23/23/23 22/22/22 32/32/32
f 23/23/23 32/32/32 33/33/33
f 21/21/21 20/20/20 30/30/30
f 21/21/21 30/30/30 34/34/34
f 35/35/35 36/36/36 37/37/37
f 35/35/35 37/37/37 38/38/38
f 39/39/39 40/40/40 36/36/36
f 39/39/39 36/36/36 35/35/35
f 41/41/41 39/39/39 35/35/35
f 41/41/41 35/35/35 42/42/42
f 42/42/42 35/35/35 38/38/38
f 42/42/42 38/38/38 43/43/43
f 42/42/42 43/43/43 44/44/44
f 42/42/42 44/44/44 45/45/45
f 37/37/37 36/36/36 46/46/46
f 37/37/37 46/46/46 47/47/47
f 41/41/41 42/42/42 45/45/45
f 41/41/41 45/45/45 48/48/48
f 39/39/39 41/41/41 48/48/48
f 39/39/39 48/48/48 49/49/49
f 36/36/36 40/40/40 50/50/50
f 36/36/36 50/50/50 46/46/46
f 43/43/43 38/38/38 51/51/51
f 43/43/43 51/51/51 44/44/44
f 40/40/40 39/39/39 49/49/49
f 40/40/40 49/49/49 50/50/50
f 38/38/38 37/37/37 47/47/47
f 38/38/38 47/47/47 51/51/51
f 52/52/52 53/53/53 54/54/54
f 52/52/52 54/54/54 55/55/55
f 56/56/56 57/57/57 53/53/53
f 56/56/56 53/53/53 52/52/52
f 58/58/58 56/56/56 52/52/52
f 58/58/58 52/52/52 59/59/59
f 59/59/59 52/52/52 55/55/55
f 59/59/59 55/55/55 60/60/60
f 59/59/59 60/60/60 61/61/61
f 59/59/59 61/61/61 62/62/62
f 54/54/54 53/53/53 63/63/63
f 54/54/54 63/63/63 64/64/64
f 58/58/58 59/59/59 62/62/62
f 58/58/58 62/62/62 65/65/65
f 56/56/56 58/58/58 65/65/65
f 56/56/56 65/65/65 66/66/66
f 53/53/53 57/57/57 67/67/67
f 53/53/53 67/67/67 63/63/63
f 60/60/60 55/55/55 68/68/68
f 60/60/60 68/68/68 61/61/61
f 57/57/57 56/56/56 66/66/66
f 57/57/57 66/66/66 67/67/67
f 55/55/55 54/54/54 64/64/64
f 55/55/55 64/64/64 68/68/68
f 69/69/69 70/70/70 71/71/71
f 69/69/69 71/71/71 72/72/72
f 73/73/73 74/74/74 70/70/70
f 73/73/73 70/70/70 69/69/69
f 75/75/75 73/73/73 69/69/69
f 75/75/75 69/69/69 76/76/76
f 76/76/76 69/69/69 72/72/72
f 76/76/76 72/72/72 77/77/77
f 76/76/76 77/77/77 78/78/78
f 76/76/76 78/78/78 79/79/79
f 71/71/71 70/70/70 80/80/80
f 71/71/71 80/80/80 81/81/81
f 75/75/75 76/76/76 79/79/79
f 75/75/75 79/79/79 82/82/82
f 73/73/73 75/75/75 82/82/82
f 73/73/73 82/82/82 83/83/83
f 70/70/70 74/74/74 84/84/84
f 70/70/70 84/84/84 80/80/80
f 77/77/77 72/72/72 85/85/85
f 77/77/77 85/85/85 78/78/78
f 74/74/74 73/73/73 83/83/83
f 74/74/74 83/83/83 84/84/84
f 72/72/72 71/71/71 81/81/81
f 72/72/72 81/81/81 85/85/85
f 86/86/86 87/87/87 88/88/88
f 86/86/86 88/88/88 89/89/89
f 90/90/90 91/91/91 87/87/87
f 90/90/90 87/87/87 86/86/86
f 92/92/92 90/90/90 86/86/86
f 92/92/92 86/86/86 93/93/93
f 93/93/93 86/86/86 89/89/89
f 93/93/93 89/89/89 94/94/94
f 93/93/93 94/94/94 95/95/95
f 93/93/93 95/95/95 96/96/96
f 88/88/88 87/87/87 97/97/97
f 88/88/88 97/97/97 98/98/98
f 92/92/92 93/93/93 96/96/96
f 92/92/92 96/96/96 99/99/99
f 90/90/90 92/92/92 99/99/99
f 90/90/90 99/99/99 100/100/100
f 87/87/87 91/91/91 101/101/101
f 87/87/87 101/101/101 97/97/97
f 94/94/94 89/89/89 102/102/102
f 94/94/94 102/102/102 95/95/95
f 91/91/91 90/90/90 100/100/100
f 91/91/91 100/100/100 101/101/101
f 89/89/89 88/88/88 98/98/98
f 89/89/89 98/98/98 102/102/102
f 103/103/103 104/104/104 105/105/105
f 103/103/103 105/105/105 106/106/106
f 107/107/107 108/108/108 104/104/104
f 107/107/107 104/104/104 103/103/103
f 109/109/109 107/107/107 103/103/103
f 109/109/109 103/103/103 110/110/110
f 110/110/110 103/103/103 106/106/106
f 110/110/110 106/106/106 111/111/111
f 110/110/110 111/111/111 112/112/112
f 110/110/110 112/112/112 113/113/113
f 105/105/105 104/104/104 114/114/114
f 105/105/105 114/114/114 115/115/115
f 109/109/109 110/110/110 113/113/113
f 109/109/109 113/113/113 116/116/116
f 107/107/107 109/109/109 116/116/116
f 107/107/107 116/116/116 117/117/117
f 104/104/104 108/108/108 118/118/118
f 104/104/104 118/118/118 114/114/114
f 111/111/111 106/106/106 119/119/119
f 111/111/111 119/119/119 112/112/112
f 108/108/108 107/107/107 117/117/117
f 108/108/108 117/117/117 118/118/118
f 106/106/106 105/105/105 115/115/115
f 106/106/106 115/115/115 119/119/119
f 120/120/120 121/121/121 122/122/122
f 120/120/120 122/122/122 123/123/123
f 124/124/124 125/125/125 121/121/121
f 124/124/124 121/121/121 120/120/120
f 126/126/126 124/124/124 120/120/120
f 126/126/126 120/120/120 127/127/127
f 127/127/127 120/120/120 123/123/123
f 127/127/127 123/123/123 128/128/128
f 127/127/127 128/128/128 129/129/129
f 127/127/127 129/129/129 130/130/130
f 122/122/122 121/121/121 131/131/131
f 122/122/122 131/131/131 132/132/132
f 126/126/126 127/127/127 130/130/130
f 126/126/126 130/130/130 133/133/133
f 124/124/124 126/126/126 133/133/133
f 124/124/124 133/133/133 134/134/134
f 121/121/121 125/125/125 135/135/135
f 121/121/121 135/135/135 131/131/131
f 128/128/128 123/123/123 136/136/136
f 128/128/128 136/136/136 129/129/129
f 125/125/125 124/124/124 134/134/134
f 125/125/125 134/134/134 135/135/135
f 123/123/123 122/122/122 132/132/132
f 123/123/123 132/132/132 136/136/136
f 137/137/137 138/138/138 139/139/139
f 137/137/137 139/139/139 140/140/140
f 141/141/141 142/142/142 138/138/138
f 141/141/141 138/138/138 137/137/137
f 143/143/143 141/141/141 137/137/137
f 143/143/143 137/137/137 144/144/144
f 144/144/144 137/137/137 140/140/140
f 144/144/144 140/140/140 145/145/145
f 144/144/144 145/145/145 146/146/146
f 144/144/144 146/146/146 147/147/147
f 139/139/139 138/138/138 148/148/148
f 139/139/139 148/148/148 149/149/149
f 143/143/143 144/144/144 147/147/147
f 143/143/143 147/147/147 150/150/150
f 141/141/141 143/143/143 150/150/150
f 141/141/141 150/150/150 151/151/151
f 138/138/138 142/142/142 152/152/152
f 138/138/138 152/152/152 148/148/148
f 145/145/145 140/140/140 153/153/153
f 145/145/145 153/153/153 146/146/146
f 142/142/142 141/141/141 151/151/151
f 142/142/142 151/151/151 152/152/152
f 140/140/140 139/139/139 149/149/149
f 140/140/140 149/149/149 153/153/153
f 154/154/154 155/155/155 156/156/156
f 154/154/154 156/156/156 157/157/157
f 158/158/158 159/159/159 155/155/155
f 158/158/158 155/155/155 154/154/154
f 160/160/160 158/158/158 154/154/154
f 160/160/160 154/154/154 161/161/161
f 161/161/161 154/154/154 157/157/157
f 161/161/161 157/157/157 162/162/162
f 161/161/161 162/162/162 163/163/163
f 161/161/161 163/163/163 164/164/164
f 156/156/156 155/155/155 165/165/165
f 156/156/156 165/165/165 166/166/166
f 160/160/160 161/161/161 164/164/164
f 160/160/160 164/164/164 167/167/167
f 158/158/158 160/160/160 167/167/167
f 158/158/158 167/167/167 168/168/168
f 155/155/155 159/159/159 169/169/169
f 155/155/155 169/169/169 165/165/165
f 162/162/162 157/157/157 170/170/170
f 162/162/162 170/170/170 163/163/163
f 159/159/159 158/158/158 168/168/168
f 159/159/159 168/168/168 169/169/169
f 157/157/157 156/156/156 166/166/166
f 157/157/157 166/166/166 170/170/170
f 171/171/171 172/172/172 173/173/173
f 171/171/171 173/173/173 174/174/174
f 175/175/175 176/176/176 172/172/172
f 175/175/175 172/172/172 171/171/171
f 177/177/177 175/175/175 171/171/171
f 177/177/177 171/171/171 178/178/178
f 178/178/178 171/171/171 174/174/174
f 178/178/178 174/174/174 179/179/179
f 178/178/178 179/179/179 180/180/180
f 178/178/178 180/180/180 181/181/181
f 173/173/173 172/172/172 182/182/182
f 173/173/173 182/182/182 183/183/183
f 177/177/177 178/178/178 181/181/181
f 177/177/177 181/181/181 184/184/184
f 175/175/175 177/177/177 184/184/184
f 175/175/175 184/184/184 185/185/185
f 172/172/172 176/176/176 186/186/186
f 172/172/172 186/186/186 182/182/182
f 179/179/179 174/174/174 187/187/187
f 179/179/179 187/187/187 180/180/180
f 176/176/176 175/175/175 185/185/185
f 176/176/176 185/185/185 186/186/186
f 174/174/174 173/173/173 183/183/183
f 174/174/174 183/183/183 187/187/187
f 188/188/188 189/189/189 190/190/190
f 188/188/188 190/190/190 191/191/191
f 192/192/192 193/193/193 189/189/189
f 192/192/192 189/189/189 188/188/188
f 194/194/194 192/192/192 188/188/188
f 194/194/194 188/188/188 195/195/195
f 195/195/195 188/188/188 191/191/191
f 195/195/195 191/191/191 196/196/196
f 195/195/195 196/196/196 197/197/197
f 195/195/195 197/197/197 198/198/198
f 190/190/190 189/189/189 199/199/199
f 190/190/190 199/199/199 200/200/200
f 194/194/194 195/195/195 198/198/198
f 194/194/194 198/198/198 201/201/201
f 192/192/192 194/194/194 201/201/201
f 192/192/192 201/201/201 202/202/202
f 189/189/189 193/193/193 203/203/203
f 189/189/189 203/203/203 199/199/199
f 196/196/196 191/191/191 204/204/204
f 196/196/196 204/204/204 197/197/197
f 193/193/193 192/192/192 202/202/202
f 193/193/193 202/202/202 203/203/203
f 191/191/191 190/190/190 200/200/200
f 191/191/191 200/200/200 204/204/204
f 205/205/205 206/206/206 207/207/207
f 205/205/205 207/207/207 208/208/208
f 209/209/209 210/210/210 206/206/206
f 209/209/209 206/206/206 205/205/205
f 211/211/211 209/209/209 205/205/205
f 211/211/211 205/205/205 212/212/212
f 212/212/212 205/205/205 208/208/208
f 212/212/212 208/208/208 213/213/213
f 212/212/212 213/213/213 214/214/214
f 212/212/212 214/214/214 215/215/215
f 207/207/207 206/206/206 216/216/216
f 207/207/207 216/216/216 217/217/217
f 211/211/211 212/212/212 215/215/215
f 211/211/211 215/215/215 218/218/218
f 209/209/209 211/211/211 218/218/218
f 209/209/209 218/218/218 219/219/219
f 206/206/206 210/210/210 220/220/220
f 206/206/206 220/220/220 216/216/216
f 213/213/213 208/208/208 221/221/221
f 213/213/213 221/221/221 214/214/214
f 210/210/210 209/209/209 219/219/219
f 210/210/210 219/219/219 220/220/220
f 208/208/208 207/207/207 217/217/217
f 208/208/208 217/217/217 221/221/221
f 222/222/222 223/223/223 224/224/224
f 222/222/222 224/224/224 225/225/225
f 226/226/226 227/227/227 223/223/223
f 226/226/226 223/223/223 222/222/222
f 228/228/228 226/226/226 222/222/222
f 228/228/228 222/222/222 229/229/229
f 229/229/229 222/222/222 225/225/225
f 229/229/229 225/225/225 230/230/230
f 229/229/229 230/230/230 231/231/231
f 229/229/229 231/231/231 232/232/232
f 224/224/224 223/223/223 233/233/233
f 224/224/224 233/233/233 234/234/234
f 228/228/228 229/229/229 232/232/232
f 228/228/228 232/232/232 235/235/235
f 226/226/226 228/228/228 235/235/235
f 226/226/226 235/235/235 236/236/236
f 223/223/223 227/227/227 237/237/237
f 223/223/223 237/237/237 233/233/233
f 230/230/230 225/225/225 238/238/238
f 230/230/230 238/238/238 231/231/231
f 227/227/227 226/226/226 236/236/236
f 227/227/227 236/236/236 237/237/237
f 225/225/225 224/224/224 234/234/234
f 225/225/225 234/234/234 238/238/238
f 239/239/239 240/240/240 241/241/241
f 239/239/239 241/241/241 242/242/242
f 243/243/243 244/244/244 240/240/240
f 243/243/243 240/240/240 239/239/239
f 245/245/245 243/243/243 239/239/239
f 245/245/245 239/239/239 246/246/246
f 246/246/246 239/239/239 242/242/242
f 246/246/246 242/242/242 247/247/247
f 246/246/246 247/247/247 248/248/248
f 246/246/246 248/248/248 249/249/249
f 241/241/241 240/240/240 250/250/250
f 241/241/241 250/250/250 251/251/251
f 245/245/245 246/246/246 249/249/249
f 245/245/245 249/249/249 252/252/252
f 243/243/243 245/245/245 252/252/252
f 243/243/243 252/252/252 253/253/253
f 240/240/240 244/244/244 254/254/254
f 240/240/240 254/254/254 250/250/250
f 247/247/247 242/242/242 255/255/255
f 247/247/247 255/255/255 248/248/248
f 244/244/244 243/243/243 253/253/253
f 244/244/244 253/253/253 254/254/254
f 242/242/242 241/241/241 251/251/251
f 242/242/242 251/251/251 255/255/255
f 256/256/256 257/257/257 258/258/258
f 256/256/256 258/258/258 259/259/259
f 260/260/260 261/261/261 257/257/257
f 260/260/260 257/257/257 256/256/256
f 262/262/262 260/260/260 256/256/256
f 262/262/262 256/256/256 263/263/263
f 263/263/263 256/256/256 259/259/259
f 263/263/263 259/259/259 264/264/264
f 263/263/263 264/264/264 265/265/265
f 263/263/263 265/265/265 266/266/266
f 258/258/258 257/257/257 267/267/267
f 258/258/258 267/267/267 268/268/268
f 262/262/262 263/263/263 266/266/266
f 262/262/262 266/266/266 269/269/269
f 260/260/260 262/262/262 269/269/269
f 260/260/260 269/269/269 270/270/270
f 257/257/257 261/261/261 271/271/271
f 257/257/257 271/271/271 267/267/267
f 264/264/264 259/259/259 272/272/272
f 264/264/264 272/272/272 265/265/265
f 261/261/261 260/260/260 270/270/270
f 261/261/261 270/270/270 271/271/271
f 259/259/259 258/258/258 268/268/268
f 259/259/259 268/268/268 272/272/272
f 273/273/273 274/274/274 275/275/275
f 273/273/273 275/275/275 276/276/276
f 277/277/277 278/278/278 274/274/274
f 277/277/277 274/274/274 273/273/273
f 279/279/279 277/277/277 273/273/273
f 279/279/279 273/273/273 280/280/280
f 280/280/280 273/273/273 276/276/276
f 280/280/280 276/276/276 281/281/281
f 280/280/280 281/281/281 282/282/282
f 280/280/280 282/282/282 283/283/283
f 275/275/275 274/274/274 284/284/284
f 275/275/275 284/284/284 285/285/285
f 279/279/279 280/280/280 283/283/283
f 279/279/279 283/283/283 286/286/286
f 277/277/277 279/279/279 286/286/286
f 277/277/277 286/286/286 287/287/287
f 274/274/274 278/278/278 288/288/288
f 274/274/274 288/288/288 284/284/284
f 281/281/281 276/276/276 289/289/289
f 281/281/281 289/289/289 282/282/282
f 278/278/278 277/277/277 287/287/287
f 278/278/278 287/287/287 288/288/288
f 276/276/276 275/275/275 285/285/285
f 276/276/276 285/285/285 289/289/289
f 290/290/290 291/291/291 292/292/292
f 290/290/290 292/292/292 293/293/293
f 294/294/294 295/295/295 291/291/291
f 294/294/294 291/291/291 290/290/290
f 296/296/296 294/294/294 290/290/290
f 296/296/296 290/290/290 297/297/297
f 297/297/297 290/290/290 293/293/293
f 297/297/297 293/293/293 298/298/298
f 297/297/297 298/298/298 299/299/299
f 297/297/297 299/299/299 300/300/300
f 292/292/292 291/291/291 301/301/301
f 292/292/292 301/301/301 302/302/302
f 296/296/296 297/297/297 300/300/300
f 296/296/296 300/300/300 303/303/303
f 294/294/294 296/296/296 303/303/303
f 294/294/294 303/303/303 304/304/304
f 291/291/291 295/295/295 305/305/305
f 291/291/291 305/305/305 301/301/301
f 298/298/298 293/293/293 306/306/306
f 298/298/298 306/306/306 299/299/299
f 295/295/295 294/294/294 304/304/304
f 295/295/295 304/304/304 305/305/305
f 293/293/293 292/292/292 302/302/302
f 293/293/293 302/302/302 306/306/306
f 307/307/307 308/308/308 309/309/309
f 307/307/307 309/309/309 310/310/310
f 311/311/311 312/312/312 308/308/308
f 311/311/311 308/308/308 307/307/307
f 313/313/313 311/311/311 307/307/307
f 313/313/313 307/307/307 314/314/314
f 314/314/314 307/307/307 310/310/310
f 314/314/314 310/310/310 315/315/315
f 314/314/314 315/315/315 316/316/316
f 314/314/314 316/316/316 317/317/317
f 309/309/309 308/308/308 318/318/318
f 309/309/309 318/318/318 319/319/319
f 313/313/313 314/314/314 317/317/317
f 313/313/313 317/317/317 320/320/320
f 311/311/311 313/313/313 320/320/320
f 311/311/311 320/320/320 321/321/321
f 308/308/308 312/312/312 322/322/322
f 308/308/308 322/322/322 318/318/318
f 315/315/315 310/310/310 323/323/323
f 315/315/315 323/323/323 316/316/316
f 312/312/312 311/311/311 321/321/321
f 312/312/312 321/321/321 322/322/322
f 310/310/310 309/309/309 319/319/319
f 310/310/310 319/319/319 323/323/323
f 324/324/324 325/325/325 326/326/326
f 324/324/324 326/326/326 327/327/327
f 328/328/328 329/329/329 325/325/325
f 328/328/328 325/325/325 324/324/324
f 330/330/330 328/328/328 324/324/324
f 330/330/330 324/324/324 331/331/331
f 331/331/331 324/324/324 327/327/327
f 331/331/331 327/327/327 332/332/332
f 331/331/331 332/332/332 333/333/333
f 331/331/331 333/333/333 334/334/334
f 326/326/326 325/325/325 335/335/335
f 326/326/326 335/335/335 336/336/336
f 330/330/330 331/331/331 334/334/334
f 330/330/330 334/334/334 337/337/337
f 328/328/328 330/330/330 337/337/337
f 328/328/328 337/337/337 338/338/338
f 325/325/325 329/329/329 339/339/339
f 325/325/325 339/339/339 335/335/335
f 332/332/332 327/327/327 340/340/340
f 332/332/332 340/340/340 333/333/333
f 329/329/329 328/328/328 338/338/338
f 329/329/329 338/338/338 339/339/339
f 327/327/327 326/326/326 336/336/336
f 327/327/327 336/336/336 340/340/340
f 341/341/341 342/342/342 343/343/343
f 341/341/341 343/343/343 344/344/344
f 345/345/345 346/346/346 342/342/342
f 345/345/345 342/342/342 341/341/341
f 347/347/347 345/345/345 341/341/341
f 347/347/347 341/341/341 348/348/348
f 348/348/348 341/341/341 344/344/344
f 348/348/348 344/344/344 349/349/349
f 348/348/348 349/349/349 350/350/350
f 348/348/348 350/350/350 351/351/351
f 343/343/343 342/342/342 352/352/352
f 343/343/343 352/352/352 353/353/353
f 347/347/347 348/348/348 351/351/351
f 347/347/347 351/351/351 354/354/354
f 345/345/345 347/347/347 354/354/354
f 345/345/345 354/354/354 355/355/355
f 342/342/342 346/346/346 356/356/356
f 342/342/342 356/356/356 352/352/352
f 349/349/349 344/344/344 357/357/357
f 349/349/349 357/357/357 350/350/350
f 346/346/346 345/345/345 355/355/355
f 346/346/346 355/355/355 356/356/356
f 344/344/344 343/343/343 353/353/353
f 344/344/344 353/353/353 357/357/357
f 358/358/358 359/359/359 360/360/360
f 358/358/358 360/360/360 361/361/361
f 362/362/362 363/363/363 359/359/359
f 362/362/362 359/359/359 358/358/358
f 364/364/364 362/362/362 358/358/358
f 364/364/364 358/358/358 365/365/365
f 365/365/365 358/358/358 361/361/361
f 365/365/365 361/361/361 366/366/366
f 365/365/365 366/366/366 367/367/367
f 365/365/365 367/367/367 368/368/368
f 360/360/360 359/359/359 369/369/369
f 360/360/360 369/369/369 370/370/370
f 364/364/364 365/365/365 368/368/368
f 364/364/364 368/368/368 371/371/371
f 362/362/362 364/364/364 371/371/371
f 362/362/362 371/371/371 372/372/372
f 359/359/359 363/363/363 373/373/373
f 359/359/359 373/373/373 369/369/369
f 366/366/366 361/361/361 374/374/374
f 366/366/366 374/374/374 367/367/367
f 363/363/363 362/362/362 372/372/372
f 363/363/363 372/372/372 373/373/373
f 361/361/361 360/360/360 370/370/370
f 361/361/361 370/370/370 374/374/374
f 375/375/375 376/376/376 377/377/377
f 375/375/375 377/377/377 378/378/378
f 379/379/379 380/380/380 376/376/376
f 379/379/379 376/376/376 375/375/375
f 381/381/381 379/379/379 375/375/375
f 381/381/381 375/375/375 382/382/382
f 382/382/382 375/375/375 378/378/378
f 382/382/382 378/378/378 383/383/383
f 382/382/382 383/383/383 384/384/384
f 382/382/382 384/384/384 385/385/385
f 377/377/377 376/376/376 386/386/386
f 377/377/377 386/386/386 387/387/387
f 381/381/381 382/382/382 385/385/385
f 381/381/381 385/385/385 388/388/388
f 379/379/379 381/381/381 388/388/388
f 379/379/379 388/388/388 389/389/389
f 376/376/376 380/380/380 390/390/390
f 376/376/376 390/390/390 386/386/386
f 383/383/383 378/378/378 391/391/391
f 383/383/383 391/391/391 384/384/384
f 380/380/380 379/379/379 389/389/389
f 380/380/380 389/389/389 390/390/390
f 378/378/378 377/377/377 387/387/387
f 378/378/378 387/387/387 391/391/391
f 392/392/392 393/393/393 394/394/394
f 392/392/392 394/394/394 395/395/395
f 396/396/396 397/397/397 393/393/393
f 396/396/396 393/393/393 392/392/392
f 398/398/398 396/396/396 392/392/392
f 398/398/398 392/392/392 399/399/399
f 399/399/399 392/392/392 395/395/395
f 399/399/399 395/395/395 400/400/400
f 399/399/399 400/400/400 401/401/401
f 399/399/399 401/401/401 402/402/402
f 394/394/394 393/393/393 403/403/403
f 394/394/394 403/403/403 404/404/404
f 398/398/398 399/399/399 402/402/402
f 398/398/398 402/402/402 405/405/405
f 396/396/396 398/398/398 405/405/405
f 396/396/396 405/405/405 406/406/406
f 393/393/393 397/397/397 407/407/407
f 393/393/393 407/407/407 403/403/403
f 400/400/400 395/395/395 408/408/408
f 400/400/400 408/408/408 401/401/401
f 397/397/397 396/396/396 406/406/406
f 397/397/397 406/406/406 407/407/407
f 395/395/395 394/394/394 404/404/404
f 395/395/395 404/404/404 408/408/408
f 409/409/409 410/410/410 411/411/411
f 409/409/409 411/411/411 412/412/412
f 413/413/413 414/414/414 410/410/410
f 413/413/413 410/410/410 409/409/409
f 415/415/415 413/413/413 409/409/409
f 415/415/415 409/409/409 416/416/416
f 416/416/416 409/409/409 412/412/412
f 416/416/416 412/412/412 417/417/417
f 416/416/416 417/417/417 418/418/418
f 416/416/416 418/418/418 419/419/419
f 411/411/411 410/410/410 420/420/420
f 411/411/411 420/420/420 421/421/421
f 415/415/415 416/416/416 419/419/419
f 415/415/415 419/419/419 422/422/422
f 413/413/413 415/415/415 422/422/422
f 413/413/413 422/422/422 423/423/423
f 410/410/410 414/414/414 424/424/424
f 410/410/410 424/424/424 420/420/420
f 417/417/417 412/412/412 425/425/425
f 417/417/417 425/425/425 418/418/418
f 414/414/414 413/413/413 423/423/423
f 414/414/414 423/423/423 424/424/424
f 412/412/412 411/411/411 421/421/421
f 412/412/412 421/421/421 425/425/425
f 426/426/426 427/427/427 428/428/428
f 426/426/426 428/428/428 429/429/429
f 430/430/430 431/431/431 427/427/427
f 430/430/430 427/427/427 426/426/426
f 432/432/432 430/430/430 426/426/426
f 432/432/432 426/426/426 433/433/433
f 433/433/433 426/426/426 429/429/429
f 433/433/433 429/429/429 434/434/434
f 433/433/433 434/434/434 435/435/435
f 433/433/433 435/435/435 436/436/436
f 428/428/428 427/427/427 437/437/437
f 428/428/428 437/437/437 438/438/438
f 432/432/432 433/433/433 436/436/436
f 432/432/432 436/436/436 439/439/439
f 430/430/430 432/432/432 439/439/439
f 430/430/430 439/439/439 440/440/440
f 427/427/427 431/431/431 441/441/441
f 427/427/427 441/441/441 437/437/437
f 434/434/434 429/429/429 442/442/442
f 434/434/434 442/442/442 435/435/435
f 431/431/431 430/430/430 440/440/440
f 431/431/431 440/440/440 441/441/441
f 429/429/429 428/428/428 438/438/438
f 429/429/429 438/438/438 442/442/442
f 443/443/443 444/444/444 445/445/445
f 443/443/443 445/445/445 446/446/446
f 447/447/447 448/448/448 444/444/444
f 447/447/447 444/444/444 443/443/443
f 449/449/449 447/447/447 443/443/443
f 449/449/449 443/443/443 450/450/450
f 450/450/450 443/443/443 446/446/446
f 450/450/450 446/446/446 451/451/451
f 450/450/450 451/451/451 452/452/452
f 450/450/450 452/452/452 453/453/453
f 445/445/445 444/444/444 454/454/454
f 445/445/445 454/454/454 455/455/455
f 449/449/449 450/450/450 453/453/453
f 449/449/449 453/453/453 456/456/456
f 447/447/447 449/449/449 456/456/456
f 447/447/447 456/456/456 457/457/457
f 444/444/444 448/448/448 458/458/458
f 444/444/444 458/458/458 454/454/454
f 451/451/451 446/446/446 459/459/459
f 451/451/451 459/459/459 452/452/452
f 448/448/448 447/447/447 457/457/457
f 448/448/448 457/457/457 458/458/458
f 446/446/446 445/445/445 455/455/455
f 446/446/446 455/455/455 459/459/459
f 460/460/460 461/461/461 462/462/462
f 460/460/460 462/462/462 463/463/463
f 464/464/464 465/465/465 461/461/461
f 464/464/464 461/461/461 460/460/460
f 466/466/466 464/464/464 460/460/460
f 466/466/466 460/460/460 467/467/467
f 467/467/467 460/460/460 463/463/463
f 467/467/467 463/463/463 468/468/468
f 467/467/467 468/468/468 469/469/469
f 467/467/467 469/469/469 470/470/470
f 462/462/462 461/461/461 471/471/471
f 462/462/462 471/471/471 472/472/472
f 466/466/466 467/467/467 470/470/470
f 466/466/466 470/470/470 473/473/473
f 464/464/464 466/466/466 473/473/473
f 464/464/464 473/473/473 474/474/474
f 461/461/461 465/465/465 475/475/475
f 461/461/461 475/475/475 471/471/471
f 468/468/468 463/463/463 476/476/476
f 468/468/468 476/476/476 469/469/469
f 465/465/465 464/464/464 474/474/474
f 465/465/465 474/474/474 475/475/475
f 463/463/463 462/462/462 472/472/472
f 463/463/463 472/472/472 476/476/476
f 477/477/477 478/478/478 479/479/479
f 477/477/477 479/479/479 480/480/480
f 481/481/481 482/482/482 478/478/478
f 481/481/481 478/478/478 477/477/477
f 483/483/483 481/481/481 477/477/477
f 483/483/483 477/477/477 484/484/484
f 484/484/484 477/477/477 480/480/480
f 484/484/484 480/480/480 485/485/485
f 484/484/484 485/485/485 486/486/486
f 484/484/484 486/486/486 487/487/487
f 479/479/479 478/478/478 488/488/488
f 479/479/479 488/488/488 489/489/489
f 483/483/483 484/484/484 487/487/487
f 483/483/483 487/487/487 490/490/490
f 481/481/481 483/483/483 490/490/490
f 481/481/481 490/490/490 491/491/491
f 478/478/478 482/482/482 492/492/492
f 478/478/478 492/492/492 488/488/488
f 485/485/485 480/480/480 493/493/493
f 485/485/485 493/493/493 486/486/486
f 482/482/482 481/481/481 491/491/491
f 482/482/482 491/491/491 492/492/492
f 480/480/480 479/479/479 489/489/489
f 480/480/480 489/489/489 493/493/493
