# Split Tree_5_leaves mesh for Ursina textured rendering
o Tree_5_leaves
v -2.004820 5.591053 1.754982
v -1.615729 5.326632 1.819334
v -1.577407 5.528759 1.528886
v -1.816587 5.707117 1.334809
v -2.225851 5.274371 2.031217
v -1.875113 5.213975 2.035462
v -2.465030 5.452729 1.837139
v -2.426708 5.654855 1.546693
v -2.167325 5.767513 1.330564
v -2.305175 5.733297 0.925181
v -2.743828 5.542779 1.290683
v -1.372355 4.987710 1.751757
v -1.307545 5.329533 1.260572
v -2.808637 5.200955 1.781868
v -2.404154 4.899330 2.110078
v -1.811009 4.797192 2.117259
v -1.712027 5.631159 0.932363
v -3.037045 5.695760 1.148414
v -2.591412 5.759845 1.420042
v -2.539999 5.881431 1.048646
v -2.752463 5.816487 0.723068
v -3.171568 5.349733 1.520772
v -2.844860 5.541907 1.628908
v -3.384031 5.284791 1.195193
v -3.332619 5.406377 0.823799
v -3.079167 5.624313 0.614933
v -2.991459 5.399545 0.204977
v -3.420086 5.030985 0.558198
v -2.166593 5.628748 1.566527
v -2.079654 5.834366 0.938449
v -3.507023 4.825368 1.186276
v -3.147719 4.935196 1.736876
v -2.595217 5.260188 1.919748
v -2.438960 5.724538 0.387849
v -2.305359 6.102022 0.912372
v -1.910244 6.009313 1.174882
v -1.832892 5.979822 0.822144
v -2.048748 5.947818 0.532905
v -2.554896 6.003782 1.314495
v -2.201071 6.020532 1.390682
v -2.770751 5.971778 1.025255
v -2.693401 5.942289 0.672518
v -2.402574 5.931069 0.456718
v -2.464258 5.616398 0.159434
v -2.956087 5.635372 0.524381
v -1.631662 5.748717 1.373947
v -1.500851 5.698847 0.777419
v -3.086898 5.685243 1.120910
v -2.721856 5.739367 1.610051
v -2.123489 5.767690 1.738895
v -1.865891 5.644723 0.288279
v -2.359858 5.777069 1.892964
v -2.212645 5.401914 2.154736
v -1.927583 5.574916 2.018427
v -1.902121 5.815887 1.751868
v -2.783399 5.551353 1.868369
v -2.568639 5.382490 2.103169
v -2.757935 5.792325 1.601812
v -2.472876 5.965326 1.465501
v -2.116881 5.984751 1.517068
v -1.922331 5.982795 1.128289
v -2.524365 5.949946 1.041083
v -2.084272 4.997138 2.206672
v -1.602199 5.289708 1.976154
v -3.006439 5.657375 1.271602
v -3.049502 5.249861 1.722387
v -2.686309 4.964291 2.119467
v -1.559140 5.697224 1.525368
v -2.686332 5.797662 0.686314
v -2.563667 5.831144 1.196525
v -2.239998 5.883355 0.977729
v -2.167917 5.803227 0.598592
v -3.116824 5.540180 0.843993
v -2.930243 5.692010 1.156237
v -3.044744 5.460053 0.464857
v -2.721077 5.512265 0.246060
v -2.354495 5.651397 0.286349
v -2.056710 5.354203 0.064376
v -2.676640 5.118909 -0.003756
v -2.410441 5.658176 1.603606
v -1.863072 5.746471 1.233592
v -3.224009 5.030614 0.366257
v -3.345904 5.166120 1.007428
v -3.030376 5.422885 1.535473
v -1.741173 5.610966 0.592421
v -1.840233 5.932761 1.087187
v -1.735075 5.775749 1.532060
v -1.455470 5.712709 1.310423
v -1.434231 5.710012 0.948734
v -2.303128 5.908421 1.224142
v -2.087518 5.857035 1.510757
v -2.281886 5.905723 0.862454
v -2.002283 5.842684 0.640815
v -1.649841 5.761399 0.662118
v -1.562544 5.450615 0.367172
v -2.158576 5.588081 0.331144
v -1.706691 5.474884 1.838361
v -1.233839 5.368275 1.463540
v -2.631422 5.694691 0.705965
v -2.667344 5.699251 1.317629
v -2.302717 5.612349 1.802336
v -1.197921 5.363714 0.851876
v -2.351272 5.718664 0.683166
v -1.999551 5.720460 0.890643
v -1.935217 5.621112 0.585852
v -2.116689 5.508893 0.355087
v -2.539989 5.692165 1.053401
v -2.243133 5.754426 1.093814
v -2.721464 5.579948 0.822635
v -2.657136 5.480600 0.517843
v -2.413550 5.446634 0.314674
v -2.420897 5.074699 0.092810
v -2.832826 5.132140 0.436397
v -1.720765 5.537777 1.066854
v -1.611971 5.369765 0.551410
v -2.941622 5.300151 0.951841
v -2.634725 5.489928 1.342096
v -2.132696 5.595219 1.410442
v -1.918868 5.179990 0.161155
v -1.885008 6.027932 1.185045
v -1.918912 5.831539 1.625388
v -1.581614 5.792090 1.499095
v -1.447744 5.823057 1.163838
v -2.366184 5.986353 1.165953
v -2.249698 5.910874 1.500633
v -2.232313 6.017320 0.830696
v -1.895015 5.977872 0.704403
v -1.564233 5.898536 0.829157
v -1.376713 5.617250 0.551823
v -1.936114 5.751418 0.340844
v -1.976528 5.503949 1.898355
v -1.406109 5.437238 1.684776
v -2.506533 5.818130 0.554423
v -2.732922 5.765761 1.121388
v -2.535933 5.638118 1.687379
v -1.179720 5.489606 1.117812
v -2.903615 5.348626 1.298019
v -2.585189 5.280787 1.544515
v -2.472486 5.297485 1.238043
v -2.612095 5.272637 0.957563
v -3.139948 5.189450 1.601664
v -2.856452 5.236972 1.706570
v -3.279564 5.164604 1.321184
v -3.166860 5.181300 1.014711
v -2.895598 5.225116 0.852658
v -2.847096 4.956687 0.516195
v -3.305835 4.882590 0.790249
v -2.322156 5.050837 1.686221
v -2.131558 5.079073 1.167934
v -3.496437 4.854353 1.308535
v -3.260332 4.896373 1.782865
v -2.780899 4.976740 1.960277
v -2.367663 5.037054 0.693606
v -3.265786 4.253307 -1.005554
v -2.903549 4.317516 -0.784239
v -2.861443 4.406968 -1.090506
v -3.033115 4.342874 -1.355072
v -3.373555 3.979923 -0.692555
v -3.109082 4.142952 -0.608582
v -3.545224 3.915829 -0.957120
v -3.503120 4.005282 -1.263387
v -3.297583 4.179844 -1.439043
v -3.222322 3.985976 -1.767071
v -3.569916 3.690767 -1.470011
v -2.555952 4.218797 -0.659707
v -2.484752 4.370073 -1.177645
v -3.641115 3.539492 -0.952073
v -3.350797 3.647883 -0.504656
v -2.903546 3.923588 -0.362647
v -2.775071 4.261681 -1.625063
v -2.671549 4.585518 -1.207061
v -2.348991 4.521036 -0.989009
v -2.284297 4.487987 -1.275785
v -2.459189 4.451742 -1.511619
v -2.875746 4.514006 -0.877004
v -2.587307 4.533279 -0.814158
v -3.050637 4.477760 -1.112838
v -2.985945 4.444712 -1.399614
v -2.747628 4.432468 -1.574465
v -2.793856 4.166878 -1.808542
v -3.196883 4.187583 -1.512846
v -2.119706 4.316657 -0.818456
v -2.010302 4.260768 -1.303434
v -3.306287 4.243472 -1.027867
v -3.010522 4.304769 -0.629040
v -2.522731 4.337361 -0.522759
v -2.306065 4.199472 -1.702260
v -2.716349 4.346934 -0.398056
v -2.593422 4.049512 -0.173584
v -2.361895 4.189729 -0.288687
v -2.342516 4.379237 -0.512795
v -3.059847 4.157887 -0.413240
v -2.883693 4.028716 -0.216272
v -3.040467 4.347396 -0.637346
v -2.808943 4.487612 -0.752451
v -2.518671 4.508409 -0.709763
v -2.358434 4.497990 -1.026335
v -2.849323 4.462821 -1.098525
v -2.484841 3.721933 -0.119584
v -2.093303 3.959058 -0.314240
v -3.240861 4.225695 -0.903868
v -3.273635 3.905211 -0.524875
v -2.975731 3.686764 -0.191774
v -2.060532 4.279543 -0.693234
v 1.489879 4.545071 1.587079
v 1.865339 4.468529 1.770450
v 1.908148 4.541450 1.463444
v 1.703281 4.549799 1.219802
v 1.320805 4.326554 1.909755
v 1.629929 4.379057 1.965327
v 1.115940 4.334903 1.666111
v 1.158747 4.407825 1.359107
v 1.394160 4.497294 1.164231
v 1.362515 4.297845 0.837265
v 0.964397 4.146543 1.166828
v 2.159348 4.249197 1.862463
v 2.231736 4.372519 1.343279
v 0.892010 4.023221 1.686013
v 1.238463 4.009101 2.098049
v 1.761231 4.097893 2.192028
v 1.885281 4.386639 0.931243
v 2.136126 4.639132 1.328168
v 2.428242 4.458601 1.514070
v 2.449079 4.410210 1.226134
v 2.254017 4.444808 1.010642
v 1.953561 4.641063 1.673348
v 2.230523 4.552969 1.708194
v 1.758500 4.675661 1.457855
v 1.779336 4.627270 1.169920
v 1.977055 4.532903 0.975795
v 1.816767 4.309714 0.753784
v 1.482398 4.469302 1.082075
v 2.579786 4.184060 1.664079
v 2.615024 4.102224 1.177141
v 1.447160 4.551137 1.569014
v 1.777037 4.492628 1.933440
v 2.245417 4.343647 1.992371
v 2.285148 4.160734 0.812716
v 2.083049 4.420302 2.132999
v 2.108386 4.097674 2.347473
v 2.360717 4.144945 2.210381
v 2.426588 4.316626 1.984803
v 1.698441 4.371202 2.152928
v 1.831050 4.184645 2.332676
v 1.764315 4.542882 1.927351
v 2.016642 4.590154 1.790258
v 2.293979 4.503182 1.805055
v 2.407790 4.441532 1.478550
v 1.938778 4.588612 1.453526
v 2.093932 3.755759 2.395851
v 2.520652 3.835702 2.164009
v 1.512056 4.508668 1.685368
v 1.400655 4.218335 2.066849
v 1.624918 3.902841 2.370828
v 2.632052 4.126038 1.782528
v 1.744619 4.516190 1.186200
v 1.888165 4.511917 1.585991
v 2.128376 4.455982 1.384568
v 2.128676 4.370575 1.077799
v 1.360686 4.447124 1.354371
v 1.569731 4.511662 1.585750
v 1.360985 4.361718 1.047602
v 1.601194 4.305784 0.846178
v 1.919633 4.306035 0.846420
v 2.040685 3.993671 0.658112
v 1.502169 3.993241 0.657705
v 1.987475 4.341841 1.908826
v 2.393705 4.247246 1.568193
v 1.095939 4.087835 0.998337
v 1.095435 4.232267 1.517126
v 1.448955 4.341413 1.908419
v 2.394212 4.102813 1.049405
v 2.453342 4.465528 1.519668
v 2.408055 4.331860 1.883761
v 2.640006 4.203830 1.759304
v 2.721962 4.185053 1.478924
v 2.078271 4.572073 1.540943
v 2.171776 4.485352 1.804418
v 2.160228 4.553296 1.260562
v 2.392179 4.425266 1.136105
v 2.628456 4.271775 1.215448
v 2.666618 4.002467 0.990037
v 2.267040 4.262041 0.855855
v 2.293889 4.104080 2.120244
v 2.686148 3.887563 1.909770
v 1.874780 4.478559 1.066329
v 1.736180 4.510310 1.540491
v 1.894307 4.363656 1.986064
v 2.824749 3.855811 1.435609
v 2.422791 5.932875 0.099223
v 2.013920 5.856333 0.185357
v 2.168854 5.929254 0.453835
v 2.480207 5.937603 0.520099
v 2.357824 5.714357 -0.259226
v 2.079830 5.766861 -0.113057
v 2.669178 5.722707 -0.192960
v 2.824111 5.795629 0.075516
v 2.758199 5.885098 0.373931
v 2.984131 5.685649 0.612391
v 3.095598 5.534346 0.107728
v 1.725450 5.637001 0.293489
v 1.987467 5.760323 0.747515
v 2.833581 5.411024 -0.346298
v 2.307040 5.396905 -0.458363
v 1.836918 5.485697 -0.211174
v 2.514008 5.774443 0.859580
v 2.072172 6.026935 0.700668
v 1.727487 5.846405 0.733578
v 1.888031 5.798013 0.973509
v 2.174347 5.832612 1.023593
v 2.004014 6.028867 0.316176
v 1.764128 5.940772 0.458924
v 2.290331 6.063465 0.366262
v 2.450875 6.015074 0.606192
v 2.414233 5.920707 0.880846
v 2.677127 5.697518 0.957447
v 2.739094 5.857106 0.492971
v 1.515746 5.571863 0.708397
v 1.787246 5.490028 1.114153
v 2.467592 5.938941 0.087215
v 1.983391 5.880432 0.002516
v 1.577711 5.731450 0.243920
v 2.271446 5.548537 1.198852
v 1.619351 5.808106 0.033193
v 1.467538 5.485477 -0.120410
v 1.352762 5.532748 0.142823
v 1.439455 5.704429 0.361247
v 1.910479 5.759006 -0.218926
v 1.695395 5.572449 -0.279203
v 1.997168 5.930686 -0.000501
v 1.882397 5.977958 0.262730
v 1.654538 5.890986 0.421524
v 1.765451 5.829335 0.749025
v 2.150789 5.976416 0.480485
v 1.449203 5.143563 -0.167455
v 1.255109 5.223506 0.277706
v 2.344885 5.896472 0.035323
v 2.198281 5.606138 -0.334062
v 1.834541 5.290644 -0.435996
v 1.401714 5.513842 0.647090
v 2.468253 5.903994 0.572011
v 2.109292 5.899721 0.344888
v 2.043619 5.843786 0.651415
v 2.231938 5.758379 0.893580
v 2.667733 5.834927 0.203374
v 2.360621 5.899466 0.149352
v 2.856053 5.749521 0.445537
v 2.790381 5.693587 0.752064
v 2.539048 5.693839 0.947603
v 2.559306 5.381474 1.170545
v 2.984337 5.381044 0.839866
v 1.832526 5.729645 0.151276
v 1.721463 5.635050 0.669657
v 3.095401 5.475639 0.321486
v 2.776926 5.620071 -0.088044
v 2.257561 5.729218 -0.179405
v 2.039935 5.490617 1.079189
v 1.704247 5.853331 0.744590
v 1.516179 5.719664 0.429557
v 1.409714 5.591633 0.670297
v 1.517403 5.572857 0.941836
v 1.987026 5.959876 0.497270
v 1.751325 5.873155 0.346914
v 2.094714 5.941099 0.768810
v 1.988250 5.813069 1.009550
v 1.753106 5.659579 1.092192
v 1.861553 5.390270 1.293452
v 2.259215 5.649845 1.153694
v 1.460879 5.491883 0.172847
v 1.280833 5.275366 0.579972
v 2.439261 5.866362 0.746569
v 2.257144 5.898113 0.287360
v 1.858543 5.751459 0.033085
v 1.462949 5.243615 1.039181
v -0.807769 5.200392 1.363734
v -0.685386 4.546973 2.084627
v -0.032035 4.808078 1.871780
v 0.167758 5.175279 1.267133
v -1.682609 4.780241 1.223198
v -1.378014 4.520722 1.839821
v -1.482816 5.147443 0.618552
v -0.829465 5.408546 0.405705
v -0.136835 5.434798 0.650510
v 0.405256 5.250184 -0.027026
v -0.766069 5.205790 -0.441025
v -0.522418 3.748752 2.398258
v 0.582490 4.190315 2.038306
v -1.870977 4.764227 -0.081073
v -2.208857 4.143240 0.941466
v -1.693746 3.704358 1.984259
v 0.920364 4.811302 1.015766
v -0.601410 6.141301 -1.122749
v -0.596904 6.144941 -0.036809
v 0.167428 6.171045 -0.315726
v 0.474058 6.008367 -1.052057
v -1.603203 5.729880 -1.042495
v -1.343604 5.968469 -0.308771
v -1.296573 5.567201 -1.778826
v -0.532247 5.593304 -2.057743
v 0.214456 5.769776 -1.785780
v 0.835682 5.089242 -2.126520
v -0.427092 4.790803 -2.586446
v -0.536429 5.723697 0.831228
v 0.756146 5.767841 0.359541
v -1.719672 4.746659 -2.114758
v -2.238232 5.021770 -0.869524
v -1.799206 5.425259 0.371303
v 1.274702 5.492730 -0.885693
v 0.634146 6.065088 0.631102
v 0.478737 5.639273 1.520494
v 1.158740 5.456356 1.267342
v 1.457599 5.502865 0.582897
v -0.359254 6.143699 0.572237
v -0.162864 5.922507 1.259588
v -0.060389 6.190208 -0.112209
v 0.619610 6.007292 -0.365361
v 1.261209 5.724058 -0.104454
v 1.562293 5.111885 -0.696173
v 0.477262 5.590873 -1.137403
v 0.239027 4.968503 2.051834
v 1.388999 4.659165 1.623720
v -0.672715 5.900209 -0.709288
v -1.178127 5.821556 0.448202
v -0.846009 5.447490 1.610606
v 1.894416 4.737819 0.466230
v -1.215240 6.259462 0.906834
v -1.842749 5.664807 1.394335
v -1.208042 5.729291 1.777092
v -0.536112 5.974138 1.571979
v -1.760903 6.061359 0.101821
v -2.098975 5.792737 0.707680
v -1.088979 6.306205 -0.103293
v -0.454268 6.370689 0.279464
v -0.198040 6.242759 0.966120
v 0.608874 5.854885 0.898213
v 0.175561 6.071231 -0.263015
v -2.172549 4.877489 1.622383
v -1.099178 4.986541 2.269676
v -0.897811 5.962181 -0.910308
v -2.034140 5.548111 -0.563434
v -2.605859 5.093836 0.461155
v 0.037149 5.400609 1.922802
v 0.378072 5.781736 -0.835502
v -0.401161 5.697394 -0.083849
v 0.328041 5.724917 0.276949
v 1.077181 5.613956 -0.021627
v -0.357329 5.392911 -1.533573
v -0.715443 5.564128 -0.822861
v 0.391814 5.281950 -1.832149
v 1.121016 5.309474 -1.471351
v 1.435292 5.442740 -0.732339
v 2.137727 4.775152 -0.570889
v 1.606239 4.549781 -1.820659
v -0.967971 5.205806 0.525795
v 0.265214 5.252353 1.135953
v 0.373057 4.503234 -2.430815
v -0.893843 4.690886 -1.925885
v -1.499456 4.980436 -0.723974
v 1.532111 5.064701 0.631021
v -1.609168 5.126731 -1.400187
v -2.247823 4.940883 -0.741234
v -1.752630 5.363926 -0.479667
v -1.109822 5.521248 -0.713422
v -1.923262 4.356660 -1.830270
v -2.344342 4.516788 -1.292077
v -1.280452 4.513983 -2.064026
v -0.785259 4.937025 -1.802459
v -0.688743 5.361119 -1.251616
v 0.091612 5.230758 -0.949117
v -0.071611 4.513556 -1.880667
v -2.545009 4.520080 -0.085991
v -1.707563 5.235504 0.356354
v -0.909051 3.798134 -2.323011
v -1.996135 3.532080 -1.927699
v -2.708232 3.802880 -1.017541
v -0.620487 5.501556 -0.038959
v 0.699634 5.526223 0.993196
v -0.052036 5.362210 1.629260
v 0.569615 5.030044 1.880581
v 1.211643 4.862150 1.534811
v -0.007228 5.723388 0.316473
v -0.317013 5.656519 0.994345
v 0.634800 5.555495 -0.029297
v 1.256448 5.223329 0.222024
v 1.521428 4.929018 0.856939
v 1.937698 4.152800 0.657591
v 1.489591 4.650517 -0.416136
v -0.723236 4.885385 1.963689
v 0.328059 4.323647 2.388707
v 0.438296 5.212255 -0.841153
v -0.647463 5.496186 -0.256411
v -1.171343 5.383101 0.889963
v 1.413818 4.039716 1.803964
v -0.531324 5.101538 -0.973783
v -0.478788 5.112623 -0.058340
v 0.155530 5.117323 -0.328060
v 0.386413 4.939837 -0.961594
v -1.365793 4.712059 -0.858236
v -1.119046 4.951635 -0.252875
v -1.134910 4.534572 -1.491770
v -0.500589 4.539272 -1.761490
v 0.139672 4.700261 -1.566953
v 0.668240 3.993850 -1.877476
v -0.414526 3.721597 -2.206463
v -0.377654 4.691211 0.673794
v 0.695059 4.699159 0.217661
v -1.487239 3.713647 -1.750330
v -1.877698 4.013803 -0.678938
v -1.460420 4.418958 0.344807
v 1.085518 4.399005 -0.853731
v 0.767953 5.136809 -0.366733
v 0.759238 5.086559 0.475098
v 1.290642 4.734091 0.252896
v 1.444474 4.486985 -0.327276
v -0.070892 5.318211 -0.311945
v 0.188340 5.338736 0.264048
v 0.082940 5.071105 -0.892117
v 0.614344 4.718637 -1.114320
v 1.185245 4.466461 -0.903269
v 1.347281 3.638509 -1.200723
v 0.381810 4.064975 -1.557639
v 0.626846 4.687179 1.130283
v 1.525521 4.091109 0.754507
v -0.516862 4.661045 -1.181863
v -0.777020 5.078935 -0.200714
v -0.338616 5.113646 0.773368
v 1.785682 3.673219 -0.226641
v -0.998508 5.173565 0.804663
v -1.433077 4.503981 1.222245
v -0.880865 4.591157 1.508858
v -0.354794 4.895562 1.308172
v -1.490572 4.981586 0.150852
v -1.707044 4.653732 0.667007
v -0.964504 5.285991 -0.049833
v -0.412281 5.373169 0.236780
v -0.138316 5.223416 0.792017
v 0.574230 4.892006 0.666273
v 0.110925 5.145257 -0.272709
v -1.615381 3.675344 1.393846
v -0.681505 3.822771 1.878547
v -0.822954 4.997830 -0.757410
v -1.712607 4.483041 -0.418024
v -2.078694 3.928595 0.454864
v 0.208148 4.337561 1.539161
v 0.320690 4.714703 -0.773110
v -0.303503 4.654786 -0.103703
v 0.329776 4.666261 0.167558
v 0.953885 4.532650 -0.117106
v -0.323664 4.335793 -1.325980
v -0.599526 4.523064 -0.711793
v 0.300451 4.202182 -1.610644
v 0.933725 4.213656 -1.339384
v 1.229754 4.345378 -0.731293
v 1.849366 3.653435 -0.622106
v 1.348742 3.430677 -1.650471
v -0.743587 4.176684 0.439234
v 0.327377 4.196090 0.897972
v 0.277786 3.411271 -2.109208
v -0.777673 3.637224 -1.627803
v -1.244206 3.953926 -0.589129
v 1.382828 3.970136 0.416567
v 0.660353 4.785124 0.891081
v 0.069887 4.590817 1.461059
v 0.657604 4.339701 1.679061
v 1.220526 4.213239 1.381655
v 0.015373 4.864889 0.327863
v -0.219046 4.813719 0.912518
v 0.578295 4.738428 0.030456
v 1.166015 4.487312 0.248458
v 1.454940 4.264409 0.796999
v 1.938087 3.521428 0.675423
v 1.449480 3.898386 -0.252234
v -0.404224 4.073427 1.798439
v 0.589685 3.648755 2.167110
v 0.455568 4.323058 -0.620903
v -0.496412 4.536921 -0.117949
v -0.892843 4.450385 0.870783
v 1.541662 3.434892 1.664155
v 0.541370 5.774427 1.030314
v -0.362368 5.586700 1.410452
v 0.165625 5.318522 1.867883
v 0.892642 5.183023 1.753734
v 0.075203 5.878414 0.153750
v -0.428995 5.824358 0.704033
v 0.802217 5.742916 0.039600
v 1.330219 5.474738 0.497032
v 1.396844 5.237080 1.203450
v 1.898653 4.486264 1.203892
v 1.785989 4.888176 0.009243
v -1.076414 5.077519 1.553959
v -0.183492 4.623995 2.327538
v 0.893072 5.341701 -0.764335
v -0.336415 5.570848 -0.571294
v -1.189079 5.479432 0.359311
v 1.045989 4.394848 2.134496
v 2.036098 4.153921 1.633263
v 2.156339 3.894398 1.978477
v 2.429515 3.991372 1.808448
v 2.463228 4.122344 1.500802
v 1.629864 3.969151 1.675910
v 1.823312 3.879937 1.935822
v 1.663581 4.100124 1.368263
v 1.936752 4.197097 1.198234
v 2.269782 4.211559 1.240888
v 2.447555 4.082976 0.899787
v 1.884360 4.058519 0.827653
v 2.255717 3.546613 2.147150
v 2.717687 3.710608 1.859607
v 1.422388 3.894523 1.115196
v 1.365369 3.673030 1.635466
v 1.692519 3.522156 2.075015
v 2.774703 3.932101 1.339336
v 1.961935 4.385808 1.718891
v 2.400059 4.383186 1.623897
v 2.221824 4.372325 1.339199
v 1.898606 4.298965 1.283654
v 2.081299 4.245776 2.127704
v 2.354716 4.333633 1.953176
v 1.758081 4.172417 2.072155
v 1.579845 4.161555 1.787463
v 1.625188 4.211108 1.458182
v 1.436071 3.913754 1.257427
v 1.359389 3.829954 1.814282
v 2.746484 4.204761 1.537667
v 2.445063 4.186392 1.056211
v 1.660811 3.848322 2.295739
v 2.207415 3.972382 2.389679
v 2.669802 4.120962 2.094524
v 1.898458 4.062333 0.962274
v 2.385576 5.686970 0.501324
v 2.470764 5.639930 0.087819
v 2.162467 5.709232 0.127198
v 1.976953 5.698600 0.385796
v 2.740725 5.464182 0.569809
v 2.718043 5.538713 0.261050
v 2.555213 5.453549 0.828409
v 2.246917 5.522853 0.867788
v 1.999634 5.624068 0.694554
v 1.691271 5.416217 0.791484
v 2.109454 5.245046 1.084441
v 2.488010 5.443039 -0.234589
v 1.966635 5.560239 -0.167996
v 2.630828 5.127846 1.017848
v 2.944553 5.145826 0.580520
v 2.906197 5.271869 0.058370
v 1.652908 5.542258 0.269330
v 2.098815 5.530302 0.440393
v 1.685406 5.450709 0.497091
v 1.840747 5.415827 0.772869
v 2.151269 5.383327 0.835490
v 2.026597 5.455949 0.028431
v 1.750058 5.468652 0.185806
v 2.337119 5.423451 0.091050
v 2.492460 5.388570 0.366827
v 2.427807 5.370624 0.678117
v 2.639802 5.087973 0.829286
v 2.749137 5.118318 0.302859
v 1.384302 5.223404 0.523152
v 1.647004 5.164412 0.989531
v 2.486436 5.177309 -0.163521
v 1.961300 5.232267 -0.269417
v 1.493637 5.253751 -0.003279
v 2.172138 5.109452 1.095431
v -2.703583 4.206546 -0.952555
v -2.670879 4.154428 -0.565034
v -2.419723 4.263548 -0.672399
v -2.318076 4.279500 -0.947947
v -2.999586 3.949589 -0.934799
v -2.915464 4.023565 -0.662837
v -2.897938 3.965542 -1.210345
v -2.646783 4.074661 -1.317712
v -2.402197 4.205524 -1.219908
v -2.124223 4.061577 -1.387275
v -2.537851 3.840270 -1.552674
v -2.578594 3.975167 -0.279792
v -2.153860 4.159702 -0.461363
v -2.962586 3.655734 -1.371102
v -3.134487 3.628756 -0.905117
v -2.992223 3.753860 -0.445190
v -1.981961 4.186681 -0.927350
v -1.112430 6.120348 0.809890
v -1.739940 5.525693 1.297391
v -1.105232 5.590177 1.680148
v -0.433302 5.835023 1.475035
v -1.658093 5.922245 0.004877
v -1.996165 5.653623 0.610736
v -0.986169 6.167090 -0.200237
v -0.351458 6.231575 0.182520
v -0.095230 6.103645 0.869176
v 0.711683 5.715770 0.801269
v 0.278371 5.932117 -0.359959
v -2.069740 4.738375 1.525439
v -0.996368 4.847426 2.172732
v -0.795001 5.823067 -1.007252
v -1.931331 5.408997 -0.660378
v -2.503050 4.954722 0.364211
v 0.139958 5.261494 1.825858
vt 1.793596 1.063258
vt 1.779296 1.069088
vt 1.837831 1.066963
vt 1.786553 1.066472
vt 1.771675 1.070338
vt 1.816139 1.060957
vt 1.823467 1.062691
vt 1.845341 1.068102
vt 1.830622 1.064898
vt 0.907641 -0.235815
vt 0.917386 -0.097505
vt 0.914269 -0.078050
vt 0.906502 -0.216154
vt 1.800961 1.060892
vt 0.918985 -0.117232
vt 1.808614 1.060236
vt 0.909992 -0.058877
vt 1.776179 1.320991
vt 1.776179 1.341490
vt 0.918375 -0.137067
vt 1.771675 1.327394
vt 1.771675 1.335086
vt 0.908086 -0.196481
vt 0.906075 -0.039673
vt 0.917104 -0.157239
vt 0.913121 -0.176958
vt 1.796273 1.327271
vt 1.791551 1.341686
vt 1.783801 1.344120
vt 1.796273 1.335210
vt 1.783801 1.318360
vt 1.790983 1.374060
vt 1.791552 1.320795
vt 1.795569 1.380349
vt 1.842067 0.497151
vt 1.771675 1.380469
vt 1.776050 1.394162
vt 1.783454 1.371694
vt 1.776050 1.374249
vt 1.790983 1.394352
vt 1.795569 1.388062
vt 1.771675 1.387942
vt 1.783454 1.396717
vt 1.830043 0.498983
vt 1.886067 0.640096
vt 1.876401 0.640029
vt 1.888247 0.497492
vt 1.849608 0.645054
vt 1.876694 0.496369
vt 1.840619 0.646739
vt 1.918725 0.036911
vt 1.923116 0.499799
vt 1.935498 0.500372
vt 1.853670 0.495846
vt 1.913452 0.645740
vt 1.922706 0.647559
vt 1.891353 0.305920
vt 1.905631 0.308647
vt 1.858355 0.642972
vt 1.897457 0.033195
vt 1.865162 0.495646
vt 1.831108 0.647560
vt 1.817479 0.500670
vt 1.867156 0.641118
vt 1.904660 0.643512
vt 1.895595 0.641410
vt 1.911387 0.499187
vt 1.899847 0.498482
vt 1.960449 0.040703
vt 1.833412 0.310700
vt 1.854203 0.022054
vt 1.791545 0.037332
vt 1.819228 0.314639
vt 1.876884 0.304143
vt 1.876061 0.027559
vt 1.811553 0.030265
vt 1.862228 0.303913
vt 1.939928 0.038920
vt 1.847533 0.306362
vt 1.981308 0.042313
vt 1.832533 0.023005
vt 1.933795 0.314762
vt 1.948199 0.316779
vt 1.919684 0.311766
vt 1.804754 0.317085
vt 1.818079 0.771877
vt 1.825714 0.772384
vt 1.799185 0.868416
vt 1.821230 0.869489
vt 1.826810 0.869021
vt 1.795984 0.767809
vt 1.771675 0.042353
vt 1.788501 0.767871
vt 1.804892 0.868693
vt 1.855373 0.766726
vt 1.843435 0.866879
vt 1.847971 0.767826
vt 1.849084 0.867027
vt 1.803364 0.768753
vt 1.837900 0.867351
vt 1.810398 0.869149
vt 1.840735 0.769652
vt 1.771675 1.429774
vt 1.833373 0.771486
vt 1.781051 0.769027
vt 1.771675 1.435317
vt 1.774971 1.439837
vt 1.815777 0.869489
vt 1.810693 0.770374
vt 1.832391 0.868188
vt 1.793497 0.868644
vt 1.785702 1.425391
vt 1.788845 1.435230
vt 1.785702 1.439700
vt 1.788845 1.429861
vt 1.774971 1.425254
vt 1.780381 1.441536
vt 1.780381 1.423554
vt 1.832263 0.651338
vt 1.805935 0.649235
vt 1.771675 0.660287
vt 1.857854 0.657668
vt 1.797319 0.652003
vt 1.789080 0.655763
vt 1.840634 0.653920
vt 1.823691 0.649310
vt 1.780591 0.658824
vt 1.849068 0.656336
vt 1.771675 1.307328
vt 1.777041 1.290947
vt 1.785848 1.288180
vt 1.771675 1.298305
vt 1.814888 0.648467
vt 1.794510 1.291169
vt 1.777040 1.314686
vt 1.799627 1.298446
vt 0.762926 0.381347
vt 0.618652 0.762926
vt 0.500000 0.500000
vt 0.597317 0.242613
vt 0.402683 0.757387
vt 1.794509 1.314464
vt 1.799627 1.307188
vt 0.757387 0.597317
vt 1.785847 1.317453
vt 0.237074 0.618653
vt 0.000100 0.310990
vt 0.999900 0.689010
vt 0.000100 0.725594
vt 0.381347 0.237074
vt 0.725594 0.999900
vt 0.242613 0.402683
vt 0.274406 0.000100
vt 0.762926 0.381347
vt 0.618652 0.762926
vt 0.500000 0.500000
vt 0.597317 0.242613
vt 0.402683 0.757387
vt 0.999900 0.274406
vt 0.689010 0.000100
vt 0.757387 0.597317
vt 0.310990 0.999900
vt 0.237074 0.618653
vt 0.000100 0.310990
vt 0.999900 0.689010
vt 0.000100 0.725594
vt 0.381347 0.237074
vt 0.725594 0.999900
vt 0.242613 0.402683
vt 0.274406 0.000100
vt 0.762926 0.381347
vt 0.618652 0.762926
vt 0.500000 0.500000
vt 0.597317 0.242613
vt 0.402683 0.757387
vt 0.999900 0.274406
vt 0.689010 0.000100
vt 0.757387 0.597317
vt 0.310990 0.999900
vt 0.237074 0.618653
vt 0.000100 0.310990
vt 0.999900 0.689010
vt 0.000100 0.725594
vt 0.381347 0.237074
vt 0.725594 0.999900
vt 0.242613 0.402683
vt 0.274406 0.000100
vt 0.762926 0.381347
vt 0.618652 0.762926
vt 0.500000 0.500000
vt 0.597317 0.242613
vt 0.402683 0.757387
vt 0.999900 0.274406
vt 0.689010 0.000100
vt 0.757387 0.597317
vt 0.310990 0.999900
vt 0.237074 0.618653
vt 0.000100 0.310990
vt 0.999900 0.689010
vt 0.000100 0.725594
vt 0.381347 0.237074
vt 0.725594 0.999900
vt 0.242613 0.402683
vt 0.274406 0.000100
vt 0.762926 0.381347
vt 0.618652 0.762926
vt 0.500000 0.500000
vt 0.597317 0.242613
vt 0.402683 0.757387
vt 0.999900 0.274406
vt 0.689010 0.000100
vt 0.757387 0.597317
vt 0.310990 0.999900
vt 0.237074 0.618653
vt 0.000100 0.310990
vt 0.999900 0.689010
vt 0.000100 0.725594
vt 0.381347 0.237074
vt 0.725594 0.999900
vt 0.242613 0.402683
vt 0.274406 0.000100
vt 0.762926 0.381347
vt 0.618652 0.762926
vt 0.500000 0.500000
vt 0.597317 0.242613
vt 0.402683 0.757387
vt 0.999900 0.274406
vt 0.689010 0.000100
vt 0.757387 0.597317
vt 0.310990 0.999900
vt 0.237074 0.618653
vt 0.000100 0.310990
vt 0.999900 0.689010
vt 0.000100 0.725594
vt 0.381347 0.237074
vt 0.725594 0.999900
vt 0.242613 0.402683
vt 0.274406 0.000100
vt 0.762926 0.381347
vt 0.618652 0.762926
vt 0.500000 0.500000
vt 0.597317 0.242613
vt 0.402683 0.757387
vt 0.999900 0.274406
vt 0.689010 0.000100
vt 0.757387 0.597317
vt 0.310990 0.999900
vt 0.237074 0.618653
vt 0.000100 0.310990
vt 0.999900 0.689010
vt 0.000100 0.725594
vt 0.381347 0.237074
vt 0.725594 0.999900
vt 0.242613 0.402683
vt 0.274406 0.000100
vt 0.762926 0.381347
vt 0.618652 0.762926
vt 0.500000 0.500000
vt 0.597317 0.242613
vt 0.402683 0.757387
vt 0.999900 0.274406
vt 0.689010 0.000100
vt 0.757387 0.597317
vt 0.310990 0.999900
vt 0.237074 0.618653
vt 0.000100 0.310990
vt 0.999900 0.689010
vt 0.000100 0.725594
vt 0.381347 0.237074
vt 0.725594 0.999900
vt 0.242613 0.402683
vt 0.274406 0.000100
vt 0.762926 0.381347
vt 0.618652 0.762926
vt 0.500000 0.500000
vt 0.597317 0.242613
vt 0.402683 0.757387
vt 0.999900 0.274406
vt 0.689010 0.000100
vt 0.757387 0.597317
vt 0.310990 0.999900
vt 0.237074 0.618653
vt 0.000100 0.310990
vt 0.999900 0.689010
vt 0.000100 0.725594
vt 0.381347 0.237074
vt 0.725594 0.999900
vt 0.242613 0.402683
vt 0.274406 0.000100
vt 0.762926 0.381347
vt 0.618652 0.762926
vt 0.500000 0.500000
vt 0.597317 0.242613
vt 0.402683 0.757387
vt 0.999900 0.274406
vt 0.689010 0.000100
vt 0.757387 0.597317
vt 0.310990 0.999900
vt 0.237074 0.618653
vt 0.000100 0.310990
vt 0.999900 0.689010
vt 0.000100 0.725594
vt 0.381347 0.237074
vt 0.725594 0.999900
vt 0.242613 0.402683
vt 0.274406 0.000100
vt 0.762926 0.381347
vt 0.618652 0.762926
vt 0.500000 0.500000
vt 0.597317 0.242613
vt 0.402683 0.757387
vt 0.999900 0.274406
vt 0.689010 0.000100
vt 0.757387 0.597317
vt 0.310990 0.999900
vt 0.237074 0.618653
vt 0.000100 0.310990
vt 0.999900 0.689010
vt 0.000100 0.725594
vt 0.381347 0.237074
vt 0.725594 0.999900
vt 0.242613 0.402683
vt 0.274406 0.000100
vt 0.762926 0.381347
vt 0.618652 0.762926
vt 0.500000 0.500000
vt 0.597317 0.242613
vt 0.402683 0.757387
vt 0.999900 0.274406
vt 0.689010 0.000100
vt 0.757387 0.597317
vt 0.310990 0.999900
vt 0.237074 0.618653
vt 0.000100 0.310990
vt 0.999900 0.689010
vt 0.000100 0.725594
vt 0.381347 0.237074
vt 0.725594 0.999900
vt 0.242613 0.402683
vt 0.274406 0.000100
vt 0.762926 0.381347
vt 0.618652 0.762926
vt 0.500000 0.500000
vt 0.597317 0.242613
vt 0.402683 0.757387
vt 0.999900 0.274406
vt 0.689010 0.000100
vt 0.757387 0.597317
vt 0.310990 0.999900
vt 0.237074 0.618653
vt 0.000100 0.310990
vt 0.999900 0.689010
vt 0.000100 0.725594
vt 0.381347 0.237074
vt 0.725594 0.999900
vt 0.242613 0.402683
vt 0.274406 0.000100
vt 0.762926 0.381347
vt 0.618652 0.762926
vt 0.500000 0.500000
vt 0.597317 0.242613
vt 0.402683 0.757387
vt 0.999900 0.274406
vt 0.689010 0.000100
vt 0.757387 0.597317
vt 0.310990 0.999900
vt 0.237074 0.618653
vt 0.000100 0.310990
vt 0.999900 0.689010
vt 0.000100 0.725594
vt 0.381347 0.237074
vt 0.725594 0.999900
vt 0.242613 0.402683
vt 0.274406 0.000100
vt 0.762926 0.381347
vt 0.618652 0.762926
vt 0.500000 0.500000
vt 0.597317 0.242613
vt 0.402683 0.757387
vt 0.999900 0.274406
vt 0.689010 0.000100
vt 0.757387 0.597317
vt 0.310990 0.999900
vt 0.237074 0.618653
vt 0.000100 0.310990
vt 0.999900 0.689010
vt 0.000100 0.725594
vt 0.381347 0.237074
vt 0.725594 0.999900
vt 0.242613 0.402683
vt 0.274406 0.000100
vt 0.762926 0.381347
vt 0.618652 0.762926
vt 0.500000 0.500000
vt 0.597317 0.242613
vt 0.402683 0.757387
vt 0.999900 0.274406
vt 0.689010 0.000100
vt 0.757387 0.597317
vt 0.310990 0.999900
vt 0.237074 0.618653
vt 0.000100 0.310990
vt 0.999900 0.689010
vt 0.000100 0.725594
vt 0.381347 0.237074
vt 0.725594 0.999900
vt 0.242613 0.402683
vt 0.274406 0.000100
vt 0.762926 0.381347
vt 0.618652 0.762926
vt 0.500000 0.500000
vt 0.597317 0.242613
vt 0.402683 0.757387
vt 0.999900 0.274406
vt 0.689010 0.000100
vt 0.757387 0.597317
vt 0.310990 0.999900
vt 0.237074 0.618653
vt 0.000100 0.310990
vt 0.999900 0.689010
vt 0.000100 0.725594
vt 0.381347 0.237074
vt 0.725594 0.999900
vt 0.242613 0.402683
vt 0.274406 0.000100
vt 0.762926 0.381347
vt 0.618652 0.762926
vt 0.500000 0.500000
vt 0.597317 0.242613
vt 0.402683 0.757387
vt 0.999900 0.274406
vt 0.689010 0.000100
vt 0.757387 0.597317
vt 0.310990 0.999900
vt 0.237074 0.618653
vt 0.000100 0.310990
vt 0.999900 0.689010
vt 0.000100 0.725594
vt 0.381347 0.237074
vt 0.725594 0.999900
vt 0.242613 0.402683
vt 0.274406 0.000100
vt 0.762926 0.381347
vt 0.618652 0.762926
vt 0.500000 0.500000
vt 0.597317 0.242613
vt 0.402683 0.757387
vt 0.999900 0.274406
vt 0.689010 0.000100
vt 0.757387 0.597317
vt 0.310990 0.999900
vt 0.237074 0.618653
vt 0.000100 0.310990
vt 0.999900 0.689010
vt 0.000100 0.725594
vt 0.381347 0.237074
vt 0.725594 0.999900
vt 0.242613 0.402683
vt 0.274406 0.000100
vt 0.762926 0.381347
vt 0.618652 0.762926
vt 0.500000 0.500000
vt 0.597317 0.242613
vt 0.402683 0.757387
vt 0.999900 0.274406
vt 0.689010 0.000100
vt 0.757387 0.597317
vt 0.310990 0.999900
vt 0.237074 0.618653
vt 0.000100 0.310990
vt 0.999900 0.689010
vt 0.000100 0.725594
vt 0.381347 0.237074
vt 0.725594 0.999900
vt 0.242613 0.402683
vt 0.274406 0.000100
vt 0.762926 0.381347
vt 0.618652 0.762926
vt 0.500000 0.500000
vt 0.597317 0.242613
vt 0.402683 0.757387
vt 0.999900 0.274406
vt 0.689010 0.000100
vt 0.757387 0.597317
vt 0.310990 0.999900
vt 0.237074 0.618653
vt 0.000100 0.310990
vt 0.999900 0.689010
vt 0.000100 0.725594
vt 0.381347 0.237074
vt 0.725594 0.999900
vt 0.242613 0.402683
vt 0.274406 0.000100
vt 0.762926 0.381347
vt 0.618652 0.762926
vt 0.500000 0.500000
vt 0.597317 0.242613
vt 0.402683 0.757387
vt 0.999900 0.274406
vt 0.689010 0.000100
vt 0.757387 0.597317
vt 0.310990 0.999900
vt 0.237074 0.618653
vt 0.000100 0.310990
vt 0.999900 0.689010
vt 0.000100 0.725594
vt 0.381347 0.237074
vt 0.725594 0.999900
vt 0.242613 0.402683
vt 0.274406 0.000100
vt 0.762926 0.381347
vt 0.618652 0.762926
vt 0.500000 0.500000
vt 0.597317 0.242613
vt 0.402683 0.757387
vt 0.999900 0.274406
vt 0.689010 0.000100
vt 0.757387 0.597317
vt 0.310990 0.999900
vt 0.237074 0.618653
vt 0.000100 0.310990
vt 0.999900 0.689010
vt 0.000100 0.725594
vt 0.381347 0.237074
vt 0.725594 0.999900
vt 0.242613 0.402683
vt 0.274406 0.000100
vt 0.762926 0.381347
vt 0.618652 0.762926
vt 0.500000 0.500000
vt 0.597317 0.242613
vt 0.402683 0.757387
vt 0.999900 0.274406
vt 0.689010 0.000100
vt 0.757387 0.597317
vt 0.310990 0.999900
vt 0.237074 0.618653
vt 0.000100 0.310990
vt 0.999900 0.689010
vt 0.000100 0.725594
vt 0.381347 0.237074
vt 0.725594 0.999900
vt 0.242613 0.402683
vt 0.274406 0.000100
vt 0.762926 0.381347
vt 0.618652 0.762926
vt 0.500000 0.500000
vt 0.597317 0.242613
vt 0.402683 0.757387
vt 0.999900 0.274406
vt 0.689010 0.000100
vt 0.757387 0.597317
vt 0.310990 0.999900
vt 0.237074 0.618653
vt 0.000100 0.310990
vt 0.999900 0.689010
vt 0.000100 0.725594
vt 0.381347 0.237074
vt 0.725594 0.999900
vt 0.242613 0.402683
vt 0.274406 0.000100
vt 0.762926 0.381347
vt 0.618652 0.762926
vt 0.500000 0.500000
vt 0.597317 0.242613
vt 0.402683 0.757387
vt 0.999900 0.274406
vt 0.689010 0.000100
vt 0.757387 0.597317
vt 0.310990 0.999900
vt 0.237074 0.618653
vt 0.000100 0.310990
vt 0.999900 0.689010
vt 0.000100 0.725594
vt 0.381347 0.237074
vt 0.725594 0.999900
vt 0.242613 0.402683
vt 0.274406 0.000100
vt 0.762926 0.381347
vt 0.618652 0.762926
vt 0.500000 0.500000
vt 0.597317 0.242613
vt 0.402683 0.757387
vt 0.999900 0.274406
vt 0.689010 0.000100
vt 0.757387 0.597317
vt 0.310990 0.999900
vt 0.237074 0.618653
vt 0.000100 0.310990
vt 0.999900 0.689010
vt 0.000100 0.725594
vt 0.381347 0.237074
vt 0.725594 0.999900
vt 0.242613 0.402683
vt 0.274406 0.000100
vt 0.762926 0.381347
vt 0.618652 0.762926
vt 0.500000 0.500000
vt 0.597317 0.242613
vt 0.402683 0.757387
vt 0.999900 0.274406
vt 0.689010 0.000100
vt 0.757387 0.597317
vt 0.310990 0.999900
vt 0.237074 0.618653
vt 0.000100 0.310990
vt 0.999900 0.689010
vt 0.000100 0.725594
vt 0.381347 0.237074
vt 0.725594 0.999900
vt 0.242613 0.402683
vt 0.274406 0.000100
vt 0.762926 0.381347
vt 0.618652 0.762926
vt 0.500000 0.500000
vt 0.597317 0.242613
vt 0.402683 0.757387
vt 0.999900 0.274406
vt 0.689010 0.000100
vt 0.757387 0.597317
vt 0.310990 0.999900
vt 0.237074 0.618653
vt 0.000100 0.310990
vt 0.999900 0.689010
vt 0.000100 0.725594
vt 0.381347 0.237074
vt 0.725594 0.999900
vt 0.242613 0.402683
vt 0.274406 0.000100
vt 0.762926 0.381347
vt 0.618652 0.762926
vt 0.500000 0.500000
vt 0.597317 0.242613
vt 0.402683 0.757387
vt 0.999900 0.274406
vt 0.689010 0.000100
vt 0.757387 0.597317
vt 0.310990 0.999900
vt 0.237074 0.618653
vt 0.000100 0.310990
vt 0.999900 0.689010
vt 0.000100 0.725594
vt 0.381347 0.237074
vt 0.725594 0.999900
vt 0.242613 0.402683
vt 0.274406 0.000100
vt 0.762926 0.381347
vt 0.618652 0.762926
vt 0.500000 0.500000
vt 0.597317 0.242613
vt 0.402683 0.757387
vt 0.999900 0.274406
vt 0.689010 0.000100
vt 0.757387 0.597317
vt 0.310990 0.999900
vt 0.237074 0.618653
vt 0.000100 0.310990
vt 0.999900 0.689010
vt 0.000100 0.725594
vt 0.381347 0.237074
vt 0.725594 0.999900
vt 0.242613 0.402683
vt 0.274406 0.000100
vt 0.762926 0.381347
vt 0.618652 0.762926
vt 0.500000 0.500000
vt 0.597317 0.242613
vt 0.402683 0.757387
vt 0.999900 0.274406
vt 0.689010 0.000100
vt 0.757387 0.597317
vt 0.310990 0.999900
vt 0.237074 0.618653
vt 0.000100 0.310990
vt 0.999900 0.689010
vt 0.000100 0.725594
vt 0.381347 0.237074
vt 0.725594 0.999900
vt 0.242613 0.402683
vt 0.274406 0.000100
vt 0.762926 0.381347
vt 0.618652 0.762926
vt 0.500000 0.500000
vt 0.597317 0.242613
vt 0.402683 0.757387
vt 0.999900 0.274406
vt 0.689010 0.000100
vt 0.757387 0.597317
vt 0.310990 0.999900
vt 0.237074 0.618653
vt 0.000100 0.310990
vt 0.999900 0.689010
vt 0.000100 0.725594
vt 0.381347 0.237074
vt 0.725594 0.999900
vt 0.242613 0.402683
vt 0.274406 0.000100
vn 0.319600 0.900900 -0.293600
vn 0.186200 -0.017200 0.982400
vn -0.899200 -0.016600 0.437300
vn 0.981800 0.024300 0.188200
vn 0.720300 0.000500 0.693600
vn -0.661600 0.038100 -0.748900
vn -0.058400 0.061300 -0.996400
vn -0.452100 -0.024200 0.891600
vn -0.981900 0.006700 -0.189400
vn 0.594100 0.733700 0.329800
vn -0.102000 0.474200 0.874500
vn 0.271500 0.392600 0.878700
vn 0.332200 0.933400 0.135500
vn 0.131700 0.805400 0.577900
vn -0.367700 0.651300 0.663800
vn 0.545300 0.529700 0.649600
vn -0.315200 0.878000 0.360300
vn 0.394500 0.916200 -0.070400
vn -0.513800 0.558300 0.651400
vn 0.684800 0.366200 0.630000
vn 0.301900 0.228100 0.925600
vn -0.197200 0.290600 0.936300
vn -0.102200 0.993600 -0.049100
vn -0.045100 0.992300 0.114900
vn 0.713600 0.663400 0.225100
vn -0.487500 0.840600 0.235900
vn -0.054800 0.994100 0.093500
vn -0.676200 0.490100 0.550000
vn -0.353100 0.661900 0.661200
vn -0.274600 0.937400 -0.214300
vn -0.544000 0.816800 0.192100
vn -0.880600 0.410300 0.236800
vn -0.120300 0.883100 0.453500
vn -0.830500 0.544400 -0.117800
vn -0.134000 0.916600 -0.376800
vn -0.939600 0.246900 0.237200
vn 0.076200 0.842600 0.533100
vn -0.266300 0.568000 0.778800
vn -0.681100 0.307300 0.664600
vn -0.558900 0.670900 -0.487400
vn -0.582400 0.742500 -0.330900
vn 0.114400 0.992000 0.054200
vn -0.891400 0.381200 -0.245300
vn 0.475200 0.860300 -0.184900
vn -0.288200 0.899200 0.329300
vn 0.083300 0.903600 0.420200
vn 0.239400 0.840900 -0.485400
vn -0.027900 0.995600 -0.089400
vn -0.523100 0.851700 0.031300
vn 0.383800 0.905000 0.183700
vn -0.432500 0.835100 -0.339900
vn 0.338500 0.706200 -0.621900
vn -0.658200 0.749600 0.070200
vn 0.535200 0.793500 0.289800
vn 0.115700 0.815800 0.566600
vn -0.380300 0.785600 0.488000
vn -0.158000 0.694300 -0.702100
vn -0.131200 0.808400 -0.573900
vn 0.615900 0.760500 -0.205700
vn -0.577000 0.698300 -0.423600
vn 0.327900 0.521000 0.788100
vn -0.580500 0.509200 0.635400
vn -0.358400 0.315000 0.878800
vn 0.343400 0.786500 0.513300
vn -0.135700 0.741400 0.657200
vn -0.561100 0.753800 0.342100
vn 0.017900 0.352500 0.935600
vn -0.255000 0.943200 0.213000
vn 0.527800 0.744300 0.409200
vn -0.670100 0.710800 0.213800
vn 0.084200 0.153000 0.984600
vn -0.411500 0.150800 0.898800
vn -0.731000 0.366500 0.575600
vn 0.205700 0.973700 0.098100
vn 0.125200 0.959800 0.251300
vn 0.464400 0.413700 0.783100
vn -0.287500 0.957800 0.000200
vn 0.119600 0.992300 0.032900
vn -0.733200 0.672100 -0.104100
vn -0.555700 0.805100 0.207500
vn 0.176100 0.924100 -0.339200
vn -0.318800 0.913300 -0.253600
vn -0.667700 0.578100 -0.468900
vn -0.203100 0.950800 0.233700
vn -0.354000 0.645300 -0.677000
vn 0.380500 0.855900 -0.350200
vn -0.744200 0.428300 -0.512600
vn -0.136100 0.892300 0.430400
vn -0.601200 0.718000 0.350800
vn -0.858200 0.512500 -0.029800
vn 0.117700 0.667300 -0.735500
vn 0.007600 0.765300 -0.643600
vn 0.260700 0.956900 0.127900
vn -0.341500 0.476100 -0.810400
vn 0.632700 0.735100 0.243500
vn -0.256800 0.955000 0.148700
vn -0.040000 0.888700 0.456700
vn 0.648900 0.748200 -0.138400
vn 0.224400 0.974500 0.005900
vn -0.246900 0.940500 -0.233300
vn 0.335300 0.816700 0.469700
vn 0.056800 0.886400 -0.459300
vn 0.785100 0.589200 -0.191100
vn -0.391100 0.870100 -0.299800
vn 0.357800 0.682500 0.637300
vn -0.127100 0.804000 0.580900
vn -0.448900 0.870900 0.200000
vn 0.467500 0.674100 -0.571900
vn 0.425900 0.786900 -0.446600
vn 0.731500 0.607900 0.308700
vn -0.021600 0.777600 -0.628400
vn 0.386500 0.833000 -0.395900
vn -0.415000 0.893500 0.171800
vn 0.013500 0.969800 0.243500
vn 0.122800 0.725300 -0.677400
vn -0.152600 0.933700 -0.323800
vn -0.667000 0.734200 -0.126800
vn 0.318600 0.947100 -0.037600
vn -0.565800 0.654500 -0.501400
vn 0.214900 0.588700 -0.779300
vn -0.798900 0.597700 -0.066900
vn 0.512500 0.855300 0.075900
vn 0.077600 0.901300 0.426100
vn -0.498200 0.778500 0.381900
vn -0.257900 0.498700 -0.827500
vn -0.263200 0.625200 -0.734800
vn 0.525000 0.734200 -0.430600
vn -0.680100 0.473700 -0.559600
vn 0.495200 0.715800 0.492400
vn -0.327300 0.934500 0.140000
vn -0.215900 0.842200 0.494000
vn 0.630000 0.764300 0.137800
vn 0.173200 0.972000 0.158900
vn -0.197400 0.955500 -0.219100
vn 0.138900 0.773100 0.618900
vn 0.163800 0.925600 -0.341100
vn 0.781900 0.612200 0.117600
vn -0.310600 0.890100 -0.333500
vn 0.112800 0.624300 0.773000
vn -0.334200 0.745500 0.576600
vn -0.522400 0.844100 0.120600
vn 0.596900 0.728800 -0.335500
vn 0.513700 0.829100 -0.220700
vn 0.573300 0.584200 0.574500
vn 0.146700 0.832100 -0.534900
vn 0.381500 0.924200 -0.014100
vn -0.493600 0.768100 0.407900
vn -0.085300 0.819300 0.567000
vn 0.167500 0.920700 -0.352600
vn -0.167900 0.985800 0.004600
vn -0.690200 0.722600 0.037400
vn 0.256900 0.902200 0.346400
vn -0.532700 0.783100 -0.321000
vn 0.281800 0.830600 -0.480400
vn -0.819800 0.572100 0.024600
vn 0.438700 0.778500 0.448900
vn -0.042900 0.691000 0.721600
vn -0.597400 0.584700 0.548900
vn -0.172600 0.757700 -0.629400
vn -0.199200 0.842700 -0.500200
vn 0.529800 0.846000 -0.059500
vn -0.625400 0.633400 -0.455700
vn -0.067100 0.996000 0.059500
vn -0.684400 0.500300 0.530400
vn -0.363900 0.679600 0.637000
vn -0.284900 0.926200 -0.247000
vn -0.554600 0.816200 0.162100
vn -0.886500 0.407400 0.219300
vn -0.132800 0.896400 0.422800
vn -0.836400 0.530000 -0.139500
vn -0.143400 0.901600 -0.408100
vn -0.943500 0.243400 0.225000
vn 0.063800 0.861100 0.504500
vn -0.276500 0.590800 0.758000
vn -0.687600 0.321300 0.651100
vn -0.564700 0.647200 -0.512100
vn -0.589800 0.723800 -0.358200
vn 0.102300 0.994500 0.021000
vn -0.894800 0.361900 -0.261600
vn 0.465600 0.859200 -0.212100
vn -0.300300 0.906300 0.297400
vn 0.070600 0.918200 0.389700
vn 0.231400 0.826800 -0.512700
vn -0.039400 0.991600 -0.123200
vn -0.533400 0.845900 0.000300
vn 0.372100 0.915200 0.154500
vn -0.441000 0.817800 -0.369700
vn 0.332700 0.688700 -0.644200
vn -0.667400 0.743500 0.042100
vn 0.524400 0.809300 0.264800
vn 0.103500 0.835900 0.539100
vn -0.391800 0.797000 0.459600
vn -0.163300 0.668200 -0.725900
vn -0.138400 0.786800 -0.601500
vn 0.607600 0.760500 -0.229000
vn -0.583400 0.676500 -0.449300
vn 0.318200 0.551300 0.771200
vn -0.589300 0.523300 0.615500
vn -0.366000 0.340200 0.866200
vn 0.331700 0.807600 0.487700
vn -0.147400 0.761500 0.631200
vn -0.571600 0.758100 0.314100
vn 0.009600 0.384200 0.923200
vn -0.267200 0.946700 0.179900
vn 0.517000 0.764100 0.385800
vn -0.679500 0.709400 0.187000
vn 0.078100 0.187300 0.979200
vn -0.417200 0.176200 0.891600
vn -0.737800 0.376900 0.560000
vn 0.193600 0.978900 0.065800
vn 0.112600 0.969200 0.219100
vn 0.456000 0.445600 0.770400
vn -0.298900 0.953700 -0.033400
vn 0.308700 0.949900 0.049300
vn -0.400600 0.706000 0.584000
vn -0.028300 0.753200 0.657200
vn 0.053000 0.970700 -0.234200
vn -0.198900 0.959400 0.200100
vn -0.650700 0.699700 0.294800
vn 0.245200 0.874300 0.418800
vn -0.592800 0.802400 -0.069000
vn 0.160000 0.899100 -0.407500
vn -0.763100 0.567900 0.308400
vn 0.421800 0.767800 0.482300
vn 0.031300 0.636200 0.770900
vn -0.458000 0.538400 0.707400
vn -0.333100 0.818900 -0.467300
vn -0.313800 0.896400 -0.313000
vn 0.461400 0.887200 -0.004800
vn -0.719900 0.669700 -0.182400
vn 0.726400 0.632600 -0.268700
vn 0.082100 0.947300 0.309500
vn 0.438400 0.820700 0.366400
vn 0.469700 0.694100 -0.545500
vn 0.315700 0.939200 -0.135000
vn -0.183500 0.982300 0.036600
vn 0.694500 0.711900 0.104000
vn -0.142700 0.929500 -0.340000
vn 0.500600 0.531100 -0.683600
vn -0.341100 0.935500 0.092400
vn 0.806900 0.555400 0.201300
vn 0.452500 0.729200 0.513400
vn -0.027500 0.876100 0.481300
vn 0.026300 0.695400 -0.718100
vn 0.104500 0.794300 -0.598500
vn 0.820000 0.489100 -0.297200
vn -0.333800 0.851900 -0.403600
vn 0.568500 0.381300 0.729000
vn -0.296200 0.690900 0.659400
vn -0.133400 0.433900 0.891000
vn 0.648700 0.620100 0.441300
vn 0.201600 0.750100 0.629800
vn -0.221800 0.908600 0.353900
vn 0.235700 0.336000 0.911900
vn 0.116700 0.975100 0.188800
vn 0.794700 0.513700 0.323200
vn -0.351400 0.905400 0.238300
vn 0.232200 0.126600 0.964400
vn -0.238500 0.299500 0.923800
vn -0.492600 0.610200 0.620400
vn 0.544400 0.838300 0.031500
vn 0.480100 0.856000 0.191900
vn 0.657200 0.232400 0.717000
vn 0.070000 0.997300 -0.020700
vn 0.464200 0.885300 -0.026500
vn -0.455900 0.887200 -0.070400
vn -0.212400 0.952800 0.217100
vn 0.454900 0.796500 -0.398400
vn -0.000600 0.963400 -0.268200
vn -0.465200 0.771200 -0.434600
vn 0.169700 0.964100 0.204300
vn -0.170700 0.719600 -0.673100
vn 0.620000 0.659900 -0.424400
vn -0.593500 0.657800 -0.463800
vn 0.231400 0.888300 0.396800
vn -0.270800 0.889500 0.368000
vn -0.620900 0.783600 0.022500
vn 0.270000 0.571700 -0.774800
vn 0.211400 0.703700 -0.678300
vn 0.592600 0.803500 0.057000
vn -0.232300 0.555200 -0.798600
vn 0.762800 0.499800 0.410300
vn 0.038900 0.991600 0.123100
vn 0.145900 0.870700 0.469700
vn 0.869400 0.492300 0.043000
vn 0.519700 0.849100 0.095000
vn 0.130700 0.960200 -0.246800
vn 0.464400 0.681700 0.565400
vn 0.443900 0.802200 -0.399300
vn 0.955100 0.296000 0.016700
vn -0.009300 0.937700 -0.347200
vn 0.403300 0.554000 0.728300
vn 0.010200 0.823500 0.567200
vn -0.176400 0.976300 0.125700
vn 0.778000 0.464400 -0.423100
vn 0.747600 0.589300 -0.306300
vn 0.797500 0.350100 0.491400
vn 0.375400 0.718200 -0.585900
vn -0.273800 0.949900 0.150800
vn -0.043000 0.706000 -0.706900
vn -0.381600 0.753200 -0.535700
vn 0.102200 0.970700 0.217300
vn 0.033900 0.959400 -0.280100
vn 0.332100 0.699700 -0.632500
vn -0.450800 0.874300 -0.179700
vn 0.510100 0.802400 -0.309900
vn 0.124300 0.899100 0.419700
vn 0.412400 0.567900 -0.712300
vn -0.629200 0.767800 -0.121100
vn -0.498500 0.636200 -0.588800
vn -0.073500 0.538400 -0.839500
vn 0.550000 0.818900 0.163900
vn 0.439900 0.896400 0.054000
vn -0.361000 0.887200 0.287400
vn 0.680000 0.669700 -0.298600
vn -0.407800 0.632600 0.658400
vn -0.255000 0.947300 -0.193700
vn -0.571000 0.820700 -0.019600
vn -0.035200 0.694100 0.719000
vn -0.166100 0.939200 0.300500
vn 0.122200 0.982300 -0.141600
vn -0.611800 0.711900 0.344800
vn 0.321500 0.929500 0.180500
vn 0.025300 0.531100 0.846900
vn 0.212300 0.935500 -0.282600
vn -0.760200 0.555400 0.337100
vn -0.672500 0.729200 -0.126800
vn -0.274100 0.876100 -0.396600
vn 0.420600 0.695400 0.582600
vn 0.285500 0.794300 0.536300
vn -0.464200 0.489100 0.738500
vn 0.511400 0.851900 0.113200
vn -0.896500 0.381300 -0.225600
vn -0.171600 0.690900 -0.702300
vn -0.442500 0.433900 -0.784800
vn -0.782900 0.620100 0.050600
vn -0.546200 0.750100 -0.372800
vn -0.042600 0.908600 -0.415500
vn -0.746400 0.336000 -0.574400
vn -0.208100 0.975100 -0.077200
vn -0.825500 0.513700 0.233500
vn 0.130700 0.905400 -0.404000
vn -0.775900 0.126600 -0.618000
vn -0.379700 0.299500 -0.875300
vn 0.007200 0.610200 -0.792200
vn -0.448700 0.838300 0.309800
vn -0.496600 0.856000 0.143700
vn -0.959100 0.232400 -0.161600
vn -0.042400 0.997300 0.059400
vn -0.349900 0.885300 0.306300
vn 0.402900 0.887200 -0.224700
vn 0.034100 0.952800 -0.301800
vn -0.114000 0.796500 0.593900
vn 0.165300 0.963400 0.211200
vn 0.634100 0.771200 0.056900
vn -0.259400 0.964100 -0.056900
vn 0.548300 0.719600 0.426000
vn -0.228200 0.659900 0.715900
vn 0.753200 0.657800 0.001100
vn -0.426400 0.888300 -0.170700
vn -0.012500 0.889500 -0.456700
vn 0.475900 0.783600 -0.399400
vn 0.263300 0.571700 0.777100
vn 0.250200 0.703700 0.665000
vn -0.502500 0.803500 0.319300
vn 0.674100 0.555200 0.487200
vn -0.853900 0.499800 0.145300
vn -0.106300 0.991600 -0.073200
vn -0.403800 0.870700 -0.280800
vn -0.712200 0.492300 0.500400
vn -0.468300 0.849100 0.244400
vn 0.048600 0.960200 0.275100
vn -0.713800 0.681700 -0.160500
vn -0.104700 0.802200 0.587800
vn -0.763600 0.296000 0.573900
vn 0.220700 0.937700 0.268200
vn -0.765800 0.554000 -0.326600
vn -0.356700 0.823500 -0.441200
vn 0.061900 0.976300 -0.207600
vn -0.353700 0.464400 0.812000
vn -0.401500 0.589300 0.701100
vn -0.931100 0.350100 0.102600
vn 0.064000 0.718200 0.692900
vn 0.212300 0.655100 0.725100
vn -0.646400 0.654900 0.391500
vn -0.493900 0.504400 0.708300
vn 0.304300 0.857900 0.414100
vn -0.195700 0.865600 0.461000
vn -0.548900 0.833200 0.067600
vn -0.134000 0.535100 0.834100
vn -0.208100 0.977700 -0.028500
vn 0.501000 0.786700 0.360700
vn -0.634100 0.770000 -0.070000
vn -0.096200 0.346900 0.932900
vn -0.564000 0.350400 0.747800
vn -0.794200 0.510200 0.330000
vn 0.267100 0.962500 -0.048600
vn 0.157300 0.983900 0.084300
vn 0.337300 0.542800 0.769200
vn -0.197100 0.950000 -0.242200
vn 0.235600 0.964600 0.118800
vn -0.594900 0.770400 -0.229300
vn -0.480300 0.868600 0.122100
vn 0.368800 0.899600 -0.233800
vn -0.129300 0.955500 -0.265000
vn -0.458000 0.678500 -0.574400
vn -0.128000 0.963000 0.237200
vn -0.098000 0.707100 -0.700300
vn 0.559600 0.803900 -0.201500
vn -0.540700 0.542100 -0.643300
vn -0.117300 0.890200 0.440200
vn -0.569100 0.784700 0.245600
vn -0.753400 0.627900 -0.195500
vn 0.372900 0.664600 -0.647500
vn 0.257900 0.774500 -0.577700
vn 0.344500 0.907200 0.241400
vn -0.076500 0.541500 -0.837200
vn 0.593200 0.604900 0.531300
vn -0.174900 0.968700 0.176000
vn -0.088000 0.845100 0.527300
vn 0.742100 0.645300 0.181400
vn 0.324500 0.923500 0.204500
vn -0.035100 0.983100 -0.179700
vn 0.248100 0.714200 0.654600
vn 0.319200 0.899900 -0.297200
vn 0.867800 0.471600 0.156800
vn -0.154800 0.941700 -0.298600
vn 0.194700 0.565300 0.801500
vn -0.222200 0.765600 0.603700
vn -0.381500 0.912200 0.149500
vn 0.714500 0.635100 -0.293500
vn 0.646000 0.742800 -0.175700
vn 0.647100 0.459000 0.608800
vn 0.291600 0.818400 -0.495200
vn -0.251200 0.648800 0.718300
vn -0.534900 0.833500 -0.138400
vn -0.713100 0.681600 0.164000
vn 0.086900 0.789200 0.607900
vn -0.256300 0.928500 0.268600
vn -0.189500 0.947800 -0.256400
vn -0.576400 0.632200 0.517700
vn 0.128400 0.990500 -0.048200
vn 0.231500 0.665500 0.709600
vn -0.155000 0.895000 -0.418300
vn -0.672200 0.451500 0.586800
vn -0.823200 0.555300 0.118200
vn -0.615600 0.725800 -0.307100
vn 0.434400 0.853000 0.289200
vn 0.272300 0.914900 0.297900
vn -0.233800 0.513300 0.825700
vn 0.288100 0.939700 -0.184300
vn 0.039700 0.944900 0.324800
vn -0.277100 0.802500 -0.528400
vn -0.454700 0.868800 -0.196200
vn 0.388400 0.905100 0.173100
vn 0.063700 0.977000 -0.203300
vn 0.069900 0.735100 -0.674400
vn -0.297400 0.943800 0.144200
vn 0.408800 0.763800 -0.499500
vn 0.501100 0.801800 0.325500
vn 0.067600 0.607100 -0.791800
vn -0.433300 0.854600 0.286200
vn -0.601900 0.777700 -0.181500
vn -0.405600 0.662100 -0.630100
vn 0.698500 0.704300 -0.126800
vn 0.564200 0.811300 -0.153300
vn 0.029000 0.874900 0.483400
vn 0.528800 0.609400 -0.590800
vn -0.454000 0.890900 -0.014000
vn -0.548500 0.354800 -0.757200
vn -0.779100 0.425400 -0.460400
vn -0.110700 0.981500 -0.156200
vn -0.377200 0.764600 -0.522600
vn -0.194500 0.423900 -0.884600
vn -0.723100 0.669200 -0.171200
vn 0.063900 0.667100 -0.742200
vn 0.015600 0.999700 0.017900
vn -0.120500 0.281900 -0.951900
vn -0.818700 0.574200 -0.002500
vn -0.866600 0.283800 -0.410500
vn -0.580700 0.146000 -0.800900
vn 0.294500 0.875900 -0.382100
vn 0.130600 0.889400 -0.438200
vn -0.451600 0.877900 0.159200
vn 0.253500 0.571400 -0.780500
vn 0.303100 0.631200 0.714000
vn 0.017600 0.996500 -0.082000
vn -0.153800 0.954000 0.257200
vn 0.632800 0.561800 0.532900
vn 0.372100 0.891600 0.258000
vn 0.336700 0.902000 -0.270300
vn -0.005000 0.814200 0.580600
vn 0.655400 0.744100 -0.129700
vn 0.697800 0.371900 0.612200
vn 0.303600 0.849000 -0.432400
vn -0.171100 0.715700 0.677100
vn -0.322400 0.915400 0.240900
vn -0.140300 0.964100 -0.225600
vn 0.886800 0.436900 0.150500
vn 0.793700 0.579100 0.186400
vn 0.260800 0.503400 0.823800
vn 0.728600 0.620200 -0.290500
vn 0.295600 0.948500 0.113400
vn -0.653400 0.722500 -0.226000
vn -0.515400 0.841600 0.161500
vn 0.413200 0.864000 -0.287600
vn -0.141000 0.941300 -0.306800
vn -0.515100 0.612800 -0.599300
vn -0.109100 0.956300 0.271100
vn -0.128700 0.644000 -0.754200
vn 0.615100 0.741800 -0.267300
vn -0.587300 0.461500 -0.664900
vn -0.081500 0.858900 0.505600
vn -0.609900 0.731900 0.304000
vn -0.814700 0.550000 -0.183800
vn 0.367900 0.590900 -0.718000
vn 0.266600 0.717200 -0.643800
vn 0.431300 0.869700 0.240100
vn -0.111400 0.466000 -0.877800
vn 0.745400 0.641400 0.181700
vn -0.094400 0.973200 -0.209600
vn 0.071900 0.977400 0.198900
vn 0.824100 0.531700 -0.195300
vn 0.455300 0.858300 -0.236400
vn -0.010100 0.808300 -0.588700
vn 0.445900 0.838000 0.314600
vn 0.328500 0.634900 -0.699300
vn 0.915200 0.361800 -0.177600
vn -0.160900 0.715600 -0.679700
vn 0.418600 0.735400 0.532900
vn -0.068600 0.936800 0.343000
vn -0.341100 0.922500 -0.180500
vn 0.704400 0.358000 -0.612900
vn 0.659600 0.499400 -0.561700
vn 0.813100 0.512400 0.276100
vn 0.272200 0.471900 -0.838600
vn -0.247100 0.519200 0.818100
vn -0.666400 0.743600 -0.054300
vn -0.798500 0.538800 0.268700
vn 0.085900 0.709700 0.699200
vn -0.337400 0.856800 0.389900
vn -0.312300 0.925800 -0.212900
vn -0.609500 0.481300 0.630000
vn 0.065000 0.997900 0.002900
vn 0.245700 0.571900 0.782700
vn -0.283200 0.867100 -0.409800
vn -0.667500 0.289000 0.686300
vn -0.890900 0.387000 0.238000
vn -0.758600 0.607200 -0.236100
vn 0.445100 0.823500 0.351700
vn 0.259000 0.892500 0.369400
vn -0.218800 0.376400 0.900300
vn 0.248300 0.953400 -0.171500
vn 0.085500 0.929600 0.358500
vn -0.317800 0.754400 -0.574300
vn -0.506400 0.838400 -0.201600
vn 0.458600 0.874100 0.160300
vn 0.085100 0.965300 -0.247100
vn 0.049200 0.672800 -0.738200
vn -0.309900 0.934500 0.175300
vn 0.425900 0.706500 -0.565200
vn 0.590200 0.745000 0.310900
vn 0.053400 0.531400 -0.845400
vn -0.457000 0.817800 0.349800
vn -0.670000 0.719900 -0.181200
vn -0.451000 0.584500 -0.674400
vn 0.746100 0.638100 -0.190000
vn 0.617800 0.760400 -0.200100
vn 0.091300 0.837200 0.539200
vn 0.532600 0.540900 -0.650900
vn 0.252500 0.675900 0.692400
vn -0.107700 0.979300 -0.171600
vn -0.283900 0.930900 0.229800
vn 0.593900 0.641300 0.485800
vn 0.307800 0.929400 0.203800
vn 0.249800 0.891500 -0.377900
vn -0.083700 0.814000 0.574700
vn 0.592300 0.776300 -0.215500
vn 0.676700 0.481400 0.557000
vn 0.229700 0.800400 -0.553700
vn -0.236200 0.673300 0.700600
vn -0.473200 0.851700 0.225200
vn -0.286000 0.898600 -0.332700
vn 0.841500 0.530000 0.104900
vn 0.747000 0.655000 0.113400
vn 0.257400 0.540500 0.801000
vn 0.684500 0.634600 -0.358900
vn 0.024600 0.690900 0.722600
vn -0.014600 0.988900 -0.148200
vn -0.281900 0.951600 0.122700
vn 0.398000 0.637900 0.659300
vn 0.219400 0.930800 0.292400
vn 0.352700 0.909600 -0.219700
vn -0.235400 0.841600 0.486100
vn 0.618800 0.785100 0.025100
vn 0.445400 0.458200 0.769200
vn 0.375700 0.845500 -0.379500
vn -0.417600 0.735800 0.533100
vn -0.434100 0.899000 0.057500
vn -0.116700 0.936400 -0.331000
vn 0.766800 0.512800 0.386000
vn 0.659100 0.648900 0.380100
vn -0.043000 0.566300 0.823100
vn 0.746300 0.658800 -0.094900
vn 0.363100 0.728500 0.580900
vn -0.545900 0.717800 0.432100
vn -0.332600 0.600600 0.727100
vn 0.390600 0.890000 0.235300
vn -0.088900 0.919900 0.381900
vn -0.515900 0.853300 0.075800
vn 0.045700 0.633800 0.772100
vn -0.201000 0.974000 -0.104700
vn 0.571400 0.806500 0.152100
vn -0.628300 0.777300 -0.032700
vn 0.101500 0.457500 0.883400
vn -0.394300 0.454800 0.798500
vn -0.704500 0.571900 0.420200
vn 0.259600 0.940500 -0.219300
vn 0.179800 0.981200 -0.070400
vn 0.493500 0.618000 0.612000
vn -0.234700 0.920900 -0.311200
vn 0.061200 0.944100 -0.324000
vn -0.105600 0.813100 0.572500
vn 0.213800 0.899700 0.380600
vn -0.310900 0.872900 -0.376100
vn -0.238300 0.964700 0.112400
vn -0.470900 0.714700 0.517200
vn 0.252700 0.967500 0.006300
vn -0.669100 0.718500 0.190100
vn -0.318400 0.763400 -0.562000
vn -0.520300 0.585200 0.621900
vn 0.449400 0.892400 -0.041000
vn 0.353500 0.821300 0.447700
vn -0.038600 0.682000 0.730300
vn -0.714900 0.641900 -0.277300
vn -0.623400 0.759100 -0.187400
vn 0.158900 0.878000 -0.451500
vn -0.806400 0.553100 0.209400
vn -0.031500 0.969500 -0.243100
vn 0.662600 0.689000 0.293600
vn 0.641300 0.763000 -0.081000
vn -0.243200 0.967000 0.075400
vn 0.240000 0.947600 0.211100
vn 0.444100 0.659800 0.606100
vn 0.342400 0.897500 -0.278000
vn 0.077000 0.758600 0.647000
vn -0.437300 0.899300 0.009500
vn 0.485500 0.521000 0.702000
vn 0.360600 0.804500 -0.472000
vn 0.737200 0.652700 -0.174900
vn 0.796800 0.520500 0.306800
vn -0.373200 0.784600 0.495100
vn -0.228700 0.866300 0.444000
vn -0.121500 0.916200 -0.381800
vn -0.001100 0.615300 0.788300
vn -0.224300 0.849300 0.477900
vn 0.003600 0.911000 -0.412500
vn -0.334200 0.913200 -0.233100
vn 0.151400 0.824800 0.544700
vn 0.088700 0.993200 0.075700
vn 0.376800 0.858500 -0.347800
vn -0.401100 0.904800 0.143400
vn 0.556100 0.831100 -0.011100
vn 0.167200 0.685400 0.708700
vn 0.450900 0.759100 -0.469500
vn -0.585600 0.794300 0.161900
vn -0.456500 0.829000 -0.323100
vn -0.034300 0.802700 -0.595300
vn 0.591000 0.677500 0.437900
vn 0.486700 0.794500 0.363200
vn -0.316300 0.747300 0.584300
vn 0.718500 0.693900 -0.048500
vn -0.060300 0.963900 0.259300
vn -0.817500 0.569400 -0.086500
vn -0.710300 0.649300 0.271800
vn 0.057500 0.993000 -0.103400
vn -0.434800 0.893900 -0.108700
vn -0.687400 0.573200 -0.446100
vn -0.395500 0.832400 0.388300
vn -0.364500 0.730000 -0.578200
vn 0.270300 0.958300 -0.092900
vn -0.729900 0.428600 -0.532500
vn -0.346800 0.739500 0.576900
vn -0.759200 0.525700 0.383700
vn -0.921900 0.381100 -0.069900
vn 0.099700 0.830200 -0.548500
vn -0.037400 0.887800 -0.458600
vn 0.070300 0.927300 0.367700
vn -0.304700 0.599900 -0.739700
vn 0.000000 1.000000 0.000000
vn 0.000000 1.000000 0.000000
vn 0.000000 1.000000 0.000000
vn 0.000000 1.000000 0.000000
vn 0.000000 1.000000 0.000000
vn 0.000000 1.000000 0.000000
vn 0.000000 1.000000 0.000000
vn 0.000000 1.000000 0.000000
f 1/1/1 2/2/2 3/3/3
f 1/1/1 3/3/3 4/4/4
f 5/5/5 6/6/6 2/2/2
f 5/5/5 2/2/2 1/1/1
f 7/7/7 5/5/5 1/1/1
f 7/7/7 1/1/1 8/8/8
f 8/8/8 1/1/1 4/4/4
f 8/8/8 4/4/4 9/9/9
f 8/8/8 9/9/9 10/10/10
f 8/8/8 10/10/10 11/11/11
f 3/3/3 2/2/2 12/12/12
f 3/3/3 12/12/12 13/13/13
f 7/7/7 8/8/8 11/11/11
f 7/7/7 11/11/11 14/14/14
f 5/5/5 7/7/7 14/14/14
f 5/5/5 14/14/14 15/15/15
f 2/2/2 6/6/6 16/16/16
f 2/2/2 16/16/16 12/12/12
f 9/9/9 4/4/4 17/17/17
f 9/9/9 17/17/17 10/10/10
f 6/6/6 5/5/5 15/15/15
f 6/6/6 15/15/15 16/16/16
f 4/4/4 3/3/3 13/13/13
f 4/4/4 13/13/13 17/17/17
f 18/18/18 19/19/19 20/20/20
f 18/18/18 20/20/20 21/21/21
f 22/22/22 23/23/23 19/19/19
f 22/22/22 19/19/19 18/18/18
f 24/24/24 22/22/22 18/18/18
f 24/24/24 18/18/18 25/25/25
f 25/25/25 18/18/18 21/21/21
f 25/25/25 21/21/21 26/26/26
f 25/25/25 26/26/26 27/27/27
f 25/25/25 27/27/27 28/28/28
f 20/20/20 19/19/19 29/29/29
f 20/20/20 29/29/29 30/30/30
f 24/24/24 25/25/25 28/28/28
f 24/24/24 28/28/28 31/31/31
f 22/22/22 24/24/24 31/31/31
f 22/22/22 31/31/31 32/32/32
f 19/19/19 23/23/23 33/33/33
f 19/19/19 33/33/33 29/29/29
f 26/26/26 21/21/21 34/34/34
f 26/26/26 34/34/34 27/27/27
f 23/23/23 22/22/22 32/32/32
f 23/23/23 32/32/32 33/33/33
f 21/21/21 20/20/20 30/30/30
f 21/21/21 30/30/30 34/34/34
f 35/35/35 36/36/36 37/37/37
f 35/35/35 37/37/37 38/38/38
f 39/39/39 40/40/40 36/36/36
f 39/39/39 36/36/36 35/35/35
f 41/41/41 39/39/39 35/35/35
f 41/41/41 35/35/35 42/42/42
f 42/42/42 35/35/35 38/38/38
f 42/42/42 38/38/38 43/43/43
f 42/42/42 43/43/43 44/44/44
f 42/42/42 44/44/44 45/45/45
f 37/37/37 36/36/36 46/46/46
f 37/37/37 46/46/46 47/47/47
f 41/41/41 42/42/42 45/45/45
f 41/41/41 45/45/45 48/48/48
f 39/39/39 41/41/41 48/48/48
f 39/39/39 48/48/48 49/49/49
f 36/36/36 40/40/40 50/50/50
f 36/36/36 50/50/50 46/46/46
f 43/43/43 38/38/38 51/51/51
f 43/43/43 51/51/51 44/44/44
f 40/40/40 39/39/39 49/49/49
f 40/40/40 49/49/49 50/50/50
f 38/38/38 37/37/37 47/47/47
f 38/38/38 47/47/47 51/51/51
f 52/52/52 53/53/53 54/54/54
f 52/52/52 54/54/54 55/55/55
f 56/56/56 57/57/57 53/53/53
f 56/56/56 53/53/53 52/52/52
f 58/58/58 56/56/56 52/52/52
f 58/58/58 52/52/52 59/59/59
f 59/59/59 52/52/52 55/55/55
f 59/59/59 55/55/55 60/60/60
f 59/59/59 60/60/60 61/61/61
f 59/59/59 61/61/61 62/62/62
f 54/54/54 53/53/53 63/63/63
f 54/54/54 63/63/63 64/64/64
f 58/58/58 59/59/59 62/62/62
f 58/58/58 62/62/62 65/65/65
f 56/56/56 58/58/58 65/65/65
f 56/56/56 65/65/65 66/66/66
f 53/53/53 57/57/57 67/67/67
f 53/53/53 67/67/67 63/63/63
f 60/60/60 55/55/55 68/68/68
f 60/60/60 68/68/68 61/61/61
f 57/57/57 56/56/56 66/66/66
f 57/57/57 66/66/66 67/67/67
f 55/55/55 54/54/54 64/64/64
f 55/55/55 64/64/64 68/68/68
f 69/69/69 70/70/70 71/71/71
f 69/69/69 71/71/71 72/72/72
f 73/73/73 74/74/74 70/70/70
f 73/73/73 70/70/70 69/69/69
f 75/75/75 73/73/73 69/69/69
f 75/75/75 69/69/69 76/76/76
f 76/76/76 69/69/69 72/72/72
f 76/76/76 72/72/72 77/77/77
f 76/76/76 77/77/77 78/78/78
f 76/76/76 78/78/78 79/79/79
f 71/71/71 70/70/70 80/80/80
f 71/71/71 80/80/80 81/81/81
f 75/75/75 76/76/76 79/79/79
f 75/75/75 79/79/79 82/82/82
f 73/73/73 75/75/75 82/82/82
f 73/73/73 82/82/82 83/83/83
f 70/70/70 74/74/74 84/84/84
f 70/70/70 84/84/84 80/80/80
f 77/77/77 72/72/72 85/85/85
f 77/77/77 85/85/85 78/78/78
f 74/74/74 73/73/73 83/83/83
f 74/74/74 83/83/83 84/84/84
f 72/72/72 71/71/71 81/81/81
f 72/72/72 81/81/81 85/85/85
f 86/86/86 87/87/87 88/88/88
f 86/86/86 88/88/88 89/89/89
f 90/90/90 91/91/91 87/87/87
f 90/90/90 87/87/87 86/86/86
f 92/92/92 90/90/90 86/86/86
f 92/92/92 86/86/86 93/93/93
f 93/93/93 86/86/86 89/89/89
f 93/93/93 89/89/89 94/94/94
f 93/93/93 94/94/94 95/95/95
f 93/93/93 95/95/95 96/96/96
f 88/88/88 87/87/87 97/97/97
f 88/88/88 97/97/97 98/98/98
f 92/92/92 93/93/93 96/96/96
f 92/92/92 96/96/96 99/99/99
f 90/90/90 92/92/92 99/99/99
f 90/90/90 99/99/99 100/100/100
f 87/87/87 91/91/91 101/101/101
f 87/87/87 101/101/101 97/97/97
f 94/94/94 89/89/89 102/102/102
f 94/94/94 102/102/102 95/95/95
f 91/91/91 90/90/90 100/100/100
f 91/91/91 100/100/100 101/101/101
f 89/89/89 88/88/88 98/98/98
f 89/89/89 98/98/98 102/102/102
f 103/103/103 104/104/104 105/105/105
f 103/103/103 105/105/105 106/106/106
f 107/107/107 108/108/108 104/104/104
f 107/107/107 104/104/104 103/103/103
f 109/109/109 107/107/107 103/103/103
f 109/109/109 103/103/103 110/110/110
f 110/110/110 103/103/103 106/106/106
f 110/110/110 106/106/106 111/111/111
f 110/110/110 111/111/111 112/112/112
f 110/110/110 112/112/112 113/113/113
f 105/105/105 104/104/104 114/114/114
f 105/105/105 114/114/114 115/115/115
f 109/109/109 110/110/110 113/113/113
f 109/109/109 113/113/113 116/116/116
f 107/107/107 109/109/109 116/116/116
f 107/107/107 116/116/116 117/117/117
f 104/104/104 108/108/108 118/118/118
f 104/104/104 118/118/118 114/114/114
f 111/111/111 106/106/106 119/119/119
f 111/111/111 119/119/119 112/112/112
f 108/108/108 107/107/107 117/117/117
f 108/108/108 117/117/117 118/118/118
f 106/106/106 105/105/105 115/115/115
f 106/106/106 115/115/115 119/119/119
f 120/120/120 121/121/121 122/122/122
f 120/120/120 122/122/122 123/123/123
f 124/124/124 125/125/125 121/121/121
f 124/124/124 121/121/121 120/120/120
f 126/126/126 124/124/124 120/120/120
f 126/126/126 120/120/120 127/127/127
f 127/127/127 120/120/120 123/123/123
f 127/127/127 123/123/123 128/128/128
f 127/127/127 128/128/128 129/129/129
f 127/127/127 129/129/129 130/130/130
f 122/122/122 121/121/121 131/131/131
f 122/122/122 131/131/131 132/132/132
f 126/126/126 127/127/127 130/130/130
f 126/126/126 130/130/130 133/133/133
f 124/124/124 126/126/126 133/133/133
f 124/124/124 133/133/133 134/134/134
f 121/121/121 125/125/125 135/135/135
f 121/121/121 135/135/135 131/131/131
f 128/128/128 123/123/123 136/136/136
f 128/128/128 136/136/136 129/129/129
f 125/125/125 124/124/124 134/134/134
f 125/125/125 134/134/134 135/135/135
f 123/123/123 122/122/122 132/132/132
f 123/123/123 132/132/132 136/136/136
f 137/137/137 138/138/138 139/139/139
f 137/137/137 139/139/139 140/140/140
f 141/141/141 142/142/142 138/138/138
f 141/141/141 138/138/138 137/137/137
f 143/143/143 141/141/141 137/137/137
f 143/143/143 137/137/137 144/144/144
f 144/144/144 137/137/137 140/140/140
f 144/144/144 140/140/140 145/145/145
f 144/144/144 145/145/145 146/146/146
f 144/144/144 146/146/146 147/147/147
f 139/139/139 138/138/138 148/148/148
f 139/139/139 148/148/148 149/149/149
f 143/143/143 144/144/144 147/147/147
f 143/143/143 147/147/147 150/150/150
f 141/141/141 143/143/143 150/150/150
f 141/141/141 150/150/150 151/151/151
f 138/138/138 142/142/142 152/152/152
f 138/138/138 152/152/152 148/148/148
f 145/145/145 140/140/140 153/153/153
f 145/145/145 153/153/153 146/146/146
f 142/142/142 141/141/141 151/151/151
f 142/142/142 151/151/151 152/152/152
f 140/140/140 139/139/139 149/149/149
f 140/140/140 149/149/149 153/153/153
f 154/154/154 155/155/155 156/156/156
f 154/154/154 156/156/156 157/157/157
f 158/158/158 159/159/159 155/155/155
f 158/158/158 155/155/155 154/154/154
f 160/160/160 158/158/158 154/154/154
f 160/160/160 154/154/154 161/161/161
f 161/161/161 154/154/154 157/157/157
f 161/161/161 157/157/157 162/162/162
f 161/161/161 162/162/162 163/163/163
f 161/161/161 163/163/163 164/164/164
f 156/156/156 155/155/155 165/165/165
f 156/156/156 165/165/165 166/166/166
f 160/160/160 161/161/161 164/164/164
f 160/160/160 164/164/164 167/167/167
f 158/158/158 160/160/160 167/167/167
f 158/158/158 167/167/167 168/168/168
f 155/155/155 159/159/159 169/169/169
f 155/155/155 169/169/169 165/165/165
f 162/162/162 157/157/157 170/170/170
f 162/162/162 170/170/170 163/163/163
f 159/159/159 158/158/158 168/168/168
f 159/159/159 168/168/168 169/169/169
f 157/157/157 156/156/156 166/166/166
f 157/157/157 166/166/166 170/170/170
f 171/171/171 172/172/172 173/173/173
f 171/171/171 173/173/173 174/174/174
f 175/175/175 176/176/176 172/172/172
f 175/175/175 172/172/172 171/171/171
f 177/177/177 175/175/175 171/171/171
f 177/177/177 171/171/171 178/178/178
f 178/178/178 171/171/171 174/174/174
f 178/178/178 174/174/174 179/179/179
f 178/178/178 179/179/179 180/180/180
f 178/178/178 180/180/180 181/181/181
f 173/173/173 172/172/172 182/182/182
f 173/173/173 182/182/182 183/183/183
f 177/177/177 178/178/178 181/181/181
f 177/177/177 181/181/181 184/184/184
f 175/175/175 177/177/177 184/184/184
f 175/175/175 184/184/184 185/185/185
f 172/172/172 176/176/176 186/186/186
f 172/172/172 186/186/186 182/182/182
f 179/179/179 174/174/174 187/187/187
f 179/179/179 187/187/187 180/180/180
f 176/176/176 175/175/175 185/185/185
f 176/176/176 185/185/185 186/186/186
f 174/174/174 173/173/173 183/183/183
f 174/174/174 183/183/183 187/187/187
f 188/188/188 189/189/189 190/190/190
f 188/188/188 190/190/190 191/191/191
f 192/192/192 193/193/193 189/189/189
f 192/192/192 189/189/189 188/188/188
f 194/194/194 192/192/192 188/188/188
f 194/194/194 188/188/188 195/195/195
f 195/195/195 188/188/188 191/191/191
f 195/195/195 191/191/191 196/196/196
f 195/195/195 196/196/196 197/197/197
f 195/195/195 197/197/197 198/198/198
f 190/190/190 189/189/189 199/199/199
f 190/190/190 199/199/199 200/200/200
f 194/194/194 195/195/195 198/198/198
f 194/194/194 198/198/198 201/201/201
f 192/192/192 194/194/194 201/201/201
f 192/192/192 201/201/201 202/202/202
f 189/189/189 193/193/193 203/203/203
f 189/189/189 203/203/203 199/199/199
f 196/196/196 191/191/191 204/204/204
f 196/196/196 204/204/204 197/197/197
f 193/193/193 192/192/192 202/202/202
f 193/193/193 202/202/202 203/203/203
f 191/191/191 190/190/190 200/200/200
f 191/191/191 200/200/200 204/204/204
f 205/205/205 206/206/206 207/207/207
f 205/205/205 207/207/207 208/208/208
f 209/209/209 210/210/210 206/206/206
f 209/209/209 206/206/206 205/205/205
f 211/211/211 209/209/209 205/205/205
f 211/211/211 205/205/205 212/212/212
f 212/212/212 205/205/205 208/208/208
f 212/212/212 208/208/208 213/213/213
f 212/212/212 213/213/213 214/214/214
f 212/212/212 214/214/214 215/215/215
f 207/207/207 206/206/206 216/216/216
f 207/207/207 216/216/216 217/217/217
f 211/211/211 212/212/212 215/215/215
f 211/211/211 215/215/215 218/218/218
f 209/209/209 211/211/211 218/218/218
f 209/209/209 218/218/218 219/219/219
f 206/206/206 210/210/210 220/220/220
f 206/206/206 220/220/220 216/216/216
f 213/213/213 208/208/208 221/221/221
f 213/213/213 221/221/221 214/214/214
f 210/210/210 209/209/209 219/219/219
f 210/210/210 219/219/219 220/220/220
f 208/208/208 207/207/207 217/217/217
f 208/208/208 217/217/217 221/221/221
f 222/222/222 223/223/223 224/224/224
f 222/222/222 224/224/224 225/225/225
f 226/226/226 227/227/227 223/223/223
f 226/226/226 223/223/223 222/222/222
f 228/228/228 226/226/226 222/222/222
f 228/228/228 222/222/222 229/229/229
f 229/229/229 222/222/222 225/225/225
f 229/229/229 225/225/225 230/230/230
f 229/229/229 230/230/230 231/231/231
f 229/229/229 231/231/231 232/232/232
f 224/224/224 223/223/223 233/233/233
f 224/224/224 233/233/233 234/234/234
f 228/228/228 229/229/229 232/232/232
f 228/228/228 232/232/232 235/235/235
f 226/226/226 228/228/228 235/235/235
f 226/226/226 235/235/235 236/236/236
f 223/223/223 227/227/227 237/237/237
f 223/223/223 237/237/237 233/233/233
f 230/230/230 225/225/225 238/238/238
f 230/230/230 238/238/238 231/231/231
f 227/227/227 226/226/226 236/236/236
f 227/227/227 236/236/236 237/237/237
f 225/225/225 224/224/224 234/234/234
f 225/225/225 234/234/234 238/238/238
f 239/239/239 240/240/240 241/241/241
f 239/239/239 241/241/241 242/242/242
f 243/243/243 244/244/244 240/240/240
f 243/243/243 240/240/240 239/239/239
f 245/245/245 243/243/243 239/239/239
f 245/245/245 239/239/239 246/246/246
f 246/246/246 239/239/239 242/242/242
f 246/246/246 242/242/242 247/247/247
f 246/246/246 247/247/247 248/248/248
f 246/246/246 248/248/248 249/249/249
f 241/241/241 240/240/240 250/250/250
f 241/241/241 250/250/250 251/251/251
f 245/245/245 246/246/246 249/249/249
f 245/245/245 249/249/249 252/252/252
f 243/243/243 245/245/245 252/252/252
f 243/243/243 252/252/252 253/253/253
f 240/240/240 244/244/244 254/254/254
f 240/240/240 254/254/254 250/250/250
f 247/247/247 242/242/242 255/255/255
f 247/247/247 255/255/255 248/248/248
f 244/244/244 243/243/243 253/253/253
f 244/244/244 253/253/253 254/254/254
f 242/242/242 241/241/241 251/251/251
f 242/242/242 251/251/251 255/255/255
f 256/256/256 257/257/257 258/258/258
f 256/256/256 258/258/258 259/259/259
f 260/260/260 261/261/261 257/257/257
f 260/260/260 257/257/257 256/256/256
f 262/262/262 260/260/260 256/256/256
f 262/262/262 256/256/256 263/263/263
f 263/263/263 256/256/256 259/259/259
f 263/263/263 259/259/259 264/264/264
f 263/263/263 264/264/264 265/265/265
f 263/263/263 265/265/265 266/266/266
f 258/258/258 257/257/257 267/267/267
f 258/258/258 267/267/267 268/268/268
f 262/262/262 263/263/263 266/266/266
f 262/262/262 266/266/266 269/269/269
f 260/260/260 262/262/262 269/269/269
f 260/260/260 269/269/269 270/270/270
f 257/257/257 261/261/261 271/271/271
f 257/257/257 271/271/271 267/267/267
f 264/264/264 259/259/259 272/272/272
f 264/264/264 272/272/272 265/265/265
f 261/261/261 260/260/260 270/270/270
f 261/261/261 270/270/270 271/271/271
f 259/259/259 258/258/258 268/268/268
f 259/259/259 268/268/268 272/272/272
f 273/273/273 274/274/274 275/275/275
f 273/273/273 275/275/275 276/276/276
f 277/277/277 278/278/278 274/274/274
f 277/277/277 274/274/274 273/273/273
f 279/279/279 277/277/277 273/273/273
f 279/279/279 273/273/273 280/280/280
f 280/280/280 273/273/273 276/276/276
f 280/280/280 276/276/276 281/281/281
f 280/280/280 281/281/281 282/282/282
f 280/280/280 282/282/282 283/283/283
f 275/275/275 274/274/274 284/284/284
f 275/275/275 284/284/284 285/285/285
f 279/279/279 280/280/280 283/283/283
f 279/279/279 283/283/283 286/286/286
f 277/277/277 279/279/279 286/286/286
f 277/277/277 286/286/286 287/287/287
f 274/274/274 278/278/278 288/288/288
f 274/274/274 288/288/288 284/284/284
f 281/281/281 276/276/276 289/289/289
f 281/281/281 289/289/289 282/282/282
f 278/278/278 277/277/277 287/287/287
f 278/278/278 287/287/287 288/288/288
f 276/276/276 275/275/275 285/285/285
f 276/276/276 285/285/285 289/289/289
f 290/290/290 291/291/291 292/292/292
f 290/290/290 292/292/292 293/293/293
f 294/294/294 295/295/295 291/291/291
f 294/294/294 291/291/291 290/290/290
f 296/296/296 294/294/294 290/290/290
f 296/296/296 290/290/290 297/297/297
f 297/297/297 290/290/290 293/293/293
f 297/297/297 293/293/293 298/298/298
f 297/297/297 298/298/298 299/299/299
f 297/297/297 299/299/299 300/300/300
f 292/292/292 291/291/291 301/301/301
f 292/292/292 301/301/301 302/302/302
f 296/296/296 297/297/297 300/300/300
f 296/296/296 300/300/300 303/303/303
f 294/294/294 296/296/296 303/303/303
f 294/294/294 303/303/303 304/304/304
f 291/291/291 295/295/295 305/305/305
f 291/291/291 305/305/305 301/301/301
f 298/298/298 293/293/293 306/306/306
f 298/298/298 306/306/306 299/299/299
f 295/295/295 294/294/294 304/304/304
f 295/295/295 304/304/304 305/305/305
f 293/293/293 292/292/292 302/302/302
f 293/293/293 302/302/302 306/306/306
f 307/307/307 308/308/308 309/309/309
f 307/307/307 309/309/309 310/310/310
f 311/311/311 312/312/312 308/308/308
f 311/311/311 308/308/308 307/307/307
f 313/313/313 311/311/311 307/307/307
f 313/313/313 307/307/307 314/314/314
f 314/314/314 307/307/307 310/310/310
f 314/314/314 310/310/310 315/315/315
f 314/314/314 315/315/315 316/316/316
f 314/314/314 316/316/316 317/317/317
f 309/309/309 308/308/308 318/318/318
f 309/309/309 318/318/318 319/319/319
f 313/313/313 314/314/314 317/317/317
f 313/313/313 317/317/317 320/320/320
f 311/311/311 313/313/313 320/320/320
f 311/311/311 320/320/320 321/321/321
f 308/308/308 312/312/312 322/322/322
f 308/308/308 322/322/322 318/318/318
f 315/315/315 310/310/310 323/323/323
f 315/315/315 323/323/323 316/316/316
f 312/312/312 311/311/311 321/321/321
f 312/312/312 321/321/321 322/322/322
f 310/310/310 309/309/309 319/319/319
f 310/310/310 319/319/319 323/323/323
f 324/324/324 325/325/325 326/326/326
f 324/324/324 326/326/326 327/327/327
f 328/328/328 329/329/329 325/325/325
f 328/328/328 325/325/325 324/324/324
f 330/330/330 328/328/328 324/324/324
f 330/330/330 324/324/324 331/331/331
f 331/331/331 324/324/324 327/327/327
f 331/331/331 327/327/327 332/332/332
f 331/331/331 332/332/332 333/333/333
f 331/331/331 333/333/333 334/334/334
f 326/326/326 325/325/325 335/335/335
f 326/326/326 335/335/335 336/336/336
f 330/330/330 331/331/331 334/334/334
f 330/330/330 334/334/334 337/337/337
f 328/328/328 330/330/330 337/337/337
f 328/328/328 337/337/337 338/338/338
f 325/325/325 329/329/329 339/339/339
f 325/325/325 339/339/339 335/335/335
f 332/332/332 327/327/327 340/340/340
f 332/332/332 340/340/340 333/333/333
f 329/329/329 328/328/328 338/338/338
f 329/329/329 338/338/338 339/339/339
f 327/327/327 326/326/326 336/336/336
f 327/327/327 336/336/336 340/340/340
f 341/341/341 342/342/342 343/343/343
f 341/341/341 343/343/343 344/344/344
f 345/345/345 346/346/346 342/342/342
f 345/345/345 342/342/342 341/341/341
f 347/347/347 345/345/345 341/341/341
f 347/347/347 341/341/341 348/348/348
f 348/348/348 341/341/341 344/344/344
f 348/348/348 344/344/344 349/349/349
f 348/348/348 349/349/349 350/350/350
f 348/348/348 350/350/350 351/351/351
f 343/343/343 342/342/342 352/352/352
f 343/343/343 352/352/352 353/353/353
f 347/347/347 348/348/348 351/351/351
f 347/347/347 351/351/351 354/354/354
f 345/345/345 347/347/347 354/354/354
f 345/345/345 354/354/354 355/355/355
f 342/342/342 346/346/346 356/356/356
f 342/342/342 356/356/356 352/352/352
f 349/349/349 344/344/344 357/357/357
f 349/349/349 357/357/357 350/350/350
f 346/346/346 345/345/345 355/355/355
f 346/346/346 355/355/355 356/356/356
f 344/344/344 343/343/343 353/353/353
f 344/344/344 353/353/353 357/357/357
f 358/358/358 359/359/359 360/360/360
f 358/358/358 360/360/360 361/361/361
f 362/362/362 363/363/363 359/359/359
f 362/362/362 359/359/359 358/358/358
f 364/364/364 362/362/362 358/358/358
f 364/364/364 358/358/358 365/365/365
f 365/365/365 358/358/358 361/361/361
f 365/365/365 361/361/361 366/366/366
f 365/365/365 366/366/366 367/367/367
f 365/365/365 367/367/367 368/368/368
f 360/360/360 359/359/359 369/369/369
f 360/360/360 369/369/369 370/370/370
f 364/364/364 365/365/365 368/368/368
f 364/364/364 368/368/368 371/371/371
f 362/362/362 364/364/364 371/371/371
f 362/362/362 371/371/371 372/372/372
f 359/359/359 363/363/363 373/373/373
f 359/359/359 373/373/373 369/369/369
f 366/366/366 361/361/361 374/374/374
f 366/366/366 374/374/374 367/367/367
f 363/363/363 362/362/362 372/372/372
f 363/363/363 372/372/372 373/373/373
f 361/361/361 360/360/360 370/370/370
f 361/361/361 370/370/370 374/374/374
f 375/375/375 376/376/376 377/377/377
f 375/375/375 377/377/377 378/378/378
f 379/379/379 380/380/380 376/376/376
f 379/379/379 376/376/376 375/375/375
f 381/381/381 379/379/379 375/375/375
f 381/381/381 375/375/375 382/382/382
f 382/382/382 375/375/375 378/378/378
f 382/382/382 378/378/378 383/383/383
f 382/382/382 383/383/383 384/384/384
f 382/382/382 384/384/384 385/385/385
f 377/377/377 376/376/376 386/386/386
f 377/377/377 386/386/386 387/387/387
f 381/381/381 382/382/382 385/385/385
f 381/381/381 385/385/385 388/388/388
f 379/379/379 381/381/381 388/388/388
f 379/379/379 388/388/388 389/389/389
f 376/376/376 380/380/380 390/390/390
f 376/376/376 390/390/390 386/386/386
f 383/383/383 378/378/378 391/391/391
f 383/383/383 391/391/391 384/384/384
f 380/380/380 379/379/379 389/389/389
f 380/380/380 389/389/389 390/390/390
f 378/378/378 377/377/377 387/387/387
f 378/378/378 387/387/387 391/391/391
f 392/392/392 393/393/393 394/394/394
f 392/392/392 394/394/394 395/395/395
f 396/396/396 397/397/397 393/393/393
f 396/396/396 393/393/393 392/392/392
f 398/398/398 396/396/396 392/392/392
f 398/398/398 392/392/392 399/399/399
f 399/399/399 392/392/392 395/395/395
f 399/399/399 395/395/395 400/400/400
f 399/399/399 400/400/400 401/401/401
f 399/399/399 401/401/401 402/402/402
f 394/394/394 393/393/393 403/403/403
f 394/394/394 403/403/403 404/404/404
f 398/398/398 399/399/399 402/402/402
f 398/398/398 402/402/402 405/405/405
f 396/396/396 398/398/398 405/405/405
f 396/396/396 405/405/405 406/406/406
f 393/393/393 397/397/397 407/407/407
f 393/393/393 407/407/407 403/403/403
f 400/400/400 395/395/395 408/408/408
f 400/400/400 408/408/408 401/401/401
f 397/397/397 396/396/396 406/406/406
f 397/397/397 406/406/406 407/407/407
f 395/395/395 394/394/394 404/404/404
f 395/395/395 404/404/404 408/408/408
f 409/409/409 410/410/410 411/411/411
f 409/409/409 411/411/411 412/412/412
f 413/413/413 414/414/414 410/410/410
f 413/413/413 410/410/410 409/409/409
f 415/415/415 413/413/413 409/409/409
f 415/415/415 409/409/409 416/416/416
f 416/416/416 409/409/409 412/412/412
f 416/416/416 412/412/412 417/417/417
f 416/416/416 417/417/417 418/418/418
f 416/416/416 418/418/418 419/419/419
f 411/411/411 410/410/410 420/420/420
f 411/411/411 420/420/420 421/421/421
f 415/415/415 416/416/416 419/419/419
f 415/415/415 419/419/419 422/422/422
f 413/413/413 415/415/415 422/422/422
f 413/413/413 422/422/422 423/423/423
f 410/410/410 414/414/414 424/424/424
f 410/410/410 424/424/424 420/420/420
f 417/417/417 412/412/412 425/425/425
f 417/417/417 425/425/425 418/418/418
f 414/414/414 413/413/413 423/423/423
f 414/414/414 423/423/423 424/424/424
f 412/412/412 411/411/411 421/421/421
f 412/412/412 421/421/421 425/425/425
f 426/426/426 427/427/427 428/428/428
f 426/426/426 428/428/428 429/429/429
f 430/430/430 431/431/431 427/427/427
f 430/430/430 427/427/427 426/426/426
f 432/432/432 430/430/430 426/426/426
f 432/432/432 426/426/426 433/433/433
f 433/433/433 426/426/426 429/429/429
f 433/433/433 429/429/429 434/434/434
f 433/433/433 434/434/434 435/435/435
f 433/433/433 435/435/435 436/436/436
f 428/428/428 427/427/427 437/437/437
f 428/428/428 437/437/437 438/438/438
f 432/432/432 433/433/433 436/436/436
f 432/432/432 436/436/436 439/439/439
f 430/430/430 432/432/432 439/439/439
f 430/430/430 439/439/439 440/440/440
f 427/427/427 431/431/431 441/441/441
f 427/427/427 441/441/441 437/437/437
f 434/434/434 429/429/429 442/442/442
f 434/434/434 442/442/442 435/435/435
f 431/431/431 430/430/430 440/440/440
f 431/431/431 440/440/440 441/441/441
f 429/429/429 428/428/428 438/438/438
f 429/429/429 438/438/438 442/442/442
f 443/443/443 444/444/444 445/445/445
f 443/443/443 445/445/445 446/446/446
f 447/447/447 448/448/448 444/444/444
f 447/447/447 444/444/444 443/443/443
f 449/449/449 447/447/447 443/443/443
f 449/449/449 443/443/443 450/450/450
f 450/450/450 443/443/443 446/446/446
f 450/450/450 446/446/446 451/451/451
f 450/450/450 451/451/451 452/452/452
f 450/450/450 452/452/452 453/453/453
f 445/445/445 444/444/444 454/454/454
f 445/445/445 454/454/454 455/455/455
f 449/449/449 450/450/450 453/453/453
f 449/449/449 453/453/453 456/456/456
f 447/447/447 449/449/449 456/456/456
f 447/447/447 456/456/456 457/457/457
f 444/444/444 448/448/448 458/458/458
f 444/444/444 458/458/458 454/454/454
f 451/451/451 446/446/446 459/459/459
f 451/451/451 459/459/459 452/452/452
f 448/448/448 447/447/447 457/457/457
f 448/448/448 457/457/457 458/458/458
f 446/446/446 445/445/445 455/455/455
f 446/446/446 455/455/455 459/459/459
f 460/460/460 461/461/461 462/462/462
f 460/460/460 462/462/462 463/463/463
f 464/464/464 465/465/465 461/461/461
f 464/464/464 461/461/461 460/460/460
f 466/466/466 464/464/464 460/460/460
f 466/466/466 460/460/460 467/467/467
f 467/467/467 460/460/460 463/463/463
f 467/467/467 463/463/463 468/468/468
f 467/467/467 468/468/468 469/469/469
f 467/467/467 469/469/469 470/470/470
f 462/462/462 461/461/461 471/471/471
f 462/462/462 471/471/471 472/472/472
f 466/466/466 467/467/467 470/470/470
f 466/466/466 470/470/470 473/473/473
f 464/464/464 466/466/466 473/473/473
f 464/464/464 473/473/473 474/474/474
f 461/461/461 465/465/465 475/475/475
f 461/461/461 475/475/475 471/471/471
f 468/468/468 463/463/463 476/476/476
f 468/468/468 476/476/476 469/469/469
f 465/465/465 464/464/464 474/474/474
f 465/465/465 474/474/474 475/475/475
f 463/463/463 462/462/462 472/472/472
f 463/463/463 472/472/472 476/476/476
f 477/477/477 478/478/478 479/479/479
f 477/477/477 479/479/479 480/480/480
f 481/481/481 482/482/482 478/478/478
f 481/481/481 478/478/478 477/477/477
f 483/483/483 481/481/481 477/477/477
f 483/483/483 477/477/477 484/484/484
f 484/484/484 477/477/477 480/480/480
f 484/484/484 480/480/480 485/485/485
f 484/484/484 485/485/485 486/486/486
f 484/484/484 486/486/486 487/487/487
f 479/479/479 478/478/478 488/488/488
f 479/479/479 488/488/488 489/489/489
f 483/483/483 484/484/484 487/487/487
f 483/483/483 487/487/487 490/490/490
f 481/481/481 483/483/483 490/490/490
f 481/481/481 490/490/490 491/491/491
f 478/478/478 482/482/482 492/492/492
f 478/478/478 492/492/492 488/488/488
f 485/485/485 480/480/480 493/493/493
f 485/485/485 493/493/493 486/486/486
f 482/482/482 481/481/481 491/491/491
f 482/482/482 491/491/491 492/492/492
f 480/480/480 479/479/479 489/489/489
f 480/480/480 489/489/489 493/493/493
f 494/494/494 495/495/495 496/496/496
f 494/494/494 496/496/496 497/497/497
f 498/498/498 499/499/499 495/495/495
f 498/498/498 495/495/495 494/494/494
f 500/500/500 498/498/498 494/494/494
f 500/500/500 494/494/494 501/501/501
f 501/501/501 494/494/494 497/497/497
f 501/501/501 497/497/497 502/502/502
f 501/501/501 502/502/502 503/503/503
f 501/501/501 503/503/503 504/504/504
f 496/496/496 495/495/495 505/505/505
f 496/496/496 505/505/505 506/506/506
f 500/500/500 501/501/501 504/504/504
f 500/500/500 504/504/504 507/507/507
f 498/498/498 500/500/500 507/507/507
f 498/498/498 507/507/507 508/508/508
f 495/495/495 499/499/499 509/509/509
f 495/495/495 509/509/509 505/505/505
f 502/502/502 497/497/497 510/510/510
f 502/502/502 510/510/510 503/503/503
f 499/499/499 498/498/498 508/508/508
f 499/499/499 508/508/508 509/509/509
f 497/497/497 496/496/496 506/506/506
f 497/497/497 506/506/506 510/510/510
f 511/511/511 512/512/512 513/513/513
f 511/511/511 513/513/513 514/514/514
f 515/515/515 516/516/516 512/512/512
f 515/515/515 512/512/512 511/511/511
f 517/517/517 515/515/515 511/511/511
f 517/517/517 511/511/511 518/518/518
f 518/518/518 511/511/511 514/514/514
f 518/518/518 514/514/514 519/519/519
f 518/518/518 519/519/519 520/520/520
f 518/518/518 520/520/520 521/521/521
f 513/513/513 512/512/512 522/522/522
f 513/513/513 522/522/522 523/523/523
f 517/517/517 518/518/518 521/521/521
f 517/517/517 521/521/521 524/524/524
f 515/515/515 517/517/517 524/524/524
f 515/515/515 524/524/524 525/525/525
f 512/512/512 516/516/516 526/526/526
f 512/512/512 526/526/526 522/522/522
f 519/519/519 514/514/514 527/527/527
f 519/519/519 527/527/527 520/520/520
f 516/516/516 515/515/515 525/525/525
f 516/516/516 525/525/525 526/526/526
f 514/514/514 513/513/513 523/523/523
f 514/514/514 523/523/523 527/527/527
f 528/528/528 529/529/529 530/530/530
f 528/528/528 530/530/530 531/531/531
f 532/532/532 533/533/533 529/529/529
f 532/532/532 529/529/529 528/528/528
f 534/534/534 532/532/532 528/528/528
f 534/534/534 528/528/528 535/535/535
f 535/535/535 528/528/528 531/531/531
f 535/535/535 531/531/531 536/536/536
f 535/535/535 536/536/536 537/537/537
f 535/535/535 537/537/537 538/538/538
f 530/530/530 529/529/529 539/539/539
f 530/530/530 539/539/539 540/540/540
f 534/534/534 535/535/535 538/538/538
f 534/534/534 538/538/538 541/541/541
f 532/532/532 534/534/534 541/541/541
f 532/532/532 541/541/541 542/542/542
f 529/529/529 533/533/533 543/543/543
f 529/529/529 543/543/543 539/539/539
f 536/536/536 531/531/531 544/544/544
f 536/536/536 544/544/544 537/537/537
f 533/533/533 532/532/532 542/542/542
f 533/533/533 542/542/542 543/543/543
f 531/531/531 530/530/530 540/540/540
f 531/531/531 540/540/540 544/544/544
f 545/545/545 546/546/546 547/547/547
f 545/545/545 547/547/547 548/548/548
f 549/549/549 550/550/550 546/546/546
f 549/549/549 546/546/546 545/545/545
f 551/551/551 549/549/549 545/545/545
f 551/551/551 545/545/545 552/552/552
f 552/552/552 545/545/545 548/548/548
f 552/552/552 548/548/548 553/553/553
f 552/552/552 553/553/553 554/554/554
f 552/552/552 554/554/554 555/555/555
f 547/547/547 546/546/546 556/556/556
f 547/547/547 556/556/556 557/557/557
f 551/551/551 552/552/552 555/555/555
f 551/551/551 555/555/555 558/558/558
f 549/549/549 551/551/551 558/558/558
f 549/549/549 558/558/558 559/559/559
f 546/546/546 550/550/550 560/560/560
f 546/546/546 560/560/560 556/556/556
f 553/553/553 548/548/548 561/561/561
f 553/553/553 561/561/561 554/554/554
f 550/550/550 549/549/549 559/559/559
f 550/550/550 559/559/559 560/560/560
f 548/548/548 547/547/547 557/557/557
f 548/548/548 557/557/557 561/561/561
f 562/562/562 563/563/563 564/564/564
f 562/562/562 564/564/564 565/565/565
f 566/566/566 567/567/567 563/563/563
f 566/566/566 563/563/563 562/562/562
f 568/568/568 566/566/566 562/562/562
f 568/568/568 562/562/562 569/569/569
f 569/569/569 562/562/562 565/565/565
f 569/569/569 565/565/565 570/570/570
f 569/569/569 570/570/570 571/571/571
f 569/569/569 571/571/571 572/572/572
f 564/564/564 563/563/563 573/573/573
f 564/564/564 573/573/573 574/574/574
f 568/568/568 569/569/569 572/572/572
f 568/568/568 572/572/572 575/575/575
f 566/566/566 568/568/568 575/575/575
f 566/566/566 575/575/575 576/576/576
f 563/563/563 567/567/567 577/577/577
f 563/563/563 577/577/577 573/573/573
f 570/570/570 565/565/565 578/578/578
f 570/570/570 578/578/578 571/571/571
f 567/567/567 566/566/566 576/576/576
f 567/567/567 576/576/576 577/577/577
f 565/565/565 564/564/564 574/574/574
f 565/565/565 574/574/574 578/578/578
f 579/579/579 580/580/580 581/581/581
f 579/579/579 581/581/581 582/582/582
f 583/583/583 584/584/584 580/580/580
f 583/583/583 580/580/580 579/579/579
f 585/585/585 583/583/583 579/579/579
f 585/585/585 579/579/579 586/586/586
f 586/586/586 579/579/579 582/582/582
f 586/586/586 582/582/582 587/587/587
f 586/586/586 587/587/587 588/588/588
f 586/586/586 588/588/588 589/589/589
f 581/581/581 580/580/580 590/590/590
f 581/581/581 590/590/590 591/591/591
f 585/585/585 586/586/586 589/589/589
f 585/585/585 589/589/589 592/592/592
f 583/583/583 585/585/585 592/592/592
f 583/583/583 592/592/592 593/593/593
f 580/580/580 584/584/584 594/594/594
f 580/580/580 594/594/594 590/590/590
f 587/587/587 582/582/582 595/595/595
f 587/587/587 595/595/595 588/588/588
f 584/584/584 583/583/583 593/593/593
f 584/584/584 593/593/593 594/594/594
f 582/582/582 581/581/581 591/591/591
f 582/582/582 591/591/591 595/595/595
f 596/596/596 597/597/597 598/598/598
f 596/596/596 598/598/598 599/599/599
f 600/600/600 601/601/601 597/597/597
f 600/600/600 597/597/597 596/596/596
f 602/602/602 600/600/600 596/596/596
f 602/602/602 596/596/596 603/603/603
f 603/603/603 596/596/596 599/599/599
f 603/603/603 599/599/599 604/604/604
f 603/603/603 604/604/604 605/605/605
f 603/603/603 605/605/605 606/606/606
f 598/598/598 597/597/597 607/607/607
f 598/598/598 607/607/607 608/608/608
f 602/602/602 603/603/603 606/606/606
f 602/602/602 606/606/606 609/609/609
f 600/600/600 602/602/602 609/609/609
f 600/600/600 609/609/609 610/610/610
f 597/597/597 601/601/601 611/611/611
f 597/597/597 611/611/611 607/607/607
f 604/604/604 599/599/599 612/612/612
f 604/604/604 612/612/612 605/605/605
f 601/601/601 600/600/600 610/610/610
f 601/601/601 610/610/610 611/611/611
f 599/599/599 598/598/598 608/608/608
f 599/599/599 608/608/608 612/612/612
f 613/613/613 614/614/614 615/615/615
f 613/613/613 615/615/615 616/616/616
f 617/617/617 618/618/618 614/614/614
f 617/617/617 614/614/614 613/613/613
f 619/619/619 617/617/617 613/613/613
f 619/619/619 613/613/613 620/620/620
f 620/620/620 613/613/613 616/616/616
f 620/620/620 616/616/616 621/621/621
f 620/620/620 621/621/621 622/622/622
f 620/620/620 622/622/622 623/623/623
f 615/615/615 614/614/614 624/624/624
f 615/615/615 624/624/624 625/625/625
f 619/619/619 620/620/620 623/623/623
f 619/619/619 623/623/623 626/626/626
f 617/617/617 619/619/619 626/626/626
f 617/617/617 626/626/626 627/627/627
f 614/614/614 618/618/618 628/628/628
f 614/614/614 628/628/628 624/624/624
f 621/621/621 616/616/616 629/629/629
f 621/621/621 629/629/629 622/622/622
f 618/618/618 617/617/617 627/627/627
f 618/618/618 627/627/627 628/628/628
f 616/616/616 615/615/615 625/625/625
f 616/616/616 625/625/625 629/629/629
f 630/630/630 631/631/631 632/632/632
f 630/630/630 632/632/632 633/633/633
f 634/634/634 635/635/635 631/631/631
f 634/634/634 631/631/631 630/630/630
f 636/636/636 634/634/634 630/630/630
f 636/636/636 630/630/630 637/637/637
f 637/637/637 630/630/630 633/633/633
f 637/637/637 633/633/633 638/638/638
f 637/637/637 638/638/638 639/639/639
f 637/637/637 639/639/639 640/640/640
f 632/632/632 631/631/631 641/641/641
f 632/632/632 641/641/641 642/642/642
f 636/636/636 637/637/637 640/640/640
f 636/636/636 640/640/640 643/643/643
f 634/634/634 636/636/636 643/643/643
f 634/634/634 643/643/643 644/644/644
f 631/631/631 635/635/635 645/645/645
f 631/631/631 645/645/645 641/641/641
f 638/638/638 633/633/633 646/646/646
f 638/638/638 646/646/646 639/639/639
f 635/635/635 634/634/634 644/644/644
f 635/635/635 644/644/644 645/645/645
f 633/633/633 632/632/632 642/642/642
f 633/633/633 642/642/642 646/646/646
f 647/647/647 648/648/648 649/649/649
f 647/647/647 649/649/649 650/650/650
f 651/651/651 652/652/652 648/648/648
f 651/651/651 648/648/648 647/647/647
f 653/653/653 651/651/651 647/647/647
f 653/653/653 647/647/647 654/654/654
f 654/654/654 647/647/647 650/650/650
f 654/654/654 650/650/650 655/655/655
f 654/654/654 655/655/655 656/656/656
f 654/654/654 656/656/656 657/657/657
f 649/649/649 648/648/648 658/658/658
f 649/649/649 658/658/658 659/659/659
f 653/653/653 654/654/654 657/657/657
f 653/653/653 657/657/657 660/660/660
f 651/651/651 653/653/653 660/660/660
f 651/651/651 660/660/660 661/661/661
f 648/648/648 652/652/652 662/662/662
f 648/648/648 662/662/662 658/658/658
f 655/655/655 650/650/650 663/663/663
f 655/655/655 663/663/663 656/656/656
f 652/652/652 651/651/651 661/661/661
f 652/652/652 661/661/661 662/662/662
f 650/650/650 649/649/649 659/659/659
f 650/650/650 659/659/659 663/663/663
f 664/664/664 665/665/665 666/666/666
f 664/664/664 666/666/666 667/667/667
f 668/668/668 669/669/669 665/665/665
f 668/668/668 665/665/665 664/664/664
f 670/670/670 668/668/668 664/664/664
f 670/670/670 664/664/664 671/671/671
f 671/671/671 664/664/664 667/667/667
f 671/671/671 667/667/667 672/672/672
f 671/671/671 672/672/672 673/673/673
f 671/671/671 673/673/673 674/674/674
f 666/666/666 665/665/665 675/675/675
f 666/666/666 675/675/675 676/676/676
f 670/670/670 671/671/671 674/674/674
f 670/670/670 674/674/674 677/677/677
f 668/668/668 670/670/670 677/677/677
f 668/668/668 677/677/677 678/678/678
f 665/665/665 669/669/669 679/679/679
f 665/665/665 679/679/679 675/675/675
f 672/672/672 667/667/667 680/680/680
f 672/672/672 680/680/680 673/673/673
f 669/669/669 668/668/668 678/678/678
f 669/669/669 678/678/678 679/679/679
f 667/667/667 666/666/666 676/676/676
f 667/667/667 676/676/676 680/680/680
f 681/681/681 682/682/682 683/683/683
f 681/681/681 683/683/683 684/684/684
f 685/685/685 686/686/686 682/682/682
f 685/685/685 682/682/682 681/681/681
f 687/687/687 685/685/685 681/681/681
f 687/687/687 681/681/681 688/688/688
f 688/688/688 681/681/681 684/684/684
f 688/688/688 684/684/684 689/689/689
f 688/688/688 689/689/689 690/690/690
f 688/688/688 690/690/690 691/691/691
f 683/683/683 682/682/682 692/692/692
f 683/683/683 692/692/692 693/693/693
f 687/687/687 688/688/688 691/691/691
f 687/687/687 691/691/691 694/694/694
f 685/685/685 687/687/687 694/694/694
f 685/685/685 694/694/694 695/695/695
f 682/682/682 686/686/686 696/696/696
f 682/682/682 696/696/696 692/692/692
f 689/689/689 684/684/684 697/697/697
f 689/689/689 697/697/697 690/690/690
f 686/686/686 685/685/685 695/695/695
f 686/686/686 695/695/695 696/696/696
f 684/684/684 683/683/683 693/693/693
f 684/684/684 693/693/693 697/697/697
