# Split Tree_2_leaves mesh for Ursina textured rendering
o Tree_2_leaves
v -2.415522 4.312966 1.852622
v -2.377850 3.827165 2.380961
v -1.881615 3.983996 2.241602
v -1.701780 4.243269 1.804904
v -3.073506 4.052399 1.727215
v -2.879426 3.845155 2.185089
v -2.893671 4.311673 1.290519
v -2.397436 4.468503 1.151164
v -1.895860 4.450513 1.347035
v -1.493296 4.288477 0.862834
v -2.341528 4.318902 0.531590
v -2.308408 3.234313 2.611343
v -1.469206 3.499532 2.375674
v -3.180729 4.053679 0.767261
v -3.484854 3.615215 1.505771
v -3.156637 3.264734 2.280100
v -1.165081 3.937998 1.637166
v -2.275724 4.581932 0.058856
v -2.291666 4.624574 0.853475
v -1.726572 4.630322 0.662139
v -1.489646 4.482884 0.134788
v -3.013186 4.287777 0.114692
v -2.834817 4.488397 0.647522
v -2.776259 4.140342 -0.412663
v -2.211167 4.146091 -0.603997
v -1.668016 4.282266 -0.398041
v -1.210160 3.769062 -0.611241
v -2.128702 3.538771 -0.959537
v -2.264839 4.347951 1.505246
v -1.309191 4.357673 1.181674
v -3.084350 3.529051 -0.635963
v -3.485026 3.778384 0.255864
v -3.183380 4.117660 1.156952
v -0.908514 4.108336 0.289849
v -1.285928 5.086244 0.897099
v -1.404983 4.920836 1.599779
v -0.924735 4.710848 1.438351
v -0.718758 4.625807 0.937217
v -2.008005 5.195545 0.852897
v -1.862550 5.125284 1.377015
v -1.802028 5.110502 0.351765
v -1.321780 4.900515 0.190335
v -0.864213 4.696067 0.413102
v -0.693338 4.153053 0.075417
v -1.467145 4.498802 -0.301312
v -1.607855 4.533169 2.082248
v -0.795690 4.178052 1.809249
v -2.279311 4.853920 -0.028309
v -2.627646 4.997738 0.819169
v -2.381661 4.878917 1.705523
v -0.447356 4.034235 0.961769
v -2.726534 4.756575 1.508800
v -3.154336 4.277849 1.850784
v -2.705171 4.368240 2.146446
v -2.227351 4.594184 2.012379
v -3.091335 4.575880 0.905962
v -3.333645 4.354926 1.341623
v -2.613516 4.801824 0.771895
v -2.164351 4.892215 1.067556
v -1.985043 4.815138 1.576717
v -1.367961 4.588537 1.546385
v -1.671196 4.718884 0.685324
v -3.345392 3.679905 2.009871
v -2.585795 3.832771 2.509876
v -2.430794 4.566019 0.185321
v -3.238849 4.183917 0.412047
v -3.648627 3.810253 1.148811
v -1.777739 4.214874 2.283146
v -1.409572 4.698612 0.192573
v -1.954652 4.906852 0.733890
v -1.438784 4.779533 1.005262
v -0.955003 4.489097 0.811414
v -2.025203 4.548210 -0.288963
v -2.217259 4.822534 0.204834
v -1.541422 4.257773 -0.482808
v -1.025554 4.130455 -0.211440
v -0.762946 4.214771 0.317620
v -0.441417 3.600189 0.510931
v -0.885522 3.457596 -0.383774
v -2.456752 4.770589 1.214899
v -1.584349 4.555277 1.673826
v -1.757925 3.672909 -0.842702
v -2.576064 4.164080 -0.514880
v -2.900858 4.627996 0.320194
v -0.766212 4.064107 1.346005
v -1.288095 4.752687 1.618280
v -1.861184 4.671046 2.065715
v -1.430533 4.394784 2.263226
v -0.962019 4.238918 2.024497
v -1.777940 4.935754 1.106583
v -2.024044 4.901671 1.595522
v -1.309424 4.779888 0.867854
v -0.878772 4.503625 1.065363
v -0.715912 4.273000 1.535555
v -0.447944 3.684031 1.396269
v -0.723359 4.074050 0.601109
v -2.384755 4.357183 2.292839
v -1.656463 3.889985 2.626853
v -1.451650 4.541247 0.267093
v -2.243971 4.804838 0.670816
v -2.660171 4.747200 1.497682
v -0.864140 3.626394 2.223130
v -1.516625 4.371998 0.788897
v -1.409523 4.195940 1.308970
v -1.052336 4.100780 1.056018
v -0.994912 4.071138 0.630348
v -2.068598 4.340001 0.929231
v -1.833350 4.296354 1.273427
v -2.011173 4.310360 0.503561
v -1.653985 4.215199 0.250607
v -1.230161 4.114788 0.286152
v -1.055731 3.677907 -0.075496
v -1.772477 3.847716 -0.135607
v -1.359059 3.815150 1.654229
v -0.755006 3.654217 1.226451
v -2.376529 4.008648 0.292171
v -2.473640 4.058775 1.012034
v -2.075804 3.984960 1.594120
v -0.657895 3.604093 0.506586
v -1.391528 4.662056 1.642718
v -2.070840 4.571712 1.898973
v -1.710177 4.346698 2.245504
v -1.183406 4.209484 2.178591
v -1.705633 4.764749 0.989967
v -2.090051 4.750606 1.380882
v -1.178864 4.627534 0.923052
v -0.818200 4.402520 1.269581
v -0.798988 4.223626 1.787675
v -0.471970 3.648243 1.796871
v -0.504457 3.950778 0.920705
v -2.622842 4.236904 1.985095
v -2.012912 3.856376 2.571121
v -1.114388 4.331305 0.334681
v -2.005230 4.563355 0.447837
v -2.655333 4.539439 1.108932
v -1.122071 3.624326 2.457963
v -0.135917 4.920112 -0.410217
v -0.224504 5.115536 -0.966935
v -0.723606 5.166463 -1.289854
v -0.908095 5.078380 -0.520630
v -0.453562 4.705240 0.046846
v -0.097316 4.145396 0.326359
v 0.439863 4.508777 -0.446598
v 0.290052 4.839263 -1.388083
v -1.038498 4.602415 0.103831
v -1.537603 4.653339 -0.219091
v -1.930575 4.057628 -0.123377
v -1.086526 3.971503 0.422722
v -1.626188 4.848765 -0.775807
v -1.308544 5.063637 -1.232872
v -1.543208 4.751494 -1.837817
v -2.080385 4.388115 -1.064862
v -0.553998 4.925387 -1.934181
v 0.142166 4.701898 -1.972362
v 0.112373 4.409240 -2.431490
v -0.310194 4.294270 -2.756384
v -0.479787 4.850357 -2.319173
v -0.186744 4.989936 -1.646498
v -0.040276 4.842071 -1.022204
v 0.515954 4.354959 -1.573284
v 0.465569 3.860033 -2.349734
v -0.721400 5.092574 -1.677225
v -1.143968 4.977605 -2.002119
v -1.659071 4.821219 -1.623608
v -0.944450 5.015647 -1.074169
v -1.173762 4.684946 -2.461246
v -0.844851 4.396908 -2.787112
v -1.153225 3.839181 -2.951138
v -1.709455 4.326294 -2.400055
v -0.249050 3.665604 -2.899172
v -0.732432 5.432774 -1.461183
v -1.133900 5.319335 -1.817200
v -1.645972 5.139718 -1.737762
v -1.372550 5.394801 -1.108901
v -0.646272 5.426665 -0.919582
v -0.048169 5.166402 -0.807218
v -0.193874 5.176733 -1.723135
v -0.872812 4.984892 -2.325208
v -0.975615 5.287268 -0.503777
v -1.487688 5.107650 -0.424341
v -1.471117 4.626904 0.030304
v -0.605132 4.930662 -0.104033
v -1.889155 4.994213 -0.780356
v -1.975317 5.000319 -1.321958
v -2.295759 4.445395 -1.487686
v -2.150052 4.435066 -0.571769
v -1.738795 4.681135 -2.190869
v 0.483687 4.514578 -1.221700
v 0.057595 4.671254 -1.608832
v -0.508388 4.839020 -1.522281
v -0.105049 4.888172 -0.837888
v 0.555516 4.452990 -0.632615
v 0.916947 3.842108 -0.511572
v 0.795477 3.946264 -1.507794
v 0.074898 4.211223 -2.162486
v 0.176121 4.538965 -0.180244
v -0.389864 4.706729 -0.093695
v -0.681815 4.271214 0.399819
v 0.275341 3.987502 0.253451
v -0.815956 4.863403 -0.480824
v -0.887783 4.924994 -1.069906
v -1.523864 4.640331 -1.251097
v -1.402395 4.536172 -0.254874
v -0.882256 4.494936 -2.016118
v -0.320468 4.093823 -2.576533
v -0.732414 3.857547 -2.830973
v -1.262275 3.869787 -2.734198
v -0.938015 4.405525 -2.381488
v -0.235914 4.417974 -2.154581
v 0.275830 4.192232 -1.823038
v 0.132839 3.644053 -2.536615
v -0.563820 3.244473 -2.966908
v -0.579717 4.640227 -1.804340
v -1.109577 4.652467 -1.707566
v -1.201652 4.588791 -1.067072
v -0.305586 4.568092 -1.230732
v -1.521521 4.416192 -1.962001
v -1.606076 4.092040 -2.383955
v -2.041301 3.641033 -2.210943
v -1.898310 4.189213 -1.497368
v -1.459882 3.265176 -2.803249
v -2.178154 4.040269 1.034002
v -1.948087 3.865225 1.512930
v -1.617201 3.931688 1.218447
v -1.610176 3.966756 0.789387
v -2.660145 3.796202 1.217051
v -2.380963 3.807625 1.529533
v -2.653120 3.831271 0.787993
v -2.322232 3.897734 0.493507
v -1.889360 3.955335 0.476906
v -1.622828 3.649414 0.043948
v -2.354877 3.552002 0.072023
v -1.722146 3.497025 1.796006
v -1.162572 3.609423 1.297993
v -2.914450 3.439605 0.570036
v -2.926330 3.380300 1.295631
v -2.454194 3.399615 1.824083
v -1.150693 3.668730 0.572397
v -2.697469 4.222316 1.072617
v -2.496785 4.050970 1.539285
v -2.170996 4.088499 1.262323
v -2.154357 4.112741 0.850761
v -3.176499 4.021760 1.243356
v -2.914517 4.022318 1.547899
v -3.159860 4.046003 0.831794
v -2.834069 4.083532 0.554830
v -2.416342 4.112184 0.546217
v -2.172160 3.794647 0.142607
v -2.878598 3.746192 0.157172
v -2.308205 3.691126 1.822021
v -1.757250 3.754591 1.353637
v -3.429552 3.682726 0.625555
v -3.457691 3.641729 1.321559
v -3.014642 3.642672 1.836587
v -1.729112 3.795590 0.657631
v -1.759969 4.983615 -1.667650
v -1.510765 4.792926 -2.328579
v -1.988777 4.542397 -2.230953
v -2.265888 4.463980 -1.764208
v -1.069053 5.171343 -1.517022
v -1.118184 5.056941 -2.051146
v -1.346164 5.092927 -1.050274
v -1.824177 4.842396 -0.952646
v -2.216758 4.578382 -1.230079
v -2.388446 4.039933 -0.885568
v -1.724541 4.486418 -0.416389
v -1.194514 4.402759 -2.743280
v -2.002898 3.979078 -2.578176
v -0.916158 4.910098 -0.581491
v -0.447526 5.042711 -1.370821
v -0.530610 4.849242 -2.274103
v -2.471532 3.846465 -1.788845
v -1.140473 4.677241 -1.029381
v -1.510317 4.455729 -1.385880
v -1.683554 4.427337 -0.973805
v -1.509233 4.452028 -0.580901
v -0.746161 4.572444 -1.428037
v -1.128484 4.514929 -1.590021
v -0.571840 4.597136 -1.035134
v -0.745077 4.568744 -0.623056
v -1.126908 4.509546 -0.418918
v -1.097640 4.136750 0.041785
v -0.451909 4.236863 -0.303443
v -1.746035 4.045740 -1.593482
v -2.039002 3.997724 -0.896604
v -0.158942 4.284879 -1.000319
v -0.453743 4.243122 -1.664771
v -1.100305 4.145854 -1.938710
v -1.744201 4.039484 -0.232152
v -1.687580 4.880553 -1.728045
v -1.247756 4.691794 -2.281415
v -1.743204 4.467824 -2.353265
v -2.159689 4.394511 -2.004039
v -1.074147 5.023027 -1.355631
v -0.953566 4.925016 -1.881603
v -1.490629 4.949714 -1.006406
v -1.986077 4.725745 -1.078253
v -2.280269 4.492521 -1.478067
v -2.579876 3.956884 -1.230239
v -2.082360 4.351296 -0.554099
v -0.833760 4.293880 -2.588809
v -1.671627 3.915119 -2.710314
v -1.244493 4.730056 -0.432596
v -0.540158 4.854042 -1.023181
v -0.336243 4.688292 -1.912674
v -2.375960 3.791133 -2.119728
v -0.716964 4.253057 -1.527828
v -1.169629 4.049963 -1.786266
v -1.293926 4.183236 -1.377107
v -1.073095 4.267017 -1.017127
v -0.410814 3.941151 -1.894404
v -0.812173 3.946197 -2.015248
v -0.189982 4.024933 -1.534425
v -0.314279 4.158207 -1.125263
v -0.671734 4.261973 -0.896285
v -0.679380 4.036201 -0.347607
v -0.074873 3.860716 -0.734842
v -1.521386 3.677662 -1.852688
v -1.731590 3.903045 -1.160741
v 0.135330 3.635334 -1.426788
v -0.238125 3.493649 -2.035559
v -0.916881 3.502180 -2.239924
v -1.358133 4.044733 -0.551970
v -0.290612 4.374639 -1.856099
v -0.711746 4.173530 -2.119942
v -0.841778 4.275705 -1.723828
v -0.638642 4.347813 -1.371999
v 0.020775 4.107427 -2.217319
v -0.362108 4.100844 -2.338723
v 0.223912 4.179535 -1.865491
v 0.093878 4.281711 -1.469374
v -0.255757 4.354396 -1.250596
v -0.260191 4.111513 -0.736453
v 0.331093 3.988591 -1.106437
v -1.031327 3.805642 -2.206639
v -1.251231 3.978434 -1.536751
v 0.550996 3.815800 -1.776323
v 0.207465 3.693855 -2.371311
v -0.440046 3.682722 -2.576623
v -0.907699 4.100381 -0.941763
v 0.948637 4.894920 2.143764
v 1.106485 5.091551 1.603029
v 0.787615 5.165511 1.104205
v 0.298855 5.090786 1.727928
v 0.461185 4.698529 2.426245
v 0.643749 4.123159 2.818780
v 1.468096 4.455287 2.341063
v 1.735038 4.787815 1.426610
v -0.099501 4.625209 2.235914
v -0.418372 4.699166 1.737086
v -0.843699 4.124240 1.653320
v -0.304448 3.999165 2.496897
v -0.260523 4.895799 1.196354
v 0.226929 5.092190 0.913871
v 0.247589 4.788895 0.261151
v -0.576755 4.456769 0.738866
v 1.195786 4.912889 0.583034
v 1.834465 4.654874 0.831159
v 1.982471 4.361628 0.395916
v 1.726191 4.266084 -0.075814
v 1.418257 4.832223 0.261543
v 1.414650 4.960629 0.997307
v 1.283918 4.808977 1.624181
v 1.993881 4.291905 1.343202
v 2.244177 3.795985 0.607145
v 0.945589 5.089550 0.750942
v 0.689309 4.994007 0.279212
v 0.057267 4.865427 0.409784
v 0.490673 5.027005 1.207544
v 0.837313 4.700760 -0.156031
v 1.257129 4.395006 -0.322180
v 1.017528 3.852434 -0.607252
v 0.307565 4.369508 -0.326269
v 1.810773 3.634407 -0.190613
v 0.862760 5.431019 0.948605
v 0.638568 5.335790 0.457217
v 0.131305 5.182271 0.316124
v 0.133364 5.426779 1.005693
v 0.717916 5.423507 1.477524
v 1.203628 5.134436 1.821924
v 1.448581 5.147140 0.927454
v 1.069441 4.986094 0.096449
v 0.240386 5.302859 1.718775
v -0.266877 5.149340 1.577679
v -0.461790 4.670782 1.991303
v 0.396059 4.930404 2.229913
v -0.491069 5.054112 1.086293
v -0.346225 5.061622 0.557372
v -0.595976 4.522441 0.265828
v -0.840927 4.509739 1.160300
v 0.211592 4.726473 -0.142158
v 1.827351 4.454793 1.652825
v 1.606384 4.630399 1.127175
v 1.063622 4.826547 0.975816
v 1.151278 4.859218 1.766222
v 1.647282 4.392834 2.218254
v 1.897381 3.765393 2.467709
v 2.201905 3.870174 1.511493
v 1.828219 4.167148 0.622548
v 1.119847 4.499959 2.475759
v 0.577085 4.696105 2.324398
v 0.087534 4.278263 2.647218
v 1.005418 3.946553 2.903188
v 0.356116 4.871709 1.798750
v 0.536186 4.933671 1.233325
v 0.018373 4.680020 0.802056
v -0.286152 4.575235 1.758272
v 0.910336 4.498858 0.366580
v 1.377180 4.656262 0.638854
v 0.921900 4.855131 0.762657
v 0.682794 4.893206 1.213804
v 1.344707 4.757361 1.313586
v 1.772738 4.425613 0.867964
v 1.948570 3.948166 0.517324
v 1.279627 4.338228 0.129870
v 0.509688 4.674541 0.339235
v 1.852474 4.302732 1.358572
v 1.613365 4.340804 1.809722
v 1.679048 3.804744 2.109962
v 2.083410 3.740355 1.347012
v 1.158087 4.539674 1.933522
v 0.762527 4.770323 1.704413
v 0.240167 4.531118 1.931874
v 0.909108 4.141057 2.319327
v 0.105328 4.738928 1.102186
v 0.011498 4.587869 0.499568
v -0.398574 4.366649 0.542864
v -0.655993 4.267283 0.920800
v -0.233105 4.704229 1.061988
v 0.331110 4.794731 0.771649
v 0.843553 4.635115 0.596005
v 0.303046 4.285282 0.135881
v -0.390443 3.911169 0.209102
v 0.347131 4.855783 1.235316
v 0.089713 4.756418 1.613252
v 0.435317 4.570324 2.019271
v 0.870646 4.738364 1.380129
v -0.320359 4.535198 1.656550
v -0.639972 4.328336 1.384468
v -0.798679 3.846378 1.632367
v -0.258170 4.196212 2.092490
v -0.825772 3.743129 0.848242
v 0.555905 5.131453 1.246089
v 0.270669 5.036577 1.608245
v 0.359402 4.850538 2.031367
v 0.895623 5.041515 1.766396
v 1.011703 5.095117 1.134529
v 1.050109 4.897471 0.603405
v 0.279296 4.958920 0.792067
v -0.203077 4.798473 1.404523
v 1.378126 4.931014 1.380134
v 1.466857 4.744976 1.803258
v 1.819839 4.305335 1.734316
v 1.669783 4.619952 1.018758
v 1.181623 4.650101 2.165413
v 0.725824 4.686435 2.276975
v 0.566653 4.206337 2.535433
v 1.337466 4.144890 2.346770
v -0.053018 4.483857 2.120080
v 0.616161 4.396666 0.146659
v 0.324911 4.533188 0.545018
v 0.447558 4.640442 1.030415
v 1.008208 4.658855 0.640715
v 1.109509 4.309052 0.041361
v 1.146287 3.798754 -0.305138
v 0.311969 3.946921 -0.127066
v -0.180574 4.177799 0.546612
v 1.526170 4.332315 0.338020
v 1.648816 4.439567 0.823418
v 2.058331 4.019470 1.017424
v 1.850919 3.838092 0.196551
v 1.357568 4.576088 1.221777
v 0.864222 4.663703 1.327073
v 0.731469 4.398517 1.869174
v 1.565787 4.250348 1.691103
v 0.026838 4.359178 1.367484
vt 0.784573 0.577285
vt 0.787928 0.488225
vt 1.010727 0.535630
vt 0.777108 0.527883
vt 0.773604 0.540528
vt 0.990596 0.604534
vt 0.986610 0.622571
vt 0.787031 0.502247
vt 0.986115 0.488183
vt 0.796666 0.602253
vt 0.773798 0.553411
vt 0.791983 0.589033
vt 0.782602 0.515475
vt 0.777523 0.565794
vt 0.638225 0.552159
vt 0.797660 0.616262
vt 0.641655 0.540937
vt 0.651567 0.507858
vt 0.638225 0.563721
vt 0.658930 0.606081
vt 0.650538 0.519296
vt 0.654778 0.595122
vt 0.641710 0.574787
vt 0.648264 0.584927
vt 0.646612 0.530225
vt 0.660069 0.617494
vt 0.884101 0.940035
vt 0.805558 0.952429
vt 0.887138 0.963595
vt 0.805687 0.922538
vt 0.806197 0.906583
vt 0.888710 0.973808
vt 0.887733 0.925274
vt 0.805194 0.966257
vt 0.805579 0.937873
vt 0.887098 1.018417
vt 0.801446 1.007101
vt 0.807545 1.052776
vt 0.888136 1.032829
vt 0.887901 0.991347
vt 0.802962 0.992908
vt 0.804269 1.037211
vt 0.886075 0.999620
vt 0.888816 0.982920
vt 0.885269 1.008435
vt 0.935650 0.994571
vt 0.801789 1.022008
vt 0.884964 0.952448
vt 0.932353 0.996566
vt 0.804189 0.979560
vt 0.929402 1.001988
vt 0.650220 0.929607
vt 0.929469 1.011233
vt 0.941939 0.992582
vt 0.645740 0.946069
vt 0.956767 0.993940
vt 0.936469 1.019684
vt 0.928586 1.005613
vt 0.930295 0.998896
vt 1.027363 1.028128
vt 0.650627 1.046963
vt 0.653557 0.913143
vt 0.641485 0.962542
vt 0.644888 1.030589
vt 0.638225 0.996088
vt 0.640091 1.013506
vt 0.638225 0.979107
vt 0.654520 0.896199
vt 0.726631 1.085891
vt 0.697446 1.064194
vt 0.681677 1.085965
vt 0.722513 1.072567
vt 0.711333 1.064295
vt 0.697496 1.106914
vt 0.654379 1.063463
vt 0.685968 1.072380
vt 0.686426 1.099189
vt 0.807324 1.078199
vt 0.825871 1.064194
vt 0.837899 1.067993
vt 0.814164 1.068399
vt 0.722109 1.099023
vt 0.845146 1.078156
vt 0.710938 1.106914
vt 0.845056 1.090450
vt 0.597317 0.242613
vt 0.757387 0.597317
vt 0.807324 1.090101
vt 0.402683 0.757387
vt 0.618652 0.762926
vt 0.825937 1.103994
vt 0.837732 1.100348
vt 0.500000 0.500000
vt 0.814310 1.099990
vt 0.242613 0.402683
vt 0.000100 0.725594
vt 0.000100 0.310990
vt 0.237074 0.618653
vt 0.762926 0.381347
vt 0.999900 0.689010
vt 0.381347 0.237074
vt 0.725594 0.999900
vt 0.597317 0.242613
vt 0.757387 0.597317
vt 0.310990 0.999900
vt 0.402683 0.757387
vt 0.618652 0.762926
vt 0.689010 0.000100
vt 0.274406 0.000100
vt 0.500000 0.500000
vt 0.999900 0.274406
vt 0.242613 0.402683
vt 0.000100 0.725594
vt 0.000100 0.310990
vt 0.237074 0.618653
vt 0.762926 0.381347
vt 0.999900 0.689010
vt 0.381347 0.237074
vt 0.725594 0.999900
vt 0.597317 0.242613
vt 0.757387 0.597317
vt 0.310990 0.999900
vt 0.402683 0.757387
vt 0.618652 0.762926
vt 0.689010 0.000100
vt 0.274406 0.000100
vt 0.500000 0.500000
vt 0.999900 0.274406
vt 0.242613 0.402683
vt 0.000100 0.725594
vt 0.000100 0.310990
vt 0.237074 0.618653
vt 0.762926 0.381347
vt 0.999900 0.689010
vt 0.381347 0.237074
vt 0.725594 0.999900
vt 0.381347 0.237074
vt 0.999900 0.689010
vt 0.242613 0.402683
vt 0.597317 0.242613
vt 0.725594 0.999900
vt 0.402683 0.757387
vt 0.689010 0.000100
vt 0.618652 0.762926
vt 0.237074 0.618653
vt 0.000100 0.310990
vt 0.757387 0.597317
vt 0.310990 0.999900
vt 0.762926 0.381347
vt 0.000100 0.725594
vt 0.500000 0.500000
vt 0.274406 0.000100
vt 0.999900 0.274406
vt 0.381347 0.237074
vt 0.999900 0.689010
vt 0.242613 0.402683
vt 0.597317 0.242613
vt 0.725594 0.999900
vt 0.402683 0.757387
vt 0.689010 0.000100
vt 0.618652 0.762926
vt 0.237074 0.618653
vt 0.000100 0.310990
vt 0.757387 0.597317
vt 0.310990 0.999900
vt 0.762926 0.381347
vt 0.000100 0.725594
vt 0.500000 0.500000
vt 0.274406 0.000100
vt 0.999900 0.274406
vt 0.381347 0.237074
vt 0.999900 0.689010
vt 0.242613 0.402683
vt 0.597317 0.242613
vt 0.725594 0.999900
vt 0.402683 0.757387
vt 0.689010 0.000100
vt 0.618652 0.762926
vt 0.237074 0.618653
vt 0.000100 0.310990
vt 0.757387 0.597317
vt 0.310990 0.999900
vt 0.762926 0.381347
vt 0.000100 0.725594
vt 0.500000 0.500000
vt 0.274406 0.000100
vt 0.999900 0.274406
vt 0.381347 0.237074
vt 0.999900 0.689010
vt 0.242613 0.402683
vt 0.597317 0.242613
vt 0.725594 0.999900
vt 0.402683 0.757387
vt 0.689010 0.000100
vt 0.618652 0.762926
vt 0.237074 0.618653
vt 0.000100 0.310990
vt 0.757387 0.597317
vt 0.310990 0.999900
vt 0.762926 0.381347
vt 0.000100 0.725594
vt 0.500000 0.500000
vt 0.274406 0.000100
vt 0.999900 0.274406
vt 0.381347 0.237074
vt 0.999900 0.689010
vt 0.242613 0.402683
vt 0.597317 0.242613
vt 0.725594 0.999900
vt 0.402683 0.757387
vt 0.689010 0.000100
vt 0.618652 0.762926
vt 0.237074 0.618653
vt 0.000100 0.310990
vt 0.757387 0.597317
vt 0.310990 0.999900
vt 0.762926 0.381347
vt 0.000100 0.725594
vt 0.500000 0.500000
vt 0.274406 0.000100
vt 0.999900 0.274406
vt 0.381347 0.237074
vt 0.762926 0.381347
vt 0.310990 0.999900
vt 0.500000 0.500000
vt 0.757387 0.597317
vt 0.689010 0.000100
vt 0.274406 0.000100
vt 0.597317 0.242613
vt 0.999900 0.274406
vt 0.999900 0.274406
vt 0.237074 0.618653
vt 0.000100 0.725594
vt 0.242613 0.402683
vt 0.274406 0.000100
vt 0.000100 0.310990
vt 0.689010 0.000100
vt 0.402683 0.757387
vt 0.381347 0.237074
vt 0.762926 0.381347
vt 0.999900 0.689010
vt 0.500000 0.500000
vt 0.757387 0.597317
vt 0.725594 0.999900
vt 0.618652 0.762926
vt 0.597317 0.242613
vt 0.310990 0.999900
vt 0.999900 0.274406
vt 0.237074 0.618653
vt 0.000100 0.725594
vt 0.242613 0.402683
vt 0.274406 0.000100
vt 0.000100 0.310990
vt 0.689010 0.000100
vt 0.402683 0.757387
vt 0.381347 0.237074
vt 0.762926 0.381347
vt 0.999900 0.689010
vt 0.500000 0.500000
vt 0.757387 0.597317
vt 0.725594 0.999900
vt 0.618652 0.762926
vt 0.597317 0.242613
vt 0.310990 0.999900
vt 0.999900 0.274406
vt 0.237074 0.618653
vt 0.000100 0.725594
vt 0.242613 0.402683
vt 0.274406 0.000100
vt 0.000100 0.310990
vt 0.689010 0.000100
vt 0.402683 0.757387
vt 0.381347 0.237074
vt 0.762926 0.381347
vt 0.999900 0.689010
vt 0.500000 0.500000
vt 0.757387 0.597317
vt 0.725594 0.999900
vt 0.618652 0.762926
vt 0.597317 0.242613
vt 0.310990 0.999900
vt 0.999900 0.274406
vt 0.237074 0.618653
vt 0.000100 0.725594
vt 0.242613 0.402683
vt 0.274406 0.000100
vt 0.000100 0.310990
vt 0.689010 0.000100
vt 0.402683 0.757387
vt 0.381347 0.237074
vt 0.762926 0.381347
vt 0.999900 0.689010
vt 0.500000 0.500000
vt 0.757387 0.597317
vt 0.725594 0.999900
vt 0.618652 0.762926
vt 0.597317 0.242613
vt 0.310990 0.999900
vt 0.999900 0.274406
vt 0.237074 0.618653
vt 0.000100 0.725594
vt 0.242613 0.402683
vt 0.274406 0.000100
vt 0.000100 0.310990
vt 0.689010 0.000100
vt 0.402683 0.757387
vt 0.597317 0.242613
vt 0.757387 0.597317
vt 0.999900 0.689010
vt 0.402683 0.757387
vt 0.618652 0.762926
vt 0.725594 0.999900
vt 0.618652 0.762926
vt 0.500000 0.500000
vt 0.310990 0.999900
vt 0.242613 0.402683
vt 0.000100 0.725594
vt 0.000100 0.310990
vt 0.237074 0.618653
vt 0.762926 0.381347
vt 0.999900 0.689010
vt 0.381347 0.237074
vt 0.725594 0.999900
vt 0.597317 0.242613
vt 0.757387 0.597317
vt 0.310990 0.999900
vt 0.402683 0.757387
vt 0.618652 0.762926
vt 0.689010 0.000100
vt 0.274406 0.000100
vt 0.500000 0.500000
vt 0.999900 0.274406
vt 0.242613 0.402683
vt 0.000100 0.725594
vt 0.000100 0.310990
vt 0.237074 0.618653
vt 0.762926 0.381347
vt 0.999900 0.689010
vt 0.381347 0.237074
vt 0.725594 0.999900
vt 0.381347 0.237074
vt 0.999900 0.689010
vt 0.242613 0.402683
vt 0.597317 0.242613
vt 0.725594 0.999900
vt 0.402683 0.757387
vt 0.689010 0.000100
vt 0.618652 0.762926
vt 0.237074 0.618653
vt 0.000100 0.310990
vt 0.757387 0.597317
vt 0.310990 0.999900
vt 0.762926 0.381347
vt 0.000100 0.725594
vt 0.500000 0.500000
vt 0.274406 0.000100
vt 0.999900 0.274406
vt 0.381347 0.237074
vt 0.999900 0.689010
vt 0.242613 0.402683
vt 0.597317 0.242613
vt 0.725594 0.999900
vt 0.402683 0.757387
vt 0.689010 0.000100
vt 0.618652 0.762926
vt 0.237074 0.618653
vt 0.000100 0.310990
vt 0.757387 0.597317
vt 0.310990 0.999900
vt 0.762926 0.381347
vt 0.000100 0.725594
vt 0.500000 0.500000
vt 0.274406 0.000100
vt 0.999900 0.274406
vt 0.381347 0.237074
vt 0.999900 0.689010
vt 0.242613 0.402683
vt 0.597317 0.242613
vt 0.725594 0.999900
vt 0.402683 0.757387
vt 0.689010 0.000100
vt 0.618652 0.762926
vt 0.237074 0.618653
vt 0.000100 0.310990
vt 0.757387 0.597317
vt 0.310990 0.999900
vt 0.762926 0.381347
vt 0.000100 0.725594
vt 0.500000 0.500000
vt 0.274406 0.000100
vt 0.999900 0.274406
vt 0.381347 0.237074
vt 0.999900 0.689010
vt 0.242613 0.402683
vt 0.597317 0.242613
vt 0.725594 0.999900
vt 0.402683 0.757387
vt 0.689010 0.000100
vt 0.618652 0.762926
vt 0.237074 0.618653
vt 0.000100 0.310990
vt 0.757387 0.597317
vt 0.310990 0.999900
vt 0.762926 0.381347
vt 0.000100 0.725594
vt 0.500000 0.500000
vt 0.274406 0.000100
vt 0.999900 0.274406
vt 0.381347 0.237074
vt 0.999900 0.689010
vt 0.242613 0.402683
vt 0.597317 0.242613
vt 0.725594 0.999900
vt 0.402683 0.757387
vt 0.689010 0.000100
vt 0.618652 0.762926
vt 0.237074 0.618653
vt 0.000100 0.310990
vt 0.757387 0.597317
vt 0.310990 0.999900
vt 0.762926 0.381347
vt 0.000100 0.725594
vt 0.500000 0.500000
vt 0.274406 0.000100
vt 0.999900 0.274406
vt 0.689010 0.000100
vt 0.000100 0.310990
vt 0.999900 0.274406
vt 0.381347 0.237074
vt 0.402683 0.757387
vt 0.500000 0.500000
vt 0.689010 0.000100
vt 0.757387 0.597317
vt 0.242613 0.402683
vt 0.000100 0.725594
vt 0.762926 0.381347
vt 0.310990 0.999900
vt 0.274406 0.000100
vt 0.237074 0.618653
vt 0.597317 0.242613
vt 0.274406 0.000100
vt 0.999900 0.274406
vt 0.689010 0.000100
vt 0.000100 0.310990
vt 0.999900 0.274406
vt 0.381347 0.237074
vt 0.402683 0.757387
vt 0.500000 0.500000
vt 0.725594 0.999900
vt 0.757387 0.597317
vt 0.242613 0.402683
vt 0.000100 0.725594
vt 0.762926 0.381347
vt 0.999900 0.689010
vt 0.274406 0.000100
vt 0.237074 0.618653
vt 0.597317 0.242613
vt 0.618652 0.762926
vt 0.310990 0.999900
vt 0.689010 0.000100
vt 0.000100 0.310990
vt 0.999900 0.274406
vt 0.381347 0.237074
vt 0.402683 0.757387
vt 0.500000 0.500000
vt 0.725594 0.999900
vt 0.757387 0.597317
vt 0.242613 0.402683
vt 0.000100 0.725594
vt 0.762926 0.381347
vt 0.999900 0.689010
vt 0.274406 0.000100
vt 0.237074 0.618653
vt 0.597317 0.242613
vt 0.618652 0.762926
vt 0.310990 0.999900
vn -0.122400 0.540700 0.832300
vn -0.064000 0.996800 0.047100
vn -0.341600 0.852300 0.396000
vn -0.147900 0.876000 0.459200
vn -0.292600 0.835600 0.465000
vn 0.048200 -0.595800 -0.801700
vn -0.543300 0.812200 -0.212300
vn 0.296500 0.935200 0.193400
vn 0.533700 -0.509900 0.674600
vn -0.610000 0.698600 0.374000
vn -0.489400 0.870400 0.054400
vn -0.136100 0.990200 -0.029800
vn -0.479200 0.536400 0.694700
vn 0.235100 0.635800 0.735200
vn 0.224900 0.969800 0.094800
vn 0.351500 0.832400 0.428500
vn 0.337100 0.940800 -0.034600
vn -0.127200 0.974400 0.185500
vn -0.561400 0.387800 0.731000
vn -0.574400 0.814000 -0.086200
vn -0.116400 0.941700 -0.315600
vn 0.544200 0.747400 0.381100
vn -0.101400 0.350000 0.931200
vn -0.120100 0.962500 -0.243200
vn -0.765800 0.565100 0.306900
vn 0.350100 0.514600 0.782700
vn -0.583900 0.761200 -0.282100
vn -0.439400 0.651300 -0.618700
vn -0.076300 0.671500 -0.737100
vn -0.477200 0.876300 0.066600
vn 0.239100 0.968000 0.076000
vn 0.277000 0.743000 -0.609300
vn 0.380400 0.884700 -0.269400
vn 0.393000 0.629200 -0.670600
vn 0.324000 0.806500 0.494600
vn -0.569600 0.799200 0.191900
vn -0.521300 0.512100 -0.682700
vn 0.403600 0.914900 0.010600
vn 0.569700 0.789600 -0.227800
vn -0.121900 0.911800 0.392000
vn -0.052500 0.499200 -0.864900
vn -0.744200 0.621400 -0.245100
vn 0.344700 0.916300 0.204000
vn -0.091200 0.995600 -0.019700
vn 0.038500 0.927100 -0.372900
vn 0.381300 0.792500 -0.476000
vn -0.004000 0.937500 0.348000
vn 0.655400 0.646000 0.391200
vn 0.698000 0.635600 -0.329800
vn 0.796600 0.603300 0.038300
vn 0.754100 0.501200 -0.424500
vn -0.650600 0.572900 0.498500
vn -0.141900 0.886400 0.440600
vn -0.087600 0.873200 -0.479500
vn -0.352200 0.899100 0.260100
vn 0.907100 0.418100 0.047500
vn 0.263300 0.694900 0.669100
vn 0.341400 0.675900 -0.653200
vn -0.302400 0.952700 -0.031600
vn 0.699700 0.514500 0.495600
vn -0.606900 0.779300 -0.155800
vn -0.270400 0.926300 -0.262400
vn 0.035100 0.998400 -0.043900
vn -0.779700 0.610200 0.140500
vn -0.335200 0.619600 0.709700
vn 0.174100 0.935700 0.306800
vn -0.008500 0.792000 0.610500
vn 0.341600 0.889500 0.303400
vn 0.043000 0.999000 0.011800
vn -0.875700 0.474100 0.091200
vn -0.225700 0.877500 -0.423100
vn 0.385700 0.862000 -0.328900
vn 0.143800 0.682200 0.716900
vn -0.730900 0.383700 0.564400
vn 0.203200 0.963400 -0.174700
vn -0.671500 0.664900 -0.327100
vn -0.308400 0.486200 0.817600
vn -0.001600 0.772000 -0.635600
vn 0.298500 0.572500 -0.763700
vn 0.631100 0.507600 -0.586600
vn -0.138400 0.937500 -0.319200
vn 0.364800 0.909700 0.198200
vn 0.801700 0.544700 -0.246300
vn 0.675800 0.734600 0.060900
vn 0.892400 0.403100 -0.202900
vn 0.034600 0.810600 0.584600
vn -0.307300 0.904400 -0.295900
vn 0.250200 0.438500 -0.863200
vn 0.426700 0.861600 0.274800
vn 0.750500 0.620300 0.228100
vn -0.111600 0.980600 0.161300
vn 0.689600 0.311000 -0.654000
vn -0.172500 0.671300 -0.720800
vn 0.334900 0.869000 0.364400
vn 0.091900 0.992900 -0.075900
vn 0.409400 0.876200 -0.254300
vn 0.711100 0.695300 -0.104300
vn -0.093100 0.961800 0.257400
vn 0.324300 0.605400 0.726900
vn 0.826800 0.519700 0.215200
vn 0.653800 0.513000 0.556200
vn 0.910600 0.371400 0.181500
vn 0.322900 0.811300 0.487300
vn -0.263400 0.935500 0.235300
vn 0.377900 0.826300 -0.417700
vn 0.223300 0.974300 -0.030100
vn 0.702400 0.318600 0.636500
vn -0.141200 0.724000 0.675100
vn 0.780500 0.567000 -0.263300
vn -0.063100 0.972400 -0.224700
vn 0.269300 0.480700 0.834600
vn -0.322900 0.941300 0.098800
vn -0.281300 0.904900 -0.319500
vn 0.057600 0.853400 -0.518100
vn -0.086200 0.880600 0.466000
vn 0.624500 0.734400 0.265700
vn 0.428900 0.771800 -0.469500
vn 0.650300 0.747800 -0.133700
vn 0.490200 0.663500 -0.565100
vn -0.190000 0.854900 0.482800
vn -0.186000 0.771500 0.608500
vn -0.425300 0.804900 -0.413800
vn 0.276100 0.911600 0.304500
vn 0.774900 0.606400 -0.178300
vn 0.358500 0.652700 0.667500
vn 0.009200 0.723000 -0.690800
vn -0.544600 0.826400 0.142700
vn 0.733200 0.606000 0.308700
vn 0.061500 0.987800 -0.143100
vn 0.424200 0.882500 -0.203100
vn 0.672600 0.738400 0.049400
vn -0.216500 0.969000 0.118800
vn 0.050600 0.685000 0.726800
vn 0.691300 0.598500 0.404800
vn 0.421100 0.605400 0.675400
vn 0.788700 0.454900 0.413500
vn -0.129500 0.929000 0.346700
vn -0.212900 0.633300 0.744100
vn 0.165000 0.682900 0.711700
vn 0.313000 0.948100 0.056400
vn -0.535800 0.649300 0.539800
vn 0.358500 0.834400 0.418700
vn -0.380700 0.762300 0.523400
vn 0.451800 0.422500 0.785700
vn 0.254400 0.556700 0.790800
vn 0.443400 0.895200 -0.045500
vn -0.369900 0.927800 0.048400
vn 0.447800 0.817400 -0.362400
vn -0.013500 0.990300 -0.138100
vn 0.545600 0.726700 0.417400
vn -0.038100 0.943400 -0.329400
vn 0.794500 0.603600 -0.067100
vn -0.029000 0.565300 0.824400
vn 0.188700 0.822500 -0.536500
vn 0.022500 0.995200 -0.095100
vn 0.395000 0.916900 -0.057900
vn 0.606500 0.506200 -0.613100
vn -0.282000 0.908100 -0.309400
vn 0.620600 0.724600 -0.299600
vn -0.232800 0.452800 0.860700
vn 0.038700 0.939200 -0.341200
vn 0.440100 0.891400 0.107900
vn 0.710100 0.367300 -0.600700
vn -0.739600 0.665200 0.102100
vn -0.387700 0.914500 -0.115500
vn 0.307300 0.442300 -0.842600
vn 0.762300 0.624200 -0.171300
vn -0.450900 0.852400 -0.264900
vn -0.639800 0.513900 0.571400
vn -0.584900 0.789200 0.187300
vn -0.321800 0.944800 0.061800
vn -0.050400 0.876400 0.478900
vn 0.190600 0.962200 0.194600
vn -0.152300 0.886700 -0.436500
vn -0.401100 0.737800 0.542900
vn 0.117100 0.976600 -0.180400
vn -0.052600 0.992800 0.107200
vn 0.335400 0.239600 -0.911100
vn 0.352300 0.907800 0.227500
vn -0.085300 0.811500 -0.578100
vn -0.479500 0.608200 -0.632600
vn -0.070500 0.497400 -0.864600
vn -0.512000 0.774800 -0.370800
vn 0.301500 0.913500 -0.273000
vn -0.153900 0.356100 -0.921700
vn -0.423900 0.880300 -0.213100
vn -0.290800 0.712900 -0.638200
vn 0.292600 0.954100 0.064100
vn 0.472300 0.738800 0.480700
vn 0.718000 0.667700 0.196400
vn 0.396200 0.808800 -0.434600
vn 0.106900 0.831700 0.544800
vn 0.667000 0.723300 -0.178500
vn 0.073400 0.777000 0.625200
vn -0.555500 0.638600 -0.532500
vn 0.817200 0.528900 0.229000
vn 0.406500 0.708900 -0.576400
vn -0.783700 0.502100 0.365700
vn -0.744000 0.662400 -0.088300
vn 0.039100 0.928700 -0.368800
vn 0.779600 0.564400 -0.271500
vn -0.840400 0.525200 -0.133600
vn -0.402800 0.621500 0.671900
vn -0.679500 0.674600 0.288500
vn -0.090300 0.798400 -0.595300
vn 0.160300 0.967800 -0.194300
vn 0.412800 0.803100 -0.429700
vn 0.057400 0.401900 -0.913900
vn -0.212600 0.971000 -0.109700
vn 0.342100 0.584700 -0.735600
vn 0.514400 0.585400 0.626700
vn -0.075900 0.844200 -0.530700
vn 0.557400 0.754400 -0.346700
vn 0.103800 0.242400 -0.964600
vn -0.341200 0.865200 0.367500
vn -0.214900 0.972800 -0.086200
vn -0.318100 0.427700 -0.846100
vn 0.505900 0.444200 -0.739400
vn -0.373400 0.918300 -0.131800
vn 0.037300 0.738200 0.673500
vn -0.155600 0.944100 0.290500
vn 0.080300 0.821400 0.564700
vn -0.641200 0.752100 -0.152500
vn -0.568000 0.569800 -0.593900
vn -0.137800 0.986700 0.085900
vn -0.393600 0.230300 -0.890000
vn 0.258300 0.966100 -0.002000
vn -0.240700 0.968600 0.061700
vn -0.694300 0.456600 -0.556200
vn -0.499900 0.810700 -0.304800
vn -0.615700 0.744900 0.257000
vn -0.619900 0.767300 -0.164300
vn -0.314100 0.862200 -0.397500
vn -0.326100 0.738800 0.589800
vn 0.357500 0.881500 0.308600
vn 0.065200 0.916800 -0.393900
vn 0.323600 0.942300 -0.085700
vn 0.147300 0.848300 -0.508700
vn 0.121400 0.826700 0.549400
vn -0.361500 0.587500 0.724000
vn -0.731000 0.631500 -0.258300
vn -0.076700 0.995100 0.063000
vn 0.482700 0.861000 -0.160400
vn 0.192800 0.669700 0.717200
vn -0.336300 0.740700 -0.581600
vn -0.775200 0.553600 0.304200
vn 0.508900 0.797700 0.323500
vn -0.572100 0.787500 0.229300
vn -0.566900 0.801000 -0.192400
vn -0.251300 0.871500 -0.421200
vn -0.289800 0.770400 0.567900
vn 0.406600 0.863700 0.297800
vn 0.130600 0.902200 -0.411000
vn 0.384100 0.918000 -0.098300
vn 0.210300 0.826100 -0.522700
vn -0.313300 0.738700 -0.596900
vn -0.337200 0.624600 0.704400
vn -0.684600 0.670500 -0.285900
vn -0.482000 0.864800 -0.140900
vn 0.539200 0.825300 -0.168100
vn 0.221100 0.671500 0.707200
vn -0.277600 0.747700 -0.603200
vn -0.744300 0.607700 0.277100
vn 0.552100 0.771000 0.317500
vn -0.009100 0.999200 -0.038000
vn -0.188500 0.937000 0.294000
vn -0.529100 0.772700 0.350600
vn -0.028200 0.911700 -0.409800
vn -0.640300 0.549900 -0.536200
vn -0.800700 0.575200 0.167600
vn -0.833300 0.512100 -0.208200
vn -0.858500 0.441100 0.261600
vn -0.507100 0.780300 -0.366000
vn 0.127400 0.870600 -0.475300
vn -0.077200 0.902900 0.422900
vn -0.145400 0.989400 -0.005900
vn -0.922500 0.316100 -0.221500
vn -0.214100 0.624700 -0.751000
vn -0.508100 0.671100 0.539900
vn 0.200300 0.979700 0.010400
vn -0.653900 0.408800 -0.636600
vn 0.250000 0.885400 -0.391800
vn 0.433700 0.901000 -0.012200
vn 0.248700 0.907700 0.338000
vn -0.146100 0.808600 -0.569900
vn -0.649100 0.760700 -0.011800
vn -0.094800 0.860200 0.501100
vn -0.460400 0.821600 0.336200
vn -0.099800 0.770400 0.629700
vn -0.067600 0.770600 -0.633800
vn -0.139600 0.674400 -0.725100
vn 0.602800 0.797900 0.007800
vn -0.368200 0.895200 -0.251200
vn -0.547000 0.699900 0.459400
vn -0.636700 0.606900 -0.475600
vn 0.376800 0.793300 0.478100
vn 0.411900 0.744000 -0.526100
vn -0.767800 0.640100 0.027400
vn 0.052000 0.998600 0.003700
vn -0.227800 0.939000 0.257600
vn -0.576000 0.793900 0.194700
vn 0.149900 0.921700 -0.357900
vn -0.405400 0.600200 -0.689500
vn -0.783000 0.617500 -0.074100
vn -0.695500 0.565800 -0.442800
vn -0.874600 0.484800 -0.009500
vn -0.341400 0.756300 -0.558100
vn 0.316000 0.872900 -0.371600
vn -0.165900 0.895100 0.413800
vn 0.100800 0.951000 -0.292200
vn -0.785100 0.375800 -0.492400
vn 0.070500 0.654700 -0.752600
vn -0.622200 0.686600 0.376200
vn 0.233300 0.965500 0.115900
vn -0.392600 0.462600 -0.794900
vn 0.409800 0.643100 -0.646900
vn 0.635800 0.712300 -0.297300
vn 0.501300 0.864200 0.042900
vn -0.011500 0.629700 -0.776800
vn -0.440400 0.873400 -0.208100
vn 0.178700 0.957200 0.227700
vn -0.202300 0.974500 0.097600
vn 0.167400 0.910900 0.377200
vn -0.368100 0.767500 -0.524800
vn -0.056500 0.461400 -0.885400
vn 0.775700 0.577300 -0.255000
vn 0.061100 0.968200 -0.242500
vn -0.300600 0.919000 0.255000
vn -0.521600 0.600900 -0.605700
vn 0.613500 0.762600 0.204900
vn 0.515000 0.432200 -0.740200
vn -0.579300 0.804700 -0.129800
vn 0.388600 0.692900 -0.607400
vn 0.606500 0.754300 -0.251300
vn 0.460700 0.882600 0.094000
vn -0.029900 0.667100 -0.744400
vn -0.477000 0.862100 -0.170900
vn 0.131800 0.951500 0.278100
vn -0.247800 0.958200 0.143100
vn 0.120600 0.897200 0.424900
vn -0.216500 0.936100 0.277200
vn -0.470000 0.647000 0.600400
vn -0.110400 0.677600 0.727100
vn 0.306700 0.931600 0.195000
vn -0.679000 0.678000 0.281600
vn 0.193500 0.817700 0.542100
vn -0.540400 0.606800 -0.582900
vn -0.345600 0.890500 0.296000
vn -0.067600 0.547600 0.834000
vn 0.464800 0.871800 0.154900
vn -0.065800 0.502700 -0.862000
vn 0.751900 0.623700 -0.213700
vn 0.091600 0.989000 -0.115900
vn 0.359200 0.700900 0.616200
vn 0.504500 0.491900 -0.709500
vn 0.575300 0.778100 0.252400
vn -0.613700 0.783400 -0.098400
vn 0.431700 0.809300 -0.398400
vn 0.106900 0.992300 -0.061900
vn 0.426900 0.895800 0.124100
vn 0.828500 0.472100 -0.301300
vn -0.086200 0.919400 -0.383800
vn 0.722600 0.691300 -0.006300
vn -0.544700 0.468300 0.695700
vn 0.220300 0.934300 -0.280300
vn 0.398500 0.869000 0.293300
vn 0.911000 0.328300 -0.249500
vn -0.683600 0.701700 -0.200800
vn -0.261900 0.932000 -0.250500
vn 0.647600 0.422000 -0.634500
vn 0.793900 0.584600 0.167300
vn -0.260800 0.872300 -0.413600
vn -0.793200 0.548100 0.265500
vn -0.571900 0.818300 -0.057600
vn -0.273500 0.959900 -0.061300
vn -0.201400 0.880400 0.429400
vn 0.139000 0.952500 0.270900
vn 0.083200 0.890800 -0.446600
vn -0.553500 0.759700 0.341300
vn 0.227200 0.968600 -0.100900
vn -0.044900 0.994800 0.091600
vn 0.691700 0.217800 -0.688600
vn 0.270100 0.890400 0.366400
vn 0.198900 0.811700 -0.549200
vn -0.147000 0.627900 -0.764300
vn 0.315400 0.495700 -0.809200
vn -0.276500 0.797300 -0.536500
vn 0.430200 0.896000 -0.110500
vn 0.256300 0.358500 -0.897700
vn -0.256200 0.899100 -0.354800
vn 0.031900 0.723100 -0.690000
vn 0.285200 0.938700 0.193700
vn 0.267000 0.716900 0.644000
vn 0.604300 0.632200 0.484900
vn 0.577900 0.785800 -0.220400
vn -0.087500 0.828300 0.553500
vn 0.714900 0.688300 0.123100
vn -0.153700 0.775700 0.612100
vn -0.256000 0.662600 -0.703900
vn 0.674600 0.488800 0.553100
vn 0.640900 0.684800 -0.346900
vn -0.839900 0.542400 0.018700
vn -0.609300 0.698100 -0.376200
vn 0.231400 0.923600 -0.305500
vn 0.848100 0.523500 0.082200
vn -0.684900 0.565600 -0.459300
vn -0.613700 0.644300 0.456300
vn -0.705100 0.709100 -0.006100
vn 0.430200 0.889700 0.152900
vn 0.807300 0.559700 0.187000
vn 0.750300 0.635100 -0.183500
vn 0.109500 0.958600 -0.262900
vn 0.630300 0.571200 0.525800
vn 0.456700 0.820500 -0.343800
vn 0.237900 0.562400 0.791900
vn 0.189400 0.844100 -0.501700
vn 0.811800 0.509100 -0.286100
vn -0.006100 0.921900 -0.387300
vn -0.420700 0.883000 0.208000
vn -0.113900 0.981800 -0.151800
vn -0.055400 0.995200 0.080200
vn 0.432400 0.725100 -0.536000
vn -0.242000 0.935000 -0.259400
vn -0.208200 0.739000 0.640700
vn -0.216400 0.952200 0.215400
vn -0.480500 0.871500 -0.098100
vn -0.015100 0.999000 0.041200
vn -0.012900 0.941400 -0.336900
vn -0.614300 0.588600 -0.525500
vn -0.211900 0.909900 0.356700
vn -0.286000 0.782800 -0.552700
vn 0.910000 0.369800 0.187300
vn -0.265400 0.963200 0.041800
vn 0.146300 0.906200 -0.396700
vn -0.621200 0.455900 -0.637400
vn 0.212200 0.608000 0.765100
vn -0.010600 0.894700 0.446500
vn -0.824700 0.524100 -0.212700
vn -0.177500 0.681900 -0.709600
vn -0.159300 0.840400 0.518000
vn 0.658600 0.427500 0.619200
vn 0.295100 0.734500 0.611100
vn 0.163100 0.915300 0.368200
vn 0.551200 0.832100 0.060500
vn 0.257300 0.954400 -0.151500
vn -0.349900 0.906400 0.236700
vn 0.630300 0.667500 0.396500
vn -0.108500 0.993000 -0.047100
vn 0.191500 0.976400 0.099400
vn -0.911500 0.329400 -0.246400
vn 0.273200 0.907900 -0.318100
vn -0.501800 0.846600 0.177300
vn -0.542400 0.623900 0.562600
vn -0.813300 0.557100 0.168100
vn -0.266200 0.767600 0.583100
vn -0.219800 0.948800 -0.226600
vn -0.875100 0.415700 0.247800
vn -0.107600 0.865900 0.488500
vn -0.553800 0.740300 0.381100
vn 0.119100 0.962700 -0.242800
vn 0.501900 0.727700 -0.467600
vn 0.194800 0.694100 -0.693000
vn -0.396200 0.863000 -0.313600
vn 0.601000 0.792400 -0.103900
vn -0.169300 0.775100 -0.608700
vn 0.679000 0.729700 -0.080100
vn -0.434700 0.641700 0.631900
vn 0.208300 0.559700 -0.802100
vn -0.546000 0.775100 -0.318000
vn 0.464200 0.422600 0.778400
vn 0.023100 0.619500 0.784700
vn -0.293700 0.954900 0.043200
vn -0.283300 0.631100 -0.722100
vn -0.025800 0.480500 0.876600
vn 0.749100 0.541700 0.381200
vn 0.393600 0.606700 0.690600
f 1/1/1 2/2/2 3/3/3
f 1/1/1 3/3/3 4/4/4
f 5/5/5 6/6/6 2/2/2
f 5/5/5 2/2/2 1/1/1
f 7/7/7 5/5/5 1/1/1
f 7/7/7 1/1/1 8/8/8
f 8/8/8 1/1/1 4/4/4
f 8/8/8 4/4/4 9/9/9
f 8/8/8 9/9/9 10/10/10
f 8/8/8 10/10/10 11/11/11
f 3/3/3 2/2/2 12/12/12
f 3/3/3 12/12/12 13/13/13
f 7/7/7 8/8/8 11/11/11
f 7/7/7 11/11/11 14/14/14
f 5/5/5 7/7/7 14/14/14
f 5/5/5 14/14/14 15/15/15
f 2/2/2 6/6/6 16/16/16
f 2/2/2 16/16/16 12/12/12
f 9/9/9 4/4/4 17/17/17
f 9/9/9 17/17/17 10/10/10
f 6/6/6 5/5/5 15/15/15
f 6/6/6 15/15/15 16/16/16
f 4/4/4 3/3/3 13/13/13
f 4/4/4 13/13/13 17/17/17
f 18/18/18 19/19/19 20/20/20
f 18/18/18 20/20/20 21/21/21
f 22/22/22 23/23/23 19/19/19
f 22/22/22 19/19/19 18/18/18
f 24/24/24 22/22/22 18/18/18
f 24/24/24 18/18/18 25/25/25
f 25/25/25 18/18/18 21/21/21
f 25/25/25 21/21/21 26/26/26
f 25/25/25 26/26/26 27/27/27
f 25/25/25 27/27/27 28/28/28
f 20/20/20 19/19/19 29/29/29
f 20/20/20 29/29/29 30/30/30
f 24/24/24 25/25/25 28/28/28
f 24/24/24 28/28/28 31/31/31
f 22/22/22 24/24/24 31/31/31
f 22/22/22 31/31/31 32/32/32
f 19/19/19 23/23/23 33/33/33
f 19/19/19 33/33/33 29/29/29
f 26/26/26 21/21/21 34/34/34
f 26/26/26 34/34/34 27/27/27
f 23/23/23 22/22/22 32/32/32
f 23/23/23 32/32/32 33/33/33
f 21/21/21 20/20/20 30/30/30
f 21/21/21 30/30/30 34/34/34
f 35/35/35 36/36/36 37/37/37
f 35/35/35 37/37/37 38/38/38
f 39/39/39 40/40/40 36/36/36
f 39/39/39 36/36/36 35/35/35
f 41/41/41 39/39/39 35/35/35
f 41/41/41 35/35/35 42/42/42
f 42/42/42 35/35/35 38/38/38
f 42/42/42 38/38/38 43/43/43
f 42/42/42 43/43/43 44/44/44
f 42/42/42 44/44/44 45/45/45
f 37/37/37 36/36/36 46/46/46
f 37/37/37 46/46/46 47/47/47
f 41/41/41 42/42/42 45/45/45
f 41/41/41 45/45/45 48/48/48
f 39/39/39 41/41/41 48/48/48
f 39/39/39 48/48/48 49/49/49
f 36/36/36 40/40/40 50/50/50
f 36/36/36 50/50/50 46/46/46
f 43/43/43 38/38/38 51/51/51
f 43/43/43 51/51/51 44/44/44
f 40/40/40 39/39/39 49/49/49
f 40/40/40 49/49/49 50/50/50
f 38/38/38 37/37/37 47/47/47
f 38/38/38 47/47/47 51/51/51
f 52/52/52 53/53/53 54/54/54
f 52/52/52 54/54/54 55/55/55
f 56/56/56 57/57/57 53/53/53
f 56/56/56 53/53/53 52/52/52
f 58/58/58 56/56/56 52/52/52
f 58/58/58 52/52/52 59/59/59
f 59/59/59 52/52/52 55/55/55
f 59/59/59 55/55/55 60/60/60
f 59/59/59 60/60/60 61/61/61
f 59/59/59 61/61/61 62/62/62
f 54/54/54 53/53/53 63/63/63
f 54/54/54 63/63/63 64/64/64
f 58/58/58 59/59/59 62/62/62
f 58/58/58 62/62/62 65/65/65
f 56/56/56 58/58/58 65/65/65
f 56/56/56 65/65/65 66/66/66
f 53/53/53 57/57/57 67/67/67
f 53/53/53 67/67/67 63/63/63
f 60/60/60 55/55/55 68/68/68
f 60/60/60 68/68/68 61/61/61
f 57/57/57 56/56/56 66/66/66
f 57/57/57 66/66/66 67/67/67
f 55/55/55 54/54/54 64/64/64
f 55/55/55 64/64/64 68/68/68
f 69/69/69 70/70/70 71/71/71
f 69/69/69 71/71/71 72/72/72
f 73/73/73 74/74/74 70/70/70
f 73/73/73 70/70/70 69/69/69
f 75/75/75 73/73/73 69/69/69
f 75/75/75 69/69/69 76/76/76
f 76/76/76 69/69/69 72/72/72
f 76/76/76 72/72/72 77/77/77
f 76/76/76 77/77/77 78/78/78
f 76/76/76 78/78/78 79/79/79
f 71/71/71 70/70/70 80/80/80
f 71/71/71 80/80/80 81/81/81
f 75/75/75 76/76/76 79/79/79
f 75/75/75 79/79/79 82/82/82
f 73/73/73 75/75/75 82/82/82
f 73/73/73 82/82/82 83/83/83
f 70/70/70 74/74/74 84/84/84
f 70/70/70 84/84/84 80/80/80
f 77/77/77 72/72/72 85/85/85
f 77/77/77 85/85/85 78/78/78
f 74/74/74 73/73/73 83/83/83
f 74/74/74 83/83/83 84/84/84
f 72/72/72 71/71/71 81/81/81
f 72/72/72 81/81/81 85/85/85
f 86/86/86 87/87/87 88/88/88
f 86/86/86 88/88/88 89/89/89
f 90/90/90 91/91/91 87/87/87
f 90/90/90 87/87/87 86/86/86
f 92/92/92 90/90/90 86/86/86
f 92/92/92 86/86/86 93/93/93
f 93/93/93 86/86/86 89/89/89
f 93/93/93 89/89/89 94/94/94
f 93/93/93 94/94/94 95/95/95
f 93/93/93 95/95/95 96/96/96
f 88/88/88 87/87/87 97/97/97
f 88/88/88 97/97/97 98/98/98
f 92/92/92 93/93/93 96/96/96
f 92/92/92 96/96/96 99/99/99
f 90/90/90 92/92/92 99/99/99
f 90/90/90 99/99/99 100/100/100
f 87/87/87 91/91/91 101/101/101
f 87/87/87 101/101/101 97/97/97
f 94/94/94 89/89/89 102/102/102
f 94/94/94 102/102/102 95/95/95
f 91/91/91 90/90/90 100/100/100
f 91/91/91 100/100/100 101/101/101
f 89/89/89 88/88/88 98/98/98
f 89/89/89 98/98/98 102/102/102
f 103/103/103 104/104/104 105/105/105
f 103/103/103 105/105/105 106/106/106
f 107/107/107 108/108/108 104/104/104
f 107/107/107 104/104/104 103/103/103
f 109/109/109 107/107/107 103/103/103
f 109/109/109 103/103/103 110/110/110
f 110/110/110 103/103/103 106/106/106
f 110/110/110 106/106/106 111/111/111
f 110/110/110 111/111/111 112/112/112
f 110/110/110 112/112/112 113/113/113
f 105/105/105 104/104/104 114/114/114
f 105/105/105 114/114/114 115/115/115
f 109/109/109 110/110/110 113/113/113
f 109/109/109 113/113/113 116/116/116
f 107/107/107 109/109/109 116/116/116
f 107/107/107 116/116/116 117/117/117
f 104/104/104 108/108/108 118/118/118
f 104/104/104 118/118/118 114/114/114
f 111/111/111 106/106/106 119/119/119
f 111/111/111 119/119/119 112/112/112
f 108/108/108 107/107/107 117/117/117
f 108/108/108 117/117/117 118/118/118
f 106/106/106 105/105/105 115/115/115
f 106/106/106 115/115/115 119/119/119
f 120/120/120 121/121/121 122/122/122
f 120/120/120 122/122/122 123/123/123
f 124/124/124 125/125/125 121/121/121
f 124/124/124 121/121/121 120/120/120
f 126/126/126 124/124/124 120/120/120
f 126/126/126 120/120/120 127/127/127
f 127/127/127 120/120/120 123/123/123
f 127/127/127 123/123/123 128/128/128
f 127/127/127 128/128/128 129/129/129
f 127/127/127 129/129/129 130/130/130
f 122/122/122 121/121/121 131/131/131
f 122/122/122 131/131/131 132/132/132
f 126/126/126 127/127/127 130/130/130
f 126/126/126 130/130/130 133/133/133
f 124/124/124 126/126/126 133/133/133
f 124/124/124 133/133/133 134/134/134
f 121/121/121 125/125/125 135/135/135
f 121/121/121 135/135/135 131/131/131
f 128/128/128 123/123/123 136/136/136
f 128/128/128 136/136/136 129/129/129
f 125/125/125 124/124/124 134/134/134
f 125/125/125 134/134/134 135/135/135
f 123/123/123 122/122/122 132/132/132
f 123/123/123 132/132/132 136/136/136
f 137/137/137 138/138/138 139/139/139
f 137/137/137 139/139/139 140/140/140
f 137/137/137 141/141/141 142/142/142
f 137/137/137 142/142/142 143/143/143
f 138/138/138 137/137/137 143/143/143
f 138/138/138 143/143/143 144/144/144
f 145/145/145 146/146/146 147/147/147
f 145/145/145 147/147/147 148/148/148
f 145/145/145 140/140/140 149/149/149
f 145/145/145 149/149/149 146/146/146
f 141/141/141 137/137/137 140/140/140
f 141/141/141 140/140/140 145/145/145
f 149/149/149 150/150/150 151/151/151
f 149/149/149 151/151/151 152/152/152
f 146/146/146 149/149/149 152/152/152
f 146/146/146 152/152/152 147/147/147
f 141/141/141 145/145/145 148/148/148
f 141/141/141 148/148/148 142/142/142
f 150/150/150 139/139/139 153/153/153
f 150/150/150 153/153/153 151/151/151
f 139/139/139 138/138/138 144/144/144
f 139/139/139 144/144/144 153/153/153
f 140/140/140 139/139/139 150/150/150
f 140/140/140 150/150/150 149/149/149
f 154/154/154 155/155/155 156/156/156
f 154/154/154 156/156/156 157/157/157
f 154/154/154 158/158/158 159/159/159
f 154/154/154 159/159/159 160/160/160
f 155/155/155 154/154/154 160/160/160
f 155/155/155 160/160/160 161/161/161
f 162/162/162 163/163/163 164/164/164
f 162/162/162 164/164/164 165/165/165
f 162/162/162 157/157/157 166/166/166
f 162/162/162 166/166/166 163/163/163
f 158/158/158 154/154/154 157/157/157
f 158/158/158 157/157/157 162/162/162
f 166/166/166 167/167/167 168/168/168
f 166/166/166 168/168/168 169/169/169
f 163/163/163 166/166/166 169/169/169
f 163/163/163 169/169/169 164/164/164
f 158/158/158 162/162/162 165/165/165
f 158/158/158 165/165/165 159/159/159
f 167/167/167 156/156/156 170/170/170
f 167/167/167 170/170/170 168/168/168
f 156/156/156 155/155/155 161/161/161
f 156/156/156 161/161/161 170/170/170
f 157/157/157 156/156/156 167/167/167
f 157/157/157 167/167/167 166/166/166
f 171/171/171 172/172/172 173/173/173
f 171/171/171 173/173/173 174/174/174
f 171/171/171 175/175/175 176/176/176
f 171/171/171 176/176/176 177/177/177
f 172/172/172 171/171/171 177/177/177
f 172/172/172 177/177/177 178/178/178
f 179/179/179 180/180/180 181/181/181
f 179/179/179 181/181/181 182/182/182
f 179/179/179 174/174/174 183/183/183
f 179/179/179 183/183/183 180/180/180
f 175/175/175 171/171/171 174/174/174
f 175/175/175 174/174/174 179/179/179
f 183/183/183 184/184/184 185/185/185
f 183/183/183 185/185/185 186/186/186
f 180/180/180 183/183/183 186/186/186
f 180/180/180 186/186/186 181/181/181
f 175/175/175 179/179/179 182/182/182
f 175/175/175 182/182/182 176/176/176
f 184/184/184 173/173/173 187/187/187
f 184/184/184 187/187/187 185/185/185
f 173/173/173 172/172/172 178/178/178
f 173/173/173 178/178/178 187/187/187
f 174/174/174 173/173/173 184/184/184
f 174/174/174 184/184/184 183/183/183
f 188/188/188 189/189/189 190/190/190
f 188/188/188 190/190/190 191/191/191
f 188/188/188 192/192/192 193/193/193
f 188/188/188 193/193/193 194/194/194
f 189/189/189 188/188/188 194/194/194
f 189/189/189 194/194/194 195/195/195
f 196/196/196 197/197/197 198/198/198
f 196/196/196 198/198/198 199/199/199
f 196/196/196 191/191/191 200/200/200
f 196/196/196 200/200/200 197/197/197
f 192/192/192 188/188/188 191/191/191
f 192/192/192 191/191/191 196/196/196
f 200/200/200 201/201/201 202/202/202
f 200/200/200 202/202/202 203/203/203
f 197/197/197 200/200/200 203/203/203
f 197/197/197 203/203/203 198/198/198
f 192/192/192 196/196/196 199/199/199
f 192/192/192 199/199/199 193/193/193
f 201/201/201 190/190/190 204/204/204
f 201/201/201 204/204/204 202/202/202
f 190/190/190 189/189/189 195/195/195
f 190/190/190 195/195/195 204/204/204
f 191/191/191 190/190/190 201/201/201
f 191/191/191 201/201/201 200/200/200
f 205/205/205 206/206/206 207/207/207
f 205/205/205 207/207/207 208/208/208
f 205/205/205 209/209/209 210/210/210
f 205/205/205 210/210/210 211/211/211
f 206/206/206 205/205/205 211/211/211
f 206/206/206 211/211/211 212/212/212
f 213/213/213 214/214/214 215/215/215
f 213/213/213 215/215/215 216/216/216
f 213/213/213 208/208/208 217/217/217
f 213/213/213 217/217/217 214/214/214
f 209/209/209 205/205/205 208/208/208
f 209/209/209 208/208/208 213/213/213
f 217/217/217 218/218/218 219/219/219
f 217/217/217 219/219/219 220/220/220
f 214/214/214 217/217/217 220/220/220
f 214/214/214 220/220/220 215/215/215
f 209/209/209 213/213/213 216/216/216
f 209/209/209 216/216/216 210/210/210
f 218/218/218 207/207/207 221/221/221
f 218/218/218 221/221/221 219/219/219
f 207/207/207 206/206/206 212/212/212
f 207/207/207 212/212/212 221/221/221
f 208/208/208 207/207/207 218/218/218
f 208/208/208 218/218/218 217/217/217
f 222/222/222 223/223/223 224/224/224
f 222/222/222 224/224/224 225/225/225
f 226/226/226 227/227/227 223/223/223
f 226/226/226 223/223/223 222/222/222
f 228/228/228 226/226/226 222/222/222
f 228/228/228 222/222/222 229/229/229
f 229/229/229 222/222/222 225/225/225
f 229/229/229 225/225/225 230/230/230
f 229/229/229 230/230/230 231/231/231
f 229/229/229 231/231/231 232/232/232
f 224/224/224 223/223/223 233/233/233
f 224/224/224 233/233/233 234/234/234
f 228/228/228 229/229/229 232/232/232
f 228/228/228 232/232/232 235/235/235
f 226/226/226 228/228/228 235/235/235
f 226/226/226 235/235/235 236/236/236
f 223/223/223 227/227/227 237/237/237
f 223/223/223 237/237/237 233/233/233
f 230/230/230 225/225/225 238/238/238
f 230/230/230 238/238/238 231/231/231
f 227/227/227 226/226/226 236/236/236
f 227/227/227 236/236/236 237/237/237
f 225/225/225 224/224/224 234/234/234
f 225/225/225 234/234/234 238/238/238
f 239/239/239 240/240/240 241/241/241
f 239/239/239 241/241/241 242/242/242
f 243/243/243 244/244/244 240/240/240
f 243/243/243 240/240/240 239/239/239
f 245/245/245 243/243/243 239/239/239
f 245/245/245 239/239/239 246/246/246
f 246/246/246 239/239/239 242/242/242
f 246/246/246 242/242/242 247/247/247
f 246/246/246 247/247/247 248/248/248
f 246/246/246 248/248/248 249/249/249
f 241/241/241 240/240/240 250/250/250
f 241/241/241 250/250/250 251/251/251
f 245/245/245 246/246/246 249/249/249
f 245/245/245 249/249/249 252/252/252
f 243/243/243 245/245/245 252/252/252
f 243/243/243 252/252/252 253/253/253
f 240/240/240 244/244/244 254/254/254
f 240/240/240 254/254/254 250/250/250
f 247/247/247 242/242/242 255/255/255
f 247/247/247 255/255/255 248/248/248
f 244/244/244 243/243/243 253/253/253
f 244/244/244 253/253/253 254/254/254
f 242/242/242 241/241/241 251/251/251
f 242/242/242 251/251/251 255/255/255
f 256/256/256 257/257/257 258/258/258
f 256/256/256 258/258/258 259/259/259
f 260/260/260 261/261/261 257/257/257
f 260/260/260 257/257/257 256/256/256
f 262/262/262 260/260/260 256/256/256
f 262/262/262 256/256/256 263/263/263
f 263/263/263 256/256/256 259/259/259
f 263/263/263 259/259/259 264/264/264
f 263/263/263 264/264/264 265/265/265
f 263/263/263 265/265/265 266/266/266
f 258/258/258 257/257/257 267/267/267
f 258/258/258 267/267/267 268/268/268
f 262/262/262 263/263/263 266/266/266
f 262/262/262 266/266/266 269/269/269
f 260/260/260 262/262/262 269/269/269
f 260/260/260 269/269/269 270/270/270
f 257/257/257 261/261/261 271/271/271
f 257/257/257 271/271/271 267/267/267
f 264/264/264 259/259/259 272/272/272
f 264/264/264 272/272/272 265/265/265
f 261/261/261 260/260/260 270/270/270
f 261/261/261 270/270/270 271/271/271
f 259/259/259 258/258/258 268/268/268
f 259/259/259 268/268/268 272/272/272
f 273/273/273 274/274/274 275/275/275
f 273/273/273 275/275/275 276/276/276
f 277/277/277 278/278/278 274/274/274
f 277/277/277 274/274/274 273/273/273
f 279/279/279 277/277/277 273/273/273
f 279/279/279 273/273/273 280/280/280
f 280/280/280 273/273/273 276/276/276
f 280/280/280 276/276/276 281/281/281
f 280/280/280 281/281/281 282/282/282
f 280/280/280 282/282/282 283/283/283
f 275/275/275 274/274/274 284/284/284
f 275/275/275 284/284/284 285/285/285
f 279/279/279 280/280/280 283/283/283
f 279/279/279 283/283/283 286/286/286
f 277/277/277 279/279/279 286/286/286
f 277/277/277 286/286/286 287/287/287
f 274/274/274 278/278/278 288/288/288
f 274/274/274 288/288/288 284/284/284
f 281/281/281 276/276/276 289/289/289
f 281/281/281 289/289/289 282/282/282
f 278/278/278 277/277/277 287/287/287
f 278/278/278 287/287/287 288/288/288
f 276/276/276 275/275/275 285/285/285
f 276/276/276 285/285/285 289/289/289
f 290/290/290 291/291/291 292/292/292
f 290/290/290 292/292/292 293/293/293
f 294/294/294 295/295/295 291/291/291
f 294/294/294 291/291/291 290/290/290
f 296/296/296 294/294/294 290/290/290
f 296/296/296 290/290/290 297/297/297
f 297/297/297 290/290/290 293/293/293
f 297/297/297 293/293/293 298/298/298
f 297/297/297 298/298/298 299/299/299
f 297/297/297 299/299/299 300/300/300
f 292/292/292 291/291/291 301/301/301
f 292/292/292 301/301/301 302/302/302
f 296/296/296 297/297/297 300/300/300
f 296/296/296 300/300/300 303/303/303
f 294/294/294 296/296/296 303/303/303
f 294/294/294 303/303/303 304/304/304
f 291/291/291 295/295/295 305/305/305
f 291/291/291 305/305/305 301/301/301
f 298/298/298 293/293/293 306/306/306
f 298/298/298 306/306/306 299/299/299
f 295/295/295 294/294/294 304/304/304
f 295/295/295 304/304/304 305/305/305
f 293/293/293 292/292/292 302/302/302
f 293/293/293 302/302/302 306/306/306
f 307/307/307 308/308/308 309/309/309
f 307/307/307 309/309/309 310/310/310
f 311/311/311 312/312/312 308/308/308
f 311/311/311 308/308/308 307/307/307
f 313/313/313 311/311/311 307/307/307
f 313/313/313 307/307/307 314/314/314
f 314/314/314 307/307/307 310/310/310
f 314/314/314 310/310/310 315/315/315
f 314/314/314 315/315/315 316/316/316
f 314/314/314 316/316/316 317/317/317
f 309/309/309 308/308/308 318/318/318
f 309/309/309 318/318/318 319/319/319
f 313/313/313 314/314/314 317/317/317
f 313/313/313 317/317/317 320/320/320
f 311/311/311 313/313/313 320/320/320
f 311/311/311 320/320/320 321/321/321
f 308/308/308 312/312/312 322/322/322
f 308/308/308 322/322/322 318/318/318
f 315/315/315 310/310/310 323/323/323
f 315/315/315 323/323/323 316/316/316
f 312/312/312 311/311/311 321/321/321
f 312/312/312 321/321/321 322/322/322
f 310/310/310 309/309/309 319/319/319
f 310/310/310 319/319/319 323/323/323
f 324/324/324 325/325/325 326/326/326
f 324/324/324 326/326/326 327/327/327
f 328/328/328 329/329/329 325/325/325
f 328/328/328 325/325/325 324/324/324
f 330/330/330 328/328/328 324/324/324
f 330/330/330 324/324/324 331/331/331
f 331/331/331 324/324/324 327/327/327
f 331/331/331 327/327/327 332/332/332
f 331/331/331 332/332/332 333/333/333
f 331/331/331 333/333/333 334/334/334
f 326/326/326 325/325/325 335/335/335
f 326/326/326 335/335/335 336/336/336
f 330/330/330 331/331/331 334/334/334
f 330/330/330 334/334/334 337/337/337
f 328/328/328 330/330/330 337/337/337
f 328/328/328 337/337/337 338/338/338
f 325/325/325 329/329/329 339/339/339
f 325/325/325 339/339/339 335/335/335
f 332/332/332 327/327/327 340/340/340
f 332/332/332 340/340/340 333/333/333
f 329/329/329 328/328/328 338/338/338
f 329/329/329 338/338/338 339/339/339
f 327/327/327 326/326/326 336/336/336
f 327/327/327 336/336/336 340/340/340
f 341/341/341 342/342/342 343/343/343
f 341/341/341 343/343/343 344/344/344
f 341/341/341 345/345/345 346/346/346
f 341/341/341 346/346/346 347/347/347
f 342/342/342 341/341/341 347/347/347
f 342/342/342 347/347/347 348/348/348
f 349/349/349 350/350/350 351/351/351
f 349/349/349 351/351/351 352/352/352
f 349/349/349 344/344/344 353/353/353
f 349/349/349 353/353/353 350/350/350
f 345/345/345 341/341/341 344/344/344
f 345/345/345 344/344/344 349/349/349
f 353/353/353 354/354/354 355/355/355
f 353/353/353 355/355/355 356/356/356
f 350/350/350 353/353/353 356/356/356
f 350/350/350 356/356/356 351/351/351
f 345/345/345 349/349/349 352/352/352
f 345/345/345 352/352/352 346/346/346
f 354/354/354 343/343/343 357/357/357
f 354/354/354 357/357/357 355/355/355
f 343/343/343 342/342/342 348/348/348
f 343/343/343 348/348/348 357/357/357
f 344/344/344 343/343/343 354/354/354
f 344/344/344 354/354/354 353/353/353
f 358/358/358 359/359/359 360/360/360
f 358/358/358 360/360/360 361/361/361
f 358/358/358 362/362/362 363/363/363
f 358/358/358 363/363/363 364/364/364
f 359/359/359 358/358/358 364/364/364
f 359/359/359 364/364/364 365/365/365
f 366/366/366 367/367/367 368/368/368
f 366/366/366 368/368/368 369/369/369
f 366/366/366 361/361/361 370/370/370
f 366/366/366 370/370/370 367/367/367
f 362/362/362 358/358/358 361/361/361
f 362/362/362 361/361/361 366/366/366
f 370/370/370 371/371/371 372/372/372
f 370/370/370 372/372/372 373/373/373
f 367/367/367 370/370/370 373/373/373
f 367/367/367 373/373/373 368/368/368
f 362/362/362 366/366/366 369/369/369
f 362/362/362 369/369/369 363/363/363
f 371/371/371 360/360/360 374/374/374
f 371/371/371 374/374/374 372/372/372
f 360/360/360 359/359/359 365/365/365
f 360/360/360 365/365/365 374/374/374
f 361/361/361 360/360/360 371/371/371
f 361/361/361 371/371/371 370/370/370
f 375/375/375 376/376/376 377/377/377
f 375/375/375 377/377/377 378/378/378
f 375/375/375 379/379/379 380/380/380
f 375/375/375 380/380/380 381/381/381
f 376/376/376 375/375/375 381/381/381
f 376/376/376 381/381/381 382/382/382
f 383/383/383 384/384/384 385/385/385
f 383/383/383 385/385/385 386/386/386
f 383/383/383 378/378/378 387/387/387
f 383/383/383 387/387/387 384/384/384
f 379/379/379 375/375/375 378/378/378
f 379/379/379 378/378/378 383/383/383
f 387/387/387 388/388/388 389/389/389
f 387/387/387 389/389/389 390/390/390
f 384/384/384 387/387/387 390/390/390
f 384/384/384 390/390/390 385/385/385
f 379/379/379 383/383/383 386/386/386
f 379/379/379 386/386/386 380/380/380
f 388/388/388 377/377/377 391/391/391
f 388/388/388 391/391/391 389/389/389
f 377/377/377 376/376/376 382/382/382
f 377/377/377 382/382/382 391/391/391
f 378/378/378 377/377/377 388/388/388
f 378/378/378 388/388/388 387/387/387
f 392/392/392 393/393/393 394/394/394
f 392/392/392 394/394/394 395/395/395
f 392/392/392 396/396/396 397/397/397
f 392/392/392 397/397/397 398/398/398
f 393/393/393 392/392/392 398/398/398
f 393/393/393 398/398/398 399/399/399
f 400/400/400 401/401/401 402/402/402
f 400/400/400 402/402/402 403/403/403
f 400/400/400 395/395/395 404/404/404
f 400/400/400 404/404/404 401/401/401
f 396/396/396 392/392/392 395/395/395
f 396/396/396 395/395/395 400/400/400
f 404/404/404 405/405/405 406/406/406
f 404/404/404 406/406/406 407/407/407
f 401/401/401 404/404/404 407/407/407
f 401/401/401 407/407/407 402/402/402
f 396/396/396 400/400/400 403/403/403
f 396/396/396 403/403/403 397/397/397
f 405/405/405 394/394/394 408/408/408
f 405/405/405 408/408/408 406/406/406
f 394/394/394 393/393/393 399/399/399
f 394/394/394 399/399/399 408/408/408
f 395/395/395 394/394/394 405/405/405
f 395/395/395 405/405/405 404/404/404
f 409/409/409 410/410/410 411/411/411
f 409/409/409 411/411/411 412/412/412
f 409/409/409 413/413/413 414/414/414
f 409/409/409 414/414/414 415/415/415
f 410/410/410 409/409/409 415/415/415
f 410/410/410 415/415/415 416/416/416
f 417/417/417 418/418/418 419/419/419
f 417/417/417 419/419/419 420/420/420
f 417/417/417 412/412/412 421/421/421
f 417/417/417 421/421/421 418/418/418
f 413/413/413 409/409/409 412/412/412
f 413/413/413 412/412/412 417/417/417
f 421/421/421 422/422/422 423/423/423
f 421/421/421 423/423/423 424/424/424
f 418/418/418 421/421/421 424/424/424
f 418/418/418 424/424/424 419/419/419
f 413/413/413 417/417/417 420/420/420
f 413/413/413 420/420/420 414/414/414
f 422/422/422 411/411/411 425/425/425
f 422/422/422 425/425/425 423/423/423
f 411/411/411 410/410/410 416/416/416
f 411/411/411 416/416/416 425/425/425
f 412/412/412 411/411/411 422/422/422
f 412/412/412 422/422/422 421/421/421
f 426/426/426 427/427/427 428/428/428
f 426/426/426 428/428/428 429/429/429
f 426/426/426 430/430/430 431/431/431
f 426/426/426 431/431/431 432/432/432
f 427/427/427 426/426/426 432/432/432
f 427/427/427 432/432/432 433/433/433
f 434/434/434 435/435/435 436/436/436
f 434/434/434 436/436/436 437/437/437
f 434/434/434 429/429/429 438/438/438
f 434/434/434 438/438/438 435/435/435
f 430/430/430 426/426/426 429/429/429
f 430/430/430 429/429/429 434/434/434
f 438/438/438 439/439/439 440/440/440
f 438/438/438 440/440/440 441/441/441
f 435/435/435 438/438/438 441/441/441
f 435/435/435 441/441/441 436/436/436
f 430/430/430 434/434/434 437/437/437
f 430/430/430 437/437/437 431/431/431
f 439/439/439 428/428/428 442/442/442
f 439/439/439 442/442/442 440/440/440
f 428/428/428 427/427/427 433/433/433
f 428/428/428 433/433/433 442/442/442
f 429/429/429 428/428/428 439/439/439
f 429/429/429 439/439/439 438/438/438
f 443/443/443 444/444/444 445/445/445
f 443/443/443 445/445/445 446/446/446
f 443/443/443 447/447/447 448/448/448
f 443/443/443 448/448/448 449/449/449
f 444/444/444 443/443/443 449/449/449
f 444/444/444 449/449/449 450/450/450
f 451/451/451 452/452/452 453/453/453
f 451/451/451 453/453/453 454/454/454
f 451/451/451 446/446/446 455/455/455
f 451/451/451 455/455/455 452/452/452
f 447/447/447 443/443/443 446/446/446
f 447/447/447 446/446/446 451/451/451
f 455/455/455 456/456/456 457/457/457
f 455/455/455 457/457/457 458/458/458
f 452/452/452 455/455/455 458/458/458
f 452/452/452 458/458/458 453/453/453
f 447/447/447 451/451/451 454/454/454
f 447/447/447 454/454/454 448/448/448
f 456/456/456 445/445/445 459/459/459
f 456/456/456 459/459/459 457/457/457
f 445/445/445 444/444/444 450/450/450
f 445/445/445 450/450/450 459/459/459
f 446/446/446 445/445/445 456/456/456
f 446/446/446 456/456/456 455/455/455
f 460/460/460 461/461/461 462/462/462
f 460/460/460 462/462/462 463/463/463
f 460/460/460 464/464/464 465/465/465
f 460/460/460 465/465/465 466/466/466
f 461/461/461 460/460/460 466/466/466
f 461/461/461 466/466/466 467/467/467
f 468/468/468 469/469/469 470/470/470
f 468/468/468 470/470/470 471/471/471
f 468/468/468 463/463/463 472/472/472
f 468/468/468 472/472/472 469/469/469
f 464/464/464 460/460/460 463/463/463
f 464/464/464 463/463/463 468/468/468
f 472/472/472 473/473/473 474/474/474
f 472/472/472 474/474/474 475/475/475
f 469/469/469 472/472/472 475/475/475
f 469/469/469 475/475/475 470/470/470
f 464/464/464 468/468/468 471/471/471
f 464/464/464 471/471/471 465/465/465
f 473/473/473 462/462/462 476/476/476
f 473/473/473 476/476/476 474/474/474
f 462/462/462 461/461/461 467/467/467
f 462/462/462 467/467/467 476/476/476
f 463/463/463 462/462/462 473/473/473
f 463/463/463 473/473/473 472/472/472
