# Split Tree_4_leaves mesh for Ursina textured rendering
o Tree_4_leaves
v -1.860247 4.085670 0.048559
v -1.194110 3.949637 -0.184504
v -1.540210 3.924859 -0.596655
v -2.077270 3.883117 -0.605991
v -1.613970 3.912330 0.701143
v -1.203200 3.946110 0.354171
v -2.151037 3.870584 0.691807
v -2.497135 3.845809 0.279655
v -2.488045 3.849337 -0.259020
v -2.899169 3.393376 -0.473130
v -2.914540 3.387414 0.437842
v -0.710947 3.563003 -0.347113
v -1.296243 3.521103 -1.044117
v -2.329241 3.429312 1.134846
v -1.420994 3.499908 1.150634
v -0.726321 3.557037 0.563858
v -2.204491 3.450509 -1.059905
v -1.428586 4.455969 -1.542180
v -1.961179 3.983161 -1.638968
v -2.067284 4.292340 -1.210696
v -1.748627 4.613585 -0.918246
v -1.027280 4.009689 -1.937590
v -1.542563 3.853059 -1.952180
v -0.708622 4.330934 -1.645140
v -0.814727 4.640113 -1.216870
v -1.233343 4.770215 -0.903657
v -1.035131 4.762690 -0.284449
v -0.327199 4.542670 -0.814134
v -2.265998 3.431676 -1.527961
v -2.445442 3.954537 -0.803696
v -0.147757 4.019807 -1.538398
v -0.686648 3.476540 -2.032969
v -1.558066 3.211656 -2.057644
v -1.906552 4.497806 -0.309126
v 0.079277 4.833647 -0.597100
v -0.591711 4.834248 -1.025194
v -0.705488 5.023643 -0.470975
v -0.386513 4.980430 0.031380
v 0.359747 4.322822 -1.139217
v -0.162651 4.545289 -1.322484
v 0.678719 4.279609 -0.636860
v 0.564941 4.469006 -0.082643
v 0.135879 4.757960 0.214646
v 0.030719 4.422253 0.842902
v 0.756327 3.933590 0.340144
v -1.199734 4.551264 -1.253837
v -1.392145 4.871557 -0.316582
v 0.948735 3.613298 -0.597112
v 0.409306 3.686377 -1.446666
v -0.474129 4.062600 -1.756596
v -0.852714 4.798478 0.532973
v -1.104077 5.316891 -0.283020
v -1.670311 5.091958 -0.688088
v -1.794181 5.048839 -0.155557
v -1.474891 5.054104 0.290335
v -0.695975 5.198330 -0.878578
v -1.227585 5.153752 -1.005839
v -0.376688 5.203593 -0.432685
v -0.500555 5.160477 0.099847
v -0.943281 5.098681 0.417597
v -0.803115 4.651004 0.884535
v -0.054406 4.755508 0.347177
v -2.032621 4.639632 -0.985328
v -2.242100 4.566714 -0.084745
v 0.155071 4.828424 -0.553407
v -0.384885 4.819525 -1.307470
v -1.283914 4.744134 -1.522688
v -1.702142 4.575616 0.669316
v -0.924937 4.795694 -1.748699
v -1.066265 4.193219 -2.131051
v -1.531699 4.405563 -1.942322
v -1.624842 4.774414 -1.551668
v -0.247741 4.537316 -1.687096
v -0.529977 4.233095 -2.040832
v -0.340890 4.906165 -1.296443
v -0.806318 5.118511 -1.107713
v -1.342610 5.078634 -1.197932
v -1.648961 5.056479 -0.615938
v -0.742024 5.123915 -0.463366
v -1.181631 3.559120 -2.193969
v -1.968741 3.918224 -1.874802
v 0.045086 4.764811 -0.782533
v 0.202606 4.141035 -1.443179
v -0.274691 3.626558 -2.041397
v -2.126259 4.542002 -1.214155
v -0.483691 4.941398 0.085794
v -0.655033 4.946016 -0.691456
v -1.159019 4.973429 -0.373302
v -1.266517 4.856444 0.201791
v 0.216689 4.628537 -0.126538
v -0.080115 4.807645 -0.612134
v 0.109187 4.511553 0.448554
v -0.394790 4.538969 0.766710
v -0.969719 4.677335 0.687385
v -1.369810 4.185153 1.028174
v -0.397542 3.951150 1.162320
v -0.837645 4.639523 -1.303631
v -1.689948 4.685882 -0.765590
v 0.454761 3.904790 0.624280
v 0.636559 4.102627 -0.348282
v 0.134629 4.405523 -1.169486
v -1.871749 4.488046 0.206969
v -1.764458 4.967791 -0.553933
v -1.876443 4.692588 -1.222527
v -2.292876 4.555354 -0.893069
v -2.337809 4.563381 -0.346527
v -1.059659 5.011961 -0.745243
v -1.363131 4.881659 -1.183100
v -1.104600 5.019985 -0.198701
v -1.521028 4.882753 0.130760
v -2.034340 4.693684 0.091332
v -2.118537 4.223805 0.549827
v -1.250452 4.543550 0.616506
v -1.851508 4.221953 -1.672086
v -2.555750 3.989873 -1.114923
v -0.546213 4.775631 0.059345
v -0.470220 4.762056 -0.864931
v -0.983429 4.541697 -1.605408
v -2.631744 4.003447 -0.190646
v -0.972244 4.760106 0.083790
v -1.492990 4.687644 -0.241263
v -1.582488 4.539955 0.222558
v -1.297691 4.415743 0.582820
v -0.670040 4.739271 -0.468953
v -1.125926 4.775292 -0.542515
v -0.385238 4.615061 -0.108690
v -0.474733 4.467371 0.355132
v -0.841800 4.379724 0.656381
v -0.769735 3.832534 1.010309
v -0.148981 3.980758 0.500854
v -1.870987 4.353271 -0.507733
v -2.022341 4.103507 0.276652
v 0.002375 4.230523 -0.283530
v -0.479260 4.440581 -0.892782
v -1.250231 4.501497 -1.017188
v -1.540706 3.893450 0.885904
v -1.711297 5.114730 -0.705166
v -1.607280 4.806676 -1.360587
v -2.111179 4.689813 -1.178321
v -2.330539 4.726088 -0.676965
v -0.981677 5.143373 -0.659025
v -1.130001 4.993351 -1.165271
v -1.201037 5.179649 -0.157668
v -1.704935 5.062785 0.024599
v -2.182212 4.876111 -0.170717
v -2.421753 4.430945 0.256529
v -1.614609 4.746639 0.586838
v -1.449465 4.313523 -1.755700
v -2.301623 4.115892 -1.447462
v -0.762451 4.944272 0.278600
v -0.391486 4.882923 -0.569262
v -0.642318 4.629217 -1.425395
v -2.672588 4.177239 -0.599601
v -0.050774 4.280807 -0.810717
v -0.507079 4.108306 -1.190345
v -0.690916 4.125850 -0.731163
v -0.487133 4.127174 -0.301283
v 0.345173 4.072654 -1.254771
v -0.085485 4.086191 -1.424742
v 0.548964 4.073981 -0.824890
v 0.365127 4.091523 -0.365706
v -0.056466 4.113639 -0.131313
v -0.091851 3.716470 0.389147
v 0.621114 3.679069 -0.007247
v -0.853899 3.707452 -1.401824
v -1.164794 3.737118 -0.625284
v 0.932011 3.649403 -0.783785
v 0.587379 3.647162 -1.510771
v -0.140928 3.670053 -1.798218
v -0.820162 3.739359 0.101701
v 0.729836 3.948828 0.182852
v 1.368970 3.739352 -0.070508
v 1.013918 3.770659 -0.474521
v 0.475746 3.795703 -0.471789
v 0.966349 3.725577 0.823778
v 1.370786 3.719649 0.467891
v 0.428168 3.750619 0.826510
v 0.073119 3.781928 0.422497
v 0.071303 3.801632 -0.115902
v -0.397525 3.406903 -0.333058
v -0.394452 3.373584 0.577449
v 1.797009 3.301584 -0.256290
v 1.196579 3.354531 -0.939530
v 0.205987 3.320637 1.260689
v 1.116111 3.278286 1.256069
v 1.800083 3.268263 0.654216
v 0.286449 3.396882 -0.934910
v 2.107480 4.314109 0.562481
v 2.696445 3.913858 0.659890
v 2.754453 4.219816 0.220240
v 2.392407 4.489795 -0.073534
v 1.772906 3.834750 0.980615
v 2.303816 3.743328 0.987042
v 1.410860 4.104729 0.686841
v 1.468868 4.410687 0.247194
v 1.861496 4.581217 -0.079959
v 1.652832 4.529425 -0.693587
v 0.988845 4.241038 -0.140327
v 3.064839 3.400832 0.557598
v 3.162942 3.918247 -0.185907
v 0.890744 3.723621 0.603178
v 1.503008 3.267052 1.099988
v 2.400851 3.112445 1.110857
v 2.550678 4.374818 -0.682716
v 0.545003 4.472604 -0.355680
v 1.219558 4.569611 0.055483
v 1.297381 4.753654 -0.506698
v 0.975774 4.655348 -0.999525
v 0.341376 3.948826 0.207957
v 0.835913 4.239718 0.371643
v 0.019772 3.850521 -0.284871
v 0.097593 4.034566 -0.847049
v 0.481243 4.364455 -1.163208
v 0.614006 4.024224 -1.783757
v -0.034804 3.466337 -1.249088
v 1.862604 4.371169 0.277216
v 1.994203 4.682412 -0.673503
v -0.166401 3.155096 -0.298368
v 0.377476 3.321342 0.535073
v 1.213796 3.813281 0.811886
v 1.450324 4.516166 -1.506944
v 1.652555 5.087563 -0.712976
v 2.250638 4.947228 -0.315615
v 2.367726 4.902589 -0.849554
v 2.040985 4.854145 -1.287373
v 1.274830 4.938857 -0.104284
v 1.810415 4.964211 0.011041
v 0.948091 4.890412 -0.542105
v 1.065177 4.845775 -1.076043
v 1.505400 4.828792 -1.402699
v 1.412029 4.352475 -1.852696
v 0.667549 4.381196 -1.300277
v 2.672328 4.552766 -0.014291
v 2.870336 4.477278 -0.917253
v 0.469542 4.456684 -0.397313
v 1.022105 4.538612 0.343099
v 1.927851 4.581485 0.538130
v 2.317776 4.395351 -1.657664
v 1.570060 4.595681 0.771343
v 1.792896 4.027811 1.167586
v 2.224394 4.289683 0.961256
v 2.262935 4.654441 0.557767
v 0.928947 4.254017 0.734114
v 1.254029 3.998409 1.089530
v 0.967491 4.618774 0.330627
v 1.398983 4.880647 0.124294
v 1.937853 4.910048 0.202350
v 2.232342 4.907088 -0.386143
v 1.321045 4.857366 -0.518147
v 1.987212 3.415103 1.246202
v 2.716925 3.857965 0.897267
v 0.591331 4.414502 -0.169211
v 0.526147 3.797648 0.513141
v 1.075912 3.365381 1.114200
v 2.782104 4.474821 0.214915
v 1.075877 4.626853 -1.055159
v 1.261554 4.677535 -0.282854
v 1.751490 4.756566 -0.614046
v 1.860599 4.635277 -1.187943
v 0.424243 4.237104 -0.816481
v 0.706670 4.466928 -0.343838
v 0.533349 4.115817 -1.390378
v 1.023283 4.194849 -1.721570
v 1.578178 4.405452 -1.660585
v 2.028933 3.955590 -1.996585
v 1.090548 3.599428 -2.099717
v 1.493492 4.415715 0.333342
v 2.322043 4.549366 -0.226746
v 0.261997 3.465775 -1.539629
v 0.077485 3.670890 -0.569090
v 0.555098 4.059554 0.230210
v 2.506561 4.344252 -1.197284
v 2.356614 4.831352 -0.448359
v 2.515791 4.593683 0.225044
v 2.939029 4.498260 -0.110448
v 2.971177 4.494178 -0.657934
v 1.655931 4.794509 -0.241050
v 1.982299 4.716726 0.192798
v 1.688085 4.790425 -0.788537
v 2.111320 4.695004 -1.124032
v 2.644810 4.571962 -1.091785
v 2.776951 4.101530 -1.538244
v 1.874739 4.309611 -1.592779
v 2.558757 4.138265 0.688692
v 3.274512 3.976891 0.121325
v 1.158993 4.470986 -1.025413
v 1.104619 4.477888 -0.099540
v 1.656553 4.346345 0.634159
v 3.328880 3.969988 -0.804549
v 1.583056 4.507274 -1.059924
v 2.115455 4.509993 -0.745866
v 2.212837 4.359611 -1.207228
v 1.938145 4.189746 -1.556536
v 1.297395 4.467164 -0.499501
v 1.746746 4.561407 -0.438327
v 1.022697 4.297300 -0.848810
v 1.120070 4.146917 -1.310173
v 1.488785 4.095504 -1.617710
v 1.477665 3.532507 -1.953545
v 0.854129 3.619455 -1.433457
v 2.537452 4.233467 -0.479137
v 2.702133 3.979148 -1.259363
v 0.689445 3.873773 -0.653233
v 1.153994 4.161037 -0.062504
v 1.913914 4.320415 0.040952
v 2.237585 3.691885 -1.850090
v 2.288838 4.975412 -0.300232
v 2.237518 4.678132 0.366315
v 2.748085 4.618420 0.175145
v 2.950723 4.665293 -0.332332
v 1.560483 4.912475 -0.329131
v 1.736808 4.798223 0.177474
v 1.763124 4.959348 -0.836608
v 2.273691 4.899636 -1.027778
v 2.774395 4.779546 -0.838938
v 3.058243 4.353764 -1.258738
v 2.211478 4.556854 -1.578096
v 2.150306 4.182261 0.779504
v 3.013746 4.081280 0.456210
v 1.348038 4.657836 -1.254802
v 1.005353 4.578566 -0.396589
v 1.303535 4.385352 0.460150
v 3.356430 4.160551 -0.402002
v 0.746975 3.947149 -0.129224
v 1.228977 3.844462 0.243897
v 1.399575 3.869737 -0.220009
v 1.188249 3.832126 -0.644570
v 0.389240 3.706204 0.330403
v 0.818366 3.778140 0.489199
v 0.177903 3.668595 -0.094159
v 0.348504 3.693869 -0.558066
v 0.759111 3.760192 -0.803365
v 0.832528 3.353872 -1.312668
v 0.138137 3.241712 -0.897832
v 1.627128 3.496386 0.458397
v 1.915636 3.539127 -0.326132
v -0.150377 3.198971 -0.113305
v 0.207015 3.262576 0.604687
v 0.932731 3.384227 0.873234
v 1.558244 3.475523 -1.044121
v 0.788420 4.591225 2.497077
v 0.325892 4.582611 2.188036
v 0.236486 4.469052 2.579228
v 0.483189 4.345259 2.891850
v 1.064869 4.560106 2.015291
v 0.659608 4.625336 1.941607
v 1.311569 4.436312 2.327915
v 1.222163 4.322754 2.719106
v 0.888450 4.280030 2.965535
v 0.935179 3.849251 3.221569
v 1.499540 3.921504 2.804826
v -0.016177 4.360956 1.906712
v -0.167376 4.168914 2.568271
v 1.650736 4.113545 2.143266
v 1.233531 4.322897 1.614579
v 0.548181 4.433208 1.489967
v 0.249829 3.959563 3.096957
v 0.819535 4.424520 1.313725
v 0.618651 4.079432 0.930956
v 0.306141 4.262423 1.132884
v 0.297878 4.469349 1.492099
v 1.287570 4.132060 1.276767
v 1.026057 4.017074 0.976250
v 1.279307 4.338985 1.635981
v 0.966798 4.521975 1.837910
v 0.559391 4.584335 1.792616
v 0.337850 4.502013 2.233682
v 1.026829 4.396554 2.310281
v 0.438060 3.648155 0.776498
v -0.090433 3.957616 1.117987
v 1.555323 4.087093 1.968791
v 1.569299 3.737154 1.361312
v 1.127043 3.542698 0.853096
v -0.104404 4.307557 1.725467
v 0.298382 4.569500 2.181721
v 0.319076 4.454558 1.637782
v -0.070748 4.405771 1.777694
v -0.220213 4.368754 2.165263
v 0.847544 4.480438 2.182287
v 0.705950 4.487010 1.790078
v 0.698076 4.443422 2.569856
v 0.308252 4.394635 2.709769
v -0.078619 4.362182 2.557473
v -0.315388 3.993292 2.804796
v 0.338868 4.048174 3.062351
v 0.357175 4.149514 1.249475
v -0.302074 4.067008 1.486086
v 0.998115 4.130680 2.825739
v 1.250879 4.193279 2.170307
v 1.011434 4.204396 1.507027
v -0.554838 4.004409 2.141518
v -1.777264 4.952840 1.348786
v -1.324050 4.945822 1.344595
v -1.443372 4.853297 1.040197
v -1.752927 4.752434 0.942935
v -1.742295 4.927485 1.800009
v -1.435639 4.980633 1.663644
v -2.051847 4.826621 1.702745
v -2.171169 4.734098 1.398347
v -2.059584 4.699287 1.079300
v -2.208538 4.348301 0.928369
v -2.397249 4.407171 1.467924
v -0.964653 4.765224 1.377022
v -1.166445 4.608754 0.862243
v -2.195457 4.563640 1.982703
v -1.671958 4.734215 2.147187
v -1.153366 4.824092 1.916577
v -1.689941 4.438180 0.697759
v -1.255176 4.848359 2.159756
v -0.944280 4.567191 2.325270
v -0.826546 4.716287 2.045912
v -0.985826 4.884884 1.800279
v -1.553319 4.610070 2.399418
v -1.239353 4.516383 2.481733
v -1.712599 4.778667 2.153785
v -1.594869 4.927761 1.874426
v -1.299796 4.978571 1.717963
v -1.353047 4.911497 1.319351
v -1.852054 4.825573 1.583951
v -0.751815 4.215800 2.346387
v -0.552716 4.467939 1.873955
v -2.051153 4.573433 2.056383
v -1.781792 4.288313 2.471782
v -1.250825 4.129876 2.610988
v -0.822081 4.753060 1.458558
v -1.302631 4.916945 1.336223
v -1.066952 4.823294 1.711926
v -0.868707 4.783543 1.438841
v -0.945932 4.753384 1.109321
v -1.672615 4.844380 1.587850
v -1.397302 4.849734 1.786927
v -1.749840 4.814219 1.258328
v -1.551595 4.774469 0.985243
v -1.221247 4.748028 0.910242
v -1.175337 4.447468 0.635080
v -1.734005 4.492184 0.761917
v -0.914407 4.574753 1.990837
v -0.579149 4.507529 1.529011
v -2.069263 4.559407 1.223742
v -1.938662 4.610411 1.781004
v -1.473078 4.619469 2.117677
v -0.709751 4.456525 0.971749
v -1.489339 4.680811 1.589063
v -0.945202 4.605076 1.479406
v -1.161920 4.620219 1.120019
v -1.573194 4.582480 1.043952
v -1.372950 4.488806 2.102320
v -1.016260 4.552080 1.889890
v -1.784221 4.451066 2.026250
v -2.000940 4.466211 1.666863
v -1.929885 4.519207 1.256381
v -2.209036 4.181500 1.001655
v -2.329204 4.091876 1.695839
v -0.543803 4.326715 1.378823
v -0.910307 4.352325 0.771050
v -1.962701 4.066264 2.303611
v -1.267180 4.130087 2.432252
v -0.663975 4.237090 2.073007
v -1.605824 4.288504 0.642409
v 0.653968 4.373889 1.920005
v 0.875950 4.198587 2.399072
v 1.170481 4.213938 2.104222
v 1.141508 4.238215 1.688902
v 0.164689 4.218210 2.134201
v 0.459930 4.199387 2.428140
v 0.135719 4.242487 1.718881
v 0.430249 4.257839 1.424032
v 0.846268 4.257040 1.394963
v 0.977820 3.949472 1.018926
v 0.274271 3.950825 1.068080
v 1.028012 3.850621 2.717006
v 1.526104 3.876583 2.218377
v -0.223819 3.924862 1.566712
v -0.174824 3.883808 2.269075
v 0.324465 3.851972 2.766164
v 1.477109 3.917639 1.516015
vt 1.332650 0.254704
vt 1.344899 0.370610
vt 1.656914 0.276844
vt 1.334723 0.270503
vt 1.353095 0.356916
vt 1.503304 0.403767
vt 1.660888 0.416127
vt 1.509130 0.283558
vt 1.506930 0.388448
vt 1.357669 0.341982
vt 1.336610 0.384078
vt 1.340874 0.284903
vt 1.331989 0.399164
vt 1.355012 0.312249
vt 1.358417 0.326899
vt 1.348598 0.298393
vt 1.170642 0.282996
vt 1.155829 0.325578
vt 1.171749 0.380673
vt 1.163330 0.346624
vt 1.165954 0.293936
vt 1.171878 0.368692
vt 1.156560 0.314611
vt 1.172381 0.271135
vt 1.158135 0.336364
vt 1.160419 0.304104
vt 1.044343 0.305783
vt 1.042036 0.334569
vt 1.054677 0.372157
vt 1.046903 0.343646
vt 1.168814 0.357126
vt 1.054502 0.362374
vt 1.040646 0.315087
vt 1.049302 0.297020
vt 1.124634 0.638605
vt 1.052266 0.695742
vt 1.055071 0.278347
vt 1.039842 0.636160
vt 1.041638 0.698401
vt 1.051733 0.352768
vt 1.039842 0.324917
vt 1.050886 0.634848
vt 1.053400 0.288000
vt 1.114308 0.638503
vt 1.092894 0.708244
vt 1.083440 0.703587
vt 1.094180 0.636171
vt 1.122645 0.707659
vt 1.083717 0.634302
vt 1.112723 0.710417
vt 1.061897 0.633993
vt 1.142668 0.699935
vt 1.072881 0.633514
vt 1.104234 0.637567
vt 1.146308 0.637456
vt 1.073651 0.698933
vt 1.135275 0.638148
vt 1.063110 0.696119
vt 1.102699 0.710594
vt 1.132426 0.703549
vt 1.090915 0.815253
vt 1.065951 0.803222
vt 1.056951 0.802821
vt 1.082861 0.810610
vt 1.116995 0.814079
vt 1.125138 0.809890
vt 1.108461 0.817105
vt 1.099561 0.817522
vt 1.072442 0.530272
vt 1.094894 0.527248
vt 1.127327 0.532167
vt 1.061650 0.533316
vt 1.105805 0.527834
vt 1.133574 0.806470
vt 1.074703 0.805995
vt 1.138164 0.534744
vt 1.048167 0.805320
vt 1.083620 0.527817
vt 1.050809 0.535028
vt 1.032959 1.063341
vt 1.039842 0.535155
vt 1.149169 0.536544
vt 1.025754 1.068430
vt 1.116550 0.529695
vt 1.016780 1.068430
vt 1.013633 0.977011
vt 1.033506 1.046125
vt 1.016812 1.040427
vt 1.008042 0.985020
vt 1.035966 1.055010
vt 1.006548 1.054405
vt 1.009385 1.063104
vt 1.026063 1.040469
vt 1.009408 1.045739
vt 1.038955 0.984985
vt 1.032896 1.003123
vt 1.023255 1.006103
vt 1.038882 0.995033
vt 1.023201 0.973574
vt 1.013752 1.002831
vt 1.033032 0.976679
vt 1.008042 0.994747
vt 1.223063 0.460898
vt 1.221194 0.471362
vt 1.146948 0.489905
vt 1.153777 0.460622
vt 1.149121 0.470075
vt 1.218759 0.501815
vt 0.552148 1.071394
vt 1.218862 0.491490
vt 1.149706 0.499826
vt 1.219217 0.512456
vt 1.219797 0.481416
vt 1.146770 0.479881
vt 1.153816 0.509607
vt 1.223371 0.439078
vt 1.223850 0.450063
vt 1.161246 0.440291
vt 1.158431 0.450833
vt 1.047475 0.502319
vt 1.046754 0.460043
vt 1.040259 0.485642
vt 1.054544 0.434133
vt 1.054142 0.443132
vt 1.157429 0.519849
vt 1.219909 0.523489
vt 1.042112 0.468096
vt 1.043286 0.494176
vt 1.050895 0.510755
vt 1.325197 0.504509
vt 1.322620 0.515346
vt 1.052045 0.425349
vt 1.039842 0.476743
vt 1.330116 0.472075
vt 1.051369 0.451884
vt 1.329531 0.482986
vt 1.039852 1.059545
vt 1.322209 0.417024
vt 1.327670 0.493732
vt 1.044941 1.066749
vt 1.322337 0.427990
vt 1.327093 0.449623
vt 1.324048 0.438831
vt 1.329548 0.460802
vt 1.320821 0.526351
vt 1.053877 1.040339
vt 1.067855 1.050603
vt 1.067814 1.059853
vt 1.062544 1.043199
vt 1.039852 1.050571
vt 1.062158 1.067296
vt 1.045178 1.043176
vt 1.053272 1.069757
vt 0.941368 0.379619
vt 0.916239 0.387416
vt 0.922089 0.405770
vt 0.931865 0.376346
vt 0.922225 0.379326
vt 0.941488 0.405438
vt 0.947078 0.397428
vt 0.916166 0.397465
vt 0.931920 0.408876
vt 0.757387 0.597317
vt 0.402683 0.757387
vt 0.597317 0.242613
vt 0.618652 0.762926
vt 0.947078 0.387701
vt 0.762926 0.381347
vt 0.500000 0.500000
vt 0.381347 0.237074
vt 0.999900 0.274406
vt 0.725594 0.999900
vt 0.000100 0.310990
vt 0.689010 0.000100
vt 0.274406 0.000100
vt 0.237074 0.618653
vt 0.242613 0.402683
vt 0.999900 0.689010
vt 0.000100 0.725594
vt 0.757387 0.597317
vt 0.402683 0.757387
vt 0.597317 0.242613
vt 0.618652 0.762926
vt 0.310990 0.999900
vt 0.762926 0.381347
vt 0.500000 0.500000
vt 0.381347 0.237074
vt 0.999900 0.274406
vt 0.725594 0.999900
vt 0.000100 0.310990
vt 0.689010 0.000100
vt 0.274406 0.000100
vt 0.237074 0.618653
vt 0.242613 0.402683
vt 0.999900 0.689010
vt 0.000100 0.725594
vt 0.757387 0.597317
vt 0.402683 0.757387
vt 0.597317 0.242613
vt 0.618652 0.762926
vt 0.310990 0.999900
vt 0.762926 0.381347
vt 0.500000 0.500000
vt 0.381347 0.237074
vt 0.999900 0.274406
vt 0.725594 0.999900
vt 0.000100 0.310990
vt 0.689010 0.000100
vt 0.274406 0.000100
vt 0.237074 0.618653
vt 0.242613 0.402683
vt 0.999900 0.689010
vt 0.000100 0.725594
vt 0.757387 0.597317
vt 0.402683 0.757387
vt 0.597317 0.242613
vt 0.618652 0.762926
vt 0.310990 0.999900
vt 0.762926 0.381347
vt 0.500000 0.500000
vt 0.381347 0.237074
vt 0.999900 0.274406
vt 0.725594 0.999900
vt 0.000100 0.310990
vt 0.689010 0.000100
vt 0.274406 0.000100
vt 0.237074 0.618653
vt 0.242613 0.402683
vt 0.999900 0.689010
vt 0.000100 0.725594
vt 0.757387 0.597317
vt 0.402683 0.757387
vt 0.597317 0.242613
vt 0.618652 0.762926
vt 0.310990 0.999900
vt 0.762926 0.381347
vt 0.500000 0.500000
vt 0.381347 0.237074
vt 0.999900 0.274406
vt 0.725594 0.999900
vt 0.000100 0.310990
vt 0.689010 0.000100
vt 0.274406 0.000100
vt 0.237074 0.618653
vt 0.242613 0.402683
vt 0.999900 0.689010
vt 0.000100 0.725594
vt 0.757387 0.597317
vt 0.402683 0.757387
vt 0.597317 0.242613
vt 0.618652 0.762926
vt 0.310990 0.999900
vt 0.762926 0.381347
vt 0.500000 0.500000
vt 0.381347 0.237074
vt 0.999900 0.274406
vt 0.725594 0.999900
vt 0.000100 0.310990
vt 0.689010 0.000100
vt 0.274406 0.000100
vt 0.237074 0.618653
vt 0.242613 0.402683
vt 0.999900 0.689010
vt 0.000100 0.725594
vt 0.757387 0.597317
vt 0.402683 0.757387
vt 0.597317 0.242613
vt 0.618652 0.762926
vt 0.310990 0.999900
vt 0.762926 0.381347
vt 0.500000 0.500000
vt 0.381347 0.237074
vt 0.999900 0.274406
vt 0.725594 0.999900
vt 0.000100 0.310990
vt 0.689010 0.000100
vt 0.274406 0.000100
vt 0.237074 0.618653
vt 0.242613 0.402683
vt 0.999900 0.689010
vt 0.000100 0.725594
vt 0.757387 0.597317
vt 0.402683 0.757387
vt 0.597317 0.242613
vt 0.618652 0.762926
vt 0.310990 0.999900
vt 0.762926 0.381347
vt 0.500000 0.500000
vt 0.381347 0.237074
vt 0.999900 0.274406
vt 0.725594 0.999900
vt 0.000100 0.310990
vt 0.689010 0.000100
vt 0.274406 0.000100
vt 0.237074 0.618653
vt 0.242613 0.402683
vt 0.999900 0.689010
vt 0.000100 0.725594
vt 0.757387 0.597317
vt 0.402683 0.757387
vt 0.597317 0.242613
vt 0.618652 0.762926
vt 0.310990 0.999900
vt 0.762926 0.381347
vt 0.500000 0.500000
vt 0.381347 0.237074
vt 0.999900 0.274406
vt 0.725594 0.999900
vt 0.000100 0.310990
vt 0.689010 0.000100
vt 0.274406 0.000100
vt 0.237074 0.618653
vt 0.242613 0.402683
vt 0.999900 0.689010
vt 0.000100 0.725594
vt 0.757387 0.597317
vt 0.402683 0.757387
vt 0.597317 0.242613
vt 0.618652 0.762926
vt 0.310990 0.999900
vt 0.762926 0.381347
vt 0.500000 0.500000
vt 0.381347 0.237074
vt 0.999900 0.274406
vt 0.725594 0.999900
vt 0.000100 0.310990
vt 0.689010 0.000100
vt 0.274406 0.000100
vt 0.237074 0.618653
vt 0.242613 0.402683
vt 0.999900 0.689010
vt 0.000100 0.725594
vt 0.757387 0.597317
vt 0.402683 0.757387
vt 0.597317 0.242613
vt 0.618652 0.762926
vt 0.310990 0.999900
vt 0.762926 0.381347
vt 0.500000 0.500000
vt 0.381347 0.237074
vt 0.999900 0.274406
vt 0.725594 0.999900
vt 0.000100 0.310990
vt 0.689010 0.000100
vt 0.274406 0.000100
vt 0.237074 0.618653
vt 0.242613 0.402683
vt 0.999900 0.689010
vt 0.000100 0.725594
vt 0.757387 0.597317
vt 0.402683 0.757387
vt 0.597317 0.242613
vt 0.618652 0.762926
vt 0.310990 0.999900
vt 0.762926 0.381347
vt 0.500000 0.500000
vt 0.381347 0.237074
vt 0.999900 0.274406
vt 0.725594 0.999900
vt 0.000100 0.310990
vt 0.689010 0.000100
vt 0.274406 0.000100
vt 0.237074 0.618653
vt 0.242613 0.402683
vt 0.999900 0.689010
vt 0.000100 0.725594
vt 0.757387 0.597317
vt 0.402683 0.757387
vt 0.597317 0.242613
vt 0.618652 0.762926
vt 0.310990 0.999900
vt 0.762926 0.381347
vt 0.500000 0.500000
vt 0.381347 0.237074
vt 0.999900 0.274406
vt 0.725594 0.999900
vt 0.000100 0.310990
vt 0.689010 0.000100
vt 0.274406 0.000100
vt 0.237074 0.618653
vt 0.242613 0.402683
vt 0.999900 0.689010
vt 0.000100 0.725594
vt 0.757387 0.597317
vt 0.402683 0.757387
vt 0.597317 0.242613
vt 0.618652 0.762926
vt 0.310990 0.999900
vt 0.762926 0.381347
vt 0.500000 0.500000
vt 0.381347 0.237074
vt 0.999900 0.274406
vt 0.725594 0.999900
vt 0.000100 0.310990
vt 0.689010 0.000100
vt 0.274406 0.000100
vt 0.237074 0.618653
vt 0.242613 0.402683
vt 0.999900 0.689010
vt 0.000100 0.725594
vt 0.757387 0.597317
vt 0.402683 0.757387
vt 0.597317 0.242613
vt 0.618652 0.762926
vt 0.310990 0.999900
vt 0.762926 0.381347
vt 0.500000 0.500000
vt 0.381347 0.237074
vt 0.999900 0.274406
vt 0.725594 0.999900
vt 0.000100 0.310990
vt 0.689010 0.000100
vt 0.274406 0.000100
vt 0.237074 0.618653
vt 0.242613 0.402683
vt 0.999900 0.689010
vt 0.000100 0.725594
vt 0.757387 0.597317
vt 0.402683 0.757387
vt 0.597317 0.242613
vt 0.618652 0.762926
vt 0.310990 0.999900
vt 0.762926 0.381347
vt 0.500000 0.500000
vt 0.381347 0.237074
vt 0.999900 0.274406
vt 0.725594 0.999900
vt 0.000100 0.310990
vt 0.689010 0.000100
vt 0.274406 0.000100
vt 0.237074 0.618653
vt 0.242613 0.402683
vt 0.999900 0.689010
vt 0.000100 0.725594
vt 0.757387 0.597317
vt 0.402683 0.757387
vt 0.597317 0.242613
vt 0.618652 0.762926
vt 0.310990 0.999900
vt 0.762926 0.381347
vt 0.500000 0.500000
vt 0.381347 0.237074
vt 0.999900 0.274406
vt 0.725594 0.999900
vt 0.000100 0.310990
vt 0.689010 0.000100
vt 0.274406 0.000100
vt 0.237074 0.618653
vt 0.242613 0.402683
vt 0.999900 0.689010
vt 0.000100 0.725594
vt 0.757387 0.597317
vt 0.402683 0.757387
vt 0.597317 0.242613
vt 0.618652 0.762926
vt 0.310990 0.999900
vt 0.762926 0.381347
vt 0.500000 0.500000
vt 0.381347 0.237074
vt 0.999900 0.274406
vt 0.725594 0.999900
vt 0.000100 0.310990
vt 0.689010 0.000100
vt 0.274406 0.000100
vt 0.237074 0.618653
vt 0.242613 0.402683
vt 0.999900 0.689010
vt 0.000100 0.725594
vt 0.757387 0.597317
vt 0.402683 0.757387
vt 0.597317 0.242613
vt 0.618652 0.762926
vt 0.310990 0.999900
vt 0.762926 0.381347
vt 0.500000 0.500000
vt 0.381347 0.237074
vn 0.931200 0.319800 -0.174900
vn -0.778400 -0.234400 -0.582400
vn 0.594100 -0.451900 0.665400
vn 0.644700 0.702800 0.300900
vn 0.182700 -0.865300 0.466700
vn -0.637100 -0.715200 -0.287500
vn -0.281400 -0.953900 0.104000
vn 0.244200 0.961000 -0.129600
vn 0.779800 0.156300 0.606200
vn 0.388900 0.907600 -0.158100
vn -0.230200 0.861000 -0.453600
vn 0.094600 0.881500 0.462700
vn 0.151900 0.876600 -0.456700
vn 0.687100 0.640500 0.343100
vn 0.393200 0.891800 0.224000
vn -0.077600 0.997000 0.005200
vn -0.285300 0.837700 0.465600
vn 0.528000 0.800300 0.284000
vn 0.220200 0.780900 -0.584600
vn -0.680300 0.697300 0.225600
vn 0.163100 0.760900 0.628100
vn -0.337800 0.731300 0.592500
vn -0.526600 0.822500 -0.215000
vn -0.524500 0.834800 0.167200
vn 0.564100 0.796500 -0.217700
vn -0.645700 0.711900 -0.276100
vn -0.590200 0.438800 -0.677600
vn -0.441200 0.880700 -0.172400
vn 0.064500 0.457400 -0.886900
vn -0.671600 0.644400 -0.365600
vn -0.279400 0.733000 -0.620300
vn -0.296000 0.330000 -0.896400
vn -0.215600 0.765600 -0.606100
vn 0.301000 0.672000 -0.676600
vn -0.304700 0.161700 -0.938600
vn -0.784100 0.563000 -0.261200
vn 0.386000 0.887300 -0.252500
vn 0.183000 0.285200 -0.940800
vn 0.457100 0.598300 -0.658100
vn -0.074700 0.986500 -0.145800
vn 0.213500 0.899300 -0.381700
vn -0.708900 0.259900 -0.655600
vn -0.022200 0.999600 0.019300
vn 0.021800 0.877500 -0.479100
vn 0.151700 0.970000 0.189700
vn 0.624100 0.553800 -0.551200
vn -0.065800 0.990100 -0.124200
vn -0.505900 0.861900 0.032700
vn 0.285100 0.680900 -0.674600
vn 0.443900 0.871900 -0.206800
vn 0.829000 0.509100 -0.231400
vn 0.213500 0.573500 -0.790900
vn -0.234300 0.968100 -0.088400
vn 0.831300 0.495700 0.251500
vn 0.654300 0.369600 -0.659700
vn 0.907600 0.354300 -0.225300
vn 0.478100 0.818300 0.319000
vn 0.754000 0.646300 0.117600
vn -0.166200 0.810700 -0.561400
vn 0.459800 0.749000 0.477200
vn -0.487700 0.844700 -0.220700
vn -0.353100 0.818600 0.453000
vn 0.183300 0.917900 -0.351900
vn -0.581900 0.799800 0.147200
vn 0.010800 0.936800 0.349800
vn -0.183500 0.873600 -0.450700
vn -0.097200 0.993600 0.057800
vn 0.414800 0.908600 -0.047700
vn -0.201300 0.778200 -0.594800
vn -0.709700 0.684100 0.168200
vn 0.475900 0.776500 0.412900
vn 0.292600 0.812000 -0.505000
vn 0.562400 0.823000 -0.080500
vn 0.016400 0.834900 0.550200
vn 0.317800 0.891800 0.321800
vn -0.621500 0.712200 -0.326300
vn 0.053900 0.728800 0.682600
vn -0.038000 0.320000 -0.946700
vn -0.424900 0.722500 -0.545400
vn 0.528900 0.558300 -0.639200
vn -0.369900 0.453000 -0.811100
vn -0.438200 0.676700 0.591700
vn 0.338500 0.331100 -0.880800
vn 0.059500 0.732900 -0.677800
vn 0.472300 0.807100 -0.354300
vn 0.411900 0.174200 -0.894400
vn -0.492300 0.329900 -0.805500
vn 0.167200 0.985600 -0.025000
vn 0.694300 0.437200 -0.571700
vn 0.582600 0.781700 -0.222500
vn -0.236200 0.929100 -0.284600
vn 0.142000 0.960900 -0.237900
vn -0.078000 0.112500 -0.990600
vn -0.321600 0.937400 -0.133600
vn 0.090200 0.961400 -0.259900
vn -0.296900 0.904700 0.305500
vn 0.642000 0.760500 0.097700
vn -0.240100 0.968400 -0.067300
vn -0.605100 0.660900 -0.443900
vn 0.457300 0.861300 -0.221600
vn 0.197500 0.952800 0.230700
vn 0.579700 0.669900 0.464000
vn 0.516700 0.776300 -0.361000
vn -0.373300 0.913100 -0.164000
vn 0.260200 0.538300 0.801600
vn 0.787500 0.615500 0.031300
vn 0.672900 0.532100 0.514000
vn -0.117700 0.777000 0.618400
vn 0.254900 0.703800 0.663100
vn 0.035700 0.889300 -0.455900
vn -0.217200 0.668800 0.711000
vn -0.421700 0.754700 -0.502600
vn -0.739400 0.665700 0.100600
vn 0.140800 0.974600 -0.173900
vn -0.712200 0.643600 -0.280200
vn -0.491600 0.812100 0.314400
vn -0.058500 0.873000 -0.484100
vn -0.342500 0.938600 -0.041900
vn 0.123300 0.970300 0.208100
vn 0.041400 0.796200 -0.603700
vn -0.792900 0.503300 -0.343400
vn -0.089900 0.792400 0.603400
vn 0.343000 0.913600 -0.218500
vn 0.273500 0.920300 0.279800
vn -0.530400 0.740900 0.412000
vn -0.176900 0.885700 0.429300
vn -0.423300 0.614000 -0.666200
vn -0.560900 0.627500 0.540000
vn -0.433700 0.901100 0.000400
vn -0.227900 0.724100 0.651000
vn 0.305900 0.932600 -0.191700
vn -0.495800 0.790000 0.360700
vn -0.856100 0.492700 0.155600
vn -0.126800 0.953100 -0.274800
vn 0.028400 0.954500 0.296700
vn 0.568100 0.814600 0.117100
vn -0.177400 0.871900 -0.456400
vn -0.621900 0.675800 0.395700
vn 0.602500 0.570500 0.558100
vn 0.407800 0.822600 -0.396200
vn 0.717300 0.693800 0.064300
vn 0.166000 0.674200 0.719600
vn 0.468300 0.734000 0.491900
vn -0.611900 0.782600 -0.114000
vn 0.173900 0.550900 0.816300
vn -0.217700 0.731500 -0.646200
vn -0.715700 0.676000 -0.175400
vn 0.213100 0.963300 -0.163100
vn -0.567300 0.634200 -0.525400
vn -0.305000 0.580200 0.755200
vn 0.122700 0.847600 -0.516200
vn -0.287600 0.938000 -0.193700
vn 0.072700 0.978600 0.192300
vn 0.254000 0.764000 -0.593200
vn -0.626500 0.491500 -0.604900
vn -0.261300 0.822800 0.504700
vn 0.417300 0.898400 -0.136700
vn 0.190300 0.931100 0.311100
vn -0.617200 0.765200 0.183100
vn -0.284900 0.907800 0.307700
vn -0.169700 0.582600 -0.794900
vn -0.690200 0.658700 0.299400
vn -0.357400 0.852900 -0.380500
vn -0.288300 0.902800 0.319200
vn 0.405200 0.811000 -0.422000
vn -0.492700 0.869900 -0.023600
vn -0.848200 0.507000 -0.153500
vn -0.002200 0.806600 -0.591100
vn 0.045200 0.998400 -0.032800
vn 0.596700 0.801100 -0.046200
vn -0.024700 0.669500 -0.742400
vn -0.631300 0.775300 0.021200
vn 0.531200 0.719100 0.448000
vn 0.534200 0.637900 -0.554800
vn 0.743500 0.668300 -0.025900
vn 0.081500 0.875200 0.476900
vn 0.424100 0.852100 0.306700
vn -0.520000 0.704600 -0.482800
vn 0.062300 0.791400 0.608100
vn 0.494900 0.857400 -0.141000
vn -0.131200 0.896900 -0.422300
vn 0.212700 0.847800 0.485900
vn 0.249700 0.865400 -0.434400
vn -0.393700 0.803000 0.447400
vn 0.505200 0.828900 0.240200
vn 0.046600 0.998200 0.036400
vn -0.169600 0.851100 0.496900
vn 0.628900 0.719600 0.294200
vn 0.302900 0.766200 -0.566700
vn -0.583800 0.768200 0.262700
vn 0.269200 0.714400 0.645900
vn -0.232200 0.747900 0.621900
vn -0.425000 0.887600 -0.177700
vn -0.413400 0.887300 0.204600
vn 0.653700 0.727500 -0.208200
vn -0.558200 0.794500 -0.239100
vn 0.545300 0.529700 0.649600
vn 0.332200 0.933400 0.135500
vn -0.102000 0.474200 0.874500
vn 0.594100 0.733700 0.329800
vn -0.199300 0.781400 -0.591400
vn 0.271500 0.392600 0.878700
vn 0.131700 0.805400 0.577900
vn -0.367700 0.651300 0.663800
vn 0.301900 0.228100 0.925600
vn 0.713600 0.663400 0.225100
vn -0.487500 0.840600 0.235900
vn -0.197200 0.290600 0.936300
vn -0.513800 0.558300 0.651400
vn -0.045100 0.992300 0.114900
vn -0.315200 0.878000 0.360300
vn 0.684800 0.366200 0.630000
vn -0.102200 0.993600 -0.049100
vn -0.120300 0.883100 0.453500
vn -0.274600 0.937400 -0.214300
vn -0.676200 0.490100 0.550000
vn -0.054800 0.994100 0.093500
vn 0.394500 0.916200 -0.070400
vn -0.353100 0.661900 0.661200
vn -0.544000 0.816800 0.192100
vn -0.880600 0.410300 0.236800
vn -0.266300 0.568000 0.778800
vn 0.114400 0.992000 0.054200
vn -0.891400 0.381200 -0.245300
vn -0.681100 0.307300 0.664600
vn -0.939600 0.246900 0.237200
vn -0.582400 0.742500 -0.330900
vn -0.830500 0.544400 -0.117800
vn 0.076200 0.842600 0.533100
vn -0.558900 0.670900 -0.487400
vn 0.383800 0.905000 0.183700
vn 0.239400 0.840900 -0.485400
vn -0.288200 0.899200 0.329300
vn 0.475200 0.860300 -0.184900
vn -0.134000 0.916600 -0.376800
vn 0.083300 0.903600 0.420200
vn -0.027900 0.995600 -0.089400
vn -0.523100 0.851700 0.031300
vn 0.115700 0.815800 0.566600
vn 0.615900 0.760500 -0.205700
vn -0.577000 0.698300 -0.423600
vn -0.380300 0.785600 0.488000
vn -0.658200 0.749600 0.070200
vn -0.131200 0.808400 -0.573900
vn -0.432500 0.835100 -0.339900
vn 0.535200 0.793500 0.289800
vn -0.158000 0.694300 -0.702100
vn 0.017900 0.352500 0.935600
vn 0.343400 0.786500 0.513300
vn -0.580500 0.509200 0.635400
vn 0.327900 0.521000 0.788100
vn 0.338500 0.706200 -0.621900
vn -0.358400 0.315000 0.878800
vn -0.135700 0.741400 0.657200
vn -0.561100 0.753800 0.342100
vn -0.411500 0.150800 0.898800
vn 0.464400 0.413700 0.783100
vn -0.287500 0.957800 0.000200
vn -0.731000 0.366500 0.575600
vn -0.670100 0.710800 0.213800
vn 0.125200 0.959800 0.251300
vn -0.255000 0.943200 0.213000
vn 0.084200 0.153000 0.984600
vn 0.205700 0.973700 0.098100
vn -0.203100 0.950800 0.233700
vn 0.176100 0.924100 -0.339200
vn -0.733200 0.672100 -0.104100
vn 0.119600 0.992300 0.032900
vn 0.527800 0.744300 0.409200
vn -0.555700 0.805100 0.207500
vn -0.318800 0.913300 -0.253600
vn -0.667700 0.578100 -0.468900
vn -0.601200 0.718000 0.350800
vn 0.260700 0.956900 0.127900
vn -0.341500 0.476100 -0.810400
vn -0.858200 0.512500 -0.029800
vn -0.744200 0.428300 -0.512600
vn 0.007600 0.765300 -0.643600
vn -0.354000 0.645300 -0.677000
vn -0.136100 0.892300 0.430400
vn 0.117700 0.667300 -0.735500
vn 0.335300 0.816700 0.469700
vn 0.648900 0.748200 -0.138400
vn -0.256800 0.955000 0.148700
vn 0.632700 0.735100 0.243500
vn 0.380500 0.855900 -0.350200
vn -0.040000 0.888700 0.456700
vn 0.224400 0.974500 0.005900
vn -0.246900 0.940500 -0.233300
vn -0.127100 0.804000 0.580900
vn 0.731500 0.607900 0.308700
vn -0.021600 0.777600 -0.628400
vn -0.448900 0.870900 0.200000
vn -0.391100 0.870100 -0.299800
vn 0.425900 0.786900 -0.446600
vn 0.056800 0.886400 -0.459300
vn 0.357800 0.682500 0.637300
vn 0.467500 0.674100 -0.571900
vn 0.318600 0.947100 -0.037600
vn 0.122800 0.725300 -0.677400
vn -0.415000 0.893500 0.171800
vn 0.386500 0.833000 -0.395900
vn 0.785100 0.589200 -0.191100
vn 0.013500 0.969800 0.243500
vn -0.152600 0.933700 -0.323800
vn -0.667000 0.734200 -0.126800
vn 0.077600 0.901300 0.426100
vn 0.525000 0.734200 -0.430600
vn -0.680100 0.473700 -0.559600
vn -0.498200 0.778500 0.381900
vn -0.798900 0.597700 -0.066900
vn -0.263200 0.625200 -0.734800
vn -0.565800 0.654500 -0.501400
vn 0.512500 0.855300 0.075900
vn -0.257900 0.498700 -0.827500
vn 0.138900 0.773100 0.618900
vn 0.630000 0.764300 0.137800
vn -0.327300 0.934500 0.140000
vn 0.495200 0.715800 0.492400
vn 0.214900 0.588700 -0.779300
vn -0.215900 0.842200 0.494000
vn 0.173200 0.972000 0.158900
vn -0.197400 0.955500 -0.219100
vn -0.334200 0.745500 0.576600
vn 0.573300 0.584200 0.574500
vn 0.146700 0.832100 -0.534900
vn -0.522400 0.844100 0.120600
vn -0.310600 0.890100 -0.333500
vn 0.513700 0.829100 -0.220700
vn 0.163800 0.925600 -0.341100
vn 0.112800 0.624300 0.773000
vn 0.596900 0.728800 -0.335500
vn 0.256900 0.902200 0.346400
vn 0.167500 0.920700 -0.352600
vn -0.493600 0.768100 0.407900
vn 0.381500 0.924200 -0.014100
vn 0.781900 0.612200 0.117600
vn -0.085300 0.819300 0.567000
vn -0.167900 0.985800 0.004600
vn -0.690200 0.722600 0.037400
vn -0.042900 0.691000 0.721600
vn 0.529800 0.846000 -0.059500
vn -0.625400 0.633400 -0.455700
vn -0.597400 0.584700 0.548900
vn -0.819800 0.572100 0.024600
vn -0.199200 0.842700 -0.500200
vn -0.532700 0.783100 -0.321000
vn 0.438700 0.778500 0.448900
vn -0.172600 0.757700 -0.629400
vn -0.319700 0.947300 0.020100
vn -0.177200 0.732400 0.657400
vn 0.349600 0.926900 -0.136400
vn -0.412300 0.831400 0.372500
vn 0.281800 0.830600 -0.480400
vn -0.021000 0.975900 -0.217100
vn 0.098600 0.949400 0.298100
vn 0.581900 0.801100 0.140100
vn -0.060300 0.923800 -0.378100
vn -0.559600 0.739400 0.374400
vn 0.626800 0.551000 0.551000
vn 0.432700 0.843800 -0.317400
vn 0.709200 0.700700 0.077800
vn 0.190600 0.656600 0.729800
vn 0.492000 0.712000 0.501000
vn -0.479000 0.871600 -0.104300
vn 0.209800 0.516300 0.830300
vn 0.002900 0.544200 -0.838900
vn -0.289200 0.899400 -0.327800
vn 0.612200 0.592200 -0.524000
vn -0.293700 0.698100 -0.653000
vn -0.285000 0.578700 0.764100
vn 0.375900 0.469900 -0.798700
vn 0.184800 0.853400 -0.487400
vn 0.611500 0.769300 -0.185000
vn 0.417100 0.310500 -0.854100
vn -0.437400 0.601800 -0.668200
vn 0.354500 0.913900 0.197600
vn 0.752500 0.430100 -0.498700
vn 0.717800 0.692700 -0.071000
vn -0.058100 0.997500 -0.039400
vn 0.320100 0.947300 -0.012800
vn -0.077600 0.364800 -0.927900
vn -0.136800 0.983900 0.114900
vn -0.086600 0.894900 -0.437800
vn -0.575000 0.817200 0.039900
vn 0.392000 0.918300 0.055300
vn -0.445500 0.836300 -0.319500
vn -0.475600 0.848600 -0.231500
vn 0.272700 0.911500 -0.308000
vn -0.104700 0.993000 0.054500
vn 0.265400 0.871100 0.413100
vn 0.383500 0.826800 -0.411500
vn -0.533100 0.730900 -0.426200
vn -0.085100 0.707000 0.702100
vn 0.580200 0.812800 0.051300
vn 0.374300 0.775300 0.508800
vn -0.452800 0.796000 0.401600
vn -0.096400 0.840600 0.533000
vn -0.071800 0.780900 -0.620500
vn -0.542400 0.679400 0.494100
vn 0.252800 0.947300 -0.196600
vn -0.223800 0.732400 -0.643100
vn -0.212000 0.926900 0.309600
vn 0.130900 0.831400 -0.540000
vn -0.737200 0.675000 0.030300
vn 0.139700 0.975900 0.167600
vn -0.249400 0.949400 -0.190800
vn -0.559700 0.801100 0.211900
vn 0.262800 0.923800 0.278500
vn 0.251500 0.739400 -0.624600
vn -0.828200 0.551000 -0.102300
vn -0.178800 0.843800 0.506000
vn -0.629800 0.700700 0.335100
vn -0.568500 0.656600 -0.495700
vn -0.688700 0.712000 -0.136900
vn 0.454500 0.871600 -0.183700
vn -0.641000 0.516300 -0.567900
vn 0.470100 0.544200 0.694900
vn 0.423600 0.899400 0.108000
vn -0.210800 0.592200 0.777800
vn 0.610400 0.698100 0.374100
vn -0.194900 0.578700 -0.791900
vn 0.139200 0.469900 0.871700
vn 0.121800 0.853400 0.506800
vn -0.401000 0.769300 0.497300
vn 0.136400 0.310500 0.940700
vn 0.737800 0.601800 0.305800
vn -0.404200 0.913900 0.036400
vn -0.340900 0.430100 0.835900
vn -0.553100 0.692700 0.462900
vn 0.070200 0.997500 -0.000200
vn -0.257200 0.947300 0.190900
vn 0.586700 0.364800 0.723000
vn 0.048300 0.983900 -0.172000
vn 0.318200 0.894900 0.313000
vn 0.452700 0.817200 -0.356800
vn -0.355000 0.918300 0.175100
vn 0.548100 0.836300 0.013000
vn 0.523400 0.848600 -0.076600
vn -0.051900 0.911500 0.408100
vn 0.055900 0.993000 -0.104000
vn -0.452000 0.871100 -0.191800
vn -0.085100 0.826800 0.556100
vn 0.680500 0.730900 0.051900
vn -0.325100 0.707000 -0.628100
vn -0.508300 0.812800 0.284400
vn -0.595800 0.775300 -0.209600
vn 0.147900 0.796000 -0.586900
vn -0.220500 0.840600 -0.494700
vn 0.408800 0.780900 0.472300
vn 0.169900 0.679400 -0.713800
vn 0.378000 0.925800 0.010400
vn -0.186800 0.905400 -0.381200
vn -0.006700 0.821200 0.570600
vn 0.190600 0.927000 -0.322900
vn 0.592100 0.675000 -0.440200
vn 0.324300 0.864500 0.384100
vn -0.110700 0.987900 0.108400
vn -0.380900 0.771700 0.509300
vn 0.451400 0.768500 0.453400
vn 0.280700 0.848400 -0.448900
vn -0.729700 0.655100 0.196000
vn 0.039700 0.682700 0.729600
vn -0.448600 0.650100 0.613300
vn -0.514700 0.834300 -0.197700
vn -0.571500 0.800900 0.179000
vn 0.563800 0.825200 -0.033600
vn -0.619300 0.730000 -0.289000
vn 0.207000 0.845500 0.492100
vn 0.447500 0.881400 -0.151000
vn -0.437100 0.863300 0.252300
vn 0.483600 0.845100 0.228000
vn -0.205600 0.797500 -0.567200
vn -0.173500 0.831600 0.527500
vn 0.006000 0.998300 0.057900
vn -0.473300 0.871500 -0.128400
f 1/1/1 2/2/2 3/3/3
f 1/1/1 3/3/3 4/4/4
f 5/5/5 6/6/6 2/2/2
f 5/5/5 2/2/2 1/1/1
f 7/7/7 5/5/5 1/1/1
f 7/7/7 1/1/1 8/8/8
f 8/8/8 1/1/1 4/4/4
f 8/8/8 4/4/4 9/9/9
f 8/8/8 9/9/9 10/10/10
f 8/8/8 10/10/10 11/11/11
f 3/3/3 2/2/2 12/12/12
f 3/3/3 12/12/12 13/13/13
f 7/7/7 8/8/8 11/11/11
f 7/7/7 11/11/11 14/14/14
f 5/5/5 7/7/7 14/14/14
f 5/5/5 14/14/14 15/15/15
f 2/2/2 6/6/6 16/16/16
f 2/2/2 16/16/16 12/12/12
f 9/9/9 4/4/4 17/17/17
f 9/9/9 17/17/17 10/10/10
f 6/6/6 5/5/5 15/15/15
f 6/6/6 15/15/15 16/16/16
f 4/4/4 3/3/3 13/13/13
f 4/4/4 13/13/13 17/17/17
f 18/18/18 19/19/19 20/20/20
f 18/18/18 20/20/20 21/21/21
f 22/22/22 23/23/23 19/19/19
f 22/22/22 19/19/19 18/18/18
f 24/24/24 22/22/22 18/18/18
f 24/24/24 18/18/18 25/25/25
f 25/25/25 18/18/18 21/21/21
f 25/25/25 21/21/21 26/26/26
f 25/25/25 26/26/26 27/27/27
f 25/25/25 27/27/27 28/28/28
f 20/20/20 19/19/19 29/29/29
f 20/20/20 29/29/29 30/30/30
f 24/24/24 25/25/25 28/28/28
f 24/24/24 28/28/28 31/31/31
f 22/22/22 24/24/24 31/31/31
f 22/22/22 31/31/31 32/32/32
f 19/19/19 23/23/23 33/33/33
f 19/19/19 33/33/33 29/29/29
f 26/26/26 21/21/21 34/34/34
f 26/26/26 34/34/34 27/27/27
f 23/23/23 22/22/22 32/32/32
f 23/23/23 32/32/32 33/33/33
f 21/21/21 20/20/20 30/30/30
f 21/21/21 30/30/30 34/34/34
f 35/35/35 36/36/36 37/37/37
f 35/35/35 37/37/37 38/38/38
f 39/39/39 40/40/40 36/36/36
f 39/39/39 36/36/36 35/35/35
f 41/41/41 39/39/39 35/35/35
f 41/41/41 35/35/35 42/42/42
f 42/42/42 35/35/35 38/38/38
f 42/42/42 38/38/38 43/43/43
f 42/42/42 43/43/43 44/44/44
f 42/42/42 44/44/44 45/45/45
f 37/37/37 36/36/36 46/46/46
f 37/37/37 46/46/46 47/47/47
f 41/41/41 42/42/42 45/45/45
f 41/41/41 45/45/45 48/48/48
f 39/39/39 41/41/41 48/48/48
f 39/39/39 48/48/48 49/49/49
f 36/36/36 40/40/40 50/50/50
f 36/36/36 50/50/50 46/46/46
f 43/43/43 38/38/38 51/51/51
f 43/43/43 51/51/51 44/44/44
f 40/40/40 39/39/39 49/49/49
f 40/40/40 49/49/49 50/50/50
f 38/38/38 37/37/37 47/47/47
f 38/38/38 47/47/47 51/51/51
f 52/52/52 53/53/53 54/54/54
f 52/52/52 54/54/54 55/55/55
f 56/56/56 57/57/57 53/53/53
f 56/56/56 53/53/53 52/52/52
f 58/58/58 56/56/56 52/52/52
f 58/58/58 52/52/52 59/59/59
f 59/59/59 52/52/52 55/55/55
f 59/59/59 55/55/55 60/60/60
f 59/59/59 60/60/60 61/61/61
f 59/59/59 61/61/61 62/62/62
f 54/54/54 53/53/53 63/63/63
f 54/54/54 63/63/63 64/64/64
f 58/58/58 59/59/59 62/62/62
f 58/58/58 62/62/62 65/65/65
f 56/56/56 58/58/58 65/65/65
f 56/56/56 65/65/65 66/66/66
f 53/53/53 57/57/57 67/67/67
f 53/53/53 67/67/67 63/63/63
f 60/60/60 55/55/55 68/68/68
f 60/60/60 68/68/68 61/61/61
f 57/57/57 56/56/56 66/66/66
f 57/57/57 66/66/66 67/67/67
f 55/55/55 54/54/54 64/64/64
f 55/55/55 64/64/64 68/68/68
f 69/69/69 70/70/70 71/71/71
f 69/69/69 71/71/71 72/72/72
f 73/73/73 74/74/74 70/70/70
f 73/73/73 70/70/70 69/69/69
f 75/75/75 73/73/73 69/69/69
f 75/75/75 69/69/69 76/76/76
f 76/76/76 69/69/69 72/72/72
f 76/76/76 72/72/72 77/77/77
f 76/76/76 77/77/77 78/78/78
f 76/76/76 78/78/78 79/79/79
f 71/71/71 70/70/70 80/80/80
f 71/71/71 80/80/80 81/81/81
f 75/75/75 76/76/76 79/79/79
f 75/75/75 79/79/79 82/82/82
f 73/73/73 75/75/75 82/82/82
f 73/73/73 82/82/82 83/83/83
f 70/70/70 74/74/74 84/84/84
f 70/70/70 84/84/84 80/80/80
f 77/77/77 72/72/72 85/85/85
f 77/77/77 85/85/85 78/78/78
f 74/74/74 73/73/73 83/83/83
f 74/74/74 83/83/83 84/84/84
f 72/72/72 71/71/71 81/81/81
f 72/72/72 81/81/81 85/85/85
f 86/86/86 87/87/87 88/88/88
f 86/86/86 88/88/88 89/89/89
f 90/90/90 91/91/91 87/87/87
f 90/90/90 87/87/87 86/86/86
f 92/92/92 90/90/90 86/86/86
f 92/92/92 86/86/86 93/93/93
f 93/93/93 86/86/86 89/89/89
f 93/93/93 89/89/89 94/94/94
f 93/93/93 94/94/94 95/95/95
f 93/93/93 95/95/95 96/96/96
f 88/88/88 87/87/87 97/97/97
f 88/88/88 97/97/97 98/98/98
f 92/92/92 93/93/93 96/96/96
f 92/92/92 96/96/96 99/99/99
f 90/90/90 92/92/92 99/99/99
f 90/90/90 99/99/99 100/100/100
f 87/87/87 91/91/91 101/101/101
f 87/87/87 101/101/101 97/97/97
f 94/94/94 89/89/89 102/102/102
f 94/94/94 102/102/102 95/95/95
f 91/91/91 90/90/90 100/100/100
f 91/91/91 100/100/100 101/101/101
f 89/89/89 88/88/88 98/98/98
f 89/89/89 98/98/98 102/102/102
f 103/103/103 104/104/104 105/105/105
f 103/103/103 105/105/105 106/106/106
f 107/107/107 108/108/108 104/104/104
f 107/107/107 104/104/104 103/103/103
f 109/109/109 107/107/107 103/103/103
f 109/109/109 103/103/103 110/110/110
f 110/110/110 103/103/103 106/106/106
f 110/110/110 106/106/106 111/111/111
f 110/110/110 111/111/111 112/112/112
f 110/110/110 112/112/112 113/113/113
f 105/105/105 104/104/104 114/114/114
f 105/105/105 114/114/114 115/115/115
f 109/109/109 110/110/110 113/113/113
f 109/109/109 113/113/113 116/116/116
f 107/107/107 109/109/109 116/116/116
f 107/107/107 116/116/116 117/117/117
f 104/104/104 108/108/108 118/118/118
f 104/104/104 118/118/118 114/114/114
f 111/111/111 106/106/106 119/119/119
f 111/111/111 119/119/119 112/112/112
f 108/108/108 107/107/107 117/117/117
f 108/108/108 117/117/117 118/118/118
f 106/106/106 105/105/105 115/115/115
f 106/106/106 115/115/115 119/119/119
f 120/120/120 121/121/121 122/122/122
f 120/120/120 122/122/122 123/123/123
f 124/124/124 125/125/125 121/121/121
f 124/124/124 121/121/121 120/120/120
f 126/126/126 124/124/124 120/120/120
f 126/126/126 120/120/120 127/127/127
f 127/127/127 120/120/120 123/123/123
f 127/127/127 123/123/123 128/128/128
f 127/127/127 128/128/128 129/129/129
f 127/127/127 129/129/129 130/130/130
f 122/122/122 121/121/121 131/131/131
f 122/122/122 131/131/131 132/132/132
f 126/126/126 127/127/127 130/130/130
f 126/126/126 130/130/130 133/133/133
f 124/124/124 126/126/126 133/133/133
f 124/124/124 133/133/133 134/134/134
f 121/121/121 125/125/125 135/135/135
f 121/121/121 135/135/135 131/131/131
f 128/128/128 123/123/123 136/136/136
f 128/128/128 136/136/136 129/129/129
f 125/125/125 124/124/124 134/134/134
f 125/125/125 134/134/134 135/135/135
f 123/123/123 122/122/122 132/132/132
f 123/123/123 132/132/132 136/136/136
f 137/137/137 138/138/138 139/139/139
f 137/137/137 139/139/139 140/140/140
f 141/141/141 142/142/142 138/138/138
f 141/141/141 138/138/138 137/137/137
f 143/143/143 141/141/141 137/137/137
f 143/143/143 137/137/137 144/144/144
f 144/144/144 137/137/137 140/140/140
f 144/144/144 140/140/140 145/145/145
f 144/144/144 145/145/145 146/146/146
f 144/144/144 146/146/146 147/147/147
f 139/139/139 138/138/138 148/148/148
f 139/139/139 148/148/148 149/149/149
f 143/143/143 144/144/144 147/147/147
f 143/143/143 147/147/147 150/150/150
f 141/141/141 143/143/143 150/150/150
f 141/141/141 150/150/150 151/151/151
f 138/138/138 142/142/142 152/152/152
f 138/138/138 152/152/152 148/148/148
f 145/145/145 140/140/140 153/153/153
f 145/145/145 153/153/153 146/146/146
f 142/142/142 141/141/141 151/151/151
f 142/142/142 151/151/151 152/152/152
f 140/140/140 139/139/139 149/149/149
f 140/140/140 149/149/149 153/153/153
f 154/154/154 155/155/155 156/156/156
f 154/154/154 156/156/156 157/157/157
f 158/158/158 159/159/159 155/155/155
f 158/158/158 155/155/155 154/154/154
f 160/160/160 158/158/158 154/154/154
f 160/160/160 154/154/154 161/161/161
f 161/161/161 154/154/154 157/157/157
f 161/161/161 157/157/157 162/162/162
f 161/161/161 162/162/162 163/163/163
f 161/161/161 163/163/163 164/164/164
f 156/156/156 155/155/155 165/165/165
f 156/156/156 165/165/165 166/166/166
f 160/160/160 161/161/161 164/164/164
f 160/160/160 164/164/164 167/167/167
f 158/158/158 160/160/160 167/167/167
f 158/158/158 167/167/167 168/168/168
f 155/155/155 159/159/159 169/169/169
f 155/155/155 169/169/169 165/165/165
f 162/162/162 157/157/157 170/170/170
f 162/162/162 170/170/170 163/163/163
f 159/159/159 158/158/158 168/168/168
f 159/159/159 168/168/168 169/169/169
f 157/157/157 156/156/156 166/166/166
f 157/157/157 166/166/166 170/170/170
f 171/171/171 172/172/172 173/173/173
f 171/171/171 173/173/173 174/174/174
f 175/175/175 176/176/176 172/172/172
f 175/175/175 172/172/172 171/171/171
f 177/177/177 175/175/175 171/171/171
f 177/177/177 171/171/171 178/178/178
f 178/178/178 171/171/171 174/174/174
f 178/178/178 174/174/174 179/179/179
f 178/178/178 179/179/179 180/180/180
f 178/178/178 180/180/180 181/181/181
f 173/173/173 172/172/172 182/182/182
f 173/173/173 182/182/182 183/183/183
f 177/177/177 178/178/178 181/181/181
f 177/177/177 181/181/181 184/184/184
f 175/175/175 177/177/177 184/184/184
f 175/175/175 184/184/184 185/185/185
f 172/172/172 176/176/176 186/186/186
f 172/172/172 186/186/186 182/182/182
f 179/179/179 174/174/174 187/187/187
f 179/179/179 187/187/187 180/180/180
f 176/176/176 175/175/175 185/185/185
f 176/176/176 185/185/185 186/186/186
f 174/174/174 173/173/173 183/183/183
f 174/174/174 183/183/183 187/187/187
f 188/188/188 189/189/189 190/190/190
f 188/188/188 190/190/190 191/191/191
f 192/192/192 193/193/193 189/189/189
f 192/192/192 189/189/189 188/188/188
f 194/194/194 192/192/192 188/188/188
f 194/194/194 188/188/188 195/195/195
f 195/195/195 188/188/188 191/191/191
f 195/195/195 191/191/191 196/196/196
f 195/195/195 196/196/196 197/197/197
f 195/195/195 197/197/197 198/198/198
f 190/190/190 189/189/189 199/199/199
f 190/190/190 199/199/199 200/200/200
f 194/194/194 195/195/195 198/198/198
f 194/194/194 198/198/198 201/201/201
f 192/192/192 194/194/194 201/201/201
f 192/192/192 201/201/201 202/202/202
f 189/189/189 193/193/193 203/203/203
f 189/189/189 203/203/203 199/199/199
f 196/196/196 191/191/191 204/204/204
f 196/196/196 204/204/204 197/197/197
f 193/193/193 192/192/192 202/202/202
f 193/193/193 202/202/202 203/203/203
f 191/191/191 190/190/190 200/200/200
f 191/191/191 200/200/200 204/204/204
f 205/205/205 206/206/206 207/207/207
f 205/205/205 207/207/207 208/208/208
f 209/209/209 210/210/210 206/206/206
f 209/209/209 206/206/206 205/205/205
f 211/211/211 209/209/209 205/205/205
f 211/211/211 205/205/205 212/212/212
f 212/212/212 205/205/205 208/208/208
f 212/212/212 208/208/208 213/213/213
f 212/212/212 213/213/213 214/214/214
f 212/212/212 214/214/214 215/215/215
f 207/207/207 206/206/206 216/216/216
f 207/207/207 216/216/216 217/217/217
f 211/211/211 212/212/212 215/215/215
f 211/211/211 215/215/215 218/218/218
f 209/209/209 211/211/211 218/218/218
f 209/209/209 218/218/218 219/219/219
f 206/206/206 210/210/210 220/220/220
f 206/206/206 220/220/220 216/216/216
f 213/213/213 208/208/208 221/221/221
f 213/213/213 221/221/221 214/214/214
f 210/210/210 209/209/209 219/219/219
f 210/210/210 219/219/219 220/220/220
f 208/208/208 207/207/207 217/217/217
f 208/208/208 217/217/217 221/221/221
f 222/222/222 223/223/223 224/224/224
f 222/222/222 224/224/224 225/225/225
f 226/226/226 227/227/227 223/223/223
f 226/226/226 223/223/223 222/222/222
f 228/228/228 226/226/226 222/222/222
f 228/228/228 222/222/222 229/229/229
f 229/229/229 222/222/222 225/225/225
f 229/229/229 225/225/225 230/230/230
f 229/229/229 230/230/230 231/231/231
f 229/229/229 231/231/231 232/232/232
f 224/224/224 223/223/223 233/233/233
f 224/224/224 233/233/233 234/234/234
f 228/228/228 229/229/229 232/232/232
f 228/228/228 232/232/232 235/235/235
f 226/226/226 228/228/228 235/235/235
f 226/226/226 235/235/235 236/236/236
f 223/223/223 227/227/227 237/237/237
f 223/223/223 237/237/237 233/233/233
f 230/230/230 225/225/225 238/238/238
f 230/230/230 238/238/238 231/231/231
f 227/227/227 226/226/226 236/236/236
f 227/227/227 236/236/236 237/237/237
f 225/225/225 224/224/224 234/234/234
f 225/225/225 234/234/234 238/238/238
f 239/239/239 240/240/240 241/241/241
f 239/239/239 241/241/241 242/242/242
f 243/243/243 244/244/244 240/240/240
f 243/243/243 240/240/240 239/239/239
f 245/245/245 243/243/243 239/239/239
f 245/245/245 239/239/239 246/246/246
f 246/246/246 239/239/239 242/242/242
f 246/246/246 242/242/242 247/247/247
f 246/246/246 247/247/247 248/248/248
f 246/246/246 248/248/248 249/249/249
f 241/241/241 240/240/240 250/250/250
f 241/241/241 250/250/250 251/251/251
f 245/245/245 246/246/246 249/249/249
f 245/245/245 249/249/249 252/252/252
f 243/243/243 245/245/245 252/252/252
f 243/243/243 252/252/252 253/253/253
f 240/240/240 244/244/244 254/254/254
f 240/240/240 254/254/254 250/250/250
f 247/247/247 242/242/242 255/255/255
f 247/247/247 255/255/255 248/248/248
f 244/244/244 243/243/243 253/253/253
f 244/244/244 253/253/253 254/254/254
f 242/242/242 241/241/241 251/251/251
f 242/242/242 251/251/251 255/255/255
f 256/256/256 257/257/257 258/258/258
f 256/256/256 258/258/258 259/259/259
f 260/260/260 261/261/261 257/257/257
f 260/260/260 257/257/257 256/256/256
f 262/262/262 260/260/260 256/256/256
f 262/262/262 256/256/256 263/263/263
f 263/263/263 256/256/256 259/259/259
f 263/263/263 259/259/259 264/264/264
f 263/263/263 264/264/264 265/265/265
f 263/263/263 265/265/265 266/266/266
f 258/258/258 257/257/257 267/267/267
f 258/258/258 267/267/267 268/268/268
f 262/262/262 263/263/263 266/266/266
f 262/262/262 266/266/266 269/269/269
f 260/260/260 262/262/262 269/269/269
f 260/260/260 269/269/269 270/270/270
f 257/257/257 261/261/261 271/271/271
f 257/257/257 271/271/271 267/267/267
f 264/264/264 259/259/259 272/272/272
f 264/264/264 272/272/272 265/265/265
f 261/261/261 260/260/260 270/270/270
f 261/261/261 270/270/270 271/271/271
f 259/259/259 258/258/258 268/268/268
f 259/259/259 268/268/268 272/272/272
f 273/273/273 274/274/274 275/275/275
f 273/273/273 275/275/275 276/276/276
f 277/277/277 278/278/278 274/274/274
f 277/277/277 274/274/274 273/273/273
f 279/279/279 277/277/277 273/273/273
f 279/279/279 273/273/273 280/280/280
f 280/280/280 273/273/273 276/276/276
f 280/280/280 276/276/276 281/281/281
f 280/280/280 281/281/281 282/282/282
f 280/280/280 282/282/282 283/283/283
f 275/275/275 274/274/274 284/284/284
f 275/275/275 284/284/284 285/285/285
f 279/279/279 280/280/280 283/283/283
f 279/279/279 283/283/283 286/286/286
f 277/277/277 279/279/279 286/286/286
f 277/277/277 286/286/286 287/287/287
f 274/274/274 278/278/278 288/288/288
f 274/274/274 288/288/288 284/284/284
f 281/281/281 276/276/276 289/289/289
f 281/281/281 289/289/289 282/282/282
f 278/278/278 277/277/277 287/287/287
f 278/278/278 287/287/287 288/288/288
f 276/276/276 275/275/275 285/285/285
f 276/276/276 285/285/285 289/289/289
f 290/290/290 291/291/291 292/292/292
f 290/290/290 292/292/292 293/293/293
f 294/294/294 295/295/295 291/291/291
f 294/294/294 291/291/291 290/290/290
f 296/296/296 294/294/294 290/290/290
f 296/296/296 290/290/290 297/297/297
f 297/297/297 290/290/290 293/293/293
f 297/297/297 293/293/293 298/298/298
f 297/297/297 298/298/298 299/299/299
f 297/297/297 299/299/299 300/300/300
f 292/292/292 291/291/291 301/301/301
f 292/292/292 301/301/301 302/302/302
f 296/296/296 297/297/297 300/300/300
f 296/296/296 300/300/300 303/303/303
f 294/294/294 296/296/296 303/303/303
f 294/294/294 303/303/303 304/304/304
f 291/291/291 295/295/295 305/305/305
f 291/291/291 305/305/305 301/301/301
f 298/298/298 293/293/293 306/306/306
f 298/298/298 306/306/306 299/299/299
f 295/295/295 294/294/294 304/304/304
f 295/295/295 304/304/304 305/305/305
f 293/293/293 292/292/292 302/302/302
f 293/293/293 302/302/302 306/306/306
f 307/307/307 308/308/308 309/309/309
f 307/307/307 309/309/309 310/310/310
f 311/311/311 312/312/312 308/308/308
f 311/311/311 308/308/308 307/307/307
f 313/313/313 311/311/311 307/307/307
f 313/313/313 307/307/307 314/314/314
f 314/314/314 307/307/307 310/310/310
f 314/314/314 310/310/310 315/315/315
f 314/314/314 315/315/315 316/316/316
f 314/314/314 316/316/316 317/317/317
f 309/309/309 308/308/308 318/318/318
f 309/309/309 318/318/318 319/319/319
f 313/313/313 314/314/314 317/317/317
f 313/313/313 317/317/317 320/320/320
f 311/311/311 313/313/313 320/320/320
f 311/311/311 320/320/320 321/321/321
f 308/308/308 312/312/312 322/322/322
f 308/308/308 322/322/322 318/318/318
f 315/315/315 310/310/310 323/323/323
f 315/315/315 323/323/323 316/316/316
f 312/312/312 311/311/311 321/321/321
f 312/312/312 321/321/321 322/322/322
f 310/310/310 309/309/309 319/319/319
f 310/310/310 319/319/319 323/323/323
f 324/324/324 325/325/325 326/326/326
f 324/324/324 326/326/326 327/327/327
f 328/328/328 329/329/329 325/325/325
f 328/328/328 325/325/325 324/324/324
f 330/330/330 328/328/328 324/324/324
f 330/330/330 324/324/324 331/331/331
f 331/331/331 324/324/324 327/327/327
f 331/331/331 327/327/327 332/332/332
f 331/331/331 332/332/332 333/333/333
f 331/331/331 333/333/333 334/334/334
f 326/326/326 325/325/325 335/335/335
f 326/326/326 335/335/335 336/336/336
f 330/330/330 331/331/331 334/334/334
f 330/330/330 334/334/334 337/337/337
f 328/328/328 330/330/330 337/337/337
f 328/328/328 337/337/337 338/338/338
f 325/325/325 329/329/329 339/339/339
f 325/325/325 339/339/339 335/335/335
f 332/332/332 327/327/327 340/340/340
f 332/332/332 340/340/340 333/333/333
f 329/329/329 328/328/328 338/338/338
f 329/329/329 338/338/338 339/339/339
f 327/327/327 326/326/326 336/336/336
f 327/327/327 336/336/336 340/340/340
f 341/341/341 342/342/342 343/343/343
f 341/341/341 343/343/343 344/344/344
f 345/345/345 346/346/346 342/342/342
f 345/345/345 342/342/342 341/341/341
f 347/347/347 345/345/345 341/341/341
f 347/347/347 341/341/341 348/348/348
f 348/348/348 341/341/341 344/344/344
f 348/348/348 344/344/344 349/349/349
f 348/348/348 349/349/349 350/350/350
f 348/348/348 350/350/350 351/351/351
f 343/343/343 342/342/342 352/352/352
f 343/343/343 352/352/352 353/353/353
f 347/347/347 348/348/348 351/351/351
f 347/347/347 351/351/351 354/354/354
f 345/345/345 347/347/347 354/354/354
f 345/345/345 354/354/354 355/355/355
f 342/342/342 346/346/346 356/356/356
f 342/342/342 356/356/356 352/352/352
f 349/349/349 344/344/344 357/357/357
f 349/349/349 357/357/357 350/350/350
f 346/346/346 345/345/345 355/355/355
f 346/346/346 355/355/355 356/356/356
f 344/344/344 343/343/343 353/353/353
f 344/344/344 353/353/353 357/357/357
f 358/358/358 359/359/359 360/360/360
f 358/358/358 360/360/360 361/361/361
f 362/362/362 363/363/363 359/359/359
f 362/362/362 359/359/359 358/358/358
f 364/364/364 362/362/362 358/358/358
f 364/364/364 358/358/358 365/365/365
f 365/365/365 358/358/358 361/361/361
f 365/365/365 361/361/361 366/366/366
f 365/365/365 366/366/366 367/367/367
f 365/365/365 367/367/367 368/368/368
f 360/360/360 359/359/359 369/369/369
f 360/360/360 369/369/369 370/370/370
f 364/364/364 365/365/365 368/368/368
f 364/364/364 368/368/368 371/371/371
f 362/362/362 364/364/364 371/371/371
f 362/362/362 371/371/371 372/372/372
f 359/359/359 363/363/363 373/373/373
f 359/359/359 373/373/373 369/369/369
f 366/366/366 361/361/361 374/374/374
f 366/366/366 374/374/374 367/367/367
f 363/363/363 362/362/362 372/372/372
f 363/363/363 372/372/372 373/373/373
f 361/361/361 360/360/360 370/370/370
f 361/361/361 370/370/370 374/374/374
f 375/375/375 376/376/376 377/377/377
f 375/375/375 377/377/377 378/378/378
f 379/379/379 380/380/380 376/376/376
f 379/379/379 376/376/376 375/375/375
f 381/381/381 379/379/379 375/375/375
f 381/381/381 375/375/375 382/382/382
f 382/382/382 375/375/375 378/378/378
f 382/382/382 378/378/378 383/383/383
f 382/382/382 383/383/383 384/384/384
f 382/382/382 384/384/384 385/385/385
f 377/377/377 376/376/376 386/386/386
f 377/377/377 386/386/386 387/387/387
f 381/381/381 382/382/382 385/385/385
f 381/381/381 385/385/385 388/388/388
f 379/379/379 381/381/381 388/388/388
f 379/379/379 388/388/388 389/389/389
f 376/376/376 380/380/380 390/390/390
f 376/376/376 390/390/390 386/386/386
f 383/383/383 378/378/378 391/391/391
f 383/383/383 391/391/391 384/384/384
f 380/380/380 379/379/379 389/389/389
f 380/380/380 389/389/389 390/390/390
f 378/378/378 377/377/377 387/387/387
f 378/378/378 387/387/387 391/391/391
f 392/392/392 393/393/393 394/394/394
f 392/392/392 394/394/394 395/395/395
f 396/396/396 397/397/397 393/393/393
f 396/396/396 393/393/393 392/392/392
f 398/398/398 396/396/396 392/392/392
f 398/398/398 392/392/392 399/399/399
f 399/399/399 392/392/392 395/395/395
f 399/399/399 395/395/395 400/400/400
f 399/399/399 400/400/400 401/401/401
f 399/399/399 401/401/401 402/402/402
f 394/394/394 393/393/393 403/403/403
f 394/394/394 403/403/403 404/404/404
f 398/398/398 399/399/399 402/402/402
f 398/398/398 402/402/402 405/405/405
f 396/396/396 398/398/398 405/405/405
f 396/396/396 405/405/405 406/406/406
f 393/393/393 397/397/397 407/407/407
f 393/393/393 407/407/407 403/403/403
f 400/400/400 395/395/395 408/408/408
f 400/400/400 408/408/408 401/401/401
f 397/397/397 396/396/396 406/406/406
f 397/397/397 406/406/406 407/407/407
f 395/395/395 394/394/394 404/404/404
f 395/395/395 404/404/404 408/408/408
f 409/409/409 410/410/410 411/411/411
f 409/409/409 411/411/411 412/412/412
f 413/413/413 414/414/414 410/410/410
f 413/413/413 410/410/410 409/409/409
f 415/415/415 413/413/413 409/409/409
f 415/415/415 409/409/409 416/416/416
f 416/416/416 409/409/409 412/412/412
f 416/416/416 412/412/412 417/417/417
f 416/416/416 417/417/417 418/418/418
f 416/416/416 418/418/418 419/419/419
f 411/411/411 410/410/410 420/420/420
f 411/411/411 420/420/420 421/421/421
f 415/415/415 416/416/416 419/419/419
f 415/415/415 419/419/419 422/422/422
f 413/413/413 415/415/415 422/422/422
f 413/413/413 422/422/422 423/423/423
f 410/410/410 414/414/414 424/424/424
f 410/410/410 424/424/424 420/420/420
f 417/417/417 412/412/412 425/425/425
f 417/417/417 425/425/425 418/418/418
f 414/414/414 413/413/413 423/423/423
f 414/414/414 423/423/423 424/424/424
f 412/412/412 411/411/411 421/421/421
f 412/412/412 421/421/421 425/425/425
f 426/426/426 427/427/427 428/428/428
f 426/426/426 428/428/428 429/429/429
f 430/430/430 431/431/431 427/427/427
f 430/430/430 427/427/427 426/426/426
f 432/432/432 430/430/430 426/426/426
f 432/432/432 426/426/426 433/433/433
f 433/433/433 426/426/426 429/429/429
f 433/433/433 429/429/429 434/434/434
f 433/433/433 434/434/434 435/435/435
f 433/433/433 435/435/435 436/436/436
f 428/428/428 427/427/427 437/437/437
f 428/428/428 437/437/437 438/438/438
f 432/432/432 433/433/433 436/436/436
f 432/432/432 436/436/436 439/439/439
f 430/430/430 432/432/432 439/439/439
f 430/430/430 439/439/439 440/440/440
f 427/427/427 431/431/431 441/441/441
f 427/427/427 441/441/441 437/437/437
f 434/434/434 429/429/429 442/442/442
f 434/434/434 442/442/442 435/435/435
f 431/431/431 430/430/430 440/440/440
f 431/431/431 440/440/440 441/441/441
f 429/429/429 428/428/428 438/438/438
f 429/429/429 438/438/438 442/442/442
f 443/443/443 444/444/444 445/445/445
f 443/443/443 445/445/445 446/446/446
f 447/447/447 448/448/448 444/444/444
f 447/447/447 444/444/444 443/443/443
f 449/449/449 447/447/447 443/443/443
f 449/449/449 443/443/443 450/450/450
f 450/450/450 443/443/443 446/446/446
f 450/450/450 446/446/446 451/451/451
f 450/450/450 451/451/451 452/452/452
f 450/450/450 452/452/452 453/453/453
f 445/445/445 444/444/444 454/454/454
f 445/445/445 454/454/454 455/455/455
f 449/449/449 450/450/450 453/453/453
f 449/449/449 453/453/453 456/456/456
f 447/447/447 449/449/449 456/456/456
f 447/447/447 456/456/456 457/457/457
f 444/444/444 448/448/448 458/458/458
f 444/444/444 458/458/458 454/454/454
f 451/451/451 446/446/446 459/459/459
f 451/451/451 459/459/459 452/452/452
f 448/448/448 447/447/447 457/457/457
f 448/448/448 457/457/457 458/458/458
f 446/446/446 445/445/445 455/455/455
f 446/446/446 455/455/455 459/459/459
f 460/460/460 461/461/461 462/462/462
f 460/460/460 462/462/462 463/463/463
f 464/464/464 465/465/465 461/461/461
f 464/464/464 461/461/461 460/460/460
f 466/466/466 464/464/464 460/460/460
f 466/466/466 460/460/460 467/467/467
f 467/467/467 460/460/460 463/463/463
f 467/467/467 463/463/463 468/468/468
f 467/467/467 468/468/468 469/469/469
f 467/467/467 469/469/469 470/470/470
f 462/462/462 461/461/461 471/471/471
f 462/462/462 471/471/471 472/472/472
f 466/466/466 467/467/467 470/470/470
f 466/466/466 470/470/470 473/473/473
f 464/464/464 466/466/466 473/473/473
f 464/464/464 473/473/473 474/474/474
f 461/461/461 465/465/465 475/475/475
f 461/461/461 475/475/475 471/471/471
f 468/468/468 463/463/463 476/476/476
f 468/468/468 476/476/476 469/469/469
f 465/465/465 464/464/464 474/474/474
f 465/465/465 474/474/474 475/475/475
f 463/463/463 462/462/462 472/472/472
f 463/463/463 472/472/472 476/476/476
