# Blender v2.79 (sub 0) OBJ File: 'Tree_1.blend'
# www.blender.org
mtllib Tree_1.mtl
o Tree_1_Cylinder.037
v 0.244491 0.011173 0.070228
v 0.303860 0.011173 -0.115005
v 0.088935 0.011173 0.186673
v -0.104777 0.011173 0.186673
v -0.260334 0.011173 0.070228
v -0.319702 0.011173 -0.115005
v -0.260477 0.011173 -0.299608
v -0.104365 0.011173 -0.413864
v 0.088523 0.011173 -0.413864
v 0.244635 0.011173 -0.299608
v -0.117241 1.579827 0.100972
v -0.087189 1.638720 -0.022366
v -0.214627 1.520034 0.178690
v -0.346536 1.496653 0.178690
v -0.458540 1.519331 0.100972
v -0.507003 1.564306 -0.022366
v -0.474169 1.613542 -0.146061
v -0.372429 1.650792 -0.222130
v -0.243291 1.673683 -0.222130
v -0.134946 1.673671 -0.146061
v -0.474133 4.056846 0.083784
v -0.450183 4.052871 0.021256
v -0.525748 4.040475 0.122867
v -0.587711 4.015261 0.122867
v -0.636092 3.990940 0.083784
v -0.650461 3.971371 0.021256
v -0.624602 3.959696 -0.041375
v -0.566693 3.960749 -0.081779
v -0.502733 3.986777 -0.081779
v -0.460542 4.026457 -0.041375
v -0.980841 5.171522 0.049278
v -0.974358 5.179237 0.021300
v -1.001706 5.159913 0.066317
v -1.028627 5.148958 0.066317
v -1.051670 5.142700 0.049278
v -1.061698 5.143695 0.021300
v -1.054491 5.151530 -0.006229
v -1.033771 5.162798 -0.022504
v -1.007689 5.173412 -0.022504
v -0.984987 5.179812 -0.006229
v -0.924188 5.066749 0.032718
v -0.830155 4.861383 0.015484
v -0.814619 4.861036 -0.029019
v -0.913863 5.073951 -0.004989
v -0.952771 5.052649 0.055563
v -0.866088 4.849924 0.043221
v -0.988762 5.038004 0.055563
v -0.909264 4.832353 0.043221
v -1.019069 5.028138 0.032718
v -0.942989 4.815467 0.015484
v -1.031489 5.026084 -0.004989
v -0.953868 4.804370 -0.029019
v -1.020775 5.032135 -0.042578
v -0.938199 4.802348 -0.073483
v -0.991629 5.044450 -0.065765
v -0.901080 4.810469 -0.102179
v -0.955221 5.059266 -0.065765
v -0.856666 4.828542 -0.102179
v -0.925758 5.070801 -0.042578
v -0.824424 4.848646 -0.073483
v -0.262880 3.628525 0.151781
v -0.117924 2.999224 0.173871
v -0.083407 2.986909 0.069227
v -0.231466 3.628520 0.064255
v -0.334461 3.604885 0.205852
v -0.207390 3.007336 0.238523
v -0.420371 3.569926 0.205852
v -0.318394 3.012658 0.238523
v -0.488119 3.536868 0.151781
v -0.408225 3.013145 0.173871
v -0.510604 3.514930 0.064255
v -0.443761 3.004189 0.069227
v -0.479635 3.513194 -0.023675
v -0.410968 2.990440 -0.036714
v -0.403740 3.526796 -0.078924
v -0.321452 2.969007 -0.103235
v -0.316251 3.562399 -0.078924
v -0.208521 2.963592 -0.103234
v -0.252423 3.605653 -0.023675
v -0.117366 2.976362 -0.036714
v 0.422751 4.053255 1.058955
v 0.454076 4.043282 1.081269
v 0.494580 4.046524 1.084796
v 0.527746 4.061243 1.067022
v 0.540469 4.076593 1.033688
v 0.528390 4.089774 0.999183
v 0.495990 4.094375 0.975965
v 0.455863 4.090017 0.973153
v 0.411427 4.065781 1.024312
v 0.424042 4.079925 0.991964
v -0.412241 2.992345 0.149067
v -0.353138 2.947824 0.208503
v -0.262716 2.921604 0.222198
v -0.175453 2.923683 0.184930
v -0.124941 2.953275 0.111010
v -0.129947 2.999119 0.028405
v -0.188520 3.044009 -0.031919
v -0.279329 3.070342 -0.045673
v -0.417257 3.038040 0.066738
v -0.366600 3.067743 -0.007438
v -1.621421 4.271787 0.307694
v -1.650999 4.251778 0.325191
v -1.661702 4.234766 0.359300
v -1.649245 4.227559 0.396371
v -1.618017 4.227955 0.419949
v -1.580645 4.238160 0.422512
v -1.550942 4.253835 0.403172
v -1.540422 4.270557 0.369645
v -1.583867 4.282239 0.311110
v -1.553133 4.281890 0.334831
v -0.236876 3.022033 -0.087081
v -0.320288 2.977006 -0.082313
v -0.389705 2.949134 -0.023526
v -0.418654 2.949047 0.066861
v -0.395970 2.976793 0.154079
v -0.330456 3.021801 0.205387
v -0.246721 3.067178 0.201607
v -0.177008 3.095169 0.142570
v -0.171564 3.066896 -0.035965
v -0.148780 3.094746 0.051531
v -0.467131 3.954040 -0.053308
v -0.443726 3.932714 -0.011072
v -0.501149 3.990978 -0.068814
v -0.529381 4.032341 -0.052576
v -0.540924 4.062156 -0.010864
v -0.534977 4.066412 0.041414
v -0.516448 4.041973 0.085995
v -0.491301 3.996913 0.106630
v -0.462159 3.954215 0.089868
v -0.441700 3.932455 0.043001
v 0.343541 5.151650 -0.430358
v 0.360423 5.150981 -0.414164
v 0.321707 5.158106 -0.434159
v 0.303344 5.167761 -0.424525
v 0.295231 5.177048 -0.405010
v 0.300850 5.182299 -0.382907
v 0.317977 5.181295 -0.367248
v 0.339297 5.174764 -0.363867
v 0.357087 5.165411 -0.373201
v 0.365385 5.156369 -0.392121
v 0.302255 4.798602 -0.344948
v 0.042283 4.394687 -0.222437
v 0.060367 4.381186 -0.192995
v 0.324061 4.795078 -0.322793
v 0.273469 4.808396 -0.350225
v 0.018374 4.420408 -0.233584
v 0.248921 4.821302 -0.337346
v -0.001297 4.449229 -0.222270
v 0.237536 4.832626 -0.310990
v -0.009128 4.470011 -0.192868
v 0.243830 4.837257 -0.280698
v -0.003079 4.474144 -0.156501
v 0.265169 4.832898 -0.258460
v 0.013872 4.460182 -0.126553
v 0.293394 4.821811 -0.252671
v 0.036050 4.432805 -0.113794
v 0.318227 4.808757 -0.265701
v 0.056286 4.403158 -0.125433
v 0.329978 4.798822 -0.292464
v 0.065711 4.384230 -0.156371
v 0.125978 3.497739 0.629947
v -0.100518 4.815032 -0.106712
v -0.124175 4.812607 -0.119754
v -0.056259 3.823771 0.488064
v -0.143618 4.812970 -0.101252
v 0.081742 3.482771 0.598179
v -0.131676 4.815565 -0.076946
v -0.083029 3.790605 0.469032
v -0.105762 4.816728 -0.080529
v 0.097712 3.482263 0.544173
v -0.066275 3.781258 0.425942
v 0.151140 3.496949 0.541359
v -0.109832 4.263129 -0.117943
v -0.119647 4.574393 -0.102051
v -0.150675 4.569165 -0.120126
v -0.145627 4.275700 -0.138635
v -0.029394 3.808539 0.418616
v -0.023851 3.835831 0.456406
v -0.176320 4.561630 -0.096144
v -0.175591 4.282922 -0.108813
v 0.167841 3.508423 0.593463
v -0.164300 4.105879 0.374377
v -0.161032 4.561125 -0.063047
v -0.158888 4.273441 -0.069743
v -0.187024 4.085925 0.359111
v -0.173657 4.075356 0.328318
v -0.125900 4.568414 -0.066859
v -0.117766 4.259781 -0.075087
v -0.142094 4.089511 0.325288
v -0.136368 4.108665 0.354123
v 0.333739 3.860028 0.947833
v 0.157109 3.595991 0.752878
v 0.191246 3.554131 0.768903
v 0.361649 3.827402 0.959368
v 0.398117 3.805093 0.946636
v 0.237404 3.524320 0.753989
v 0.428695 3.801160 0.913068
v 0.277961 3.517036 0.712042
v 0.294621 3.534831 0.656374
v 0.439924 3.816441 0.870346
v 0.426672 3.844126 0.835500
v 0.279783 3.569559 0.608454
v 0.394285 3.871327 0.820634
v 0.238907 3.606016 0.585393
v 0.191093 3.634710 0.601970
v 0.357558 3.891605 0.834906
v 0.322829 3.886614 0.914792
v 0.144121 3.630419 0.708347
v 0.331643 3.898416 0.872245
v 0.156582 3.645004 0.651143
v -1.281618 3.815614 0.055530
v -1.025815 3.571201 -0.032459
v -1.065040 3.526750 -0.017043
v -1.314340 3.778324 0.072099
v -1.332427 3.756345 0.115762
v -1.088829 3.498436 0.031502
v -1.328977 3.758553 0.169536
v -1.088117 3.497255 0.094833
v -1.059350 3.521679 0.148830
v -1.302824 3.781621 0.212335
v -1.262697 3.813627 0.227518
v -1.011336 3.558935 0.172526
v -1.223039 3.842909 0.210109
v -0.961541 3.595236 0.157227
v -0.936345 3.622398 0.107509
v -1.203906 3.863373 0.166317
v -1.243482 3.849719 0.071816
v -0.980981 3.610720 -0.009036
v -1.213551 3.867196 0.113713
v -0.946340 3.629549 0.043865
v -1.226176 3.775949 0.056164
v -1.109588 4.151621 0.126282
v -1.171655 3.776747 0.070892
v -1.069716 4.128996 0.135071
v -1.168200 3.777391 0.127103
v -1.067995 4.119866 0.181314
v -1.219590 3.777328 0.148014
v -1.106642 4.136781 0.200767
v -1.131860 4.157617 0.167098
v -1.254982 3.778564 0.104755
v -1.056357 4.462374 0.195427
v -1.025163 4.450932 0.202033
v -1.024068 4.440307 0.235566
v -1.055557 4.445654 0.249191
v -1.075665 4.459549 0.224017
v -0.885865 3.529154 0.128053
v -1.451171 3.603558 0.136884
v -0.922908 3.457691 0.132416
v -1.448227 3.537055 0.139547
v -0.943595 3.434898 0.058160
v -1.452361 3.513476 0.076628
v -0.920621 3.490963 0.007178
v -1.457760 3.565279 0.035599
v -1.458948 3.621016 0.072760
v -0.888074 3.549846 0.050073
v -1.897491 3.714453 0.110022
v -1.903029 3.666535 0.113334
v -1.900866 3.647052 0.067087
v -1.893872 3.684592 0.035496
v -1.891906 3.726725 0.062494
v -1.286496 4.665016 0.539446
v -1.197005 4.129857 1.582292
v -0.137158 4.910389 0.566736
v -0.047670 4.375231 1.609582
v -0.728597 4.887973 0.357696
v -0.605569 4.152273 1.791332
v -1.457100 4.351461 1.055756
v 0.122935 4.688785 1.093272
v -0.710072 4.710229 1.175760
v -1.617948 4.337787 -0.057965
v -1.466610 3.432761 1.705628
v 0.325735 4.752747 -0.011815
v 0.477075 3.847721 1.751779
v -0.674463 4.714839 -0.365330
v -0.466410 3.470669 2.059143
v -1.906465 3.807524 0.815184
v 0.765588 4.377984 0.878629
v -1.123199 4.907775 -1.399141
v -1.143920 5.315204 -0.162884
v 0.161214 5.114810 -1.445845
v 0.140495 5.522240 -0.209589
v -0.477110 4.934953 -1.654127
v -0.505598 5.495060 0.045397
v -1.374214 5.072699 -0.772261
v 0.391510 5.357316 -0.836469
v -0.530816 5.442753 -0.880084
v -1.471173 4.183450 -1.639990
v -1.506214 4.872468 0.450686
v 0.700942 4.533573 -1.718974
v 0.665899 5.222592 0.371702
v -0.378549 4.229412 -2.071206
v -0.426720 5.176630 0.802918
v -1.895679 4.462357 -0.579853
v 1.090403 4.943684 -0.688435
v -0.071881 5.555437 -0.084553
v -0.159385 5.326846 1.086829
v 1.056636 5.157389 -0.077931
v 0.969137 4.928798 1.093451
v 0.508773 5.399243 -0.300720
v 0.388481 5.084991 1.309618
v -0.327083 5.515722 0.499897
v 1.224334 4.968512 0.509001
v 0.521185 5.448596 0.550163
v -0.594748 5.307806 -0.594400
v -0.742725 4.921227 1.386564
v 1.313733 4.634653 -0.583202
v 1.165756 4.248074 1.397762
v 0.387221 5.043662 -0.959969
v 0.183791 4.512218 1.763331
v -1.026321 5.240643 0.393984
v 1.597334 4.315237 0.409378
v -0.961603 5.174136 -0.061984
v -1.813198 4.706389 0.624737
v -0.191045 5.097418 0.841319
v -1.042645 4.629671 1.528040
v -0.416762 5.223417 0.260999
v -1.587484 4.580390 1.205057
v -1.531773 4.954638 0.112128
v -0.472471 4.849170 1.353929
v -1.060199 5.105795 0.799886
v -0.803033 4.903927 -0.761743
v -2.243203 4.112905 0.399594
v 0.500074 4.774186 0.765864
v -0.940099 3.983163 1.927201
v 0.118359 4.987267 -0.215536
v -1.861490 3.899822 1.380994
v -1.767279 4.532724 -0.467299
v 0.024145 4.354364 1.632756
v 0.314257 4.779872 -1.553215
v -0.631233 5.020825 -0.691381
v 1.205287 4.917171 -0.614083
v 0.259801 5.158123 0.247750
v 0.936926 4.803374 -1.245129
v -0.362867 5.134621 -0.060336
v -0.325439 4.874622 -1.298260
v 0.899494 5.063373 -0.007204
v 0.302523 5.206641 -0.702175
v 0.298241 4.114924 -2.064418
v -1.300705 4.522408 -0.606941
v 1.805098 4.347115 -0.476221
v 0.206152 4.754599 0.981256
v 1.351259 4.154671 -1.543403
v -0.846868 4.714852 0.460241
v -0.783569 4.275161 -1.633256
v 1.287960 4.594363 0.550094
v -1.113695 4.124102 -1.751215
v -2.022155 4.126498 -1.092045
v -0.608434 4.847475 -1.057496
v -1.516891 4.849872 -0.398326
v -0.690849 4.485339 -1.527862
v -1.939738 4.488634 -0.621679
v -1.662594 3.989764 -1.551610
v -0.967995 4.984209 -0.597931
v -1.394387 4.647330 -1.184361
v -0.796555 3.512837 -1.972364
v -2.332882 3.516889 -0.857619
v 0.057914 4.736159 -0.799191
v -1.478408 4.740211 0.315554
v -0.081462 4.123738 -1.594645
v -2.193506 4.129309 -0.062165
v -1.724820 3.285652 -1.634806
v -0.550151 4.967395 -0.022004
v 0.521744 5.013453 -0.013754
v -0.291013 5.099718 0.860337
v 1.278837 4.478503 0.743006
v 0.466081 4.564768 1.617097
v 1.052570 4.729815 0.200850
v -0.064748 4.848406 1.402493
v -0.026487 5.156817 0.281500
v 1.014311 4.421403 1.321843
v 0.577105 4.988457 0.859356
v 0.353949 4.720359 -0.707000
v -1.020528 4.866246 0.771205
v 1.634292 3.815687 0.572782
v 0.259815 3.961573 2.050987
v 1.251653 4.240689 -0.344077
v -0.637889 4.441243 1.688063
v -0.573185 4.962809 -0.207687
v 1.186949 3.719124 1.551673
v -0.989417 4.141683 -1.262564
v -0.975871 4.497815 -0.204668
v 0.098952 4.283165 -1.326764
v 0.112493 4.639297 -0.268868
v -0.447769 4.145697 -1.492879
v -0.429153 4.635283 -0.038554
v -1.186569 4.293241 -0.721587
v 0.309645 4.487740 -0.809845
v -0.474013 4.625818 -0.820254
v -1.290272 3.440693 -1.483350
v -1.267372 4.042960 0.305695
v 0.550299 3.679959 -1.591920
v 0.573199 4.282225 0.197124
v -0.374279 3.447481 -1.872842
v -0.342795 4.275438 0.586617
v -1.623686 3.696997 -0.568485
v 0.906613 4.025922 -0.717740
v 0.050509 4.599831 -0.750519
v 0.140510 4.828361 0.236734
v 0.991770 4.083523 -0.760041
v 1.081769 4.312054 0.227211
v 0.504276 4.298858 -0.940259
v 0.628002 4.613027 0.416951
v -0.080849 4.810835 -0.255108
v 1.213127 4.101049 -0.268200
v 0.635443 4.655936 -0.301891
v -0.461664 4.249679 -0.997934
v -0.309460 4.636156 0.671644
v 1.130133 3.376533 -1.014038
v 1.282333 3.763009 0.655539
v 0.305715 3.740694 -1.318810
v 0.514951 4.271995 0.976415
v -0.683814 4.606517 -0.160127
v 1.504485 3.406171 -0.182267
v -0.843908 4.783323 -0.031290
v -1.477965 4.243435 0.580823
v -0.138423 4.729890 0.687569
v -0.772488 4.190001 1.299681
v -0.372363 4.857764 0.213450
v -1.244023 4.115561 1.054942
v -1.293119 4.523391 0.140076
v -0.323275 4.449934 1.128316
v -0.872944 4.687322 0.698367
v -0.723037 4.537261 -0.635492
v -1.795318 3.624238 0.399673
v 0.470022 4.446898 0.580195
v -0.602254 3.533874 1.615360
v 0.074405 4.663150 -0.221604
v -1.399693 3.407986 1.201472
v -1.482714 4.097681 -0.345690
v 0.157423 3.973455 1.325557
v 0.236243 3.857855 -1.364071
v -0.532252 4.131857 -0.596540
v 1.029777 3.980130 -0.613191
v 0.261282 4.254133 0.154341
v 0.776997 3.867653 -1.132441
v -0.279477 4.244335 -0.077289
v -0.296692 3.971945 -1.120996
v 0.794212 4.140042 -0.088734
v 0.253524 4.295498 -0.648898
v 0.216889 3.182493 -1.789796
v -1.082746 3.645868 -0.491796
v 1.558865 3.389278 -0.519956
v 0.259234 3.852653 0.778044
v 1.131381 3.199064 -1.398079
v -0.655266 3.836082 0.386326
v -0.684372 3.375436 -1.378723
v 1.160487 3.659710 0.366971
v 0.473494 4.315757 0.037269
v -0.207359 4.380048 0.790465
v 1.222063 3.910991 0.691823
v 0.541216 3.975283 1.445019
v 0.975349 4.101328 0.223422
v 0.039362 4.189712 1.258866
v -0.007187 4.423742 0.291226
v 1.021897 3.867296 1.191062
v 0.543563 4.355631 0.772160
v 0.368697 3.961071 -0.518928
v -0.782716 4.069796 0.754827
v 1.634625 3.276556 0.588009
v 0.483219 3.385282 1.861765
v 1.217401 3.598443 -0.204120
v -0.365483 3.747910 1.546956
v -0.444202 4.143690 -0.089454
v 1.296116 3.202663 1.432290
v 0.664701 5.173492 0.045077
v -0.386635 5.243036 0.612439
v 1.172455 4.741557 1.038893
v 0.121113 4.811101 1.606254
v 1.115564 4.944495 0.435680
v -0.329742 5.040099 1.215652
v 0.043902 5.289195 0.142550
v 0.741915 4.695398 1.508781
v 0.441963 5.200400 0.891052
v 0.742283 4.830894 -0.641405
v -1.035673 4.948503 0.318080
v 1.600951 4.100433 1.039270
v -0.177000 4.218042 1.998755
v 1.504747 4.443627 0.019156
v -0.939469 4.605308 1.338193
v -0.307580 5.026563 -0.476567
v 0.872858 4.022373 1.833916
v -1.851989 3.610797 -0.167980
v -1.855064 3.475830 0.334235
v -1.351794 3.747426 -0.128200
v -1.354869 3.612459 0.374015
v -1.601316 3.704399 -0.242188
v -1.605542 3.518856 0.448223
v -1.947247 3.517713 0.075674
v -1.259611 3.705542 0.130361
v -1.630009 3.701921 0.127121
v -1.964021 3.407237 -0.409461
v -1.969222 3.178989 0.439852
v -1.118125 3.638295 -0.342187
v -1.123324 3.410047 0.507126
v -1.540099 3.565532 -0.534958
v -1.547247 3.251752 0.632622
v -2.125116 3.249820 0.002590
v -0.962231 3.567464 0.095074
v -1.717559 3.653083 0.507804
v -1.294743 3.755031 0.222710
v -2.018011 3.733825 0.091084
v -1.595194 3.835773 -0.194009
v -1.947006 3.674352 0.352862
v -1.365747 3.814504 -0.039067
v -1.449856 3.688928 0.443337
v -1.862897 3.799928 -0.129542
v -1.663370 3.838503 0.180167
v -1.744125 3.378465 0.698015
v -1.029085 3.550873 0.215884
v -2.252228 3.515011 -0.006713
v -1.537188 3.687419 -0.488845
v -2.132151 3.414434 0.435987
v -1.149162 3.651450 -0.226817
v -1.291402 3.439085 0.588993
v -1.989910 3.626800 -0.379822
vt 0.548176 0.071019
vt 0.625347 0.093260
vt 0.547230 0.760420
vt 0.493373 0.764784
vt 0.498086 1.542228
vt 0.534769 1.554897
vt 0.480513 1.751818
vt 0.453101 1.742376
vt 0.016215 0.108587
vt 0.091030 0.089920
vt 0.158534 0.687126
vt 0.105171 0.703366
vt 0.238756 0.050744
vt 0.314993 0.040142
vt 0.326505 0.744204
vt 0.269719 0.713804
vt 0.471153 0.051624
vt 0.439301 0.766932
vt 0.704178 0.113194
vt 0.783370 0.127421
vt 0.659412 0.744422
vt 0.602589 0.752336
vt 0.164393 0.068930
vt 0.213752 0.688856
vt 0.392989 0.040142
vt 0.383612 0.763642
vt 0.281732 1.293740
vt 0.240106 1.299739
vt 0.241083 1.534437
vt 0.276637 1.534231
vt 0.278150 1.729346
vt 0.248840 1.730258
vt 0.347920 1.530432
vt 0.384543 1.525518
vt 0.368227 1.715029
vt 0.337576 1.720556
vt 0.460118 1.533403
vt 0.426025 1.730070
vt 0.312223 1.532739
vt 0.307654 1.726173
vt 0.422083 1.525606
vt 0.397979 1.718004
vt 0.167334 1.532355
vt 0.205028 1.533528
vt 0.219823 1.731297
vt 0.190870 1.732736
vt 0.356675 2.223842
vt 0.373185 2.229221
vt 0.359155 2.284881
vt 0.345337 2.281283
vt 0.451812 1.295217
vt 0.408017 1.285853
vt 0.581964 1.344871
vt 0.538079 1.333043
vt 0.364736 1.286495
vt 0.494542 1.315702
vt 0.197042 1.306794
vt 0.322822 1.288848
vt 0.152580 1.312348
vt 0.290347 2.219386
vt 0.307235 2.218231
vt 0.303290 2.276319
vt 0.288702 2.275880
vt 0.292952 2.116854
vt 0.272516 2.119831
vt 0.340459 2.219476
vt 0.331508 2.278665
vt 0.220294 2.225569
vt 0.238190 2.223687
vt 0.246645 2.278460
vt 0.233011 2.280593
vt 0.255737 2.222182
vt 0.260301 2.277010
vt 0.323878 2.218022
vt 0.317556 2.277079
vt 0.390322 2.235054
vt 0.372556 2.289358
vt 0.273090 2.220814
vt 0.274271 2.276139
vt 1.201128 0.875676
vt 1.189455 0.879343
vt 1.177975 0.875382
vt 1.171192 0.865737
vt 1.171192 0.854151
vt 1.177975 0.844507
vt 1.189455 0.840545
vt 1.201128 0.844213
vt 1.208239 0.853965
vt 1.208239 0.865924
vt 0.333382 2.112803
vt 0.313119 2.114046
vt 0.392442 2.126290
vt 0.373155 2.119762
vt 0.251755 2.121839
vt 0.230809 2.122695
vt 0.353558 2.114893
vt 0.209782 2.122351
vt 0.412158 2.133183
vt 1.919134 1.266340
vt 1.904044 1.303520
vt 1.528660 1.324195
vt 1.528637 1.300054
vt 1.397333 0.556627
vt 1.415171 0.553143
vt 1.409797 0.673482
vt 1.394858 0.665475
vt 1.171192 0.035511
vt 1.202879 0.012990
vt 1.276312 0.392742
vt 1.253245 0.400643
vt 1.496657 0.027960
vt 1.535042 0.021529
vt 1.492417 0.393832
vt 1.467658 0.395807
vt 1.235607 -0.007738
vt 1.271833 -0.021123
vt 1.325332 0.397369
vt 1.300517 0.391866
vt 1.383589 -0.001310
vt 1.419542 0.014746
vt 1.419621 0.401823
vt 1.396529 0.404198
vt 1.310039 -0.023978
vt 1.347620 -0.016228
vt 1.373416 0.405633
vt 1.349772 0.402980
vt 1.457512 0.025807
vt 1.443264 0.398941
vt 1.360990 0.560226
vt 1.379359 0.560091
vt 1.379490 0.659670
vt 1.364245 0.655480
vt 1.433507 0.550567
vt 1.452518 0.549428
vt 1.441293 0.681399
vt 1.425185 0.680220
vt 1.304635 0.551777
vt 1.323165 0.552857
vt 1.334354 0.661587
vt 1.320904 0.671222
vt 1.342156 0.557240
vt 1.348984 0.656186
vt 1.471521 0.550412
vt 1.457098 0.678337
vt 1.286353 0.554975
vt 1.307939 0.681399
vt 1.389121 1.330333
vt 1.386251 1.350765
vt 1.127058 1.354457
vt 1.129346 1.337768
vt 1.862144 1.089156
vt 1.885243 1.120165
vt 1.522002 1.196433
vt 1.510757 1.172512
vt 1.874701 1.417793
vt 1.882101 1.456230
vt 1.524255 1.426620
vt 1.522464 1.399858
vt 1.907245 1.152316
vt 1.922255 1.188689
vt 1.529738 1.248022
vt 1.528743 1.221512
vt 1.887590 1.340415
vt 1.526902 1.348193
vt 1.926343 1.227548
vt 1.529010 1.274598
vt 1.876427 1.378965
vt 1.523975 1.373193
vt 1.384561 1.288363
vt 1.387853 1.309610
vt 1.132194 1.321063
vt 1.136346 1.304984
vt 1.380057 1.371311
vt 1.374103 1.392822
vt 1.129359 1.387269
vt 1.126314 1.371215
vt 1.368413 1.224068
vt 1.375487 1.244718
vt 1.138180 1.272887
vt 1.133741 1.257495
vt 1.380447 1.266524
vt 1.138726 1.288929
vt 1.371913 1.414958
vt 1.133784 1.402866
vt 1.361001 1.203146
vt 1.126314 1.242956
vt 1.535795 0.647013
vt 1.545322 0.634337
vt 1.560847 0.629213
vt 1.576900 0.634105
vt 1.586918 0.647372
vt 1.586750 0.663353
vt 1.576903 0.675950
vt 1.560995 0.680366
vt 1.545205 0.675089
vt 1.535795 0.662439
vt 1.612931 0.681192
vt 1.597567 0.676378
vt 1.587671 0.663347
vt 1.587671 0.647058
vt 1.597567 0.634028
vt 1.612931 0.629213
vt 1.628086 0.634266
vt 1.637417 0.647197
vt 1.637417 0.663209
vt 1.628086 0.676140
vt 1.609218 0.471575
vt 1.617084 0.625846
vt 1.607708 0.627604
vt 1.596676 0.473486
vt 1.657386 0.471931
vt 1.655112 0.620675
vt 1.645030 0.620605
vt 1.645336 0.470760
vt 1.689176 -0.008481
vt 1.675520 0.274954
vt 1.660627 0.272110
vt 1.666993 -0.012358
vt 1.621320 0.470214
vt 1.626207 0.623675
vt 1.706671 0.474935
vt 1.693329 0.628460
vt 1.683677 0.626562
vt 1.693757 0.474337
vt 1.674506 0.624238
vt 1.681523 0.473699
vt 1.633307 0.470005
vt 1.635387 0.621741
vt 1.597787 0.628460
vt 1.583571 0.475246
vt 1.665051 0.622045
vt 1.669486 0.472964
vt 1.644676 -0.018236
vt 1.645534 0.270257
vt 1.630247 0.270017
vt 1.621876 -0.023978
vt 1.577390 -0.015414
vt 1.600190 0.277096
vt 1.585396 0.281205
vt 1.556521 -0.008043
vt 1.732697 -0.004526
vt 1.704896 0.281333
vt 1.690177 0.278208
vt 1.711293 -0.006386
vt 1.599273 -0.022986
vt 1.614919 0.272572
vt 1.754454 -0.002847
vt 1.719920 0.283437
vt 1.570299 0.283756
vt 1.535795 -0.002805
vt 1.789122 0.102572
vt 1.790048 0.206068
vt 1.779328 0.204746
vt 1.774653 0.099236
vt 1.811810 0.204779
vt 1.818948 0.103079
vt 1.833610 0.100582
vt 1.822836 0.204861
vt 1.751771 0.845864
vt 1.752967 0.979753
vt 1.739099 0.978043
vt 1.733052 0.841548
vt 1.767871 0.204124
vt 1.759747 0.099762
vt 1.770935 0.849418
vt 1.766996 0.979753
vt 1.781120 0.978086
vt 1.790355 0.846521
vt 1.809323 0.843291
vt 1.795383 0.978192
vt 1.724278 0.977238
vt 1.713769 0.842228
vt 1.803936 0.105319
vt 1.800892 0.206068
vt 1.316700 0.848751
vt 1.312381 0.862526
vt 1.298093 0.862526
vt 1.293761 0.848709
vt 1.305059 0.840545
vt 1.335184 0.846888
vt 1.331846 0.857537
vt 1.320801 0.857537
vt 1.317453 0.846856
vt 1.326186 0.840545
vt 1.840587 -0.013057
vt 1.823838 -0.017622
vt 1.796684 0.690375
vt 1.775491 0.683291
vt 1.772948 -0.018000
vt 1.755208 -0.014104
vt 1.789687 -0.023978
vt 1.752504 0.682152
vt 1.807456 -0.023098
vt 1.730850 0.689885
vt 1.707899 0.694924
vt 1.818351 0.696281
vt 1.246714 0.868192
vt 1.241118 0.860518
vt 1.241118 0.851106
vt 1.246714 0.843431
vt 1.255901 0.840545
vt 1.264935 0.843663
vt 1.270273 0.851254
vt 1.270273 0.860372
vt 1.264935 0.867961
vt 1.255900 0.871079
vt 1.640568 0.845865
vt 1.641766 0.979753
vt 1.627898 0.978043
vt 1.621849 0.841548
vt 1.659732 0.849418
vt 1.655794 0.979753
vt 1.669918 0.978085
vt 1.679152 0.846520
vt 1.698119 0.843290
vt 1.684182 0.978192
vt 1.613076 0.977238
vt 1.602566 0.842229
vt 1.279232 0.840545
vt 1.293008 0.844864
vt 1.293008 0.859152
vt 1.279191 0.863484
vt 1.271026 0.852186
vt 1.685478 0.690374
vt 1.664286 0.683290
vt 1.641299 0.682152
vt 1.619645 0.689886
vt 1.596694 0.694925
vt 1.707146 0.696280
vt 1.362284 0.744769
vt 1.171192 0.746477
vt 1.173633 0.726684
vt 1.368444 0.718053
vt 1.357211 0.772120
vt 1.171192 0.766499
vt 1.173573 0.786657
vt 1.361347 0.799837
vt 1.365957 0.826908
vt 1.173420 0.807014
vt 1.174782 0.705530
vt 1.367473 0.690531
vt 1.228653 0.873284
vt 1.208992 0.867120
vt 1.208992 0.846728
vt 1.228713 0.840545
vt 1.240365 0.856669
vt 1.584205 0.808868
vt 1.594316 0.778621
vt 1.595941 0.745814
vt 1.584903 0.714908
vt 1.577711 0.682152
vt 1.575776 0.839792
vt 0.500000 0.500000
vt 0.757387 0.597317
vt 0.618652 0.762926
vt 0.402683 0.757387
vt 0.597317 0.242613
vt 0.762926 0.381347
vt 0.381347 0.237074
vt 0.242613 0.402683
vt 0.237074 0.618653
vt 0.000100 0.725594
vt 0.000100 0.310990
vt 0.999900 0.689010
vt 0.725594 0.999900
vt 0.274406 0.000100
vt 0.689010 0.000100
vt 0.999900 0.274406
vt 0.310990 0.999900
vt 0.500000 0.500000
vt 0.757387 0.597317
vt 0.618652 0.762926
vt 0.402683 0.757387
vt 0.597317 0.242613
vt 0.762926 0.381347
vt 0.381347 0.237074
vt 0.242613 0.402683
vt 0.237074 0.618653
vt 0.000100 0.725594
vt 0.000100 0.310990
vt 0.999900 0.689010
vt 0.725594 0.999900
vt 0.274406 0.000100
vt 0.689010 0.000100
vt 0.999900 0.274406
vt 0.310990 0.999900
vt 0.500000 0.500000
vt 0.757387 0.597317
vt 0.618652 0.762926
vt 0.402683 0.757387
vt 0.597317 0.242613
vt 0.762926 0.381347
vt 0.381347 0.237074
vt 0.242613 0.402683
vt 0.237074 0.618653
vt 0.000100 0.725594
vt 0.000100 0.310990
vt 0.999900 0.689010
vt 0.725594 0.999900
vt 0.274406 0.000100
vt 0.689010 0.000100
vt 0.999900 0.274406
vt 0.310990 0.999900
vt 0.500000 0.500000
vt 0.757387 0.597317
vt 0.618652 0.762926
vt 0.402683 0.757387
vt 0.597317 0.242613
vt 0.762926 0.381347
vt 0.381347 0.237074
vt 0.242613 0.402683
vt 0.237074 0.618653
vt 0.000100 0.725594
vt 0.000100 0.310990
vt 0.999900 0.689010
vt 0.725594 0.999900
vt 0.274406 0.000100
vt 0.689010 0.000100
vt 0.999900 0.274406
vt 0.310990 0.999900
vt 0.500000 0.500000
vt 0.757387 0.597317
vt 0.618652 0.762926
vt 0.402683 0.757387
vt 0.597317 0.242613
vt 0.762926 0.381347
vt 0.381347 0.237074
vt 0.242613 0.402683
vt 0.237074 0.618653
vt 0.000100 0.725594
vt 0.000100 0.310990
vt 0.999900 0.689010
vt 0.725594 0.999900
vt 0.274406 0.000100
vt 0.689010 0.000100
vt 0.999900 0.274406
vt 0.310990 0.999900
vt 0.500000 0.500000
vt 0.757387 0.597317
vt 0.618652 0.762926
vt 0.402683 0.757387
vt 0.597317 0.242613
vt 0.762926 0.381347
vt 0.381347 0.237074
vt 0.242613 0.402683
vt 0.237074 0.618653
vt 0.000100 0.725594
vt 0.000100 0.310990
vt 0.999900 0.689010
vt 0.725594 0.999900
vt 0.274406 0.000100
vt 0.689010 0.000100
vt 0.999900 0.274406
vt 0.310990 0.999900
vt 0.500000 0.500000
vt 0.757387 0.597317
vt 0.618652 0.762926
vt 0.402683 0.757387
vt 0.597317 0.242613
vt 0.762926 0.381347
vt 0.381347 0.237074
vt 0.242613 0.402683
vt 0.237074 0.618653
vt 0.000100 0.725594
vt 0.000100 0.310990
vt 0.999900 0.689010
vt 0.725594 0.999900
vt 0.274406 0.000100
vt 0.689010 0.000100
vt 0.999900 0.274406
vt 0.310990 0.999900
vt 0.500000 0.500000
vt 0.757387 0.597317
vt 0.618652 0.762926
vt 0.402683 0.757387
vt 0.597317 0.242613
vt 0.762926 0.381347
vt 0.381347 0.237074
vt 0.242613 0.402683
vt 0.237074 0.618653
vt 0.000100 0.725594
vt 0.000100 0.310990
vt 0.999900 0.689010
vt 0.725594 0.999900
vt 0.274406 0.000100
vt 0.689010 0.000100
vt 0.999900 0.274406
vt 0.310990 0.999900
vt 0.500000 0.500000
vt 0.757387 0.597317
vt 0.618652 0.762926
vt 0.402683 0.757387
vt 0.597317 0.242613
vt 0.762926 0.381347
vt 0.381347 0.237074
vt 0.242613 0.402683
vt 0.237074 0.618653
vt 0.000100 0.725594
vt 0.000100 0.310990
vt 0.999900 0.689010
vt 0.725594 0.999900
vt 0.274406 0.000100
vt 0.689010 0.000100
vt 0.999900 0.274406
vt 0.310990 0.999900
vt 0.500000 0.500000
vt 0.757387 0.597317
vt 0.618652 0.762926
vt 0.402683 0.757387
vt 0.597317 0.242613
vt 0.762926 0.381347
vt 0.381347 0.237074
vt 0.242613 0.402683
vt 0.237074 0.618653
vt 0.000100 0.725594
vt 0.000100 0.310990
vt 0.999900 0.689010
vt 0.725594 0.999900
vt 0.274406 0.000100
vt 0.689010 0.000100
vt 0.999900 0.274406
vt 0.310990 0.999900
vt 0.500000 0.500000
vt 0.757387 0.597317
vt 0.618652 0.762926
vt 0.402683 0.757387
vt 0.597317 0.242613
vt 0.762926 0.381347
vt 0.381347 0.237074
vt 0.242613 0.402683
vt 0.237074 0.618653
vt 0.000100 0.725594
vt 0.000100 0.310990
vt 0.999900 0.689010
vt 0.725594 0.999900
vt 0.274406 0.000100
vt 0.689010 0.000100
vt 0.999900 0.274406
vt 0.310990 0.999900
vt 0.500000 0.500000
vt 0.757387 0.597317
vt 0.618652 0.762926
vt 0.402683 0.757387
vt 0.597317 0.242613
vt 0.762926 0.381347
vt 0.381347 0.237074
vt 0.242613 0.402683
vt 0.237074 0.618653
vt 0.000100 0.725594
vt 0.000100 0.310990
vt 0.999900 0.689010
vt 0.725594 0.999900
vt 0.274406 0.000100
vt 0.689010 0.000100
vt 0.999900 0.274406
vt 0.310990 0.999900
vt 0.500000 0.500000
vt 0.757387 0.597317
vt 0.618652 0.762926
vt 0.402683 0.757387
vt 0.597317 0.242613
vt 0.762926 0.381347
vt 0.381347 0.237074
vt 0.242613 0.402683
vt 0.237074 0.618653
vt 0.000100 0.725594
vt 0.000100 0.310990
vt 0.999900 0.689010
vt 0.725594 0.999900
vt 0.274406 0.000100
vt 0.689010 0.000100
vt 0.999900 0.274406
vt 0.310990 0.999900
vt 0.500000 0.500000
vt 0.757387 0.597317
vt 0.618652 0.762926
vt 0.402683 0.757387
vt 0.597317 0.242613
vt 0.762926 0.381347
vt 0.381347 0.237074
vt 0.242613 0.402683
vt 0.237074 0.618653
vt 0.000100 0.725594
vt 0.000100 0.310990
vt 0.999900 0.689010
vt 0.725594 0.999900
vt 0.274406 0.000100
vt 0.689010 0.000100
vt 0.999900 0.274406
vt 0.310990 0.999900
vt 0.500000 0.500000
vt 0.757387 0.597317
vt 0.618652 0.762926
vt 0.402683 0.757387
vt 0.597317 0.242613
vt 0.762926 0.381347
vt 0.381347 0.237074
vt 0.242613 0.402683
vt 0.237074 0.618653
vt 0.000100 0.725594
vt 0.000100 0.310990
vt 0.999900 0.689010
vt 0.725594 0.999900
vt 0.274406 0.000100
vt 0.689010 0.000100
vt 0.999900 0.274406
vt 0.310990 0.999900
vn -0.2809 0.0657 -0.9575
vn -0.7945 -0.0479 -0.6053
vn -0.8275 0.0176 -0.5612
vn -0.3369 0.0791 -0.9382
vn -0.9775 -0.2108 0.0043
vn -0.7943 -0.1340 0.5926
vn -0.7905 -0.2093 0.5755
vn -0.9479 -0.3185 -0.0070
vn -0.7971 -0.1167 0.5925
vn -0.2821 -0.0413 0.9585
vn -0.3242 -0.0419 0.9451
vn -0.8071 -0.0654 0.5867
vn 0.8109 0.1759 0.5581
vn 0.9722 0.2342 -0.0035
vn 0.9934 0.1139 -0.0156
vn 0.8095 0.0761 0.5822
vn 0.3250 0.1720 -0.9299
vn 0.2795 0.1220 -0.9524
vn -0.9928 -0.1193 -0.0055
vn -0.9989 -0.0403 0.0237
vn 0.3438 0.0733 0.9362
vn 0.2988 0.0201 0.9541
vn 0.7932 0.2337 -0.5623
vn 0.7883 0.1307 -0.6012
vn 0.8181 0.0879 0.5683
vn 0.3287 0.0416 0.9435
vn 0.2752 0.1987 0.9406
vn 0.7494 0.3230 0.5779
vn 0.7120 0.4023 0.5755
vn 0.2383 0.2385 0.9414
vn 0.7783 0.2638 -0.5697
vn 0.3179 0.1092 -0.9418
vn 0.2928 0.1126 -0.9495
vn 0.7441 0.3252 -0.5836
vn -0.7864 -0.1806 -0.5907
vn -0.7597 -0.2869 -0.5836
vn 0.9386 0.3450 0.0046
vn 0.9009 0.4340 -0.0070
vn -0.2869 -0.0538 -0.9564
vn -0.2883 -0.1239 -0.9495
vn -0.3139 0.0240 0.9492
vn -0.3372 0.0043 0.9414
vn -0.8049 -0.1325 -0.5784
vn -0.9575 -0.2883 -0.0064
vn -0.9674 -0.2526 0.0179
vn -0.8297 -0.0655 -0.5544
vn -0.3032 0.0517 -0.9515
vn 0.3207 0.0880 -0.9431
vn -0.7910 -0.0511 0.6097
vn -0.9984 -0.0475 0.0298
vn 0.8087 0.1097 -0.5779
vn -0.8173 -0.0060 -0.5762
vn -0.2887 -0.0129 0.9573
vn 0.9940 0.1092 -0.0088
vn 0.8868 0.4622 -0.0064
vn 0.6687 0.4672 -0.5784
vn 0.6396 0.5325 -0.5544
vn 0.8689 0.4947 0.0179
vn 0.9076 0.4196 -0.0154
vn 0.7468 0.3373 0.5731
vn -0.3664 0.0990 -0.9252
vn -0.3990 0.1861 -0.8979
vn -0.7537 -0.3071 0.5811
vn -0.2660 -0.1736 0.9482
vn -0.2548 -0.1834 0.9495
vn -0.7451 -0.2984 0.5964
vn 0.3117 0.0614 0.9482
vn 0.3104 0.0466 0.9495
vn 0.1932 0.3267 -0.9252
vn 0.1557 0.4118 -0.8979
vn 0.7539 0.3064 0.5811
vn 0.7417 0.3067 0.5964
vn -0.3718 0.9137 0.1640
vn 0.2662 0.1714 -0.9486
vn 0.7254 0.3567 -0.5887
vn -0.9427 -0.3334 -0.0154
vn -0.7683 -0.2511 -0.5887
vn 0.2850 0.1375 0.9486
vn -0.3000 -0.1006 0.9486
vn -0.3102 -0.0632 -0.9486
vn -0.7702 -0.2800 0.5731
vn 0.1188 0.2618 -0.9578
vn -0.2575 -0.2429 -0.9352
vn -0.4366 -0.2999 -0.8482
vn -0.0517 0.1816 -0.9820
vn -0.3151 -0.3781 0.8705
vn 0.2691 -0.5993 0.7539
vn 0.3756 -0.5681 0.7322
vn -0.2439 -0.3959 0.8853
vn 0.8245 -0.0154 -0.5656
vn 0.4374 0.4940 -0.7514
vn 0.4544 0.4509 -0.7682
vn 0.8281 -0.0124 -0.5605
vn 0.8565 -0.5016 -0.1217
vn 0.8887 -0.4380 -0.1353
vn -0.0895 0.7830 -0.6156
vn -0.5240 0.8025 -0.2854
vn -0.5971 0.7520 -0.2792
vn -0.1071 0.7497 -0.6530
vn -0.5361 -0.2644 0.8016
vn -0.0056 -0.6604 0.7509
vn 0.1510 -0.6650 0.7314
vn -0.3927 -0.3705 0.8417
vn -0.7844 0.6075 0.1251
vn -0.8134 0.2282 0.5351
vn -0.7724 0.0795 0.6301
vn -0.8423 0.5014 0.1977
vn 0.5352 -0.7512 0.3863
vn 0.6367 -0.6854 0.3533
vn -0.9012 0.3823 0.2043
vn -0.7616 0.0025 0.6481
vn -0.7465 -0.0385 0.6643
vn -0.9214 0.3395 0.1890
vn 0.7422 -0.5687 0.3545
vn 0.9362 -0.3144 -0.1571
vn 0.9491 -0.2911 -0.1199
vn 0.7937 -0.5053 0.3387
vn 0.3520 0.4619 -0.8141
vn -0.2447 0.6865 -0.6847
vn -0.2273 0.6284 -0.7439
vn 0.4035 0.3923 -0.8266
vn -0.7140 0.6385 -0.2872
vn -0.7300 0.5941 -0.3378
vn 0.7968 0.0700 -0.6002
vn 0.8299 0.0307 -0.5570
vn -0.6315 -0.2086 -0.7468
vn -0.7993 -0.5466 -0.2497
vn -0.8502 -0.4981 -0.1703
vn -0.7275 -0.1590 -0.6675
vn -0.0978 -0.0608 0.9933
vn 0.2940 0.4705 0.8320
vn 0.3602 0.3750 0.8542
vn -0.0350 -0.1396 0.9896
vn -0.4484 -0.5381 0.7137
vn -0.4048 -0.5410 0.7372
vn 0.5243 0.7804 0.3408
vn 0.5459 0.8133 -0.2012
vn 0.5634 0.7811 -0.2693
vn 0.5925 0.7324 0.3354
vn -0.5585 -0.6640 -0.4973
vn -0.6632 -0.6509 -0.3695
vn 0.4031 0.6320 -0.6619
vn 0.3251 0.5800 -0.7469
vn -0.6225 -0.7682 0.1497
vn -0.6412 -0.7303 0.2357
vn 0.2280 0.5741 -0.7864
vn -0.2366 0.2256 -0.9451
vn -0.3427 0.2464 -0.9066
vn 0.1703 0.5769 -0.7989
vn -0.6686 -0.6613 0.3400
vn -0.3014 -0.5321 0.7912
vn -0.2802 -0.5596 0.7800
vn -0.6725 -0.6404 0.3710
vn 0.5789 0.2656 0.7709
vn 0.7402 0.6298 0.2356
vn 0.8044 0.5506 0.2230
vn 0.6441 0.1598 0.7480
vn 0.5922 0.7243 -0.3532
vn 0.6109 0.6987 -0.3722
vn 0.1675 -0.1968 0.9660
vn 0.2122 -0.2712 0.9388
vn -0.1069 0.9143 0.3906
vn -0.2877 0.8900 0.3536
vn -0.3143 0.4120 0.8553
vn -0.4051 0.3275 0.8536
vn -0.8505 0.2736 0.4491
vn -0.7818 0.4511 0.4304
vn 0.8227 -0.3976 -0.4063
vn 0.8569 -0.2086 -0.4714
vn 0.9902 -0.0631 0.1248
vn 0.9460 -0.2837 0.1570
vn 0.2382 -0.5756 -0.7822
vn 0.3003 -0.5247 -0.7966
vn 0.6534 -0.6773 -0.3382
vn 0.5773 -0.7650 -0.2856
vn 0.2726 0.2112 0.9387
vn 0.2074 0.2690 0.9405
vn -0.9306 0.3198 -0.1782
vn -0.9848 0.1358 -0.1081
vn -0.7711 -0.0386 -0.6356
vn -0.6913 0.0714 -0.7190
vn -0.2601 -0.1912 -0.9464
vn -0.1733 -0.1937 -0.9656
vn 0.7450 -0.0592 0.6644
vn 0.7417 0.1182 0.6602
vn 0.3727 -0.2593 -0.8910
vn 0.4044 -0.3690 -0.8368
vn 0.6972 -0.6466 0.3096
vn 0.7793 -0.5834 0.2288
vn 0.6378 -0.2660 0.7229
vn 0.5673 -0.2843 0.7729
vn -0.1462 0.5891 0.7947
vn -0.2310 0.5539 0.7999
vn -0.6158 0.7120 0.3374
vn -0.4938 0.8043 0.3305
vn -0.5241 0.3477 -0.7775
vn -0.5805 0.2674 -0.7691
vn -0.1717 -0.1669 -0.9709
vn -0.1869 -0.1464 -0.9714
vn 0.2572 0.1701 0.9513
vn 0.2547 0.1782 0.9505
vn -0.6426 0.7149 -0.2756
vn -0.7524 0.6040 -0.2628
vn 0.1156 0.0149 0.9932
vn 0.1142 0.0432 0.9925
vn 0.1161 0.0045 0.9932
vn -0.6902 0.0757 -0.7197
vn -0.6925 0.0569 -0.7192
vn -0.6932 0.0503 -0.7190
vn -0.6083 0.0516 0.7920
vn -0.6207 0.0743 0.7805
vn -0.6037 0.0432 0.7960
vn -0.8981 0.1260 0.4214
vn -0.9091 0.0528 0.4132
vn -0.9090 0.0537 0.4133
vn 0.5015 0.4796 0.7201
vn 0.4796 0.5243 0.7036
vn 0.4839 0.5158 0.7070
vn 0.0384 -0.3016 -0.9527
vn 0.0447 -0.3186 -0.9469
vn 0.0469 -0.3244 -0.9447
vn -0.8801 -0.4036 -0.2500
vn -0.8503 -0.4704 -0.2360
vn -0.8507 -0.4697 -0.2362
vn 0.9812 -0.0721 0.1788
vn 0.9834 -0.0197 0.1804
vn 0.9832 -0.0298 0.1801
vn -0.4021 0.7984 -0.4482
vn -0.0569 0.9953 -0.0780
vn -0.6951 0.0321 -0.7182
vn 0.8613 0.3531 -0.3654
vn 0.8836 0.3102 -0.3507
vn 0.8894 0.2982 -0.3465
vn -0.9150 -0.0184 0.4031
vn 0.9093 0.2531 -0.3303
vn 0.1173 -0.0228 0.9928
vn 0.4615 0.5584 0.6894
vn 0.9832 0.0214 0.1813
vn -0.5912 0.0211 0.8063
vn 0.4996 -0.0548 -0.8645
vn 0.5033 -0.0030 -0.8641
vn 0.5040 0.0109 -0.8636
vn -0.8169 -0.5327 -0.2212
vn 0.0529 -0.3406 -0.9387
vn 0.3196 0.9009 -0.2936
vn 0.5059 0.0614 -0.8604
vn 0.2733 0.1337 -0.9526
vn 0.2816 0.1600 -0.9461
vn 0.2703 0.1240 -0.9548
vn -0.8252 0.2515 -0.5058
vn -0.8129 0.3019 -0.4980
vn -0.8155 0.2922 -0.4996
vn 0.3641 -0.2033 0.9089
vn 0.3615 -0.2218 0.9056
vn 0.3605 -0.2282 0.9044
vn 0.9901 -0.1240 -0.0656
vn 0.9779 -0.1974 -0.0684
vn 0.9781 -0.1965 -0.0684
vn 0.2788 0.9182 0.2815
vn -0.7571 0.1427 0.6375
vn -0.7697 0.0940 0.6314
vn -0.7728 0.0806 0.6295
vn -0.7831 0.0304 0.6212
vn -0.8018 0.3408 -0.4909
vn 0.2620 0.0985 -0.9600
vn 0.9609 -0.2676 -0.0707
vn 0.3578 -0.2459 0.9008
vn -0.0165 0.0499 0.9986
vn -0.0446 0.0531 0.9976
vn -0.0061 0.0488 0.9988
vn 0.2220 0.9433 0.2468
vn 0.1705 0.9536 0.2481
vn 0.1805 0.9518 0.2479
vn -0.1689 -0.6199 -0.7663
vn -0.1506 -0.6251 -0.7658
vn -0.1443 -0.6269 -0.7656
vn -0.2742 -0.8929 0.3572
vn -0.2035 -0.9148 0.3489
vn -0.2043 -0.9146 0.3490
vn -0.9901 0.1067 -0.0909
vn 0.0363 0.5655 -0.8239
vn 0.0858 0.5559 -0.8268
vn 0.0994 0.5530 -0.8272
vn 0.1500 0.5412 -0.8274
vn 0.1299 0.9599 0.2486
vn 0.0211 0.0457 0.9987
vn -0.1338 -0.9312 0.3390
vn -0.1266 -0.6317 -0.7648
vn -0.1957 0.8656 0.4610
vn -0.1340 0.5351 0.8341
vn 0.2123 0.6551 0.7251
vn 0.3043 0.8579 0.4141
vn -0.6464 0.6549 0.3915
vn -0.4939 0.5044 0.7083
vn -0.5489 0.8332 0.0676
vn -0.2081 0.9777 -0.0285
vn 0.1573 0.9839 0.0843
vn 0.2671 0.9625 -0.0486
vn -0.1971 0.9500 -0.2422
vn -0.0962 0.3469 0.9329
vn 0.3373 0.5428 0.7692
vn -0.6341 0.7700 -0.0700
vn -0.7942 0.5102 0.3300
vn -0.5640 0.3504 0.7478
vn 0.5010 0.7867 0.3607
vn -0.1623 0.9364 -0.3113
vn -0.1495 0.9704 0.1896
vn 0.2111 0.9755 0.0623
vn 0.3379 0.8956 -0.2895
vn -0.6215 0.7409 -0.2546
vn -0.5015 0.8606 0.0883
vn -0.4900 0.6346 -0.5976
vn -0.1340 0.6661 -0.7337
vn 0.2226 0.7494 -0.6235
vn 0.3390 0.6392 -0.6903
vn -0.1110 0.4942 -0.8622
vn -0.1321 0.9088 0.3958
vn 0.3243 0.9277 0.1850
vn -0.5704 0.4926 -0.6572
vn -0.7751 0.5962 -0.2095
vn -0.5851 0.7811 0.2181
vn 0.5320 0.8068 -0.2570
vn 0.3245 0.9235 0.2045
vn 0.2481 0.7142 0.6546
vn 0.5932 0.6049 0.5313
vn 0.7421 0.6453 0.1814
vn -0.1749 0.9687 0.1760
vn -0.0880 0.8451 0.5273
vn -0.0351 0.9831 -0.1797
vn 0.3192 0.8999 -0.2972
vn 0.6460 0.7428 -0.1757
vn 0.7145 0.6351 -0.2935
vn 0.2916 0.8184 -0.4952
vn 0.1947 0.5653 0.8015
vn 0.6471 0.4590 0.6088
vn -0.1548 0.9417 -0.2986
vn -0.3815 0.9122 0.1495
vn -0.2222 0.7656 0.6037
vn 0.8678 0.4716 0.1568
vn -0.2613 0.9172 0.3008
vn -0.5763 0.6104 0.5434
vn -0.2492 0.6233 0.7412
vn 0.0866 0.7702 0.6319
vn -0.5432 0.8329 -0.1063
vn -0.7170 0.6699 0.1928
vn -0.2000 0.9538 -0.2240
vn 0.1197 0.9927 -0.0178
vn 0.2678 0.9073 0.3243
vn 0.4302 0.8471 0.3120
vn 0.2784 0.9476 -0.1570
vn -0.6698 0.4268 0.6076
vn -0.2295 0.4847 0.8440
vn -0.1667 0.9065 -0.3878
vn -0.6247 0.7299 -0.2776
vn -0.8265 0.5441 0.1442
vn 0.2332 0.6444 0.7282
vn 0.0637 0.9770 -0.2033
vn -0.2974 0.9438 0.1442
vn 0.0397 0.9449 0.3248
vn 0.3884 0.9051 0.1731
vn -0.2771 0.8025 -0.5284
vn -0.4547 0.8688 -0.1962
vn 0.0699 0.7351 -0.6744
vn 0.4088 0.7638 -0.4995
vn 0.5642 0.8113 -0.1533
vn 0.6985 0.7043 -0.1268
vn 0.5288 0.6094 -0.5908
vn -0.4333 0.8546 0.2862
vn 0.0290 0.8749 0.4834
vn 0.0676 0.6071 -0.7918
vn -0.4056 0.6621 -0.6301
vn -0.6019 0.7777 -0.1815
vn 0.5011 0.8018 0.3255
vn -0.3772 0.7646 -0.5226
vn -0.7231 0.6692 -0.1712
vn -0.4540 0.8909 -0.0140
vn -0.1107 0.9815 -0.1562
vn -0.5485 0.3548 -0.7572
vn -0.7791 0.4254 -0.4604
vn -0.1945 0.4239 -0.8846
vn 0.0639 0.6671 -0.7422
vn 0.1306 0.8894 -0.4382
vn 0.2945 0.8759 -0.3821
vn 0.2535 0.5714 -0.7805
vn -0.8187 0.5743 -0.0025
vn -0.4516 0.8779 0.1592
vn -0.1205 0.2819 -0.9519
vn -0.5807 0.1460 -0.8009
vn -0.8666 0.2838 -0.4105
vn 0.0156 0.9997 0.0179
vn 0.3721 0.8916 0.2580
vn -0.0050 0.8142 0.5806
vn 0.3031 0.6312 0.7140
vn 0.6328 0.5618 0.5329
vn 0.0176 0.9965 -0.0820
vn -0.1538 0.9540 0.2572
vn 0.3367 0.9020 -0.2703
vn 0.6554 0.7441 -0.1297
vn 0.7937 0.5791 0.1864
vn 0.8868 0.4369 0.1505
vn 0.7286 0.6202 -0.2905
vn -0.1711 0.7157 0.6771
vn 0.2608 0.5034 0.8238
vn 0.3036 0.8490 -0.4324
vn -0.1403 0.9641 -0.2256
vn -0.3224 0.9154 0.2409
vn 0.6978 0.3719 0.6122
vn -0.1410 0.9413 -0.3068
vn -0.1091 0.9563 0.2711
vn 0.2956 0.9485 0.1134
vn 0.4132 0.8640 -0.2876
vn -0.6534 0.7225 -0.2260
vn -0.5154 0.8416 0.1615
vn -0.5151 0.6128 -0.5993
vn -0.1287 0.6440 -0.7542
vn 0.2666 0.7172 -0.6438
vn 0.3679 0.5909 -0.7180
vn -0.1114 0.4660 -0.8778
vn -0.0815 0.8589 0.5056
vn 0.4313 0.8697 0.2401
vn -0.5873 0.4615 -0.6649
vn -0.8147 0.5500 -0.1838
vn -0.6099 0.7319 0.3040
vn 0.6151 0.7418 -0.2673
vn 0.4553 0.8583 -0.2364
vn 0.4459 0.8380 0.3146
vn 0.7454 0.6414 0.1817
vn 0.8241 0.5317 -0.1953
vn -0.0944 0.9732 -0.2096
vn 0.0719 0.9774 0.1990
vn -0.0101 0.8083 -0.5887
vn 0.3285 0.6349 -0.6993
vn 0.6596 0.4994 -0.5617
vn 0.7044 0.3580 -0.6129
vn 0.2722 0.4719 -0.8386
vn 0.4186 0.7354 0.5329
vn 0.8131 0.5124 0.2761
vn -0.1609 0.7156 -0.6797
vn -0.3411 0.9225 -0.1805
vn -0.0686 0.9368 0.3430
vn 0.9152 0.3618 -0.1776
vn -0.3374 0.8568 0.3899
vn -0.6095 0.4813 0.6300
vn -0.2471 0.5192 0.8181
vn 0.0859 0.7097 0.6992
vn -0.6664 0.7436 -0.0543
vn -0.7985 0.5388 0.2687
vn -0.3123 0.9258 -0.2129
vn 0.0650 0.9979 0.0029
vn 0.2590 0.8925 0.3694
vn 0.4451 0.8235 0.3517
vn 0.2483 0.9534 -0.1715
vn -0.6675 0.2890 0.6863
vn -0.2188 0.3764 0.9003
vn -0.2832 0.8671 -0.4098
vn -0.7586 0.6072 -0.2361
vn -0.8909 0.3870 0.2380
vn 0.2457 0.5719 0.7827
vn 0.0851 0.9653 -0.2471
vn -0.3099 0.9345 0.1753
vn 0.0855 0.9296 0.3585
vn 0.4586 0.8741 0.1603
vn -0.3178 0.7544 -0.5743
vn -0.5064 0.8384 -0.2016
vn 0.0492 0.6728 -0.7382
vn 0.4259 0.7065 -0.5652
vn 0.6178 0.7604 -0.2001
vn 0.7461 0.6381 -0.1900
vn 0.5326 0.5409 -0.6509
vn -0.4570 0.8178 0.3498
vn 0.0913 0.8372 0.5392
vn 0.0534 0.5314 -0.8454
vn -0.4510 0.5845 -0.6744
vn -0.6700 0.7199 -0.1812
vn 0.5902 0.7450 0.3109
vn 0.3078 0.9294 0.2038
vn -0.0837 0.8140 0.5747
vn 0.2525 0.6759 0.6924
vn 0.5939 0.6413 0.4858
vn -0.1076 0.9793 -0.1716
vn -0.2839 0.9309 0.2298
vn 0.2498 0.8915 -0.3779
vn 0.5923 0.7763 -0.2155
vn 0.7470 0.6550 0.1134
vn 0.8415 0.5300 0.1049
vn 0.6845 0.6346 -0.3589
vn -0.2362 0.6733 0.7006
vn 0.2574 0.5405 0.8010
vn 0.2297 0.8004 -0.5537
vn -0.2860 0.8986 -0.3327
vn -0.4732 0.8517 0.2252
vn 0.6767 0.4814 0.5570
vn 0.2194 0.9308 0.2924
vn -0.2354 0.8416 0.4861
vn 0.0246 0.6909 0.7226
vn 0.3980 0.6379 0.6593
vn -0.0146 0.9889 -0.1482
vn -0.2819 0.9516 0.1227
vn 0.3527 0.9096 -0.2197
vn 0.6188 0.7851 0.0251
vn 0.6591 0.6489 0.3801
vn 0.7668 0.5128 0.3860
vn 0.7463 0.6588 -0.0949
vn -0.4176 0.7358 0.5331
vn -0.0430 0.5663 0.8231
vn 0.3757 0.8455 -0.3795
vn -0.1167 0.9364 -0.3310
vn -0.4341 0.8990 0.0575
vn 0.4454 0.4582 0.7692
vn -0.2736 0.9293 0.2481
vn -0.2419 0.6859 0.6863
vn 0.1100 0.8001 0.5897
vn 0.2286 0.9398 0.2540
vn -0.7067 0.6844 0.1796
vn -0.5847 0.6104 0.5344
vn -0.5804 0.7978 -0.1631
vn -0.2362 0.9383 -0.2527
vn 0.1143 0.9876 -0.1078
vn 0.2385 0.9455 -0.2217
vn -0.2010 0.8681 -0.4538
vn -0.2089 0.5243 0.8255
vn 0.2331 0.7063 0.6685
vn -0.6480 0.7033 -0.2922
vn -0.8420 0.5222 0.1352
vn -0.6535 0.4641 0.5980
vn 0.4321 0.8702 0.2365
vn -0.0720 0.9682 0.2395
vn 0.3324 0.9414 -0.0572
vn 0.0231 0.9593 -0.2815
vn -0.3438 0.9216 -0.1803
vn 0.2180 0.7706 0.5989
vn 0.4404 0.8472 0.2973
vn -0.1469 0.7056 0.6933
vn -0.4582 0.7508 0.4758
vn -0.5641 0.8177 0.1145
vn -0.6956 0.7155 0.0650
vn -0.5925 0.5955 0.5425
vn 0.4846 0.8552 -0.1837
vn 0.0539 0.8962 -0.4404
vn -0.1630 0.5724 0.8036
vn 0.3288 0.6225 0.7102
vn 0.5864 0.7531 0.2983
vn -0.4366 0.8282 -0.3513
usemtl Bark
s 1
f 8 7 17
f 8 17 18
f 71 69 25
f 71 25 26
f 5 4 14
f 5 14 15
f 1 2 12
f 1 12 11
f 9 8 18
f 9 18 19
f 6 5 15
f 6 15 16
f 3 1 11
f 3 11 13
f 10 9 19
f 10 19 20
f 7 6 16
f 7 16 17
f 4 3 13
f 4 13 14
f 2 10 20
f 2 20 12
f 13 11 62
f 13 62 66
f 65 61 21
f 65 21 23
f 79 77 29
f 79 29 30
f 73 71 26
f 73 26 27
f 64 79 30
f 64 30 22
f 75 73 27
f 75 27 28
f 69 67 24
f 69 24 25
f 67 65 23
f 67 23 24
f 77 75 28
f 77 28 29
f 53 51 36
f 53 36 37
f 19 18 76
f 19 76 78
f 16 15 70
f 16 70 72
f 61 64 22
f 61 22 21
f 20 19 78
f 20 78 80
f 17 16 72
f 17 72 74
f 14 13 66
f 14 66 68
f 12 20 80
f 12 80 63
f 18 17 74
f 18 74 76
f 15 14 68
f 15 68 70
f 44 59 40
f 44 40 32
f 21 22 43
f 21 43 42
f 55 53 37
f 55 37 38
f 49 47 34
f 49 34 35
f 47 45 33
f 47 33 34
f 57 55 38
f 57 38 39
f 51 49 35
f 51 35 36
f 45 41 31
f 45 31 33
f 59 57 39
f 59 39 40
f 31 32 40
f 31 40 39
f 31 39 38
f 31 38 37
f 31 37 36
f 31 36 35
f 31 35 34
f 31 34 33
f 30 29 58
f 30 58 60
f 27 26 52
f 27 52 54
f 24 23 46
f 24 46 48
f 22 30 60
f 22 60 43
f 28 27 54
f 28 54 56
f 25 24 48
f 25 48 50
f 23 21 42
f 23 42 46
f 29 28 56
f 29 56 58
f 26 25 50
f 26 50 52
f 42 43 44
f 42 44 41
f 46 42 41
f 46 41 45
f 48 46 45
f 48 45 47
f 50 48 47
f 50 47 49
f 52 50 49
f 52 49 51
f 54 52 51
f 54 51 53
f 56 54 53
f 56 53 55
f 58 56 55
f 58 55 57
f 60 58 57
f 60 57 59
f 43 60 59
f 43 59 44
f 41 44 32
f 41 32 31
f 62 63 64
f 62 64 61
f 66 62 61
f 66 61 65
f 68 66 65
f 68 65 67
f 70 68 67
f 70 67 69
f 72 70 69
f 72 69 71
f 74 72 71
f 74 71 73
f 76 74 73
f 76 73 75
f 78 76 75
f 78 75 77
f 80 78 77
f 80 77 79
f 63 80 79
f 63 79 64
f 11 12 63
f 11 63 62
f 111 112 213
f 111 213 212
f 194 195 83
f 194 83 82
f 96 97 204
f 96 204 202
f 95 96 202
f 95 202 199
f 98 100 210
f 98 210 205
f 92 93 196
f 92 196 193
f 99 91 192
f 99 192 208
f 94 95 199
f 94 199 198
f 97 98 205
f 97 205 204
f 100 99 208
f 100 208 210
f 207 191 81
f 207 81 89
f 197 200 85
f 197 85 84
f 203 206 88
f 203 88 87
f 206 209 90
f 206 90 88
f 200 201 86
f 200 86 85
f 93 94 198
f 93 198 196
f 209 207 89
f 209 89 90
f 201 203 87
f 201 87 86
f 195 197 84
f 195 84 83
f 191 194 82
f 191 82 81
f 214 215 103
f 214 103 102
f 116 117 224
f 116 224 222
f 115 116 222
f 115 222 219
f 118 120 230
f 118 230 225
f 112 113 216
f 112 216 213
f 119 111 212
f 119 212 228
f 114 115 219
f 114 219 218
f 117 118 225
f 117 225 224
f 120 119 228
f 120 228 230
f 227 211 101
f 227 101 109
f 217 220 105
f 217 105 104
f 223 226 108
f 223 108 107
f 226 229 110
f 226 110 108
f 220 221 106
f 220 106 105
f 113 114 218
f 113 218 216
f 229 227 109
f 229 109 110
f 221 223 107
f 221 107 106
f 215 217 104
f 215 104 103
f 211 214 102
f 211 102 101
f 89 81 82
f 89 82 83
f 89 83 84
f 89 84 85
f 89 85 86
f 89 86 87
f 89 87 88
f 89 88 90
f 109 101 102
f 109 102 103
f 109 103 104
f 109 104 105
f 109 105 106
f 109 106 107
f 109 107 108
f 109 108 110
f 153 137 136
f 153 136 151
f 144 132 140
f 144 140 159
f 121 142 143
f 121 143 122
f 155 138 137
f 155 137 153
f 149 135 134
f 149 134 147
f 147 134 133
f 147 133 145
f 157 139 138
f 157 138 155
f 151 136 135
f 151 135 149
f 145 133 131
f 145 131 141
f 159 140 139
f 159 139 157
f 130 160 158
f 130 158 129
f 127 154 152
f 127 152 126
f 124 148 146
f 124 146 123
f 122 143 160
f 122 160 130
f 128 156 154
f 128 154 127
f 125 150 148
f 125 148 124
f 123 146 142
f 123 142 121
f 129 158 156
f 129 156 128
f 126 152 150
f 126 150 125
f 142 141 144
f 142 144 143
f 146 145 141
f 146 141 142
f 148 147 145
f 148 145 146
f 150 149 147
f 150 147 148
f 152 151 149
f 152 149 150
f 154 153 151
f 154 151 152
f 156 155 153
f 156 153 154
f 158 157 155
f 158 155 156
f 160 159 157
f 160 157 158
f 143 144 159
f 143 159 160
f 141 131 132
f 141 132 144
f 187 169 167
f 187 167 183
f 163 175 179
f 163 179 165
f 164 182 185
f 164 185 168
f 165 179 183
f 165 183 167
f 182 164 178
f 182 178 190
f 189 177 171
f 189 171 186
f 186 171 168
f 186 168 185
f 169 187 174
f 169 174 162
f 190 189 186
f 190 186 185
f 190 185 182
f 162 163 165
f 162 165 167
f 162 167 169
f 180 179 175
f 180 175 176
f 172 177 178
f 172 178 181
f 184 183 179
f 184 179 180
f 190 178 177
f 190 177 189
f 188 187 183
f 188 183 184
f 181 178 164
f 181 164 161
f 173 174 187
f 173 187 188
f 161 164 168
f 161 168 166
f 162 174 175
f 162 175 163
f 166 168 171
f 166 171 170
f 170 171 177
f 170 177 172
f 131 133 134
f 131 134 135
f 131 135 136
f 131 136 137
f 131 137 138
f 131 138 139
f 131 139 140
f 131 140 132
f 192 193 194
f 192 194 191
f 208 192 191
f 208 191 207
f 198 199 200
f 198 200 197
f 196 198 197
f 196 197 195
f 193 196 195
f 193 195 194
f 204 205 206
f 204 206 203
f 202 204 203
f 202 203 201
f 199 202 201
f 199 201 200
f 210 208 207
f 210 207 209
f 205 210 209
f 205 209 206
f 212 213 214
f 212 214 211
f 228 212 211
f 228 211 227
f 218 219 220
f 218 220 217
f 216 218 217
f 216 217 215
f 213 216 215
f 213 215 214
f 224 225 226
f 224 226 223
f 222 224 223
f 222 223 221
f 219 222 221
f 219 221 220
f 230 228 227
f 230 227 229
f 225 230 229
f 225 229 226
f 91 92 193
f 91 193 192
f 176 175 174
f 176 174 173
f 232 241 242
f 232 242 234
f 241 232 239
f 241 239 245
f 244 238 236
f 244 236 243
f 243 236 234
f 243 234 242
f 245 244 243
f 245 243 242
f 245 242 241
f 237 238 239
f 237 239 240
f 245 239 238
f 245 238 244
f 240 239 232
f 240 232 231
f 231 232 234
f 231 234 233
f 233 234 236
f 233 236 235
f 235 236 238
f 235 238 237
f 247 256 257
f 247 257 249
f 256 247 254
f 256 254 260
f 259 253 251
f 259 251 258
f 258 251 249
f 258 249 257
f 260 259 258
f 260 258 257
f 260 257 256
f 252 253 254
f 252 254 255
f 260 254 253
f 260 253 259
f 255 254 247
f 255 247 246
f 246 247 249
f 246 249 248
f 248 249 251
f 248 251 250
f 250 251 253
f 250 253 252
usemtl Tree_Leaves
f 269 266 264
f 269 264 268
f 267 262 266
f 267 266 269
f 261 267 269
f 261 269 265
f 265 269 268
f 265 268 263
f 265 263 272
f 265 272 274
f 264 266 275
f 264 275 273
f 261 265 274
f 261 274 270
f 267 261 270
f 267 270 276
f 266 262 271
f 266 271 275
f 263 268 277
f 263 277 272
f 262 267 276
f 262 276 271
f 268 264 273
f 268 273 277
f 286 283 281
f 286 281 285
f 284 279 283
f 284 283 286
f 278 284 286
f 278 286 282
f 282 286 285
f 282 285 280
f 282 280 289
f 282 289 291
f 281 283 292
f 281 292 290
f 278 282 291
f 278 291 287
f 284 278 287
f 284 287 293
f 283 279 288
f 283 288 292
f 280 285 294
f 280 294 289
f 279 284 293
f 279 293 288
f 285 281 290
f 285 290 294
f 303 300 298
f 303 298 302
f 301 296 300
f 301 300 303
f 295 301 303
f 295 303 299
f 299 303 302
f 299 302 297
f 299 297 306
f 299 306 308
f 298 300 309
f 298 309 307
f 295 299 308
f 295 308 304
f 301 295 304
f 301 304 310
f 300 296 305
f 300 305 309
f 297 302 311
f 297 311 306
f 296 301 310
f 296 310 305
f 302 298 307
f 302 307 311
f 320 317 315
f 320 315 319
f 318 313 317
f 318 317 320
f 312 318 320
f 312 320 316
f 316 320 319
f 316 319 314
f 316 314 323
f 316 323 325
f 315 317 326
f 315 326 324
f 312 316 325
f 312 325 321
f 318 312 321
f 318 321 327
f 317 313 322
f 317 322 326
f 314 319 328
f 314 328 323
f 313 318 327
f 313 327 322
f 319 315 324
f 319 324 328
f 337 334 332
f 337 332 336
f 335 330 334
f 335 334 337
f 329 335 337
f 329 337 333
f 333 337 336
f 333 336 331
f 333 331 340
f 333 340 342
f 332 334 343
f 332 343 341
f 329 333 342
f 329 342 338
f 335 329 338
f 335 338 344
f 334 330 339
f 334 339 343
f 331 336 345
f 331 345 340
f 330 335 344
f 330 344 339
f 336 332 341
f 336 341 345
f 354 351 349
f 354 349 353
f 352 347 351
f 352 351 354
f 346 352 354
f 346 354 350
f 350 354 353
f 350 353 348
f 350 348 357
f 350 357 359
f 349 351 360
f 349 360 358
f 346 350 359
f 346 359 355
f 352 346 355
f 352 355 361
f 351 347 356
f 351 356 360
f 348 353 362
f 348 362 357
f 347 352 361
f 347 361 356
f 353 349 358
f 353 358 362
f 371 368 366
f 371 366 370
f 369 364 368
f 369 368 371
f 363 369 371
f 363 371 367
f 367 371 370
f 367 370 365
f 367 365 374
f 367 374 376
f 366 368 377
f 366 377 375
f 363 367 376
f 363 376 372
f 369 363 372
f 369 372 378
f 368 364 373
f 368 373 377
f 365 370 379
f 365 379 374
f 364 369 378
f 364 378 373
f 370 366 375
f 370 375 379
f 388 385 383
f 388 383 387
f 386 381 385
f 386 385 388
f 380 386 388
f 380 388 384
f 384 388 387
f 384 387 382
f 384 382 391
f 384 391 393
f 383 385 394
f 383 394 392
f 380 384 393
f 380 393 389
f 386 380 389
f 386 389 395
f 385 381 390
f 385 390 394
f 382 387 396
f 382 396 391
f 381 386 395
f 381 395 390
f 387 383 392
f 387 392 396
f 405 402 400
f 405 400 404
f 403 398 402
f 403 402 405
f 397 403 405
f 397 405 401
f 401 405 404
f 401 404 399
f 401 399 408
f 401 408 410
f 400 402 411
f 400 411 409
f 397 401 410
f 397 410 406
f 403 397 406
f 403 406 412
f 402 398 407
f 402 407 411
f 399 404 413
f 399 413 408
f 398 403 412
f 398 412 407
f 404 400 409
f 404 409 413
f 422 419 417
f 422 417 421
f 420 415 419
f 420 419 422
f 414 420 422
f 414 422 418
f 418 422 421
f 418 421 416
f 418 416 425
f 418 425 427
f 417 419 428
f 417 428 426
f 414 418 427
f 414 427 423
f 420 414 423
f 420 423 429
f 419 415 424
f 419 424 428
f 416 421 430
f 416 430 425
f 415 420 429
f 415 429 424
f 421 417 426
f 421 426 430
f 439 436 434
f 439 434 438
f 437 432 436
f 437 436 439
f 431 437 439
f 431 439 435
f 435 439 438
f 435 438 433
f 435 433 442
f 435 442 444
f 434 436 445
f 434 445 443
f 431 435 444
f 431 444 440
f 437 431 440
f 437 440 446
f 436 432 441
f 436 441 445
f 433 438 447
f 433 447 442
f 432 437 446
f 432 446 441
f 438 434 443
f 438 443 447
f 456 453 451
f 456 451 455
f 454 449 453
f 454 453 456
f 448 454 456
f 448 456 452
f 452 456 455
f 452 455 450
f 452 450 459
f 452 459 461
f 451 453 462
f 451 462 460
f 448 452 461
f 448 461 457
f 454 448 457
f 454 457 463
f 453 449 458
f 453 458 462
f 450 455 464
f 450 464 459
f 449 454 463
f 449 463 458
f 455 451 460
f 455 460 464
f 473 470 468
f 473 468 472
f 471 466 470
f 471 470 473
f 465 471 473
f 465 473 469
f 469 473 472
f 469 472 467
f 469 467 476
f 469 476 478
f 468 470 479
f 468 479 477
f 465 469 478
f 465 478 474
f 471 465 474
f 471 474 480
f 470 466 475
f 470 475 479
f 467 472 481
f 467 481 476
f 466 471 480
f 466 480 475
f 472 468 477
f 472 477 481
f 490 487 485
f 490 485 489
f 488 483 487
f 488 487 490
f 482 488 490
f 482 490 486
f 486 490 489
f 486 489 484
f 486 484 493
f 486 493 495
f 485 487 496
f 485 496 494
f 482 486 495
f 482 495 491
f 488 482 491
f 488 491 497
f 487 483 492
f 487 492 496
f 484 489 498
f 484 498 493
f 483 488 497
f 483 497 492
f 489 485 494
f 489 494 498
f 507 504 502
f 507 502 506
f 505 500 504
f 505 504 507
f 499 505 507
f 499 507 503
f 503 507 506
f 503 506 501
f 503 501 510
f 503 510 512
f 502 504 513
f 502 513 511
f 499 503 512
f 499 512 508
f 505 499 508
f 505 508 514
f 504 500 509
f 504 509 513
f 501 506 515
f 501 515 510
f 500 505 514
f 500 514 509
f 506 502 511
f 506 511 515
