# Triangulated for Ursina from CC0 leaftree (OpenGameArt)
mtllib leaftree.mtl
o leaftree
v 0.051039 -0.450630 -0.212928
v 0.215636 -0.450630 0.038009
v -0.034937 -0.434447 0.202367
v -0.199534 -0.434447 -0.048571
v 0.660495 6.123056 0.858910
v 0.609708 6.123056 0.881994
v 0.599789 6.173430 0.860171
v 0.650575 6.173430 0.837087
v -0.706840 4.459520 -2.179105
v -0.639583 4.459520 -2.206690
v -0.626795 4.523932 -2.175511
v -0.694052 4.523932 -2.147926
v -0.013608 7.690476 -0.549541
v 0.136623 7.690476 -0.562020
v 0.149081 7.699203 -0.412041
v -0.001149 7.699203 -0.399562
v 0.003013 3.945715 -1.681823
v 0.040727 3.945715 -1.661671
v 0.039007 3.988320 -1.658450
v 0.001292 3.988320 -1.678603
v 0.293577 5.579054 -0.110408
v 0.129802 5.586137 -0.008439
v 0.114941 5.757934 -0.054255
v 0.231967 5.790375 -0.188188
v 0.368508 5.695887 0.113665
v 0.240480 5.695835 0.173500
v 0.214302 5.823847 0.116868
v 0.340368 5.824000 0.054641
v 0.432637 5.783880 0.271089
v 0.316662 5.783880 0.323804
v 0.294010 5.898912 0.273970
v 0.409985 5.898912 0.221255
v 0.489110 5.862617 0.410804
v 0.384791 5.862617 0.458221
v 0.364416 5.966088 0.413394
v 0.468735 5.966089 0.365977
v 0.541221 5.935271 0.539724
v 0.447657 5.935271 0.582253
v 0.429382 6.028075 0.542048
v 0.522946 6.028075 0.499520
v 0.590137 6.003473 0.660742
v 0.506669 6.003473 0.698682
v 0.490366 6.086263 0.662815
v 0.573835 6.086263 0.624876
v 0.636562 6.068200 0.775598
v 0.562676 6.068200 0.809182
v 0.548245 6.141487 0.777433
v 0.622131 6.141486 0.743849
v -0.400557 3.944430 -1.364683
v -0.254478 3.948277 -1.452374
v -0.221035 4.097398 -1.360262
v -0.381969 4.087979 -1.285280
v -0.483691 4.074632 -1.550388
v -0.356995 4.074632 -1.602352
v -0.332906 4.195968 -1.543619
v -0.459602 4.195968 -1.491655
v -0.539097 4.162489 -1.698045
v -0.421228 4.162489 -1.746390
v -0.398817 4.275373 -1.691748
v -0.516686 4.275373 -1.643404
v -0.590494 4.243989 -1.835017
v -0.480811 4.243989 -1.880003
v -0.459957 4.349030 -1.829157
v -0.569639 4.349030 -1.784171
v -0.639176 4.321185 -1.964757
v -0.537250 4.321185 -2.006562
v -0.517870 4.418799 -1.959312
v -0.619797 4.418799 -1.917506
v -0.685823 4.395153 -2.089070
v -0.591327 4.395152 -2.127827
v -0.573360 4.485650 -2.084022
v -0.667856 4.485651 -2.045264
v -0.021942 5.700451 -0.464784
v 0.190551 5.724592 -0.441004
v -0.014874 5.727139 -0.219502
v -0.026262 6.038443 -0.471530
v 0.162956 6.038391 -0.485970
v 0.181508 6.049172 -0.294460
v -0.009671 6.049325 -0.282412
v -0.028722 6.317420 -0.488602
v 0.161585 6.317420 -0.504411
v 0.177367 6.328475 -0.314422
v -0.012941 6.328475 -0.298614
v -0.031223 6.600928 -0.505952
v 0.161189 6.600928 -0.521935
v 0.177145 6.612105 -0.329846
v -0.015267 6.612105 -0.313863
v -0.033753 6.887780 -0.523507
v 0.160788 6.887779 -0.539667
v 0.176921 6.899080 -0.345452
v -0.017620 6.899081 -0.329292
v -0.036307 7.177301 -0.541225
v 0.160383 7.177301 -0.557563
v 0.176695 7.188728 -0.361203
v -0.019996 7.188727 -0.344864
v -0.038881 7.469053 -0.559079
v 0.159975 7.469053 -0.575598
v 0.176466 7.480605 -0.377075
v -0.022390 7.480605 -0.360557
v -0.030233 3.601388 -0.261418
v 0.209931 3.640527 -0.363014
v 0.308259 3.614383 -0.100556
v 0.083936 3.571611 -0.002151
v 0.008439 3.934890 -0.242477
v 0.207533 3.934890 -0.326100
v 0.291183 3.961591 -0.127530
v 0.091724 3.961591 -0.043667
v -0.000780 4.214299 -0.270457
v 0.193689 4.214298 -0.352263
v 0.274931 4.239017 -0.159134
v 0.080463 4.239017 -0.077328
v -0.009496 4.482615 -0.298171
v 0.179974 4.482615 -0.377874
v 0.259128 4.506699 -0.189709
v 0.069658 4.506699 -0.110006
v -0.017997 4.744298 -0.325199
v 0.166598 4.744298 -0.402851
v 0.243716 4.767761 -0.219528
v 0.059121 4.767761 -0.141875
v -0.026331 5.000861 -0.351698
v 0.153484 5.000861 -0.427340
v 0.228605 5.023717 -0.248763
v 0.048789 5.023717 -0.173121
v -0.049574 5.318945 -0.375335
v 0.134995 5.320028 -0.462738
v 0.227622 5.287140 -0.247015
v 0.039180 5.323971 -0.167435
v 0.085079 0.048305 -0.282904
v 0.293380 0.048305 0.034662
v -0.023724 0.068785 0.242659
v -0.232024 0.068785 -0.074907
v 0.105700 0.583805 -0.281692
v 0.300482 0.583805 0.015265
v 0.003957 0.602955 0.209765
v -0.190825 0.602955 -0.087192
v 0.123364 1.042529 -0.280653
v 0.306567 1.042529 -0.001350
v 0.027670 1.060541 0.181586
v -0.155533 1.060541 -0.097717
v 0.139673 1.466060 -0.279695
v 0.312184 1.466060 -0.016691
v 0.049563 1.483021 0.155570
v -0.122949 1.483021 -0.107434
v 0.155068 1.865882 -0.278790
v 0.317487 1.865882 -0.031173
v 0.070231 1.881851 0.131010
v -0.092188 1.881851 -0.116607
v 0.169781 2.247968 -0.277925
v 0.322555 2.247967 -0.045013
v 0.089982 2.262988 0.107539
v -0.062792 2.262988 -0.125373
v 0.183953 2.615986 -0.277092
v 0.327437 2.615986 -0.058343
v 0.109005 2.630093 0.084933
v -0.034479 2.630093 -0.133817
v 0.169997 2.998191 -0.323509
v 0.331296 3.045714 -0.109272
v 0.122784 3.030780 0.061892
v -0.039613 3.074979 -0.157017
v -0.046781 3.315540 -0.388917
v 0.178274 3.321059 -0.446263
v -0.126242 3.508036 -0.597415
v 0.057592 3.508036 -0.672860
v 0.092756 3.685241 -0.587422
v -0.091444 3.685241 -0.511737
v -0.200603 3.625739 -0.795956
v -0.028811 3.625739 -0.866417
v 0.003853 3.790264 -0.786778
v -0.167940 3.790264 -0.716318
v -0.283825 3.757226 -1.019961
v -0.108017 3.750146 -1.109262
v -0.078616 3.924583 -1.032824
v -0.255095 3.911496 -0.948005
v -0.241085 3.853970 -1.349374
v -0.089567 3.871289 -1.320212
v -0.081661 3.995050 -1.289059
v -0.179051 4.012155 -1.416732
v -0.111017 3.904227 -1.520635
v -0.029893 3.904228 -1.477288
v -0.033594 3.995871 -1.470361
v -0.114718 3.995870 -1.513708
v -0.046144 3.925223 -1.618897
v 0.015737 3.925223 -1.585832
v 0.012914 3.995128 -1.580548
v -0.048967 3.995128 -1.613613
v -0.178342 3.898082 -1.432019
v -0.074695 3.886895 -1.375410
v -0.077956 3.999808 -1.364654
v 0.166127 5.785543 -0.106513
v 0.101883 5.811955 -0.198747
v 0.057154 5.750411 -0.125671
v 0.154982 5.290096 -0.172352
v -0.033865 5.290889 -0.263615
v -0.204429 3.921946 -1.427033
v 0.258974 5.618017 -0.291737
v 0.237283 5.783154 -0.327913
v 0.297469 5.692755 -0.143503
v -0.195639 4.045979 -1.393194
v 0.092807 5.461133 -0.089469
v 0.078509 5.739768 -0.499611
v -0.057170 5.746198 -0.361937
v 0.117491 3.293979 0.043693
v 0.250840 5.433520 -0.195302
v 0.638872 6.120909 0.878747
v 0.222886 3.608562 -0.010896
v 0.106485 5.691249 -0.011719
v 0.227511 5.542584 -0.024393
v -0.007051 5.504722 -0.183573
v -0.058272 5.516642 -0.309992
v 0.027608 5.277338 -0.450552
v -0.048729 5.507516 -0.428354
v 0.049659 5.506207 -0.488658
v 0.043468 5.639285 -0.097174
v 0.220449 5.291696 -0.361212
v 0.172874 5.521465 -0.454759
v 0.003385 3.618428 -0.109374
v -0.052631 3.821718 -1.053852
v 0.054903 3.155593 -0.364122
v 0.043964 2.976763 -0.268296
v -0.054178 3.195281 -0.280653
v 0.224084 3.476628 -0.411323
v 0.051399 3.315102 -0.462677
v -0.237853 3.886556 -1.400938
v 0.289753 2.968051 -0.236750
v -0.349291 3.950836 -1.448495
v -0.081680 3.445862 -0.334379
v -0.054987 3.353654 -0.196728
v 0.318428 3.349109 -0.097080
v 0.249131 3.037576 0.027524
v 0.602148 6.151382 0.879510
v 0.286452 3.208562 -0.280440
v 0.003639 3.327902 -0.054117
v 0.019692 3.020318 -0.006247
v -0.308250 3.877178 -1.353349
v 0.298569 3.621994 -0.233131
v 0.187907 3.154588 -0.385273
v -0.168125 3.941858 -0.968035
v -0.085349 3.885821 -1.354635
v 0.626870 6.181855 0.852343
v -0.155219 3.878801 -1.379421
v -0.065162 3.921705 -1.288957
v -0.073116 3.962945 -1.182892
v 0.663594 6.151382 0.851580
v -0.420877 4.020469 -1.308190
v -0.305481 4.114971 -1.303434
v -0.085429 4.004171 -1.337688
v -0.299658 3.835355 -0.972346
v -0.147158 -0.471699 0.096525
v -0.343218 3.850455 -1.184441
v -0.206452 3.723055 -1.066563
v 0.107082 -0.481609 0.149545
v -0.186055 3.803917 -1.260569
v -0.154744 4.030844 -1.183155
v 0.159732 -0.491519 -0.104773
v -0.094509 -0.481609 -0.157792
v -0.246582 4.039069 -1.444665
v -0.132940 4.053127 -1.313789
v -0.093170 3.825762 -1.236700
v -0.319117 4.000552 -1.118199
v -0.128876 4.027262 -1.388252
v -0.197891 3.957324 -1.434565
v -0.126147 3.871208 -1.406156
v -0.057131 3.941145 -1.359843
v -0.710329 4.495446 -2.167146
v -0.661755 4.534533 -2.164966
v -0.628701 4.495445 -2.200626
v -0.677275 4.456358 -2.202806
v -0.023972 7.710934 -0.474109
v 0.075258 7.716257 -0.390243
v 0.159291 7.710933 -0.489333
v 0.060061 7.705610 -0.573199
v 0.001127 3.967504 -1.687195
v 0.022655 3.992985 -1.673216
v 0.046241 3.967504 -1.663089
v 0.024713 3.942022 -1.677068
v 0.331903 5.645622 0.020927
v 0.309586 5.671849 0.154425
v 0.195898 5.645955 0.089368
v 0.203569 5.759821 0.156628
v 0.167834 5.784603 0.029173
v 0.272243 5.847935 0.074912
v 0.294671 5.787495 -0.048202
v 0.378259 5.759963 0.072709
v 0.402015 5.741363 0.195486
v 0.378897 5.762311 0.306791
v 0.279868 5.741357 0.251211
v 0.283591 5.841396 0.308771
v 0.255864 5.862639 0.198522
v 0.347750 5.920481 0.238268
v 0.377766 5.862659 0.142497
v 0.443056 5.841396 0.236288
v 0.461525 5.824157 0.342558
v 0.440771 5.843217 0.442917
v 0.351512 5.824157 0.392563
v 0.355043 5.914353 0.444698
v 0.330025 5.933275 0.345290
v 0.412755 5.985489 0.381281
v 0.440038 5.933276 0.295285
v 0.498483 5.914353 0.379500
v 0.515624 5.899584 0.476398
v 0.497865 5.917871 0.568527
v 0.416777 5.899584 0.521328
v 0.420976 5.981674 0.570125
v 0.397470 5.997627 0.478853
v 0.472738 6.045476 0.513245
v 0.496318 5.997627 0.433923
v 0.549627 5.981674 0.511648
v 0.566028 5.969859 0.601096
v 0.551460 5.987949 0.686437
v 0.477584 5.969858 0.641298
v 0.482867 6.044868 0.687862
v 0.460309 6.057584 0.603293
v 0.529044 6.101786 0.637121
v 0.548753 6.057584 0.563092
v 0.597636 6.044868 0.635696
v 0.613628 6.036225 0.718859
v 0.602325 6.054460 0.798343
v 0.535009 6.036225 0.754595
v 0.541607 6.104844 0.799604
v 0.519653 6.114206 0.720812
v 0.582482 6.155228 0.754688
v 0.598273 6.114206 0.685076
v 0.643201 6.104845 0.753426
v 0.655978 6.098935 0.827741
v 0.589195 6.098934 0.858096
v 0.576151 6.165174 0.829399
v 0.642934 6.165174 0.799044
v -0.452082 4.024189 -1.468978
v -0.424860 4.051881 -1.587382
v -0.319905 4.024940 -1.526997
v -0.321195 4.135300 -1.582729
v -0.293936 4.152442 -1.462188
v -0.391737 4.218718 -1.506625
v -0.427019 4.150644 -1.405038
v -0.495402 4.135299 -1.511278
v -0.512028 4.119565 -1.625905
v -0.484365 4.141324 -1.732463
v -0.389846 4.119565 -1.676017
v -0.387922 4.218931 -1.728134
v -0.366615 4.236578 -1.619377
v -0.453549 4.296538 -1.657331
v -0.488797 4.236578 -1.569264
v -0.549992 4.218931 -1.661660
v -0.565195 4.203873 -1.767596
v -0.539563 4.224293 -1.867043
v -0.451483 4.203873 -1.814235
v -0.449819 4.296509 -1.863015
v -0.429862 4.312774 -1.761521
v -0.510888 4.368725 -1.797131
v -0.543575 4.312774 -1.714882
v -0.600632 4.296509 -1.801159
v -0.615124 4.283045 -1.900658
v -0.591847 4.302882 -1.994519
v -0.509366 4.283045 -1.944034
v -0.508448 4.369992 -1.990775
v -0.489257 4.384329 -1.895007
v -0.565199 4.437102 -1.929550
v -0.595016 4.384329 -1.851631
v -0.648598 4.369992 -1.933293
v -0.662724 4.358525 -2.027512
v -0.641944 4.378184 -2.116663
v -0.564549 4.358525 -2.067779
v -0.564626 4.440402 -2.113192
v -0.545882 4.452547 -2.022268
v -0.617239 4.502618 -2.056430
v -0.644058 4.452547 -1.982001
v -0.694557 4.440401 -2.059900
v -0.704905 4.430715 -2.145737
v -0.617531 4.430715 -2.181574
v -0.600918 4.514392 -2.141070
v -0.688292 4.514392 -2.105233
v -0.025055 5.895311 -0.464388
v 0.065052 6.036386 -0.514434
v 0.167632 5.897935 -0.473062
v 0.207894 6.043762 -0.392698
v 0.192973 5.913826 -0.270585
v 0.089213 6.051280 -0.252753
v -0.008289 5.909189 -0.268827
v -0.053628 6.043904 -0.374488
v -0.027486 6.177252 -0.480024
v 0.063472 6.315348 -0.532129
v 0.161904 6.177245 -0.495597
v 0.205159 6.322948 -0.412381
v 0.177967 6.188221 -0.306198
v 0.085172 6.330548 -0.270895
v -0.011668 6.188239 -0.290925
v -0.056514 6.322948 -0.390644
v -0.029969 6.458699 -0.497248
v 0.061991 6.598832 -0.549961
v 0.161388 6.458699 -0.513144
v 0.205244 6.606517 -0.428888
v 0.177257 6.469814 -0.322108
v 0.083931 6.614201 -0.285838
v -0.014100 6.469814 -0.306213
v -0.059322 6.606517 -0.406911
v -0.032485 6.743985 -0.514707
v 0.060492 6.885661 -0.568002
v 0.160989 6.743985 -0.530778
v 0.205331 6.893430 -0.445589
v 0.177033 6.755224 -0.337629
v 0.082675 6.901199 -0.300956
v -0.016441 6.755224 -0.321557
v -0.062163 6.893430 -0.423369
v -0.035028 7.032238 -0.532347
v 0.058980 7.175159 -0.586212
v 0.160586 7.032238 -0.548597
v 0.205418 7.183015 -0.462447
v 0.176808 7.043601 -0.353311
v 0.081408 7.190870 -0.316216
v -0.018806 7.043601 -0.337062
v -0.065031 7.183015 -0.439981
v -0.037592 7.322921 -0.550136
v 0.057455 7.466888 -0.604561
v 0.160180 7.322920 -0.566565
v 0.205506 7.474829 -0.479434
v 0.176581 7.334410 -0.369125
v 0.080130 7.482771 -0.331593
v -0.021191 7.334410 -0.352697
v -0.067921 7.474830 -0.456721
v -0.035428 7.606587 -0.563539
v 0.155835 7.606587 -0.579427
v 0.171696 7.617698 -0.388485
v -0.019567 7.617698 -0.372597
v 0.008473 3.785879 -0.233769
v 0.092336 3.929883 -0.321543
v 0.213102 3.788814 -0.319680
v 0.083229 3.682441 -0.342964
v 0.286723 3.948240 -0.242517
v 0.299483 3.810535 -0.111987
v 0.207103 3.966598 -0.048344
v 0.095616 3.807920 -0.025698
v 0.012717 3.948241 -0.127371
v 0.003709 4.076673 -0.256352
v 0.081222 4.209663 -0.347572
v 0.200669 4.076673 -0.339190
v 0.270773 4.226657 -0.271037
v 0.283012 4.101882 -0.143481
v 0.192930 4.243652 -0.082020
v 0.086006 4.101882 -0.060613
v 0.003379 4.226658 -0.158554
v -0.005169 4.349419 -0.284413
v 0.070397 4.478100 -0.373303
v 0.186782 4.349419 -0.365160
v 0.255077 4.494658 -0.298736
v 0.266973 4.373818 -0.174531
v 0.179235 4.511215 -0.114577
v 0.075022 4.373818 -0.093784
v -0.005444 4.494657 -0.189144
v -0.013770 4.614175 -0.311759
v 0.059841 4.739898 -0.398398
v 0.173249 4.614175 -0.390431
v 0.239768 4.756029 -0.325749
v 0.251380 4.637947 -0.204700
v 0.165878 4.772160 -0.146328
v 0.064361 4.637947 -0.126028
v -0.014050 4.756029 -0.218977
v -0.022183 4.873150 -0.338507
v 0.049491 4.996575 -0.423002
v 0.160012 4.873150 -0.415150
v 0.224759 5.012289 -0.352234
v 0.236126 4.896309 -0.234211
v 0.152782 5.028003 -0.177459
v 0.053932 4.896309 -0.157568
v -0.022486 5.012289 -0.248227
v -0.032226 5.133527 -0.364539
v 0.146663 5.133740 -0.440489
v 0.222879 5.151545 -0.259384
v 0.043836 5.154476 -0.184371
v 0.070813 -0.256049 -0.271382
v 0.248686 0.044465 -0.163120
v 0.277128 -0.256049 0.043157
v 0.173884 0.058545 0.198204
v -0.036953 -0.235765 0.249172
v -0.187331 0.072625 0.122876
v -0.243268 -0.235765 -0.065367
v -0.112529 0.058545 -0.238449
v 0.096013 0.332254 -0.282261
v 0.258689 0.580214 -0.169682
v 0.297146 0.332254 0.024377
v 0.188742 0.593380 0.168194
v -0.009046 0.352029 0.225217
v -0.149032 0.606546 0.097755
v -0.210178 0.352029 -0.081421
v -0.079085 0.593380 -0.240122
v 0.114746 0.818739 -0.281160
v 0.267258 1.039152 -0.175302
v 0.303598 0.818739 0.006756
v 0.201469 1.051535 0.142487
v 0.016102 0.837307 0.195333
v -0.116225 1.063919 0.076235
v -0.172751 0.837307 -0.092583
v -0.050435 1.051535 -0.241555
v 0.131653 1.257793 -0.280166
v 0.275170 1.462880 -0.180492
v 0.309422 1.257793 -0.009147
v 0.213220 1.474540 0.118753
v 0.038797 1.275271 0.168363
v -0.085934 1.486201 0.056367
v -0.138972 1.275271 -0.102656
v -0.023984 1.474541 -0.242878
v 0.147468 1.668493 -0.279237
v 0.282639 1.862888 -0.185391
v 0.314869 1.668493 -0.024023
v 0.224313 1.873866 0.096347
v 0.060027 1.684952 0.143135
v -0.057339 1.884845 0.037610
v -0.107374 1.684952 -0.112079
v 0.000987 1.873866 -0.244127
v 0.162500 2.058879 -0.278353
v 0.289776 2.245152 -0.190072
v 0.320047 2.058879 -0.038164
v 0.234914 2.255478 0.074934
v 0.080207 2.074369 0.119154
v -0.030013 2.265804 0.019686
v -0.077340 2.074369 -0.121035
v 0.024849 2.255478 -0.245320
v 0.176928 2.433562 -0.277505
v 0.296651 2.613341 -0.194582
v 0.325017 2.433562 -0.051735
v 0.245124 2.623040 0.054311
v 0.099576 2.448122 0.096139
v -0.003692 2.632738 0.002422
v -0.048514 2.448122 -0.129632
v 0.047834 2.623040 -0.246470
v 0.188005 2.797045 -0.281930
v 0.329938 2.802060 -0.068497
v 0.117706 2.814831 0.073761
v -0.024443 2.815919 -0.139323
v -0.087681 3.439736 -0.493810
v -0.040884 3.474810 -0.651180
v 0.106075 3.440592 -0.569528
v 0.109677 3.596638 -0.644309
v 0.142085 3.638998 -0.481507
v 0.007215 3.718468 -0.533537
v -0.054127 3.635265 -0.401503
v -0.143346 3.596639 -0.540408
v -0.163992 3.567711 -0.698341
v -0.120831 3.594891 -0.846119
v 0.013658 3.567711 -0.771209
v 0.019732 3.708002 -0.839809
v 0.047461 3.737988 -0.688828
v -0.075919 3.821112 -0.736616
v -0.130234 3.737988 -0.615930
v -0.216483 3.708002 -0.742926
v -0.237871 3.684774 -0.895551
v -0.069589 3.683286 -0.965056
v -0.038183 3.844768 -0.887881
v -0.206512 3.843918 -0.818856
v -0.146583 3.894672 -1.468433
v -0.069761 3.887044 -1.500261
v -0.054591 3.893274 -1.419125
v -0.016533 3.950049 -1.465697
v -0.058604 3.996673 -1.411032
v -0.074850 4.013053 -1.490736
v -0.150278 3.998216 -1.459774
v -0.128078 3.950049 -1.525300
v -0.077345 3.915125 -1.571638
v -0.014674 3.912117 -1.603355
v -0.006209 3.915125 -1.533627
v 0.025928 3.960176 -1.576990
v -0.009454 3.995485 -1.527553
v -0.018556 4.008235 -1.596090
v -0.080590 3.995485 -1.565564
v -0.059158 3.960176 -1.622455
v -0.017577 3.935245 -1.660215
v 0.034208 3.935245 -1.632545
v 0.031846 3.993744 -1.628123
v -0.019940 3.993744 -1.655793
v 0.102843 5.779121 -0.151981
v -0.074734 3.324193 -0.267817
v 0.267651 5.698725 -0.257907
v 0.471409 5.878716 0.309546
v 0.381003 5.953735 0.311424
v 0.320141 5.878716 0.378303
v -0.360642 3.928546 -1.141184
v -0.039719 5.436752 -0.253424
v 0.003230 5.424002 -0.464580
v 0.059478 5.699773 -0.079469
v 0.009819 3.103121 -0.303786
v 0.410547 5.803697 0.376424
v 0.412771 5.802013 0.158515
v 0.312292 5.885390 0.160603
v -0.065564 5.593904 -0.370059
v 0.099678 5.590168 -0.497243
v 0.035349 5.538332 -0.115304
v 0.244986 5.801995 0.235344
v 0.345465 5.718618 0.233256
v 0.338106 5.717770 -0.025843
v 0.037813 3.217452 0.006953
v 0.224911 5.810408 -0.019745
v -0.020363 3.433465 -0.116948
v 0.238554 5.464177 -0.332828
v 0.265503 3.100386 -0.305018
v 0.098796 3.211483 -0.413420
v -0.305530 3.910100 -1.416808
v 0.158133 5.716999 0.072432
v 0.270355 5.618625 0.068478
v 0.029297 3.968525 -1.685646
v 0.298136 3.407991 -0.252540
v 0.067497 7.744708 -0.483673
v -0.675177 4.503252 -2.197690
v 0.238083 3.327320 0.010379
v -0.138778 4.046196 -1.360515
v -0.220550 3.991316 -1.423503
v -0.144274 3.880734 -1.393995
v -0.064680 3.938323 -1.334661
v -0.112217 4.025183 -1.227256
v 0.002584 -0.563602 -0.001695
v -0.237491 4.030714 -1.136471
v -0.265299 3.805051 -1.219739
v 0.185881 5.425358 -0.111384
v -0.062608 3.879215 -1.185487
v 0.638598 6.157969 0.878146
v -0.157881 3.841824 -1.326642
v 0.469820 5.881200 0.506827
v 0.388590 5.948605 0.508515
v 0.443274 6.016010 0.448424
v 0.524505 5.948605 0.446736
v 0.525045 5.953410 0.628323
v 0.452363 6.013721 0.629833
v 0.501292 6.074033 0.576066
v 0.573974 6.013721 0.574556
v 0.577198 6.021605 0.743061
v 0.512590 6.075216 0.744404
v 0.556084 6.128828 0.696610
v 0.620692 6.075216 0.695267
v 0.625298 6.086839 0.848884
v 0.570437 6.132364 0.850024
v 0.607369 6.177888 0.809440
v 0.662230 6.132363 0.808300
v -0.391405 4.002984 -1.511412
v -0.284530 4.089466 -1.506590
v -0.355981 4.174642 -1.421047
v -0.464193 4.087331 -1.425820
v -0.455292 4.097625 -1.661581
v -0.355321 4.178071 -1.657093
v -0.423350 4.258518 -1.583701
v -0.523321 4.178071 -1.588188
v -0.512393 4.183454 -1.800800
v -0.419352 4.258324 -1.796623
v -0.482665 4.333193 -1.728318
v -0.575706 4.258324 -1.732494
v -0.566015 4.264055 -1.931538
v -0.479482 4.333688 -1.927654
v -0.538366 4.403320 -1.864127
v -0.624900 4.333688 -1.868011
v -0.617137 4.340897 -2.056179
v -0.536808 4.405536 -2.052573
v -0.591470 4.470176 -1.993601
v -0.671799 4.405536 -1.997206
v -0.664600 4.415386 -2.171902
v -0.593102 4.472920 -2.168692
v -0.641755 4.530454 -2.116203
v -0.713253 4.472920 -2.119412
v 0.067403 5.895940 -0.505669
v 0.215824 5.907406 -0.373456
v 0.095664 5.916770 -0.235044
v -0.052803 5.903323 -0.366284
v 0.064220 6.175189 -0.523295
v 0.205469 6.182731 -0.403789
v 0.086139 6.190289 -0.263078
v -0.055111 6.182748 -0.382583
v 0.062734 6.456614 -0.541015
v 0.205201 6.464256 -0.420606
v 0.084554 6.471899 -0.278341
v -0.057913 6.464257 -0.398750
v 0.061244 6.741878 -0.558958
v 0.205288 6.749604 -0.437217
v 0.083305 6.757330 -0.293378
v -0.060739 6.749604 -0.415119
v 0.059738 7.030107 -0.577088
v 0.205375 7.037919 -0.454000
v 0.082043 7.045731 -0.308570
v -0.063594 7.037920 -0.431658
v 0.058219 7.320766 -0.595370
v 0.205462 7.328664 -0.470925
v 0.080770 7.336562 -0.323891
v -0.066473 7.328664 -0.448336
v 0.057212 7.606084 -0.607490
v 0.199733 7.613729 -0.487036
v 0.079040 7.621375 -0.344718
v -0.063481 7.613729 -0.465172
v 0.095283 3.787204 -0.314696
v 0.293985 3.798744 -0.230757
v 0.214278 3.814399 -0.030663
v 0.015210 3.798072 -0.113693
v 0.086754 4.071946 -0.334470
v 0.278774 4.089277 -0.256871
v 0.199944 4.106609 -0.065349
v 0.007923 4.089277 -0.142948
v 0.075771 4.344845 -0.360530
v 0.262868 4.361619 -0.284986
v 0.186033 4.378394 -0.098415
v -0.001064 4.361619 -0.173959
v 0.065090 4.609718 -0.385919
v 0.247380 4.626061 -0.312317
v 0.172520 4.642405 -0.130540
v -0.009771 4.626061 -0.204142
v 0.054643 4.868810 -0.410755
v 0.232230 4.884731 -0.339051
v 0.159301 4.900652 -0.161963
v -0.018287 4.884731 -0.233667
v 0.043028 5.127282 -0.435543
v 0.218476 5.142416 -0.363387
v 0.147961 5.155945 -0.188391
v -0.027073 5.142437 -0.260964
v 0.233007 -0.263725 -0.152836
v 0.158808 -0.249759 0.205575
v -0.199495 -0.235793 0.130854
v -0.125296 -0.249759 -0.227557
v 0.253990 0.328547 -0.166600
v 0.181762 0.342142 0.182291
v -0.167023 0.355737 0.109555
v -0.094795 0.342142 -0.239336
v 0.263078 0.815258 -0.172560
v 0.195260 0.828023 0.155029
v -0.132230 0.840788 0.086733
v -0.064412 0.828023 -0.240855
v 0.271280 1.254516 -0.177940
v 0.207441 1.266532 0.130424
v -0.100829 1.278548 0.066137
v -0.036991 1.266532 -0.242227
v 0.278951 1.665407 -0.182972
v 0.218836 1.676723 0.107408
v -0.071456 1.688038 0.046870
v -0.011341 1.676723 -0.243510
v 0.286244 2.055975 -0.187755
v 0.229667 2.066624 0.085531
v -0.043536 2.077273 0.028557
v 0.013040 2.066624 -0.244730
v 0.293243 2.430832 -0.192346
v 0.240063 2.440842 0.064534
v -0.016739 2.450852 0.010980
v 0.036441 2.440842 -0.245900
v 0.298374 2.793509 -0.201317
v 0.249503 2.809690 0.043085
v 0.008424 2.816022 -0.005512
v 0.055826 2.803081 -0.249616
v 0.002138 3.407399 -0.550411
v 0.159716 3.538978 -0.538351
v 0.049699 3.674900 -0.428316
v -0.106948 3.535753 -0.434095
v -0.081501 3.535784 -0.750224
v 0.063873 3.652849 -0.743684
v -0.035053 3.769915 -0.636930
v -0.180427 3.652849 -0.643470
v -0.160198 3.654302 -0.944202
v -0.021893 3.763024 -0.937526
v -0.117218 3.874000 -0.838784
v -0.253348 3.764470 -0.844518
v -0.099864 3.874572 -1.445350
v -0.039379 3.944697 -1.405886
v -0.105164 4.016845 -1.433832
v -0.165650 3.946719 -1.473296
v -0.041168 3.900058 -1.553771
v 0.005506 3.955305 -1.523463
v -0.045631 4.010552 -1.545420
v -0.092306 3.955305 -1.575728
v 0.009019 3.924399 -1.647697
v 0.042933 3.964542 -1.625675
v 0.005777 4.004685 -1.641628
v -0.028137 3.964542 -1.663650
v 0.026908 6.404305 -0.339651
v 1.480716 8.232304 0.835188
v -0.540364 8.228113 1.493289
v -1.790699 9.225797 -0.379595
v -0.545691 8.399275 -2.380971
v 1.466415 8.424284 -1.731085
v 0.482531 11.930871 1.108463
v -1.292354 12.226535 0.651545
v -1.293743 11.846107 -1.618001
v 0.477384 11.847590 -2.196763
v 1.575312 11.911226 -0.400621
v -0.020519 13.447092 -0.741116
v -0.371873 6.774818 0.881213
v 1.069235 6.775433 0.410720
v 0.549505 8.074056 1.408834
v 1.719814 9.091201 -0.382830
v 1.058780 6.761119 -1.100139
v -1.257084 6.757072 -0.343810
v -1.375904 8.055411 0.792188
v -0.373006 6.743245 -1.562635
v -1.371666 8.248489 -1.671638
v 0.539977 8.250087 -2.296301
v 1.723014 10.239099 0.194497
v 1.702628 10.404609 -0.885798
v 0.004364 10.258000 1.416173
v 1.045029 10.319098 1.085639
v -1.754992 10.148582 0.197064
v -1.037275 10.167056 1.067086
v -1.043351 10.223701 -2.238033
v -1.740402 10.271356 -0.914423
v 1.039832 10.237524 -2.241625
v -0.002303 10.224582 -2.578214
v 1.208434 12.381437 0.599163
v -0.474110 12.062329 1.033854
v -1.517992 12.029827 -0.397770
v -0.479021 11.981683 -2.123822
v 1.207192 12.002638 -1.579211
v 0.193377 13.265666 -0.086993
v 0.665397 13.257180 -0.738828
v -0.572444 13.256147 -0.334344
v -0.573736 13.241783 -1.139040
v 0.191286 13.242424 -1.389031
f 23 189 569
f 23 569 191
f 24 190 569
f 24 569 189
f 75 191 569
f 75 569 190
f 100 226 570
f 100 570 227
f 160 220 570
f 160 570 226
f 159 227 570
f 159 570 220
f 21 195 571
f 21 571 197
f 74 196 571
f 74 571 195
f 24 197 571
f 24 571 196
f 36 299 572
f 36 572 298
f 299 33 292
f 299 292 572
f 572 292 29
f 572 29 291
f 298 572 291
f 298 291 32
f 35 297 573
f 35 573 296
f 297 36 298
f 297 298 573
f 573 298 32
f 573 32 289
f 296 573 289
f 296 289 31
f 34 295 574
f 34 574 294
f 295 35 296
f 295 296 574
f 574 296 31
f 574 31 287
f 294 574 287
f 294 287 30
f 173 259 575
f 173 575 247
f 259 52 244
f 259 244 575
f 575 244 49
f 575 49 249
f 247 575 249
f 247 249 170
f 124 193 576
f 124 576 209
f 127 208 576
f 127 576 193
f 75 209 576
f 75 576 208
f 125 210 577
f 125 577 212
f 124 211 577
f 124 577 210
f 73 212 577
f 73 577 211
f 22 206 578
f 22 578 213
f 23 191 578
f 23 578 206
f 75 213 578
f 75 578 191
f 160 218 579
f 160 579 220
f 156 219 579
f 156 579 218
f 159 220 579
f 159 579 219
f 33 293 580
f 33 580 292
f 293 34 294
f 293 294 580
f 580 294 30
f 580 30 285
f 292 580 285
f 292 285 29
f 32 291 581
f 32 581 290
f 291 29 284
f 291 284 581
f 581 284 25
f 581 25 283
f 290 581 283
f 290 283 28
f 31 289 582
f 31 582 288
f 289 32 290
f 289 290 582
f 582 290 28
f 582 28 281
f 288 582 281
f 288 281 27
f 73 211 583
f 73 583 201
f 124 209 583
f 124 583 211
f 75 201 583
f 75 583 209
f 125 212 584
f 125 584 215
f 73 200 584
f 73 584 212
f 74 215 584
f 74 584 200
f 127 199 585
f 127 585 208
f 22 213 585
f 22 585 199
f 75 208 585
f 75 585 213
f 30 287 586
f 30 586 286
f 287 31 288
f 287 288 586
f 586 288 27
f 586 27 279
f 286 586 279
f 286 279 26
f 29 285 587
f 29 587 284
f 285 30 286
f 285 286 587
f 587 286 26
f 587 26 277
f 284 587 277
f 284 277 25
f 28 283 588
f 28 588 282
f 283 25 276
f 283 276 588
f 588 276 21
f 588 21 197
f 282 588 197
f 282 197 24
f 103 232 589
f 103 589 202
f 159 233 589
f 159 589 232
f 158 202 589
f 158 589 233
f 27 281 590
f 27 590 280
f 281 28 282
f 281 282 590
f 590 282 24
f 590 24 189
f 280 590 189
f 280 189 23
f 103 216 591
f 103 591 232
f 100 227 591
f 100 591 216
f 159 232 591
f 159 591 227
f 126 214 592
f 126 592 203
f 214 125 215
f 214 215 592
f 592 215 74
f 592 74 195
f 203 592 195
f 203 195 21
f 156 236 593
f 156 593 224
f 161 231 593
f 161 593 236
f 157 224 593
f 157 593 231
f 161 236 594
f 161 594 222
f 156 218 594
f 156 594 236
f 160 222 594
f 160 594 218
f 174 234 595
f 174 595 223
f 49 225 595
f 49 595 234
f 50 223 595
f 50 595 225
f 26 279 596
f 26 596 278
f 279 27 280
f 279 280 596
f 596 280 23
f 596 23 206
f 278 596 206
f 278 206 22
f 25 277 597
f 25 597 276
f 277 26 278
f 277 278 597
f 597 278 22
f 597 22 207
f 276 597 207
f 276 207 21
f 20 273 598
f 20 598 272
f 273 19 274
f 273 274 598
f 598 274 18
f 598 18 275
f 272 598 275
f 272 275 17
f 101 235 599
f 101 599 221
f 235 102 228
f 235 228 599
f 599 228 157
f 599 157 231
f 221 599 231
f 221 231 161
f 16 269 600
f 16 600 268
f 269 15 270
f 269 270 600
f 600 270 14
f 600 14 271
f 268 600 271
f 268 271 13
f 12 265 601
f 12 601 264
f 265 11 266
f 265 266 601
f 601 266 10
f 601 10 267
f 264 601 267
f 264 267 9
f 157 228 602
f 157 602 229
f 228 102 205
f 228 205 602
f 602 205 103
f 602 103 202
f 229 602 202
f 229 202 158
f 176 246 603
f 176 603 257
f 246 188 260
f 246 260 603
f 603 260 177
f 603 177 198
f 257 603 198
f 257 198 51
f 51 198 604
f 51 604 256
f 198 177 261
f 198 261 604
f 604 261 186
f 604 186 194
f 256 604 194
f 256 194 50
f 50 194 605
f 50 605 240
f 194 186 262
f 194 262 605
f 605 262 187
f 605 187 238
f 240 605 238
f 240 238 175
f 175 238 606
f 175 606 241
f 238 187 263
f 238 263 606
f 606 263 188
f 606 188 246
f 241 606 246
f 241 246 176
f 172 242 607
f 172 607 253
f 176 257 607
f 176 607 242
f 51 253 607
f 51 607 257
f 1 254 608
f 1 608 255
f 254 2 251
f 254 251 608
f 608 251 3
f 608 3 248
f 255 608 248
f 255 248 4
f 52 259 609
f 52 609 245
f 259 173 237
f 259 237 609
f 609 237 172
f 609 172 253
f 245 609 253
f 245 253 51
f 174 252 610
f 174 610 234
f 252 171 250
f 252 250 610
f 610 250 170
f 610 170 249
f 234 610 249
f 234 249 49
f 126 203 611
f 126 611 192
f 203 21 207
f 203 207 611
f 611 207 22
f 611 22 199
f 192 611 199
f 192 199 127
f 171 258 612
f 171 612 217
f 258 175 241
f 258 241 612
f 612 241 176
f 612 176 242
f 217 612 242
f 217 242 172
f 8 239 613
f 8 613 243
f 239 7 230
f 239 230 613
f 613 230 6
f 613 6 204
f 243 613 204
f 243 204 5
f 175 258 614
f 175 614 240
f 258 171 252
f 258 252 614
f 614 252 174
f 614 174 223
f 240 614 223
f 240 223 50
f 37 301 615
f 37 615 300
f 301 38 302
f 301 302 615
f 615 302 34
f 615 34 293
f 300 615 293
f 300 293 33
f 38 303 616
f 38 616 302
f 303 39 304
f 303 304 616
f 616 304 35
f 616 35 295
f 302 616 295
f 302 295 34
f 39 305 617
f 39 617 304
f 305 40 306
f 305 306 617
f 617 306 36
f 617 36 297
f 304 617 297
f 304 297 35
f 40 307 618
f 40 618 306
f 307 37 300
f 307 300 618
f 618 300 33
f 618 33 299
f 306 618 299
f 306 299 36
f 41 309 619
f 41 619 308
f 309 42 310
f 309 310 619
f 619 310 38
f 619 38 301
f 308 619 301
f 308 301 37
f 42 311 620
f 42 620 310
f 311 43 312
f 311 312 620
f 620 312 39
f 620 39 303
f 310 620 303
f 310 303 38
f 43 313 621
f 43 621 312
f 313 44 314
f 313 314 621
f 621 314 40
f 621 40 305
f 312 621 305
f 312 305 39
f 44 315 622
f 44 622 314
f 315 41 308
f 315 308 622
f 622 308 37
f 622 37 307
f 314 622 307
f 314 307 40
f 45 317 623
f 45 623 316
f 317 46 318
f 317 318 623
f 623 318 42
f 623 42 309
f 316 623 309
f 316 309 41
f 46 319 624
f 46 624 318
f 319 47 320
f 319 320 624
f 624 320 43
f 624 43 311
f 318 624 311
f 318 311 42
f 47 321 625
f 47 625 320
f 321 48 322
f 321 322 625
f 625 322 44
f 625 44 313
f 320 625 313
f 320 313 43
f 48 323 626
f 48 626 322
f 323 45 316
f 323 316 626
f 626 316 41
f 626 41 315
f 322 626 315
f 322 315 44
f 5 204 627
f 5 627 324
f 204 6 325
f 204 325 627
f 627 325 46
f 627 46 317
f 324 627 317
f 324 317 45
f 6 230 628
f 6 628 325
f 230 7 326
f 230 326 628
f 628 326 47
f 628 47 319
f 325 628 319
f 325 319 46
f 7 239 629
f 7 629 326
f 239 8 327
f 239 327 629
f 629 327 48
f 629 48 321
f 326 629 321
f 326 321 47
f 8 243 630
f 8 630 327
f 243 5 324
f 243 324 630
f 630 324 45
f 630 45 323
f 327 630 323
f 327 323 48
f 53 329 631
f 53 631 328
f 329 54 330
f 329 330 631
f 631 330 50
f 631 50 225
f 328 631 225
f 328 225 49
f 54 331 632
f 54 632 330
f 331 55 332
f 331 332 632
f 632 332 51
f 632 51 256
f 330 632 256
f 330 256 50
f 55 333 633
f 55 633 332
f 333 56 334
f 333 334 633
f 633 334 52
f 633 52 245
f 332 633 245
f 332 245 51
f 56 335 634
f 56 634 334
f 335 53 328
f 335 328 634
f 634 328 49
f 634 49 244
f 334 634 244
f 334 244 52
f 57 337 635
f 57 635 336
f 337 58 338
f 337 338 635
f 635 338 54
f 635 54 329
f 336 635 329
f 336 329 53
f 58 339 636
f 58 636 338
f 339 59 340
f 339 340 636
f 636 340 55
f 636 55 331
f 338 636 331
f 338 331 54
f 59 341 637
f 59 637 340
f 341 60 342
f 341 342 637
f 637 342 56
f 637 56 333
f 340 637 333
f 340 333 55
f 60 343 638
f 60 638 342
f 343 57 336
f 343 336 638
f 638 336 53
f 638 53 335
f 342 638 335
f 342 335 56
f 61 345 639
f 61 639 344
f 345 62 346
f 345 346 639
f 639 346 58
f 639 58 337
f 344 639 337
f 344 337 57
f 62 347 640
f 62 640 346
f 347 63 348
f 347 348 640
f 640 348 59
f 640 59 339
f 346 640 339
f 346 339 58
f 63 349 641
f 63 641 348
f 349 64 350
f 349 350 641
f 641 350 60
f 641 60 341
f 348 641 341
f 348 341 59
f 64 351 642
f 64 642 350
f 351 61 344
f 351 344 642
f 642 344 57
f 642 57 343
f 350 642 343
f 350 343 60
f 65 353 643
f 65 643 352
f 353 66 354
f 353 354 643
f 643 354 62
f 643 62 345
f 352 643 345
f 352 345 61
f 66 355 644
f 66 644 354
f 355 67 356
f 355 356 644
f 644 356 63
f 644 63 347
f 354 644 347
f 354 347 62
f 67 357 645
f 67 645 356
f 357 68 358
f 357 358 645
f 645 358 64
f 645 64 349
f 356 645 349
f 356 349 63
f 68 359 646
f 68 646 358
f 359 65 352
f 359 352 646
f 646 352 61
f 646 61 351
f 358 646 351
f 358 351 64
f 69 361 647
f 69 647 360
f 361 70 362
f 361 362 647
f 647 362 66
f 647 66 353
f 360 647 353
f 360 353 65
f 70 363 648
f 70 648 362
f 363 71 364
f 363 364 648
f 648 364 67
f 648 67 355
f 362 648 355
f 362 355 66
f 71 365 649
f 71 649 364
f 365 72 366
f 365 366 649
f 649 366 68
f 649 68 357
f 364 649 357
f 364 357 67
f 72 367 650
f 72 650 366
f 367 69 360
f 367 360 650
f 650 360 65
f 650 65 359
f 366 650 359
f 366 359 68
f 9 267 651
f 9 651 368
f 267 10 369
f 267 369 651
f 651 369 70
f 651 70 361
f 368 651 361
f 368 361 69
f 10 266 652
f 10 652 369
f 266 11 370
f 266 370 652
f 652 370 71
f 652 71 363
f 369 652 363
f 369 363 70
f 11 265 653
f 11 653 370
f 265 12 371
f 265 371 653
f 653 371 72
f 653 72 365
f 370 653 365
f 370 365 71
f 12 264 654
f 12 654 371
f 264 9 368
f 264 368 654
f 654 368 69
f 654 69 367
f 371 654 367
f 371 367 72
f 76 373 655
f 76 655 372
f 373 77 374
f 373 374 655
f 655 374 74
f 655 74 200
f 372 655 200
f 372 200 73
f 77 375 656
f 77 656 374
f 375 78 376
f 375 376 656
f 656 376 24
f 656 24 196
f 374 656 196
f 374 196 74
f 78 377 657
f 78 657 376
f 377 79 378
f 377 378 657
f 657 378 75
f 657 75 190
f 376 657 190
f 376 190 24
f 79 379 658
f 79 658 378
f 379 76 372
f 379 372 658
f 658 372 73
f 658 73 201
f 378 658 201
f 378 201 75
f 80 381 659
f 80 659 380
f 381 81 382
f 381 382 659
f 659 382 77
f 659 77 373
f 380 659 373
f 380 373 76
f 81 383 660
f 81 660 382
f 383 82 384
f 383 384 660
f 660 384 78
f 660 78 375
f 382 660 375
f 382 375 77
f 82 385 661
f 82 661 384
f 385 83 386
f 385 386 661
f 661 386 79
f 661 79 377
f 384 661 377
f 384 377 78
f 83 387 662
f 83 662 386
f 387 80 380
f 387 380 662
f 662 380 76
f 662 76 379
f 386 662 379
f 386 379 79
f 84 389 663
f 84 663 388
f 389 85 390
f 389 390 663
f 663 390 81
f 663 81 381
f 388 663 381
f 388 381 80
f 85 391 664
f 85 664 390
f 391 86 392
f 391 392 664
f 664 392 82
f 664 82 383
f 390 664 383
f 390 383 81
f 86 393 665
f 86 665 392
f 393 87 394
f 393 394 665
f 665 394 83
f 665 83 385
f 392 665 385
f 392 385 82
f 87 395 666
f 87 666 394
f 395 84 388
f 395 388 666
f 666 388 80
f 666 80 387
f 394 666 387
f 394 387 83
f 88 397 667
f 88 667 396
f 397 89 398
f 397 398 667
f 667 398 85
f 667 85 389
f 396 667 389
f 396 389 84
f 89 399 668
f 89 668 398
f 399 90 400
f 399 400 668
f 668 400 86
f 668 86 391
f 398 668 391
f 398 391 85
f 90 401 669
f 90 669 400
f 401 91 402
f 401 402 669
f 669 402 87
f 669 87 393
f 400 669 393
f 400 393 86
f 91 403 670
f 91 670 402
f 403 88 396
f 403 396 670
f 670 396 84
f 670 84 395
f 402 670 395
f 402 395 87
f 92 405 671
f 92 671 404
f 405 93 406
f 405 406 671
f 671 406 89
f 671 89 397
f 404 671 397
f 404 397 88
f 93 407 672
f 93 672 406
f 407 94 408
f 407 408 672
f 672 408 90
f 672 90 399
f 406 672 399
f 406 399 89
f 94 409 673
f 94 673 408
f 409 95 410
f 409 410 673
f 673 410 91
f 673 91 401
f 408 673 401
f 408 401 90
f 95 411 674
f 95 674 410
f 411 92 404
f 411 404 674
f 674 404 88
f 674 88 403
f 410 674 403
f 410 403 91
f 96 413 675
f 96 675 412
f 413 97 414
f 413 414 675
f 675 414 93
f 675 93 405
f 412 675 405
f 412 405 92
f 97 415 676
f 97 676 414
f 415 98 416
f 415 416 676
f 676 416 94
f 676 94 407
f 414 676 407
f 414 407 93
f 98 417 677
f 98 677 416
f 417 99 418
f 417 418 677
f 677 418 95
f 677 95 409
f 416 677 409
f 416 409 94
f 99 419 678
f 99 678 418
f 419 96 412
f 419 412 678
f 678 412 92
f 678 92 411
f 418 678 411
f 418 411 95
f 13 271 679
f 13 679 420
f 271 14 421
f 271 421 679
f 679 421 97
f 679 97 413
f 420 679 413
f 420 413 96
f 14 270 680
f 14 680 421
f 270 15 422
f 270 422 680
f 680 422 98
f 680 98 415
f 421 680 415
f 421 415 97
f 15 269 681
f 15 681 422
f 269 16 423
f 269 423 681
f 681 423 99
f 681 99 417
f 422 681 417
f 422 417 98
f 16 268 682
f 16 682 423
f 268 13 420
f 268 420 682
f 682 420 96
f 682 96 419
f 423 682 419
f 423 419 99
f 104 425 683
f 104 683 424
f 425 105 426
f 425 426 683
f 683 426 101
f 683 101 427
f 424 683 427
f 424 427 100
f 105 428 684
f 105 684 426
f 428 106 429
f 428 429 684
f 684 429 102
f 684 102 235
f 426 684 235
f 426 235 101
f 106 430 685
f 106 685 429
f 430 107 431
f 430 431 685
f 685 431 103
f 685 103 205
f 429 685 205
f 429 205 102
f 107 432 686
f 107 686 431
f 432 104 424
f 432 424 686
f 686 424 100
f 686 100 216
f 431 686 216
f 431 216 103
f 108 434 687
f 108 687 433
f 434 109 435
f 434 435 687
f 687 435 105
f 687 105 425
f 433 687 425
f 433 425 104
f 109 436 688
f 109 688 435
f 436 110 437
f 436 437 688
f 688 437 106
f 688 106 428
f 435 688 428
f 435 428 105
f 110 438 689
f 110 689 437
f 438 111 439
f 438 439 689
f 689 439 107
f 689 107 430
f 437 689 430
f 437 430 106
f 111 440 690
f 111 690 439
f 440 108 433
f 440 433 690
f 690 433 104
f 690 104 432
f 439 690 432
f 439 432 107
f 112 442 691
f 112 691 441
f 442 113 443
f 442 443 691
f 691 443 109
f 691 109 434
f 441 691 434
f 441 434 108
f 113 444 692
f 113 692 443
f 444 114 445
f 444 445 692
f 692 445 110
f 692 110 436
f 443 692 436
f 443 436 109
f 114 446 693
f 114 693 445
f 446 115 447
f 446 447 693
f 693 447 111
f 693 111 438
f 445 693 438
f 445 438 110
f 115 448 694
f 115 694 447
f 448 112 441
f 448 441 694
f 694 441 108
f 694 108 440
f 447 694 440
f 447 440 111
f 116 450 695
f 116 695 449
f 450 117 451
f 450 451 695
f 695 451 113
f 695 113 442
f 449 695 442
f 449 442 112
f 117 452 696
f 117 696 451
f 452 118 453
f 452 453 696
f 696 453 114
f 696 114 444
f 451 696 444
f 451 444 113
f 118 454 697
f 118 697 453
f 454 119 455
f 454 455 697
f 697 455 115
f 697 115 446
f 453 697 446
f 453 446 114
f 119 456 698
f 119 698 455
f 456 116 449
f 456 449 698
f 698 449 112
f 698 112 448
f 455 698 448
f 455 448 115
f 120 458 699
f 120 699 457
f 458 121 459
f 458 459 699
f 699 459 117
f 699 117 450
f 457 699 450
f 457 450 116
f 121 460 700
f 121 700 459
f 460 122 461
f 460 461 700
f 700 461 118
f 700 118 452
f 459 700 452
f 459 452 117
f 122 462 701
f 122 701 461
f 462 123 463
f 462 463 701
f 701 463 119
f 701 119 454
f 461 701 454
f 461 454 118
f 123 464 702
f 123 702 463
f 464 120 457
f 464 457 702
f 702 457 116
f 702 116 456
f 463 702 456
f 463 456 119
f 124 210 703
f 124 703 465
f 210 125 466
f 210 466 703
f 703 466 121
f 703 121 458
f 465 703 458
f 465 458 120
f 125 214 704
f 125 704 466
f 214 126 467
f 214 467 704
f 704 467 122
f 704 122 460
f 466 704 460
f 466 460 121
f 126 192 705
f 126 705 467
f 192 127 468
f 192 468 705
f 705 468 123
f 705 123 462
f 467 705 462
f 467 462 122
f 127 193 706
f 127 706 468
f 193 124 465
f 193 465 706
f 706 465 120
f 706 120 464
f 468 706 464
f 468 464 123
f 128 470 707
f 128 707 469
f 470 129 471
f 470 471 707
f 707 471 2
f 707 2 254
f 469 707 254
f 469 254 1
f 129 472 708
f 129 708 471
f 472 130 473
f 472 473 708
f 708 473 3
f 708 3 251
f 471 708 251
f 471 251 2
f 130 474 709
f 130 709 473
f 474 131 475
f 474 475 709
f 709 475 4
f 709 4 248
f 473 709 248
f 473 248 3
f 131 476 710
f 131 710 475
f 476 128 469
f 476 469 710
f 710 469 1
f 710 1 255
f 475 710 255
f 475 255 4
f 132 478 711
f 132 711 477
f 478 133 479
f 478 479 711
f 711 479 129
f 711 129 470
f 477 711 470
f 477 470 128
f 133 480 712
f 133 712 479
f 480 134 481
f 480 481 712
f 712 481 130
f 712 130 472
f 479 712 472
f 479 472 129
f 134 482 713
f 134 713 481
f 482 135 483
f 482 483 713
f 713 483 131
f 713 131 474
f 481 713 474
f 481 474 130
f 135 484 714
f 135 714 483
f 484 132 477
f 484 477 714
f 714 477 128
f 714 128 476
f 483 714 476
f 483 476 131
f 136 486 715
f 136 715 485
f 486 137 487
f 486 487 715
f 715 487 133
f 715 133 478
f 485 715 478
f 485 478 132
f 137 488 716
f 137 716 487
f 488 138 489
f 488 489 716
f 716 489 134
f 716 134 480
f 487 716 480
f 487 480 133
f 138 490 717
f 138 717 489
f 490 139 491
f 490 491 717
f 717 491 135
f 717 135 482
f 489 717 482
f 489 482 134
f 139 492 718
f 139 718 491
f 492 136 485
f 492 485 718
f 718 485 132
f 718 132 484
f 491 718 484
f 491 484 135
f 140 494 719
f 140 719 493
f 494 141 495
f 494 495 719
f 719 495 137
f 719 137 486
f 493 719 486
f 493 486 136
f 141 496 720
f 141 720 495
f 496 142 497
f 496 497 720
f 720 497 138
f 720 138 488
f 495 720 488
f 495 488 137
f 142 498 721
f 142 721 497
f 498 143 499
f 498 499 721
f 721 499 139
f 721 139 490
f 497 721 490
f 497 490 138
f 143 500 722
f 143 722 499
f 500 140 493
f 500 493 722
f 722 493 136
f 722 136 492
f 499 722 492
f 499 492 139
f 144 502 723
f 144 723 501
f 502 145 503
f 502 503 723
f 723 503 141
f 723 141 494
f 501 723 494
f 501 494 140
f 145 504 724
f 145 724 503
f 504 146 505
f 504 505 724
f 724 505 142
f 724 142 496
f 503 724 496
f 503 496 141
f 146 506 725
f 146 725 505
f 506 147 507
f 506 507 725
f 725 507 143
f 725 143 498
f 505 725 498
f 505 498 142
f 147 508 726
f 147 726 507
f 508 144 501
f 508 501 726
f 726 501 140
f 726 140 500
f 507 726 500
f 507 500 143
f 148 510 727
f 148 727 509
f 510 149 511
f 510 511 727
f 727 511 145
f 727 145 502
f 509 727 502
f 509 502 144
f 149 512 728
f 149 728 511
f 512 150 513
f 512 513 728
f 728 513 146
f 728 146 504
f 511 728 504
f 511 504 145
f 150 514 729
f 150 729 513
f 514 151 515
f 514 515 729
f 729 515 147
f 729 147 506
f 513 729 506
f 513 506 146
f 151 516 730
f 151 730 515
f 516 148 509
f 516 509 730
f 730 509 144
f 730 144 508
f 515 730 508
f 515 508 147
f 152 518 731
f 152 731 517
f 518 153 519
f 518 519 731
f 731 519 149
f 731 149 510
f 517 731 510
f 517 510 148
f 153 520 732
f 153 732 519
f 520 154 521
f 520 521 732
f 732 521 150
f 732 150 512
f 519 732 512
f 519 512 149
f 154 522 733
f 154 733 521
f 522 155 523
f 522 523 733
f 733 523 151
f 733 151 514
f 521 733 514
f 521 514 150
f 155 524 734
f 155 734 523
f 524 152 517
f 524 517 734
f 734 517 148
f 734 148 516
f 523 734 516
f 523 516 151
f 156 224 735
f 156 735 525
f 224 157 526
f 224 526 735
f 735 526 153
f 735 153 518
f 525 735 518
f 525 518 152
f 157 229 736
f 157 736 526
f 229 158 527
f 229 527 736
f 736 527 154
f 736 154 520
f 526 736 520
f 526 520 153
f 158 233 737
f 158 737 527
f 233 159 528
f 233 528 737
f 737 528 155
f 737 155 522
f 527 737 522
f 527 522 154
f 159 219 738
f 159 738 528
f 219 156 525
f 219 525 738
f 738 525 152
f 738 152 524
f 528 738 524
f 528 524 155
f 162 530 739
f 162 739 529
f 530 163 531
f 530 531 739
f 739 531 161
f 739 161 222
f 529 739 222
f 529 222 160
f 163 532 740
f 163 740 531
f 532 164 533
f 532 533 740
f 740 533 101
f 740 101 221
f 531 740 221
f 531 221 161
f 164 534 741
f 164 741 533
f 534 165 535
f 534 535 741
f 741 535 100
f 741 100 427
f 533 741 427
f 533 427 101
f 165 536 742
f 165 742 535
f 536 162 529
f 536 529 742
f 742 529 160
f 742 160 226
f 535 742 226
f 535 226 100
f 166 538 743
f 166 743 537
f 538 167 539
f 538 539 743
f 743 539 163
f 743 163 530
f 537 743 530
f 537 530 162
f 167 540 744
f 167 744 539
f 540 168 541
f 540 541 744
f 744 541 164
f 744 164 532
f 539 744 532
f 539 532 163
f 168 542 745
f 168 745 541
f 542 169 543
f 542 543 745
f 745 543 165
f 745 165 534
f 541 745 534
f 541 534 164
f 169 544 746
f 169 746 543
f 544 166 537
f 544 537 746
f 746 537 162
f 746 162 536
f 543 746 536
f 543 536 165
f 170 250 747
f 170 747 545
f 250 171 546
f 250 546 747
f 747 546 167
f 747 167 538
f 545 747 538
f 545 538 166
f 171 217 748
f 171 748 546
f 217 172 547
f 217 547 748
f 748 547 168
f 748 168 540
f 546 748 540
f 546 540 167
f 172 237 749
f 172 749 547
f 237 173 548
f 237 548 749
f 749 548 169
f 749 169 542
f 547 749 542
f 547 542 168
f 173 247 750
f 173 750 548
f 247 170 545
f 247 545 750
f 750 545 166
f 750 166 544
f 548 750 544
f 548 544 169
f 178 550 751
f 178 751 549
f 550 179 551
f 550 551 751
f 751 551 187
f 751 187 262
f 549 751 262
f 549 262 186
f 179 552 752
f 179 752 551
f 552 180 553
f 552 553 752
f 752 553 188
f 752 188 263
f 551 752 263
f 551 263 187
f 180 554 753
f 180 753 553
f 554 181 555
f 554 555 753
f 753 555 177
f 753 177 260
f 553 753 260
f 553 260 188
f 181 556 754
f 181 754 555
f 556 178 549
f 556 549 754
f 754 549 186
f 754 186 261
f 555 754 261
f 555 261 177
f 182 558 755
f 182 755 557
f 558 183 559
f 558 559 755
f 755 559 179
f 755 179 550
f 557 755 550
f 557 550 178
f 183 560 756
f 183 756 559
f 560 184 561
f 560 561 756
f 756 561 180
f 756 180 552
f 559 756 552
f 559 552 179
f 184 562 757
f 184 757 561
f 562 185 563
f 562 563 757
f 757 563 181
f 757 181 554
f 561 757 554
f 561 554 180
f 185 564 758
f 185 758 563
f 564 182 557
f 564 557 758
f 758 557 178
f 758 178 556
f 563 758 556
f 563 556 181
f 17 275 759
f 17 759 565
f 275 18 566
f 275 566 759
f 759 566 183
f 759 183 558
f 565 759 558
f 565 558 182
f 18 274 760
f 18 760 566
f 274 19 567
f 274 567 760
f 760 567 184
f 760 184 560
f 566 760 560
f 566 560 183
f 19 273 761
f 19 761 567
f 273 20 568
f 273 568 761
f 761 568 185
f 761 185 562
f 567 761 562
f 567 562 184
f 20 272 762
f 20 762 568
f 272 17 565
f 272 565 762
f 762 565 182
f 762 182 564
f 568 762 564
f 568 564 185
f 763 776 775
f 764 776 778
f 763 775 780
f 763 780 782
f 763 782 779
f 764 778 785
f 765 777 787
f 766 781 789
f 767 783 791
f 768 784 793
f 764 785 788
f 765 787 790
f 766 789 792
f 767 791 794
f 768 793 786
f 769 795 800
f 770 796 802
f 771 797 803
f 772 798 804
f 773 799 801
f 801 804 774
f 801 799 804
f 799 772 804
f 804 803 774
f 804 798 803
f 798 771 803
f 803 802 774
f 803 797 802
f 797 770 802
f 802 800 774
f 802 796 800
f 796 769 800
f 800 801 774
f 800 795 801
f 795 773 801
f 786 799 773
f 786 793 799
f 793 772 799
f 794 798 772
f 794 791 798
f 791 771 798
f 792 797 771
f 792 789 797
f 789 770 797
f 790 796 770
f 790 787 796
f 787 769 796
f 788 795 769
f 788 785 795
f 785 773 795
f 793 794 772
f 793 784 794
f 784 767 794
f 791 792 771
f 791 783 792
f 783 766 792
f 789 790 770
f 789 781 790
f 781 765 790
f 787 788 769
f 787 777 788
f 777 764 788
f 785 786 773
f 785 778 786
f 778 768 786
f 779 784 768
f 779 782 784
f 782 767 784
f 782 783 767
f 782 780 783
f 780 766 783
f 780 781 766
f 780 775 781
f 775 765 781
f 778 779 768
f 778 776 779
f 776 763 779
f 775 777 765
f 775 776 777
f 776 764 777
