# Triangulated foliage from CC0 leaftree (OpenGameArt)
o leaftree_foliage
v 0.026908 6.404305 -0.339651
v 1.480716 8.232304 0.835188
v -0.540364 8.228113 1.493289
v -1.790699 9.225797 -0.379595
v -0.545691 8.399275 -2.380971
v 1.466415 8.424284 -1.731085
v 0.482531 11.930871 1.108463
v -1.292354 12.226535 0.651545
v -1.293743 11.846107 -1.618001
v 0.477384 11.847590 -2.196763
v 1.575312 11.911226 -0.400621
v -0.020519 13.447092 -0.741116
v -0.371873 6.774818 0.881213
v 1.069235 6.775433 0.410720
v 0.549505 8.074056 1.408834
v 1.719814 9.091201 -0.382830
v 1.058780 6.761119 -1.100139
v -1.257084 6.757072 -0.343810
v -1.375904 8.055411 0.792188
v -0.373006 6.743245 -1.562635
v -1.371666 8.248489 -1.671638
v 0.539977 8.250087 -2.296301
v 1.723014 10.239099 0.194497
v 1.702628 10.404609 -0.885798
v 0.004364 10.258000 1.416173
v 1.045029 10.319098 1.085639
v -1.754992 10.148582 0.197064
v -1.037275 10.167056 1.067086
v -1.043351 10.223701 -2.238033
v -1.740402 10.271356 -0.914423
v 1.039832 10.237524 -2.241625
v -0.002303 10.224582 -2.578214
v 1.208434 12.381437 0.599163
v -0.474110 12.062329 1.033854
v -1.517992 12.029827 -0.397770
v -0.479021 11.981683 -2.123822
v 1.207192 12.002638 -1.579211
v 0.193377 13.265666 -0.086993
v 0.665397 13.257180 -0.738828
v -0.572444 13.256147 -0.334344
v -0.573736 13.241783 -1.139040
v 0.191286 13.242424 -1.389031
f 1 14 13
f 2 14 16
f 1 13 18
f 1 18 20
f 1 20 17
f 2 16 23
f 3 15 25
f 4 19 27
f 5 21 29
f 6 22 31
f 2 23 26
f 3 25 28
f 4 27 30
f 5 29 32
f 6 31 24
f 7 33 38
f 8 34 40
f 9 35 41
f 10 36 42
f 11 37 39
f 39 42 12
f 39 37 42
f 37 10 42
f 42 41 12
f 42 36 41
f 36 9 41
f 41 40 12
f 41 35 40
f 35 8 40
f 40 38 12
f 40 34 38
f 34 7 38
f 38 39 12
f 38 33 39
f 33 11 39
f 24 37 11
f 24 31 37
f 31 10 37
f 32 36 10
f 32 29 36
f 29 9 36
f 30 35 9
f 30 27 35
f 27 8 35
f 28 34 8
f 28 25 34
f 25 7 34
f 26 33 7
f 26 23 33
f 23 11 33
f 31 32 10
f 31 22 32
f 22 5 32
f 29 30 9
f 29 21 30
f 21 4 30
f 27 28 8
f 27 19 28
f 19 3 28
f 25 26 7
f 25 15 26
f 15 2 26
f 23 24 11
f 23 16 24
f 16 6 24
f 17 22 6
f 17 20 22
f 20 5 22
f 20 21 5
f 20 18 21
f 18 4 21
f 18 19 4
f 18 13 19
f 13 3 19
f 16 17 6
f 16 14 17
f 14 1 17
f 13 15 3
f 13 14 15
f 14 2 15
