# Split Pine_2_leaves mesh for Ursina textured rendering
o Pine_2_leaves
v -0.902654 5.177626 -0.998383
v -1.821117 5.013640 -0.632121
v -1.512679 5.333067 0.284355
v -0.594215 5.497053 -0.081908
v 0.048949 4.995715 -1.255241
v 0.357387 5.315142 -0.338765
v -0.529198 3.952617 -2.960331
v -1.480801 4.134528 -2.703473
v -1.196761 4.708617 -1.867546
v -0.245158 4.526706 -2.124404
v -2.399264 3.970543 -2.337210
v -2.115224 4.544631 -1.501284
v -1.069708 5.057039 0.828578
v -0.122653 5.023614 1.155050
v 0.193377 5.439587 0.280872
v -0.753678 5.473011 -0.045599
v -1.916803 4.761490 0.381704
v -1.600773 5.177464 -0.492473
v -2.432040 3.545081 1.989347
v -1.584946 3.840628 2.436221
v -1.342510 4.498804 1.650688
v -2.189605 4.203255 1.203814
v -0.637891 3.807204 2.762692
v -0.395455 4.465378 1.977159
v 0.006042 5.209024 -0.705029
v -0.774224 5.110678 -1.326420
v -1.407101 5.374666 -0.573511
v -0.626835 5.473012 0.047880
v 0.703187 4.956679 -0.030548
v 0.070310 5.220666 0.722361
v 1.871799 4.018858 -1.474320
v 1.174654 4.271204 -2.148802
v 0.602974 4.793382 -1.434980
v 1.300119 4.541037 -0.760498
v 0.394388 4.172857 -2.770192
v -0.177292 4.695036 -2.056370
v 0.157164 5.166756 0.397025
v 0.513839 5.160326 -0.539647
v -0.393118 5.466581 -0.887110
v -0.749793 5.473012 0.049563
v -0.277413 4.831121 1.235540
v -1.184370 5.137377 0.888078
v 1.445461 3.818844 1.815749
v 1.880037 4.154479 0.977234
v 1.030433 4.712575 0.702039
v 0.595857 4.376941 1.540554
v 2.236712 4.148049 0.040561
v 1.387109 4.706146 -0.234633
v -1.593307 5.068646 -0.147357
v -1.584056 4.937361 0.846269
v -0.653734 5.349070 0.892005
v -0.662985 5.480355 -0.101621
v -1.456268 4.866985 -1.119554
v -0.525946 5.278694 -1.073818
v -3.145946 3.654460 -1.185983
v -3.282984 3.856121 -0.213786
v -2.460367 4.512956 -0.183826
v -2.323328 4.311296 -1.156024
v -3.273733 3.724837 0.779840
v -2.451115 4.381672 0.809800
v -0.686622 7.728771 -0.520439
v -1.123123 7.718168 -0.571044
v -1.163012 7.901816 -0.156360
v -0.726511 7.912419 -0.105756
v -0.293830 7.556420 -0.421095
v -0.333719 7.740069 -0.006412
v -0.265132 6.975309 -1.193501
v -0.657924 7.147660 -1.292845
v -0.665634 7.466005 -0.914045
v -0.272842 7.293655 -0.814701
v -1.094425 7.137055 -1.343450
v -1.102135 7.455402 -0.964650
v -1.126490 7.748449 0.191338
v -0.809205 7.670479 0.529238
v -0.452560 7.852485 0.231320
v -0.769845 7.930454 -0.106580
v -1.412151 7.625043 -0.175586
v -1.055506 7.807049 -0.473504
v -2.088484 7.025689 0.386329
v -1.802822 7.149096 0.753253
v -1.469459 7.479362 0.476704
v -1.755120 7.355954 0.109780
v -1.485538 7.071125 1.091153
v -1.152175 7.401390 0.814604
v -0.370494 7.700381 -0.261597
v -0.546900 7.674212 -0.697679
v -0.946250 7.904286 -0.542662
v -0.769845 7.930454 -0.106580
v -0.276475 7.533137 0.176309
v -0.675825 7.763211 0.331326
v 0.425944 6.846951 -0.131593
v 0.331924 7.014196 -0.569499
v -0.006771 7.386667 -0.415825
v 0.087248 7.219422 0.022081
v 0.155519 6.988027 -1.005581
v -0.183177 7.360497 -0.851906
v -0.514072 7.701541 0.242089
v -0.161422 7.633145 -0.060819
v -0.417194 7.862058 -0.409488
v -0.769845 7.930454 -0.106580
v -0.912214 7.574898 0.487042
v -1.167987 7.803812 0.138373
v -0.453834 6.889132 1.116649
v -0.055692 7.015775 0.871695
v -0.277972 7.388284 0.565695
v -0.676114 7.261641 0.810648
v 0.296958 6.947378 0.568788
v 0.074678 7.319887 0.262787
v -1.154734 7.760521 -0.330351
v -1.360686 7.720181 0.092558
v -0.938560 7.887661 0.298483
v -0.732608 7.928001 -0.124425
v -0.927101 7.598947 -0.714845
v -0.504975 7.766426 -0.508919
v -1.746016 7.028010 -1.081802
v -1.973648 7.189586 -0.697308
v -1.567484 7.505724 -0.519664
v -1.339851 7.344149 -0.904158
v -2.179600 7.149245 -0.274400
v -1.773436 7.465383 -0.096756
v -1.100720 7.144669 -0.701503
v -1.654651 7.039607 -0.293067
v -1.278868 7.320019 0.254802
v -0.724936 7.425081 -0.153634
v -0.517133 6.953477 -1.031971
v -0.141349 7.233891 -0.484102
v -1.234042 6.046429 -2.036591
v -1.817629 6.237620 -1.706123
v -1.463679 6.736143 -1.215656
v -0.880092 6.544952 -1.546124
v -2.371560 6.132558 -1.297687
v -2.017611 6.631081 -0.807220
v -0.955501 7.104270 0.538175
v -0.273515 7.050207 0.637448
v -0.158768 7.382765 -0.006769
v -0.840753 7.436828 -0.106042
v -1.597373 6.870538 0.353644
v -1.482625 7.203096 -0.290573
v -1.779987 5.869082 1.542437
v -1.138116 6.102814 1.726968
v -1.052901 6.647257 1.145522
v -1.694773 6.413526 0.960991
v -0.456129 6.048751 1.826242
v -0.370916 6.593194 1.244795
v -0.404987 7.170073 -0.667949
v -1.022162 7.098726 -0.974787
v -1.333797 7.359225 -0.386163
v -0.716622 7.430572 -0.079326
v 0.151794 6.943799 -0.302956
v -0.159841 7.204299 0.285667
v 0.704481 6.074978 -1.412237
v 0.147701 6.301250 -1.777230
v -0.119469 6.780869 -1.231423
v 0.437311 6.554595 -0.866430
v -0.469474 6.229904 -2.084068
v -0.736644 6.709521 -1.538260
v -0.193491 7.135847 0.109844
v -0.042227 7.102399 -0.563653
v -0.683588 7.388207 -0.721120
v -0.834852 7.421655 -0.047623
v -0.419882 6.876240 0.733321
v -1.061243 7.162049 0.575853
v 0.775040 5.962135 0.989797
v 1.001431 6.221742 0.366320
v 0.415381 6.723308 0.245680
v 0.188990 6.463701 0.869157
v 1.152695 6.188294 -0.307177
v 0.566645 6.689860 -0.427817
v -1.460293 7.101396 -0.008128
v -1.271547 7.003819 0.652930
v -0.632309 7.327503 0.496575
v -0.821054 7.425081 -0.164484
v -1.559454 6.908519 -0.672436
v -0.920216 7.232204 -0.828792
v -2.733236 5.921701 -0.363524
v -2.634073 6.114579 0.300784
v -2.060791 6.652106 0.146821
v -2.159952 6.459229 -0.517487
v -2.445328 6.017001 0.961842
v -1.872045 6.554528 0.807880
v -0.068331 6.271978 -0.330309
v -0.446374 6.108935 -1.021809
v -1.141857 6.426526 -0.689708
v -0.763814 6.589568 0.001792
v 0.226333 6.091113 0.397924
v -0.469150 6.408703 0.730024
v 1.519857 5.054015 -0.223348
v 1.225192 5.234880 -0.951581
v 0.591095 5.805667 -0.646524
v 0.885760 5.624802 0.081708
v 0.847150 5.071837 -1.643080
v 0.213053 5.642624 -1.338024
v -1.571644 6.168687 -0.362466
v -1.798350 6.135454 0.403083
v -1.091196 6.549035 0.624033
v -0.864490 6.582267 -0.141516
v -1.245559 5.874838 -1.052648
v -0.538405 6.288419 -0.831698
v -2.543724 4.665424 -1.406469
v -2.869809 4.959272 -0.716287
v -2.235822 5.613662 -0.550824
v -1.909737 5.319813 -1.241006
v -3.096515 4.926040 0.049262
v -2.462528 5.580429 0.214724
v -0.226158 6.299755 0.455815
v 0.246877 6.201974 -0.183140
v -0.370611 6.464442 -0.666093
v -0.843645 6.562223 -0.027137
v -0.743815 6.048860 1.030054
v -1.361302 6.311328 0.547102
v 0.439010 5.116432 1.920325
v 0.956668 5.367327 1.346087
v 0.372033 5.886502 0.910781
v -0.145624 5.635608 1.485020
v 1.429703 5.269546 0.707131
v 0.845068 5.788722 0.271825
v -1.135038 6.277773 0.583761
v -0.386014 6.271379 0.861442
v -0.115466 6.575874 0.136166
v -0.864490 6.582267 -0.141516
v -1.806379 5.944068 0.243303
v -1.535831 6.248562 -0.481974
v -2.256687 4.937613 1.620491
v -1.585346 5.271318 1.960948
v -1.371992 5.826205 1.281890
v -2.043332 5.492500 0.941432
v -0.836322 5.264924 2.238630
v -0.622968 5.819811 1.559572
v -0.796253 6.180227 -0.846774
v -1.574906 6.049697 -0.702133
v -1.482179 6.459038 0.034433
v -0.703526 6.589568 -0.110208
v -0.014194 5.979726 -0.873623
v 0.078533 6.389067 -0.137057
v -0.195667 4.774175 -2.209095
v -0.977726 4.974676 -2.182246
v -0.887507 5.627733 -1.532401
v -0.105448 5.427233 -1.559251
v -1.756379 4.844146 -2.037605
v -1.666160 5.497204 -1.387761
v 0.079536 4.025992 -0.905246
v -0.884965 3.852789 -1.305817
v -1.327786 4.190170 -0.385471
v -0.363285 4.363373 0.015101
v 0.988391 3.833856 -0.397521
v 0.545571 4.171237 0.522825
v 1.809000 2.732130 -2.112987
v 0.900145 2.924266 -2.620711
v 0.498292 3.530622 -1.779254
v 1.407148 3.338486 -1.271530
v -0.064356 2.751063 -3.021283
v -0.466208 3.357419 -2.179826
v -1.447225 3.866409 0.279859
v -1.030145 3.831105 1.252236
v -0.122171 4.270459 0.878732
v -0.539251 4.305762 -0.093645
v -1.699181 3.554249 -0.699831
v -0.791207 3.993603 -1.073335
v -3.322153 2.269469 0.038631
v -3.070196 2.581629 1.018321
v -2.283792 3.276797 0.650201
v -2.535749 2.964637 -0.329489
v -2.653117 2.546325 1.990698
v -1.866713 3.241493 1.622578
v 0.530317 4.014744 -0.016659
v 0.368449 3.910870 -1.057682
v -0.661930 4.189694 -0.925290
v -0.500062 4.293569 0.115733
v 0.589614 3.748215 1.006163
v -0.440766 4.027040 1.138555
v 2.530501 2.757683 0.720109
v 2.471204 3.024212 -0.302713
v 1.516341 3.575740 -0.156922
v 1.575637 3.309211 0.865901
v 2.309336 2.920337 -1.343736
v 1.354472 3.471866 -1.197944
v -0.207414 3.958702 0.907700
v 0.770594 3.951910 0.502517
v 0.379880 4.275379 -0.445989
v -0.598128 4.282171 -0.040806
v -1.166514 3.604202 1.181883
v -1.557227 3.927671 0.233377
v -0.362989 2.535029 2.925797
v 0.596111 2.889529 2.651614
v 0.191477 3.478994 1.799556
v -0.767623 3.124494 2.073738
v 1.574119 2.882737 2.246432
v 1.169485 3.472202 1.394373
v -1.093536 3.878669 -0.843055
v -1.842865 3.740005 -0.108209
v -1.196232 4.174855 0.633224
v -0.446903 4.313518 -0.101621
v -0.253360 3.665673 -1.450884
v 0.393273 4.100523 -0.709450
v -1.440456 2.384997 -2.785310
v -2.280632 2.597992 -2.177480
v -1.700883 3.291745 -1.529560
v -0.860707 3.078750 -2.137390
v -3.029961 2.459329 -1.442635
v -2.450212 3.153082 -0.794715
v -0.555753 2.507911 -1.136792
v -1.599858 2.392896 -0.742336
v -1.260269 2.787928 0.271722
v -0.216164 2.902943 -0.122734
v 0.504804 2.241400 -1.388132
v 0.844393 2.636431 -0.374074
v -0.155148 1.005454 -3.248990
v -1.215705 1.271965 -2.997650
v -0.888228 1.947890 -2.088959
v 0.172329 1.681379 -2.340299
v -2.259810 1.156951 -2.603194
v -1.932333 1.832875 -1.694504
v -0.779507 2.503769 0.952448
v 0.280754 2.435767 1.313283
v 0.647744 2.833531 0.309896
v -0.412517 2.901534 -0.050939
v -1.746132 2.192242 0.475407
v -1.379141 2.590007 -0.527980
v -2.370682 0.953164 2.346373
v -1.404057 1.264691 2.823414
v -1.106006 1.941879 1.905582
v -2.072630 1.630352 1.428541
v -0.343796 1.196689 3.184249
v -0.045744 1.873876 2.266417
v 0.453367 2.530333 -0.756300
v -0.406873 2.421033 -1.468354
v -1.121787 2.792235 -0.661637
v -0.261547 2.901534 0.050416
v 1.201566 2.255258 0.033328
v 0.486652 2.626459 0.840044
v 2.500453 1.063644 -1.489446
v 1.752255 1.338719 -2.279074
v 1.119829 1.992910 -1.529470
v 1.868028 1.717835 -0.739842
v 0.892015 1.229419 -2.991129
v 0.259589 1.883611 -2.241524
v 0.609079 2.534639 0.490281
v 1.005324 2.454006 -0.556366
v 0.005522 2.820902 -0.963141
v -0.390723 2.901534 0.083505
v 0.108335 2.231349 1.447490
v -0.891467 2.598245 1.040715
v 1.985814 1.048876 2.156519
v 2.486558 1.352166 1.199309
v 1.563691 2.001718 0.858380
v 1.062947 1.698428 1.815589
v 2.882803 1.271533 0.152663
v 1.959937 1.921085 -0.188267
v -1.343364 2.490719 -0.154078
v -1.327276 2.399216 0.964112
v -0.264537 2.811440 0.982555
v -0.280624 2.902942 -0.135635
v -1.213351 2.203719 -1.230976
v -0.150611 2.615942 -1.212532
v -3.168086 0.936921 -1.219603
v -3.298099 1.223922 -0.142706
v -2.342923 1.914813 -0.154664
v -2.212910 1.627813 -1.231561
v -3.282010 1.132419 0.975483
v -2.326835 1.823310 0.963526
v 0.182619 1.265972 -1.146223
v -0.950941 1.168897 -1.506646
v -1.328360 1.581986 -0.430892
v -0.194801 1.679061 -0.070470
v 1.228201 0.957111 -0.660787
v 0.850781 1.370200 0.414967
v 1.880221 -0.343477 -2.666193
v 0.834639 -0.034616 -3.151630
v 0.521992 0.677338 -2.167915
v 1.567574 0.368477 -1.682479
v -0.298920 -0.131691 -3.512053
v -0.611567 0.580263 -2.528338
v -1.402487 1.265972 0.434328
v -0.779607 1.168897 1.447679
v 0.208855 1.581986 0.879670
v -0.414025 1.679061 -0.133682
v -1.877094 0.957111 -0.616215
v -0.888632 1.370200 -1.184223
v -3.680732 -0.343476 0.476340
v -3.206125 -0.034616 1.526882
v -2.326828 0.677338 0.986254
v -2.801435 0.368477 -0.064288
v -2.583245 -0.131690 2.540234
v -1.703948 0.580263 1.999606
v 0.760442 1.265972 -0.147265
v 0.495397 1.168897 -1.306839
v -0.623007 1.581986 -1.085787
v -0.357962 1.679061 0.073788
v 0.873118 0.957111 0.999990
v -0.245286 1.370201 1.221043
v 2.931853 -0.343477 0.543488
v 2.819178 -0.034615 -0.603767
v 1.812954 0.677338 -0.373645
v 1.925630 0.368477 0.773610
v 2.554133 -0.131691 -1.763342
v 1.547909 0.580263 -1.533219
v 0.096150 1.228895 0.995003
v 1.137951 1.131821 0.420971
v 0.617546 1.544909 -0.593361
v -0.424255 1.641984 -0.019330
v -0.975754 0.920034 1.419161
v -1.496160 1.333123 0.404828
v 0.029874 -0.380554 3.272670
v 1.101779 -0.071693 2.848512
v 0.603537 0.640261 1.944522
v -0.468368 0.331400 2.368681
v 2.143580 -0.168768 2.274481
v 1.645338 0.543186 1.370491
v -1.134048 1.265972 -0.858618
v -1.878703 1.168897 0.068934
v -1.011198 1.581986 0.808614
v -0.266544 1.679061 -0.118937
v -0.304478 0.957111 -1.659057
v 0.563027 1.370200 -0.919376
v -1.940247 -0.343477 -2.989864
v -2.769818 -0.034616 -2.189425
v -1.964831 0.677338 -1.543329
v -1.135260 0.368477 -2.343768
v -3.514472 -0.131691 -1.261873
v -2.709485 0.580263 -0.615777
vt 0.565914 0.214270
vt 0.199182 0.184447
vt 0.378489 0.007964
vt 0.339812 0.177295
vt 0.174706 0.025133
vt 0.324921 0.015734
vt 0.517951 0.224660
vt 0.384060 0.190086
vt 0.581547 0.006414
vt 0.225054 0.023827
vt 0.470080 0.221633
vt 0.245521 0.171151
vt 0.500000 -0.004850
vt 0.177443 0.328429
vt 0.293107 0.169638
vt 0.612371 0.198460
vt 0.122926 0.025467
vt 0.274442 0.020891
vt 0.432505 0.000369
vt 0.631700 0.018879
vt 0.177443 -0.004850
vt 0.155384 0.205800
vt 0.425858 0.206741
vt 0.500000 0.328429
vt 0.500000 -0.004850
vt 0.177443 0.328429
vt 0.500000 0.994989
vt 0.822557 0.661709
vt 0.177443 0.994989
vt 0.822557 0.994989
vt 0.822557 0.328429
vt 0.500000 0.661709
vt 0.177443 -0.004850
vt 0.177443 0.661709
vt 0.822557 -0.004850
vt 0.500000 0.328429
vt 0.500000 -0.004850
vt 0.177443 0.328429
vt 0.500000 0.994989
vt 0.822557 0.661709
vt 0.177443 0.994989
vt 0.822557 0.994989
vt 0.822557 0.328429
vt 0.500000 0.661709
vt 0.177443 -0.004850
vt 0.177443 0.661709
vt 0.822557 -0.004850
vt 0.500000 0.328429
vt 0.500000 -0.004850
vt 0.177443 0.328429
vt 0.500000 0.994989
vt 0.822557 0.661709
vt 0.177443 0.994989
vt 0.822557 0.994989
vt 0.822557 0.328429
vt 0.500000 0.661709
vt 0.177443 -0.004850
vt 0.177443 0.661709
vt 0.822557 -0.004850
vt 0.500000 0.328429
vt 0.500000 -0.004850
vt 0.177443 0.328429
vt 0.500000 0.994989
vt 0.822557 0.661709
vt 0.177443 0.994989
vt 0.822557 0.994989
vt 0.822557 0.328429
vt 0.500000 0.661709
vt 0.177443 -0.004850
vt 0.177443 0.661709
vt 0.822557 -0.004850
vt 0.500000 0.328429
vt 0.500000 -0.004850
vt 0.177443 0.328429
vt 0.500000 0.994989
vt 0.822557 0.661709
vt 0.177443 0.994989
vt 0.822557 0.994989
vt 0.822557 0.328429
vt 0.500000 0.661709
vt 0.177443 -0.004850
vt 0.177443 0.661709
vt 0.822557 -0.004850
vt 0.500000 0.328429
vt 0.500000 -0.004850
vt 0.177443 0.328429
vt 0.500000 0.994989
vt 0.822557 0.661709
vt 0.177443 0.994989
vt 0.822557 0.994989
vt 0.822557 0.328429
vt 0.500000 0.661709
vt 0.177443 -0.004850
vt 0.177443 0.661709
vt 0.822557 -0.004850
vt 0.500000 0.328429
vt 0.500000 -0.004850
vt 0.177443 0.328429
vt 0.500000 0.994989
vt 0.822557 0.661709
vt 0.177443 0.994989
vt 0.822557 0.994989
vt 0.822557 0.328429
vt 0.500000 0.661709
vt 0.177443 -0.004850
vt 0.177443 0.661709
vt 0.822557 -0.004850
vt 0.500000 0.328429
vt 0.500000 -0.004850
vt 0.177443 0.328429
vt 0.500000 0.994989
vt 0.822557 0.661709
vt 0.177443 0.994989
vt 0.822557 0.994989
vt 0.822557 0.328429
vt 0.500000 0.661709
vt 0.177443 -0.004850
vt 0.177443 0.661709
vt 0.822557 -0.004850
vt 0.500000 0.328429
vt 0.500000 -0.004850
vt 0.177443 0.328429
vt 0.500000 0.994989
vt 0.822557 0.661709
vt 0.177443 0.994989
vt 0.822557 0.994989
vt 0.822557 0.328429
vt 0.500000 0.661709
vt 0.177443 -0.004850
vt 0.177443 0.661709
vt 0.822557 -0.004850
vt 0.500000 0.328429
vt 0.500000 -0.004850
vt 0.177443 0.328429
vt 0.500000 0.994989
vt 0.822557 0.661709
vt 0.177443 0.994989
vt 0.822557 0.994989
vt 0.822557 0.328429
vt 0.500000 0.661709
vt 0.177443 -0.004850
vt 0.177443 0.661709
vt 0.822557 -0.004850
vt 0.500000 0.328429
vt 0.500000 -0.004850
vt 0.177443 0.328429
vt 0.500000 0.994989
vt 0.822557 0.661709
vt 0.177443 0.994989
vt 0.822557 0.994989
vt 0.822557 0.328429
vt 0.500000 0.661709
vt 0.177443 -0.004850
vt 0.177443 0.661709
vt 0.822557 -0.004850
vt 0.500000 0.328429
vt 0.500000 -0.004850
vt 0.177443 0.328429
vt 0.500000 0.994989
vt 0.822557 0.661709
vt 0.177443 0.994989
vt 0.822557 0.994989
vt 0.822557 0.328429
vt 0.500000 0.661709
vt 0.177443 -0.004850
vt 0.177443 0.661709
vt 0.822557 -0.004850
vt 0.500000 0.328429
vt 0.500000 -0.004850
vt 0.177443 0.328429
vt 0.500000 0.994989
vt 0.822557 0.661709
vt 0.177443 0.994989
vt 0.822557 0.994989
vt 0.822557 0.328429
vt 0.500000 0.661709
vt 0.177443 -0.004850
vt 0.177443 0.661709
vt 0.822557 -0.004850
vt 0.500000 0.328429
vt 0.500000 -0.004850
vt 0.177443 0.328429
vt 0.500000 0.994989
vt 0.822557 0.661709
vt 0.177443 0.994989
vt 0.822557 0.994989
vt 0.822557 0.328429
vt 0.500000 0.661709
vt 0.177443 -0.004850
vt 0.177443 0.661709
vt 0.822557 -0.004850
vt 0.500000 0.328429
vt 0.500000 -0.004850
vt 0.177443 0.328429
vt 0.500000 0.994989
vt 0.822557 0.661709
vt 0.177443 0.994989
vt 0.822557 0.994989
vt 0.822557 0.328429
vt 0.500000 0.661709
vt 0.177443 -0.004850
vt 0.177443 0.661709
vt 0.822557 -0.004850
vt 0.500000 0.328429
vt 0.500000 -0.004850
vt 0.177443 0.328429
vt 0.500000 0.994989
vt 0.822557 0.661709
vt 0.177443 0.994989
vt 0.822557 0.994989
vt 0.822557 0.328429
vt 0.500000 0.661709
vt 0.177443 -0.004850
vt 0.177443 0.661709
vt 0.822557 -0.004850
vt 0.500000 0.328429
vt 0.500000 -0.004850
vt 0.177443 0.328429
vt 0.500000 0.994989
vt 0.822557 0.661709
vt 0.177443 0.994989
vt 0.822557 0.994989
vt 0.822557 0.328429
vt 0.500000 0.661709
vt 0.177443 -0.004850
vt 0.177443 0.661709
vt 0.822557 -0.004850
vt 0.500000 0.328429
vt 0.500000 -0.004850
vt 0.177443 0.328429
vt 0.500000 0.994989
vt 0.822557 0.661709
vt 0.177443 0.994989
vt 0.822557 0.994989
vt 0.822557 0.328429
vt 0.500000 0.661709
vt 0.177443 -0.004850
vt 0.177443 0.661709
vt 0.822557 -0.004850
vt 0.500000 0.328429
vt 0.500000 -0.004850
vt 0.177443 0.328429
vt 0.500000 0.994989
vt 0.822557 0.661709
vt 0.177443 0.994989
vt 0.822557 0.994989
vt 0.822557 0.328429
vt 0.500000 0.661709
vt 0.177443 -0.004850
vt 0.177443 0.661709
vt 0.822557 -0.004850
vt 0.500000 0.328429
vt 0.500000 -0.004850
vt 0.177443 0.328429
vt 0.500000 0.994989
vt 0.822557 0.661709
vt 0.177443 0.994989
vt 0.822557 0.994989
vt 0.822557 0.328429
vt 0.500000 0.661709
vt 0.177443 -0.004850
vt 0.177443 0.661709
vt 0.822557 -0.004850
vt 0.500000 0.328429
vt 0.500000 -0.004850
vt 0.177443 0.328429
vt 0.500000 0.994989
vt 0.822557 0.661709
vt 0.177443 0.994989
vt 0.822557 0.994989
vt 0.822557 0.328429
vt 0.500000 0.661709
vt 0.177443 -0.004850
vt 0.177443 0.661709
vt 0.822557 -0.004850
vt 0.500000 0.328429
vt 0.500000 -0.004850
vt 0.177443 0.328429
vt 0.500000 0.994989
vt 0.822557 0.661709
vt 0.177443 0.994989
vt 0.822557 0.994989
vt 0.822557 0.328429
vt 0.500000 0.661709
vt 0.177443 -0.004850
vt 0.177443 0.661709
vt 0.822557 -0.004850
vt 0.500000 0.328429
vt 0.500000 -0.004850
vt 0.177443 0.328429
vt 0.500000 0.994989
vt 0.822557 0.661709
vt 0.177443 0.994989
vt 0.822557 0.994989
vt 0.822557 0.328429
vt 0.500000 0.661709
vt 0.177443 -0.004850
vt 0.177443 0.661709
vt 0.822557 -0.004850
vt 0.500000 0.328429
vt 0.500000 -0.004850
vt 0.177443 0.328429
vt 0.500000 0.994989
vt 0.822557 0.661709
vt 0.177443 0.994989
vt 0.822557 0.994989
vt 0.822557 0.328429
vt 0.500000 0.661709
vt 0.177443 -0.004850
vt 0.177443 0.661709
vt 0.822557 -0.004850
vt 0.500000 0.328429
vt 0.500000 -0.004850
vt 0.177443 0.328429
vt 0.500000 0.994989
vt 0.822557 0.661709
vt 0.177443 0.994989
vt 0.822557 0.994989
vt 0.822557 0.328429
vt 0.500000 0.661709
vt 0.177443 -0.004850
vt 0.177443 0.661709
vt 0.822557 -0.004850
vt 0.500000 0.328429
vt 0.500000 -0.004850
vt 0.177443 0.328429
vt 0.500000 0.994989
vt 0.822557 0.661709
vt 0.177443 0.994989
vt 0.822557 0.994989
vt 0.822557 0.328429
vt 0.500000 0.661709
vt 0.177443 -0.004850
vt 0.177443 0.661709
vt 0.822557 -0.004850
vt 0.500000 0.328429
vt 0.500000 -0.004850
vt 0.177443 0.328429
vt 0.500000 0.994989
vt 0.822557 0.661709
vt 0.177443 0.994989
vt 0.822557 0.994989
vt 0.822557 0.328429
vt 0.500000 0.661709
vt 0.177443 -0.004850
vt 0.177443 0.661709
vt 0.822557 -0.004850
vt 0.500000 0.328429
vt 0.500000 -0.004850
vt 0.177443 0.328429
vt 0.500000 0.994989
vt 0.822557 0.661709
vt 0.177443 0.994989
vt 0.822557 0.994989
vt 0.822557 0.328429
vt 0.500000 0.661709
vt 0.177443 -0.004850
vt 0.177443 0.661709
vt 0.822557 -0.004850
vt 0.500000 0.328429
vt 0.500000 -0.004850
vt 0.177443 0.328429
vt 0.500000 0.994989
vt 0.822557 0.661709
vt 0.177443 0.994989
vt 0.822557 0.994989
vt 0.822557 0.328429
vt 0.500000 0.661709
vt 0.177443 -0.004850
vt 0.177443 0.661709
vt 0.822557 -0.004850
vt 0.500000 0.328429
vt 0.500000 -0.004850
vt 0.177443 0.328429
vt 0.500000 0.994989
vt 0.822557 0.661709
vt 0.177443 0.994989
vt 0.822557 0.994989
vt 0.822557 0.328429
vt 0.500000 0.661709
vt 0.177443 -0.004850
vt 0.177443 0.661709
vt 0.822557 -0.004850
vt 0.500000 0.328429
vt 0.500000 -0.004850
vt 0.177443 0.328429
vt 0.500000 0.994989
vt 0.822557 0.661709
vt 0.177443 0.994989
vt 0.822557 0.994989
vt 0.822557 0.328429
vt 0.500000 0.661709
vt 0.177443 -0.004850
vt 0.177443 0.661709
vt 0.822557 -0.004850
vt 0.500000 0.328429
vt 0.500000 -0.004850
vt 0.177443 0.328429
vt 0.500000 0.994989
vt 0.822557 0.661709
vt 0.177443 0.994989
vt 0.822557 0.994989
vt 0.822557 0.328429
vt 0.500000 0.661709
vt 0.177443 -0.004850
vt 0.177443 0.661709
vt 0.822557 -0.004850
vt 0.500000 0.328429
vt 0.500000 -0.004850
vt 0.177443 0.328429
vt 0.500000 0.994989
vt 0.822557 0.661709
vt 0.177443 0.994989
vt 0.822557 0.994989
vt 0.822557 0.328429
vt 0.500000 0.661709
vt 0.177443 -0.004850
vt 0.177443 0.661709
vt 0.822557 -0.004850
vt 0.500000 0.328429
vn -0.329400 0.826800 -0.455900
vn -0.150500 0.866100 -0.476600
vn -0.261900 0.935300 -0.237900
vn 0.059700 0.905500 -0.420200
vn 0.083000 0.932000 -0.352800
vn -0.284100 0.908800 -0.305600
vn -0.372800 -0.018400 -0.927700
vn -0.091000 0.949500 -0.300300
vn 0.020100 0.849500 -0.527300
vn 0.004400 0.823600 -0.567100
vn -0.113700 0.922900 -0.367800
vn -0.165100 0.838300 -0.519600
vn -0.178900 0.780600 0.598900
vn -0.331600 0.801400 0.497800
vn -0.104400 0.912200 0.396300
vn -0.457600 0.830300 0.318300
vn -0.435200 0.863800 0.253700
vn -0.127700 0.878400 0.460400
vn -0.317600 0.852700 -0.414700
vn -0.274400 0.903000 0.330500
vn -0.488900 0.763500 0.421900
vn -0.499100 0.733800 0.460800
vn -0.297200 0.869400 0.394800
vn -0.344400 0.769200 0.538200
vn 0.241200 0.865100 -0.439700
vn 0.349500 0.890000 -0.292700
vn 0.088200 0.960800 -0.262800
vn 0.406800 0.910000 -0.080000
vn 0.360600 0.932400 -0.023800
vn 0.135200 0.938300 -0.318300
vn -0.165000 0.810900 0.561500
vn 0.228200 0.962700 -0.145700
vn 0.478700 0.860800 -0.172700
vn 0.504900 0.837700 -0.208400
vn 0.274700 0.940200 -0.201500
vn 0.378900 0.864900 -0.329200
vn 0.497500 0.847800 0.183600
vn 0.390100 0.858400 0.333100
vn 0.283200 0.953700 0.101300
vn 0.204700 0.867500 0.453300
vn 0.137300 0.893000 0.428600
vn 0.350200 0.928000 0.127000
vn 0.211900 0.888700 -0.406700
vn 0.213800 0.939000 0.269400
vn 0.314400 0.813800 0.488700
vn 0.356200 0.789100 0.500500
vn 0.280900 0.913400 0.294600
vn 0.433600 0.831400 0.347500
vn -0.622700 0.774900 0.108200
vn -0.578500 0.812900 -0.066700
vn -0.406700 0.905200 0.123400
vn -0.451500 0.858900 -0.241800
vn -0.383100 0.892200 -0.239100
vn -0.475000 0.871800 0.119600
vn 0.457300 0.873300 0.168100
vn -0.401600 0.913900 -0.058800
vn -0.559700 0.792200 -0.243200
vn -0.599900 0.762400 -0.242700
vn -0.469800 0.880600 -0.062100
vn -0.621000 0.780800 -0.068300
vn 0.055800 0.764900 -0.641700
vn 0.255300 0.779600 -0.571900
vn 0.024500 0.914900 -0.402800
vn 0.451400 0.794600 -0.406100
vn 0.447800 0.832700 -0.325700
vn 0.034600 0.875500 -0.481900
vn -0.582800 0.804900 0.111800
vn 0.241800 0.895600 -0.373400
vn 0.449700 0.720700 -0.527600
vn 0.446700 0.689400 -0.570300
vn 0.248500 0.857800 -0.450000
vn 0.256900 0.742400 -0.618700
vn -0.352200 0.783800 0.511500
vn -0.450000 0.828200 0.334200
vn -0.163200 0.916700 0.364700
vn -0.489200 0.867600 0.089000
vn -0.432100 0.901200 0.033300
vn -0.223400 0.882700 0.413500
vn 0.050200 0.798100 -0.600500
vn -0.302200 0.930600 0.206800
vn -0.570700 0.802400 0.174400
vn -0.597900 0.775000 0.204800
vn -0.360400 0.897600 0.253900
vn -0.487500 0.794800 0.361500
vn 0.640300 0.706600 -0.301400
vn 0.672100 0.734800 -0.090900
vn 0.420300 0.879600 -0.222800
vn 0.616700 0.770400 0.161800
vn 0.545200 0.815400 0.194400
vn 0.493000 0.833500 -0.249500
vn -0.317800 0.814000 0.486300
vn 0.494500 0.869100 -0.016000
vn 0.720000 0.685600 0.107300
vn 0.754600 0.650500 0.086400
vn 0.564400 0.824300 -0.043500
vn 0.713100 0.692800 -0.107500
vn 0.536800 0.703200 0.466200
vn 0.351600 0.752400 0.557000
vn 0.405300 0.871800 0.275000
vn 0.100800 0.807400 0.581300
vn 0.050400 0.851400 0.522000
vn 0.449700 0.827200 0.336800
vn 0.602200 0.744500 -0.288300
vn 0.236400 0.882700 0.406100
vn 0.178400 0.725300 0.664900
vn 0.205900 0.691600 0.692300
vn 0.279600 0.839400 0.466200
vn 0.374700 0.711700 0.594200
vn -0.549900 0.813300 -0.190200
vn -0.420700 0.836600 -0.350900
vn -0.336300 0.938800 -0.074200
vn -0.205800 0.852700 -0.480200
vn -0.131500 0.883700 -0.449200
vn -0.406600 0.906800 -0.111500
vn 0.514700 0.740500 0.432000
vn -0.240000 0.933300 -0.267100
vn -0.320100 0.790800 -0.521800
vn -0.360900 0.764100 -0.534700
vn -0.308600 0.902500 -0.300400
vn -0.463900 0.804500 -0.370900
vn -0.469400 0.765800 -0.439600
vn -0.278600 0.805800 -0.522500
vn -0.342900 0.910600 -0.230800
vn -0.024700 0.845800 -0.533000
vn 0.024000 0.883100 -0.468500
vn -0.385900 0.872800 -0.298900
vn -0.512600 0.841700 -0.169400
vn -0.163600 0.919200 -0.358300
vn -0.102100 0.772300 -0.627000
vn -0.130400 0.740800 -0.658900
vn -0.207600 0.882500 -0.422000
vn -0.306000 0.769200 -0.561000
vn -0.040900 0.732300 0.679700
vn -0.230900 0.763800 0.602700
vn 0.003600 0.888300 0.459200
vn -0.416000 0.798000 0.436200
vn -0.408900 0.838600 0.360100
vn -0.010300 0.846900 0.531700
vn -0.448400 0.797900 -0.402800
vn -0.203600 0.884300 0.420200
vn -0.420800 0.722900 0.548100
vn -0.420700 0.692200 0.586500
vn -0.217000 0.844100 0.490300
vn -0.240000 0.725900 0.644500
vn 0.202200 0.782600 -0.588700
vn 0.364100 0.814700 -0.451300
vn 0.076600 0.926100 -0.369300
vn 0.489300 0.842900 -0.223800
vn 0.454200 0.878500 -0.148300
vn 0.116600 0.889700 -0.441400
vn -0.032600 0.766600 0.641200
vn 0.270700 0.925100 -0.266100
vn 0.536800 0.772100 -0.340200
vn 0.551600 0.741600 -0.381700
vn 0.308100 0.889700 -0.336900
vn 0.387100 0.778300 -0.494400
vn 0.634200 0.766100 0.104400
vn 0.537600 0.791200 0.291500
vn 0.397700 0.916500 0.043800
vn 0.348400 0.813700 0.465300
vn 0.268300 0.850900 0.451700
vn 0.474600 0.877900 0.063000
vn 0.179400 0.815300 -0.550500
vn 0.342200 0.905700 0.250200
vn 0.468600 0.742100 0.479200
vn 0.510400 0.712200 0.481900
vn 0.417000 0.868200 0.268900
vn 0.582500 0.753800 0.304200
vn -0.614100 0.736300 0.284000
vn -0.625700 0.775900 0.080700
vn -0.390400 0.888100 0.242600
vn -0.551800 0.819400 -0.155500
vn -0.478900 0.859600 -0.178100
vn -0.464400 0.847300 0.257700
vn 0.592300 0.800300 0.093300
vn -0.444800 0.895000 0.034000
vn -0.658500 0.743300 -0.117500
vn -0.694900 0.711700 -0.102900
vn -0.515000 0.855700 0.051100
vn -0.668000 0.738500 0.091100
vn 0.474900 0.762500 -0.439400
vn 0.530200 0.812800 -0.241200
vn 0.246700 0.904400 -0.348100
vn 0.505300 0.862900 0.009800
vn 0.433800 0.899700 0.047900
vn 0.321100 0.867400 -0.380100
vn -0.575400 0.769300 0.277800
vn 0.348600 0.924500 -0.154000
vn 0.611100 0.789900 -0.051100
vn 0.647400 0.758600 -0.073600
vn 0.418800 0.888500 -0.187500
vn 0.573200 0.776600 -0.261600
vn -0.685400 0.707500 -0.172200
vn -0.582400 0.733600 -0.350400
vn -0.477800 0.872300 -0.103600
vn -0.391500 0.765300 -0.510800
vn -0.318400 0.808600 -0.494700
vn -0.546400 0.828000 -0.125900
vn 0.434700 0.794100 -0.424900
vn -0.409000 0.860900 -0.302600
vn -0.499600 0.686500 -0.528300
vn -0.536800 0.654600 -0.532300
vn -0.475200 0.818000 -0.324100
vn -0.621400 0.694000 -0.363700
vn 0.523400 0.810300 0.263500
vn 0.359600 0.843900 0.398200
vn 0.324600 0.940900 0.096300
vn 0.113400 0.868900 0.481900
vn 0.044000 0.900300 0.433000
vn 0.389900 0.908700 0.149600
vn -0.649400 0.743400 -0.160000
vn 0.189900 0.943900 0.270100
vn 0.222000 0.804100 0.551500
vn 0.261200 0.775800 0.574400
vn 0.254300 0.912500 0.320400
vn 0.399200 0.809900 0.429800
vn -0.207900 0.788400 0.578900
vn -0.381100 0.803400 0.457500
vn -0.120300 0.930600 0.345800
vn -0.528600 0.812400 0.246200
vn -0.505400 0.846600 0.166900
vn -0.148500 0.894700 0.421200
vn 0.488700 0.840700 0.233100
vn -0.317100 0.910900 0.264100
vn -0.556500 0.745500 0.366700
vn -0.564000 0.717400 0.409000
vn -0.344600 0.876000 0.337400
vn -0.398700 0.767500 0.501900
vn -0.242100 0.701000 -0.670800
vn -0.040000 0.747100 -0.663500
vn -0.228400 0.862900 -0.450800
vn 0.186000 0.801700 -0.568100
vn 0.199800 0.845600 -0.495100
vn -0.234600 0.818700 -0.524100
vn -0.192200 0.821100 0.537400
vn -0.015700 0.874800 -0.484200
vn 0.161500 0.720200 -0.674700
vn 0.151600 0.686600 -0.711000
vn -0.024300 0.832200 -0.554000
vn -0.044900 0.707800 -0.705000
vn 0.082600 0.826800 -0.556400
vn 0.225100 0.866100 -0.446300
vn -0.021300 0.935300 -0.353100
vn 0.336200 0.905500 -0.259100
vn 0.305700 0.932000 -0.194600
vn 0.010100 0.908800 -0.417200
vn -0.240900 0.735600 -0.633100
vn 0.144600 0.949500 -0.278500
vn 0.382600 0.849500 -0.363400
vn 0.399200 0.823600 -0.402900
vn 0.175500 0.922900 -0.342700
vn 0.244700 0.838300 -0.487200
vn -0.563600 0.780600 0.270100
vn -0.591500 0.801400 0.089100
vn -0.363600 0.912200 0.189100
vn -0.543200 0.830300 -0.124800
vn -0.480400 0.863800 -0.151700
vn -0.426800 0.878400 0.214900
vn 0.062300 0.852700 -0.518700
vn -0.429100 0.903000 0.019000
vn -0.641000 0.763500 -0.078400
vn -0.676700 0.733800 -0.059800
vn -0.492100 0.869400 0.045300
vn -0.630000 0.769200 0.106800
vn 0.475200 0.865100 -0.160200
vn 0.455400 0.890000 0.021300
vn 0.242800 0.960800 -0.133600
vn 0.353500 0.910000 0.216600
vn 0.281400 0.932400 0.226700
vn 0.315000 0.938300 -0.142600
vn -0.526600 0.810900 0.255300
vn 0.266600 0.962700 0.047300
vn 0.469100 0.860800 0.197100
vn 0.512600 0.837700 0.188600
vn 0.338600 0.940200 0.037800
vn 0.501800 0.864900 0.014400
vn 0.208000 0.847800 0.487800
vn 0.025600 0.858400 0.512300
vn 0.120800 0.953700 0.275500
vn -0.189100 0.867500 0.460000
vn -0.217400 0.893000 0.394100
vn 0.148000 0.928000 0.341800
vn 0.431300 0.888700 -0.155700
vn -0.049100 0.939000 0.340500
vn -0.139500 0.813800 0.564100
vn -0.119400 0.789100 0.602600
vn -0.021400 0.913400 0.406500
vn 0.045000 0.831400 0.553800
vn -0.509800 0.774900 -0.373600
vn -0.353200 0.812900 -0.463100
vn -0.370900 0.905200 -0.207400
vn -0.138900 0.858900 -0.493000
vn -0.093400 0.892200 -0.441800
vn -0.415600 0.871800 -0.259200
vn 0.191600 0.873300 0.447900
vn -0.236100 0.913900 -0.330100
vn -0.212900 0.792200 -0.571900
vn -0.241200 0.762400 -0.600500
vn -0.281100 0.880600 -0.381500
vn -0.381400 0.780800 -0.494800
vn -0.280900 0.815800 -0.505600
vn -0.099900 0.845800 -0.524100
vn -0.213000 0.932400 -0.291900
vn 0.110600 0.878500 -0.464800
vn 0.133700 0.907500 -0.398300
vn -0.235000 0.903400 -0.358700
vn -0.484700 0.804900 -0.342400
vn -0.040300 0.935500 -0.350900
vn 0.070700 0.818800 -0.569700
vn 0.054700 0.791600 -0.608600
vn -0.062900 0.906500 -0.417500
vn -0.114900 0.816400 -0.565900
vn -0.137700 0.817900 0.558700
vn -0.290100 0.840500 0.457600
vn -0.058900 0.935200 0.349200
vn -0.416100 0.866000 0.277500
vn -0.392700 0.895100 0.211200
vn -0.083200 0.905900 0.415100
vn -0.268800 0.843200 -0.465600
vn -0.229600 0.930600 0.284900
vn -0.449600 0.806200 0.384600
vn -0.460900 0.779000 0.425100
vn -0.253400 0.901400 0.351000
vn -0.304000 0.811100 0.499700
vn 0.290500 0.828800 -0.478200
vn 0.396200 0.856900 -0.329800
vn 0.137700 0.940500 -0.310700
vn 0.449200 0.885800 -0.117000
vn 0.402600 0.913200 -0.063400
vn 0.185000 0.913000 -0.363600
vn -0.122700 0.845400 0.519800
vn 0.274700 0.942500 -0.190200
vn 0.521000 0.828600 -0.205000
vn 0.547000 0.802400 -0.238800
vn 0.321600 0.915000 -0.243400
vn 0.425400 0.828500 -0.364200
vn 0.535300 0.833200 0.138500
vn 0.428800 0.856500 0.287100
vn 0.325800 0.944100 0.050600
vn 0.244300 0.880300 0.406700
vn 0.178100 0.907400 0.380700
vn 0.391600 0.916800 0.077600
vn 0.261500 0.855300 -0.447200
vn 0.256200 0.941400 0.219300
vn 0.351600 0.823700 0.444900
vn 0.392300 0.797700 0.458000
vn 0.322100 0.914200 0.245800
vn 0.471100 0.828400 0.302900
vn -0.583800 0.808400 0.074600
vn -0.539900 0.835500 -0.102400
vn -0.361700 0.928800 0.081200
vn -0.412800 0.866500 -0.280800
vn -0.342900 0.896600 -0.280300
vn -0.431500 0.898600 0.079700
vn 0.496300 0.859600 0.121700
vn -0.358200 0.928100 -0.101300
vn -0.524100 0.805000 -0.277800
vn -0.565700 0.777300 -0.275400
vn -0.428100 0.898000 -0.102200
vn -0.583900 0.805400 -0.102000
vn 0.107800 0.821300 -0.560200
vn 0.261700 0.847300 -0.462200
vn 0.030700 0.936700 -0.348900
vn 0.390800 0.875300 -0.284800
vn 0.368200 0.903900 -0.217900
vn 0.054300 0.908000 -0.415400
vn -0.542500 0.836600 0.076300
vn 0.202800 0.935800 -0.288200
vn 0.423500 0.816400 -0.392600
vn 0.434400 0.789600 -0.433400
vn 0.225900 0.907200 -0.354800
vn 0.275400 0.818200 -0.504600
vn -0.447500 0.821300 0.353800
vn -0.500100 0.847300 0.179000
vn -0.251200 0.936700 0.244100
vn -0.481900 0.875300 -0.039600
vn -0.421100 0.903900 -0.075500
vn -0.312400 0.908000 0.279000
vn 0.093000 0.848500 -0.520900
vn -0.341800 0.935800 0.085700
vn -0.577100 0.816400 0.020700
vn -0.612000 0.789600 0.044400
vn -0.402800 0.907200 0.121100
vn -0.538200 0.818200 0.202200
vn 0.537300 0.821300 -0.191600
vn 0.531100 0.847300 -0.009200
vn 0.316200 0.936700 -0.150700
vn 0.443700 0.875300 0.192100
vn 0.374700 0.903900 0.206500
vn 0.385400 0.908000 -0.164100
vn -0.410600 0.848500 0.333700
vn 0.351300 0.935800 0.028400
vn 0.553300 0.816400 0.165500
vn 0.593900 0.789600 0.154200
vn 0.420300 0.907200 0.014500
vn 0.574600 0.818200 -0.019000
vn 0.332100 0.821300 0.463800
vn 0.155000 0.847300 0.508000
vn 0.231900 0.936700 0.262500
vn -0.062500 0.875300 0.479500
vn -0.095400 0.903900 0.417100
vn 0.263900 0.908000 0.325400
vn 0.496000 0.848500 -0.184400
vn 0.069400 0.935800 0.345500
vn -0.006800 0.816400 0.577400
vn 0.015200 0.789600 0.613500
vn 0.101800 0.907200 0.408100
vn 0.176400 0.818200 0.547200
vn -0.483700 0.821300 -0.302400
vn -0.336800 0.847300 -0.410700
vn -0.314400 0.936700 -0.154400
vn -0.124800 0.875300 -0.467100
vn -0.070600 0.903900 -0.422000
vn -0.367900 0.908000 -0.200300
vn 0.313800 0.848500 0.426000
vn -0.195800 0.935800 -0.293000
vn -0.213700 0.816400 -0.536500
vn -0.247700 0.789600 -0.561400
vn -0.249600 0.907200 -0.338600
vn -0.371500 0.818200 -0.438700
f 1/1/1 2/2/2 3/3/3
f 1/1/1 3/3/3 4/4/4
f 5/5/5 1/1/1 4/4/4
f 5/5/5 4/4/4 6/6/6
f 7/7/7 8/8/8 9/9/9
f 7/7/7 9/9/9 10/10/10
f 10/10/10 9/9/9 1/1/1
f 10/10/10 1/1/1 5/5/5
f 8/8/8 11/11/11 12/12/12
f 8/8/8 12/12/12 9/9/9
f 9/9/9 12/12/12 2/2/2
f 9/9/9 2/2/2 1/1/1
f 13/13/13 14/14/14 15/15/15
f 13/13/13 15/15/15 16/16/16
f 17/17/17 13/13/13 16/16/16
f 17/17/17 16/16/16 18/18/18
f 19/19/19 20/20/20 21/21/21
f 19/19/19 21/21/21 22/22/22
f 22/22/22 21/21/21 13/13/13
f 22/22/22 13/13/13 17/17/17
f 20/20/20 23/23/23 24/24/24
f 20/20/20 24/24/24 21/21/21
f 21/21/21 24/24/24 14/14/14
f 21/21/21 14/14/14 13/13/13
f 25/25/25 26/26/26 27/27/27
f 25/25/25 27/27/27 28/28/28
f 29/29/29 25/25/25 28/28/28
f 29/29/29 28/28/28 30/30/30
f 31/31/31 32/32/32 33/33/33
f 31/31/31 33/33/33 34/34/34
f 34/34/34 33/33/33 25/25/25
f 34/34/34 25/25/25 29/29/29
f 32/32/32 35/35/35 36/36/36
f 32/32/32 36/36/36 33/33/33
f 33/33/33 36/36/36 26/26/26
f 33/33/33 26/26/26 25/25/25
f 37/37/37 38/38/38 39/39/39
f 37/37/37 39/39/39 40/40/40
f 41/41/41 37/37/37 40/40/40
f 41/41/41 40/40/40 42/42/42
f 43/43/43 44/44/44 45/45/45
f 43/43/43 45/45/45 46/46/46
f 46/46/46 45/45/45 37/37/37
f 46/46/46 37/37/37 41/41/41
f 44/44/44 47/47/47 48/48/48
f 44/44/44 48/48/48 45/45/45
f 45/45/45 48/48/48 38/38/38
f 45/45/45 38/38/38 37/37/37
f 49/49/49 50/50/50 51/51/51
f 49/49/49 51/51/51 52/52/52
f 53/53/53 49/49/49 52/52/52
f 53/53/53 52/52/52 54/54/54
f 55/55/55 56/56/56 57/57/57
f 55/55/55 57/57/57 58/58/58
f 58/58/58 57/57/57 49/49/49
f 58/58/58 49/49/49 53/53/53
f 56/56/56 59/59/59 60/60/60
f 56/56/56 60/60/60 57/57/57
f 57/57/57 60/60/60 50/50/50
f 57/57/57 50/50/50 49/49/49
f 61/61/61 62/62/62 63/63/63
f 61/61/61 63/63/63 64/64/64
f 65/65/65 61/61/61 64/64/64
f 65/65/65 64/64/64 66/66/66
f 67/67/67 68/68/68 69/69/69
f 67/67/67 69/69/69 70/70/70
f 70/70/70 69/69/69 61/61/61
f 70/70/70 61/61/61 65/65/65
f 68/68/68 71/71/71 72/72/72
f 68/68/68 72/72/72 69/69/69
f 69/69/69 72/72/72 62/62/62
f 69/69/69 62/62/62 61/61/61
f 73/73/73 74/74/74 75/75/75
f 73/73/73 75/75/75 76/76/76
f 77/77/77 73/73/73 76/76/76
f 77/77/77 76/76/76 78/78/78
f 79/79/79 80/80/80 81/81/81
f 79/79/79 81/81/81 82/82/82
f 82/82/82 81/81/81 73/73/73
f 82/82/82 73/73/73 77/77/77
f 80/80/80 83/83/83 84/84/84
f 80/80/80 84/84/84 81/81/81
f 81/81/81 84/84/84 74/74/74
f 81/81/81 74/74/74 73/73/73
f 85/85/85 86/86/86 87/87/87
f 85/85/85 87/87/87 88/88/88
f 89/89/89 85/85/85 88/88/88
f 89/89/89 88/88/88 90/90/90
f 91/91/91 92/92/92 93/93/93
f 91/91/91 93/93/93 94/94/94
f 94/94/94 93/93/93 85/85/85
f 94/94/94 85/85/85 89/89/89
f 92/92/92 95/95/95 96/96/96
f 92/92/92 96/96/96 93/93/93
f 93/93/93 96/96/96 86/86/86
f 93/93/93 86/86/86 85/85/85
f 97/97/97 98/98/98 99/99/99
f 97/97/97 99/99/99 100/100/100
f 101/101/101 97/97/97 100/100/100
f 101/101/101 100/100/100 102/102/102
f 103/103/103 104/104/104 105/105/105
f 103/103/103 105/105/105 106/106/106
f 106/106/106 105/105/105 97/97/97
f 106/106/106 97/97/97 101/101/101
f 104/104/104 107/107/107 108/108/108
f 104/104/104 108/108/108 105/105/105
f 105/105/105 108/108/108 98/98/98
f 105/105/105 98/98/98 97/97/97
f 109/109/109 110/110/110 111/111/111
f 109/109/109 111/111/111 112/112/112
f 113/113/113 109/109/109 112/112/112
f 113/113/113 112/112/112 114/114/114
f 115/115/115 116/116/116 117/117/117
f 115/115/115 117/117/117 118/118/118
f 118/118/118 117/117/117 109/109/109
f 118/118/118 109/109/109 113/113/113
f 116/116/116 119/119/119 120/120/120
f 116/116/116 120/120/120 117/117/117
f 117/117/117 120/120/120 110/110/110
f 117/117/117 110/110/110 109/109/109
f 121/121/121 122/122/122 123/123/123
f 121/121/121 123/123/123 124/124/124
f 125/125/125 121/121/121 124/124/124
f 125/125/125 124/124/124 126/126/126
f 127/127/127 128/128/128 129/129/129
f 127/127/127 129/129/129 130/130/130
f 130/130/130 129/129/129 121/121/121
f 130/130/130 121/121/121 125/125/125
f 128/128/128 131/131/131 132/132/132
f 128/128/128 132/132/132 129/129/129
f 129/129/129 132/132/132 122/122/122
f 129/129/129 122/122/122 121/121/121
f 133/133/133 134/134/134 135/135/135
f 133/133/133 135/135/135 136/136/136
f 137/137/137 133/133/133 136/136/136
f 137/137/137 136/136/136 138/138/138
f 139/139/139 140/140/140 141/141/141
f 139/139/139 141/141/141 142/142/142
f 142/142/142 141/141/141 133/133/133
f 142/142/142 133/133/133 137/137/137
f 140/140/140 143/143/143 144/144/144
f 140/140/140 144/144/144 141/141/141
f 141/141/141 144/144/144 134/134/134
f 141/141/141 134/134/134 133/133/133
f 145/145/145 146/146/146 147/147/147
f 145/145/145 147/147/147 148/148/148
f 149/149/149 145/145/145 148/148/148
f 149/149/149 148/148/148 150/150/150
f 151/151/151 152/152/152 153/153/153
f 151/151/151 153/153/153 154/154/154
f 154/154/154 153/153/153 145/145/145
f 154/154/154 145/145/145 149/149/149
f 152/152/152 155/155/155 156/156/156
f 152/152/152 156/156/156 153/153/153
f 153/153/153 156/156/156 146/146/146
f 153/153/153 146/146/146 145/145/145
f 157/157/157 158/158/158 159/159/159
f 157/157/157 159/159/159 160/160/160
f 161/161/161 157/157/157 160/160/160
f 161/161/161 160/160/160 162/162/162
f 163/163/163 164/164/164 165/165/165
f 163/163/163 165/165/165 166/166/166
f 166/166/166 165/165/165 157/157/157
f 166/166/166 157/157/157 161/161/161
f 164/164/164 167/167/167 168/168/168
f 164/164/164 168/168/168 165/165/165
f 165/165/165 168/168/168 158/158/158
f 165/165/165 158/158/158 157/157/157
f 169/169/169 170/170/170 171/171/171
f 169/169/169 171/171/171 172/172/172
f 173/173/173 169/169/169 172/172/172
f 173/173/173 172/172/172 174/174/174
f 175/175/175 176/176/176 177/177/177
f 175/175/175 177/177/177 178/178/178
f 178/178/178 177/177/177 169/169/169
f 178/178/178 169/169/169 173/173/173
f 176/176/176 179/179/179 180/180/180
f 176/176/176 180/180/180 177/177/177
f 177/177/177 180/180/180 170/170/170
f 177/177/177 170/170/170 169/169/169
f 181/181/181 182/182/182 183/183/183
f 181/181/181 183/183/183 184/184/184
f 185/185/185 181/181/181 184/184/184
f 185/185/185 184/184/184 186/186/186
f 187/187/187 188/188/188 189/189/189
f 187/187/187 189/189/189 190/190/190
f 190/190/190 189/189/189 181/181/181
f 190/190/190 181/181/181 185/185/185
f 188/188/188 191/191/191 192/192/192
f 188/188/188 192/192/192 189/189/189
f 189/189/189 192/192/192 182/182/182
f 189/189/189 182/182/182 181/181/181
f 193/193/193 194/194/194 195/195/195
f 193/193/193 195/195/195 196/196/196
f 197/197/197 193/193/193 196/196/196
f 197/197/197 196/196/196 198/198/198
f 199/199/199 200/200/200 201/201/201
f 199/199/199 201/201/201 202/202/202
f 202/202/202 201/201/201 193/193/193
f 202/202/202 193/193/193 197/197/197
f 200/200/200 203/203/203 204/204/204
f 200/200/200 204/204/204 201/201/201
f 201/201/201 204/204/204 194/194/194
f 201/201/201 194/194/194 193/193/193
f 205/205/205 206/206/206 207/207/207
f 205/205/205 207/207/207 208/208/208
f 209/209/209 205/205/205 208/208/208
f 209/209/209 208/208/208 210/210/210
f 211/211/211 212/212/212 213/213/213
f 211/211/211 213/213/213 214/214/214
f 214/214/214 213/213/213 205/205/205
f 214/214/214 205/205/205 209/209/209
f 212/212/212 215/215/215 216/216/216
f 212/212/212 216/216/216 213/213/213
f 213/213/213 216/216/216 206/206/206
f 213/213/213 206/206/206 205/205/205
f 217/217/217 218/218/218 219/219/219
f 217/217/217 219/219/219 220/220/220
f 221/221/221 217/217/217 220/220/220
f 221/221/221 220/220/220 222/222/222
f 223/223/223 224/224/224 225/225/225
f 223/223/223 225/225/225 226/226/226
f 226/226/226 225/225/225 217/217/217
f 226/226/226 217/217/217 221/221/221
f 224/224/224 227/227/227 228/228/228
f 224/224/224 228/228/228 225/225/225
f 225/225/225 228/228/228 218/218/218
f 225/225/225 218/218/218 217/217/217
f 229/229/229 230/230/230 231/231/231
f 229/229/229 231/231/231 232/232/232
f 233/233/233 229/229/229 232/232/232
f 233/233/233 232/232/232 234/234/234
f 235/235/235 236/236/236 237/237/237
f 235/235/235 237/237/237 238/238/238
f 238/238/238 237/237/237 229/229/229
f 238/238/238 229/229/229 233/233/233
f 236/236/236 239/239/239 240/240/240
f 236/236/236 240/240/240 237/237/237
f 237/237/237 240/240/240 230/230/230
f 237/237/237 230/230/230 229/229/229
f 241/241/241 242/242/242 243/243/243
f 241/241/241 243/243/243 244/244/244
f 245/245/245 241/241/241 244/244/244
f 245/245/245 244/244/244 246/246/246
f 247/247/247 248/248/248 249/249/249
f 247/247/247 249/249/249 250/250/250
f 250/250/250 249/249/249 241/241/241
f 250/250/250 241/241/241 245/245/245
f 248/248/248 251/251/251 252/252/252
f 248/248/248 252/252/252 249/249/249
f 249/249/249 252/252/252 242/242/242
f 249/249/249 242/242/242 241/241/241
f 253/253/253 254/254/254 255/255/255
f 253/253/253 255/255/255 256/256/256
f 257/257/257 253/253/253 256/256/256
f 257/257/257 256/256/256 258/258/258
f 259/259/259 260/260/260 261/261/261
f 259/259/259 261/261/261 262/262/262
f 262/262/262 261/261/261 253/253/253
f 262/262/262 253/253/253 257/257/257
f 260/260/260 263/263/263 264/264/264
f 260/260/260 264/264/264 261/261/261
f 261/261/261 264/264/264 254/254/254
f 261/261/261 254/254/254 253/253/253
f 265/265/265 266/266/266 267/267/267
f 265/265/265 267/267/267 268/268/268
f 269/269/269 265/265/265 268/268/268
f 269/269/269 268/268/268 270/270/270
f 271/271/271 272/272/272 273/273/273
f 271/271/271 273/273/273 274/274/274
f 274/274/274 273/273/273 265/265/265
f 274/274/274 265/265/265 269/269/269
f 272/272/272 275/275/275 276/276/276
f 272/272/272 276/276/276 273/273/273
f 273/273/273 276/276/276 266/266/266
f 273/273/273 266/266/266 265/265/265
f 277/277/277 278/278/278 279/279/279
f 277/277/277 279/279/279 280/280/280
f 281/281/281 277/277/277 280/280/280
f 281/281/281 280/280/280 282/282/282
f 283/283/283 284/284/284 285/285/285
f 283/283/283 285/285/285 286/286/286
f 286/286/286 285/285/285 277/277/277
f 286/286/286 277/277/277 281/281/281
f 284/284/284 287/287/287 288/288/288
f 284/284/284 288/288/288 285/285/285
f 285/285/285 288/288/288 278/278/278
f 285/285/285 278/278/278 277/277/277
f 289/289/289 290/290/290 291/291/291
f 289/289/289 291/291/291 292/292/292
f 293/293/293 289/289/289 292/292/292
f 293/293/293 292/292/292 294/294/294
f 295/295/295 296/296/296 297/297/297
f 295/295/295 297/297/297 298/298/298
f 298/298/298 297/297/297 289/289/289
f 298/298/298 289/289/289 293/293/293
f 296/296/296 299/299/299 300/300/300
f 296/296/296 300/300/300 297/297/297
f 297/297/297 300/300/300 290/290/290
f 297/297/297 290/290/290 289/289/289
f 301/301/301 302/302/302 303/303/303
f 301/301/301 303/303/303 304/304/304
f 305/305/305 301/301/301 304/304/304
f 305/305/305 304/304/304 306/306/306
f 307/307/307 308/308/308 309/309/309
f 307/307/307 309/309/309 310/310/310
f 310/310/310 309/309/309 301/301/301
f 310/310/310 301/301/301 305/305/305
f 308/308/308 311/311/311 312/312/312
f 308/308/308 312/312/312 309/309/309
f 309/309/309 312/312/312 302/302/302
f 309/309/309 302/302/302 301/301/301
f 313/313/313 314/314/314 315/315/315
f 313/313/313 315/315/315 316/316/316
f 317/317/317 313/313/313 316/316/316
f 317/317/317 316/316/316 318/318/318
f 319/319/319 320/320/320 321/321/321
f 319/319/319 321/321/321 322/322/322
f 322/322/322 321/321/321 313/313/313
f 322/322/322 313/313/313 317/317/317
f 320/320/320 323/323/323 324/324/324
f 320/320/320 324/324/324 321/321/321
f 321/321/321 324/324/324 314/314/314
f 321/321/321 314/314/314 313/313/313
f 325/325/325 326/326/326 327/327/327
f 325/325/325 327/327/327 328/328/328
f 329/329/329 325/325/325 328/328/328
f 329/329/329 328/328/328 330/330/330
f 331/331/331 332/332/332 333/333/333
f 331/331/331 333/333/333 334/334/334
f 334/334/334 333/333/333 325/325/325
f 334/334/334 325/325/325 329/329/329
f 332/332/332 335/335/335 336/336/336
f 332/332/332 336/336/336 333/333/333
f 333/333/333 336/336/336 326/326/326
f 333/333/333 326/326/326 325/325/325
f 337/337/337 338/338/338 339/339/339
f 337/337/337 339/339/339 340/340/340
f 341/341/341 337/337/337 340/340/340
f 341/341/341 340/340/340 342/342/342
f 343/343/343 344/344/344 345/345/345
f 343/343/343 345/345/345 346/346/346
f 346/346/346 345/345/345 337/337/337
f 346/346/346 337/337/337 341/341/341
f 344/344/344 347/347/347 348/348/348
f 344/344/344 348/348/348 345/345/345
f 345/345/345 348/348/348 338/338/338
f 345/345/345 338/338/338 337/337/337
f 349/349/349 350/350/350 351/351/351
f 349/349/349 351/351/351 352/352/352
f 353/353/353 349/349/349 352/352/352
f 353/353/353 352/352/352 354/354/354
f 355/355/355 356/356/356 357/357/357
f 355/355/355 357/357/357 358/358/358
f 358/358/358 357/357/357 349/349/349
f 358/358/358 349/349/349 353/353/353
f 356/356/356 359/359/359 360/360/360
f 356/356/356 360/360/360 357/357/357
f 357/357/357 360/360/360 350/350/350
f 357/357/357 350/350/350 349/349/349
f 361/361/361 362/362/362 363/363/363
f 361/361/361 363/363/363 364/364/364
f 365/365/365 361/361/361 364/364/364
f 365/365/365 364/364/364 366/366/366
f 367/367/367 368/368/368 369/369/369
f 367/367/367 369/369/369 370/370/370
f 370/370/370 369/369/369 361/361/361
f 370/370/370 361/361/361 365/365/365
f 368/368/368 371/371/371 372/372/372
f 368/368/368 372/372/372 369/369/369
f 369/369/369 372/372/372 362/362/362
f 369/369/369 362/362/362 361/361/361
f 373/373/373 374/374/374 375/375/375
f 373/373/373 375/375/375 376/376/376
f 377/377/377 373/373/373 376/376/376
f 377/377/377 376/376/376 378/378/378
f 379/379/379 380/380/380 381/381/381
f 379/379/379 381/381/381 382/382/382
f 382/382/382 381/381/381 373/373/373
f 382/382/382 373/373/373 377/377/377
f 380/380/380 383/383/383 384/384/384
f 380/380/380 384/384/384 381/381/381
f 381/381/381 384/384/384 374/374/374
f 381/381/381 374/374/374 373/373/373
f 385/385/385 386/386/386 387/387/387
f 385/385/385 387/387/387 388/388/388
f 389/389/389 385/385/385 388/388/388
f 389/389/389 388/388/388 390/390/390
f 391/391/391 392/392/392 393/393/393
f 391/391/391 393/393/393 394/394/394
f 394/394/394 393/393/393 385/385/385
f 394/394/394 385/385/385 389/389/389
f 392/392/392 395/395/395 396/396/396
f 392/392/392 396/396/396 393/393/393
f 393/393/393 396/396/396 386/386/386
f 393/393/393 386/386/386 385/385/385
f 397/397/397 398/398/398 399/399/399
f 397/397/397 399/399/399 400/400/400
f 401/401/401 397/397/397 400/400/400
f 401/401/401 400/400/400 402/402/402
f 403/403/403 404/404/404 405/405/405
f 403/403/403 405/405/405 406/406/406
f 406/406/406 405/405/405 397/397/397
f 406/406/406 397/397/397 401/401/401
f 404/404/404 407/407/407 408/408/408
f 404/404/404 408/408/408 405/405/405
f 405/405/405 408/408/408 398/398/398
f 405/405/405 398/398/398 397/397/397
f 409/409/409 410/410/410 411/411/411
f 409/409/409 411/411/411 412/412/412
f 413/413/413 409/409/409 412/412/412
f 413/413/413 412/412/412 414/414/414
f 415/415/415 416/416/416 417/417/417
f 415/415/415 417/417/417 418/418/418
f 418/418/418 417/417/417 409/409/409
f 418/418/418 409/409/409 413/413/413
f 416/416/416 419/419/419 420/420/420
f 416/416/416 420/420/420 417/417/417
f 417/417/417 420/420/420 410/410/410
f 417/417/417 410/410/410 409/409/409
