# Split Tree_4_bark mesh for Ursina textured rendering
o Tree_4_bark
v 0.258453 -0.011957 -0.111768
v 0.138814 -0.017896 -0.242724
v 0.103422 1.556285 -0.184782
v 0.212467 1.616656 -0.083303
v -0.183937 -0.009203 -0.212890
v -0.275927 0.000687 -0.069240
v -0.272391 1.529700 0.023050
v -0.192479 1.504988 -0.115626
v -0.138068 0.016701 0.245614
v 0.031140 0.017818 0.279605
v 0.007418 1.719173 0.259591
v -0.143213 1.668896 0.257558
v 0.275334 -0.000662 0.065020
v 0.225564 1.680871 0.060600
v -0.029579 -0.016546 -0.277715
v -0.052569 1.515262 -0.194294
v -0.261985 0.009930 0.111249
v -0.254557 1.591663 0.170964
v 0.185754 0.011128 0.212849
v 0.145484 1.723290 0.186439
v -0.212223 2.422455 0.017852
v -0.304906 2.432454 -0.089444
v 0.115164 2.402099 -0.272392
v 0.127791 2.394805 -0.129554
v -0.240260 2.446163 -0.345211
v -0.114931 2.438987 -0.400132
v 0.053086 2.401185 -0.006928
v 0.020295 2.423668 -0.374040
v -0.313543 2.441553 -0.229078
v -0.075765 2.410131 0.047697
v 0.254807 2.526127 -0.115985
v 0.260728 2.513394 -0.198973
v 0.240723 2.533077 -0.334578
v 0.188258 2.602958 -0.399043
v 1.302720 3.015841 -0.058782
v 1.307453 3.047474 -0.172338
v 1.614742 3.382441 -0.038013
v 1.612723 3.361692 0.038203
v 0.133243 2.696097 -0.397097
v 0.104393 2.772087 -0.326246
v 0.642805 2.982381 -0.288721
v 0.727072 2.928018 -0.340780
v 1.188644 3.212626 -0.267073
v 1.113606 3.282571 -0.212892
v 1.462389 3.510454 -0.067903
v 1.518504 3.473073 -0.102822
v 1.053702 3.274997 -0.003417
v 1.089666 3.196590 0.078827
v 1.443344 3.446610 0.122487
v 1.417193 3.495532 0.068383
v 1.250607 3.038775 0.044335
v 1.570446 3.368003 0.104794
v 1.062704 3.305392 -0.113445
v 1.425319 3.519626 -0.002898
v 1.166877 3.105534 0.097574
v 1.503973 3.398085 0.137256
v 1.262997 3.122436 -0.252313
v 1.577042 3.424346 -0.092196
v 1.950859 4.366561 0.175423
v 1.980946 4.353699 0.116387
v 1.863161 4.851176 0.080262
v 1.844181 4.851217 0.110313
v 0.164853 2.697002 -0.062897
v 0.216261 2.604278 -0.062309
v 0.749123 2.849416 0.014994
v 0.658706 2.917205 -0.001025
v 0.874534 2.813552 -0.244604
v 0.882259 2.791086 -0.138303
v 0.126191 2.771097 -0.124755
v 0.601909 2.976772 -0.080274
v 0.836226 2.804813 -0.039175
v 0.815822 2.863235 -0.322155
v 0.104009 2.799165 -0.223262
v 0.595846 2.999913 -0.189157
v 1.776666 4.418808 0.076560
v 1.786376 4.418985 0.143356
v 1.765983 4.807955 0.096235
v 1.764721 4.796711 0.062543
v 1.755603 4.102249 0.102812
v 1.791871 4.099544 0.037019
v 1.893572 4.386041 0.204099
v 1.814542 4.840991 0.124728
v 1.971359 4.351858 0.048944
v 1.925921 4.362631 0.000011
v 1.843839 4.822946 0.021653
v 1.863051 4.840247 0.046045
v 1.863022 4.382675 -0.012252
v 1.813370 4.806088 0.016168
v 1.830711 4.406076 0.191844
v 1.785210 4.824761 0.119449
v 1.805949 4.404575 0.016695
v 1.783013 4.795966 0.031638
v 1.807272 4.065962 0.231475
v 1.761210 4.089576 0.176218
v 1.981791 4.030221 0.146840
v 1.945633 4.030844 0.211823
v 1.857776 4.082993 0.004396
v 1.928079 4.060578 0.018320
v 1.879135 4.043071 0.245251
v 1.975511 4.041038 0.073097
v 2.513215 3.735365 -1.829790
v 2.553253 3.745831 -1.824658
v 2.706333 3.872282 -2.190721
v 2.672753 3.861006 -2.191029
v 1.874421 3.694325 -1.370003
v 1.681277 3.758718 -1.345324
v 1.684728 3.787194 -1.320838
v 1.883010 3.719672 -1.343123
v 2.486915 3.666875 -1.859171
v 2.487921 3.705152 -1.843097
v 2.651769 3.834342 -2.200878
v 2.651331 3.802574 -2.216210
v 2.510825 3.634108 -1.870663
v 2.672011 3.776915 -2.230233
v 2.590990 3.634645 -1.872094
v 2.551233 3.621445 -1.875350
v 2.706134 3.769064 -2.239390
v 2.739095 3.782714 -2.240487
v 2.614637 3.665009 -1.859911
v 2.758556 3.809443 -2.231390
v 2.615309 3.702069 -1.844354
v 2.758728 3.840181 -2.216517
v 2.592292 3.732860 -1.830399
v 2.739202 3.864124 -2.200624
v 2.181340 3.483815 -1.319260
v 2.151017 3.480388 -1.365512
v 2.207941 3.517002 -1.287244
v 2.133564 3.510195 -1.409827
v 2.222130 3.617122 -1.300075
v 2.223593 3.567118 -1.279913
v 2.204768 3.647572 -1.342167
v 2.178100 3.645767 -1.390228
v 2.135331 3.560793 -1.432806
v 2.151670 3.612458 -1.424874
v 1.825849 3.543408 -0.872220
v 1.829608 3.493087 -0.853174
v 1.805651 3.574171 -0.912791
v 1.814933 3.442713 -0.860754
v 1.749493 3.539210 -0.993519
v 1.776712 3.572558 -0.959527
v 1.734142 3.487282 -1.001697
v 1.734830 3.436225 -0.979692
v 1.787670 3.409433 -0.892109
v 1.755212 3.406065 -0.936893
v 1.320532 3.456956 -0.654831
v 1.328900 3.516340 -0.640918
v 1.365266 3.555744 -0.610476
v 1.416034 3.559748 -0.575426
v 1.389334 3.366984 -0.617747
v 1.342346 3.399213 -0.645000
v 1.442314 3.374148 -0.585776
v 1.477482 3.413833 -0.558033
v 1.461904 3.527105 -0.550487
v 1.485216 3.471423 -0.544799
v 1.166784 3.135740 -0.115559
v 1.118351 3.205998 -0.096910
v 1.384273 3.270212 -0.050205
v 1.382150 3.192650 -0.080465
v 1.337192 3.336460 -0.026237
v 1.256766 3.366526 -0.020530
v 1.332623 3.130844 -0.107325
v 1.121186 3.286083 -0.065601
v 1.173951 3.347525 -0.036179
v 1.249918 3.106271 -0.118913
v 1.309894 3.291152 -0.109382
v 1.227494 3.316494 -0.103688
v 1.270831 3.668986 0.390764
v 1.330161 3.667456 0.408072
v 1.113185 3.249772 -0.009368
v 1.121955 3.183388 0.040154
v 1.200913 3.533464 0.436756
v 1.191682 3.586030 0.410238
v 1.255613 3.092955 0.059708
v 1.334050 3.108847 0.022478
v 1.356559 3.523943 0.478260
v 1.301838 3.492410 0.477491
v 1.366768 3.233017 -0.080911
v 1.372875 3.632877 0.436030
v 1.152367 3.300282 -0.064984
v 1.217916 3.637514 0.391868
v 1.174911 3.124674 0.067406
v 1.241587 3.498070 0.462722
v 1.376451 3.164403 -0.029918
v 1.382853 3.578691 0.463496
v 0.985304 3.686938 0.805953
v 0.971112 3.735050 0.788804
v 1.100131 3.701129 0.890913
v 1.065372 3.663838 0.867292
v 1.059800 3.831730 0.845480
v 1.095342 3.805120 0.877683
v 0.983158 3.787607 0.790108
v 1.020012 3.659692 0.835736
v 1.110304 3.755588 0.895622
v 1.017028 3.824913 0.811592
v 0.871231 3.939608 1.381023
v 0.838739 3.901855 1.355027
v 0.828556 4.069994 1.337143
v 0.863575 4.043702 1.370168
v 0.745555 3.972044 1.274363
v 0.755797 4.024907 1.277476
v 0.794903 3.897087 1.321469
v 0.879397 3.994222 1.387504
v 0.787489 4.062701 1.301300
v 0.760594 3.923979 1.290912
v 0.663382 4.317184 1.811652
v 0.690349 4.288380 1.824802
v 0.570665 4.303183 1.865978
v 0.589006 4.325763 1.837231
v 0.637896 4.225600 1.898033
v 0.599933 4.242783 1.903421
v 0.695018 4.255927 1.850286
v 0.624412 4.331300 1.816232
v 0.574899 4.271801 1.890739
v 0.674930 4.230933 1.877658
v 0.565626 4.552735 2.206342
v 0.579740 4.568742 2.178926
v 0.619742 4.483660 2.231780
v 0.589649 4.501490 2.238889
v 0.660891 4.528416 2.161044
v 0.665058 4.502059 2.184119
v 0.607741 4.569429 2.157468
v 0.569432 4.527278 2.228782
v 0.649161 4.484079 2.210702
v 0.638986 4.554152 2.150743
v 1.109888 4.069518 1.211284
v 1.286312 4.098102 1.110699
v 1.276115 4.119314 1.081230
v 1.093919 4.087815 1.182146
v 1.067923 4.056973 1.122317
v 1.283616 4.101299 1.012191
v 1.298631 4.069931 0.999309
v 1.068354 4.020519 1.114427
v 1.091695 3.968531 1.155238
v 1.322433 4.016103 1.036632
v 1.322069 4.012495 1.074560
v 1.106035 3.971607 1.190642
v 1.119169 4.035276 1.224540
v 1.301239 4.064992 1.120648
v 1.077581 4.082940 1.148150
v 1.274847 4.120389 1.043453
v 1.077236 3.987258 1.127031
v 1.313104 4.037814 1.008676
v 1.116997 3.997556 1.217404
v 1.314137 4.031620 1.107177
v 1.628842 4.199921 0.886826
v 1.645210 4.175367 0.875793
v 1.665889 4.129279 0.906667
v 1.662197 4.123774 0.938348
v 1.636037 4.163604 0.977895
v 1.621817 4.191098 0.969822
v 1.616920 4.213386 0.913290
v 1.659027 4.148715 0.883384
v 1.650843 4.137243 0.966039
v 1.614411 4.210148 0.945150
v 0.769105 4.045934 1.341453
v 0.790403 4.072181 1.358555
v 0.784608 3.959575 1.383553
v 0.766357 3.977206 1.356881
v 0.842676 4.026814 1.429590
v 0.831625 3.989998 1.430575
v 0.816437 4.077641 1.385735
v 0.760518 4.009642 1.340821
v 0.808837 3.963946 1.412918
v 0.836453 4.060200 1.412827
v 1.884897 3.706681 -1.272170
v 1.653993 3.790591 -1.256099
v 1.631606 3.765064 -1.241182
v 1.877083 3.674206 -1.255568
v 1.860531 3.613573 -1.286596
v 1.613296 3.703717 -1.268721
v 1.624797 3.689116 -1.301981
v 1.858322 3.606725 -1.324235
v 1.865070 3.658130 -1.376075
v 1.665749 3.724818 -1.350585
v 1.887287 3.724302 -1.305617
v 1.674464 3.799262 -1.286502
v 1.868043 3.639122 -1.261175
v 1.616462 3.732262 -1.246025
v 1.859767 3.624112 -1.358953
v 1.644902 3.697458 -1.333899
v 1.303839 3.936371 -1.283740
v 1.281677 3.916865 -1.272742
v 1.265386 3.864671 -1.295442
v 1.277843 3.849950 -1.321438
v 1.320073 3.875250 -1.359006
v 1.334744 3.903266 -1.354199
v 1.325037 3.940945 -1.307267
v 1.267354 3.889777 -1.277200
v 1.298883 3.854193 -1.346265
v 1.336744 3.928389 -1.334416
v 2.232125 3.618980 -1.367964
v 2.220908 3.639932 -1.397462
v 2.218650 3.524810 -1.388489
v 2.230055 3.548700 -1.362904
v 2.187298 3.577982 -1.467243
v 2.192975 3.542064 -1.454749
v 2.205485 3.638277 -1.432187
v 2.235056 3.584141 -1.354966
v 2.205450 3.521396 -1.424302
v 2.192573 3.614521 -1.458789
v -1.425295 2.935414 -0.385950
v -1.428997 2.960155 -0.297137
v -1.764243 3.271120 -0.412410
v -1.762223 3.250371 -0.488626
v -0.042519 2.523861 -0.061979
v -0.036232 2.598307 -0.128817
v -0.824369 2.849952 -0.188321
v -0.866400 2.783327 -0.145941
v -1.336076 3.089322 -0.223044
v -1.277388 3.144026 -0.265419
v -1.611889 3.399134 -0.382520
v -1.668004 3.361752 -0.347601
v -1.230537 3.138102 -0.429251
v -1.258664 3.076780 -0.493575
v -1.592845 3.335289 -0.572910
v -1.566693 3.384211 -0.518806
v -1.384537 2.953351 -0.466599
v -1.719947 3.256682 -0.555217
v -1.237577 3.161874 -0.343197
v -1.574819 3.408306 -0.447525
v -1.319051 3.005563 -0.508237
v -1.653474 3.286765 -0.587679
v -1.394228 3.018783 -0.234588
v -1.726542 3.313026 -0.358227
v -2.100359 4.255240 -0.625847
v -2.130446 4.242378 -0.566810
v -1.938235 4.904423 -0.486323
v -1.919255 4.904465 -0.516374
v -0.070409 2.512445 -0.372608
v -0.092406 2.416365 -0.371936
v -0.854233 2.713935 -0.426206
v -0.812602 2.793339 -0.414938
v -0.113581 2.317369 -0.211224
v -0.096356 2.349783 -0.117925
v -0.932719 2.649909 -0.219702
v -0.930242 2.629519 -0.303454
v -0.055098 2.589345 -0.316073
v -0.792460 2.856473 -0.353369
v -0.112141 2.340808 -0.309168
v -0.901611 2.653362 -0.382302
v -0.067634 2.426512 -0.058941
v -0.907849 2.706596 -0.159326
v -0.042696 2.621335 -0.224882
v -0.796364 2.876823 -0.267578
v -1.926166 4.307487 -0.526983
v -1.935876 4.307665 -0.593779
v -1.841057 4.861202 -0.502296
v -1.839795 4.849958 -0.468604
v -1.905104 3.990929 -0.553235
v -1.941371 3.988223 -0.487442
v -2.043072 4.274720 -0.654522
v -1.889616 4.894238 -0.530789
v -2.120859 4.240537 -0.499367
v -2.075422 4.251310 -0.450434
v -1.918912 4.876194 -0.427714
v -1.938125 4.893494 -0.452106
v -2.012522 4.271355 -0.438171
v -1.888443 4.859336 -0.422229
v -1.980212 4.294757 -0.642267
v -1.860284 4.878008 -0.525510
v -1.955449 4.293254 -0.467118
v -1.858087 4.849214 -0.437699
v -1.956772 3.954642 -0.681898
v -1.910710 3.978256 -0.626641
v -2.131291 3.918901 -0.597263
v -2.095133 3.919523 -0.662246
v -2.007277 3.971672 -0.454819
v -2.077579 3.949258 -0.468743
v -2.028635 3.931750 -0.695674
v -2.125012 3.929717 -0.523520
v -1.543838 4.622482 1.390700
v -1.578086 4.644587 1.399497
v -1.475897 4.950005 1.663509
v -1.449749 4.927830 1.654597
v -1.300046 4.167477 0.795147
v -1.152089 4.138412 0.656136
v -1.166271 4.154255 0.624987
v -1.320081 4.181730 0.766264
v -1.512380 4.566165 1.436357
v -1.518709 4.592546 1.404917
v -1.429756 4.901193 1.666391
v -1.423663 4.880215 1.694090
v -1.528271 4.552163 1.472811
v -1.434762 4.871928 1.727117
v -1.592076 4.583756 1.509680
v -1.559421 4.558740 1.501122
v -1.457756 4.881870 1.753238
v -1.482349 4.906344 1.761614
v -1.615206 4.613623 1.495446
v -1.500669 4.932743 1.749639
v -1.621088 4.639052 1.464874
v -1.506383 4.952931 1.722696
v -1.607548 4.650788 1.428110
v -1.497476 4.959497 1.689763
v -1.598360 4.088144 1.009164
v -1.547315 4.091469 1.030467
v -1.635134 4.113887 0.980546
v -1.504452 4.126897 1.038492
v -1.629080 4.208395 0.942843
v -1.647007 4.159170 0.955670
v -1.587519 4.243545 0.948974
v -1.538208 4.250323 0.972357
v -1.487432 4.178937 1.028823
v -1.500055 4.225554 1.003003
v -1.565686 3.830746 0.496868
v -1.584848 3.782559 0.511698
v -1.522690 3.864492 0.500463
v -1.573643 3.737528 0.537329
v -1.433892 3.844702 0.551613
v -1.472298 3.870056 0.521771
v -1.421950 3.798335 0.578195
v -1.440430 3.747221 0.589913
v -1.536730 3.711200 0.565226
v -1.484810 3.713196 0.584482
v -1.293087 3.481675 0.159352
v -1.301984 3.529440 0.121544
v -1.345097 3.564740 0.095145
v -1.406065 3.574008 0.090777
v -1.379211 3.418047 0.211677
v -1.322200 3.437682 0.192874
v -1.439854 3.431998 0.208831
v -1.480402 3.468115 0.183676
v -1.460868 3.554487 0.110954
v -1.488572 3.514390 0.147024
v -1.316284 3.024420 -0.334864
v -1.267851 3.094677 -0.353513
v -1.533773 3.158891 -0.400218
v -1.531651 3.081329 -0.369958
v -1.486692 3.225139 -0.424186
v -1.406266 3.255206 -0.429893
v -1.482123 3.019524 -0.343098
v -1.270686 3.174763 -0.384822
v -1.323451 3.236204 -0.414244
v -1.399418 2.994950 -0.331510
v -1.190226 2.948020 -0.285534
v -1.185657 2.907148 -0.328664
v -0.767091 3.057689 -0.420791
v -0.762326 3.094763 -0.383199
v -1.239673 2.907792 -0.431680
v -1.276975 2.954006 -0.453180
v -0.796902 3.122818 -0.545188
v -0.790087 3.072789 -0.520541
v -1.304880 3.052049 -0.393808
v -1.287113 3.065670 -0.336357
v -0.781879 3.223125 -0.442912
v -0.790629 3.215582 -0.496531
v -1.216334 3.000323 -0.269439
v -0.764865 3.147647 -0.372909
v -1.203269 2.891750 -0.383746
v -0.776852 3.048819 -0.472366
v -1.300434 3.010084 -0.438632
v -0.795615 3.177578 -0.535646
v -1.253496 3.045557 -0.288531
v -0.772396 3.196993 -0.395461
v -0.280665 3.372505 -0.688822
v -0.277149 3.322266 -0.663913
v -0.262893 3.472207 -0.586395
v -0.270681 3.464964 -0.640202
v -0.251721 3.343183 -0.525955
v -0.251694 3.396161 -0.515836
v -0.266428 3.297784 -0.615373
v -0.276700 3.427150 -0.679357
v -0.256014 3.445764 -0.538669
v -0.257509 3.306293 -0.563584
v 0.196168 3.746346 -0.752689
v 0.181276 3.730359 -0.788078
v 0.299735 3.715820 -0.743411
v 0.269710 3.736732 -0.725140
v 0.261509 3.670439 -0.833111
v 0.295455 3.675933 -0.808966
v 0.190786 3.706620 -0.820797
v 0.230017 3.748516 -0.728431
v 0.309218 3.692803 -0.774974
v 0.220973 3.682654 -0.837880
v 0.551401 4.014349 -0.903703
v 0.524713 4.028114 -0.886230
v 0.519679 3.971577 -0.977941
v 0.548885 3.980416 -0.959424
v 0.447629 4.011756 -0.934418
v 0.456613 3.993065 -0.962955
v 0.489774 4.033031 -0.886554
v 0.560342 3.996259 -0.931252
v 0.483891 3.976753 -0.979463
v 0.460226 4.026998 -0.905138
v -0.396821 3.729830 -0.687383
v -0.506408 3.899608 -0.722394
v -0.507712 3.916181 -0.688541
v -0.397790 3.740459 -0.650984
v -0.448023 3.721190 -0.602900
v -0.567366 3.930972 -0.651529
v -0.602134 3.924217 -0.662526
v -0.477715 3.699629 -0.609593
v -0.494355 3.667799 -0.669785
v -0.622440 3.892568 -0.721204
v -0.600058 3.877960 -0.748358
v -0.474416 3.668366 -0.702505
v -0.414456 3.709050 -0.713681
v -0.527461 3.884434 -0.749680
v -0.417302 3.736899 -0.618534
v -0.531107 3.927949 -0.661263
v -0.494974 3.679441 -0.634863
v -0.622739 3.909583 -0.688795
v -0.443572 3.684650 -0.719628
v -0.563194 3.875098 -0.759557
v -0.706750 4.269172 -0.755529
v -0.736239 4.267297 -0.766458
v -0.754437 4.240742 -0.816144
v -0.736193 4.224591 -0.837450
v -0.674418 4.221076 -0.834937
v -0.656159 4.232386 -0.811231
v -0.676246 4.261781 -0.761744
v -0.754103 4.256429 -0.789297
v -0.705092 4.217199 -0.844878
v -0.656792 4.247886 -0.783199
v -0.205667 3.443210 -0.565142
v -0.184615 3.469709 -0.582160
v -0.241669 3.382740 -0.632357
v -0.240662 3.390609 -0.596407
v -0.187546 3.452287 -0.679753
v -0.207590 3.419944 -0.685289
v -0.172623 3.482347 -0.615966
v -0.227295 3.413387 -0.570980
v -0.228338 3.392745 -0.666864
v -0.173863 3.475664 -0.653283
v -1.364200 4.144257 0.723184
v -1.178805 4.120498 0.562934
v -1.171980 4.084762 0.555742
v -1.370813 4.107596 0.725050
v -1.345474 4.062237 0.772100
v -1.147326 4.036792 0.599878
v -1.138713 4.041690 0.636669
v -1.322473 4.070104 0.801722
v -1.292594 4.135817 0.814551
v -1.139896 4.106012 0.670952
v -1.344896 4.172838 0.738850
v -1.176762 4.147285 0.589332
v -1.363771 4.076809 0.743669
v -1.160228 4.053271 0.569847
v -1.301689 4.098616 0.817998
v -1.135525 4.068644 0.664162
v -0.865535 4.120039 0.347330
v -0.856006 4.090958 0.339842
v -0.834880 4.049591 0.376550
v -0.831280 4.051962 0.408628
v -0.840958 4.103785 0.441117
v -0.852786 4.131088 0.429372
v -0.868490 4.141017 0.371308
v -0.844568 4.064434 0.351000
v -0.833384 4.073101 0.433645
v -0.863396 4.145365 0.402725
v -1.597449 4.239865 0.995009
v -1.569128 4.264535 0.999941
v -1.584069 4.163452 1.053770
v -1.605768 4.178053 1.027860
v -1.507604 4.226456 1.067773
v -1.523057 4.193625 1.080497
v -1.536639 4.270606 1.018755
v -1.610871 4.206701 1.005560
v -1.552916 4.169311 1.075302
v -1.513118 4.255934 1.044644
vt 0.090759 0.475387
vt 0.135969 0.477418
vt 0.506646 0.474367
vt 0.460380 0.478200
vt 0.049563 0.059668
vt 0.373049 0.499951
vt 0.333115 0.511816
vt 0.482541 0.054384
vt 0.389061 0.051530
vt 0.436679 0.051530
vt 0.216507 0.505051
vt 0.254983 0.516531
vt 0.197061 0.061676
vt 0.146035 0.061469
vt 0.096600 0.060429
vt 0.527001 0.059995
vt 0.415296 0.487809
vt 0.340542 0.053860
vt 0.245574 0.060337
vt 0.178071 0.488986
vt 0.292515 0.057334
vt 0.193613 0.705324
vt 0.484488 0.768746
vt 0.275342 0.741574
vt 0.388471 0.777509
vt 0.329991 0.766099
vt 0.441190 0.778981
vt 0.521933 0.757680
vt 0.157631 0.706785
vt 0.294265 0.519118
vt 0.429262 0.859818
vt 0.394500 0.853372
vt 0.344079 0.845968
vt 0.312685 0.844351
vt 0.292765 1.730525
vt 0.332026 1.594540
vt 0.419953 1.052462
vt 0.407772 1.200655
vt 0.090655 0.733276
vt 0.124138 0.716706
vt 0.241370 1.723210
vt 0.262073 1.592526
vt 0.181826 1.514058
vt 0.226925 1.605791
vt 0.310337 1.312474
vt 0.488593 0.884112
vt 1.055607 1.007000
vt 0.324814 1.728275
vt 0.374211 1.320674
vt 0.204361 1.182963
vt 0.313983 1.726978
vt 0.439749 1.204330
vt 0.204267 1.511825
vt 0.460397 0.870294
vt 0.251442 1.725942
vt 0.395629 1.325124
vt 0.261182 1.729057
vt 0.451287 1.044032
vt 0.177983 1.315083
vt 0.329385 1.072329
vt 0.173834 1.186794
vt 0.199724 1.311397
vt 0.349771 1.197065
vt 0.321918 1.194613
vt 0.364808 1.614696
vt 1.045835 1.010033
vt 0.303293 1.728274
vt 0.347968 1.603803
vt 0.331914 1.315228
vt 1.065166 1.010336
vt 0.244893 1.599405
vt 0.315035 1.588378
vt 0.231736 0.716177
vt 0.230671 1.722327
vt 0.282046 1.731878
vt 0.174092 1.026209
vt 0.378129 1.198607
vt 0.244333 1.303243
vt 0.297173 1.586156
vt 0.279378 1.587714
vt 0.207585 1.027137
vt 0.265599 1.184701
vt 0.240647 1.035933
vt 0.272871 0.848928
vt 0.294143 1.190405
vt 0.288758 1.308775
vt 0.271339 1.731350
vt 0.221822 1.307080
vt 0.389997 1.063502
vt 0.266782 1.304458
vt 0.353157 1.317505
vt 0.235377 1.181409
vt 0.163446 0.865098
vt 0.207457 1.609187
vt 0.142985 1.193072
vt 0.197895 0.862121
vt 0.233024 0.854924
vt 0.270684 1.050740
vt 0.298984 1.065193
vt 0.360099 1.071450
vt 0.378006 1.521065
vt 0.186936 1.608539
vt 1.039852 1.018200
vt 1.039852 1.028241
vt 1.149085 0.882705
vt 1.158445 0.863390
vt 1.224098 0.862514
vt 1.221511 0.883902
vt 0.264408 1.505684
vt 0.317646 1.512387
vt 1.045835 1.036409
vt 1.055607 1.039441
vt 0.336320 1.515378
vt 1.065166 1.036106
vt 0.282575 1.507363
vt 0.356366 1.518540
vt 1.070805 1.028054
vt 1.070805 1.018388
vt 0.142443 1.034225
vt 0.225272 1.508818
vt 0.131762 0.865262
vt 0.300041 1.509635
vt 0.219956 1.724439
vt 0.245073 1.506119
vt 1.165976 0.064361
vt 1.161278 0.074754
vt 1.165531 0.146509
vt 1.049438 0.075489
vt 1.258820 0.624598
vt 1.165179 0.157987
vt 1.321237 0.622649
vt 1.318570 0.612054
vt 1.053537 0.066924
vt 1.257493 0.613527
vt 1.157763 0.125197
vt 1.041760 0.111331
vt 1.152979 0.115265
vt 1.046252 0.120122
vt 1.167868 0.053030
vt 1.055321 0.057705
vt 1.050705 0.128955
vt 1.162817 0.135367
vt 1.053156 0.147591
vt 1.053175 0.138213
vt 1.040800 0.092636
vt 1.155782 0.084394
vt 1.044521 0.083792
vt 1.344163 0.124497
vt 1.039842 0.102041
vt 1.151884 0.094389
vt 1.150975 0.104885
vt 1.345179 0.110046
vt 1.339469 0.138726
vt 1.331316 0.151699
vt 1.329087 0.069410
vt 1.323430 0.055488
vt 1.502563 0.114334
vt 1.491186 0.071341
vt 1.500143 0.100079
vt 1.495972 0.085762
vt 1.336271 0.082503
vt 1.323094 0.164428
vt 1.318357 0.178770
vt 1.342181 0.095922
vt 1.482003 0.186946
vt 1.486289 0.172379
vt 1.641833 0.177731
vt 1.645672 0.138892
vt 1.486420 0.040767
vt 1.487441 0.056311
vt 1.640069 0.059640
vt 1.638884 0.041921
vt 1.636867 0.194873
vt 1.499329 0.143718
vt 1.643253 0.097642
vt 1.638331 0.024475
vt 1.493235 0.158085
vt 1.644944 0.118209
vt 1.321715 0.040314
vt 1.645276 0.158980
vt 1.632567 0.211713
vt 1.824388 0.190499
vt 1.502243 0.128828
vt 1.641700 0.078092
vt 1.814350 0.100121
vt 1.822582 0.215632
vt 1.823288 0.030221
vt 1.818102 0.241069
vt 1.820131 0.054885
vt 1.817910 0.143153
vt 1.815039 0.121498
vt 1.822524 0.166483
vt 1.824388 0.005589
vt 1.816515 0.078109
vt 0.711983 1.480025
vt 0.531652 1.429357
vt 0.545889 1.495530
vt 0.543074 1.473973
vt 0.537065 1.329092
vt 0.716274 1.337739
vt 0.527899 1.405399
vt 0.708556 1.460640
vt 0.714522 1.354356
vt 0.545311 1.305828
vt 0.546070 1.518047
vt 0.715195 1.498412
vt 0.706299 1.403685
vt 0.530696 1.354432
vt 0.527899 1.380112
vt 0.709571 1.386968
vt 0.538215 1.452400
vt 0.712186 1.370639
vt 0.704634 1.421853
vt 0.706035 1.441022
vt 0.545109 1.541924
vt 0.847987 1.452981
vt 0.856539 1.481374
vt 0.847235 1.438299
vt 0.849005 1.422996
vt 0.863004 1.361161
vt 0.851419 1.467207
vt 0.718391 1.515770
vt 0.862933 1.377127
vt 0.853981 1.407948
vt 1.031126 1.362088
vt 1.189611 1.386267
vt 1.192839 1.374843
vt 1.012693 1.419370
vt 0.860236 1.345833
vt 1.008600 1.449060
vt 1.027826 1.392096
vt 0.859767 1.392840
vt 1.008765 1.434215
vt 1.205097 1.429261
vt 1.199512 1.419421
vt 1.019383 1.476711
vt 1.031738 1.377365
vt 1.207692 1.450541
vt 1.020227 1.405594
vt 1.026344 1.347300
vt 0.862218 1.495596
vt 1.027586 1.489763
vt 1.012516 1.463325
vt 1.204437 1.461058
vt 1.207870 1.439740
vt 1.190051 1.398076
vt 1.303884 1.390515
vt 1.317545 1.426082
vt 1.316657 1.453780
vt 1.319760 1.444692
vt 1.193616 1.409344
vt 1.199555 1.471346
vt 1.312475 1.417574
vt 1.198787 1.364770
vt 1.320082 1.435236
vt 1.307454 1.409008
vt 1.221387 0.829385
vt 1.312330 1.462428
vt 1.222715 0.840456
vt 1.161637 0.841930
vt 1.311223 1.373191
vt 1.304415 1.399896
vt 1.158970 0.831334
vt 1.306395 1.381478
vt 1.146860 0.902645
vt 1.220159 0.894008
vt 1.219783 0.925265
vt 1.219240 0.914534
vt 1.161266 0.852811
vt 1.040193 0.897569
vt 1.043133 0.906082
vt 1.223590 0.851496
vt 1.153772 0.873215
vt 1.154144 0.821519
vt 1.219275 0.904142
vt 1.146706 0.892559
vt 1.149612 0.912654
vt 1.153729 0.922545
vt 1.223343 0.873390
vt 1.220036 0.818420
vt 1.054260 0.855347
vt 1.042160 0.880130
vt 1.325557 0.915961
vt 1.047638 0.829926
vt 1.051464 0.864044
vt 1.039842 0.888715
vt 1.054689 0.846398
vt 1.046828 0.872142
vt 1.052244 0.837761
vt 1.047227 0.914225
vt 1.329647 0.894570
vt 1.323924 0.850833
vt 1.322188 0.840098
vt 1.330141 0.883745
vt 1.322035 0.829234
vt 1.327899 0.905246
vt 1.326996 0.861512
vt 1.323127 0.926736
vt 1.329500 0.872576
vt 1.323486 0.818420
vt 1.002643 1.063341
vt 1.150707 0.581408
vt 0.976232 1.028119
vt 0.976306 1.018071
vt 1.010952 1.017233
vt 1.016041 1.033411
vt 1.150066 0.570238
vt 1.156721 0.635564
vt 1.153211 0.592472
vt 1.157080 0.527248
vt 1.007145 1.028083
vt 0.991986 1.039530
vt 1.003190 1.046125
vt 0.986496 1.040427
vt 1.001435 1.010273
vt 1.007145 1.018356
vt 0.986465 1.068430
vt 0.982292 1.009980
vt 1.156283 0.603151
vt 1.001555 1.036093
vt 0.976232 1.054405
vt 0.991932 1.007001
vt 1.158173 0.624749
vt 0.982156 1.036425
vt 1.425947 0.598636
vt 1.438048 0.573854
vt 1.331122 0.571278
vt 1.326435 0.580769
vt 1.033257 1.033958
vt 1.038913 1.026515
vt 0.979093 1.045739
vt 0.995747 1.040469
vt 1.033643 1.009861
vt 1.024977 1.007000
vt 1.158020 0.613885
vt 0.995439 1.068430
vt 1.024372 1.036419
vt 1.005651 1.055010
vt 1.038955 1.017264
vt 0.979069 1.063104
vt 1.016278 1.009837
vt 1.152308 0.548738
vt 1.010952 1.026207
vt 1.150560 0.559414
vt 1.333501 0.561425
vt 1.432570 0.624057
vt 1.318941 0.601173
vt 1.330595 0.541329
vt 1.260048 0.559975
vt 1.326478 0.531439
vt 1.432980 0.539758
vt 1.256865 0.580593
vt 1.437074 0.547901
vt 1.326064 0.632464
vt 1.260932 0.549841
vt 1.258696 0.570082
vt 1.256109 0.591469
vt 1.333347 0.551338
vt 1.428743 0.589939
vt 1.256617 0.602487
vt 1.260424 0.528719
vt 1.260968 0.539450
vt 1.427963 0.616223
vt 1.154650 0.538023
vt 1.433380 0.581841
vt 1.425518 0.607585
vt 1.321762 0.590594
vt 1.260171 0.635564
vt 1.440365 0.565268
vt 1.440015 0.556414
vt 0.927147 0.082888
vt 0.849921 0.302680
vt 1.001086 1.003123
vt 1.007072 0.995033
vt 0.723022 1.092597
vt 0.544850 1.261174
vt 0.538461 1.143856
vt 0.719508 1.109482
vt 0.726440 0.603888
vt 0.903457 0.068140
vt 1.007145 0.984985
vt 1.001222 0.976679
vt 0.749367 0.606190
vt 0.991391 0.973574
vt 0.725175 0.471744
vt 0.751464 0.469821
vt 0.981823 0.977011
vt 0.976232 0.985021
vt 0.803013 0.452194
vt 0.981942 1.002831
vt 0.827442 0.452822
vt 0.976232 0.994748
vt 0.825324 0.298046
vt 0.991445 1.006103
vt 0.819768 0.579119
vt 0.797258 0.579850
vt 0.851486 0.453711
vt 0.618549 0.476278
vt 0.704342 0.600210
vt 0.876046 0.455891
vt 0.698630 0.472285
vt 0.638859 0.597612
vt 0.645088 0.472051
vt 0.660531 0.594466
vt 0.752362 0.583204
vt 0.668672 0.893757
vt 0.774826 0.581317
vt 0.650050 0.887907
vt 0.752362 0.451085
vt 0.777944 0.451840
vt 0.682436 0.595912
vt 0.671931 0.471286
vt 0.864044 0.574494
vt 0.842118 0.577531
vt 0.578918 0.087005
vt 0.646366 0.314063
vt 0.620840 0.319121
vt 0.632078 0.062844
vt 0.551875 1.061323
vt 0.553219 0.099003
vt 0.561229 1.066514
vt 0.720802 0.302396
vt 0.658747 0.051530
vt 0.696284 0.307451
vt 0.605217 0.075183
vt 0.671587 0.311335
vt 0.874413 0.307265
vt 0.898703 0.312403
vt 0.975335 0.107722
vt 0.950467 0.096897
vt 0.527899 0.109701
vt 0.877494 0.057660
vt 0.801066 0.294048
vt 0.595620 0.326092
vt 0.849709 0.051530
vt 0.777226 0.290061
vt 0.838627 0.878494
vt 0.820031 0.882293
vt 0.631166 0.886008
vt 0.847840 0.789083
vt 0.535940 1.048750
vt 0.685554 0.904092
vt 0.954959 1.017315
vt 0.964535 1.015499
vt 0.857305 0.877974
vt 0.937779 1.026652
vt 0.895294 0.873902
vt 0.930805 1.033642
vt 0.543581 1.055197
vt 0.571324 1.070496
vt 0.869695 0.782633
vt 0.612131 0.886540
vt 0.912336 0.866190
vt 0.924211 1.041271
vt 1.071662 0.994627
vt 1.071662 0.984960
vt 1.096632 1.002982
vt 1.086859 1.006015
vt 0.876317 0.877566
vt 0.592640 0.886234
vt 1.077301 0.976909
vt 1.077301 1.002679
vt 0.527899 1.042389
vt 0.945835 1.021029
vt 0.641175 0.794504
vt 0.620411 0.792717
vt 1.086860 0.973574
vt 1.102615 0.984774
vt 0.825271 0.794537
vt 0.803190 0.799251
vt 0.699477 0.810508
vt 1.102615 0.994815
vt 1.096632 0.976606
vt 0.680503 0.804035
vt 0.890365 0.776087
vt 0.782032 0.803676
vt 1.222517 0.428067
vt 1.161623 0.429447
vt 1.216432 1.101422
vt 1.331503 1.106115
vt 0.719309 0.817837
vt 0.661326 0.798313
vt 1.326862 1.114742
vt 1.210709 1.111913
vt 1.325480 1.133612
vt 1.342701 1.178808
vt 1.228503 1.188669
vt 1.324612 1.124055
vt 1.208672 1.135726
vt 1.228309 1.177637
vt 1.334324 1.151377
vt 1.158964 0.418820
vt 1.219073 1.157186
vt 1.335730 1.197171
vt 1.339848 1.188193
vt 1.225115 1.167035
vt 1.212703 1.147105
vt 1.220918 1.210185
vt 1.207812 1.123686
vt 1.342701 1.169144
vt 1.221204 0.417024
vt 1.339793 1.159887
vt 1.328899 1.142808
vt 1.225546 1.199516
vt 1.025272 1.194012
vt 1.024930 1.178848
vt 1.042880 1.135260
vt 1.039776 1.089597
vt 1.046043 1.234944
vt 1.029754 1.208449
vt 1.035613 1.149277
vt 1.028423 1.163567
vt 1.045182 1.104523
vt 1.037221 1.221891
vt 0.865636 1.217738
vt 0.877098 1.246468
vt 0.870170 1.094113
vt 0.871080 1.232043
vt 0.873628 1.109621
vt 0.871688 1.141387
vt 0.861829 1.203258
vt 1.046349 1.120093
vt 0.866476 1.156779
vt 0.874223 1.125575
vt 0.717811 1.143375
vt 0.730020 1.266490
vt 0.730475 1.248593
vt 0.860657 1.188211
vt 0.729751 1.212810
vt 0.530649 1.217144
vt 0.561993 1.304931
vt 0.726889 1.195457
vt 0.722318 1.178173
vt 0.536527 1.239739
vt 0.717708 1.126411
vt 0.531220 1.167832
vt 0.861957 1.172411
vt 0.730952 1.230560
vt 0.719070 1.160663
vt 0.553718 1.282696
vt 0.527899 1.192629
vt 0.545179 1.120026
vt 1.513160 0.373710
vt 1.661389 0.380797
vt 1.518418 0.313163
vt 1.521126 0.327910
vt 1.649837 0.311330
vt 0.550105 1.095814
vt 1.657751 0.363090
vt 1.649942 0.328681
vt 1.660561 0.259630
vt 1.505391 0.268181
vt 1.662257 0.398661
vt 1.662257 0.241967
vt 1.514069 0.298468
vt 1.652732 0.345832
vt 1.504519 0.252434
vt 1.518749 0.358588
vt 1.521186 0.342992
vt 1.652714 0.293955
vn -0.687900 -0.076500 -0.721700
vn -0.981300 -0.041800 -0.188000
vn -0.904700 -0.008700 0.425900
vn -0.884700 0.023900 0.465500
vn -0.658600 0.042100 -0.751300
vn 0.915400 0.017600 -0.402100
vn 0.966800 0.105300 0.232600
vn -0.152200 0.050200 -0.987100
vn 0.897900 0.035400 -0.438800
vn 0.439700 0.044700 -0.897000
vn -0.418600 0.114900 0.900900
vn 0.158400 0.170900 0.972500
vn -0.422200 -0.007700 0.906500
vn 0.677500 0.025000 0.735100
vn -0.968800 0.017000 -0.247400
vn -0.161000 -0.083100 -0.983400
vn 0.462100 -0.054100 -0.885200
vn 0.977600 0.030000 0.208400
vn 0.171100 0.011500 0.985200
vn 0.661900 0.167200 0.730700
vn -0.412000 0.397000 0.820100
vn 0.767600 -0.406000 -0.496000
vn 0.291100 -0.240600 -0.926000
vn -0.923600 0.345700 -0.165900
vn -0.697800 0.246200 -0.672600
vn -0.243800 0.043500 -0.968900
vn 0.124200 0.275100 0.953400
vn 0.634500 0.005600 0.772900
vn 0.928100 -0.326500 0.179000
vn -0.821800 0.401600 0.404100
vn 0.791000 -0.453100 -0.411200
vn 0.622800 -0.628000 -0.466700
vn 0.599800 -0.792900 0.107600
vn 0.224700 -0.299000 -0.927400
vn -0.693800 -0.010600 -0.720100
vn -0.460700 0.121100 0.879300
vn -0.398900 0.605600 -0.688500
vn 0.067700 0.284500 -0.956300
vn 0.464500 -0.715100 -0.522400
vn 0.480300 -0.652400 0.586300
vn 0.199500 0.199800 0.959300
vn 0.915400 0.203700 -0.347300
vn 0.551900 0.137600 -0.822500
vn 0.176000 0.158000 0.971600
vn -0.296600 0.729100 -0.616800
vn 0.079900 0.306500 -0.948500
vn 0.524300 -0.090000 -0.846800
vn 0.667400 -0.196100 0.718400
vn -0.386900 0.213000 0.897200
vn -0.681400 0.564500 0.466000
vn -0.427800 0.861800 -0.272500
vn -0.533100 0.703500 0.470000
vn 0.494000 0.037800 -0.868600
vn -0.012700 0.259300 -0.965700
vn -0.855400 0.259200 0.448400
vn -0.339200 0.291800 0.894300
vn -0.128600 0.004300 -0.991700
vn -0.278300 0.711100 -0.645700
vn -0.514100 0.857200 -0.031800
vn 0.293400 -0.760300 0.579500
vn 0.069100 -0.208200 0.975600
vn 0.428400 -0.212300 -0.878300
vn -0.139600 0.281000 -0.949500
vn 0.786100 -0.593700 0.172000
vn 0.947400 -0.246900 0.203900
vn -0.065000 0.067400 -0.995600
vn -0.427200 0.107000 0.897800
vn -0.695100 -0.016100 -0.718800
vn -0.420600 0.716000 -0.557200
vn 0.152200 -0.061200 0.986500
vn -0.431100 0.123200 0.893900
vn -0.084100 0.054500 -0.995000
vn 0.548000 -0.836200 0.020300
vn 0.907700 0.081100 -0.411800
vn 0.144700 -0.103100 0.984100
vn -0.941400 0.288500 -0.174700
vn 0.977200 0.122700 0.173400
vn 0.514500 -0.506200 0.692100
vn -0.236100 0.429300 0.871800
vn 0.699900 0.244000 0.671300
vn -0.982300 0.003600 -0.187300
vn 0.519400 -0.122200 -0.845800
vn -0.458500 0.755600 0.467800
vn 0.445000 -0.749800 -0.489700
vn -0.687900 0.711900 -0.141400
vn 0.017200 -0.247300 0.968800
vn -0.002900 -0.304600 0.952500
vn -0.507600 0.854700 -0.108700
vn -0.890100 0.008400 0.455800
vn 0.709500 0.152600 0.687900
vn 0.950400 0.241400 0.196300
vn 0.378300 -0.659200 0.649900
vn -0.987100 -0.037600 -0.155900
vn -0.641100 0.213000 -0.737300
vn 0.281800 -0.317700 -0.905300
vn -0.451100 0.890700 -0.056400
vn -0.294200 0.272700 0.916000
vn 0.441000 -0.896500 0.041100
vn -0.907000 0.054300 0.417700
vn -0.455700 0.728100 0.512000
vn 0.548800 -0.835700 0.018700
vn 0.019500 -0.954500 -0.297600
vn 0.103600 0.413400 -0.904700
vn -0.037500 0.478600 -0.877200
vn 0.866400 0.480100 0.137100
vn -0.227600 -0.099100 -0.968700
vn -0.302600 -0.947700 -0.101800
vn 0.418000 0.683800 0.598100
vn -0.540600 -0.643300 -0.542100
vn -0.513900 -0.692800 -0.506000
vn -0.497400 0.863700 0.081400
vn 0.128400 0.919800 0.370700
vn -0.652300 0.123500 -0.747800
vn 0.071600 0.945700 0.317100
vn -0.791900 0.491800 -0.361900
vn -0.637500 0.495800 -0.589700
vn -0.480500 0.875800 -0.045700
vn 0.899200 -0.206400 -0.385900
vn 0.649400 -0.759200 -0.044200
vn 0.173900 0.875800 -0.450300
vn 0.840500 -0.456600 0.291700
vn -0.831300 -0.056800 -0.552900
vn 0.129600 -0.936300 -0.326300
vn 0.288300 0.820800 -0.493100
vn 0.900900 -0.385000 0.200300
vn 0.876800 0.048400 0.478400
vn -0.522000 -0.609100 -0.597100
vn 0.920700 0.075000 0.383100
vn 0.703400 -0.540300 0.461800
vn 0.579100 0.580000 0.572900
vn -0.039700 -0.965500 -0.257300
vn 0.418200 -0.896200 0.147900
vn 0.616200 0.591300 0.520200
vn 0.678000 0.566200 0.468700
vn 0.144300 0.957000 0.251700
vn -0.603800 0.565800 -0.561500
vn 0.702500 0.003300 0.711700
vn 0.620100 -0.551600 0.557900
vn -0.683600 0.552000 -0.477500
vn 0.534100 0.588200 0.607300
vn -0.753300 0.007700 -0.657700
vn -0.383000 0.911700 -0.148700
vn 0.779000 -0.008700 0.626900
vn 0.110500 0.958200 0.263800
vn 0.335000 -0.918400 0.210700
vn -0.085000 -0.968400 -0.234500
vn -0.809200 -0.042200 -0.586000
vn -0.753300 0.518500 -0.404500
vn -0.689000 -0.014400 -0.724700
vn -0.491000 -0.623700 -0.608200
vn -0.295300 0.934400 -0.199500
vn 0.054600 0.965500 0.254500
vn -0.427500 0.899600 -0.088700
vn -0.090800 -0.919700 -0.381900
vn 0.811200 -0.486600 0.324400
vn 0.534800 0.684700 0.495200
vn 0.607200 0.689800 0.394400
vn 0.921300 -0.388800 0.005600
vn 0.950500 0.167100 0.261800
vn -0.913100 -0.125600 -0.387900
vn -0.569700 -0.588600 -0.573600
vn 0.835900 0.132800 0.532600
vn -0.585500 -0.629900 -0.510300
vn 0.443800 -0.895400 -0.035100
vn -0.022500 -0.883700 -0.467500
vn -0.553200 0.825000 0.115700
vn 0.139300 -0.723800 0.675800
vn 0.694600 -0.547100 0.467100
vn 0.017600 0.942800 0.332800
vn 0.555500 -0.786300 -0.270500
vn -0.893000 -0.439200 0.098500
vn -0.886200 -0.246800 0.392200
vn 0.470700 0.824000 -0.315300
vn -0.095000 0.862400 -0.497200
vn 0.911500 0.319500 -0.258900
vn 0.866600 0.498700 -0.017500
vn 0.517700 0.681700 -0.517000
vn 0.702600 -0.488800 0.517100
vn -0.894300 0.420200 -0.153800
vn -0.959200 0.100800 -0.264300
vn -0.975400 0.220500 0.005900
vn -0.673800 0.637800 -0.373100
vn -0.087200 0.815100 -0.572800
vn 0.173500 -0.790100 0.588000
vn -0.466600 -0.603700 0.646500
vn -0.639400 0.596500 -0.485100
vn 0.638600 -0.502500 0.582900
vn 0.116800 -0.874600 0.470600
vn 0.955700 0.003500 0.294200
vn -0.793600 -0.589000 -0.152500
vn -0.444600 -0.785200 0.431200
vn 0.384600 0.904400 -0.184600
vn -0.898800 -0.088300 -0.429400
vn 0.983900 -0.142600 0.107600
vn 0.449300 0.857400 -0.250900
vn 0.826700 0.559400 0.060000
vn -0.178800 0.867300 -0.464600
vn 0.664600 -0.495700 0.559100
vn 0.780100 0.605700 0.156600
vn -0.425100 -0.886700 0.181900
vn -0.943100 -0.067000 -0.325600
vn 0.081800 -0.859600 0.504300
vn 0.889900 0.083000 0.448500
vn -0.680400 0.474700 -0.558400
vn -0.839600 -0.541500 -0.043200
vn 0.505200 0.782700 -0.363500
vn -0.711700 0.482000 -0.511000
vn 0.929100 0.077700 0.361600
vn -0.728500 0.511900 -0.455300
vn 0.040100 -0.830400 0.555700
vn 0.887500 0.456800 -0.060100
vn -0.151000 0.860600 -0.486300
vn -0.481500 -0.837600 0.257900
vn -0.983200 0.040100 -0.177900
vn -0.558900 -0.728000 0.397100
vn -0.132700 0.829300 -0.542800
vn -0.629400 -0.624500 0.462500
vn 0.818300 0.541700 0.192300
vn -0.991600 0.096600 -0.085900
vn -0.770600 0.509900 -0.382300
vn -0.908400 -0.398000 0.128300
vn 0.964900 -0.022200 0.261800
vn -0.053300 -0.790500 0.610200
vn 0.662400 -0.545400 0.513600
vn 0.348400 0.683000 0.642000
vn 0.340300 -0.910500 0.234800
vn 0.093800 -0.929200 -0.357600
vn 0.478300 0.735300 -0.480200
vn -0.931700 -0.297300 0.208500
vn -0.500500 -0.150700 -0.852500
vn -0.449800 0.456700 -0.767600
vn 0.869000 0.225800 0.440300
vn -0.510100 0.440300 -0.738900
vn -0.313800 0.889000 -0.333400
vn 0.422800 0.112500 0.899200
vn 0.023900 0.978700 0.203800
vn 0.221900 0.647300 0.729300
vn 0.278400 -0.919500 0.277500
vn 0.623000 -0.598500 0.503700
vn -0.042100 -0.965700 -0.256100
vn -0.205200 0.798200 -0.566300
vn -0.360700 -0.120100 -0.924900
vn -0.071900 0.953200 0.293800
vn 0.533100 0.129500 0.836100
vn -0.160600 -0.618200 -0.769400
vn -0.345000 0.892300 -0.291100
vn 0.679500 0.291000 0.673500
vn 0.351000 -0.929600 0.112700
vn -0.293500 -0.143700 -0.945100
vn -0.409400 0.385600 -0.826900
vn 0.509900 -0.491500 0.706000
vn -0.326000 -0.667500 -0.669400
vn 0.117800 -0.881600 -0.457000
vn 0.471800 -0.490900 0.732400
vn -0.106800 -0.581200 -0.806700
vn 0.464200 -0.543800 0.699200
vn 0.590600 0.101300 0.800600
vn -0.370000 0.855000 -0.363400
vn -0.301600 0.880000 -0.366800
vn -0.105100 -0.978000 -0.180300
vn -0.141700 0.948700 0.282800
vn 0.518200 0.645000 0.561700
vn -0.411100 -0.698100 -0.586200
vn -0.547200 0.419200 -0.724500
vn -0.579000 -0.181900 -0.794800
vn -0.325200 -0.778200 0.537200
vn 0.188800 0.085000 0.978300
vn 0.519100 -0.521200 0.677400
vn 0.039200 0.141600 0.989100
vn 0.010200 -0.454800 0.890500
vn 0.357500 0.922800 0.143500
vn 0.250200 0.642300 0.724500
vn 0.462000 0.619300 0.634900
vn -0.106500 -0.138600 -0.984600
vn 0.246900 -0.922400 0.297100
vn -0.372800 -0.923900 -0.086100
vn 0.073400 0.986200 0.148400
vn -0.171000 -0.848800 0.500300
vn 0.313600 0.615600 0.723000
vn 0.314700 0.933400 0.172200
vn -0.286500 -0.663700 -0.691000
vn -0.169600 -0.371200 0.912900
vn 0.353700 0.907400 0.227100
vn -0.227300 0.473100 -0.851200
vn -0.423000 -0.905800 0.025800
vn -0.371800 -0.702600 0.606700
vn 0.184200 0.593500 0.783400
vn -0.330500 -0.654900 -0.679600
vn -0.393300 0.109100 -0.912900
vn -0.033500 0.127800 0.991200
vn 0.350000 0.816800 -0.458700
vn 0.350100 0.589700 0.727800
vn 0.111300 0.901300 -0.418700
vn -0.296700 -0.704800 -0.644400
vn 0.111600 -0.512000 0.851700
vn -0.296400 -0.113100 -0.948300
vn 0.291600 0.935200 0.200800
vn -0.226600 -0.322600 0.919000
vn -0.352000 -0.674500 -0.649000
vn -0.090100 -0.885500 0.455900
vn -0.902900 0.228000 0.364400
vn -0.502700 0.026400 0.864100
vn 0.306600 0.675100 0.671000
vn 0.432400 0.571600 0.697300
vn -0.116400 0.495200 -0.860900
vn 0.276300 0.034900 0.960400
vn 0.889900 -0.077800 -0.449500
vn -0.182300 0.178500 -0.966900
vn 0.641100 0.213000 0.737300
vn 0.903000 0.010600 -0.429500
vn 0.195900 0.764800 0.613800
vn -0.017400 0.238900 0.970900
vn 0.431100 0.123200 -0.893900
vn 0.700900 -0.160300 0.695000
vn 0.373200 0.273600 -0.886500
vn 0.424200 0.178600 -0.887800
vn 0.104200 -0.050800 0.993300
vn -0.033900 0.252400 0.967000
vn 0.941400 0.288500 0.174700
vn 0.256800 0.717600 0.647400
vn 0.443900 0.085300 -0.892000
vn 0.569400 0.683800 -0.456300
vn -0.185100 0.234500 -0.954300
vn -0.052800 0.269000 0.961700
vn 0.423900 0.747100 -0.512100
vn -0.437400 -0.897900 -0.050000
vn 0.014000 -0.255700 -0.966700
vn -0.038400 -0.245100 -0.968700
vn -0.762000 -0.626800 -0.162700
vn -0.765300 -0.485500 0.422600
vn 0.697000 -0.086100 0.711800
vn 0.427800 0.861800 0.272500
vn -0.587400 -0.801400 -0.112700
vn -0.155400 0.424700 -0.891900
vn -0.537300 0.103800 0.837000
vn 0.123400 -0.043100 0.991400
vn -0.012400 0.271000 0.962500
vn 0.855400 0.259200 -0.448400
vn -0.606200 -0.640200 0.471800
vn 0.452200 0.115900 -0.884300
vn -0.708200 0.455300 -0.539600
vn -0.908900 0.093700 0.406400
vn -0.267300 -0.957500 -0.108200
vn 0.975200 -0.169500 0.142300
vn 0.168600 0.302400 -0.938100
vn 0.422700 0.902900 0.077700
vn -0.708800 0.181000 -0.681800
vn -0.355900 -0.663400 -0.658200
vn -0.689100 0.303400 -0.658100
vn -0.938300 0.296100 -0.178800
vn -0.285500 -0.737900 -0.611500
vn -0.402500 -0.234700 0.884800
vn -0.337400 -0.746600 0.573300
vn 0.255600 0.302100 -0.918400
vn 0.540600 0.830700 0.132500
vn 0.720100 0.676800 0.152800
vn -0.052000 -0.308300 -0.949900
vn -0.489000 -0.541000 -0.684200
vn -0.280000 -0.324400 0.903500
vn -0.489600 -0.154200 0.858200
vn -0.973800 0.147900 -0.172800
vn 0.716200 0.531500 -0.452400
vn 0.317400 0.947800 0.029900
vn 0.982500 -0.069000 0.172800
vn 0.307300 0.774200 -0.553400
vn -0.258400 -0.788400 -0.558300
vn -0.018900 -0.280000 -0.959800
vn -0.359000 -0.932900 0.030600
vn -0.212500 -0.306000 0.928000
vn -0.434500 -0.741500 0.511300
vn 0.899000 0.250400 -0.359300
vn 0.907400 0.400200 -0.128600
vn 0.502100 0.570400 -0.650000
vn -0.899200 -0.206400 0.385900
vn -0.094600 -0.211400 -0.972800
vn -0.713200 -0.232500 -0.661200
vn -0.593100 -0.246200 -0.766500
vn 0.376600 0.213700 -0.901400
vn 0.209600 0.975600 -0.065100
vn 0.987000 -0.152500 0.051800
vn -0.152200 -0.061200 -0.986500
vn -0.524300 -0.090000 0.846800
vn 0.136600 0.989500 0.046400
vn 0.065000 0.067400 0.995600
vn 0.588800 0.725200 0.357000
vn 0.484400 0.734700 0.474900
vn -0.667400 -0.196100 -0.718400
vn -0.947400 -0.246900 -0.203900
vn 0.687300 -0.538700 0.487300
vn -0.227100 0.679700 -0.697400
vn 0.639700 -0.583900 0.499800
vn 0.440600 0.504900 -0.742300
vn 0.974000 0.142300 0.176200
vn -0.147500 0.700400 -0.698300
vn -0.537600 -0.500300 0.678800
vn 0.061800 -0.680500 0.730100
vn -0.740800 0.532300 -0.409800
vn -0.008500 -0.612200 0.790600
vn -0.958400 0.267200 0.100500
vn -0.763200 0.554600 -0.331700
vn -0.981100 0.191500 0.026600
vn -0.882200 -0.056900 0.467400
vn -0.574400 -0.373300 0.728500
vn -0.893800 -0.175200 0.412800
vn 0.487000 0.677400 -0.551400
vn 0.884900 0.386600 -0.259800
vn -0.146700 0.746200 -0.649300
vn 0.991400 -0.028200 0.127700
vn -0.742700 0.488300 -0.458200
vn -0.994400 0.049000 -0.093500
vn 0.707700 -0.481700 0.516900
vn -0.890600 -0.363200 0.273700
vn -0.513400 -0.650600 0.559600
vn 0.085000 -0.727900 0.680400
vn -0.880400 -0.441500 0.173200
vn 0.870800 0.461000 -0.170900
vn 0.448000 0.749400 -0.487500
vn 0.976300 0.003500 0.216400
vn -0.980800 -0.002700 -0.195100
vn -0.167000 0.762800 -0.624700
vn -0.725500 0.464800 -0.507500
vn -0.485000 -0.725100 0.488800
vn 0.687700 -0.477900 0.546500
vn 0.108000 -0.756300 0.645200
vn 0.500700 0.751000 -0.430400
vn -0.098100 0.824400 -0.557500
vn -0.980800 0.107700 -0.162900
vn -0.674200 0.579300 -0.458100
vn -0.901600 -0.381100 0.204600
vn -0.490100 -0.710900 0.504500
vn 0.971300 -0.073900 0.226000
vn 0.106800 -0.770200 0.628800
vn 0.670100 -0.529200 0.520500
vn 0.902400 0.409100 -0.135300
vn 0.584500 -0.636600 0.503200
vn 0.952600 -0.220000 0.210200
vn 0.386400 -0.839300 0.382400
vn 0.337300 -0.420100 0.842500
vn 0.531900 0.721700 -0.443000
vn 0.937800 0.308300 -0.159300
vn 0.122800 -0.685400 -0.717700
vn -0.349700 0.843200 -0.408200
vn -0.094400 0.849200 -0.519600
vn -0.676800 0.641200 -0.361700
vn 0.083900 -0.642300 -0.761900
vn -0.148600 -0.109900 -0.982800
vn -0.979800 0.194800 -0.045300
vn 0.435000 -0.820900 0.369900
vn 0.027000 -0.788600 0.614300
vn -0.263600 0.951300 0.159900
vn -0.527700 -0.660100 0.534600
vn -0.157000 -0.157400 -0.975000
vn -0.909500 -0.296000 0.291700
vn 0.388700 -0.441800 0.808600
vn -0.370200 0.437900 -0.819300
vn -0.071600 0.715900 0.694500
vn 0.293400 -0.927700 -0.230700
vn 0.342300 -0.919300 -0.194100
vn -0.311600 0.923000 0.225800
vn 0.161900 0.184600 0.969400
vn -0.072900 0.660900 0.746900
vn -0.309900 0.450900 -0.837100
vn 0.201400 0.123600 0.971700
vn -0.420300 0.833200 -0.359200
vn 0.491700 -0.414800 0.765600
vn 0.256500 0.130300 0.957700
vn -0.191400 -0.147800 -0.970300
vn -0.408400 0.885800 0.220400
vn -0.108700 0.658800 0.744400
vn 0.545700 -0.769000 0.332900
vn 0.439400 -0.875800 -0.199900
vn -0.523100 0.785200 -0.331500
vn 0.172600 -0.675500 -0.716900
vn -0.456600 0.427600 -0.780100
vn -0.531700 0.810900 0.244600
vn 0.629400 -0.298000 0.717700
vn 0.724300 -0.622300 0.296900
vn -0.224500 -0.203900 -0.952900
vn 0.599900 -0.769600 -0.219000
vn -0.559200 0.325700 -0.762400
vn 0.308600 0.164000 0.936900
vn -0.658000 0.684200 -0.314400
vn -0.162600 0.624000 0.764300
vn 0.240600 -0.650700 -0.720200
vn -0.344300 0.562900 -0.751400
vn -0.032000 0.243500 0.969400
vn -0.002800 0.182800 0.983100
vn -0.432800 0.792400 -0.429900
vn 0.350600 -0.631200 -0.691900
vn 0.855000 0.495300 0.153700
vn 0.749800 0.488700 -0.446100
vn 0.701500 -0.229600 0.674700
vn -0.592300 0.735300 0.329500
vn -0.888300 -0.444400 -0.115900
vn -0.798000 -0.592500 -0.110200
vn -0.207100 -0.267300 -0.941100
vn -0.126600 0.568300 0.813000
vn -0.552500 -0.032000 0.832900
vn 0.706500 -0.681700 -0.189900
vn 0.779200 0.605400 0.162400
vn 0.387400 0.163900 0.907200
vn 0.828000 0.351900 -0.436500
vn 0.804800 -0.519700 0.286600
vn -0.475800 -0.169500 0.863100
vn 0.439100 0.182500 -0.879700
vn -0.579000 -0.452400 -0.678300
vn -0.021600 -0.240300 -0.970500
vn -0.052800 -0.206800 -0.977000
vn -0.765300 -0.454600 0.455700
vn 0.531900 0.454800 0.714300
vn 0.508500 0.076800 -0.857700
vn -0.535000 -0.513600 -0.670800
vn -0.856700 -0.278600 0.434100
vn 0.491000 0.487000 0.722300
vn -0.929700 -0.365200 -0.047200
vn -0.675000 -0.419400 -0.607000
vn 0.869900 0.448700 0.204800
vn -0.605500 0.004000 0.795800
vn 0.468900 0.435800 0.768300
vn -0.875500 -0.205900 0.437300
vn 0.389000 0.440300 -0.809200
vn -0.132800 0.241900 0.961200
vn -0.075900 -0.270400 -0.959800
vn 0.611200 0.603100 -0.512600
vn -0.734300 -0.667000 -0.126000
vn -0.612100 0.359300 -0.704400
vn 0.099700 0.861700 -0.497500
vn 0.005800 0.139100 0.990300
vn 0.696800 0.549900 -0.460400
vn 0.208400 -0.873000 0.441000
vn 0.258400 -0.885800 0.385500
vn -0.512900 -0.543000 -0.664900
vn 0.730400 0.661200 0.171100
vn -0.238200 -0.971100 0.016200
vn -0.701100 -0.558600 0.443100
vn -0.559200 0.357000 -0.748300
vn 0.458900 0.499800 0.734600
vn 0.131100 0.843900 -0.520300
vn -0.430900 -0.261500 0.863700
vn -0.128200 -0.984800 -0.117300
vn -0.260600 0.838600 -0.478400
vn 0.737500 0.202200 0.644400
vn -0.537000 -0.286400 -0.793500
vn -0.545100 0.268100 -0.794300
vn 0.596600 -0.415400 0.686700
vn -0.431600 -0.727700 -0.533100
vn -0.279500 0.857000 -0.432900
vn 0.645100 0.221300 0.731400
vn 0.566800 -0.401600 0.719300
vn -0.572100 -0.720700 -0.391500
vn 0.859600 0.292500 0.418800
vn 0.726200 0.638200 0.255700
vn -0.258400 0.820300 -0.510200
vn 0.235500 -0.932800 0.272900
vn 0.543800 -0.458000 0.703200
vn 0.066400 0.996500 0.051700
vn -0.326700 0.810400 -0.486300
vn -0.123400 -0.965700 -0.228300
vn -0.647000 0.349500 -0.677700
vn -0.384300 -0.710900 -0.589000
f 1/1/1 2/2/2 3/3/3
f 1/1/1 3/3/3 4/4/4
f 5/5/5 6/6/6 7/7/7
f 5/5/5 7/7/7 8/8/8
f 9/9/9 10/10/10 11/11/11
f 9/9/9 11/11/11 12/12/12
f 13/13/13 1/1/1 4/4/4
f 13/13/13 4/4/4 14/14/14
f 15/15/15 5/5/5 8/8/8
f 15/15/15 8/8/8 16/16/16
f 17/17/17 9/9/9 12/12/12
f 17/17/17 12/12/12 18/18/18
f 19/19/19 13/13/13 14/14/14
f 19/19/19 14/14/14 20/20/20
f 2/2/2 15/15/15 16/16/16
f 2/2/2 16/16/16 3/3/3
f 6/6/6 17/17/17 18/18/18
f 6/6/6 18/18/18 7/7/7
f 10/10/10 19/19/19 20/20/20
f 10/10/10 20/20/20 11/11/11
f 18/18/18 12/12/12 21/21/21
f 18/18/18 21/21/21 22/22/22
f 14/14/14 4/4/4 23/23/23
f 14/14/14 23/23/23 24/24/24
f 16/16/16 8/8/8 25/25/25
f 16/16/16 25/25/25 26/26/26
f 20/20/20 14/14/14 24/24/24
f 20/20/20 24/24/24 27/27/27
f 3/3/3 16/16/16 26/26/26
f 3/3/3 26/26/26 28/28/28
f 7/7/7 18/18/18 22/22/22
f 7/7/7 22/22/22 29/29/29
f 11/11/11 20/20/20 27/27/27
f 11/11/11 27/27/27 30/30/30
f 4/4/4 3/3/3 28/28/28
f 4/4/4 28/28/28 23/23/23
f 8/8/8 7/7/7 29/29/29
f 8/8/8 29/29/29 25/25/25
f 31/31/31 27/27/27 24/24/24
f 31/31/31 24/24/24 32/32/32
f 23/23/23 33/33/33 32/32/32
f 23/23/23 32/32/32 24/24/24
f 28/28/28 34/34/34 33/33/33
f 28/28/28 33/33/33 23/23/23
f 12/12/12 11/11/11 30/30/30
f 12/12/12 30/30/30 21/21/21
f 35/35/35 36/36/36 37/37/37
f 35/35/35 37/37/37 38/38/38
f 39/39/39 40/40/40 41/41/41
f 39/39/39 41/41/41 42/42/42
f 43/43/43 44/44/44 45/45/45
f 43/43/43 45/45/45 46/46/46
f 47/47/47 48/48/48 49/49/49
f 47/47/47 49/49/49 50/50/50
f 51/51/51 35/35/35 38/38/38
f 51/51/51 38/38/38 52/52/52
f 53/53/53 47/47/47 50/50/50
f 53/53/53 50/50/50 54/54/54
f 55/55/55 51/51/51 52/52/52
f 55/55/55 52/52/52 56/56/56
f 36/36/36 57/57/57 58/58/58
f 36/36/36 58/58/58 37/37/37
f 57/57/57 43/43/43 46/46/46
f 57/57/57 46/46/46 58/58/58
f 48/48/48 55/55/55 56/56/56
f 48/48/48 56/56/56 49/49/49
f 59/59/59 60/60/60 61/61/61
f 59/59/59 61/61/61 62/62/62
f 63/63/63 64/64/64 65/65/65
f 63/63/63 65/65/65 66/66/66
f 32/32/32 33/33/33 67/67/67
f 32/32/32 67/67/67 68/68/68
f 44/44/44 53/53/53 54/54/54
f 44/44/44 54/54/54 45/45/45
f 69/69/69 63/63/63 66/66/66
f 69/69/69 66/66/66 70/70/70
f 31/31/31 32/32/32 68/68/68
f 31/31/31 68/68/68 71/71/71
f 34/34/34 39/39/39 42/42/42
f 34/34/34 42/42/42 72/72/72
f 73/73/73 69/69/69 70/70/70
f 73/73/73 70/70/70 74/74/74
f 64/64/64 31/31/31 71/71/71
f 64/64/64 71/71/71 65/65/65
f 33/33/33 34/34/34 72/72/72
f 33/33/33 72/72/72 67/67/67
f 75/75/75 76/76/76 77/77/77
f 75/75/75 77/77/77 78/78/78
f 45/45/45 54/54/54 79/79/79
f 45/45/45 79/79/79 80/80/80
f 81/81/81 59/59/59 62/62/62
f 81/81/81 62/62/62 82/82/82
f 83/83/83 84/84/84 85/85/85
f 83/83/83 85/85/85 86/86/86
f 84/84/84 87/87/87 88/88/88
f 84/84/84 88/88/88 85/85/85
f 89/89/89 81/81/81 82/82/82
f 89/89/89 82/82/82 90/90/90
f 60/60/60 83/83/83 86/86/86
f 60/60/60 86/86/86 61/61/61
f 87/87/87 91/91/91 92/92/92
f 87/87/87 92/92/92 88/88/88
f 76/76/76 89/89/89 90/90/90
f 76/76/76 90/90/90 77/77/77
f 92/92/92 78/78/78 77/77/77
f 92/92/92 77/77/77 90/90/90
f 92/92/92 90/90/90 82/82/82
f 92/92/92 82/82/82 62/62/62
f 92/92/92 62/62/62 61/61/61
f 92/92/92 61/61/61 86/86/86
f 92/92/92 86/86/86 85/85/85
f 92/92/92 85/85/85 88/88/88
f 50/50/50 49/49/49 93/93/93
f 50/50/50 93/93/93 94/94/94
f 52/52/52 38/38/38 95/95/95
f 52/52/52 95/95/95 96/96/96
f 58/58/58 46/46/46 97/97/97
f 58/58/58 97/97/97 98/98/98
f 54/54/54 50/50/50 94/94/94
f 54/54/54 94/94/94 79/79/79
f 56/56/56 52/52/52 96/96/96
f 56/56/56 96/96/96 99/99/99
f 37/37/37 58/58/58 98/98/98
f 37/37/37 98/98/98 100/100/100
f 46/46/46 45/45/45 80/80/80
f 46/46/46 80/80/80 97/97/97
f 49/49/49 56/56/56 99/99/99
f 49/49/49 99/99/99 93/93/93
f 38/38/38 37/37/37 100/100/100
f 38/38/38 100/100/100 95/95/95
f 80/80/80 79/79/79 75/75/75
f 80/80/80 75/75/75 91/91/91
f 97/97/97 80/80/80 91/91/91
f 97/97/97 91/91/91 87/87/87
f 98/98/98 97/97/97 87/87/87
f 98/98/98 87/87/87 84/84/84
f 100/100/100 98/98/98 84/84/84
f 100/100/100 84/84/84 83/83/83
f 95/95/95 100/100/100 83/83/83
f 95/95/95 83/83/83 60/60/60
f 96/96/96 95/95/95 60/60/60
f 96/96/96 60/60/60 59/59/59
f 99/99/99 96/96/96 59/59/59
f 99/99/99 59/59/59 81/81/81
f 93/93/93 99/99/99 81/81/81
f 93/93/93 81/81/81 89/89/89
f 94/94/94 93/93/93 89/89/89
f 94/94/94 89/89/89 76/76/76
f 79/79/79 94/94/94 76/76/76
f 79/79/79 76/76/76 75/75/75
f 91/91/91 75/75/75 78/78/78
f 91/91/91 78/78/78 92/92/92
f 41/41/41 74/74/74 53/53/53
f 41/41/41 53/53/53 44/44/44
f 42/42/42 41/41/41 44/44/44
f 42/42/42 44/44/44 43/43/43
f 72/72/72 42/42/42 43/43/43
f 72/72/72 43/43/43 57/57/57
f 67/67/67 72/72/72 57/57/57
f 67/67/67 57/57/57 36/36/36
f 68/68/68 67/67/67 36/36/36
f 68/68/68 36/36/36 35/35/35
f 71/71/71 68/68/68 35/35/35
f 71/71/71 35/35/35 51/51/51
f 65/65/65 71/71/71 51/51/51
f 65/65/65 51/51/51 55/55/55
f 66/66/66 65/65/65 55/55/55
f 66/66/66 55/55/55 48/48/48
f 70/70/70 66/66/66 48/48/48
f 70/70/70 48/48/48 47/47/47
f 74/74/74 70/70/70 47/47/47
f 74/74/74 47/47/47 53/53/53
f 40/40/40 73/73/73 74/74/74
f 40/40/40 74/74/74 41/41/41
f 101/101/101 102/102/102 103/103/103
f 101/101/101 103/103/103 104/104/104
f 105/105/105 106/106/106 107/107/107
f 105/105/105 107/107/107 108/108/108
f 109/109/109 110/110/110 111/111/111
f 109/109/109 111/111/111 112/112/112
f 113/113/113 109/109/109 112/112/112
f 113/113/113 112/112/112 114/114/114
f 110/110/110 101/101/101 104/104/104
f 110/110/110 104/104/104 111/111/111
f 115/115/115 116/116/116 117/117/117
f 115/115/115 117/117/117 118/118/118
f 119/119/119 115/115/115 118/118/118
f 119/119/119 118/118/118 120/120/120
f 121/121/121 119/119/119 120/120/120
f 121/121/121 120/120/120 122/122/122
f 116/116/116 113/113/113 114/114/114
f 116/116/116 114/114/114 117/117/117
f 102/102/102 123/123/123 124/124/124
f 102/102/102 124/124/124 103/103/103
f 123/123/123 121/121/121 122/122/122
f 123/123/123 122/122/122 124/124/124
f 125/125/125 126/126/126 116/116/116
f 125/125/125 116/116/116 115/115/115
f 127/127/127 125/125/125 115/115/115
f 127/127/127 115/115/115 119/119/119
f 126/126/126 128/128/128 113/113/113
f 126/126/126 113/113/113 116/116/116
f 129/129/129 130/130/130 121/121/121
f 129/129/129 121/121/121 123/123/123
f 131/131/131 129/129/129 123/123/123
f 131/131/131 123/123/123 102/102/102
f 132/132/132 131/131/131 102/102/102
f 132/132/132 102/102/102 101/101/101
f 130/130/130 127/127/127 119/119/119
f 130/130/130 119/119/119 121/121/121
f 133/133/133 134/134/134 110/110/110
f 133/133/133 110/110/110 109/109/109
f 128/128/128 133/133/133 109/109/109
f 128/128/128 109/109/109 113/113/113
f 135/135/135 136/136/136 130/130/130
f 135/135/135 130/130/130 129/129/129
f 137/137/137 135/135/135 129/129/129
f 137/137/137 129/129/129 131/131/131
f 136/136/136 138/138/138 127/127/127
f 136/136/136 127/127/127 130/130/130
f 139/139/139 140/140/140 132/132/132
f 139/139/139 132/132/132 134/134/134
f 141/141/141 139/139/139 134/134/134
f 141/141/141 134/134/134 133/133/133
f 142/142/142 141/141/141 133/133/133
f 142/142/142 133/133/133 128/128/128
f 140/140/140 137/137/137 131/131/131
f 140/140/140 131/131/131 132/132/132
f 143/143/143 144/144/144 126/126/126
f 143/143/143 126/126/126 125/125/125
f 138/138/138 143/143/143 125/125/125
f 138/138/138 125/125/125 127/127/127
f 134/134/134 132/132/132 101/101/101
f 134/134/134 101/101/101 110/110/110
f 145/145/145 146/146/146 139/139/139
f 145/145/145 139/139/139 141/141/141
f 147/147/147 148/148/148 137/137/137
f 147/147/147 137/137/137 140/140/140
f 149/149/149 150/150/150 142/142/142
f 149/149/149 142/142/142 144/144/144
f 151/151/151 149/149/149 144/144/144
f 151/151/151 144/144/144 143/143/143
f 152/152/152 151/151/151 143/143/143
f 152/152/152 143/143/143 138/138/138
f 150/150/150 145/145/145 141/141/141
f 150/150/150 141/141/141 142/142/142
f 153/153/153 154/154/154 136/136/136
f 153/153/153 136/136/136 135/135/135
f 148/148/148 153/153/153 135/135/135
f 148/148/148 135/135/135 137/137/137
f 144/144/144 142/142/142 128/128/128
f 144/144/144 128/128/128 126/126/126
f 146/146/146 147/147/147 140/140/140
f 146/146/146 140/140/140 139/139/139
f 155/155/155 156/156/156 145/145/145
f 155/155/155 145/145/145 150/150/150
f 157/157/157 158/158/158 152/152/152
f 157/157/157 152/152/152 154/154/154
f 159/159/159 157/157/157 154/154/154
f 159/159/159 154/154/154 153/153/153
f 160/160/160 159/159/159 153/153/153
f 160/160/160 153/153/153 148/148/148
f 158/158/158 161/161/161 151/151/151
f 158/158/158 151/151/151 152/152/152
f 162/162/162 163/163/163 147/147/147
f 162/162/162 147/147/147 146/146/146
f 156/156/156 162/162/162 146/146/146
f 156/156/156 146/146/146 145/145/145
f 154/154/154 152/152/152 138/138/138
f 154/154/154 138/138/138 136/136/136
f 164/164/164 155/155/155 150/150/150
f 164/164/164 150/150/150 149/149/149
f 161/161/161 164/164/164 149/149/149
f 161/161/161 149/149/149 151/151/151
f 165/165/165 166/166/166 167/167/167
f 165/165/165 167/167/167 168/168/168
f 169/169/169 170/170/170 171/171/171
f 169/169/169 171/171/171 172/172/172
f 173/173/173 174/174/174 175/175/175
f 173/173/173 175/175/175 176/176/176
f 177/177/177 165/165/165 168/168/168
f 177/177/177 168/168/168 178/178/178
f 179/179/179 169/169/169 172/172/172
f 179/179/179 172/172/172 180/180/180
f 181/181/181 173/173/173 176/176/176
f 181/181/181 176/176/176 182/182/182
f 183/183/183 177/177/177 178/178/178
f 183/183/183 178/178/178 184/184/184
f 166/166/166 179/179/179 180/180/180
f 166/166/166 180/180/180 167/167/167
f 170/170/170 181/181/181 182/182/182
f 170/170/170 182/182/182 171/171/171
f 174/174/174 183/183/183 184/184/184
f 174/174/174 184/184/184 175/175/175
f 172/172/172 171/171/171 185/185/185
f 172/172/172 185/185/185 186/186/186
f 176/176/176 175/175/175 187/187/187
f 176/176/176 187/187/187 188/188/188
f 178/178/178 168/168/168 189/189/189
f 178/178/178 189/189/189 190/190/190
f 180/180/180 172/172/172 186/186/186
f 180/180/180 186/186/186 191/191/191
f 182/182/182 176/176/176 188/188/188
f 182/182/182 188/188/188 192/192/192
f 184/184/184 178/178/178 190/190/190
f 184/184/184 190/190/190 193/193/193
f 167/167/167 180/180/180 191/191/191
f 167/167/167 191/191/191 194/194/194
f 171/171/171 182/182/182 192/192/192
f 171/171/171 192/192/192 185/185/185
f 175/175/175 184/184/184 193/193/193
f 175/175/175 193/193/193 187/187/187
f 168/168/168 167/167/167 194/194/194
f 168/168/168 194/194/194 189/189/189
f 188/188/188 187/187/187 195/195/195
f 188/188/188 195/195/195 196/196/196
f 190/190/190 189/189/189 197/197/197
f 190/190/190 197/197/197 198/198/198
f 191/191/191 186/186/186 199/199/199
f 191/191/191 199/199/199 200/200/200
f 192/192/192 188/188/188 196/196/196
f 192/192/192 196/196/196 201/201/201
f 193/193/193 190/190/190 198/198/198
f 193/193/193 198/198/198 202/202/202
f 194/194/194 191/191/191 200/200/200
f 194/194/194 200/200/200 203/203/203
f 185/185/185 192/192/192 201/201/201
f 185/185/185 201/201/201 204/204/204
f 187/187/187 193/193/193 202/202/202
f 187/187/187 202/202/202 195/195/195
f 189/189/189 194/194/194 203/203/203
f 189/189/189 203/203/203 197/197/197
f 186/186/186 185/185/185 204/204/204
f 186/186/186 204/204/204 199/199/199
f 198/198/198 197/197/197 205/205/205
f 198/198/198 205/205/205 206/206/206
f 200/200/200 199/199/199 207/207/207
f 200/200/200 207/207/207 208/208/208
f 201/201/201 196/196/196 209/209/209
f 201/201/201 209/209/209 210/210/210
f 202/202/202 198/198/198 206/206/206
f 202/202/202 206/206/206 211/211/211
f 203/203/203 200/200/200 208/208/208
f 203/203/203 208/208/208 212/212/212
f 204/204/204 201/201/201 210/210/210
f 204/204/204 210/210/210 213/213/213
f 195/195/195 202/202/202 211/211/211
f 195/195/195 211/211/211 214/214/214
f 197/197/197 203/203/203 212/212/212
f 197/197/197 212/212/212 205/205/205
f 199/199/199 204/204/204 213/213/213
f 199/199/199 213/213/213 207/207/207
f 196/196/196 195/195/195 214/214/214
f 196/196/196 214/214/214 209/209/209
f 208/208/208 207/207/207 215/215/215
f 208/208/208 215/215/215 216/216/216
f 210/210/210 209/209/209 217/217/217
f 210/210/210 217/217/217 218/218/218
f 211/211/211 206/206/206 219/219/219
f 211/211/211 219/219/219 220/220/220
f 212/212/212 208/208/208 216/216/216
f 212/212/212 216/216/216 221/221/221
f 213/213/213 210/210/210 218/218/218
f 213/213/213 218/218/218 222/222/222
f 214/214/214 211/211/211 220/220/220
f 214/214/214 220/220/220 223/223/223
f 205/205/205 212/212/212 221/221/221
f 205/205/205 221/221/221 224/224/224
f 207/207/207 213/213/213 222/222/222
f 207/207/207 222/222/222 215/215/215
f 209/209/209 214/214/214 223/223/223
f 209/209/209 223/223/223 217/217/217
f 206/206/206 205/205/205 224/224/224
f 206/206/206 224/224/224 219/219/219
f 225/225/225 226/226/226 227/227/227
f 225/225/225 227/227/227 228/228/228
f 229/229/229 230/230/230 231/231/231
f 229/229/229 231/231/231 232/232/232
f 233/233/233 234/234/234 235/235/235
f 233/233/233 235/235/235 236/236/236
f 237/237/237 238/238/238 226/226/226
f 237/237/237 226/226/226 225/225/225
f 239/239/239 240/240/240 230/230/230
f 239/239/239 230/230/230 229/229/229
f 241/241/241 242/242/242 234/234/234
f 241/241/241 234/234/234 233/233/233
f 243/243/243 244/244/244 238/238/238
f 243/243/243 238/238/238 237/237/237
f 228/228/228 227/227/227 240/240/240
f 228/228/228 240/240/240 239/239/239
f 232/232/232 231/231/231 242/242/242
f 232/232/232 242/242/242 241/241/241
f 236/236/236 235/235/235 244/244/244
f 236/236/236 244/244/244 243/243/243
f 230/230/230 245/245/245 246/246/246
f 230/230/230 246/246/246 231/231/231
f 234/234/234 247/247/247 248/248/248
f 234/234/234 248/248/248 235/235/235
f 238/238/238 249/249/249 250/250/250
f 238/238/238 250/250/250 226/226/226
f 240/240/240 251/251/251 245/245/245
f 240/240/240 245/245/245 230/230/230
f 242/242/242 252/252/252 247/247/247
f 242/242/242 247/247/247 234/234/234
f 244/244/244 253/253/253 249/249/249
f 244/244/244 249/249/249 238/238/238
f 227/227/227 254/254/254 251/251/251
f 227/227/227 251/251/251 240/240/240
f 231/231/231 246/246/246 252/252/252
f 231/231/231 252/252/252 242/242/242
f 235/235/235 248/248/248 253/253/253
f 235/235/235 253/253/253 244/244/244
f 226/226/226 250/250/250 254/254/254
f 226/226/226 254/254/254 227/227/227
f 239/239/239 229/229/229 255/255/255
f 239/239/239 255/255/255 256/256/256
f 241/241/241 233/233/233 257/257/257
f 241/241/241 257/257/257 258/258/258
f 243/243/243 237/237/237 259/259/259
f 243/243/243 259/259/259 260/260/260
f 228/228/228 239/239/239 256/256/256
f 228/228/228 256/256/256 261/261/261
f 232/232/232 241/241/241 258/258/258
f 232/232/232 258/258/258 262/262/262
f 236/236/236 243/243/243 260/260/260
f 236/236/236 260/260/260 263/263/263
f 225/225/225 228/228/228 261/261/261
f 225/225/225 261/261/261 264/264/264
f 229/229/229 232/232/232 262/262/262
f 229/229/229 262/262/262 255/255/255
f 233/233/233 236/236/236 263/263/263
f 233/233/233 263/263/263 257/257/257
f 237/237/237 225/225/225 264/264/264
f 237/237/237 264/264/264 259/259/259
f 252/252/252 246/246/246 245/245/245
f 252/252/252 245/245/245 251/251/251
f 252/252/252 251/251/251 254/254/254
f 252/252/252 254/254/254 250/250/250
f 252/252/252 250/250/250 249/249/249
f 252/252/252 249/249/249 253/253/253
f 252/252/252 253/253/253 248/248/248
f 252/252/252 248/248/248 247/247/247
f 222/222/222 218/218/218 217/217/217
f 222/222/222 217/217/217 223/223/223
f 222/222/222 223/223/223 220/220/220
f 222/222/222 220/220/220 219/219/219
f 222/222/222 219/219/219 224/224/224
f 222/222/222 224/224/224 221/221/221
f 222/222/222 221/221/221 216/216/216
f 222/222/222 216/216/216 215/215/215
f 163/163/163 160/160/160 148/148/148
f 163/163/163 148/148/148 147/147/147
f 265/265/265 266/266/266 267/267/267
f 265/265/265 267/267/267 268/268/268
f 269/269/269 270/270/270 271/271/271
f 269/269/269 271/271/271 272/272/272
f 273/273/273 274/274/274 106/106/106
f 273/273/273 106/106/106 105/105/105
f 275/275/275 276/276/276 266/266/266
f 275/275/275 266/266/266 265/265/265
f 277/277/277 278/278/278 270/270/270
f 277/277/277 270/270/270 269/269/269
f 279/279/279 280/280/280 274/274/274
f 279/279/279 274/274/274 273/273/273
f 108/108/108 107/107/107 276/276/276
f 108/108/108 276/276/276 275/275/275
f 268/268/268 267/267/267 278/278/278
f 268/268/268 278/278/278 277/277/277
f 272/272/272 271/271/271 280/280/280
f 272/272/272 280/280/280 279/279/279
f 266/266/266 281/281/281 282/282/282
f 266/266/266 282/282/282 267/267/267
f 270/270/270 283/283/283 284/284/284
f 270/270/270 284/284/284 271/271/271
f 274/274/274 285/285/285 286/286/286
f 274/274/274 286/286/286 106/106/106
f 276/276/276 287/287/287 281/281/281
f 276/276/276 281/281/281 266/266/266
f 278/278/278 288/288/288 283/283/283
f 278/278/278 283/283/283 270/270/270
f 280/280/280 289/289/289 285/285/285
f 280/280/280 285/285/285 274/274/274
f 107/107/107 290/290/290 287/287/287
f 107/107/107 287/287/287 276/276/276
f 267/267/267 282/282/282 288/288/288
f 267/267/267 288/288/288 278/278/278
f 271/271/271 284/284/284 289/289/289
f 271/271/271 289/289/289 280/280/280
f 106/106/106 286/286/286 290/290/290
f 106/106/106 290/290/290 107/107/107
f 275/275/275 265/265/265 291/291/291
f 275/275/275 291/291/291 292/292/292
f 277/277/277 269/269/269 293/293/293
f 277/277/277 293/293/293 294/294/294
f 279/279/279 273/273/273 295/295/295
f 279/279/279 295/295/295 296/296/296
f 108/108/108 275/275/275 292/292/292
f 108/108/108 292/292/292 297/297/297
f 268/268/268 277/277/277 294/294/294
f 268/268/268 294/294/294 298/298/298
f 272/272/272 279/279/279 296/296/296
f 272/272/272 296/296/296 299/299/299
f 105/105/105 108/108/108 297/297/297
f 105/105/105 297/297/297 300/300/300
f 265/265/265 268/268/268 298/298/298
f 265/265/265 298/298/298 291/291/291
f 269/269/269 272/272/272 299/299/299
f 269/269/269 299/299/299 293/293/293
f 273/273/273 105/105/105 300/300/300
f 273/273/273 300/300/300 295/295/295
f 288/288/288 282/282/282 281/281/281
f 288/288/288 281/281/281 287/287/287
f 288/288/288 287/287/287 290/290/290
f 288/288/288 290/290/290 286/286/286
f 288/288/288 286/286/286 285/285/285
f 288/288/288 285/285/285 289/289/289
f 288/288/288 289/289/289 284/284/284
f 288/288/288 284/284/284 283/283/283
f 120/120/120 118/118/118 117/117/117
f 120/120/120 117/117/117 114/114/114
f 120/120/120 114/114/114 112/112/112
f 120/120/120 112/112/112 111/111/111
f 120/120/120 111/111/111 104/104/104
f 120/120/120 104/104/104 103/103/103
f 120/120/120 103/103/103 124/124/124
f 120/120/120 124/124/124 122/122/122
f 31/31/31 64/64/64 30/30/30
f 31/31/31 30/30/30 27/27/27
f 30/30/30 64/64/64 63/63/63
f 30/30/30 63/63/63 21/21/21
f 21/21/21 63/63/63 69/69/69
f 21/21/21 69/69/69 22/22/22
f 22/22/22 69/69/69 73/73/73
f 22/22/22 73/73/73 29/29/29
f 29/29/29 73/73/73 40/40/40
f 29/29/29 40/40/40 25/25/25
f 25/25/25 40/40/40 39/39/39
f 25/25/25 39/39/39 26/26/26
f 26/26/26 39/39/39 34/34/34
f 26/26/26 34/34/34 28/28/28
f 301/301/301 302/302/302 303/303/303
f 301/301/301 303/303/303 304/304/304
f 305/305/305 306/306/306 307/307/307
f 305/305/305 307/307/307 308/308/308
f 309/309/309 310/310/310 311/311/311
f 309/309/309 311/311/311 312/312/312
f 313/313/313 314/314/314 315/315/315
f 313/313/313 315/315/315 316/316/316
f 317/317/317 301/301/301 304/304/304
f 317/317/317 304/304/304 318/318/318
f 319/319/319 313/313/313 316/316/316
f 319/319/319 316/316/316 320/320/320
f 321/321/321 317/317/317 318/318/318
f 321/321/321 318/318/318 322/322/322
f 302/302/302 323/323/323 324/324/324
f 302/302/302 324/324/324 303/303/303
f 323/323/323 309/309/309 312/312/312
f 323/323/323 312/312/312 324/324/324
f 314/314/314 321/321/321 322/322/322
f 314/314/314 322/322/322 315/315/315
f 325/325/325 326/326/326 327/327/327
f 325/325/325 327/327/327 328/328/328
f 329/329/329 330/330/330 331/331/331
f 329/329/329 331/331/331 332/332/332
f 333/333/333 334/334/334 335/335/335
f 333/333/333 335/335/335 336/336/336
f 310/310/310 319/319/319 320/320/320
f 310/310/310 320/320/320 311/311/311
f 337/337/337 329/329/329 332/332/332
f 337/337/337 332/332/332 338/338/338
f 339/339/339 333/333/333 336/336/336
f 339/339/339 336/336/336 340/340/340
f 341/341/341 305/305/305 308/308/308
f 341/341/341 308/308/308 342/342/342
f 343/343/343 337/337/337 338/338/338
f 343/343/343 338/338/338 344/344/344
f 330/330/330 339/339/339 340/340/340
f 330/330/330 340/340/340 331/331/331
f 334/334/334 341/341/341 342/342/342
f 334/334/334 342/342/342 335/335/335
f 345/345/345 346/346/346 347/347/347
f 345/345/345 347/347/347 348/348/348
f 311/311/311 320/320/320 349/349/349
f 311/311/311 349/349/349 350/350/350
f 351/351/351 325/325/325 328/328/328
f 351/351/351 328/328/328 352/352/352
f 353/353/353 354/354/354 355/355/355
f 353/353/353 355/355/355 356/356/356
f 354/354/354 357/357/357 358/358/358
f 354/354/354 358/358/358 355/355/355
f 359/359/359 351/351/351 352/352/352
f 359/359/359 352/352/352 360/360/360
f 326/326/326 353/353/353 356/356/356
f 326/326/326 356/356/356 327/327/327
f 357/357/357 361/361/361 362/362/362
f 357/357/357 362/362/362 358/358/358
f 346/346/346 359/359/359 360/360/360
f 346/346/346 360/360/360 347/347/347
f 362/362/362 348/348/348 347/347/347
f 362/362/362 347/347/347 360/360/360
f 362/362/362 360/360/360 352/352/352
f 362/362/362 352/352/352 328/328/328
f 362/362/362 328/328/328 327/327/327
f 362/362/362 327/327/327 356/356/356
f 362/362/362 356/356/356 355/355/355
f 362/362/362 355/355/355 358/358/358
f 316/316/316 315/315/315 363/363/363
f 316/316/316 363/363/363 364/364/364
f 318/318/318 304/304/304 365/365/365
f 318/318/318 365/365/365 366/366/366
f 324/324/324 312/312/312 367/367/367
f 324/324/324 367/367/367 368/368/368
f 320/320/320 316/316/316 364/364/364
f 320/320/320 364/364/364 349/349/349
f 322/322/322 318/318/318 366/366/366
f 322/322/322 366/366/366 369/369/369
f 303/303/303 324/324/324 368/368/368
f 303/303/303 368/368/368 370/370/370
f 312/312/312 311/311/311 350/350/350
f 312/312/312 350/350/350 367/367/367
f 315/315/315 322/322/322 369/369/369
f 315/315/315 369/369/369 363/363/363
f 304/304/304 303/303/303 370/370/370
f 304/304/304 370/370/370 365/365/365
f 350/350/350 349/349/349 345/345/345
f 350/350/350 345/345/345 361/361/361
f 367/367/367 350/350/350 361/361/361
f 367/367/367 361/361/361 357/357/357
f 368/368/368 367/367/367 357/357/357
f 368/368/368 357/357/357 354/354/354
f 370/370/370 368/368/368 354/354/354
f 370/370/370 354/354/354 353/353/353
f 365/365/365 370/370/370 353/353/353
f 365/365/365 353/353/353 326/326/326
f 366/366/366 365/365/365 326/326/326
f 366/366/366 326/326/326 325/325/325
f 369/369/369 366/366/366 325/325/325
f 369/369/369 325/325/325 351/351/351
f 363/363/363 369/369/369 351/351/351
f 363/363/363 351/351/351 359/359/359
f 364/364/364 363/363/363 359/359/359
f 364/364/364 359/359/359 346/346/346
f 349/349/349 364/364/364 346/346/346
f 349/349/349 346/346/346 345/345/345
f 361/361/361 345/345/345 348/348/348
f 361/361/361 348/348/348 362/362/362
f 307/307/307 344/344/344 319/319/319
f 307/307/307 319/319/319 310/310/310
f 308/308/308 307/307/307 310/310/310
f 308/308/308 310/310/310 309/309/309
f 342/342/342 308/308/308 309/309/309
f 342/342/342 309/309/309 323/323/323
f 335/335/335 342/342/342 323/323/323
f 335/335/335 323/323/323 302/302/302
f 336/336/336 335/335/335 302/302/302
f 336/336/336 302/302/302 301/301/301
f 340/340/340 336/336/336 301/301/301
f 340/340/340 301/301/301 317/317/317
f 331/331/331 340/340/340 317/317/317
f 331/331/331 317/317/317 321/321/321
f 332/332/332 331/331/331 321/321/321
f 332/332/332 321/321/321 314/314/314
f 338/338/338 332/332/332 314/314/314
f 338/338/338 314/314/314 313/313/313
f 344/344/344 338/338/338 313/313/313
f 344/344/344 313/313/313 319/319/319
f 306/306/306 343/343/343 344/344/344
f 306/306/306 344/344/344 307/307/307
f 371/371/371 372/372/372 373/373/373
f 371/371/371 373/373/373 374/374/374
f 375/375/375 376/376/376 377/377/377
f 375/375/375 377/377/377 378/378/378
f 379/379/379 380/380/380 381/381/381
f 379/379/379 381/381/381 382/382/382
f 383/383/383 379/379/379 382/382/382
f 383/383/383 382/382/382 384/384/384
f 380/380/380 371/371/371 374/374/374
f 380/380/380 374/374/374 381/381/381
f 385/385/385 386/386/386 387/387/387
f 385/385/385 387/387/387 388/388/388
f 389/389/389 385/385/385 388/388/388
f 389/389/389 388/388/388 390/390/390
f 391/391/391 389/389/389 390/390/390
f 391/391/391 390/390/390 392/392/392
f 386/386/386 383/383/383 384/384/384
f 386/386/386 384/384/384 387/387/387
f 372/372/372 393/393/393 394/394/394
f 372/372/372 394/394/394 373/373/373
f 393/393/393 391/391/391 392/392/392
f 393/393/393 392/392/392 394/394/394
f 395/395/395 396/396/396 386/386/386
f 395/395/395 386/386/386 385/385/385
f 397/397/397 395/395/395 385/385/385
f 397/397/397 385/385/385 389/389/389
f 396/396/396 398/398/398 383/383/383
f 396/396/396 383/383/383 386/386/386
f 399/399/399 400/400/400 391/391/391
f 399/399/399 391/391/391 393/393/393
f 401/401/401 399/399/399 393/393/393
f 401/401/401 393/393/393 372/372/372
f 402/402/402 401/401/401 372/372/372
f 402/402/402 372/372/372 371/371/371
f 400/400/400 397/397/397 389/389/389
f 400/400/400 389/389/389 391/391/391
f 403/403/403 404/404/404 380/380/380
f 403/403/403 380/380/380 379/379/379
f 398/398/398 403/403/403 379/379/379
f 398/398/398 379/379/379 383/383/383
f 405/405/405 406/406/406 400/400/400
f 405/405/405 400/400/400 399/399/399
f 407/407/407 405/405/405 399/399/399
f 407/407/407 399/399/399 401/401/401
f 406/406/406 408/408/408 397/397/397
f 406/406/406 397/397/397 400/400/400
f 409/409/409 410/410/410 402/402/402
f 409/409/409 402/402/402 404/404/404
f 411/411/411 409/409/409 404/404/404
f 411/411/411 404/404/404 403/403/403
f 412/412/412 411/411/411 403/403/403
f 412/412/412 403/403/403 398/398/398
f 410/410/410 407/407/407 401/401/401
f 410/410/410 401/401/401 402/402/402
f 413/413/413 414/414/414 396/396/396
f 413/413/413 396/396/396 395/395/395
f 408/408/408 413/413/413 395/395/395
f 408/408/408 395/395/395 397/397/397
f 404/404/404 402/402/402 371/371/371
f 404/404/404 371/371/371 380/380/380
f 415/415/415 416/416/416 409/409/409
f 415/415/415 409/409/409 411/411/411
f 417/417/417 418/418/418 407/407/407
f 417/417/417 407/407/407 410/410/410
f 419/419/419 420/420/420 412/412/412
f 419/419/419 412/412/412 414/414/414
f 421/421/421 419/419/419 414/414/414
f 421/421/421 414/414/414 413/413/413
f 422/422/422 421/421/421 413/413/413
f 422/422/422 413/413/413 408/408/408
f 420/420/420 415/415/415 411/411/411
f 420/420/420 411/411/411 412/412/412
f 423/423/423 424/424/424 406/406/406
f 423/423/423 406/406/406 405/405/405
f 418/418/418 423/423/423 405/405/405
f 418/418/418 405/405/405 407/407/407
f 414/414/414 412/412/412 398/398/398
f 414/414/414 398/398/398 396/396/396
f 416/416/416 417/417/417 410/410/410
f 416/416/416 410/410/410 409/409/409
f 425/425/425 426/426/426 415/415/415
f 425/425/425 415/415/415 420/420/420
f 427/427/427 428/428/428 422/422/422
f 427/427/427 422/422/422 424/424/424
f 429/429/429 427/427/427 424/424/424
f 429/429/429 424/424/424 423/423/423
f 430/430/430 429/429/429 423/423/423
f 430/430/430 423/423/423 418/418/418
f 428/428/428 431/431/431 421/421/421
f 428/428/428 421/421/421 422/422/422
f 432/432/432 433/433/433 417/417/417
f 432/432/432 417/417/417 416/416/416
f 426/426/426 432/432/432 416/416/416
f 426/426/426 416/416/416 415/415/415
f 424/424/424 422/422/422 408/408/408
f 424/424/424 408/408/408 406/406/406
f 434/434/434 425/425/425 420/420/420
f 434/434/434 420/420/420 419/419/419
f 431/431/431 434/434/434 419/419/419
f 431/431/431 419/419/419 421/421/421
f 435/435/435 436/436/436 437/437/437
f 435/435/435 437/437/437 438/438/438
f 439/439/439 440/440/440 441/441/441
f 439/439/439 441/441/441 442/442/442
f 443/443/443 444/444/444 445/445/445
f 443/443/443 445/445/445 446/446/446
f 447/447/447 435/435/435 438/438/438
f 447/447/447 438/438/438 448/448/448
f 449/449/449 439/439/439 442/442/442
f 449/449/449 442/442/442 450/450/450
f 451/451/451 443/443/443 446/446/446
f 451/451/451 446/446/446 452/452/452
f 453/453/453 447/447/447 448/448/448
f 453/453/453 448/448/448 454/454/454
f 436/436/436 449/449/449 450/450/450
f 436/436/436 450/450/450 437/437/437
f 440/440/440 451/451/451 452/452/452
f 440/440/440 452/452/452 441/441/441
f 444/444/444 453/453/453 454/454/454
f 444/444/444 454/454/454 445/445/445
f 442/442/442 441/441/441 455/455/455
f 442/442/442 455/455/455 456/456/456
f 446/446/446 445/445/445 457/457/457
f 446/446/446 457/457/457 458/458/458
f 448/448/448 438/438/438 459/459/459
f 448/448/448 459/459/459 460/460/460
f 450/450/450 442/442/442 456/456/456
f 450/450/450 456/456/456 461/461/461
f 452/452/452 446/446/446 458/458/458
f 452/452/452 458/458/458 462/462/462
f 454/454/454 448/448/448 460/460/460
f 454/454/454 460/460/460 463/463/463
f 437/437/437 450/450/450 461/461/461
f 437/437/437 461/461/461 464/464/464
f 441/441/441 452/452/452 462/462/462
f 441/441/441 462/462/462 455/455/455
f 445/445/445 454/454/454 463/463/463
f 445/445/445 463/463/463 457/457/457
f 438/438/438 437/437/437 464/464/464
f 438/438/438 464/464/464 459/459/459
f 458/458/458 457/457/457 465/465/465
f 458/458/458 465/465/465 466/466/466
f 460/460/460 459/459/459 467/467/467
f 460/460/460 467/467/467 468/468/468
f 461/461/461 456/456/456 469/469/469
f 461/461/461 469/469/469 470/470/470
f 462/462/462 458/458/458 466/466/466
f 462/462/462 466/466/466 471/471/471
f 463/463/463 460/460/460 468/468/468
f 463/463/463 468/468/468 472/472/472
f 464/464/464 461/461/461 470/470/470
f 464/464/464 470/470/470 473/473/473
f 455/455/455 462/462/462 471/471/471
f 455/455/455 471/471/471 474/474/474
f 457/457/457 463/463/463 472/472/472
f 457/457/457 472/472/472 465/465/465
f 459/459/459 464/464/464 473/473/473
f 459/459/459 473/473/473 467/467/467
f 456/456/456 455/455/455 474/474/474
f 456/456/456 474/474/474 469/469/469
f 468/468/468 467/467/467 475/475/475
f 468/468/468 475/475/475 476/476/476
f 470/470/470 469/469/469 477/477/477
f 470/470/470 477/477/477 478/478/478
f 471/471/471 466/466/466 479/479/479
f 471/471/471 479/479/479 480/480/480
f 472/472/472 468/468/468 476/476/476
f 472/472/472 476/476/476 481/481/481
f 473/473/473 470/470/470 478/478/478
f 473/473/473 478/478/478 482/482/482
f 474/474/474 471/471/471 480/480/480
f 474/474/474 480/480/480 483/483/483
f 465/465/465 472/472/472 481/481/481
f 465/465/465 481/481/481 484/484/484
f 467/467/467 473/473/473 482/482/482
f 467/467/467 482/482/482 475/475/475
f 469/469/469 474/474/474 483/483/483
f 469/469/469 483/483/483 477/477/477
f 466/466/466 465/465/465 484/484/484
f 466/466/466 484/484/484 479/479/479
f 485/485/485 486/486/486 487/487/487
f 485/485/485 487/487/487 488/488/488
f 489/489/489 490/490/490 491/491/491
f 489/489/489 491/491/491 492/492/492
f 493/493/493 494/494/494 495/495/495
f 493/493/493 495/495/495 496/496/496
f 497/497/497 498/498/498 486/486/486
f 497/497/497 486/486/486 485/485/485
f 499/499/499 500/500/500 490/490/490
f 499/499/499 490/490/490 489/489/489
f 501/501/501 502/502/502 494/494/494
f 501/501/501 494/494/494 493/493/493
f 503/503/503 504/504/504 498/498/498
f 503/503/503 498/498/498 497/497/497
f 488/488/488 487/487/487 500/500/500
f 488/488/488 500/500/500 499/499/499
f 492/492/492 491/491/491 502/502/502
f 492/492/492 502/502/502 501/501/501
f 496/496/496 495/495/495 504/504/504
f 496/496/496 504/504/504 503/503/503
f 490/490/490 505/505/505 506/506/506
f 490/490/490 506/506/506 491/491/491
f 494/494/494 507/507/507 508/508/508
f 494/494/494 508/508/508 495/495/495
f 498/498/498 509/509/509 510/510/510
f 498/498/498 510/510/510 486/486/486
f 500/500/500 511/511/511 505/505/505
f 500/500/500 505/505/505 490/490/490
f 502/502/502 512/512/512 507/507/507
f 502/502/502 507/507/507 494/494/494
f 504/504/504 513/513/513 509/509/509
f 504/504/504 509/509/509 498/498/498
f 487/487/487 514/514/514 511/511/511
f 487/487/487 511/511/511 500/500/500
f 491/491/491 506/506/506 512/512/512
f 491/491/491 512/512/512 502/502/502
f 495/495/495 508/508/508 513/513/513
f 495/495/495 513/513/513 504/504/504
f 486/486/486 510/510/510 514/514/514
f 486/486/486 514/514/514 487/487/487
f 499/499/499 489/489/489 515/515/515
f 499/499/499 515/515/515 516/516/516
f 501/501/501 493/493/493 517/517/517
f 501/501/501 517/517/517 518/518/518
f 503/503/503 497/497/497 519/519/519
f 503/503/503 519/519/519 520/520/520
f 488/488/488 499/499/499 516/516/516
f 488/488/488 516/516/516 521/521/521
f 492/492/492 501/501/501 518/518/518
f 492/492/492 518/518/518 522/522/522
f 496/496/496 503/503/503 520/520/520
f 496/496/496 520/520/520 523/523/523
f 485/485/485 488/488/488 521/521/521
f 485/485/485 521/521/521 524/524/524
f 489/489/489 492/492/492 522/522/522
f 489/489/489 522/522/522 515/515/515
f 493/493/493 496/496/496 523/523/523
f 493/493/493 523/523/523 517/517/517
f 497/497/497 485/485/485 524/524/524
f 497/497/497 524/524/524 519/519/519
f 512/512/512 506/506/506 505/505/505
f 512/512/512 505/505/505 511/511/511
f 512/512/512 511/511/511 514/514/514
f 512/512/512 514/514/514 510/510/510
f 512/512/512 510/510/510 509/509/509
f 512/512/512 509/509/509 513/513/513
f 512/512/512 513/513/513 508/508/508
f 512/512/512 508/508/508 507/507/507
f 482/482/482 478/478/478 477/477/477
f 482/482/482 477/477/477 483/483/483
f 482/482/482 483/483/483 480/480/480
f 482/482/482 480/480/480 479/479/479
f 482/482/482 479/479/479 484/484/484
f 482/482/482 484/484/484 481/481/481
f 482/482/482 481/481/481 476/476/476
f 482/482/482 476/476/476 475/475/475
f 433/433/433 430/430/430 418/418/418
f 433/433/433 418/418/418 417/417/417
f 525/525/525 526/526/526 527/527/527
f 525/525/525 527/527/527 528/528/528
f 529/529/529 530/530/530 531/531/531
f 529/529/529 531/531/531 532/532/532
f 533/533/533 534/534/534 376/376/376
f 533/533/533 376/376/376 375/375/375
f 535/535/535 536/536/536 526/526/526
f 535/535/535 526/526/526 525/525/525
f 537/537/537 538/538/538 530/530/530
f 537/537/537 530/530/530 529/529/529
f 539/539/539 540/540/540 534/534/534
f 539/539/539 534/534/534 533/533/533
f 378/378/378 377/377/377 536/536/536
f 378/378/378 536/536/536 535/535/535
f 528/528/528 527/527/527 538/538/538
f 528/528/528 538/538/538 537/537/537
f 532/532/532 531/531/531 540/540/540
f 532/532/532 540/540/540 539/539/539
f 526/526/526 541/541/541 542/542/542
f 526/526/526 542/542/542 527/527/527
f 530/530/530 543/543/543 544/544/544
f 530/530/530 544/544/544 531/531/531
f 534/534/534 545/545/545 546/546/546
f 534/534/534 546/546/546 376/376/376
f 536/536/536 547/547/547 541/541/541
f 536/536/536 541/541/541 526/526/526
f 538/538/538 548/548/548 543/543/543
f 538/538/538 543/543/543 530/530/530
f 540/540/540 549/549/549 545/545/545
f 540/540/540 545/545/545 534/534/534
f 377/377/377 550/550/550 547/547/547
f 377/377/377 547/547/547 536/536/536
f 527/527/527 542/542/542 548/548/548
f 527/527/527 548/548/548 538/538/538
f 531/531/531 544/544/544 549/549/549
f 531/531/531 549/549/549 540/540/540
f 376/376/376 546/546/546 550/550/550
f 376/376/376 550/550/550 377/377/377
f 535/535/535 525/525/525 551/551/551
f 535/535/535 551/551/551 552/552/552
f 537/537/537 529/529/529 553/553/553
f 537/537/537 553/553/553 554/554/554
f 539/539/539 533/533/533 555/555/555
f 539/539/539 555/555/555 556/556/556
f 378/378/378 535/535/535 552/552/552
f 378/378/378 552/552/552 557/557/557
f 528/528/528 537/537/537 554/554/554
f 528/528/528 554/554/554 558/558/558
f 532/532/532 539/539/539 556/556/556
f 532/532/532 556/556/556 559/559/559
f 375/375/375 378/378/378 557/557/557
f 375/375/375 557/557/557 560/560/560
f 525/525/525 528/528/528 558/558/558
f 525/525/525 558/558/558 551/551/551
f 529/529/529 532/532/532 559/559/559
f 529/529/529 559/559/559 553/553/553
f 533/533/533 375/375/375 560/560/560
f 533/533/533 560/560/560 555/555/555
f 548/548/548 542/542/542 541/541/541
f 548/548/548 541/541/541 547/547/547
f 548/548/548 547/547/547 550/550/550
f 548/548/548 550/550/550 546/546/546
f 548/548/548 546/546/546 545/545/545
f 548/548/548 545/545/545 549/549/549
f 548/548/548 549/549/549 544/544/544
f 548/548/548 544/544/544 543/543/543
f 390/390/390 388/388/388 387/387/387
f 390/390/390 387/387/387 384/384/384
f 390/390/390 384/384/384 382/382/382
f 390/390/390 382/382/382 381/381/381
f 390/390/390 381/381/381 374/374/374
f 390/390/390 374/374/374 373/373/373
f 390/390/390 373/373/373 394/394/394
f 390/390/390 394/394/394 392/392/392
